<svg xmlns="http://www.w3.org/2000/svg" xmlns:xlink="http://www.w3.org/1999/xlink" width="93" height="94" viewBox="0 0 93 94">
  <defs>
    <clipPath id="clip-path">
      <rect id="Rectángulo_58519" data-name="Rectángulo 58519" width="60.141" height="53.112" fill="#12263f"/>
    </clipPath>
  </defs>
  <g id="Grupo_183592" data-name="Grupo 183592" transform="translate(3337.551 11273.27)">
    <ellipse id="Elipse_4870" data-name="Elipse 4870" cx="46.5" cy="47" rx="46.5" ry="47" transform="translate(-3337.551 -11273.27)" fill="#f4a338"/>
    <g id="Grupo_180633" data-name="Grupo 180633" transform="translate(-3318.812 -11251.564)">
      <g id="Grupo_180632" data-name="Grupo 180632" clip-path="url(#clip-path)">
        <path id="Trazado_232613" data-name="Trazado 232613" d="M0,8.948A8.869,8.869,0,0,1,.522,7.715,3.134,3.134,0,0,1,3.35,6.127q5.93-.006,11.86,0c.82,0,1.336.449,1.347,1.147a1.209,1.209,0,0,1-1.37,1.2q-5.754.008-11.508,0c-1,0-1.33.327-1.33,1.335q0,12.62,0,25.241c0,.154.014.307.023.5H46.551V25.9c-.374-.034-.741-.049-1.1-.1a2.806,2.806,0,0,1-2.439-2.732c-.014-.312,0-.626-.006-.939-.016-.713-.4-.927-1.038-.576-.274.151-.539.319-.816.463a2.774,2.774,0,0,1-3.736-1.02q-.975-1.6-1.877-3.249a2.748,2.748,0,0,1,1.026-3.771c.3-.185.618-.34.908-.537a.577.577,0,0,0-.006-1.043c-.144-.1-.3-.179-.455-.267C35.4,11.185,35,10.351,35.294,8.474h-.628q-4.257,0-8.514,0A1.238,1.238,0,0,1,24.8,7.58a1.172,1.172,0,0,1,1.24-1.452c1.957-.009,3.914,0,5.872,0,1.429,0,2.857-.01,4.286.007a.641.641,0,0,0,.694-.4,8.178,8.178,0,0,1,.526-.915,2.794,2.794,0,0,1,3.744-1c.311.164.605.36.918.522.512.265.89.049.923-.523A14.056,14.056,0,0,1,43.079,2.3,2.685,2.685,0,0,1,45.737.017q1.908-.032,3.816,0A2.73,2.73,0,0,1,52.276,2.75c.009.352-.012.705.009,1.056.034.572.423.8.926.542.313-.16.606-.358.917-.523a2.781,2.781,0,0,1,3.748.987q.995,1.625,1.9,3.3a2.733,2.733,0,0,1-.966,3.7c-.311.2-.649.363-.959.566a.586.586,0,0,0,.018,1.075c.313.2.647.366.959.567a2.725,2.725,0,0,1,.99,3.6c-.62,1.174-1.289,2.326-1.992,3.453a2.756,2.756,0,0,1-3.613.968c-.349-.176-.673-.4-1.023-.573a.577.577,0,0,0-.908.516c-.024.311,0,.626-.007.939a2.789,2.789,0,0,1-2.753,2.906c-.172.011-.343.02-.584.033v.712q0,6.839,0,13.677a3.357,3.357,0,0,1-3.649,3.656q-6.723,0-13.446,0H31.1c.147,1.295.284,2.513.426,3.731.052.447.1.9.178,1.337a2.14,2.14,0,0,0,2.046,1.776c.469.021.94,0,1.409.014a1.181,1.181,0,0,1,1.255,1.189,1.153,1.153,0,0,1-1.279,1.152q-10.07.007-20.139,0a1.138,1.138,0,0,1-1.266-1.159,1.174,1.174,0,0,1,1.257-1.182c.469-.016.94.007,1.409-.014a2.029,2.029,0,0,0,1.974-1.559c.291-1.726.46-3.474.689-5.285H4.02c-2.291,0-3.157-.576-4.02-2.671ZM57.81,9.5c-.088-.188-.145-.332-.221-.466q-.61-1.07-1.229-2.134c-.743-1.276-.576-1.32-1.893-.54-.084.05-.171.094-.259.138a2.957,2.957,0,0,1-4.287-2.527c-.014-.332-.015-.665,0-1,.015-.421-.171-.606-.595-.6-.822.012-1.644,0-2.466,0-1.565.01-1.5-.209-1.488,1.476,0,.02,0,.039,0,.059a2.941,2.941,0,0,1-4.38,2.533c-.259-.138-.516-.28-.762-.439a.549.549,0,0,0-.906.236c-.4.737-.833,1.46-1.258,2.185-.753,1.282-.725,1.171.506,1.865.051.029.1.059.151.09a2.959,2.959,0,0,1,.03,5.042c-.263.168-.534.327-.811.472a.536.536,0,0,0-.248.862c.555.943,1.106,1.89,1.641,2.845.218.389.476.484.86.245q.4-.247.814-.468a2.936,2.936,0,0,1,4.361,2.5q.016.469,0,.939c-.012.436.182.658.627.657q1.644,0,3.288,0c.432,0,.659-.174.635-.634-.017-.332-.013-.666,0-1a2.956,2.956,0,0,1,4.3-2.5c.261.133.512.285.767.43.6.339.694.313,1.052-.3.375-.641.753-1.281,1.118-1.928.817-1.447.938-1.2-.518-2.071a2.946,2.946,0,0,1,.013-5.127c.268-.162.549-.3.807-.479A2.341,2.341,0,0,0,57.81,9.5M46.555,38H2.362c0,.908-.011,1.767,0,2.626a.852.852,0,0,0,.733.864,3.217,3.217,0,0,0,.7.053q20.666,0,41.333,0a1.5,1.5,0,0,0,.745-.08c.27-.171.625-.459.648-.723.08-.907.031-1.825.031-2.74m-16.871,12.7a11.134,11.134,0,0,1-.353-1.34c-.216-1.6-.407-3.211-.584-4.819-.04-.36-.1-.576-.539-.573-2.112.017-4.224,0-6.336.024a.592.592,0,0,0-.441.359c-.293,2.112-.552,4.229-.82,6.349Z" transform="translate(0 0)" fill="#12263f"/>
        <path id="Trazado_232614" data-name="Trazado 232614" d="M65.375,200.746h9.563a3.907,3.907,0,0,1,.644.023,1.169,1.169,0,0,1-.056,2.312,4.159,4.159,0,0,1-.527.012H55.7a4.231,4.231,0,0,1-.528-.011,1.167,1.167,0,0,1-.059-2.313,3.485,3.485,0,0,1,.585-.023h9.681" transform="translate(-47.757 -177.122)" fill="#12263f"/>
        <path id="Trazado_232615" data-name="Trazado 232615" d="M62.508,251.455H69.2a5.1,5.1,0,0,1,.644.02,1.136,1.136,0,0,1,.987,1.009,1.111,1.111,0,0,1-.721,1.21,2.33,2.33,0,0,1-.747.1q-6.864.009-13.727,0a2.43,2.43,0,0,1-.692-.082,1.141,1.141,0,0,1-.8-1.218,1.16,1.16,0,0,1,1.041-1.028,7.543,7.543,0,0,1,.762-.017h6.57" transform="translate(-47.758 -221.863)" fill="#12263f"/>
        <path id="Trazado_232616" data-name="Trazado 232616" d="M235.849,253.787h-4.871a1.214,1.214,0,0,1-1.168-.641.962.962,0,0,1,.1-1.2,1.756,1.756,0,0,1,1.056-.484c3.267-.036,6.534-.026,9.8-.018a1.173,1.173,0,1,1,.012,2.338c-1.643.015-3.287,0-4.93,0" transform="translate(-202.625 -221.848)" fill="#12263f"/>
        <path id="Trazado_232617" data-name="Trazado 232617" d="M56.885,100.81c.841.885,1.627,1.7,2.4,2.53.6.646.644,1.308.126,1.812s-1.217.443-1.848-.216q-1.5-1.568-2.992-3.148a1.21,1.21,0,0,1-.01-1.942q1.509-1.6,3.033-3.191A1.19,1.19,0,1,1,59.3,98.267c-.785.841-1.586,1.669-2.418,2.543" transform="translate(-47.717 -84.812)" fill="#12263f"/>
        <path id="Trazado_232618" data-name="Trazado 232618" d="M197.509,100.738c-.762-.8-1.476-1.551-2.188-2.3a5.654,5.654,0,0,1-.434-.477,1.137,1.137,0,0,1,.128-1.587,1.08,1.08,0,0,1,1.54-.008q1.777,1.791,3.484,3.651a1.091,1.091,0,0,1-.038,1.5q-1.655,1.787-3.357,3.53a1.13,1.13,0,0,1-1.636.057,1.145,1.145,0,0,1-.039-1.677c.4-.455.835-.88,1.252-1.32s.829-.88,1.289-1.368" transform="translate(-171.721 -84.743)" fill="#12263f"/>
        <path id="Trazado_232619" data-name="Trazado 232619" d="M122.264,105.554c-1.035-.01-1.605-.828-1.309-1.571a5.507,5.507,0,0,1,.459-.816q1.935-3.148,3.874-6.294a1.181,1.181,0,0,1,1.264-.658,1.054,1.054,0,0,1,.94.92,1.471,1.471,0,0,1-.173.887c-1.395,2.31-2.8,4.612-4.249,6.89a2.73,2.73,0,0,1-.806.641" transform="translate(-106.652 -84.876)" fill="#12263f"/>
        <path id="Trazado_232620" data-name="Trazado 232620" d="M270.768,200.828a1.167,1.167,0,0,1,.035,2.334,1.167,1.167,0,1,1-.035-2.334" transform="translate(-237.873 -177.195)" fill="#12263f"/>
        <path id="Trazado_232621" data-name="Trazado 232621" d="M166.934,54.394a1.163,1.163,0,0,1-.044-2.325,1.2,1.2,0,0,1,1.207,1.174,1.168,1.168,0,0,1-1.162,1.151" transform="translate(-146.252 -45.942)" fill="#12263f"/>
        <path id="Trazado_232622" data-name="Trazado 232622" d="M373.041,72.906a4.9,4.9,0,1,1-4.909-4.886,4.942,4.942,0,0,1,4.909,4.886m-4.9,2.55a2.508,2.508,0,0,0,2.537-2.523,2.537,2.537,0,1,0-2.537,2.523" transform="translate(-320.495 -60.015)" fill="#12263f"/>
      </g>
    </g>
  </g>
</svg>
