<svg xmlns="http://www.w3.org/2000/svg" xmlns:xlink="http://www.w3.org/1999/xlink" width="335.859" height="231.68" viewBox="0 0 335.859 231.68">
  <defs>
    <clipPath id="clip-path">
      <rect id="Rectángulo_57231" data-name="Rectángulo 57231" width="312.022" height="231.68" fill="none"/>
    </clipPath>
    <clipPath id="clip-path-6">
      <rect id="Rectángulo_57225" data-name="Rectángulo 57225" width="44.379" height="5.566" fill="none"/>
    </clipPath>
    <clipPath id="clip-path-7">
      <rect id="Rectángulo_57226" data-name="Rectángulo 57226" width="12.879" height="22.679" fill="none"/>
    </clipPath>
    <clipPath id="clip-path-8">
      <rect id="Rectángulo_57227" data-name="Rectángulo 57227" width="7.236" height="25.708" fill="none"/>
    </clipPath>
  </defs>
  <g id="Grupo_182903" data-name="Grupo 182903" transform="translate(0)">
    <g id="Grupo_177601" data-name="Grupo 177601" transform="translate(5.809 0)" clip-path="url(#clip-path)">
      <rect id="Rectángulo_57205" data-name="Rectángulo 57205" width="4.455" height="22.168" transform="translate(279.712 17.746) rotate(-0.31)" fill="#e0e0e0"/>
      <rect id="Rectángulo_57206" data-name="Rectángulo 57206" width="11.537" height="12.238" transform="translate(241.118 17.842) rotate(-0.307)" fill="#ebebeb"/>
      <rect id="Rectángulo_57207" data-name="Rectángulo 57207" width="11.537" height="12.238" transform="translate(252.6 17.781) rotate(-0.307)" fill="#f5f5f5"/>
      <g id="Grupo_177583" data-name="Grupo 177583">
        <g id="Grupo_177582" data-name="Grupo 177582" clip-path="url(#clip-path)">
          <path id="Trazado_226656" data-name="Trazado 226656" d="M460.461,40.2q11.5.1,23.018-.106a.123.123,0,0,0,0-.245c-7.667-.042-15.353,0-23.018.14a.105.105,0,0,0,0,.21" transform="translate(-219.325 -18.976)" fill="#e0e0e0"/>
          <rect id="Rectángulo_57208" data-name="Rectángulo 57208" width="20.96" height="9.973" transform="matrix(1, -0.005, 0.005, 1, 233.925, 29.926)" fill="#ebebeb"/>
          <rect id="Rectángulo_57209" data-name="Rectángulo 57209" width="20.96" height="9.973" transform="matrix(1, -0.005, 0.005, 1, 254.786, 29.814)" fill="#f5f5f5"/>
          <path id="Trazado_226657" data-name="Trazado 226657" d="M446.717,62.009c13.924.158,27.9.016,41.82-.206a.123.123,0,0,0,0-.246c-13.925-.073-27.9-.065-41.82.241a.105.105,0,0,0,0,.21" transform="translate(-212.777 -29.309)" fill="#e0e0e0"/>
          <rect id="Rectángulo_57210" data-name="Rectángulo 57210" width="81.205" height="3.573" transform="translate(226.102 39.899)" fill="#e0e0e0"/>
          <rect id="Rectángulo_57211" data-name="Rectángulo 57211" width="3.296" height="12.192" transform="translate(239.397 41.617)" fill="#e0e0e0"/>
          <rect id="Rectángulo_57212" data-name="Rectángulo 57212" width="3.296" height="12.192" transform="translate(288.607 41.617)" fill="#e0e0e0"/>
          <rect id="Rectángulo_57213" data-name="Rectángulo 57213" width="4.455" height="30.488" transform="translate(284.058 9.48) rotate(-0.31)" fill="#ebebeb"/>
          <rect id="Rectángulo_57214" data-name="Rectángulo 57214" width="6.922" height="24.707" transform="translate(288.552 15.169) rotate(-0.308)" fill="#f5f5f5"/>
          <path id="Trazado_226658" data-name="Trazado 226658" d="M557.949,37.883a50.017,50.017,0,0,1-6.922,0,50.018,50.018,0,0,1,6.922,0" transform="translate(-262.521 -17.991)" fill="#e0e0e0"/>
          <path id="Trazado_226659" data-name="Trazado 226659" d="M557.949,35.9a50.018,50.018,0,0,1-6.922,0,50.018,50.018,0,0,1,6.922,0" transform="translate(-262.521 -17.046)" fill="#e0e0e0"/>
          <path id="Trazado_226660" data-name="Trazado 226660" d="M557.949,68.88a50.017,50.017,0,0,1-6.922,0,50.017,50.017,0,0,1,6.922,0" transform="translate(-262.521 -32.759)" fill="#e0e0e0"/>
          <path id="Trazado_226661" data-name="Trazado 226661" d="M557.949,66.9a50.023,50.023,0,0,1-6.922,0,50.014,50.014,0,0,1,6.922,0" transform="translate(-262.521 -31.814)" fill="#e0e0e0"/>
          <path id="Trazado_226662" data-name="Trazado 226662" d="M557.742,52.549c-.067,0-.12-2.493-.12-5.567s.053-5.568.12-5.568.12,2.492.12,5.568-.054,5.567-.12,5.567" transform="translate(-265.663 -19.731)" fill="#e0e0e0"/>
          <rect id="Rectángulo_57215" data-name="Rectángulo 57215" width="7.535" height="18.649" transform="translate(295.503 21.199)" fill="#ebebeb"/>
          <path id="Trazado_226663" data-name="Trazado 226663" d="M546.779,26.838a1.28,1.28,0,1,1-1.28-1.281,1.28,1.28,0,0,1,1.28,1.281" transform="translate(-259.277 -12.176)" fill="#e0e0e0"/>
          <rect id="Rectángulo_57216" data-name="Rectángulo 57216" width="0.792" height="18.137" transform="translate(285.825 18.183)" fill="#e0e0e0"/>
          <rect id="Rectángulo_57217" data-name="Rectángulo 57217" width="50.955" height="48.975" transform="translate(260.95 64.578)" fill="#fff"/>
          <rect id="Rectángulo_57218" data-name="Rectángulo 57218" width="50.955" height="3.668" transform="translate(260.95 64.578)" fill="#f5f5f5"/>
          <path id="Trazado_226664" data-name="Trazado 226664" d="M507.768,209.8h41.6v-7.783h-50.94V209.8h2.656" transform="translate(-237.461 -96.243)" fill="#ebebeb"/>
          <path id="Trazado_226665" data-name="Trazado 226665" d="M510.914,126.472a.686.686,0,1,1-.686-.685.685.685,0,0,1,.686.685" transform="translate(-242.757 -59.928)" fill="#fff"/>
          <path id="Trazado_226666" data-name="Trazado 226666" d="M502.978,126.472a.686.686,0,1,1-.685-.685.685.685,0,0,1,.685.685" transform="translate(-238.976 -59.928)" fill="#fff"/>
          <path id="Trazado_226667" data-name="Trazado 226667" d="M506.946,126.472a.686.686,0,1,1-.685-.685.685.685,0,0,1,.685.685" transform="translate(-240.867 -59.928)" fill="#fff"/>
          <path id="Trazado_226668" data-name="Trazado 226668" d="M583.321,140.815h0a3.23,3.23,0,1,1,3.23-3.23,3.23,3.23,0,0,1-3.23,3.23" transform="translate(-276.368 -64.01)" fill="#f5f5f5"/>
          <path id="Trazado_226669" data-name="Trazado 226669" d="M585.076,139.654a.515.515,0,1,0-.313,0,.9.9,0,0,0-.752.885h1.8a.9.9,0,0,0-.731-.882" transform="translate(-278.235 -66.054)" fill="#e0e0e0"/>
          <path id="Trazado_226670" data-name="Trazado 226670" d="M587.9,139.975a.074.074,0,0,1-.074-.074v-.827a.074.074,0,0,1,.149,0v.827a.074.074,0,0,1-.074.074" transform="translate(-280.053 -66.222)" fill="#e0e0e0"/>
          <path id="Trazado_226671" data-name="Trazado 226671" d="M587.939,139.938h-.827a.074.074,0,1,1,0-.148h.827a.074.074,0,1,1,0,.148" transform="translate(-279.677 -66.599)" fill="#e0e0e0"/>
          <path id="Trazado_226672" data-name="Trazado 226672" d="M541.665,167.828h0a8.529,8.529,0,1,1,8.529-8.529,8.529,8.529,0,0,1-8.529,8.529" transform="translate(-253.997 -71.83)" fill="#f5f5f5"/>
          <path id="Trazado_226673" data-name="Trazado 226673" d="M546.789,163.827a2.089,2.089,0,1,0-1.268-.014,3.64,3.64,0,0,0-3.052,3.59h7.284a3.641,3.641,0,0,0-2.964-3.577" transform="translate(-258.444 -76.106)" fill="#e0e0e0"/>
          <path id="Trazado_226674" data-name="Trazado 226674" d="M564.611,206.853a2.419,2.419,0,1,1-2.419-2.419,2.42,2.42,0,0,1,2.419,2.419" transform="translate(-266.687 -97.397)" fill="#e0e0e0"/>
          <path id="Trazado_226675" data-name="Trazado 226675" d="M563.652,209.213h-.626a.291.291,0,0,1-.29-.291V208.3a.29.29,0,0,1,.29-.291h.626a.29.29,0,0,1,.29.291v.626a.291.291,0,0,1-.29.291" transform="translate(-268.1 -99.098)" fill="#fff"/>
          <path id="Trazado_226676" data-name="Trazado 226676" d="M565.25,208.879v-.409l.305-.327a.066.066,0,0,1,.113.045v.929a.066.066,0,0,1-.11.048Z" transform="translate(-269.297 -99.154)" fill="#fff"/>
          <path id="Trazado_226677" data-name="Trazado 226677" d="M546.622,208.636a2.385,2.385,0,1,1,3.373,0,2.386,2.386,0,0,1-3.373,0" transform="translate(-260.09 -97.458)" fill="#e0e0e0"/>
          <path id="Trazado_226678" data-name="Trazado 226678" d="M548.32,209.121l.425-.1a.116.116,0,0,0,.09-.113v-.088s-.018-.149.122-.158c.1-.007.741,0,.741,0s.168,0,.165.129v.128a.1.1,0,0,0,.071.1l.461.139a.1.1,0,0,0,.12-.057l.059-.142a.2.2,0,0,0,.015-.082.4.4,0,0,0-.08-.213,1.741,1.741,0,0,0-1.345-.354c-.783.038-.953.368-1,.447a.338.338,0,0,0-.015.22l.034.081a.117.117,0,0,0,.134.069" transform="translate(-261.146 -99.239)" fill="#fff"/>
          <path id="Trazado_226679" data-name="Trazado 226679" d="M536.782,206.913a2.4,2.4,0,1,1-2.4-2.4,2.4,2.4,0,0,1,2.4,2.4" transform="translate(-253.45 -97.435)" fill="#e0e0e0"/>
          <path id="Trazado_226680" data-name="Trazado 226680" d="M534.9,209.116a.236.236,0,1,1,.236-.236.236.236,0,0,1-.236.236" transform="translate(-254.724 -99.402)" fill="#fff"/>
          <path id="Trazado_226681" data-name="Trazado 226681" d="M536.3,209.116a.236.236,0,1,1,.236-.236.236.236,0,0,1-.236.236" transform="translate(-255.393 -99.402)" fill="#fff"/>
          <path id="Trazado_226682" data-name="Trazado 226682" d="M537.806,209.116a.236.236,0,1,1,.236-.236.236.236,0,0,1-.236.236" transform="translate(-256.11 -99.402)" fill="#fff"/>
          <path id="Trazado_226683" data-name="Trazado 226683" d="M506.021,138.739a1.552,1.552,0,1,1-1.552-1.552,1.552,1.552,0,0,1,1.552,1.552" transform="translate(-239.6 -65.359)" fill="#e0e0e0"/>
          <path id="Trazado_226684" data-name="Trazado 226684" d="M516.98,139.547a30.581,30.581,0,0,1-5.764,0,30.571,30.571,0,0,1,5.764,0" transform="translate(-243.554 -66.418)" fill="#e0e0e0"/>
          <path id="Trazado_226685" data-name="Trazado 226685" d="M551.119,188.313c0,.075-5.2.136-11.623.136s-11.624-.061-11.624-.136,5.2-.136,11.624-.136,11.623.061,11.623.136" transform="translate(-251.49 -89.651)" fill="#e0e0e0"/>
          <path id="Trazado_226686" data-name="Trazado 226686" d="M549.228,172.191s0-.081-.007-.234,0-.383-.006-.677c0-.6-.008-1.482-.014-2.629-.007-2.3-.017-5.669-.03-9.954-.015-8.564-.035-20.792-.06-35.48l.117.117-50.95.019h0l.136-.137c-.006,17.894-.012,34.688-.017,48.975l-.119-.119,36.886.06,10.375.031,2.744.014.707.007c.159,0,.243.007.243.007s-.075,0-.23.007l-.694.007-2.72.014-10.348.031-36.962.061h-.119v-.119c0-14.287-.011-31.081-.017-48.975v-.136h.141l50.95.019h.117v.117c-.025,14.719-.046,26.973-.06,35.555-.013,4.273-.023,7.631-.03,9.928-.006,1.138-.011,2.011-.014,2.607,0,.289-.005.51-.006.665s-.007.22-.007.22" transform="translate(-237.323 -58.638)" fill="#ebebeb"/>
          <path id="Trazado_226687" data-name="Trazado 226687" d="M125.4,304.006H64.95V245.9H125.4Z" transform="translate(-30.944 -117.154)" fill="#fff"/>
          <rect id="Rectángulo_57219" data-name="Rectángulo 57219" width="60.45" height="4.351" transform="translate(34.006 128.751)" fill="#f5f5f5"/>
          <path id="Trazado_226688" data-name="Trazado 226688" d="M76.068,348.471h49.348v-9.234H64.984v9.234h3.151" transform="translate(-30.96 -161.62)" fill="#ebebeb"/>
          <path id="Trazado_226689" data-name="Trazado 226689" d="M79.8,249.62a.813.813,0,1,1-.813-.813.813.813,0,0,1,.813.813" transform="translate(-37.244 -118.537)" fill="#fff"/>
          <path id="Trazado_226690" data-name="Trazado 226690" d="M70.386,249.62a.813.813,0,1,1-.814-.813.813.813,0,0,1,.814.813" transform="translate(-32.758 -118.537)" fill="#fff"/>
          <path id="Trazado_226691" data-name="Trazado 226691" d="M75.094,249.62a.813.813,0,1,1-.813-.813.813.813,0,0,1,.813.813" transform="translate(-35.001 -118.537)" fill="#fff"/>
          <path id="Trazado_226692" data-name="Trazado 226692" d="M165.7,266.636h0a3.832,3.832,0,1,1,3.832-3.832,3.832,3.832,0,0,1-3.832,3.832" transform="translate(-77.117 -123.38)" fill="#f5f5f5"/>
          <path id="Trazado_226693" data-name="Trazado 226693" d="M167.781,265.257a.612.612,0,1,0-.371,0,1.065,1.065,0,0,0-.893,1.051h2.132a1.066,1.066,0,0,0-.868-1.047" transform="translate(-79.332 -125.805)" fill="#e0e0e0"/>
          <path id="Trazado_226694" data-name="Trazado 226694" d="M171.134,265.639a.088.088,0,0,1-.088-.088v-.981a.088.088,0,1,1,.176,0v.981a.088.088,0,0,1-.088.088" transform="translate(-81.49 -126.005)" fill="#e0e0e0"/>
          <path id="Trazado_226695" data-name="Trazado 226695" d="M171.178,265.595H170.2a.088.088,0,1,1,0-.176h.981a.088.088,0,1,1,0,.176" transform="translate(-81.044 -126.451)" fill="#e0e0e0"/>
          <path id="Trazado_226696" data-name="Trazado 226696" d="M116.281,298.681h0A10.118,10.118,0,1,1,126.4,288.563a10.118,10.118,0,0,1-10.118,10.118" transform="translate(-50.578 -132.657)" fill="#f5f5f5"/>
          <path id="Trazado_226697" data-name="Trazado 226697" d="M122.361,293.937a2.477,2.477,0,1,0-1.5-.016,4.317,4.317,0,0,0-3.62,4.258h8.64a4.319,4.319,0,0,0-3.516-4.243" transform="translate(-55.854 -137.731)" fill="#e0e0e0"/>
          <path id="Trazado_226698" data-name="Trazado 226698" d="M143.5,344.979a2.87,2.87,0,1,1-2.87-2.87,2.87,2.87,0,0,1,2.87,2.87" transform="translate(-65.633 -162.988)" fill="#e0e0e0"/>
          <path id="Trazado_226699" data-name="Trazado 226699" d="M142.419,347.778h-.851a.291.291,0,0,1-.291-.291v-.851a.291.291,0,0,1,.291-.291h.851a.291.291,0,0,1,.291.291v.851a.291.291,0,0,1-.291.291" transform="translate(-67.308 -165.006)" fill="#fff"/>
          <path id="Trazado_226700" data-name="Trazado 226700" d="M144.262,347.382V346.9l.362-.388a.078.078,0,0,1,.135.053v1.1a.078.078,0,0,1-.131.057Z" transform="translate(-68.729 -165.072)" fill="#fff"/>
          <path id="Trazado_226701" data-name="Trazado 226701" d="M122.163,347.094a2.83,2.83,0,1,1,4,0,2.829,2.829,0,0,1-4,0" transform="translate(-57.806 -163.062)" fill="#e0e0e0"/>
          <path id="Trazado_226702" data-name="Trazado 226702" d="M124.177,347.67l.5-.119a.138.138,0,0,0,.106-.134v-.1s-.022-.176.145-.187c.119-.008.879,0,.879,0s.2,0,.2.153v.151a.117.117,0,0,0,.084.113l.547.166a.119.119,0,0,0,.143-.068l.07-.169a.224.224,0,0,0,.018-.1.478.478,0,0,0-.094-.253,2.069,2.069,0,0,0-1.6-.42c-.929.045-1.131.437-1.185.53a.4.4,0,0,0-.017.261l.041.1a.138.138,0,0,0,.159.081" transform="translate(-59.059 -165.173)" fill="#fff"/>
          <path id="Trazado_226703" data-name="Trazado 226703" d="M110.489,345.049a2.845,2.845,0,1,1-2.845-2.845,2.845,2.845,0,0,1,2.845,2.845" transform="translate(-49.928 -163.033)" fill="#e0e0e0"/>
          <path id="Trazado_226704" data-name="Trazado 226704" d="M108.253,347.664a.28.28,0,1,1,.281-.281.281.281,0,0,1-.281.281" transform="translate(-51.44 -165.367)" fill="#fff"/>
          <path id="Trazado_226705" data-name="Trazado 226705" d="M109.919,347.664a.28.28,0,1,1,.281-.281.28.28,0,0,1-.281.281" transform="translate(-52.234 -165.367)" fill="#fff"/>
          <path id="Trazado_226706" data-name="Trazado 226706" d="M111.7,347.664a.28.28,0,1,1,.281-.281.281.281,0,0,1-.281.281" transform="translate(-53.084 -165.367)" fill="#fff"/>
          <path id="Trazado_226707" data-name="Trazado 226707" d="M74,264.173a1.841,1.841,0,1,1-1.841-1.841A1.842,1.842,0,0,1,74,264.173" transform="translate(-33.499 -124.98)" fill="#e0e0e0"/>
          <path id="Trazado_226708" data-name="Trazado 226708" d="M87,265.154a21.56,21.56,0,0,1-3.419.136,21.559,21.559,0,0,1-3.419-.136,21.561,21.561,0,0,1,3.419-.136,21.562,21.562,0,0,1,3.419.136" transform="translate(-38.189 -126.26)" fill="#e0e0e0"/>
          <path id="Trazado_226709" data-name="Trazado 226709" d="M127.5,323.007c0,.075-6.175.136-13.789.136s-13.791-.061-13.791-.136,6.173-.136,13.791-.136,13.789.061,13.789.136" transform="translate(-47.603 -153.822)" fill="#e0e0e0"/>
          <path id="Trazado_226710" data-name="Trazado 226710" d="M125.276,303.882s0-.1-.006-.276,0-.452-.007-.8c0-.711-.008-1.756-.014-3.117-.007-2.729-.017-6.723-.03-11.807-.015-10.16-.035-24.67-.06-42.1l.117.117-60.444.019h-.005l.136-.136c-.006,21.228-.013,41.151-.018,58.1l-.118-.119,43.766.061,12.305.031,3.252.014.838.007c.188,0,.287.007.287.007s-.09,0-.274.007l-.825.007-3.229.014-12.278.031L64.827,304h-.119v-.119c-.005-16.949-.012-36.872-.018-58.1v-.137h.142l60.444.019h.117v.117c-.025,17.459-.046,31.995-.06,42.173-.013,5.072-.024,9.057-.03,11.78-.006,1.352-.01,2.389-.014,3.095q0,.517-.006.789c0,.177-.007.263-.007.263" transform="translate(-30.82 -117.03)" fill="#ebebeb"/>
        </g>
      </g>
      <g id="Grupo_177585" data-name="Grupo 177585">
        <g id="Grupo_177584" data-name="Grupo 177584" clip-path="url(#clip-path)">
          <path id="Trazado_226711" data-name="Trazado 226711" d="M373.934,180.344v27.042l-9.257,9.984h9.257v48.206h88.677V180.344Z" transform="translate(-173.74 -85.92)" fill="#fff"/>
          <rect id="Rectángulo_57221" data-name="Rectángulo 57221" width="88.677" height="6.383" transform="translate(200.225 94.517)" fill="#f5f5f5"/>
          <path id="Trazado_226712" data-name="Trazado 226712" d="M382.466,317.437v13.545h88.651V317.437Z" transform="translate(-182.215 -151.234)" fill="#ebebeb"/>
          <path id="Trazado_226713" data-name="Trazado 226713" d="M404.2,185.972a1.193,1.193,0,1,1-1.193-1.193,1.193,1.193,0,0,1,1.193,1.193" transform="translate(-191.433 -88.033)" fill="#fff"/>
          <path id="Trazado_226714" data-name="Trazado 226714" d="M390.39,185.972a1.193,1.193,0,1,1-1.193-1.193,1.193,1.193,0,0,1,1.193,1.193" transform="translate(-184.853 -88.033)" fill="#fff"/>
          <path id="Trazado_226715" data-name="Trazado 226715" d="M397.3,185.972a1.193,1.193,0,1,1-1.193-1.193,1.193,1.193,0,0,1,1.193,1.193" transform="translate(-188.144 -88.033)" fill="#fff"/>
          <path id="Trazado_226716" data-name="Trazado 226716" d="M530.212,210.932h0a5.621,5.621,0,1,1,5.621-5.621,5.621,5.621,0,0,1-5.621,5.621" transform="translate(-249.926 -95.136)" fill="#ebebeb"/>
          <path id="Trazado_226717" data-name="Trazado 226717" d="M533.266,208.91a.9.9,0,1,0-.544-.006,1.563,1.563,0,0,0-1.31,1.541h3.127a1.563,1.563,0,0,0-1.272-1.536" transform="translate(-253.176 -98.694)" fill="#263238"/>
          <path id="Trazado_226718" data-name="Trazado 226718" d="M538.185,209.471a.129.129,0,0,1-.129-.129V207.9a.129.129,0,0,1,.258,0v1.439a.129.129,0,0,1-.129.129" transform="translate(-256.341 -98.988)" fill="#263238"/>
          <path id="Trazado_226719" data-name="Trazado 226719" d="M538.249,209.406H536.81a.129.129,0,0,1,0-.258h1.439a.129.129,0,0,1,0,.258" transform="translate(-255.686 -99.642)" fill="#263238"/>
          <path id="Trazado_226720" data-name="Trazado 226720" d="M497.651,325.86a4.211,4.211,0,1,1-4.211-4.211,4.211,4.211,0,0,1,4.211,4.211" transform="translate(-233.08 -153.24)" fill="#12263f"/>
          <path id="Trazado_226721" data-name="Trazado 226721" d="M495.815,329.966h-.756a.672.672,0,0,1-.672-.672v-.756a.672.672,0,0,1,.672-.672h.756a.672.672,0,0,1,.672.672v.756a.672.672,0,0,1-.672.672" transform="translate(-235.536 -156.202)" fill="#fff"/>
          <path id="Trazado_226722" data-name="Trazado 226722" d="M498.764,329.385v-.711l.531-.569a.114.114,0,0,1,.2.078V329.8a.114.114,0,0,1-.192.084Z" transform="translate(-237.622 -156.298)" fill="#fff"/>
          <path id="Trazado_226723" data-name="Trazado 226723" d="M466.346,328.963a4.151,4.151,0,1,1,5.87,0,4.152,4.152,0,0,1-5.87,0" transform="translate(-221.598 -153.348)" fill="#eeac3a"/>
          <path id="Trazado_226724" data-name="Trazado 226724" d="M469.3,329.807l.74-.174a.2.2,0,0,0,.156-.2v-.152s-.032-.259.213-.275c.175-.012,1.289,0,1.289,0s.293-.006.287.225v.222a.173.173,0,0,0,.124.165l.8.243a.173.173,0,0,0,.21-.1l.1-.248a.326.326,0,0,0,.026-.143.691.691,0,0,0-.138-.371,3.031,3.031,0,0,0-2.34-.617c-1.363.066-1.66.64-1.738.778a.583.583,0,0,0-.026.383c.014.032.037.087.06.141a.2.2,0,0,0,.233.119" transform="translate(-223.435 -156.447)" fill="#fff"/>
          <path id="Trazado_226725" data-name="Trazado 226725" d="M449.22,325.963a4.174,4.174,0,1,1-4.174-4.174,4.174,4.174,0,0,1,4.174,4.174" transform="translate(-210.041 -153.307)" fill="#43a99b"/>
          <path id="Trazado_226726" data-name="Trazado 226726" d="M445.939,329.8a.411.411,0,1,1,.412-.412.412.412,0,0,1-.412.412" transform="translate(-212.259 -156.731)" fill="#fff"/>
          <path id="Trazado_226727" data-name="Trazado 226727" d="M448.385,329.8a.411.411,0,1,1,.412-.412.411.411,0,0,1-.412.412" transform="translate(-213.424 -156.731)" fill="#fff"/>
          <path id="Trazado_226728" data-name="Trazado 226728" d="M451,329.8a.411.411,0,1,1,.412-.412.412.412,0,0,1-.412.412" transform="translate(-214.67 -156.731)" fill="#fff"/>
          <path id="Trazado_226729" data-name="Trazado 226729" d="M397.321,208.682a2.7,2.7,0,1,1-2.7-2.7,2.7,2.7,0,0,1,2.7,2.7" transform="translate(-186.719 -98.134)" fill="#455a64"/>
          <path id="Trazado_226730" data-name="Trazado 226730" d="M419.773,211.945c0,.075-3.369.136-7.524.136s-7.524-.061-7.524-.136,3.369-.136,7.524-.136,7.524.061,7.524.136" transform="translate(-192.82 -100.91)" fill="#455a64"/>
          <path id="Trazado_226731" data-name="Trazado 226731" d="M373.814,180.414s.134,0,.4-.007l1.207-.006,4.726-.014,17.98-.03,64.36-.06h.117v.117c.006,24.8.012,54,.019,85.232v.137h-6.571l-82.242-.015h-.051l-.035-.036h0l-.036-.036v-.05c.01-18.212.02-34.471.028-48.206l.094.094-9.257-.008h-.2l.134-.144,9.268-9.974-.019.049c.017-8.674.031-15.44.04-20.042.007-2.291.014-4.042.017-5.225q0-.878.008-1.331c0-.3.007-.444.007-.444s0,.156.006.458,0,.752.007,1.343c0,1.186.01,2.943.018,5.241.008,4.592.022,11.344.039,20v.028l-.019.02-9.246,9.994-.063-.145,9.257-.008h.093v.094c.008,13.735.017,29.994.028,48.206l-.036-.086-.085-.035,82.242-.015h6.435l-.136.136c.007-31.234.014-60.437.019-85.232l.117.117-64.285-.06-18.006-.03-4.748-.014-1.221-.006c-.274,0-.416-.007-.416-.007" transform="translate(-173.588 -85.897)" fill="#263238"/>
          <path id="Trazado_226732" data-name="Trazado 226732" d="M491,264.2c0,.075-2.437.243-5.449.374s-5.459.177-5.462.1,2.436-.243,5.45-.374,5.458-.177,5.461-.1" transform="translate(-228.724 -125.852)" fill="#fff"/>
          <path id="Trazado_226733" data-name="Trazado 226733" d="M448.8,217.719c.478-2.621,1.106-5.313,2.721-7.431s4.47-3.509,6.993-2.656l3.111,1.8a95.047,95.047,0,0,1-4.388,21.3,4.656,4.656,0,0,1-.97,1.885c-1.009,1.021-2.655.928-4.081.763-1.723-.2-3.733-.6-4.47-2.164a5.021,5.021,0,0,1-.267-2.463,95.389,95.389,0,0,1,1.351-11.033" transform="translate(-213.156 -98.798)" fill="#12263f"/>
          <path id="Trazado_226734" data-name="Trazado 226734" d="M468.72,215.289l-9.584-3.18c-3.1-.559-5.462,3.139-5.89,6.263a56.083,56.083,0,0,0-.693,10.358c.449,5.292,4.41,6.25,4.41,6.25a12.722,12.722,0,0,0-.31,3.983c.249,3.6,2.572,4.533,4.476,4.667,3,.316,6.136-.635,6.481-3.635l2.62-22.719a1.845,1.845,0,0,0-1.51-1.986" transform="translate(-215.578 -101.026)" fill="#ffbe9d"/>
          <path id="Trazado_226735" data-name="Trazado 226735" d="M456.516,231.443a.673.673,0,0,0,.6.724.644.644,0,0,0,.736-.554.673.673,0,0,0-.6-.724.643.643,0,0,0-.737.555" transform="translate(-217.492 -109.997)" fill="#263238"/>
          <path id="Trazado_226736" data-name="Trazado 226736" d="M455.9,228.772c.077.094.613-.246,1.334-.191s1.225.454,1.31.372c.041-.036-.032-.2-.25-.385a1.846,1.846,0,0,0-1.04-.406,1.771,1.771,0,0,0-1.07.261c-.235.154-.322.307-.283.349" transform="translate(-217.195 -108.699)" fill="#263238"/>
          <path id="Trazado_226737" data-name="Trazado 226737" d="M469.019,233.155a.672.672,0,0,0,.6.724.643.643,0,0,0,.736-.554.673.673,0,0,0-.6-.724.643.643,0,0,0-.736.554" transform="translate(-223.449 -110.813)" fill="#263238"/>
          <path id="Trazado_226738" data-name="Trazado 226738" d="M469.677,230.165c.077.094.613-.246,1.335-.191s1.225.454,1.309.372c.041-.036-.031-.2-.25-.385a1.848,1.848,0,0,0-1.04-.406,1.779,1.779,0,0,0-1.07.261c-.234.154-.321.307-.283.349" transform="translate(-223.76 -109.362)" fill="#263238"/>
          <path id="Trazado_226739" data-name="Trazado 226739" d="M462.106,234.185a4.812,4.812,0,0,0-1.157-.3c-.183-.032-.354-.082-.376-.209a.937.937,0,0,1,.163-.538l.648-1.364a24.22,24.22,0,0,0,1.492-3.582,24.15,24.15,0,0,0-1.777,3.454q-.327.719-.625,1.374a1.068,1.068,0,0,0-.149.716.465.465,0,0,0,.284.292,1.254,1.254,0,0,0,.309.066,4.724,4.724,0,0,0,1.189.089" transform="translate(-219.298 -108.716)" fill="#263238"/>
          <path id="Trazado_226740" data-name="Trazado 226740" d="M460.945,254.626a14.143,14.143,0,0,0,7.442-1.336,7.459,7.459,0,0,1-7.535,2.658Z" transform="translate(-219.559 -120.673)" fill="#eb996e"/>
          <path id="Trazado_226741" data-name="Trazado 226741" d="M469.017,226.071c.057.2.784.161,1.624.325.842.147,1.507.445,1.633.277.057-.081-.049-.274-.312-.484a2.878,2.878,0,0,0-2.481-.459c-.32.1-.487.246-.464.341" transform="translate(-223.449 -107.491)" fill="#12263f"/>
          <path id="Trazado_226742" data-name="Trazado 226742" d="M455.81,224.635c.146.175.774.05,1.517.1.743.025,1.362.21,1.519.049.069-.079-.018-.25-.281-.425a2.487,2.487,0,0,0-1.213-.359,2.436,2.436,0,0,0-1.234.241c-.274.149-.373.312-.309.4" transform="translate(-217.149 -106.715)" fill="#12263f"/>
          <path id="Trazado_226743" data-name="Trazado 226743" d="M462.819,211.394a8.277,8.277,0,0,0,1.486,1.769l2.637,2.6a15.857,15.857,0,0,0,3.907,3.051c.695.419,1.052,1.5,1.747,1.924.157.1.666.037.832.157-.033,1.171-.05,4.9-.063,6.385-.02,2.341-.857,8.578-.857,8.578H474.5a5.039,5.039,0,0,0,3.537-3.582,37.55,37.55,0,0,0,.328-4.641c.245-3.041-.35-6.121-.549-9.165a12.6,12.6,0,0,0-.6-3.631,9.84,9.84,0,0,0-3.235-4.028,13.3,13.3,0,0,0-5.282-2.75,7.468,7.468,0,0,0-5.773.9,1.25,1.25,0,0,0-.586.694c-.251.731.1,1.069.474,1.743m10.654,9.545c.073.141.016.505,0,0" transform="translate(-220.23 -99.023)" fill="#12263f"/>
          <path id="Trazado_226744" data-name="Trazado 226744" d="M482.68,234.285a1.53,1.53,0,0,1,2.325-1.14,2.1,2.1,0,0,1,.738,2.167c-.353,3.142-3.435,2.14-3.43,2.049,0-.056.21-1.776.368-3.075" transform="translate(-229.784 -110.959)" fill="#ffbe9d"/>
          <path id="Trazado_226745" data-name="Trazado 226745" d="M484.4,237.145c.015-.008.05.045.138.1a.551.551,0,0,0,.408.054,1.364,1.364,0,0,0,.763-1.145,1.818,1.818,0,0,0-.065-.8.638.638,0,0,0-.365-.467.281.281,0,0,0-.34.114c-.052.083-.039.148-.057.151s-.061-.06-.022-.187a.352.352,0,0,1,.146-.183.415.415,0,0,1,.312-.046.773.773,0,0,1,.517.551,1.874,1.874,0,0,1,.091.9,1.43,1.43,0,0,1-.951,1.268.591.591,0,0,1-.491-.139c-.089-.089-.1-.161-.086-.165" transform="translate(-230.775 -111.826)" fill="#eb996e"/>
          <path id="Trazado_226746" data-name="Trazado 226746" d="M485.127,241.5a.62.62,0,1,1-.575-.663.621.621,0,0,1,.575.663" transform="translate(-230.535 -114.738)" fill="#263238"/>
          <path id="Trazado_226747" data-name="Trazado 226747" d="M465.3,242.331a1.439,1.439,0,0,1-.876,2.192.839.839,0,0,1-.541-.03,1.2,1.2,0,0,1-.522-.788l-.247-.772a.252.252,0,0,1,.244-.39l1.892-.317" transform="translate(-220.623 -115.402)" fill="#eb996e"/>
          <path id="Trazado_226748" data-name="Trazado 226748" d="M463.819,244.272a1.671,1.671,0,0,0,.853-.046,1.33,1.33,0,0,0,.783-.55,1,1,0,0,0,.154-.568,1.691,1.691,0,0,0-.105-.606,1.556,1.556,0,0,0-.316-.508l-.046-.049-.063.017c-1.263.348-2.242.5-2.236.553a7.584,7.584,0,0,0,2.293-.34l-.109-.032a1.389,1.389,0,0,1,.267.439,1.2,1.2,0,0,1-.015.986,1.224,1.224,0,0,1-.655.506c-.476.156-.811.156-.805.2" transform="translate(-220.509 -115.268)" fill="#263238"/>
          <path id="Trazado_226749" data-name="Trazado 226749" d="M470.081,215.037a18.447,18.447,0,0,1,4.937,5.265l-1.7,2.881c-2.885-.272-3.228-.565-5.26-2.632s-6.074-6.178-6.3-9.067a28.151,28.151,0,0,1,8.321,3.554" transform="translate(-219.992 -100.755)" fill="#12263f"/>
          <path id="Trazado_226750" data-name="Trazado 226750" d="M476.516,237.483a1.716,1.716,0,0,1,.139-.3c.1-.191.243-.478.421-.848a22.02,22.02,0,0,0,1.239-3.245,21.241,21.241,0,0,0,.829-5.069,13.806,13.806,0,0,0-.159-3.018,5.265,5.265,0,0,0-1.39-2.834,10.128,10.128,0,0,0-2.715-1.743,20.392,20.392,0,0,1-2.668-1.516,19.569,19.569,0,0,1-3.848-3.476,21.733,21.733,0,0,1-2.054-2.828c-.215-.352-.373-.631-.473-.824a.166.166,0,1,1,.043-.025c.114.184.285.454.512.8a24.393,24.393,0,0,0,2.105,2.765,19.983,19.983,0,0,0,3.844,3.4,20.546,20.546,0,0,0,2.648,1.488,10.252,10.252,0,0,1,2.782,1.786,5.486,5.486,0,0,1,1.453,2.965,13.762,13.762,0,0,1,.149,3.072,20.687,20.687,0,0,1-.889,5.11,19.812,19.812,0,0,1-1.32,3.237c-.193.365-.348.646-.464.83a1.644,1.644,0,0,1-.182.277" transform="translate(-221.864 -100.754)" fill="#fff"/>
          <path id="Trazado_226751" data-name="Trazado 226751" d="M479.2,220.33a5.275,5.275,0,0,0-1-2.19,7.369,7.369,0,0,0-1.97-1.724,26.944,26.944,0,0,0-2.9-1.465,19.7,19.7,0,0,1-4.994-3.225,16.167,16.167,0,0,1-1.283-1.269,2.975,2.975,0,0,1-.417-.514,3.87,3.87,0,0,1,.486.447c.3.295.749.718,1.329,1.2a21.46,21.46,0,0,0,4.984,3.134,24.609,24.609,0,0,1,2.918,1.5,7.247,7.247,0,0,1,1.988,1.811,4.581,4.581,0,0,1,.784,1.635,2.885,2.885,0,0,1,.079.488c.008.113.007.171,0,.172" transform="translate(-222.314 -100.021)" fill="#fff"/>
          <path id="Trazado_226752" data-name="Trazado 226752" d="M449.231,233.769a1.1,1.1,0,0,1-.01-.268c0-.2.011-.454.018-.764.022-.663.061-1.623.122-2.807.127-2.369.327-5.646.821-9.239a24.264,24.264,0,0,1,1.088-5,9.254,9.254,0,0,1,2.2-3.551,6.417,6.417,0,0,1,2.378-1.509,4.339,4.339,0,0,1,.744-.193,1.09,1.09,0,0,1,.266-.028c.005.026-.362.075-.976.312a6.638,6.638,0,0,0-2.288,1.543,9.263,9.263,0,0,0-2.106,3.5,24.98,24.98,0,0,0-1.058,4.958c-.493,3.581-.719,6.851-.891,9.215-.083,1.157-.151,2.106-.2,2.8-.026.308-.048.56-.065.762a1.085,1.085,0,0,1-.039.264" transform="translate(-214.018 -100.242)" fill="#fff"/>
          <path id="Trazado_226753" data-name="Trazado 226753" d="M432.962,273.254s.567-4.532,2.751-6.8,11.326-5.1,11.326-5.1.378,3.233,2.567,4.012a5.918,5.918,0,0,0,6.646-1.456,10.633,10.633,0,0,0,2.124-4.36s10.917,1,12.7,4,4.083,14.592,4.083,14.592l-10.207,2.166.653,9.406-25.083.146-.775-8.322-7.384,1.054Z" transform="translate(-205.986 -123.655)" fill="#b0c0d2"/>
          <path id="Trazado_226754" data-name="Trazado 226754" d="M490.689,290.039a1.662,1.662,0,0,1-.037-.451c-.008-.29-.013-.709-.012-1.227,0-1.036.016-2.467.049-4.046s.076-3.011.119-4.046c.021-.517.043-.937.063-1.226a1.7,1.7,0,0,1,.054-.449,1.635,1.635,0,0,1,.036.45c.009.29.012.708.012,1.226,0,1.036-.017,2.467-.049,4.048s-.076,3.011-.119,4.046c-.021.518-.043.937-.063,1.226a1.717,1.717,0,0,1-.054.449" transform="translate(-233.752 -132.728)" fill="#263238"/>
          <path id="Trazado_226755" data-name="Trazado 226755" d="M441.655,284.745c.062-.018.7,2.008,1.423,4.525s1.259,4.572,1.2,4.59-.7-2.007-1.423-4.525-1.259-4.572-1.2-4.59" transform="translate(-210.412 -135.658)" fill="#263238"/>
          <path id="Trazado_226756" data-name="Trazado 226756" d="M498.292,265.807c.008.042-.484.132-1.229.415a8.875,8.875,0,0,0-4.592,3.994c-.384.7-.542,1.173-.582,1.16a1.03,1.03,0,0,1,.077-.344,5.673,5.673,0,0,1,.358-.892,8.1,8.1,0,0,1,4.684-4.074,5.687,5.687,0,0,1,.933-.23,1.034,1.034,0,0,1,.352-.028" transform="translate(-234.344 -126.633)" fill="#263238"/>
          <path id="Trazado_226757" data-name="Trazado 226757" d="M438.434,274.49a9.376,9.376,0,0,1,.73,2.872,9.387,9.387,0,0,1-.73-2.872" transform="translate(-208.871 -130.772)" fill="#263238"/>
          <path id="Trazado_226758" data-name="Trazado 226758" d="M467.59,278.589c.009.075-5.788.856-12.948,1.746s-12.974,1.549-12.983,1.475,5.787-.856,12.949-1.746,12.972-1.55,12.982-1.475" transform="translate(-210.416 -132.723)" fill="#fff"/>
          <path id="Trazado_226759" data-name="Trazado 226759" d="M501.08,277.938a89.654,89.654,0,0,1-9.6,2.375,89.867,89.867,0,0,1,9.6-2.375" transform="translate(-234.154 -132.412)" fill="#fff"/>
          <path id="Trazado_226760" data-name="Trazado 226760" d="M502.767,290c.016.074-2.481.67-5.577,1.331s-5.619,1.138-5.634,1.065,2.481-.67,5.578-1.331,5.618-1.138,5.634-1.064" transform="translate(-234.188 -138.157)" fill="#fff"/>
          <path id="Trazado_226761" data-name="Trazado 226761" d="M450.438,267.184c.019.073-2.383.751-5.364,1.515s-5.413,1.324-5.432,1.251,2.382-.751,5.364-1.515,5.412-1.324,5.431-1.251" transform="translate(-209.455 -127.289)" fill="#fff"/>
          <path id="Trazado_226762" data-name="Trazado 226762" d="M469.282,296.819c0,.075-5.19.444-11.6.824s-11.613.627-11.618.552,5.189-.444,11.6-.824,11.612-.627,11.617-.552" transform="translate(-212.514 -141.404)" fill="#fff"/>
          <path id="Trazado_226763" data-name="Trazado 226763" d="M435.049,290.15a24.139,24.139,0,0,1,4.089-.524,11.623,11.623,0,0,1-4.089.524" transform="translate(-207.267 -137.972)" fill="#fff"/>
          <path id="Trazado_226764" data-name="Trazado 226764" d="M471.384,311.507a4.419,4.419,0,0,1-.79.086l-2.157.143-7.115.473-7.11.557-2.155.169a4.4,4.4,0,0,1-.794.028,4.4,4.4,0,0,1,.783-.133c.506-.069,1.24-.157,2.148-.256,1.816-.2,4.328-.435,7.109-.637s5.3-.329,7.125-.394c.913-.032,1.651-.052,2.162-.057a4.407,4.407,0,0,1,.794.02" transform="translate(-214.991 -148.398)" fill="#fff"/>
          <path id="Trazado_226765" data-name="Trazado 226765" d="M435.441,294.218l-3.488.451-3.294-8.5-5.331,2.156s3.009,10.192,4.158,14.216l10.83-.013Z" transform="translate(-201.683 -136.336)" fill="#ffbe9d"/>
          <path id="Trazado_226766" data-name="Trazado 226766" d="M443.724,308.587a19.775,19.775,0,0,1-1.8-2.2,15.59,15.59,0,0,1-1.159-2.006c-.288-.6-.485-1.094-.618-1.44a3.234,3.234,0,0,0-.221-.535,2.394,2.394,0,0,0,.134.564,12.789,12.789,0,0,0,.554,1.48,14.059,14.059,0,0,0,1.13,2.058,18.259,18.259,0,0,0,1.8,2.238,9.654,9.654,0,0,1,1.314,1.531l.274-.011a10.29,10.29,0,0,0-1.413-1.677" transform="translate(-209.591 -144.072)" fill="#eb996e"/>
          <path id="Trazado_226767" data-name="Trazado 226767" d="M421.312,273.486a28.657,28.657,0,0,0-.307-4.768l-2.628-5.872s-.677-.415-1,.756a3.073,3.073,0,0,0,.7,2.375l.08,1.537-1.064-.865-2.047-3.836s-1.41-2.793-1.777-2.35-.245,1.341.363,2.547l1.38,2.734s.208.485-.516-.219-2.3-4.115-2.624-4.541-.772-1.676-1.478-1.394.2,1.782.2,1.782l2.258,5.058s-1.309-1.915-1.546-2.239-.781-1.42-1.21-1.978-.9-.776-1.208-.642a.631.631,0,0,0-.391.771l2.41,4.183s1.205,1.876,1.2,2.018-1.051-.62-1.051-.62l-1.011-1.288s-1.093-1.929-1.667-1.824-.47.532-.47.532l2.031,3.513,2.945,3.789,3.15,3.129,1.819-.586Z" transform="translate(-194.335 -123.655)" fill="#ffbe9d"/>
          <path id="Trazado_226768" data-name="Trazado 226768" d="M422.4,278.771a7.283,7.283,0,0,0,.188-1.172,3.732,3.732,0,0,1,1.211-2.409,2,2,0,0,1,1.224-.466h.151l-.01-.163c-.047-.721-.02-1.407-.047-1.864s-.064-.742-.1-.736a3.828,3.828,0,0,0-.071.734,18.891,18.891,0,0,0-.059,1.911l.14-.163a2.21,2.21,0,0,0-1.414.513,3.069,3.069,0,0,0-.952,1.33,4.865,4.865,0,0,0-.282,1.288,3.482,3.482,0,0,0,.023,1.2" transform="translate(-201.214 -129.567)" fill="#eb996e"/>
          <path id="Trazado_226769" data-name="Trazado 226769" d="M490.858,297.794l-1.941,9.341,9.113-.008c.35-1.329,2.255-11.333,2.255-11.333Z" transform="translate(-232.93 -140.922)" fill="#ffbe9d"/>
        </g>
      </g>
      <g id="Grupo_177587" data-name="Grupo 177587">
        <g id="Grupo_177586" data-name="Grupo 177586" clip-path="url(#clip-path)">
          <path id="Trazado_226770" data-name="Trazado 226770" d="M372.748,84.3h-87.7V.015h87.7Z" transform="translate(-135.805 -0.007)" fill="#fff"/>
          <rect id="Rectángulo_57223" data-name="Rectángulo 57223" width="87.696" height="6.313" transform="translate(149.247 0.007)" fill="#f5f5f5"/>
          <path id="Trazado_226771" data-name="Trazado 226771" d="M372.771,135.415H285.1v13.4h4.571v12.5l11.508-12.5h71.591Z" transform="translate(-135.828 -64.515)" fill="#ebebeb"/>
          <path id="Trazado_226772" data-name="Trazado 226772" d="M372.646,71.029s.012.526.018,1.547.01,2.54.017,4.516.01,4.424.016,7.3v.034c-.107.1-.039.029-.068.052h-1.048l-1.138,0-2.4,0-5.258.007-61.734.049.085-.037-11.5,12.5-.212.231v-.314c0-3.908,0-8.161,0-12.5l.127.127h-4.658l-.041-.051-.026-.032v-.045c0-19.113-.005-40.052-.008-61.895,0-7.6,0-15.091,0-22.393V0h.136l87.7.027h.108V.136c-.019,21.654-.036,39.375-.047,51.688-.013,6.152-.022,10.952-.029,14.218-.007,1.629-.012,2.874-.016,3.717s-.016,1.27-.016,1.27-.011-.431-.016-1.27-.009-2.088-.016-3.717c-.007-3.266-.017-8.066-.029-14.218-.011-12.313-.027-30.035-.047-51.688l.108.108-87.7.028.135-.136c0,7.3,0,14.793,0,22.393,0,21.843-.006,42.782-.008,61.895l-.026-.076h0l-.1-.051,4.6,0h.127v.127c0,4.336,0,8.589,0,12.5l-.213-.083,11.514-12.492.034-.038h.051l61.734.048,5.258.007,2.4,0,1.138,0h1.048c-.018.023.063-.051-.035.051v-.034c.006-2.874.012-5.317.016-7.3s.013-3.492.017-4.516.018-1.547.018-1.547" transform="translate(-135.691 0)" fill="#263238"/>
          <path id="Trazado_226773" data-name="Trazado 226773" d="M306.595,5.4a1.18,1.18,0,1,1-1.18-1.18,1.18,1.18,0,0,1,1.18,1.18" transform="translate(-144.944 -2.013)" fill="#fff"/>
          <path id="Trazado_226774" data-name="Trazado 226774" d="M292.938,5.4a1.18,1.18,0,1,1-1.18-1.18,1.18,1.18,0,0,1,1.18,1.18" transform="translate(-138.438 -2.013)" fill="#fff"/>
          <path id="Trazado_226775" data-name="Trazado 226775" d="M299.767,5.4a1.18,1.18,0,1,1-1.18-1.18,1.18,1.18,0,0,1,1.18,1.18" transform="translate(-141.691 -2.013)" fill="#fff"/>
          <path id="Trazado_226776" data-name="Trazado 226776" d="M431.212,30.09h0a5.559,5.559,0,1,1,5.559-5.559,5.559,5.559,0,0,1-5.559,5.559" transform="translate(-202.79 -9.039)" fill="#ebebeb"/>
          <path id="Trazado_226777" data-name="Trazado 226777" d="M434.232,28.089a.887.887,0,1,0-.539-.006,1.545,1.545,0,0,0-1.3,1.524h3.093a1.547,1.547,0,0,0-1.259-1.518" transform="translate(-206.003 -12.557)" fill="#263238"/>
          <path id="Trazado_226778" data-name="Trazado 226778" d="M439.095,28.643a.128.128,0,0,1-.128-.128V27.092a.128.128,0,0,1,.255,0v1.423a.128.128,0,0,1-.128.128" transform="translate(-209.133 -12.847)" fill="#263238"/>
          <path id="Trazado_226779" data-name="Trazado 226779" d="M439.16,28.579h-1.423a.127.127,0,1,1,0-.255h1.423a.127.127,0,1,1,0,.255" transform="translate(-208.486 -13.494)" fill="#263238"/>
          <path id="Trazado_226780" data-name="Trazado 226780" d="M399.01,143.744a4.164,4.164,0,1,1-4.164-4.164,4.164,4.164,0,0,1,4.164,4.164" transform="translate(-186.129 -66.499)" fill="#12263f"/>
          <path id="Trazado_226781" data-name="Trazado 226781" d="M397.187,147.8h-.733a.672.672,0,0,1-.672-.672V146.4a.672.672,0,0,1,.672-.672h.733a.672.672,0,0,1,.672.672v.733a.672.672,0,0,1-.672.672" transform="translate(-188.559 -69.427)" fill="#fff"/>
          <path id="Trazado_226782" data-name="Trazado 226782" d="M400.111,147.23v-.7l.525-.562a.113.113,0,0,1,.2.077v1.6a.113.113,0,0,1-.19.083Z" transform="translate(-190.621 -69.523)" fill="#fff"/>
          <path id="Trazado_226783" data-name="Trazado 226783" d="M368.052,146.812a4.105,4.105,0,1,1,5.806,0,4.105,4.105,0,0,1-5.806,0" transform="translate(-174.775 -66.606)" fill="#eeac3a"/>
          <path id="Trazado_226784" data-name="Trazado 226784" d="M370.974,147.649l.732-.172a.2.2,0,0,0,.154-.195v-.151s-.031-.257.21-.272c.173-.012,1.274,0,1.274,0s.29-.006.285.223v.219a.171.171,0,0,0,.121.164l.794.24a.172.172,0,0,0,.208-.1l.1-.245a.328.328,0,0,0,.026-.141.694.694,0,0,0-.137-.367,3,3,0,0,0-2.315-.61c-1.348.065-1.642.634-1.719.769a.575.575,0,0,0-.025.379l.059.14a.2.2,0,0,0,.23.118" transform="translate(-176.592 -69.67)" fill="#fff"/>
          <path id="Trazado_226785" data-name="Trazado 226785" d="M351.116,143.846a4.128,4.128,0,1,1-4.128-4.128,4.128,4.128,0,0,1,4.128,4.128" transform="translate(-163.346 -66.565)" fill="#43a99b"/>
          <path id="Trazado_226786" data-name="Trazado 226786" d="M347.872,147.639a.407.407,0,1,1,.407-.407.407.407,0,0,1-.407.407" transform="translate(-165.54 -69.95)" fill="#fff"/>
          <path id="Trazado_226787" data-name="Trazado 226787" d="M350.29,147.639a.407.407,0,1,1,.407-.407.407.407,0,0,1-.407.407" transform="translate(-166.692 -69.95)" fill="#fff"/>
          <path id="Trazado_226788" data-name="Trazado 226788" d="M352.877,147.639a.407.407,0,1,1,.407-.407.407.407,0,0,1-.407.407" transform="translate(-167.924 -69.95)" fill="#fff"/>
          <path id="Trazado_226789" data-name="Trazado 226789" d="M298.173,26.515a2.671,2.671,0,1,1-2.671-2.671,2.671,2.671,0,0,1,2.671,2.671" transform="translate(-139.511 -11.36)" fill="#455a64"/>
          <path id="Trazado_226790" data-name="Trazado 226790" d="M317.035,28a45.237,45.237,0,0,1-4.96.136A45.242,45.242,0,0,1,307.114,28a90.442,90.442,0,0,1,9.921,0" transform="translate(-146.316 -13.273)" fill="#455a64"/>
          <path id="Trazado_226791" data-name="Trazado 226791" d="M335.863,32.955c.8-1.011,1.792-1.985,2-3.259.189-1.171-.324-2.453.2-3.517.646-1.309,2.5-1.564,3.308-2.781.39-.59.482-1.336.867-1.929a3.511,3.511,0,0,1,3.2-1.266c1.2.069,2.375.443,3.579.468,1.652.035,3.325-.585,4.928-.19,1.77.437,2.912,1.928,4.119,3.367l1.564,1.66a6.514,6.514,0,0,0,1.025.752,11.758,11.758,0,0,1,1.928,1.1,2.917,2.917,0,0,1,.013,4.207,3.12,3.12,0,0,1,2.249,2.954,8.957,8.957,0,0,1-.462,2.142,3.116,3.116,0,0,0,.046,2.15,1.37,1.37,0,0,0,1.825.685,3.282,3.282,0,0,1-1.681,2.271,1.961,1.961,0,0,0,1.347.521c-1.184,3.2-4.737,5.024-8.145,5.2s-6.732-.956-9.954-2.078l-9.291-1.949c-.815-.146-1.2-1.109-1.224-1.937a6.606,6.606,0,0,0-.191-2.456c-.455-1.039-1.713-1.543-2.186-2.574-.538-1.173.132-2.54.933-3.551" transform="translate(-159.475 -9.621)" fill="#263238"/>
          <path id="Trazado_226792" data-name="Trazado 226792" d="M377.512,44.852a37.849,37.849,0,0,0,1.319-6.4,13.232,13.232,0,0,0-.849-6.417c-.131-.3-1.218-2.328-1.545-2.279-.233.036.47,1.94.362,2.15a11.217,11.217,0,0,0-.924,6.594,29.555,29.555,0,0,0,1.637,6.348" transform="translate(-179.014 -14.177)" fill="#263238"/>
          <path id="Trazado_226793" data-name="Trazado 226793" d="M362.249,33.857c-.1-5.467-3.372-9.963-8.834-9.708l-.5.053a9.775,9.775,0,0,0-8.749,9.959c.117,4.738.306,9.971.6,12.488.615,5.211,5.918,5.472,5.918,5.472s.287,4.218.287,4.218l12.587-.89Z" transform="translate(-163.965 -11.5)" fill="#b28f83"/>
          <path id="Trazado_226794" data-name="Trazado 226794" d="M356.621,75.1A12.677,12.677,0,0,0,363.2,72.38s-1.231,3.969-6.487,4.048Z" transform="translate(-169.902 -34.483)" fill="#826a63"/>
          <path id="Trazado_226795" data-name="Trazado 226795" d="M347.964,51.126a.749.749,0,0,0,.8.676.716.716,0,0,0,.7-.753.75.75,0,0,0-.8-.676.717.717,0,0,0-.7.753" transform="translate(-165.777 -23.998)" fill="#263238"/>
          <path id="Trazado_226796" data-name="Trazado 226796" d="M346.719,46.33c.1.087.623-.39,1.425-.472s1.432.257,1.509.149c.038-.048-.074-.214-.35-.373a2.056,2.056,0,0,0-1.22-.24,1.975,1.975,0,0,0-1.121.5c-.226.215-.292.4-.241.439" transform="translate(-165.177 -21.621)" fill="#263238"/>
          <path id="Trazado_226797" data-name="Trazado 226797" d="M361.769,50.318a.749.749,0,0,0,.8.676.716.716,0,0,0,.7-.753.75.75,0,0,0-.8-.676.718.718,0,0,0-.7.753" transform="translate(-172.354 -23.613)" fill="#263238"/>
          <path id="Trazado_226798" data-name="Trazado 226798" d="M361.784,45.369c.1.087.624-.39,1.425-.472s1.432.257,1.509.149c.038-.048-.074-.214-.351-.373a2.057,2.057,0,0,0-1.22-.24,1.98,1.98,0,0,0-1.122.5c-.226.215-.291.4-.241.439" transform="translate(-172.354 -21.163)" fill="#263238"/>
          <path id="Trazado_226799" data-name="Trazado 226799" d="M355.626,52.464a5.335,5.335,0,0,0-1.327-.1c-.207,0-.4-.019-.454-.156a1.046,1.046,0,0,1,.073-.621l.441-1.623a27.034,27.034,0,0,0,.93-4.221,26.965,26.965,0,0,0-1.268,4.137c-.144.569-.283,1.111-.415,1.629a1.194,1.194,0,0,0-.021.815.515.515,0,0,0,.368.264,1.393,1.393,0,0,0,.353.012,5.236,5.236,0,0,0,1.32-.137" transform="translate(-168.424 -21.794)" fill="#263238"/>
          <path id="Trazado_226800" data-name="Trazado 226800" d="M360.042,59.162c-.131.006-.041.876-.721,1.573s-1.616.7-1.611.82c-.006.056.225.148.617.117a2.18,2.18,0,0,0,1.349-.636,1.9,1.9,0,0,0,.549-1.313c-.005-.367-.125-.573-.184-.561" transform="translate(-170.421 -28.186)" fill="#263238"/>
          <path id="Trazado_226801" data-name="Trazado 226801" d="M361.221,39.3c.1.21.891.022,1.844.036.953,0,1.74.191,1.845-.018.046-.1-.108-.291-.437-.469a3.21,3.21,0,0,0-2.811-.014c-.33.175-.487.365-.441.465" transform="translate(-172.09 -18.349)" fill="#263238"/>
          <path id="Trazado_226802" data-name="Trazado 226802" d="M346.8,41.136c.16.167.693-.08,1.356-.159.66-.1,1.239-.007,1.349-.211.047-.1-.061-.271-.325-.418a1.976,1.976,0,0,0-2.18.3c-.215.212-.272.407-.2.49" transform="translate(-165.21 -19.127)" fill="#263238"/>
          <path id="Trazado_226803" data-name="Trazado 226803" d="M378.673,49.887c.085-.048,3.473-1.438,3.735,2.141s-3.385,3.1-3.4,3-.336-5.143-.336-5.143" transform="translate(-180.408 -23.622)" fill="#b28f83"/>
          <path id="Trazado_226804" data-name="Trazado 226804" d="M381.211,54.621c.015-.013.065.039.174.08a.623.623,0,0,0,.467-.025,1.548,1.548,0,0,0,.613-1.436,2.074,2.074,0,0,0-.24-.88.722.722,0,0,0-.5-.444.318.318,0,0,0-.355.2c-.041.1-.013.173-.031.181s-.081-.054-.063-.2a.4.4,0,0,1,.125-.235.473.473,0,0,1,.338-.116.878.878,0,0,1,.692.507,2.126,2.126,0,0,1,.29.982,1.623,1.623,0,0,1-.8,1.612.67.67,0,0,1-.577-.053c-.117-.081-.142-.159-.13-.166" transform="translate(-181.616 -24.65)" fill="#826a63"/>
          <path id="Trazado_226805" data-name="Trazado 226805" d="M347.746,27.461c-.6-.283,1.018-2.271,2.4-3.009,2.09-1.116,5.338-1.928,7.359-1.493a8.647,8.647,0,0,1,5.835,3.682,14.114,14.114,0,0,1,2.044,7.09,4.29,4.29,0,0,1-.364,2.22c-.449.824-1.377,1.384-1.264,2.474a1.505,1.505,0,0,1-.3,1.117c-.61.739-1.454.136-1.865-.5a10.391,10.391,0,0,1-1.246-4.624A10.5,10.5,0,0,1,360.352,31c.137-.608.382-1.19.485-1.805a2.155,2.155,0,0,0-.369-1.771,2.2,2.2,0,0,0-.309-.275,3.742,3.742,0,0,0-3.751-.467c-1.971.843-5.346,2.13-6.29,1.5a5.528,5.528,0,0,1-1.708-1.523Z" transform="translate(-165.612 -10.881)" fill="#263238"/>
          <path id="Trazado_226806" data-name="Trazado 226806" d="M358.728,21.9a7.882,7.882,0,0,0-6.029.721,4.1,4.1,0,0,0-2.006,2.517,2.352,2.352,0,0,0,1.353,2.7l.073.04a5.462,5.462,0,0,0,4.031-.478c1.253-.526,2.342-1.391,3.6-1.911a7.294,7.294,0,0,1,4.251-.4,11.9,11.9,0,0,0-5.272-3.2" transform="translate(-167.053 -10.295)" fill="#263238"/>
          <path id="Trazado_226807" data-name="Trazado 226807" d="M374.759,46.337c0-.014-.127.02-.364.013a1.845,1.845,0,0,1-.958-.341,2.308,2.308,0,0,1-.911-1.3,4.356,4.356,0,0,1,.042-2.143c.178-.789.521-1.621.72-2.578a4.646,4.646,0,0,0,.079-1.517,2.889,2.889,0,0,0-.618-1.5,3.438,3.438,0,0,0-1.438-.911,9.067,9.067,0,0,1-1.567-.672,5.062,5.062,0,0,1-1.98-2.858c-.391-1.17-.545-2.384-.865-3.529a6.439,6.439,0,0,0-1.6-3.019,4.293,4.293,0,0,0-2.864-1.137,5.607,5.607,0,0,0-2.633.583,8.3,8.3,0,0,0-2.9,2.56c-.272.37-.46.672-.585.879a1.892,1.892,0,0,0-.173.325,2.027,2.027,0,0,0,.217-.3c.138-.2.34-.488.622-.846a8.5,8.5,0,0,1,2.9-2.457,5.461,5.461,0,0,1,2.545-.532,4.08,4.08,0,0,1,2.706,1.094,6.232,6.232,0,0,1,1.517,2.914c.312,1.122.464,2.342.864,3.544a5.289,5.289,0,0,0,2.093,2.993,9.161,9.161,0,0,0,1.611.686,3.212,3.212,0,0,1,1.345.835,2.665,2.665,0,0,1,.573,1.377,4.441,4.441,0,0,1-.063,1.446c-.183.93-.517,1.77-.688,2.58a4.46,4.46,0,0,0,0,2.223,2.39,2.39,0,0,0,.994,1.346,1.819,1.819,0,0,0,1.014.309,1.055,1.055,0,0,0,.364-.065" transform="translate(-169.674 -11.833)" fill="#455a64"/>
          <path id="Trazado_226808" data-name="Trazado 226808" d="M355.324,22.07a2.239,2.239,0,0,0-1.086.164,4.159,4.159,0,0,0-2.829,4.149,2.244,2.244,0,0,0,.244,1.071c.044-.01-.072-.415-.06-1.073a4.308,4.308,0,0,1,2.71-3.974c.609-.251,1.027-.291,1.022-.336" transform="translate(-167.416 -10.506)" fill="#455a64"/>
          <path id="Trazado_226809" data-name="Trazado 226809" d="M344.861,28.947a1.9,1.9,0,0,0-.272,1.307,1.894,1.894,0,0,0,.428,1.264c.07-.03-.13-.579-.169-1.28s.085-1.27.013-1.292" transform="translate(-164.167 -13.791)" fill="#455a64"/>
          <path id="Trazado_226810" data-name="Trazado 226810" d="M369.193,84.624,356.156,80.5l-11.7,2.269-13.84,7.571,6.354,18.912h32.093L368.4,90.744Z" transform="translate(-157.512 -38.352)" fill="#1a76b7"/>
          <path id="Trazado_226811" data-name="Trazado 226811" d="M356.393,82.4V80.365l13.009-1.9-.135,3.94L356.143,83.81Z" transform="translate(-169.674 -37.38)" fill="#1a76b7"/>
          <path id="Trazado_226812" data-name="Trazado 226812" d="M409.666,92.576c-1.862-4.523-7.911-4.879-8.31-4.879l-.869,3.549,1.61,18.084.769,3.351H416.9c-2.195-7.165-6.029-17.17-7.237-20.1" transform="translate(-190.801 -41.781)" fill="#1a76b7"/>
          <path id="Trazado_226813" data-name="Trazado 226813" d="M328.1,99.294s-1.7,1.8-1.951,6.67-.815,12.242-.815,12.242H335.6l.673-7.248Z" transform="translate(-154.995 -47.306)" fill="#1a76b7"/>
          <path id="Trazado_226814" data-name="Trazado 226814" d="M340,125.731a54.27,54.27,0,0,1-1.953-5.079,54.33,54.33,0,0,1-1.7-5.171,54.3,54.3,0,0,1,1.953,5.08c1.008,2.83,1.767,5.146,1.7,5.171" transform="translate(-160.24 -55.017)" fill="#263238"/>
          <path id="Trazado_226815" data-name="Trazado 226815" d="M402.839,101.145c.075,0,.282,3.973.462,8.88s.264,8.889.19,8.891-.282-3.973-.462-8.881-.265-8.888-.19-8.89" transform="translate(-191.908 -48.188)" fill="#263238"/>
        </g>
      </g>
      <path id="Trazado_226816" data-name="Trazado 226816" d="M204.025,402.19l1.738,21.1h4.688l-.905-21.1Z" transform="translate(-97.202 -191.612)" fill="#263238"/>
      <path id="Trazado_226817" data-name="Trazado 226817" d="M294.8,402.19l-.906,21.1h4.688l1.738-21.1Z" transform="translate(-140.015 -191.612)" fill="#263238"/>
      <g id="Grupo_177598" data-name="Grupo 177598">
        <g id="Grupo_177597" data-name="Grupo 177597" clip-path="url(#clip-path)">
          <path id="Trazado_226818" data-name="Trazado 226818" d="M255.734,366.744,195.4,368.161l-1.837-38.971a6.693,6.693,0,0,1,6.686-7.008h51.407a6.693,6.693,0,0,1,6.677,7.156Z" transform="translate(-92.214 -153.494)" fill="#455a64"/>
          <path id="Trazado_226819" data-name="Trazado 226819" d="M258.835,335.16a.781.781,0,0,1-.169.014l-.494.015-1.9.028-6.994.025c-5.905.01-14.064-.056-23.07.152-9.01.3-17.176.249-23.08.159-2.953-.047-5.342-.1-6.993-.154l-1.9-.065-.494-.024a.774.774,0,0,1-.168-.017.751.751,0,0,1,.169-.01l.495,0,1.9.014,6.993.067c5.905.04,14.063.061,23.071-.238,9.012-.209,17.172-.112,23.078-.073l6.993.062,1.9.022.495.012a.761.761,0,0,1,.169.014" transform="translate(-92.221 -159.598)" fill="#263238"/>
          <path id="Trazado_226820" data-name="Trazado 226820" d="M229.081,323.318a11.4,11.4,0,0,0-7.168,3.658,3.625,3.625,0,0,1,.747-.969,9.062,9.062,0,0,1,5.2-2.652,3.623,3.623,0,0,1,1.224-.036" transform="translate(-105.723 -154.02)" fill="#263238"/>
          <g id="Grupo_177590" data-name="Grupo 177590" transform="translate(115.621 167.151)" opacity="0.3">
            <g id="Grupo_177589" data-name="Grupo 177589">
              <g id="Grupo_177588" data-name="Grupo 177588" clip-path="url(#clip-path-6)">
                <path id="Trazado_226821" data-name="Trazado 226821" d="M220.828,320.784c1.786,2,4.706,2.87,7.354,3.273a45.393,45.393,0,0,0,14.4.3c3.047-.519,6.064-1.529,9.147-1.318,3.156.217,6.326,1.7,9.369.842a6.394,6.394,0,0,0,3.852-3.111c.254-.477.412-1.146,0-1.5-.208-.177-.664.437-.937.416-14.294-1.092-28.887,2.089-43.188,1.088" transform="translate(-220.828 -319.247)"/>
              </g>
            </g>
          </g>
          <g id="Grupo_177593" data-name="Grupo 177593" transform="translate(152.37 178.053)" opacity="0.3">
            <g id="Grupo_177592" data-name="Grupo 177592">
              <g id="Grupo_177591" data-name="Grupo 177591" clip-path="url(#clip-path-7)">
                <path id="Trazado_226822" data-name="Trazado 226822" d="M291.071,340.068a4.3,4.3,0,0,0,1.328,3.66,14.722,14.722,0,0,0,3.315,2.3,14.293,14.293,0,0,1,5.086,4.3c2.3,3.58,1.452,8.277,2.427,12.421,0,0,.813-17.881.644-17.43" transform="translate(-291.016 -340.068)"/>
              </g>
            </g>
          </g>
          <path id="Trazado_226823" data-name="Trazado 226823" d="M240.969,113.71A9.367,9.367,0,0,1,243.5,122c-.283,1.434-.876,3.038-.065,4.253s2.636,1.387,3.4,2.617c.9,1.448-.217,3.316-.035,5.009a3.371,3.371,0,0,0,3.268,2.906,13.15,13.15,0,0,1-6.808,2.048l-1.538-2.54a2.416,2.416,0,0,1-.508,2.926,5.512,5.512,0,0,1-2.9,1.29,16.692,16.692,0,0,1-14.25-4.072" transform="translate(-106.747 -54.174)" fill="#263238"/>
          <path id="Trazado_226824" data-name="Trazado 226824" d="M201.128,115.069a33.584,33.584,0,0,0,1.6-3.135c.813-2.391-.057-5.292,1.393-7.36,1.032-1.471,2.927-2.028,4.694-2.353s3.651-.554,5.071-1.657c1.041-.808,1.721-2.011,2.759-2.823a7.923,7.923,0,0,1,5.364-1.267,11.241,11.241,0,0,1,5.5,1.571,6.172,6.172,0,0,1,2.946,4.726,18.234,18.234,0,0,0,0,2.815,19.288,19.288,0,0,0,1.248,2.831,4.947,4.947,0,0,1-1.922,5.745L214.66,129.574c-2.881.717-9.415-1.329-11.307-3.617s-3.47-8.194-2.225-10.888" transform="translate(-95.61 -45.951)" fill="#263238"/>
          <path id="Trazado_226825" data-name="Trazado 226825" d="M237.158,118.293c-.088-3.914-2.481-8.808-6.387-8.554l-12.27,2.578a2.291,2.291,0,0,0-2.142,2.239l.114,29.341-.085.015s2.414,8.378,10.548,6.2c1.613-.432,2.414-2.143,2.806-3.92l.082.014c.012-.213.023-.41.035-.614a19.182,19.182,0,0,0,.219-4.019c.124-2.363.163-3.333.163-3.311,0,0,5.021-.626,6.317-7.091.645-3.215.7-8.528.6-12.876" transform="translate(-103.078 -52.277)" fill="#ffbe9d"/>
          <path id="Trazado_226826" data-name="Trazado 226826" d="M235.525,135.642a.835.835,0,0,1-.839.809.8.8,0,0,1-.83-.787.836.836,0,0,1,.838-.81.8.8,0,0,1,.831.788" transform="translate(-111.414 -64.247)" fill="#263238"/>
          <path id="Trazado_226827" data-name="Trazado 226827" d="M251.775,135.642a.835.835,0,0,1-.839.809.8.8,0,0,1-.83-.787.836.836,0,0,1,.838-.81.8.8,0,0,1,.831.788" transform="translate(-119.156 -64.247)" fill="#263238"/>
          <path id="Trazado_226828" data-name="Trazado 226828" d="M251.037,130.531c-.108.141-.82-.436-1.8-.409-.979.01-1.675.615-1.787.478-.055-.061.051-.313.353-.586a2.212,2.212,0,0,1,2.863-.055c.312.262.424.509.37.572" transform="translate(-117.884 -61.678)" fill="#263238"/>
          <path id="Trazado_226829" data-name="Trazado 226829" d="M233.529,130.333c-.13.126-.823-.513-1.864-.59-1.039-.094-1.845.421-1.948.275-.051-.065.087-.3.44-.534a2.53,2.53,0,0,1,1.571-.388,2.467,2.467,0,0,1,1.471.639c.3.288.392.541.329.6" transform="translate(-109.437 -61.5)" fill="#263238"/>
          <path id="Trazado_226830" data-name="Trazado 226830" d="M242.4,137.053a5.945,5.945,0,0,1,1.469-.2c.23-.014.449-.051.494-.206a1.166,1.166,0,0,0-.126-.686l-.607-1.774a30.121,30.121,0,0,1-1.338-4.629A30.111,30.111,0,0,1,244,134.065q.3.933.578,1.783a1.327,1.327,0,0,1,.083.9.574.574,0,0,1-.391.32,1.563,1.563,0,0,1-.392.039,5.838,5.838,0,0,1-1.479-.058" transform="translate(-115.429 -61.722)" fill="#263238"/>
          <path id="Trazado_226831" data-name="Trazado 226831" d="M235.029,161.785a16.566,16.566,0,0,1-8.621-2.678s1.933,4.556,8.47,4.211Z" transform="translate(-107.866 -75.802)" fill="#eb996e"/>
          <path id="Trazado_226832" data-name="Trazado 226832" d="M239.158,147.377a1.619,1.619,0,0,0-1.426-.66,1.478,1.478,0,0,0-1.042.506.938.938,0,0,0-.115,1.068,1.088,1.088,0,0,0,1.166.346,3.406,3.406,0,0,0,1.175-.639.994.994,0,0,0,.267-.255.3.3,0,0,0,.013-.335" transform="translate(-112.652 -69.898)" fill="#ff725e"/>
          <path id="Trazado_226833" data-name="Trazado 226833" d="M237.262,144.859c.146,0,.109.972.915,1.7s1.848.66,1.85.8c.011.062-.239.18-.678.174a2.43,2.43,0,0,1-1.547-.61,2.116,2.116,0,0,1-.7-1.421c-.02-.409.1-.646.164-.638" transform="translate(-112.957 -69.014)" fill="#263238"/>
          <path id="Trazado_226834" data-name="Trazado 226834" d="M233.782,124.976c-.1.241-.991.088-2.049.173-1.061.063-1.923.337-2.054.113-.058-.107.1-.331.453-.553a3.571,3.571,0,0,1,3.125-.217c.381.171.568.371.525.485" transform="translate(-109.419 -59.185)" fill="#263238"/>
          <path id="Trazado_226835" data-name="Trazado 226835" d="M250.062,125.364c-.189.2-.887-.043-1.737-.088-.848-.071-1.576.073-1.733-.147-.069-.107.053-.306.375-.487a2.669,2.669,0,0,1,1.427-.276,2.63,2.63,0,0,1,1.369.466c.292.221.382.436.3.532" transform="translate(-117.473 -59.247)" fill="#263238"/>
          <path id="Trazado_226836" data-name="Trazado 226836" d="M213.516,112.817a5.322,5.322,0,0,1,2.895-1.465,59.853,59.853,0,0,1,14.081-1.873,2.432,2.432,0,0,1-1.183,2.866,10.846,10.846,0,0,1-3.219,1.007,4.214,4.214,0,0,0-2.8,1.733c-.59,1.047-.355,2.4-.892,3.472-.923,1.85-3.693,2.156-4.605,4.01-.69,1.4-.026,3.061.005,4.625a5.588,5.588,0,0,1-6.193,5.676l1-16.743a5.573,5.573,0,0,1,.915-3.307" transform="translate(-100.812 -52.158)" fill="#263238"/>
          <path id="Trazado_226837" data-name="Trazado 226837" d="M189.411,127.365c.968-.682,2.145-1.231,2.626-2.313.7-1.575-.386-3.651.635-5.041.931-1.267,3.2-.931,4.076-2.234.687-1.018.157-2.052.482-2.979a2.614,2.614,0,0,1,2.729-1.374l6.279,11.863c.27,3.763.746,5.806-.3,7.866a17.639,17.639,0,0,0-1.59,3.442,3.6,3.6,0,0,0,.768,3.534c-4.568-.178-8.531-3.046-12.181-5.8l-3.863-2.913a3.051,3.051,0,0,1-1.028-1.084c-.49-1.078.4-2.286,1.365-2.968" transform="translate(-89.523 -54.016)" fill="#263238"/>
          <path id="Trazado_226838" data-name="Trazado 226838" d="M197.547,127.229a2.16,2.16,0,0,0,.473.15,4.149,4.149,0,0,0,1.422.066,4.4,4.4,0,0,0,2.091-.827,4.323,4.323,0,0,0,1.606-2.494,4.46,4.46,0,0,0,.056-1.753,7.127,7.127,0,0,0-.642-1.781,6.732,6.732,0,0,1-.662-1.847,2.266,2.266,0,0,1,.469-1.891,4.113,4.113,0,0,1,2-.751,2.085,2.085,0,0,0,1.049-.6,2.042,2.042,0,0,0,.451-1.15,12.978,12.978,0,0,0-.238-2.418,2.6,2.6,0,0,1,.129-1.157,1.623,1.623,0,0,1,.761-.841,4.56,4.56,0,0,1,2.361-.342,4.941,4.941,0,0,0,2.414-.412,4.426,4.426,0,0,0,1.8-1.543,7.292,7.292,0,0,0,.845-2.1,10.175,10.175,0,0,1,.683-1.982,4.549,4.549,0,0,1,1.253-1.479,5.116,5.116,0,0,1,6.033-.136,6.24,6.24,0,0,1,1.587,1.533,8.255,8.255,0,0,1,.9,1.671.455.455,0,0,0-.029-.122c-.027-.079-.055-.2-.118-.351a5.989,5.989,0,0,0-.664-1.258,6.206,6.206,0,0,0-1.588-1.6,5.347,5.347,0,0,0-2.811-.979,5.434,5.434,0,0,0-3.438,1.061,4.768,4.768,0,0,0-1.328,1.547,10.36,10.36,0,0,0-.712,2.024,7.1,7.1,0,0,1-.82,2.026,4.179,4.179,0,0,1-1.7,1.448,4.687,4.687,0,0,1-2.3.383,4.781,4.781,0,0,0-2.5.374,1.889,1.889,0,0,0-.88.976,2.844,2.844,0,0,0-.146,1.275,13.128,13.128,0,0,1,.242,2.373,1.788,1.788,0,0,1-.386,1.007,1.837,1.837,0,0,1-.925.526c-.355.1-.73.158-1.1.265a2.164,2.164,0,0,0-1.009.559,2.493,2.493,0,0,0-.524,2.094,6.866,6.866,0,0,0,.694,1.908,6.979,6.979,0,0,1,.64,1.723,4.285,4.285,0,0,1-.037,1.675,4.186,4.186,0,0,1-1.513,2.417,4.346,4.346,0,0,1-2.015.843,4.926,4.926,0,0,1-1.881-.113" transform="translate(-94.116 -48.038)" fill="#455a64"/>
          <path id="Trazado_226839" data-name="Trazado 226839" d="M187.525,118.2a.96.96,0,0,0-.193.352,1.635,1.635,0,0,0,.062,1.146,1.729,1.729,0,0,0,.507.677,1.818,1.818,0,0,0,.937.371,2.275,2.275,0,0,0,2.13-1.026,3.047,3.047,0,0,0,.485-1.342,4.258,4.258,0,0,0-.142-1.533,9.371,9.371,0,0,1-.663-3.2,2.1,2.1,0,0,1,.708-1.495,2.3,2.3,0,0,1,1.706-.32,5.6,5.6,0,0,0,1.984.028,1.718,1.718,0,0,0,.885-.584,2.449,2.449,0,0,0,.449-.959,8.068,8.068,0,0,0,.073-2.032,4.444,4.444,0,0,1,.324-1.853,4.743,4.743,0,0,1,2.432-2.516,6.71,6.71,0,0,1,3.223-.347,9.325,9.325,0,0,0,2.918-.115,6.119,6.119,0,0,0,3.457-2.333,4.313,4.313,0,0,0,.708-1.373,8.337,8.337,0,0,1-.791,1.311,6.055,6.055,0,0,1-1.284,1.238,5.934,5.934,0,0,1-2.134.974,9.271,9.271,0,0,1-2.861.077,6.874,6.874,0,0,0-3.335.343,4.976,4.976,0,0,0-2.575,2.642,4.716,4.716,0,0,0-.348,1.956,7.948,7.948,0,0,1-.067,1.966,1.7,1.7,0,0,1-1.148,1.351,5.456,5.456,0,0,1-1.887-.032,2.545,2.545,0,0,0-1.887.38,2.344,2.344,0,0,0-.8,1.671,4.47,4.47,0,0,0,.216,1.735c.159.539.347,1.043.478,1.541a4.08,4.08,0,0,1,.152,1.457,2.868,2.868,0,0,1-.438,1.26,2.118,2.118,0,0,1-1.96.982,1.69,1.69,0,0,1-.874-.324,1.666,1.666,0,0,1-.6-1.706c.069-.248.154-.361.141-.368" transform="translate(-89.213 -47.522)" fill="#263238"/>
          <path id="Trazado_226840" data-name="Trazado 226840" d="M267.944,132.952a1.806,1.806,0,0,1-.154,1.182,1.571,1.571,0,0,1-1.053.843,1.647,1.647,0,0,1-1.608-.649,1.512,1.512,0,0,1-.277-.994,3.147,3.147,0,0,1,.308-1.126,6.705,6.705,0,0,0,.962-2.522,3.681,3.681,0,0,0-1.069-2.778,4.324,4.324,0,0,0-1.323-.909,6.336,6.336,0,0,0-1.585-.421,8.493,8.493,0,0,1-1.546-.348,2.1,2.1,0,0,1-1.129-.9,2.575,2.575,0,0,1-.283-1.391,5.158,5.158,0,0,1,.282-1.382,10.681,10.681,0,0,0,.718-2.6,4.043,4.043,0,0,0-.55-2.294,5.217,5.217,0,0,0-1.328-1.42,9.833,9.833,0,0,1-1.084-.954,3.045,3.045,0,0,1-.629-1.04s0,.028.01.082a1.329,1.329,0,0,0,.064.232,2.438,2.438,0,0,0,.477.794,9.064,9.064,0,0,0,1.066,1,5.156,5.156,0,0,1,1.261,1.4,3.876,3.876,0,0,1,.493,2.185,10.679,10.679,0,0,1-.73,2.539,5.347,5.347,0,0,0-.3,1.446,2.819,2.819,0,0,0,.309,1.532,2.353,2.353,0,0,0,1.262,1.019,8.679,8.679,0,0,0,1.594.363,6.126,6.126,0,0,1,1.523.4,4.061,4.061,0,0,1,1.245.85,3.439,3.439,0,0,1,1.01,2.582,6.619,6.619,0,0,1-.918,2.445,3.326,3.326,0,0,0-.312,1.207,1.706,1.706,0,0,0,.331,1.114,1.8,1.8,0,0,0,1.791.683,1.737,1.737,0,0,0,1.266-1.859.953.953,0,0,0-.091-.311" transform="translate(-122.246 -53.954)" fill="#263238"/>
          <path id="Trazado_226841" data-name="Trazado 226841" d="M304.806,255.154l-2.314-3.5-3.713-1.863-.139-.1a4.981,4.981,0,0,0-4.212-.783c-1.512.4-3.53.9-5.28,1.2l-4-1.093v7.8l20.158-1.273Z" transform="translate(-135.852 -118.506)" fill="#ffbe9d"/>
          <path id="Trazado_226842" data-name="Trazado 226842" d="M316.281,257.294a5.269,5.269,0,0,0-.851-.779c-.546-.456-1.31-1.071-2.164-1.739l-.8-.62-.024-.018-.028-.005c-.827-.155-1.545-.28-2.058-.359a3.236,3.236,0,0,0-.826-.084,3.249,3.249,0,0,0,.8.235c.5.121,1.217.277,2.04.446l-.051-.024.794.627c.854.669,1.636,1.262,2.21,1.682a5.266,5.266,0,0,0,.96.639" transform="translate(-147.468 -120.858)" fill="#eb996e"/>
          <path id="Trazado_226843" data-name="Trazado 226843" d="M313.745,259.855a22.964,22.964,0,0,0-2.9-1.75l-.707-.388-.025-.014-.027,0a15.8,15.8,0,0,0-2.581-.043,15.7,15.7,0,0,0,2.565.286l-.051-.015.7.394a22.94,22.94,0,0,0,3.021,1.531" transform="translate(-146.503 -122.738)" fill="#eb996e"/>
          <path id="Trazado_226844" data-name="Trazado 226844" d="M326.026,218.665a1.535,1.535,0,0,0-1.987.427L307.8,241.08l-25.69.348c-1.026.061-2.271,2.135-1.351,3.139l29.01-.4,16.748-23.27a1.536,1.536,0,0,0-.494-2.236" transform="translate(-133.608 -104.083)" fill="#e0e0e0"/>
          <path id="Trazado_226845" data-name="Trazado 226845" d="M325.9,218.644a.9.9,0,0,1,.128.07,1.424,1.424,0,0,1,.324.288,1.554,1.554,0,0,1,.237,1.608,9.069,9.069,0,0,1-.685,1.028l-.856,1.2-2.124,2.978-13.181,18.4-.035.049h-.061l-28.484.406-.526.007h-.06l-.042-.046a1.44,1.44,0,0,1-.354-1.035,2.529,2.529,0,0,1,.273-1.028,3,3,0,0,1,.622-.848,1.475,1.475,0,0,1,.973-.455l3.968-.053,7.668-.1,13.988-.176-.093.048,12.769-17.211,3.6-4.808a1.55,1.55,0,0,1,1.447-.523,1.173,1.173,0,0,1,.507.2,2.046,2.046,0,0,0-.513-.159,1.516,1.516,0,0,0-1.385.532l-3.54,4.842-12.69,17.269-.035.047h-.059l-13.984.2-7.667.108-3.967.054a1.2,1.2,0,0,0-.8.383,2.725,2.725,0,0,0-.564.77,1.594,1.594,0,0,0,.038,1.759l-.1-.045.526-.007,28.485-.373-.1.05,13.261-18.341,2.15-2.96.87-1.194a9.391,9.391,0,0,0,.692-1,1.518,1.518,0,0,0-.2-1.554,1.951,1.951,0,0,0-.423-.382" transform="translate(-133.485 -104.062)" fill="#263238"/>
          <path id="Trazado_226846" data-name="Trazado 226846" d="M210.926,170.16a8.566,8.566,0,0,0-4.317,2.016,14.54,14.54,0,0,0-3.456,5.662c-.858,2.573-.473,12.724-.473,15.664s.748,13.986,1.117,15.824a11.614,11.614,0,0,1-1.091,6.348c-1.528,3.189.854,4.823.854,4.823l31.525-.236-.127-1.176c-.216-2.049.546-4.136-.234-6.042a19.635,19.635,0,0,1-1.451-8.834c.4-5.251,1.972-8.836,1.008-11.883-1.47-4.648-6.325-15.217-12.19-19.732,0,0-4.625-.99-5.671-1.357-2.381-.834-3.64-1.283-5.5-1.076" transform="translate(-96.33 -81.044)" fill="#d2c1eb"/>
          <path id="Trazado_226847" data-name="Trazado 226847" d="M248.862,211.677l-26.933-5.623-.694-23.382s-.942-9.525-5.716-10.41L204.025,186.57c.642,7.212.057,20.857,3.371,26.119s6.537,9.48,14.7,9.106,26.148-.547,26.148-.547Z" transform="translate(-97.202 -82.069)" fill="#d2c1eb"/>
          <path id="Trazado_226848" data-name="Trazado 226848" d="M236.5,236.974c.064.051-.582.894-1.125,2.069s-.783,2.208-.863,2.192a6.833,6.833,0,0,1,1.988-4.26" transform="translate(-111.717 -112.898)" fill="#263238"/>
          <g id="Grupo_177596" data-name="Grupo 177596" transform="translate(123.847 99.604)" opacity="0.3">
            <g id="Grupo_177595" data-name="Grupo 177595">
              <g id="Grupo_177594" data-name="Grupo 177594" clip-path="url(#clip-path-8)">
                <path id="Trazado_226849" data-name="Trazado 226849" d="M236.54,190.236c2.69,8.266,2.106,21.01,7.236,25.708l-6.356-1.327a32.23,32.23,0,0,0,.053-4.49c-.515-6.535-.578-13.181-.933-19.891" transform="translate(-236.54 -190.236)"/>
              </g>
            </g>
          </g>
          <path id="Trazado_226850" data-name="Trazado 226850" d="M220.451,184.6a14.862,14.862,0,0,1,.472,1.876,22.824,22.824,0,0,1,.328,2.314c.088.92.1,1.982.147,3.172.153,4.771.372,11.619.64,19.966l-.087-.1,26.938,5.6.114.024-.008.116c-.2,3.063-.406,6.287-.618,9.572l-.008.126-.126,0-3.275.037c-4.681.058-9.251.129-13.663.225q-3.31.071-6.494.173a34.726,34.726,0,0,1-6.241-.065,13.553,13.553,0,0,1-2.928-.754,12.485,12.485,0,0,1-2.585-1.413,17.565,17.565,0,0,1-3.885-4.036q-.787-1.107-1.488-2.211l-.349-.549c-.109-.187-.206-.383-.309-.572l-.3-.569-.231-.593a22.66,22.66,0,0,1-1.2-4.673,73.2,73.2,0,0,1-.789-8.246c-.121-2.435-.175-4.534-.236-6.247s-.116-3.045-.162-3.946c-.027-.444-.049-.785-.063-1.025s-.013-.35-.013-.35.018.117.04.348.051.581.091,1.024c.064.9.143,2.231.214,3.945s.147,3.812.282,6.243a74.269,74.269,0,0,0,.826,8.223,22.563,22.563,0,0,0,1.208,4.627l.23.583.3.555c.1.185.2.374.3.559l.35.546q.7,1.1,1.487,2.2a17.376,17.376,0,0,0,3.842,3.974,12.252,12.252,0,0,0,2.536,1.379,13.333,13.333,0,0,0,2.876.734,34.67,34.67,0,0,0,6.2.053q3.184-.108,6.5-.18c4.414-.1,8.984-.172,13.666-.23l3.275-.037-.135.127c.214-3.285.424-6.508.623-9.572l.106.14-26.928-5.647-.084-.018,0-.086c-.228-8.348-.415-15.2-.546-19.968-.036-1.191-.04-2.252-.118-3.167s-.185-1.689-.3-2.311-.22-1.092-.3-1.408c-.037-.152-.066-.27-.087-.358a.716.716,0,0,1-.025-.122" transform="translate(-97.201 -87.949)" fill="#263238"/>
          <path id="Trazado_226851" data-name="Trazado 226851" d="M314.328,357.152l-4,29.46,10.461,1.715,7.442-26.14Z" transform="translate(-147.848 -170.154)" fill="#ffbe9d"/>
          <path id="Trazado_226852" data-name="Trazado 226852" d="M257.387,268.6s44.619-4.243,47.927-1.21,6.065,9.648,4.962,11.853-3.583,9.648-3.583,9.648l-20.551-4.686Z" transform="translate(-122.625 -126.87)" fill="#263238"/>
          <path id="Trazado_226853" data-name="Trazado 226853" d="M304.773,309.452l-8.279,12.631,9.744,6.313,10.569-16.2Z" transform="translate(-141.256 -147.429)" fill="#ffbe9d"/>
          <path id="Trazado_226854" data-name="Trazado 226854" d="M205.187,266.1s-3.859,17.642,2.481,24.809,15.713,7.167,25.361,5.789,32.552-1.857,32.552-1.857-1.022,6.263-1.769,13.391c-.75,7.146-.9,11.633-.9,11.633l14.339,1.2s7.988-24.316,9.218-29.131.814-11.284-3.436-13.684c-3.6-2.034-32-9.909-45.6-11.079l-1.477-1.268Z" transform="translate(-97.201 -126.677)" fill="#263238"/>
          <path id="Trazado_226855" data-name="Trazado 226855" d="M328.545,309.98c.008.05-.555.128-1.406.433a9.1,9.1,0,0,0-1.434.666,9.146,9.146,0,0,0-2.854,2.573,9.139,9.139,0,0,0-.81,1.358c-.391.814-.526,1.366-.575,1.353a1.137,1.137,0,0,1,.058-.4,5.835,5.835,0,0,1,.341-1.037,7.958,7.958,0,0,1,.78-1.424,8.548,8.548,0,0,1,2.936-2.648,7.961,7.961,0,0,1,1.5-.629,5.84,5.84,0,0,1,1.066-.233,1.137,1.137,0,0,1,.4-.017" transform="translate(-153.151 -147.676)" fill="#455a64"/>
          <path id="Trazado_226856" data-name="Trazado 226856" d="M331.729,279.457a6.582,6.582,0,0,1,1.859-2.73,22.091,22.091,0,0,1-1.859,2.73" transform="translate(-158.039 -131.837)" fill="#455a64"/>
          <path id="Trazado_226857" data-name="Trazado 226857" d="M317.47,286.308a.559.559,0,0,1-.042-.137c-.025-.107-.057-.241-.1-.408-.085-.358-.218-.885-.431-1.549a11.781,11.781,0,0,0-1.019-2.318,5.785,5.785,0,0,0-2.313-2.327,63.441,63.441,0,0,0-8.264-2.937c-3.171-.948-6.668-1.953-10.359-2.929-7.384-1.961-14.161-3.365-19.1-4.183-2.468-.417-4.473-.7-5.859-.9l-1.6-.217-.415-.063a.072.072,0,1,1,0-.028l.418.036,1.6.167c1.391.161,3.4.417,5.877.81a193.8,193.8,0,0,1,19.137,4.11c3.7.977,7.194,1.991,10.362,2.953a61.15,61.15,0,0,1,8.278,3,5.908,5.908,0,0,1,2.358,2.423,11.44,11.44,0,0,1,.988,2.362,15.961,15.961,0,0,1,.384,1.57c.029.169.052.305.071.414a.562.562,0,0,1,.015.142" transform="translate(-127.602 -127.829)" fill="#455a64"/>
          <path id="Trazado_226858" data-name="Trazado 226858" d="M318.448,409.544l.349-1.277a19.9,19.9,0,0,1-11.545-4.976l-3.544,7.662,23.637,10.51c.893-2.26-8.9-11.919-8.9-11.919" transform="translate(-144.692 -192.136)" fill="#d2c1eb"/>
          <path id="Trazado_226859" data-name="Trazado 226859" d="M303.707,416.222l.866-1.872,22.385,10.8s.844.914.386,1.583Z" transform="translate(-144.692 -197.405)" fill="#e0e0e0"/>
          <path id="Trazado_226860" data-name="Trazado 226860" d="M328.753,414.555c-.057.111-.658-.095-1.395.014-.74.09-1.261.447-1.347.355-.1-.069.391-.664,1.286-.781s1.529.32,1.456.412" transform="translate(-155.313 -197.296)" fill="#263238"/>
          <path id="Trazado_226861" data-name="Trazado 226861" d="M312.51,412.518a.69.69,0,0,1-.909.313.656.656,0,0,1-.321-.886.69.69,0,0,1,.909-.313.657.657,0,0,1,.321.886" transform="translate(-148.268 -196.079)" fill="#e0e0e0"/>
          <path id="Trazado_226862" data-name="Trazado 226862" d="M328.827,412.466a1.556,1.556,0,0,1-.536-.1,2.879,2.879,0,0,1-1.327-.707,1.973,1.973,0,0,1-.309-.407,1.238,1.238,0,0,1-.2-.544.583.583,0,0,1,.371-.584.9.9,0,0,1,.716.033,2.64,2.64,0,0,1,1.462,2.306l-.349-.05a2.813,2.813,0,0,1,.233-.53,2.909,2.909,0,0,1,2.562-1.449.89.89,0,0,1,.4.078.505.505,0,0,1,.268.35.91.91,0,0,1-.17.683,2.121,2.121,0,0,1-.906.727,3.661,3.661,0,0,1-1.623.242,2.106,2.106,0,0,1-.592-.049,1.83,1.83,0,0,1,.588-.086,3.993,3.993,0,0,0,1.516-.329,1.893,1.893,0,0,0,.766-.66.639.639,0,0,0,.114-.461c-.029-.132-.141-.176-.36-.173a2.606,2.606,0,0,0-2.248,1.3,2.52,2.52,0,0,0-.206.464.179.179,0,0,1-.349-.05,2.355,2.355,0,0,0-1.239-2.025c-.32-.172-.694-.024-.666.254a1.585,1.585,0,0,0,.4.8,3.051,3.051,0,0,0,1.19.744,1.914,1.914,0,0,1,.492.22" transform="translate(-155.529 -195.364)" fill="#263238"/>
          <path id="Trazado_226863" data-name="Trazado 226863" d="M331.991,417.867a4.536,4.536,0,0,0-3,.745,2.465,2.465,0,0,1,3-.745" transform="translate(-156.737 -198.967)" fill="#263238"/>
          <path id="Trazado_226864" data-name="Trazado 226864" d="M334.779,420.85c-.007.08-.647.061-1.385.284s-1.267.58-1.316.516a2.72,2.72,0,0,1,2.7-.8" transform="translate(-158.207 -200.45)" fill="#263238"/>
          <path id="Trazado_226865" data-name="Trazado 226865" d="M305.205,335.591l.559-1.2a19.9,19.9,0,0,1-10.543-6.849l-4.784,6.956,21.531,14.339c1.26-2.077-6.763-13.247-6.763-13.247" transform="translate(-138.37 -156.048)" fill="#d2c1eb"/>
          <path id="Trazado_226866" data-name="Trazado 226866" d="M290.438,339.282l1.169-1.7L311.854,352s.677,1.042.114,1.625Z" transform="translate(-138.371 -160.831)" fill="#e0e0e0"/>
          <path id="Trazado_226867" data-name="Trazado 226867" d="M315.574,341.941c-.074.1-.632-.2-1.377-.221-.745-.036-1.319.228-1.388.123-.083-.084.5-.589,1.4-.553s1.453.573,1.365.651" transform="translate(-149.025 -162.596)" fill="#263238"/>
          <path id="Trazado_226868" data-name="Trazado 226868" d="M299.916,337.076a.69.69,0,0,1-.949.155.657.657,0,0,1-.168-.927.69.69,0,0,1,.949-.155.657.657,0,0,1,.168.927" transform="translate(-142.295 -160.089)" fill="#e0e0e0"/>
          <path id="Trazado_226869" data-name="Trazado 226869" d="M316.02,339.769a1.544,1.544,0,0,1-.512-.187,2.876,2.876,0,0,1-1.189-.921,1.968,1.968,0,0,1-.237-.453,1.244,1.244,0,0,1-.1-.57.583.583,0,0,1,.464-.513.9.9,0,0,1,.7.152,2.64,2.64,0,0,1,1.052,2.52l-.335-.108a2.852,2.852,0,0,1,.319-.483,2.911,2.911,0,0,1,2.77-1,.9.9,0,0,1,.379.143.507.507,0,0,1,.205.39.909.909,0,0,1-.283.644,2.117,2.117,0,0,1-1.015.564,3.672,3.672,0,0,1-1.64-.034,2.126,2.126,0,0,1-.575-.148,1.835,1.835,0,0,1,.594.014,3.989,3.989,0,0,0,1.55-.069,1.894,1.894,0,0,0,.865-.521.639.639,0,0,0,.191-.436c-.007-.135-.11-.2-.326-.231a2.608,2.608,0,0,0-2.435.9,2.555,2.555,0,0,0-.281.423.179.179,0,0,1-.239.075.176.176,0,0,1-.1-.184,2.356,2.356,0,0,0-.881-2.2c-.286-.223-.68-.14-.7.138a1.585,1.585,0,0,0,.26.861,3.048,3.048,0,0,0,1.047.933c.295.179.46.279.448.3" transform="translate(-149.585 -160.604)" fill="#263238"/>
          <path id="Trazado_226870" data-name="Trazado 226870" d="M318.179,345.81a4.53,4.53,0,0,0-3.079.23,2.464,2.464,0,0,1,3.079-.23" transform="translate(-150.119 -164.544)" fill="#263238"/>
          <path id="Trazado_226871" data-name="Trazado 226871" d="M320.436,349.229c-.02.078-.648-.049-1.413.047s-1.347.358-1.385.287a2.719,2.719,0,0,1,2.8-.334" transform="translate(-151.329 -166.262)" fill="#263238"/>
        </g>
      </g>
      <g id="Grupo_177600" data-name="Grupo 177600">
        <g id="Grupo_177599" data-name="Grupo 177599" clip-path="url(#clip-path)">
          <path id="Trazado_226872" data-name="Trazado 226872" d="M100.422,116.133,87.956,104.655V60.373H.261v84.288h87.7V116.133Z" transform="translate(-0.124 -28.763)" fill="#fff"/>
          <rect id="Rectángulo_57229" data-name="Rectángulo 57229" width="87.696" height="6.313" transform="translate(0.137 31.61)" fill="#f5f5f5"/>
          <path id="Trazado_226873" data-name="Trazado 226873" d="M.307,195.774v13.4h87.67v-13.4Z" transform="translate(-0.146 -93.271)" fill="#ebebeb"/>
          <path id="Trazado_226874" data-name="Trazado 226874" d="M21.8,65.764a1.18,1.18,0,1,1-1.18-1.18,1.18,1.18,0,0,1,1.18,1.18" transform="translate(-9.264 -30.769)" fill="#fff"/>
          <path id="Trazado_226875" data-name="Trazado 226875" d="M8.147,65.764a1.18,1.18,0,1,1-1.18-1.18,1.18,1.18,0,0,1,1.18,1.18" transform="translate(-2.757 -30.769)" fill="#fff"/>
          <path id="Trazado_226876" data-name="Trazado 226876" d="M14.975,65.764a1.18,1.18,0,1,1-1.18-1.18,1.18,1.18,0,0,1,1.18,1.18" transform="translate(-6.01 -30.769)" fill="#fff"/>
          <path id="Trazado_226877" data-name="Trazado 226877" d="M146.42,90.448h0a5.559,5.559,0,1,1,5.559-5.559,5.559,5.559,0,0,1-5.559,5.559" transform="translate(-67.109 -37.794)" fill="#ebebeb"/>
          <path id="Trazado_226878" data-name="Trazado 226878" d="M149.44,88.448a.887.887,0,1,0-.538-.006,1.545,1.545,0,0,0-1.3,1.524H150.7a1.546,1.546,0,0,0-1.259-1.518" transform="translate(-70.323 -41.313)" fill="#263238"/>
          <path id="Trazado_226879" data-name="Trazado 226879" d="M154.3,89a.128.128,0,0,1-.128-.128V87.451a.128.128,0,1,1,.256,0v1.423A.128.128,0,0,1,154.3,89" transform="translate(-73.453 -41.602)" fill="#263238"/>
          <path id="Trazado_226880" data-name="Trazado 226880" d="M154.368,88.938h-1.423a.127.127,0,1,1,0-.255h1.423a.127.127,0,1,1,0,.255" transform="translate(-72.805 -42.25)" fill="#263238"/>
          <path id="Trazado_226881" data-name="Trazado 226881" d="M114.219,204.1a4.164,4.164,0,1,1-4.164-4.164,4.164,4.164,0,0,1,4.164,4.164" transform="translate(-50.449 -95.255)" fill="#12263f"/>
          <path id="Trazado_226882" data-name="Trazado 226882" d="M112.4,208.164h-.733a.672.672,0,0,1-.672-.672v-.733a.672.672,0,0,1,.672-.672h.733a.672.672,0,0,1,.672.672v.733a.672.672,0,0,1-.672.672" transform="translate(-52.878 -98.184)" fill="#fff"/>
          <path id="Trazado_226883" data-name="Trazado 226883" d="M115.32,207.589v-.7l.525-.563a.113.113,0,0,1,.2.077V208a.113.113,0,0,1-.19.083Z" transform="translate(-54.941 -98.279)" fill="#fff"/>
          <path id="Trazado_226884" data-name="Trazado 226884" d="M83.26,207.171a4.105,4.105,0,1,1,5.805,0,4.1,4.1,0,0,1-5.805,0" transform="translate(-39.094 -95.362)" fill="#eeac3a"/>
          <path id="Trazado_226885" data-name="Trazado 226885" d="M86.181,208.008l.732-.172a.2.2,0,0,0,.154-.195v-.151s-.031-.257.21-.272c.173-.012,1.274,0,1.274,0s.29-.006.285.223v.219a.171.171,0,0,0,.121.164l.794.24a.172.172,0,0,0,.208-.1l.1-.245a.32.32,0,0,0,.025-.141.687.687,0,0,0-.136-.367,3,3,0,0,0-2.315-.61c-1.348.065-1.642.634-1.719.769a.578.578,0,0,0-.026.379c.014.032.037.087.059.14a.2.2,0,0,0,.23.118" transform="translate(-40.911 -98.426)" fill="#fff"/>
          <path id="Trazado_226886" data-name="Trazado 226886" d="M66.325,204.2a4.128,4.128,0,1,1-4.128-4.128,4.128,4.128,0,0,1,4.128,4.128" transform="translate(-27.666 -95.321)" fill="#43a99b"/>
          <path id="Trazado_226887" data-name="Trazado 226887" d="M63.08,208a.407.407,0,1,1,.407-.407.407.407,0,0,1-.407.407" transform="translate(-29.859 -98.707)" fill="#fff"/>
          <path id="Trazado_226888" data-name="Trazado 226888" d="M65.5,208a.407.407,0,1,1,.407-.407A.407.407,0,0,1,65.5,208" transform="translate(-31.011 -98.707)" fill="#fff"/>
          <path id="Trazado_226889" data-name="Trazado 226889" d="M68.086,208a.407.407,0,1,1,.407-.407.407.407,0,0,1-.407.407" transform="translate(-32.244 -98.707)" fill="#fff"/>
          <path id="Trazado_226890" data-name="Trazado 226890" d="M13.382,86.874A2.671,2.671,0,1,1,10.711,84.2a2.671,2.671,0,0,1,2.671,2.671" transform="translate(-3.83 -40.116)" fill="#455a64"/>
          <path id="Trazado_226891" data-name="Trazado 226891" d="M37.2,88.354c0,.075-3.332.136-7.44.136s-7.441-.061-7.441-.136,3.331-.136,7.441-.136,7.44.061,7.44.136" transform="translate(-10.635 -42.029)" fill="#455a64"/>
          <path id="Trazado_226892" data-name="Trazado 226892" d="M100.3,116.011l-12.466.05.05-.05c.008,6.838.021,16.544.037,28.528v.086h-.086l-87.7.044H.083l-.038-.039-.038-.038v-.054C0,128.247,0,110.584,0,92.288,0,81.347,0,70.633,0,60.251v-.134H.137l87.7.032h.1v.1c-.019,18.689-.035,33.842-.045,44.281l-.018-.042L100.3,116.011l-12.5-11.437-.018-.017v-.025c-.01-10.44-.026-25.592-.045-44.281l.1.1-87.7.032.134-.134c0,10.382,0,21.1,0,32.037,0,18.3,0,35.959-.006,52.252l-.038-.092-.092-.038,87.7.044-.086.086c.015-11.984.028-21.69.037-28.528v-.05h.049l12.466.049" transform="translate(0 -28.641)" fill="#263238"/>
          <path id="Trazado_226893" data-name="Trazado 226893" d="M71.122,99.006l1.672,22.012c.284,3.743,1.467,9.184,7.365,8.464,5.07-1.01,6-5.977,5.731-9.469-.128-1.657-.231-3.039-.232-3.21,0,0,5.564-.953,5.547-6.53-.008-2.7-.477-8.245-.959-13.261a10.387,10.387,0,0,0-10.5-9.386l-.538.008c-5.8.428-8.67,5.59-8.082,11.372" transform="translate(-33.848 -41.747)" fill="#ffd5bd"/>
          <path id="Trazado_226894" data-name="Trazado 226894" d="M92.323,141.421a12.965,12.965,0,0,1-7.3-1.955s1.78,3.987,7.336,3.4Z" transform="translate(-40.506 -66.444)" fill="#ffb294"/>
          <path id="Trazado_226895" data-name="Trazado 226895" d="M102.874,110.6c-.094.117-.883-.049-1.876.234s-1.635.838-1.764.782c-.062-.023.017-.208.294-.46a3.546,3.546,0,0,1,1.386-.73,3.241,3.241,0,0,1,1.519-.081c.346.078.487.2.44.256" transform="translate(-47.268 -52.544)" fill="#263238"/>
          <path id="Trazado_226896" data-name="Trazado 226896" d="M86.448,111.923c-.135.062-.767-.429-1.778-.615s-1.828.019-1.919-.085c-.045-.047.107-.175.465-.275a3.579,3.579,0,0,1,1.559-.035,3.267,3.267,0,0,1,1.392.593c.274.22.346.39.281.417" transform="translate(-39.421 -52.809)" fill="#263238"/>
          <path id="Trazado_226897" data-name="Trazado 226897" d="M89.179,115.231a.615.615,0,0,1-.583.629.588.588,0,0,1-.642-.545.615.615,0,0,1,.583-.63.588.588,0,0,1,.643.545" transform="translate(-41.902 -54.638)" fill="#263238"/>
          <path id="Trazado_226898" data-name="Trazado 226898" d="M104.685,114.106a.615.615,0,0,1-.583.629.588.588,0,0,1-.642-.545.615.615,0,0,1,.583-.63.588.588,0,0,1,.643.545" transform="translate(-49.29 -54.102)" fill="#263238"/>
          <path id="Trazado_226899" data-name="Trazado 226899" d="M95.085,116.923a5.671,5.671,0,0,1,1.388-.272c.218-.026.425-.073.459-.223a1.112,1.112,0,0,0-.156-.646l-.673-1.657a28.582,28.582,0,0,1-1.52-4.336,28.747,28.747,0,0,1,1.866,4.2q.338.873.646,1.667a1.267,1.267,0,0,1,.127.857.549.549,0,0,1-.355.325,1.492,1.492,0,0,1-.371.058,5.562,5.562,0,0,1-1.411.024" transform="translate(-45.058 -52.306)" fill="#263238"/>
          <path id="Trazado_226900" data-name="Trazado 226900" d="M85.547,104.381c-.071.214-.828.125-1.713.249-.887.106-1.6.385-1.719.2-.054-.091.068-.292.354-.5a2.821,2.821,0,0,1,1.269-.481,2.792,2.792,0,0,1,1.345.142c.327.13.494.295.463.4" transform="translate(-39.116 -49.461)" fill="#263238"/>
          <path id="Trazado_226901" data-name="Trazado 226901" d="M102.683,106.168c-.082.176-.823.054-1.7.1-.881.035-1.6.227-1.705.06-.048-.08.083-.243.378-.4a3.073,3.073,0,0,1,1.278-.329,3.17,3.17,0,0,1,1.318.2c.315.13.47.28.434.364" transform="translate(-47.292 -50.308)" fill="#263238"/>
          <path id="Trazado_226902" data-name="Trazado 226902" d="M68.837,117.091c-.1-.04-3.849-1.074-3.668,2.736s3.968,2.843,3.97,2.734-.3-5.469-.3-5.469" transform="translate(-31.045 -55.71)" fill="#ffd5bd"/>
          <path id="Trazado_226903" data-name="Trazado 226903" d="M68.793,122.315c-.017-.012-.064.05-.174.106a.664.664,0,0,1-.5.034,1.645,1.645,0,0,1-.83-1.438,2.209,2.209,0,0,1,.141-.959.767.767,0,0,1,.475-.533.338.338,0,0,1,.4.163c.057.1.036.181.057.187s.079-.068.04-.224a.424.424,0,0,0-.161-.232.5.5,0,0,0-.371-.08.934.934,0,0,0-.665.624,2.254,2.254,0,0,0-.18,1.073,1.726,1.726,0,0,0,1.046,1.6.712.712,0,0,0,.6-.13c.114-.1.13-.186.116-.192" transform="translate(-31.931 -56.853)" fill="#ffb294"/>
          <path id="Trazado_226904" data-name="Trazado 226904" d="M92.264,126.521c.033-.1-.73-.257-1.315-.908a4.3,4.3,0,0,1-.613-.945c-.135-.266-.234-.431-.274-.415s-.012.2.076.5a2.809,2.809,0,0,0,.587,1.067,2.281,2.281,0,0,0,1.035.657c.3.092.5.082.5.048" transform="translate(-42.899 -59.196)" fill="#263238"/>
          <path id="Trazado_226905" data-name="Trazado 226905" d="M92.418,88.284a.9.9,0,0,0-.468-.486,2.768,2.768,0,0,0-1.435-.1,8.028,8.028,0,0,1-4.274-.9A18.674,18.674,0,0,0,84.1,84.62,14.154,14.154,0,0,0,79.3,81.535a12.9,12.9,0,0,0-6.91.067,5.215,5.215,0,0,0-3.566,4.388,4.01,4.01,0,0,0-4.05-.021l-.035-.012c-1.418.652-2.114,2.273-2.414,3.805a18.658,18.658,0,0,1-1.016,4.555c-.14.295-.307.648-.137.926a.62.62,0,0,0,.672.224A1.823,1.823,0,0,0,62.5,95.1l-.386,1.217a3.473,3.473,0,0,0,1.584-.247,34.179,34.179,0,0,0,1.391,3.847,2.263,2.263,0,0,1,1.584.245c.554.416.86,1.263,1.684.859.419-.206.735-1.152.84-1.607a21.691,21.691,0,0,0,.127-9.227,6.974,6.974,0,0,1,2.007-1.737l-.061.065c1.5-.674,3.2-1.358,4.735-.761,1.188.463,1.962,1.585,2.9,2.452a8.727,8.727,0,0,0,6.447,2.313c.22,1.551.284,3.766.5,5.317l1.091-2.613,0,.013c.091-.192.164-.384.233-.577L87.2,94.6v-.007a9.755,9.755,0,0,1,.36-.925l.016.012a.977.977,0,0,0,1.307-1.428,2.18,2.18,0,0,0-.513-.431,1.548,1.548,0,0,0,1.5.251,1.213,1.213,0,0,0,.749-1.271,1.032,1.032,0,0,0-.685-.77,3.486,3.486,0,0,0,1.936-.61c.37-.257.72-.657.545-1.135" transform="translate(-29.11 -38.636)" fill="#263238"/>
          <path id="Trazado_226906" data-name="Trazado 226906" d="M72.621,91.362a4.764,4.764,0,0,0-.51.557,3.987,3.987,0,0,0-.687,1.914,7.027,7.027,0,0,0-.017,1.419c.043.51.132,1.052.222,1.625a14.544,14.544,0,0,1,.2,1.812,6.43,6.43,0,0,1-.04.969,2.009,2.009,0,0,1-.308.964.84.84,0,0,1-.759.332,1.252,1.252,0,0,1-.738-.335,2.882,2.882,0,0,1-.658-1.361l.117,0a4.66,4.66,0,0,1-.571,1.22,1.655,1.655,0,0,1-1.025.682,1.069,1.069,0,0,1-.58-.049.928.928,0,0,1-.422-.348.955.955,0,0,1-.161-.481.69.69,0,0,1,.14-.447l.063.047a3.589,3.589,0,0,1-1.111,1,3.239,3.239,0,0,1-.356.176.576.576,0,0,1-.129.044.722.722,0,0,1,.12-.064c.079-.041.2-.1.343-.193a3.686,3.686,0,0,0,1.068-1.007l.063.047a.714.714,0,0,0,.036.826.83.83,0,0,0,.381.307.973.973,0,0,0,.525.039,1.551,1.551,0,0,0,.95-.646,4.584,4.584,0,0,0,.549-1.193l.064-.184.053.189a2.789,2.789,0,0,0,.627,1.3,1.119,1.119,0,0,0,.661.3.707.707,0,0,0,.645-.281,1.9,1.9,0,0,0,.284-.9,6.371,6.371,0,0,0,.041-.949,14.852,14.852,0,0,0-.193-1.8c-.086-.572-.172-1.117-.211-1.635a6.973,6.973,0,0,1,.033-1.439,3.935,3.935,0,0,1,.738-1.933,2.262,2.262,0,0,1,.551-.527" transform="translate(-31.107 -43.527)" fill="#455a64"/>
          <path id="Trazado_226907" data-name="Trazado 226907" d="M97.024,92.14s-.013.016-.041.042l-.13.113a1.774,1.774,0,0,1-.221.171,2.966,2.966,0,0,1-.321.207,4.927,4.927,0,0,1-2.333.636,6.3,6.3,0,0,1-3.451-.938,10.907,10.907,0,0,1-3.163-3.055c-.462-.635-.851-1.293-1.269-1.9a7.371,7.371,0,0,0-1.386-1.576,3.793,3.793,0,0,0-1.681-.827,2.722,2.722,0,0,0-.85-.023,2.987,2.987,0,0,0-.757.216,3.213,3.213,0,0,0-1.646,1.663,3.859,3.859,0,0,0-.213.856.217.217,0,0,1,0-.059c0-.047.007-.1.011-.172a2.815,2.815,0,0,1,.155-.644,3.175,3.175,0,0,1,.546-.895,3.261,3.261,0,0,1,1.11-.834,3.093,3.093,0,0,1,.781-.231,2.8,2.8,0,0,1,.883.016,3.886,3.886,0,0,1,1.737.84,7.426,7.426,0,0,1,1.416,1.6c.423.607.812,1.263,1.27,1.892a10.916,10.916,0,0,0,3.12,3.028,6.259,6.259,0,0,0,3.387.949,5,5,0,0,0,2.31-.588,7.838,7.838,0,0,0,.738-.489" transform="translate(-37.904 -40.433)" fill="#455a64"/>
          <path id="Trazado_226908" data-name="Trazado 226908" d="M108.141,94.024a.874.874,0,0,1-.186.156,4.3,4.3,0,0,1-.561.35,5.687,5.687,0,0,1-.9.388,6.045,6.045,0,0,1-2.382.288,5.743,5.743,0,0,1-.97-.161,4.356,4.356,0,0,1-.629-.207.916.916,0,0,1-.218-.107c.009-.023.329.107.868.224a6.608,6.608,0,0,0,.958.131,6.477,6.477,0,0,0,2.337-.282,6.563,6.563,0,0,0,.9-.356c.5-.242.775-.445.79-.425" transform="translate(-48.733 -44.794)" fill="#455a64"/>
          <path id="Trazado_226909" data-name="Trazado 226909" d="M54.807,146.956l-6.719,2.805a23.159,23.159,0,0,0-10.316,8.34c-.6.887-2.506,7.734-2.645,8.3-.555,2.25-1.465,6.119-1.465,6.119H87.037s-1.578-15.251-5.38-18.2c-2.468-1.913-13.768-7.13-13.768-7.13a4.983,4.983,0,0,1-4.575,2.878,12.275,12.275,0,0,1-8.508-3.111" transform="translate(-16.037 -70.013)" fill="#455a64"/>
        </g>
      </g>
    </g>
    <path id="Trazado_226910" data-name="Trazado 226910" d="M606.752,48.5l-8.118-30.759a3.148,3.148,0,0,0-1.557-2l-13.3-7.194a3.149,3.149,0,0,0-4.125,1.034l-8.336,12.619a3.149,3.149,0,0,0-.427,2.5L579,55.454a3.149,3.149,0,0,0,3.82,2.288l21.639-5.425a3.149,3.149,0,0,0,2.289-3.82M584.339,19.183a2.957,2.957,0,1,1,2.385-3.435,2.956,2.956,0,0,1-2.385,3.435" transform="translate(-476.353 -8.161)" fill="#e0e0e0"/>
    <path id="Trazado_226911" data-name="Trazado 226911" d="M606.752,48.5l-8.118-30.759a3.148,3.148,0,0,0-1.557-2l-13.3-7.194a3.149,3.149,0,0,0-4.125,1.034l-8.336,12.619a3.149,3.149,0,0,0-.427,2.5L579,55.454a3.149,3.149,0,0,0,3.82,2.288l21.639-5.425a3.149,3.149,0,0,0,2.289-3.82M584.339,19.183a2.957,2.957,0,1,1,2.385-3.435,2.956,2.956,0,0,1-2.385,3.435" transform="translate(-270.988 118.123)" fill="#e0e0e0"/>
    <path id="Trazado_226912" data-name="Trazado 226912" d="M606.752,48.5l-8.118-30.759a3.148,3.148,0,0,0-1.557-2l-13.3-7.194a3.149,3.149,0,0,0-4.125,1.034l-8.336,12.619a3.149,3.149,0,0,0-.427,2.5L579,55.454a3.149,3.149,0,0,0,3.82,2.288l21.639-5.425a3.149,3.149,0,0,0,2.289-3.82M584.339,19.183a2.957,2.957,0,1,1,2.385-3.435,2.956,2.956,0,0,1-2.385,3.435" transform="translate(-570.79 118.123)" fill="#e0e0e0"/>
    <path id="Trazado_226913" data-name="Trazado 226913" d="M583.334,52.636c-.794-3,.61-5.31,3.164-5.986,2.578-.683,4.942.628,5.737,3.628.8,3.026-.61,5.31-3.189,5.992-2.554.676-4.912-.61-5.713-3.635m5.9-1.562c-.466-1.761-1.27-2.291-2.113-2.068-.793.21-1.279,1.081-.813,2.842s1.32,2.277,2.113,2.067c.843-.223,1.279-1.081.813-2.841m7.587-6.919,3.57-.945-7.256,20.5-3.571.945Zm.927,13.42c-.795-3,.586-5.3,3.164-5.985s4.943.628,5.737,3.628c.8,3.025-.61,5.31-3.189,5.992s-4.911-.61-5.712-3.635m5.9-1.563c-.466-1.76-1.295-2.283-2.113-2.067s-1.279,1.082-.813,2.842,1.3,2.284,2.113,2.068,1.279-1.082.813-2.842" transform="translate(-482.474 -25.573)" fill="#fff"/>
    <path id="Trazado_226914" data-name="Trazado 226914" d="M583.334,52.636c-.794-3,.61-5.31,3.164-5.986,2.578-.683,4.942.628,5.737,3.628.8,3.026-.61,5.31-3.189,5.992-2.554.676-4.912-.61-5.713-3.635m5.9-1.562c-.466-1.761-1.27-2.291-2.113-2.068-.793.21-1.279,1.081-.813,2.842s1.32,2.277,2.113,2.067c.843-.223,1.279-1.081.813-2.841m7.587-6.919,3.57-.945-7.256,20.5-3.571.945Zm.927,13.42c-.795-3,.586-5.3,3.164-5.985s4.943.628,5.737,3.628c.8,3.025-.61,5.31-3.189,5.992s-4.911-.61-5.712-3.635m5.9-1.563c-.466-1.76-1.295-2.283-2.113-2.067s-1.279,1.082-.813,2.842,1.3,2.284,2.113,2.068,1.279-1.082.813-2.842" transform="translate(-277.109 100.71)" fill="#fff"/>
    <path id="Trazado_226915" data-name="Trazado 226915" d="M583.334,52.636c-.794-3,.61-5.31,3.164-5.986,2.578-.683,4.942.628,5.737,3.628.8,3.026-.61,5.31-3.189,5.992-2.554.676-4.912-.61-5.713-3.635m5.9-1.562c-.466-1.761-1.27-2.291-2.113-2.068-.793.21-1.279,1.081-.813,2.842s1.32,2.277,2.113,2.067c.843-.223,1.279-1.081.813-2.841m7.587-6.919,3.57-.945-7.256,20.5-3.571.945Zm.927,13.42c-.795-3,.586-5.3,3.164-5.985s4.943.628,5.737,3.628c.8,3.025-.61,5.31-3.189,5.992s-4.911-.61-5.712-3.635m5.9-1.563c-.466-1.76-1.295-2.283-2.113-2.067s-1.279,1.082-.813,2.842,1.3,2.284,2.113,2.068,1.279-1.082.813-2.842" transform="translate(-576.912 100.71)" fill="#fff"/>
  </g>
</svg>
