<svg xmlns="http://www.w3.org/2000/svg" xmlns:xlink="http://www.w3.org/1999/xlink" width="283.142" height="234.78" viewBox="0 0 283.142 234.78">
  <defs>
    <linearGradient id="linear-gradient" x1="0.5" x2="0.5" y2="1" gradientUnits="objectBoundingBox">
      <stop offset="0" stop-color="#fff"/>
      <stop offset="1" stop-color="#d3d3d3"/>
    </linearGradient>
    <linearGradient id="linear-gradient-9" y1="0.5" x2="1" y2="0.5" gradientUnits="objectBoundingBox">
      <stop offset="0" stop-color="#ff928e"/>
      <stop offset="1" stop-color="#feb3b1"/>
    </linearGradient>
    <linearGradient id="linear-gradient-12" x1="294.087" y1="1.605" x2="296.088" y2="4.278" xlink:href="#linear-gradient-9"/>
    <linearGradient id="linear-gradient-13" x1="0.439" y1="-3.503" x2="0.505" y2="0.689" xlink:href="#linear-gradient-9"/>
    <linearGradient id="linear-gradient-14" x1="0.511" y1="0.146" x2="0.456" y2="1.705" xlink:href="#linear-gradient-9"/>
    <linearGradient id="linear-gradient-15" x1="-47.545" y1="17.427" x2="-48.867" y2="15.942" xlink:href="#linear-gradient-9"/>
    <linearGradient id="linear-gradient-16" x1="-155.484" y1="82.575" x2="-159.791" y2="75.375" xlink:href="#linear-gradient-9"/>
    <linearGradient id="linear-gradient-17" x1="1.66" y1="1.186" x2="0.085" y2="0.256" xlink:href="#linear-gradient-9"/>
    <linearGradient id="linear-gradient-18" x1="0.892" y1="0.928" x2="-0.916" y2="-1.638" xlink:href="#linear-gradient-9"/>
  </defs>
  <g id="Grupo_182907" data-name="Grupo 182907" transform="translate(-756.929 -275.695)">
    <g id="Grupo_47036" data-name="Grupo 47036" transform="translate(792.945 321.627)">
      <path id="Trazado_97779" data-name="Trazado 97779" d="M1515.693,555.137s15.357-11.33,43.1,4.11c0,0,14.353,5.457,17.642,19.429a25.284,25.284,0,0,0,4.906,10.133,31.64,31.64,0,0,1,6.995,17.342,29.61,29.61,0,0,0,3.645,11.97c2.4,4.315,4.9,11.391,3.983,21.4,0,0,8.877,9.574,3.884,30.91a30.32,30.32,0,0,1-5.108,25.439s2.285,15.391-10.981,20.552c0,0-7,16.006-27.849,16.979a26.98,26.98,0,0,0-8.787,1.951c-3.969,1.594-11.1,3.147-21.34.454-16.644-4.376-14.973-14.476-14.973-14.476V557.592Z" transform="translate(-1421.066 -551.129)" fill="#d6f2f2"/>
      <path id="Trazado_97780" data-name="Trazado 97780" d="M1058.576,555.137s-15.357-11.33-43.1,4.11c0,0-15.036,5.717-17.856,20.429a18.223,18.223,0,0,1-4.093,8.412,31.675,31.675,0,0,0-7.684,19.566,18.871,18.871,0,0,1-2.862,9.287,34.256,34.256,0,0,0-4.867,17.831,18.8,18.8,0,0,1-2.01,8.181c-2.245,4.474-4.971,13.423-1.684,27.473A30.569,30.569,0,0,0,976.8,691.54a24.786,24.786,0,0,1,2.683,9.174c.367,4.155,1.923,10.045,7.372,13.785a26.15,26.15,0,0,1,6.156,5.98c3.477,4.674,10.9,11.838,24.166,12.843a39.778,39.778,0,0,1,10.656,2.285c4.079,1.49,10.978,2.738,20.658.193,16.643-4.376,14.973-14.476,14.973-14.476V557.592Z" transform="translate(-972.902 -551.129)" fill="#d6f2f2"/>
      <path id="Trazado_97781" data-name="Trazado 97781" d="M1235.974,1058.945c-7.412-.9-13.362-5.133-17.685-12.575l-.052-.089a7.6,7.6,0,0,1,2.585-10.208,6.544,6.544,0,0,0,1.691-1.458,34.544,34.544,0,0,1-16.5-2.63,24.794,24.794,0,0,1-8.883-6.712,15.679,15.679,0,0,0,4.906,8.98,17.133,17.133,0,0,0,6.439,3.145c2.233.491,3.18,2.705,4,4.81a42.751,42.751,0,0,0,2.761,5.766,32.036,32.036,0,0,0,6.856,8.416,19.848,19.848,0,0,0-9.341,8.386,18.408,18.408,0,0,0-2.265,6.408,27.682,27.682,0,0,1,5.79-7.088,17.961,17.961,0,0,1,12.737-4.44A30.488,30.488,0,0,0,1235.974,1058.945Z" transform="translate(-1159.735 -946.204)" fill="#12263f"/>
      <g id="Grupo_47029" data-name="Grupo 47029" transform="translate(27.068 110.482)">
        <path id="Trazado_97782" data-name="Trazado 97782" d="M1152.825,1237.9q-.575,0-1.153-.033a16.942,16.942,0,0,1-12.864-7c-5.007-6.659-3.866-12.717-2.028-16.626l.064-.136c.763-1.586,1.189,1.382,1.1,3.135-.2,3.759,2.767,9.564,6.453,12.708,4.268,3.64,11.18,3.558,16.449,3.734,1.973.066,3.637.2,1.877,1.376A18.99,18.99,0,0,1,1152.825,1237.9Z" transform="translate(-1135.217 -1213.651)" fill="#12263f"/>
      </g>
      <g id="Grupo_47030" data-name="Grupo 47030" transform="translate(14.03 135.773)">
        <path id="Trazado_97783" data-name="Trazado 97783" d="M1077,1384.172a3.89,3.89,0,0,1-5.111-1.359,84.249,84.249,0,0,0-14.854-17.5h0c.528.241,13.012,6.059,19.965,18.86Z" transform="translate(-1057.033 -1365.311)" fill="#12263f"/>
      </g>
      <path id="Trazado_97784" data-name="Trazado 97784" d="M1032.663,1104.76c1.5-2.852,5.432-3.914,8.482-4.3a42.891,42.891,0,0,1,8.714.177c-.478-.055-7.991-7-16.511-1.592-.535-5.124-6.839-7.362-6.839-7.362a19.065,19.065,0,0,1,1.92,3.423,12.334,12.334,0,0,1,1.071,7.2c-.522,2.466-2.217,4.523-5.037,6.112C1024.464,1108.417,1030.44,1109.586,1032.663,1104.76Z" transform="translate(-1015.865 -1001.54)" fill="#12263f"/>
      <path id="Trazado_97785" data-name="Trazado 97785" d="M1295.472,932.273c3.089-.915,6.593,1.165,9,3.082a42.894,42.894,0,0,1,5.948,6.372c-.293-.381-.556-10.607-10.37-12.947,3.3-3.956.51-10.036.51-10.036a19.071,19.071,0,0,1-1.115,3.763,12.335,12.335,0,0,1-4.414,5.787c-2.132,1.345-4.788,1.564-7.893.65C1287.135,928.944,1290.463,934.044,1295.472,932.273Z" transform="translate(-1234.733 -857.441)" fill="#12263f"/>
      <g id="Grupo_47034" data-name="Grupo 47034" transform="translate(103.27 36.897)">
        <path id="Trazado_97786" data-name="Trazado 97786" d="M1611.1,1003.536c8.029-.977,14.475-5.561,19.158-13.622l.056-.1a8.232,8.232,0,0,0-2.8-11.058,7.1,7.1,0,0,1-1.832-1.58,37.424,37.424,0,0,0,17.879-2.85,26.859,26.859,0,0,0,9.623-7.271,16.985,16.985,0,0,1-5.314,9.728,18.567,18.567,0,0,1-6.975,3.406c-2.419.532-3.445,2.931-4.338,5.211a46.29,46.29,0,0,1-2.991,6.247,34.7,34.7,0,0,1-7.427,9.117,21.5,21.5,0,0,1,10.119,9.085,19.94,19.94,0,0,1,2.453,6.941,29.988,29.988,0,0,0-6.272-7.679,19.457,19.457,0,0,0-13.8-4.809A33.03,33.03,0,0,1,1611.1,1003.536Z" transform="translate(-1607.945 -934.595)" fill="#12263f"/>
        <g id="Grupo_47031" data-name="Grupo 47031" transform="translate(21.577 73.585)">
          <path id="Trazado_97787" data-name="Trazado 97787" d="M1732.2,1237.9q.575,0,1.153-.033a16.942,16.942,0,0,0,12.864-7c5.007-6.659,3.866-12.717,2.028-16.626l-.065-.136c-.762-1.586-1.189,1.382-1.1,3.135.2,3.759-2.766,9.564-6.453,12.708-4.268,3.64-11.18,3.558-16.449,3.734-1.973.066-3.637.2-1.877,1.376A18.99,18.99,0,0,0,1732.2,1237.9Z" transform="translate(-1721.564 -1213.651)" fill="#12263f"/>
        </g>
        <g id="Grupo_47032" data-name="Grupo 47032" transform="translate(0 13.393)">
          <path id="Trazado_97788" data-name="Trazado 97788" d="M1600.915,874.4q.42-.147.833-.319a12.963,12.963,0,0,0,7.551-8.4c1.9-6.143-.522-10.275-2.893-12.66l-.083-.082c-.974-.964-.5,1.313.023,2.57,1.132,2.7.5,7.692-1.369,10.931-2.159,3.75-7.228,5.458-11.029,6.935-1.423.553-2.6,1.074-1.009,1.485A14.766,14.766,0,0,0,1600.915,874.4Z" transform="translate(-1592.176 -852.701)" fill="#12263f"/>
        </g>
        <g id="Grupo_47033" data-name="Grupo 47033" transform="translate(34.963 105.317)">
          <path id="Trazado_97789" data-name="Trazado 97789" d="M1801.839,1415.51a3.9,3.9,0,0,0,5.283.324,85.36,85.36,0,0,1,19.749-11.9h0c-.579.062-14.293,1.639-25.032,11.576Z" transform="translate(-1801.839 -1403.934)" fill="#12263f"/>
        </g>
        <path id="Trazado_97790" data-name="Trazado 97790" d="M1738.761,785.466c-1.5-2.853-5.432-3.914-8.482-4.3a42.9,42.9,0,0,0-8.714.178c.478-.055,7.991-7,16.511-1.592.535-5.124,6.839-7.362,6.839-7.362a19.092,19.092,0,0,0-1.92,3.423,12.338,12.338,0,0,0-1.072,7.2c.522,2.466,2.217,4.523,5.037,6.112C1746.961,789.122,1740.984,790.292,1738.761,785.466Z" transform="translate(-1699.988 -772.388)" fill="#12263f"/>
        <path id="Trazado_97791" data-name="Trazado 97791" d="M1866.618,1104.76c-1.5-2.852-5.432-3.914-8.482-4.3a42.892,42.892,0,0,0-8.715.177c.478-.055,7.991-7,16.511-1.592.535-5.124,6.839-7.362,6.839-7.362a19.056,19.056,0,0,0-1.92,3.423,12.334,12.334,0,0,0-1.072,7.2c.523,2.466,2.217,4.523,5.037,6.112C1874.818,1108.417,1868.842,1109.586,1866.618,1104.76Z" transform="translate(-1806.524 -1038.437)" fill="#12263f"/>
      </g>
      <g id="Grupo_47035" data-name="Grupo 47035" transform="translate(88.287 6.458)">
        <rect id="Rectángulo_28323" data-name="Rectángulo 28323" width="167.361" height="3.745" transform="translate(0 167.361) rotate(-89.865)" fill="url(#linear-gradient)"/>
      </g>
    </g>
    <g id="Grupo_47040" data-name="Grupo 47040" transform="translate(936.927 373.432)">
      <path id="Trazado_97792" data-name="Trazado 97792" d="M2098.164,1199.5s-.472-1.06-.777-1.562-1.609-1.973-1.831-1.64-1.11,2.574-.638,3.2-.03,1.72,2.316,2.38Z" transform="translate(-2042.694 -1167.428)" fill="#ffb27d"/>
      <path id="Trazado_97793" data-name="Trazado 97793" d="M2136.005,1175.6s-12.009,10.024-16.691,9.1a92.32,92.32,0,0,1-9.281-2.653l-1.124,2.875s5.04,6.836,10.294,6.881a29.929,29.929,0,0,0,14.281-3.556Z" transform="translate(-2054.465 -1150.225)" fill="#7d6eb2"/>
      <path id="Trazado_97794" data-name="Trazado 97794" d="M2328.667,1800.619s-.348,5.624-1.436,5.7c-.145.011-5.519.011-5.519.011l-6.859-.04a2.226,2.226,0,0,1,2.05-2c2-.349,5.361-1.758,6.576-4.409C2324.756,1797.1,2328.667,1800.619,2328.667,1800.619Z" transform="translate(-2226.066 -1669.509)" fill="#b54273"/>
      <path id="Trazado_97795" data-name="Trazado 97795" d="M2283.783,1465.091a14.3,14.3,0,0,1-3.713.7,13.631,13.631,0,0,1-3.467-.495,94.953,94.953,0,0,0-2.553-12.162c-1.133-4.385-2.75-10.022-5.052-17.027-6.363-19.361-8.3-30.687-8.474-31.76-.01-.056-.013-.084-.013-.084l.021-.01,19.562-8.589s-2.418,26.683.667,36.925a43.233,43.233,0,0,1,1.12,4.907C2283.829,1448.62,2283.783,1465.091,2283.783,1465.091Z" transform="translate(-2180.787 -1333.59)" fill="#00223d"/>
      <path id="Trazado_97796" data-name="Trazado 97796" d="M2274.117,1453.132c-1.133-4.385-2.75-10.022-5.052-17.027-6.363-19.361-8.3-30.687-8.474-31.76,0-.032,0-.062.007-.094l19.562-8.589s-2.418,26.683.667,36.925C2281.259,1434.02,2274.117,1453.132,2274.117,1453.132Z" transform="translate(-2180.853 -1333.59)" fill="#073458"/>
      <path id="Trazado_97797" data-name="Trazado 97797" d="M2237.047,1800.619s-.349,5.624-1.437,5.7c-.145.011-5.518.011-5.518.011l-6.86-.04a2.226,2.226,0,0,1,2.05-2c2.005-.349,5.361-1.758,6.576-4.409C2233.135,1797.1,2237.047,1800.619,2237.047,1800.619Z" transform="translate(-2149.724 -1669.509)" fill="#b54273"/>
      <path id="Trazado_97798" data-name="Trazado 97798" d="M2239.539,1399.434a278.527,278.527,0,0,0,2.738,38.521c2.992,21.23,1.978,30.242,1.978,30.242a20.382,20.382,0,0,0,2.885.734,13.087,13.087,0,0,0,4.281-.5s4.282-21.238,3.054-31.865,5.864-36.464,5.864-36.464Z" transform="translate(-2163.307 -1336.732)" fill="#00223d"/>
      <path id="Trazado_97799" data-name="Trazado 97799" d="M2280.792,1109.113l-2.67,3.443-5.6.3c-.031-.451-.114-2.331-.186-4.034,0-.1-.007-.2-.012-.3-.06-1.45-.084-3.039-.084-3.039l4.444-3.083,1.667-1.277c0,.03.261,1.567.262,1.794C2278.628,1107.345,2280.792,1109.113,2280.792,1109.113Z" transform="translate(-2190.556 -1088.172)" fill="#ffb27d"/>
      <path id="Trazado_97800" data-name="Trazado 97800" d="M2232.69,1190.75c.078,9.126.687,30.477,1.135,30.911,4.753,4.589,25.663-1.258,26.771-6.313s-4.213-64.818-12.332-67.2c-1.684-.494-10.692,2.417-10.692,2.417a57.123,57.123,0,0,0-2.339,8.4c-.344,1.745-1.465,14.193-2.119,22.51-.173,2.217-.314,4.141-.4,5.49C2232.683,1187.522,2232.675,1188.881,2232.69,1190.75Z" transform="translate(-2157.598 -1127.3)" fill="#7d6eb2"/>
      <path id="Trazado_97801" data-name="Trazado 97801" d="M2278.119,1108.737c-.646,2.13-4.352,4.737-5.917,5.745,0-.1-.007-.2-.012-.3-.06-1.449-.111-4.378-.111-4.378l4.47-1.744C2277.652,1107.776,2278.386,1107.86,2278.119,1108.737Z" transform="translate(-2190.425 -1093.826)" fill="#fca56b"/>
      <path id="Trazado_97802" data-name="Trazado 97802" d="M2258.092,1054.1s8.3,2.589,9.833-2.6,3.637-8.358-1.6-10.231-6.854-.2-7.788,1.413S2255.973,1053.3,2258.092,1054.1Z" transform="translate(-2177.906 -1037.605)" fill="#ffb27d"/>
      <path id="Trazado_97803" data-name="Trazado 97803" d="M2264.017,1028.009s.529,6.044,1.779,5.782,2.9-.305,2.716,1.517,1.54,4.914,2.688,4.906c3.865-.024,8.122-10.422,7.064-12.3C2275.211,1022.484,2259.6,1021.389,2264.017,1028.009Z" transform="translate(-2183.058 -1023.434)" fill="#00223d"/>
      <path id="Trazado_97804" data-name="Trazado 97804" d="M2264.209,1136.481c.107-.045,6.179-2.769,6.889-2.534s1.6,2.4,1.6,2.4L2262,1138.767A5.309,5.309,0,0,1,2264.209,1136.481Z" transform="translate(-2182.029 -1115.505)" fill="#635986"/>
      <g id="Grupo_47038" data-name="Grupo 47038" transform="translate(0 3.828)">
        <path id="Trazado_97805" data-name="Trazado 97805" d="M2038,1309.377l31.219,33.154a1.639,1.639,0,0,0,2.31.024l2.124-2a1.639,1.639,0,0,0,.117-2.307l-31.28-33.216c-.6-.641-1.127-.137-1.795.491l-2.124,2C2037.9,1308.152,2037.4,1308.736,2038,1309.377Z" transform="translate(-1995.157 -1261.656)" fill="#00223d"/>
        <path id="Trazado_97806" data-name="Trazado 97806" d="M2141.984,1420.091l14.058,14.942a1.671,1.671,0,0,0,2.355.072l2.124-2a1.671,1.671,0,0,0,.071-2.355l-14.058-14.942Z" transform="translate(-2082.025 -1354.206)" fill="#d5f2e8"/>
        <path id="Trazado_97807" data-name="Trazado 97807" d="M1789.677,1091.35a26.679,26.679,0,1,0,1.151-37.711c-.14.133-.281.267-.417.4A26.675,26.675,0,0,0,1789.677,1091.35Zm2.289-36.5a25.024,25.024,0,1,1-1.077,35.364A24.906,24.906,0,0,1,1791.966,1054.847Z" transform="translate(-1782.43 -1046.391)" fill="#00223d"/>
        <g id="Grupo_47037" data-name="Grupo 47037" transform="translate(1.662 1.662)" opacity="0.3">
          <path id="Trazado_97808" data-name="Trazado 97808" d="M1799.192,1098.513a25.03,25.03,0,1,0,1.078-35.363A24.895,24.895,0,0,0,1799.192,1098.513Z" transform="translate(-1792.396 -1056.355)" fill="#b3cff9"/>
        </g>
      </g>
      <path id="Trazado_97809" data-name="Trazado 97809" d="M2232.69,1244.466c19.839-13.435,18.222-31.912,18.222-31.912-7.74,4.367-15.414,14.7-17.8,22.638-.173,2.217-.314,4.141-.4,5.49C2232.683,1241.239,2232.675,1242.6,2232.69,1244.466Z" transform="translate(-2157.598 -1181.016)" fill="#635986"/>
      <g id="Grupo_47039" data-name="Grupo 47039" transform="translate(52.219 23.262)">
        <path id="Trazado_97810" data-name="Trazado 97810" d="M2100.956,1355.752a5.121,5.121,0,0,1-2.4-1.48s-.564.038.092,1.241c.055.1.177.359.269.542a.117.117,0,0,1-.1.168,12.5,12.5,0,0,0-3,.063c-.2.042-.262.528-.254.735a1.875,1.875,0,0,0,.4,1.281,6.555,6.555,0,0,0,2.37,1.241,7.164,7.164,0,0,0,3.667-.461l1.2-.556-.372-2.232-.3.063C2102.049,1356.459,2101.455,1355.874,2100.956,1355.752Z" transform="translate(-2095.568 -1322.363)" fill="#ffb27d"/>
        <path id="Trazado_97811" data-name="Trazado 97811" d="M2164.634,1162.926s16.852,3.209-4.958,27.613c-3.488,3.9-22.334,8.985-22.334,8.985s-1.911-1.626-.948-2.943c0,0,12.976-9.422,15.831-10.921,1.284-.674,4.985-15.04,7.078-18.5A9.439,9.439,0,0,1,2164.634,1162.926Z" transform="translate(-2129.36 -1162.926)" fill="#7d6eb2"/>
      </g>
      <path id="Trazado_97812" data-name="Trazado 97812" d="M2100.905,1196.989a8.594,8.594,0,0,1-.659-1.609,8.9,8.9,0,0,0-1.087-2.462c-.115-.114-.492.034-.536.525a2.851,2.851,0,0,0,.271,1.066,12.038,12.038,0,0,1,.357,2.118C2099.511,1197.476,2100.905,1196.989,2100.905,1196.989Z" transform="translate(-2045.892 -1164.625)" fill="#ffb27d"/>
    </g>
    <g id="Grupo_47043" data-name="Grupo 47043" transform="translate(874.11 275.695)">
      <g id="Grupo_47041" data-name="Grupo 47041" transform="translate(0)">
        <path id="Trazado_97813" data-name="Trazado 97813" d="M1650.979,693.3a.979.979,0,0,1,.175,1.047.008.008,0,0,1,0,.005,6.511,6.511,0,0,1-2.057,2.256c-.124.1-.234.191-.33.275-.025.022-.051.044-.074.067l-.057.051c-.9.833-.564,1.024-2.188,2.716-1.852,1.927-3.127,1.962-3.49,1.786-.307-.15.317-1.172,1.008-2.32.033-.055.066-.112.1-.168.092-.153.183-.308.275-.461.81-1.383.6-2.031.41-4.089-.156-1.672-2.6-9.341-2.6-9.341l3.549-.611s1.069,6.106,2.246,7.047c.63.5,1.335.508,1.94.879.043.026.085.052.126.08A4.661,4.661,0,0,1,1650.979,693.3Z" transform="translate(-1611.709 -616.343)" fill="#ffb27d"/>
        <path id="Trazado_97814" data-name="Trazado 97814" d="M1654.617,733.305a.979.979,0,0,1,.175,1.047.009.009,0,0,1,0,.005,7.542,7.542,0,0,1-2.06,2.249c-.122.1-.231.2-.327.282-.025.022-.051.044-.074.066l-.057.051c-.9.833-.564,1.024-2.188,2.716-1.852,1.927-3.127,1.962-3.49,1.786-.307-.15.317-1.172,1.008-2.32a7.894,7.894,0,0,0,3.3-2.432c1.075-1.371,1.8-3.119,2.535-4.192l.209-.039A4.656,4.656,0,0,1,1654.617,733.305Z" transform="translate(-1615.346 -656.344)" fill="#233862"/>
        <path id="Trazado_97815" data-name="Trazado 97815" d="M1470.273,685.691c-.219,1.1-1.781.913-3.526.486s-1.33.08-3.813-.194-3.235-1.2-3.311-1.57c-.068-.328,1.159-.443,2.475-.595.165-.019.332-.039.5-.06,1.486-.186,2.574-1.145,3.924-1.933,1.278-.746,3.186-3.785,3.186-3.785l3.405.27s-1.787,2.714-2.478,3.894a4.117,4.117,0,0,0-.334,2.32A4.358,4.358,0,0,1,1470.273,685.691Z" transform="translate(-1459.621 -610.947)" fill="#ffb27d"/>
        <path id="Trazado_97816" data-name="Trazado 97816" d="M1466.747,715.042c-1.745-.426-1.33.08-3.813-.194s-3.235-1.2-3.311-1.57c-.068-.328,1.159-.443,2.475-.595l.012.025a7,7,0,0,0,3.556,1.105c1.685.041,3.469-.442,4.632-.423a4.358,4.358,0,0,1-.026,1.165C1470.054,715.651,1468.492,715.468,1466.747,715.042Z" transform="translate(-1459.621 -639.811)" fill="#233862"/>
        <path id="Trazado_97817" data-name="Trazado 97817" d="M1601.755,566.065l3.183,8.566,4.156,11.185a6.731,6.731,0,0,0,2.208-.2,9.568,9.568,0,0,0,2.135-1.039s-1.154-12.009-3.307-18.9a12.273,12.273,0,0,0-1.852-4.006C1604.941,557.721,1601.755,566.065,1601.755,566.065Z" transform="translate(-1578.052 -513.094)" fill="#dbdada"/>
        <path id="Trazado_97818" data-name="Trazado 97818" d="M1527.1,503.214c1.812-.584,6.54-.009,11.668.919a3.479,3.479,0,0,0,3.592-1.622h0l12.906-1.008s5.142,10.22,1.307,15.411c-2.24,3.033-9.79,2.6-12.077,2.129-6.287-1.289-13.435-5.024-14.362-5.21-1.517-.3-2.124,2.731-3.641,5.917s-14.261,14.109-14.261,14.109a11.222,11.222,0,0,1-2.768-.284,2.727,2.727,0,0,1-1.188-.75S1522.4,504.731,1527.1,503.214Z" transform="translate(-1500.166 -463.847)" fill="#eff4ef"/>
        <path id="Trazado_97819" data-name="Trazado 97819" d="M1698.284,460.309c-.056,7.416-1.969,10.823-1.969,10.823-16.616-2.229-20.292-17.51-20.292-17.51a5.989,5.989,0,0,0,4.863-2.2l13.986-8.923.85-.542.875-.558s.262,1.413.58,3.692a116.448,116.448,0,0,1,1.077,12.393C1698.28,458.422,1698.292,459.365,1698.284,460.309Z" transform="translate(-1639.936 -413.768)" fill="#00223d"/>
        <path id="Trazado_97820" data-name="Trazado 97820" d="M1696.368,296.585c4.6,2.531,13.92,7.777,13.968,7.743,0,0,3.427,1.291,5.371,0,3.24-2.152,4.978-7.943-.948-12.928-2.955-2.486-5.055-3.091-5.374-7.06-.174-2.162-3.14-9.317-8.066-8.594a6.85,6.85,0,0,1-1.19.072,4.577,4.577,0,0,0-2.465.641C1694.9,278.108,1689.478,295.606,1696.368,296.585Z" transform="translate(-1654.093 -275.695)" fill="#00223d"/>
        <path id="Trazado_97821" data-name="Trazado 97821" d="M1733.3,351.941a6.076,6.076,0,0,0,3.787.116c1.435-.634,2.523-3,2.5-3-.653-.03-1.4-1.074-1.922-4.346l-.278.1-4.674,1.682s.339,1.5.558,2.928C1733.455,350.623,1733.554,351.772,1733.3,351.941Z" transform="translate(-1687.172 -333.205)" fill="#ffb27d"/>
        <path id="Trazado_97822" data-name="Trazado 97822" d="M1732.713,346.995s.186.809.458,2.321a5.278,5.278,0,0,0,4.215-4Z" transform="translate(-1687.172 -333.704)" fill="#ed975d"/>
        <path id="Trazado_97823" data-name="Trazado 97823" d="M1712.132,308.117s6.4-.858,5.8-4.833-.172-6.762-4.28-6.382-4.672,2.015-4.8,3.39S1710.454,308.238,1712.132,308.117Z" transform="translate(-1667.288 -293.337)" fill="#ffb27d"/>
        <path id="Trazado_97824" data-name="Trazado 97824" d="M1710.284,296.359s4.094,3.528,6.879,3.812,3.839-.609,3.839-.609a10.874,10.874,0,0,1-2.629-3.562,1.959,1.959,0,0,0-1.614-1.154C1714.77,294.674,1711,294.6,1710.284,296.359Z" transform="translate(-1668.483 -291.582)" fill="#00223d"/>
        <path id="Trazado_97825" data-name="Trazado 97825" d="M1709.109,298.624a10.082,10.082,0,0,0-1.8,2.306,7.742,7.742,0,0,0-.21,4.115s-2.134-4.149-.926-6.165C1707.453,296.743,1709.109,298.624,1709.109,298.624Z" transform="translate(-1664.749 -294.163)" fill="#00223d"/>
        <path id="Trazado_97826" data-name="Trazado 97826" d="M1703.928,382.191c.193,12.945.053,10.24,1.469,11.469a5.438,5.438,0,0,0,2.563.555c3.97.263,10.947-.39,11.213-1.124.915-2.538.269-3.327,1.033-7.213.079-.413.178-.861.294-1.348.637-2.669,1.257-3.577-1-7.865-2.049-3.884-4.138-7.063-4.33-6.95-5.406,3.209-5.882.538-5.882.538S1703.833,375.877,1703.928,382.191Z" transform="translate(-1663.186 -354.035)" fill="#00223d"/>
        <path id="Trazado_97827" data-name="Trazado 97827" d="M1620.844,599.94,1625,611.125a6.73,6.73,0,0,0,2.208-.2,9.565,9.565,0,0,0,2.135-1.039s-1.154-12.009-3.307-18.9Z" transform="translate(-1593.958 -538.404)" fill="#eff4ef"/>
        <path id="Trazado_97828" data-name="Trazado 97828" d="M1693.817,372.955s-4.9.718-5.6,3.424c-.622,2.4-2.849,16.024-2.849,16.024s1,2.356,2.309,1.05,4.111-13.6,4.111-13.6Z" transform="translate(-1647.718 -356.736)" fill="#00223d"/>
        <path id="Trazado_97829" data-name="Trazado 97829" d="M1719.319,504.895a7.573,7.573,0,0,1-1.09,1.185.8.8,0,0,1-.443.095l.553-1Z" transform="translate(-1674.735 -466.674)" fill="#ffb27d"/>
        <path id="Trazado_97830" data-name="Trazado 97830" d="M1716.193,498.359l-2.386,1.159a.425.425,0,0,0,.4.153,5.678,5.678,0,0,0,1.035-.284Z" transform="translate(-1671.419 -461.228)" fill="#ffb27d"/>
        <path id="Trazado_97831" data-name="Trazado 97831" d="M1751.429,457.4c-3.69-.292-13-3.43-11.408-5.644.736-1.025,5.667-1.48,8.212-4.727.686-.875-.086-3.262-.187-4.614-.042-.583-.013-1,.187-1.1.185-.088.42.157.663.558a20.169,20.169,0,0,1,1.333,3.163l.122-.029A116.549,116.549,0,0,1,1751.429,457.4Z" transform="translate(-1693.111 -413.679)" fill="#344966"/>
        <path id="Trazado_97832" data-name="Trazado 97832" d="M1720.74,498.474s-3.916-.872-4.548-.524a9.205,9.205,0,0,0-2.369,2.053c-.193.441,1.407-.334,1.927-.474a4.634,4.634,0,0,1,1.663.364,5.527,5.527,0,0,0,2.981.3Z" transform="translate(-1671.418 -460.819)" fill="#ffb27d"/>
        <path id="Trazado_97833" data-name="Trazado 97833" d="M1753.825,369.731s5.222.348,7.042,2.887c2.563,3.574,5.313,18.857,2.4,20.888-3.281,2.288-12.6.547-12.6.547s-.873-2.591.152-2.689c2.776-.265,8.2-1.419,8.15-2.631-.077-1.842-3.5-7.956-3.5-9.169S1753.825,369.731,1753.825,369.731Z" transform="translate(-1701.844 -354.05)" fill="#00223d"/>
      </g>
      <g id="Grupo_47042" data-name="Grupo 47042" transform="translate(18.946 26.288)">
        <path id="Trazado_97834" data-name="Trazado 97834" d="M1605.951,514.69h24.92v.55h-24.7Z" transform="translate(-1600.495 -501.124)" fill="#00223d"/>
        <path id="Trazado_97835" data-name="Trazado 97835" d="M1597.784,447.452h-18.871l-5.677-14.117h18.842Z" transform="translate(-1573.235 -433.335)" fill="#00223d"/>
        <path id="Trazado_97836" data-name="Trazado 97836" d="M1635.662,471.172a.654.654,0,0,1,.641-.9,1.287,1.287,0,0,1,1.156.9.654.654,0,0,1-.641.9A1.287,1.287,0,0,1,1635.662,471.172Z" transform="translate(-1625.221 -464.114)" fill="#fff"/>
      </g>
    </g>
    <g id="Grupo_47063" data-name="Grupo 47063" transform="translate(756.929 310.979)">
      <rect id="Rectángulo_28324" data-name="Rectángulo 28324" width="105.746" height="70.808" rx="2" fill="#12263f" opacity="0.8"/>
      <g id="Grupo_47053" data-name="Grupo 47053" transform="translate(9.128 6.875)">
        <path id="Trazado_97837" data-name="Trazado 97837" d="M920.246,529.318s3.072-2.3,8.621.834a6.128,6.128,0,0,1,3.529,3.941,5.159,5.159,0,0,0,.981,2.055,6.466,6.466,0,0,1,1.4,3.518,6.067,6.067,0,0,0,.729,2.428,7.481,7.481,0,0,1,.8,4.34s1.776,1.942.777,6.27a6.224,6.224,0,0,1-1.022,5.161s.457,3.122-2.2,4.169a6.356,6.356,0,0,1-5.571,3.445,5.331,5.331,0,0,0-1.758.4,6.642,6.642,0,0,1-4.269.092c-3.33-.888-3-2.937-3-2.937V529.816Z" transform="translate(-901.317 -528.505)" fill="url(#linear-gradient)"/>
        <path id="Trazado_97838" data-name="Trazado 97838" d="M828.8,529.318s-3.072-2.3-8.621.834a6.072,6.072,0,0,0-3.572,4.144,3.719,3.719,0,0,1-.819,1.706,6.474,6.474,0,0,0-1.537,3.969,3.868,3.868,0,0,1-.573,1.884,7.023,7.023,0,0,0-.974,3.617,3.857,3.857,0,0,1-.4,1.66,8.224,8.224,0,0,0-.337,5.573,6.282,6.282,0,0,0,.475,4.283,5.081,5.081,0,0,1,.537,1.861,3.7,3.7,0,0,0,1.475,2.8,5.263,5.263,0,0,1,1.231,1.213,6.438,6.438,0,0,0,4.834,2.605,7.873,7.873,0,0,1,2.132.464,6.752,6.752,0,0,0,4.132.039c3.33-.888,3-2.937,3-2.937V529.816Z" transform="translate(-811.666 -528.505)" fill="url(#linear-gradient)"/>
        <g id="Grupo_47052" data-name="Grupo 47052" transform="translate(1.72 1.31)">
          <path id="Trazado_97839" data-name="Trazado 97839" d="M858.055,620.28a5.061,5.061,0,0,1-3.832-2.763l-.011-.02a1.683,1.683,0,0,1,.56-2.243,1.43,1.43,0,0,0,.367-.321,7.389,7.389,0,0,1-3.577-.578,5.386,5.386,0,0,1-1.925-1.475,3.464,3.464,0,0,0,1.063,1.973,3.692,3.692,0,0,0,1.4.691c.484.108.689.595.868,1.057a9.469,9.469,0,0,0,.6,1.267,7.022,7.022,0,0,0,1.486,1.85,4.326,4.326,0,0,0-2.024,1.843,4.082,4.082,0,0,0-.491,1.408,6.073,6.073,0,0,1,1.255-1.558,3.859,3.859,0,0,1,2.76-.976A6.518,6.518,0,0,0,858.055,620.28Z" transform="translate(-845.025 -600.12)" fill="#00223d" opacity="0.8"/>
          <g id="Grupo_47044" data-name="Grupo 47044" transform="translate(3.695 21.103)">
            <path id="Trazado_97840" data-name="Trazado 97840" d="M847.658,667.824c-.077,0-.154,0-.231-.007a3.377,3.377,0,0,1-2.573-1.421,3.154,3.154,0,0,1-.406-3.373l.013-.028c.152-.322.238.28.219.636a3.821,3.821,0,0,0,1.291,2.578c.854.738,2.237.722,3.291.758.395.013.728.04.375.279A3.76,3.76,0,0,1,847.658,667.824Z" transform="translate(-844.136 -662.905)" fill="#00223d" opacity="0.8"/>
          </g>
          <g id="Grupo_47045" data-name="Grupo 47045" transform="translate(10.099 8.892)">
            <path id="Trazado_97841" data-name="Trazado 97841" d="M884.357,594.084q-.084-.03-.167-.065a2.617,2.617,0,0,1-1.51-1.705,2.445,2.445,0,0,1,.579-2.568l.017-.017c.195-.2.1.266,0,.521a2.962,2.962,0,0,0,.274,2.218,4.142,4.142,0,0,0,2.206,1.407c.285.112.521.218.2.3A2.915,2.915,0,0,1,884.357,594.084Z" transform="translate(-882.543 -589.682)" fill="#00223d" opacity="0.8"/>
          </g>
          <g id="Grupo_47046" data-name="Grupo 47046" transform="translate(1.087 26.233)">
            <path id="Trazado_97842" data-name="Trazado 97842" d="M832.49,697.5a.772.772,0,0,1-1.022-.276,17.02,17.02,0,0,0-2.971-3.55h0a9.53,9.53,0,0,1,3.994,3.826Z" transform="translate(-828.496 -693.671)" fill="#00223d" opacity="0.8"/>
          </g>
          <path id="Trazado_97843" data-name="Trazado 97843" d="M889.593,689.274a2.177,2.177,0,0,1-.654-1.792,8.455,8.455,0,0,1,.254-1.725,2.875,2.875,0,0,0-.734,3.237c-1.045-.024-1.653,1.17-1.653,1.17a3.882,3.882,0,0,1,.737-.294,2.533,2.533,0,0,1,1.476-.03,1.9,1.9,0,0,1,1.1,1.155A1.514,1.514,0,0,0,889.593,689.274Z" transform="translate(-875.996 -660.843)" fill="#00223d" opacity="0.8"/>
          <path id="Trazado_97844" data-name="Trazado 97844" d="M849.2,576.043a2.177,2.177,0,0,1,1.7-.872,8.459,8.459,0,0,1,1.743.036,2.875,2.875,0,0,0-3.3-.323c-.107-1.039-1.368-1.493-1.368-1.493a3.881,3.881,0,0,1,.384.694,2.534,2.534,0,0,1,.214,1.46,1.9,1.9,0,0,1-1.008,1.24A1.514,1.514,0,0,0,849.2,576.043Z" transform="translate(-843.292 -567.215)" fill="#00223d" opacity="0.8"/>
          <path id="Trazado_97845" data-name="Trazado 97845" d="M823.62,640.815a2.178,2.178,0,0,1,1.7-.873,8.474,8.474,0,0,1,1.743.036,2.876,2.876,0,0,0-3.3-.323c-.107-1.039-1.368-1.493-1.368-1.493a3.884,3.884,0,0,1,.384.694,2.534,2.534,0,0,1,.214,1.46,1.9,1.9,0,0,1-1.008,1.24A1.515,1.515,0,0,0,823.62,640.815Z" transform="translate(-821.98 -621.186)" fill="#00223d" opacity="0.8"/>
          <path id="Trazado_97846" data-name="Trazado 97846" d="M885.036,540.758a2.718,2.718,0,0,0,.816-2.238,10.559,10.559,0,0,0-.317-2.154c.029.117,2.008,1.759.915,4.042,1.3-.03,2.064,1.462,2.064,1.462a4.843,4.843,0,0,0-.92-.368,3.163,3.163,0,0,0-1.843-.038,2.366,2.366,0,0,0-1.379,1.442A1.891,1.891,0,0,1,885.036,540.758Z" transform="translate(-873.885 -536.365)" fill="#00223d" opacity="0.8"/>
          <path id="Trazado_97847" data-name="Trazado 97847" d="M860.086,707.964a2.538,2.538,0,0,0,.762-2.09,9.867,9.867,0,0,0-.3-2.011c.027.109,1.875,1.642.855,3.773,1.218-.028,1.927,1.365,1.927,1.365a4.55,4.55,0,0,0-.859-.343,2.953,2.953,0,0,0-1.721-.035,2.209,2.209,0,0,0-1.287,1.346A1.766,1.766,0,0,1,860.086,707.964Z" transform="translate(-853.138 -675.93)" fill="#00223d" opacity="0.8"/>
          <g id="Grupo_47050" data-name="Grupo 47050" transform="translate(17.97 0.001)">
            <path id="Trazado_97848" data-name="Trazado 97848" d="M939.332,620.28a5.061,5.061,0,0,0,3.832-2.763l.011-.02a1.683,1.683,0,0,0-.56-2.243,1.428,1.428,0,0,1-.366-.321,7.388,7.388,0,0,0,3.576-.578,5.387,5.387,0,0,0,1.925-1.475,3.464,3.464,0,0,1-1.063,1.973,3.691,3.691,0,0,1-1.4.691c-.484.108-.689.595-.868,1.057a9.462,9.462,0,0,1-.6,1.267,7.023,7.023,0,0,1-1.486,1.85,4.324,4.324,0,0,1,2.024,1.843,4.089,4.089,0,0,1,.491,1.408,6.075,6.075,0,0,0-1.255-1.558,3.859,3.859,0,0,0-2.76-.976A6.517,6.517,0,0,1,939.332,620.28Z" transform="translate(-937.732 -600.12)" fill="#00223d" opacity="0.8"/>
            <g id="Grupo_47047" data-name="Grupo 47047" transform="translate(5.285 21.102)">
              <path id="Trazado_97849" data-name="Trazado 97849" d="M963.558,667.824c.077,0,.154,0,.231-.007a3.377,3.377,0,0,0,2.573-1.421,3.155,3.155,0,0,0,.406-3.373l-.013-.028c-.153-.322-.238.28-.219.636a3.821,3.821,0,0,1-1.291,2.578c-.854.738-2.236.722-3.29.758-.395.013-.728.04-.375.279A3.76,3.76,0,0,0,963.558,667.824Z" transform="translate(-961.429 -662.905)" fill="#00223d" opacity="0.8"/>
            </g>
            <g id="Grupo_47048" data-name="Grupo 47048" transform="translate(0.968 8.891)">
              <path id="Trazado_97850" data-name="Trazado 97850" d="M937.294,594.084q.084-.03.167-.065a2.618,2.618,0,0,0,1.51-1.705,2.445,2.445,0,0,0-.579-2.568l-.016-.017c-.195-.2-.1.266,0,.521a2.96,2.96,0,0,1-.274,2.218,4.143,4.143,0,0,1-2.206,1.407c-.285.112-.521.218-.2.3A2.915,2.915,0,0,0,937.294,594.084Z" transform="translate(-935.546 -589.682)" fill="#00223d" opacity="0.8"/>
            </g>
            <g id="Grupo_47049" data-name="Grupo 47049" transform="translate(9.099 26.463)">
              <path id="Trazado_97851" data-name="Trazado 97851" d="M984.3,697.4a.772.772,0,0,0,1.057.066,17.02,17.02,0,0,1,3.951-2.414h0A9.529,9.529,0,0,0,984.3,697.4Z" transform="translate(-984.305 -695.054)" fill="#00223d" opacity="0.8"/>
            </g>
            <path id="Trazado_97852" data-name="Trazado 97852" d="M932.884,689.274a2.177,2.177,0,0,0,.654-1.792,8.464,8.464,0,0,0-.254-1.725,2.876,2.876,0,0,1,.733,3.237c1.045-.024,1.653,1.17,1.653,1.17a3.893,3.893,0,0,0-.737-.294,2.534,2.534,0,0,0-1.476-.03,1.9,1.9,0,0,0-1.1,1.155A1.515,1.515,0,0,1,932.884,689.274Z" transform="translate(-931.85 -660.844)" fill="#00223d" opacity="0.8"/>
            <path id="Trazado_97853" data-name="Trazado 97853" d="M964.869,576.043a2.177,2.177,0,0,0-1.7-.872,8.461,8.461,0,0,0-1.743.036,2.875,2.875,0,0,1,3.3-.323c.107-1.039,1.368-1.493,1.368-1.493a3.87,3.87,0,0,0-.384.694,2.535,2.535,0,0,0-.214,1.46,1.894,1.894,0,0,0,1.008,1.24A1.514,1.514,0,0,1,964.869,576.043Z" transform="translate(-956.144 -567.216)" fill="#00223d" opacity="0.8"/>
            <path id="Trazado_97854" data-name="Trazado 97854" d="M990.446,640.815a2.178,2.178,0,0,0-1.7-.873,8.471,8.471,0,0,0-1.743.036,2.875,2.875,0,0,1,3.3-.323c.107-1.039,1.368-1.493,1.368-1.493a3.884,3.884,0,0,0-.384.694,2.533,2.533,0,0,0-.214,1.46,1.9,1.9,0,0,0,1.008,1.24A1.515,1.515,0,0,1,990.446,640.815Z" transform="translate(-977.456 -621.186)" fill="#00223d" opacity="0.8"/>
            <path id="Trazado_97855" data-name="Trazado 97855" d="M933.219,540.758a2.718,2.718,0,0,1-.816-2.238,10.559,10.559,0,0,1,.317-2.154c-.029.117-2.008,1.759-.916,4.042-1.3-.03-2.064,1.462-2.064,1.462a4.833,4.833,0,0,1,.92-.368,3.163,3.163,0,0,1,1.843-.038,2.366,2.366,0,0,1,1.379,1.442A1.891,1.891,0,0,0,933.219,540.758Z" transform="translate(-929.74 -536.366)" fill="#00223d" opacity="0.8"/>
            <path id="Trazado_97856" data-name="Trazado 97856" d="M959.576,707.964a2.539,2.539,0,0,1-.762-2.09,9.878,9.878,0,0,1,.3-2.011c-.027.109-1.874,1.642-.855,3.773-1.218-.028-1.927,1.365-1.927,1.365a4.543,4.543,0,0,1,.859-.343,2.952,2.952,0,0,1,1.72-.035,2.209,2.209,0,0,1,1.287,1.346A1.766,1.766,0,0,0,959.576,707.964Z" transform="translate(-951.894 -675.931)" fill="#00223d" opacity="0.8"/>
          </g>
          <g id="Grupo_47051" data-name="Grupo 47051" transform="translate(15.94 0)">
            <rect id="Rectángulo_28325" data-name="Rectángulo 28325" width="33.951" height="0.749" transform="translate(0 33.951) rotate(-89.862)" fill="#00223d" opacity="0.8"/>
          </g>
        </g>
      </g>
      <g id="Grupo_47054" data-name="Grupo 47054" transform="translate(48.372 5.329)">
        <rect id="Rectángulo_28326" data-name="Rectángulo 28326" width="28.046" height="2.856" fill="#7d6eb2"/>
        <rect id="Rectángulo_28327" data-name="Rectángulo 28327" width="22.449" height="1.428" transform="translate(0 6.894)" fill="url(#linear-gradient)"/>
        <rect id="Rectángulo_28328" data-name="Rectángulo 28328" width="14.656" height="1.428" transform="translate(0 10.741)" fill="#8ec8c8"/>
        <rect id="Rectángulo_28329" data-name="Rectángulo 28329" width="14.656" height="1.428" transform="translate(16.85 10.741)" fill="url(#linear-gradient)"/>
        <rect id="Rectángulo_28330" data-name="Rectángulo 28330" width="13.539" height="1.428" transform="translate(24.736 6.894)" fill="#8ec8c8"/>
        <rect id="Rectángulo_28331" data-name="Rectángulo 28331" width="13.016" height="2.856" transform="translate(29.724)" fill="#f5ca56"/>
      </g>
      <g id="Grupo_47055" data-name="Grupo 47055" transform="translate(8.516 51.61)">
        <rect id="Rectángulo_28332" data-name="Rectángulo 28332" width="22.4" height="2.281" fill="#7d6eb2"/>
        <rect id="Rectángulo_28333" data-name="Rectángulo 28333" width="17.93" height="1.14" transform="translate(0 5.506)" fill="url(#linear-gradient)"/>
        <rect id="Rectángulo_28334" data-name="Rectángulo 28334" width="11.706" height="1.141" transform="translate(0 8.579)" fill="url(#linear-gradient)"/>
        <rect id="Rectángulo_28335" data-name="Rectángulo 28335" width="11.706" height="1.141" transform="translate(13.458 8.579)" fill="#8ec8c8"/>
        <rect id="Rectángulo_28336" data-name="Rectángulo 28336" width="10.814" height="1.14" transform="translate(19.757 5.506)" fill="url(#linear-gradient)"/>
        <rect id="Rectángulo_28337" data-name="Rectángulo 28337" width="10.396" height="2.281" transform="translate(23.741)" fill="#f5ca56"/>
      </g>
      <g id="Grupo_47057" data-name="Grupo 47057" transform="translate(51.1 25.037)">
        <path id="Trazado_97857" data-name="Trazado 97857" d="M1201.675,637.905a1.691,1.691,0,1,1-2.392.014A1.691,1.691,0,0,1,1201.675,637.905Z" transform="translate(-1176.209 -637.417)" fill="#8ec8c8"/>
        <path id="Trazado_97858" data-name="Trazado 97858" d="M1159.453,680.348a1.882,1.882,0,1,1-2.661.016A1.882,1.882,0,0,1,1159.453,680.348Z" transform="translate(-1140.758 -672.736)" fill="#8ec8c8"/>
        <path id="Trazado_97859" data-name="Trazado 97859" d="M1111.664,658.293a1.606,1.606,0,1,1-2.272.014A1.606,1.606,0,0,1,1111.664,658.293Z" transform="translate(-1101.329 -654.425)" fill="#8ec8c8"/>
        <path id="Trazado_97860" data-name="Trazado 97860" d="M1066.092,684.414a1.606,1.606,0,1,1-2.272.014A1.607,1.607,0,0,1,1066.092,684.414Z" transform="translate(-1063.357 -676.19)" fill="#8ec8c8"/>
        <g id="Grupo_47056" data-name="Grupo 47056" transform="translate(1.535 1.593)">
          <path id="Trazado_97861" data-name="Trazado 97861" d="M1072.563,654.619l7.665-4.393,8.141,3.928,6.833-7.184.207.2-6.976,7.334-8.193-3.953-7.534,4.318Z" transform="translate(-1072.563 -646.97)" fill="#8ec8c8"/>
        </g>
      </g>
      <g id="Grupo_47059" data-name="Grupo 47059" transform="translate(80 24.887)">
        <path id="Trazado_97862" data-name="Trazado 97862" d="M1237.252,694.858a1.4,1.4,0,1,1,1.954-.339A1.4,1.4,0,0,1,1237.252,694.858Z" transform="translate(-1236.657 -683.006)" fill="#8ec8c8"/>
        <path id="Trazado_97863" data-name="Trazado 97863" d="M1264.27,652.95a1.56,1.56,0,1,1,2.173-.377A1.56,1.56,0,0,1,1264.27,652.95Z" transform="translate(-1259.114 -647.847)" fill="#8ec8c8"/>
        <path id="Trazado_97864" data-name="Trazado 97864" d="M1308.812,666.525a1.332,1.332,0,1,1,1.855-.322A1.332,1.332,0,0,1,1308.812,666.525Z" transform="translate(-1296.308 -659.505)" fill="#8ec8c8"/>
        <path id="Trazado_97865" data-name="Trazado 97865" d="M1342.5,638.938a1.331,1.331,0,1,1,1.855-.322A1.332,1.332,0,0,1,1342.5,638.938Z" transform="translate(-1324.376 -636.518)" fill="#8ec8c8"/>
        <g id="Grupo_47058" data-name="Grupo 47058" transform="translate(1.304 1.24)">
          <path id="Trazado_97866" data-name="Trazado 97866" d="M1262.136,644.137l-5.666,4.64-7.192-2.1-4.6,6.807-.2-.133,4.7-6.95,7.238,2.111,5.569-4.561Z" transform="translate(-1244.478 -643.954)" fill="#8ec8c8"/>
        </g>
      </g>
      <g id="Grupo_47061" data-name="Grupo 47061" transform="translate(53.83 48.013)">
        <g id="Grupo_47060" data-name="Grupo 47060">
          <path id="Trazado_97867" data-name="Trazado 97867" d="M1091.709,786.95l-1.634-8.581-.713,3.666h-9.631v-.58h9.153l1.2-6.153,1.709,8.973.769-3.029h1.663l1.134-5.282,1.452,8.055.763-3.084h3.435l1.264-4.145,1.106,7.258.889-3.113h2.843l.834-4.551,1.794,7.16.65-2.609h3.676l.192,2.174,2.024-7.914,1.33,5.761h5.978v.58h-6.439l-.9-3.889-2.274,8.891-.444-5.023h-2.692l-1.1,4.421-1.708-6.817-.439,2.4H1104.7l-1.5,5.248-1.123-7.366-.646,2.118h-3.41l-1.306,5.277-1.413-7.836-.616,2.871h-1.68Z" transform="translate(-1079.73 -775.194)" fill="#fff"/>
        </g>
      </g>
      <g id="Grupo_47062" data-name="Grupo 47062" transform="translate(50.94 44.475)">
        <path id="Trazado_97868" data-name="Trazado 97868" d="M1111.836,774.914H1062.4V753.977h49.438Zm-49.118-.32h48.8V754.3h-48.8Z" transform="translate(-1062.398 -753.977)" fill="#fff"/>
      </g>
    </g>
    <g id="Grupo_47064" data-name="Grupo 47064" transform="translate(756.929 375.812)">
      <path id="Trazado_96247" data-name="Trazado 96247" d="M945.028,1485.612s-.463,2.623-.691,5.22a1.789,1.789,0,0,0,1.712,1.938c3.458.144,10.855.424,13.51.306a.582.582,0,0,0,.512-.8h0a1.3,1.3,0,0,0-.666-.7l-12.219-5.616Z" transform="translate(-915.507 -1359.887)" fill="#d5f2e8"/>
      <path id="Trazado_96248" data-name="Trazado 96248" d="M946.042,1475.188l.372,3.138s2.141,1,3.6-.125l-.886-3.5Z" transform="translate(-916.9 -1351.004)" fill="url(#linear-gradient-9)"/>
      <path id="Trazado_96249" data-name="Trazado 96249" d="M905,1159.646c-.161.819-.863,40.891,3.42,58.849a.61.61,0,0,1-.358.709,10.62,10.62,0,0,1-3.489.709,1.05,1.05,0,0,1-1.041-.753c-1.224-4.167-7.091-25.042-7.857-44.983-.855-22.282,0-.758,0-.758l.5-13.774Z" transform="translate(-875.577 -1094.454)" fill="#7d6eb2"/>
      <path id="Trazado_96250" data-name="Trazado 96250" d="M865.937,1492.981a18.873,18.873,0,0,0-1.452,4.843,1.092,1.092,0,0,0,.96,1.307c1.142.112,2.9.257,4.308.247a1.088,1.088,0,0,0,1.077-1.214,9.179,9.179,0,0,0-2.143-5.035Z" transform="translate(-850.471 -1365.887)" fill="#d5f2e8"/>
      <path id="Trazado_96251" data-name="Trazado 96251" d="M868.912,1470.44l.87,4.745a3.068,3.068,0,0,0,2.562.176l-.415-5.106Z" transform="translate(-854.094 -1347.382)" fill="url(#linear-gradient-9)"/>
      <path id="Trazado_96252" data-name="Trazado 96252" d="M850.344,1156.55c-3.5,21.142.76,52.255,2.2,58.344a.949.949,0,0,0,.767.721,6.375,6.375,0,0,0,2.74-.109.87.87,0,0,0,.626-.8c.193-4.923-.154-35.146,3.11-47.091a2.713,2.713,0,0,1,1.047-1.5l6.336-4.5.486-7.281Z" transform="translate(-837.876 -1090.128)" fill="#7d6eb2"/>
      <g id="Grupo_46179" data-name="Grupo 46179" transform="translate(11.16 10.101)">
        <path id="Trazado_96253" data-name="Trazado 96253" d="M872.844,943.033c-10.5-.173-22.083,2.756-22.083,2.756-3.129,18.26-.547,39.321-.547,39.321,8.128,2.131,17.3-1.3,17.3-1.3,1.351-7.632,7.654-29.112,7.654-29.112A34.583,34.583,0,0,0,888,950.623a22.512,22.512,0,0,1-4.449-9.306A35.224,35.224,0,0,1,872.844,943.033Z" transform="translate(-849.213 -926.774)" fill="#00223d"/>
        <path id="Trazado_96254" data-name="Trazado 96254" d="M1054.414,863.8a2.009,2.009,0,0,0-2.337-.656c-1.545,6.526-9.646,11.818-17.968,14.4a22.512,22.512,0,0,0,4.449,9.306C1052.37,879.089,1054.414,863.8,1054.414,863.8Z" transform="translate(-999.772 -863.005)" fill="url(#linear-gradient-9)"/>
      </g>
      <g id="Grupo_46180" data-name="Grupo 46180" transform="translate(63.465)">
        <path id="Trazado_96255" data-name="Trazado 96255" d="M1132.95,819.825c.108.343-1.142.865-1.878-.538-.026-.672-.435-3.553-.033-4.1a53.674,53.674,0,0,1,6.289-6.575.987.987,0,0,1,.123,1.372l-2.013,2.1a9.747,9.747,0,0,1,1.175,2.323,2.819,2.819,0,0,1-.281,2.076c-.353.637-.835,1.464-1.291,2.112A2.784,2.784,0,0,1,1132.95,819.825Z" transform="translate(-1130.864 -808.611)" fill="url(#linear-gradient-12)"/>
        <path id="Trazado_96256" data-name="Trazado 96256" d="M1140.195,834.614l-1.834,1.555-.576,1.548,1.635,1.814a21.1,21.1,0,0,1,.958-3.737C1140.788,835.13,1140.576,834.808,1140.195,834.614Z" transform="translate(-1136.5 -829.785)" fill="url(#linear-gradient-13)"/>
      </g>
      <path id="Trazado_96257" data-name="Trazado 96257" d="M811.509,975.567,807.482,965.4s-9.806,6.663-11.419,15.111a22.306,22.306,0,0,1,8.259,2.316C805.812,979.476,811.509,975.567,811.509,975.567Z" transform="translate(-794.773 -936.284)" fill="#00223d"/>
      <path id="Trazado_96258" data-name="Trazado 96258" d="M904.465,904.663l-3.341,9.661a.348.348,0,0,0,.159.419,7.852,7.852,0,0,0,8.145-.548,1.639,1.639,0,0,0,.755-1.171l1.082-8.361Z" transform="translate(-880.308 -886.825)" fill="url(#linear-gradient-14)"/>
      <g id="Grupo_46181" data-name="Grupo 46181" transform="translate(17.817 3.871)">
        <path id="Trazado_96259" data-name="Trazado 96259" d="M920.792,856.492s3.668,6.9,3.2,9.694-5.016,2.589-8.986.324l-2.774-7.456Z" transform="translate(-907.184 -851.471)" fill="url(#linear-gradient-15)"/>
        <path id="Trazado_96260" data-name="Trazado 96260" d="M893.054,840.834a.285.285,0,0,0,.124-.417,7.427,7.427,0,0,1-1.02-2.167s-.659-.422,1.678-.982,5.824-1.428,6.557-3.418c.714-1.94-1.163-6.819-4.158-2.932a.285.285,0,0,1-.451,0,2.934,2.934,0,0,0-3.574-1.161,2.691,2.691,0,0,0-1.843,2.6.283.283,0,0,1-.335.29,3.282,3.282,0,0,0-3.832,1.787c-.782,1.719-.274,2.692.189,3.168a.284.284,0,0,1-.121.471,1.708,1.708,0,0,0-1.2,1.949c.1,1.8,2.117,1.646,2.692,1.564a.285.285,0,0,1,.253.089c.493.545,2.712,2.86,5.114,3.139a.287.287,0,0,0,.3-.379l-1.04-3.022a.286.286,0,0,1,.155-.354Z" transform="translate(-885.058 -829.457)" fill="#00223d"/>
        <path id="Trazado_96261" data-name="Trazado 96261" d="M918.029,889.138s-2.612-1.792-2.8-.283,2.352,2.186,3.611,1.623Z" transform="translate(-909.616 -877.332)" fill="url(#linear-gradient-16)"/>
      </g>
      <path id="Trazado_96272" data-name="Trazado 96272" d="M790.477,1045.081s-6.7,15.266,9.681,17.5l2.234-1.862s-8.192-4.469-3.724-13.4C798.668,1047.315,793.828,1043.219,790.477,1045.081Z" transform="translate(-789.119 -1000.771)" fill="url(#linear-gradient-17)"/>
      <path id="Trazado_96273" data-name="Trazado 96273" d="M850.792,1131.42h5.958s3.724,4.84,3.351,5.958-4.052.229-4.052.229l-1.905-3.208s-5.585.373-5.585-1.117S850.792,1131.42,850.792,1131.42Z" transform="translate(-837.52 -1071.471)" fill="url(#linear-gradient-18)"/>
    </g>
    <g id="Grupo_47065" data-name="Grupo 47065" transform="translate(957.603 289.501)">
      <g id="Grupo_47066" data-name="Grupo 47066" transform="translate(0 0)">
        <g id="Grupo_47020" data-name="Grupo 47020" transform="translate(3.489 3.503)">
          <path id="Trazado_97743" data-name="Trazado 97743" d="M1385.882,211.69a26.809,26.809,0,0,1-35.016,40.423l-9.5,4.091,4.091-9.5a26.809,26.809,0,0,1,40.423-35.016Z" transform="translate(-1339.671 -203.402)" fill="#fdfdfd" fill-rule="evenodd"/>
          <path id="Trazado_97744" data-name="Trazado 97744" d="M1364.379,255.422a27.226,27.226,0,0,1-16.124-5.274l-9.26,3.988a.449.449,0,0,1-.589-.589l3.988-9.26a27.26,27.26,0,1,1,23.815,11.075Q1365.293,255.422,1364.379,255.422Zm-16.064-6.237a.448.448,0,0,1,.269.09,26.36,26.36,0,1,0-2.848-39.747,26.47,26.47,0,0,0-2.469,34.429.449.449,0,0,1,.053.447l-3.645,8.462,8.463-3.645A.447.447,0,0,1,1348.315,249.185Z" transform="translate(-1337.12 -200.923)" fill="#00223d"/>
        </g>
        <circle id="Elipse_3890" data-name="Elipse 3890" cx="22.785" cy="22.785" r="22.785" transform="translate(7.959 7.961)" fill="#12263f"/>
        <path id="Trazado_97745" data-name="Trazado 97745" d="M1344.516,238.991a30.64,30.64,0,0,1-16.694-4.931.449.449,0,0,1,.489-.753,29.859,29.859,0,0,0,32.378.035.449.449,0,0,1,.486.754A30.739,30.739,0,0,1,1344.516,238.991Zm21.855-9.306a.449.449,0,0,1-.323-.76,29.771,29.771,0,0,0,3.75-36.58.449.449,0,1,1,.759-.478,30.888,30.888,0,0,1,4.572,19.35,30.414,30.414,0,0,1-8.434,18.33A.447.447,0,0,1,1366.372,229.685Zm-47.283-4.531a.448.448,0,0,1-.376-.2,30.775,30.775,0,0,1-4.763-19.895.448.448,0,1,1,.892.093,29.876,29.876,0,0,0,4.623,19.313.449.449,0,0,1-.376.693Zm-3.127-26.557a.449.449,0,0,1-.423-.6,30.749,30.749,0,0,1,37.621-19.269.448.448,0,0,1-.251.861,29.853,29.853,0,0,0-36.524,18.707A.448.448,0,0,1,1315.963,198.6Zm49.827-11.487a.448.448,0,0,1-.315-.129,29.9,29.9,0,0,0-6.21-4.7.449.449,0,0,1,.443-.78,30.8,30.8,0,0,1,6.4,4.84.449.449,0,0,1-.315.768Z" transform="translate(-1313.784 -177.498)" fill="#00223d"/>
      </g>
      <path id="Trazado_97869" data-name="Trazado 97869" d="M1434.022,282.747a15,15,0,1,0,14.131,9.938l-2.261,2.261a12.2,12.2,0,1,1-4.058-6.555l2-2a14.952,14.952,0,0,0-9.808-3.648Zm-7.893,13.522a1.876,1.876,0,1,1,2.653-2.653l5.24,5.24,11.807-11.807a1.876,1.876,0,0,1,2.653,2.653l-13.134,13.134a1.876,1.876,0,0,1-2.653,0Z" transform="translate(-1403.278 -267.01)" fill="#fff" fill-rule="evenodd"/>
    </g>
    <g id="Grupo_47066-2" data-name="Grupo 47066" transform="translate(892.749 421.627)">
      <g id="Grupo_46129" data-name="Grupo 46129" transform="translate(0 50.19)">
        <path id="Trazado_96115" data-name="Trazado 96115" d="M133.795,93.013h56.969v1.575H135.241a1.732,1.732,0,0,0-1.719,1.735v6.266a1.732,1.732,0,0,0,1.719,1.735h55.522V105.9H133.795a2.305,2.305,0,0,1-2.288-2.288V95.3a2.305,2.305,0,0,1,2.288-2.288Z" transform="translate(-131.279 -67.239)" fill="#00223d" fill-rule="evenodd"/>
        <path id="Trazado_96116" data-name="Trazado 96116" d="M133.729,93.406h55.522v9.736H133.729a1.732,1.732,0,0,1-1.719-1.735V95.141a1.732,1.732,0,0,1,1.719-1.735Z" transform="translate(-129.766 -66.058)" fill="#eadce4" fill-rule="evenodd"/>
        <path id="Trazado_96117" data-name="Trazado 96117" d="M133.795,89.8h56.969v1.575H135.241a1.732,1.732,0,0,0-1.719,1.735v6.266a1.732,1.732,0,0,0,1.719,1.735h55.522v1.575H133.795a2.305,2.305,0,0,1-2.288-2.288v-8.31a2.305,2.305,0,0,1,2.288-2.288Z" transform="translate(-131.279 -76.908)" fill="#f5ca56" fill-rule="evenodd"/>
        <path id="Trazado_96118" data-name="Trazado 96118" d="M133.729,90.19h55.522v9.736H133.729a1.732,1.732,0,0,1-1.719-1.735V91.925a1.732,1.732,0,0,1,1.719-1.735Z" transform="translate(-129.766 -75.726)" fill="#eadce4" fill-rule="evenodd"/>
        <path id="Trazado_96119" data-name="Trazado 96119" d="M133.738,86.58h56.969v1.575H135.184a1.739,1.739,0,0,0-1.723,1.739v6.262a1.739,1.739,0,0,0,1.723,1.739h55.522v1.575H133.738a2.308,2.308,0,0,1-2.288-2.288V88.868a2.308,2.308,0,0,1,2.288-2.288Z" transform="translate(-131.45 -86.58)" fill="#26aab7" fill-rule="evenodd"/>
        <path id="Trazado_96120" data-name="Trazado 96120" d="M133.675,86.973H189.2v9.74H133.675a1.739,1.739,0,0,1-1.723-1.739V88.712a1.739,1.739,0,0,1,1.723-1.739Z" transform="translate(-129.941 -85.398)" fill="#eadce4" fill-rule="evenodd"/>
      </g>
      <g id="Grupo_46130" data-name="Grupo 46130" transform="translate(15.436)">
        <path id="Trazado_96121" data-name="Trazado 96121" d="M167.506,88.718c2.16,3.942-4.82,25.734-4.82,25.734l-3.678-.08.264-20.405c-9.267,3.49-14.648,0-14.648,0l.264,20.405-3.674.08s-6.979-21.791-4.824-25.734c1.867-3.357,12.629-4.82,15.557-4.527,2.929-.293,13.694,1.17,15.557,4.527Z" transform="translate(-133.273 -43.684)" fill="#00223d" fill-rule="evenodd"/>
        <path id="Trazado_96122" data-name="Trazado 96122" d="M153.153,96.544l-6.979-.16-1.623-.853-.212.853-2.584-.264-.028-4.423,3.678.08s4.9,3.169,6.711,3.169c1.839,0,1.038,1.6,1.038,1.6Z" transform="translate(-115.991 -21.009)" fill="#167377" fill-rule="evenodd"/>
        <path id="Trazado_96123" data-name="Trazado 96123" d="M135.464,96.544l7.007-.16,1.623-.853.216.853,2.556-.264.052-4.423-3.674.08s-4.9,3.169-6.715,3.169c-1.839,0-1.066,1.6-1.066,1.6Z" transform="translate(-135.303 -21.009)" fill="#167377" fill-rule="evenodd"/>
        <path id="Trazado_96124" data-name="Trazado 96124" d="M142.687,102.11h6.126L140.9,93.1l7.753-15.049c-6.11-.172-9.572,8.931-12.3,14.936a2.665,2.665,0,0,0,.493,2.925Z" transform="translate(-132.854 -62.028)" fill="#167377" fill-rule="evenodd"/>
        <path id="Trazado_96125" data-name="Trazado 96125" d="M148.365,101.389l-5.084,3.3,5.245-11.318-7.909-15.317c5.982-.168,9.447,8.085,12.152,13.987a3.763,3.763,0,0,1-.373,3.77Z" transform="translate(-119.328 -62.029)" fill="#167377" fill-rule="evenodd"/>
        <path id="Trazado_96126" data-name="Trazado 96126" d="M139.161,75.87c-.613.08-1.014.905-.906,1.867s.693,1.675,1.306,1.595c.613-.052,1.038-.9.905-1.863-.108-.958-.693-1.679-1.306-1.6Z" transform="translate(-126.479 -68.609)" fill="#ffb699" fill-rule="evenodd"/>
        <path id="Trazado_96127" data-name="Trazado 96127" d="M142.34,75.87c.613.08,1.014.905.906,1.867s-.693,1.675-1.306,1.595c-.613-.052-1.01-.9-.905-1.863s.693-1.679,1.306-1.6Z" transform="translate(-118.123 -68.609)" fill="#ffb699" fill-rule="evenodd"/>
        <path id="Trazado_96128" data-name="Trazado 96128" d="M146.068,77.986h1.707a8.435,8.435,0,0,1,8.418,8.418v15.958a6.146,6.146,0,0,1-6.126,6.126H143.78a6.147,6.147,0,0,1-6.13-6.126V86.4a8.435,8.435,0,0,1,8.418-8.418Z" transform="translate(-128.246 -62.228)" fill="#167377" fill-rule="evenodd"/>
        <path id="Trazado_96129" data-name="Trazado 96129" d="M139.3,77.421h5.116v2.236a2.26,2.26,0,0,1-2.24,2.268h-.613a2.265,2.265,0,0,1-2.264-2.268Z" transform="translate(-123.288 -63.927)" fill="#e58d6e" fill-rule="evenodd"/>
        <path id="Trazado_96130" data-name="Trazado 96130" d="M144.021,74.249c3.117-.052,5.7,3.173,5.781,7.22s-2.4,7.408-5.513,7.46c-3.093.052-5.7-3.2-5.753-7.248-.08-4.047,2.368-7.376,5.485-7.432Z" transform="translate(-125.586 -73.464)" fill="#ffb699" fill-rule="evenodd"/>
        <path id="Trazado_96131" data-name="Trazado 96131" d="M138.137,81.57h20.2a.922.922,0,0,1,.925.893V96.538a.922.922,0,0,1-.925.893h-20.2a.9.9,0,0,1-.925-.893V82.463a.9.9,0,0,1,.925-.893Z" transform="translate(-129.562 -51.453)" fill="#f9eff4" fill-rule="evenodd"/>
        <path id="Trazado_96132" data-name="Trazado 96132" d="M142.159,88.677a2.927,2.927,0,1,0-2.925-2.929,2.945,2.945,0,0,0,2.925,2.929Z" transform="translate(-123.483 -47.686)" fill="#c8c6cc" fill-rule="evenodd"/>
        <path id="Trazado_96133" data-name="Trazado 96133" d="M152.062,77.94s-2.4-3.538-6.214-3.866-6.342,3.534-6.342,3.534a1.8,1.8,0,0,0-1.19,1.847c-.052,1.575,1.438,4.852,1.438,4.852l.3-2.564a3.19,3.19,0,0,0,.8-1.074,2.481,2.481,0,0,0-.164-1.158,11.932,11.932,0,0,0,5.353,1.1,7.2,7.2,0,0,0,2.472-.385,1.242,1.242,0,0,0,.012.441,3.25,3.25,0,0,0,.8,1.074l.3,2.564s1.5-3.277,1.442-4.852a2.177,2.177,0,0,0-.12-.533A8.515,8.515,0,0,0,152.062,77.94Z" transform="translate(-126.247 -74.053)" fill="#00223d"/>
      </g>
    </g>
  </g>
</svg>
