<svg id="Grupo_181222" data-name="Grupo 181222" xmlns="http://www.w3.org/2000/svg" xmlns:xlink="http://www.w3.org/1999/xlink" width="311.804" height="200.684" viewBox="0 0 311.804 200.684">
  <defs>
    <clipPath id="clip-path">
      <rect id="Rectángulo_58880" data-name="Rectángulo 58880" width="311.804" height="200.684" fill="none"/>
    </clipPath>
    <clipPath id="clip-path-4">
      <rect id="Rectángulo_58851" data-name="Rectángulo 58851" width="53.648" height="25.211" fill="none"/>
    </clipPath>
    <clipPath id="clip-path-5">
      <rect id="Rectángulo_58852" data-name="Rectángulo 58852" width="8.448" height="8.448" fill="none"/>
    </clipPath>
    <clipPath id="clip-path-11">
      <rect id="Rectángulo_58876" data-name="Rectángulo 58876" width="26.659" height="25.644" fill="none"/>
    </clipPath>
    <clipPath id="clip-path-12">
      <rect id="Rectángulo_58877" data-name="Rectángulo 58877" width="23.845" height="15.729" fill="none"/>
    </clipPath>
    <clipPath id="clip-path-13">
      <rect id="Rectángulo_58878" data-name="Rectángulo 58878" width="9.76" height="28.965" fill="none"/>
    </clipPath>
  </defs>
  <g id="Grupo_181221" data-name="Grupo 181221" clip-path="url(#clip-path)">
    <g id="Grupo_181187" data-name="Grupo 181187">
      <g id="Grupo_181186" data-name="Grupo 181186" clip-path="url(#clip-path)">
        <path id="Trazado_234423" data-name="Trazado 234423" d="M186.293,28.04a25.719,25.719,0,0,1,6.273-2.726l1.292-6.209,10.491-.184,1.51,6.16a25.7,25.7,0,0,1,6.366,2.5l5.3-3.476,7.549,7.289-3.286,5.42a25.688,25.688,0,0,1,2.726,6.275l6.209,1.292.184,10.491-6.159,1.51a25.717,25.717,0,0,1-2.5,6.365l3.475,5.3L218.432,75.6l-5.421-3.287a25.706,25.706,0,0,1-6.274,2.726l-1.293,6.209-10.491.184-1.51-6.16a25.71,25.71,0,0,1-6.365-2.5l-5.3,3.475-7.549-7.288,3.286-5.42a25.708,25.708,0,0,1-2.726-6.274l-6.209-1.292L168.4,45.479l6.16-1.51a25.729,25.729,0,0,1,2.5-6.365l-3.475-5.3,7.288-7.549Zm5.592,13.976a11.256,11.256,0,1,0,15.916-.28,11.256,11.256,0,0,0-15.916.28" transform="translate(-87.596 -9.842)" fill="#e0e0e0"/>
        <path id="Trazado_234424" data-name="Trazado 234424" d="M94.226,5.788a16.312,16.312,0,0,1,3.981-1.73l.82-3.941L105.685,0l.958,3.909a16.3,16.3,0,0,1,4.04,1.589l3.364-2.206,4.791,4.625-2.085,3.439a16.328,16.328,0,0,1,1.73,3.982l3.94.82.117,6.657-3.909.959a16.33,16.33,0,0,1-1.589,4.039l2.205,3.365-4.625,4.791-3.44-2.086a16.316,16.316,0,0,1-3.982,1.73l-.82,3.941-6.657.117-.959-3.909a16.33,16.33,0,0,1-4.039-1.589L91.36,36.379l-4.79-4.625,2.085-3.439a16.321,16.321,0,0,1-1.73-3.982l-3.94-.82-.117-6.657,3.909-.959a16.311,16.311,0,0,1,1.589-4.039L86.161,8.492,90.785,3.7Zm3.549,8.869a7.143,7.143,0,1,0,10.1-.178,7.143,7.143,0,0,0-10.1.178" transform="translate(-43.106)" fill="#f5f5f5"/>
        <path id="Trazado_234425" data-name="Trazado 234425" d="M574.846,182.623a17.156,17.156,0,0,1,4.186-1.819l.862-4.143,7-.123,1.008,4.11a17.144,17.144,0,0,1,4.247,1.671L595.687,180l5.037,4.863-2.193,3.616a17.144,17.144,0,0,1,1.819,4.187l4.143.862.123,7-4.11,1.008a17.174,17.174,0,0,1-1.671,4.247l2.319,3.538-4.863,5.037-3.617-2.193a17.149,17.149,0,0,1-4.186,1.819l-.863,4.143-7,.123-1.008-4.11a17.156,17.156,0,0,1-4.247-1.671l-3.538,2.319-5.037-4.863,2.193-3.617a17.14,17.14,0,0,1-1.819-4.186l-4.143-.862-.123-7,4.11-1.008A17.148,17.148,0,0,1,568.684,189l-2.319-3.538,4.862-5.037Zm3.731,9.325a7.511,7.511,0,1,0,10.62-.187,7.511,7.511,0,0,0-10.62.187" transform="translate(-292.812 -91.831)" fill="#f5f5f5"/>
        <path id="Trazado_234426" data-name="Trazado 234426" d="M25.253,112.338A18.646,18.646,0,0,1,29.8,110.36l.938-4.505,7.611-.133,1.1,4.469a18.628,18.628,0,0,1,4.618,1.817l3.847-2.522,5.476,5.288-2.384,3.932a18.642,18.642,0,0,1,1.978,4.552l4.5.937.133,7.611-4.469,1.1a18.657,18.657,0,0,1-1.817,4.618l2.521,3.847-5.287,5.477-3.933-2.385a18.631,18.631,0,0,1-4.552,1.978l-.938,4.5-7.611.134-1.1-4.469a18.643,18.643,0,0,1-4.618-1.817l-3.847,2.521L16.5,142.023l2.384-3.933a18.649,18.649,0,0,1-1.978-4.552l-4.5-.938-.133-7.611,4.469-1.1a18.666,18.666,0,0,1,1.817-4.617l-2.521-3.847,5.287-5.477Zm4.057,10.139a8.166,8.166,0,1,0,11.546-.2,8.166,8.166,0,0,0-11.546.2" transform="translate(-6.382 -54.995)" fill="#e0e0e0"/>
      </g>
    </g>
    <g id="Grupo_181195" data-name="Grupo 181195">
      <g id="Grupo_181194" data-name="Grupo 181194" clip-path="url(#clip-path)">
        <path id="Trazado_234427" data-name="Trazado 234427" d="M307.142,235.106H102.876a6.989,6.989,0,0,1-6.99-6.989V97.772a6.99,6.99,0,0,1,6.99-6.99H307.142a6.99,6.99,0,0,1,6.99,6.99V228.117a6.989,6.989,0,0,1-6.99,6.989" transform="translate(-49.878 -47.223)" fill="#455a64"/>
        <path id="Trazado_234428" data-name="Trazado 234428" d="M306.022,384.772H86.648a8.539,8.539,0,0,1-8.539-8.54v-4.089H314.562v4.089a8.54,8.54,0,0,1-8.54,8.54" transform="translate(-40.631 -193.582)" fill="#455a64"/>
        <path id="Trazado_234429" data-name="Trazado 234429" d="M278.472,369.324l2.934,4.667h41.288l2.724-4.667Z" transform="translate(-144.856 -192.116)" fill="#263238"/>
        <path id="Trazado_234430" data-name="Trazado 234430" d="M313.224,228.695H118.5a1.571,1.571,0,0,1-1.57-1.57V112.9a1.571,1.571,0,0,1,1.57-1.57H313.224a1.57,1.57,0,0,1,1.57,1.57V227.125a1.57,1.57,0,0,1-1.57,1.57" transform="translate(-60.827 -57.912)" fill="#ebebeb"/>
        <path id="Trazado_234431" data-name="Trazado 234431" d="M314.353,238.375H116.493l.212-108.764H314.353Z" transform="translate(-60.598 -67.421)" fill="#fff"/>
        <path id="Trazado_234432" data-name="Trazado 234432" d="M147.329,119.065a1.58,1.58,0,1,1-1.58-1.58,1.58,1.58,0,0,1,1.58,1.58" transform="translate(-74.994 -61.114)" fill="#263238"/>
        <path id="Trazado_234433" data-name="Trazado 234433" d="M127.369,119.065a1.58,1.58,0,1,1-1.581-1.58,1.58,1.58,0,0,1,1.581,1.58" transform="translate(-64.611 -61.114)" fill="#263238"/>
        <path id="Trazado_234434" data-name="Trazado 234434" d="M136.95,119.065a1.58,1.58,0,1,1-1.58-1.58,1.58,1.58,0,0,1,1.58,1.58" transform="translate(-69.595 -61.114)" fill="#263238"/>
        <path id="Trazado_234435" data-name="Trazado 234435" d="M312.256,369.171c0,.078-48.44.142-108.18.142-59.761,0-108.191-.063-108.191-.142s48.43-.141,108.191-.141c59.74,0,108.18.063,108.18.141" transform="translate(-49.878 -191.963)" fill="#263238"/>
        <path id="Trazado_234436" data-name="Trazado 234436" d="M466.186,327.62h-2.879a.24.24,0,1,1,0-.48h2.639V324.5a.24.24,0,0,1,.48,0v2.879a.24.24,0,0,1-.24.24" transform="translate(-240.879 -168.675)" fill="#e0e0e0"/>
        <path id="Trazado_234437" data-name="Trazado 234437" d="M409.165,330.741h-5.6a.24.24,0,0,1,0-.48h5.6a.24.24,0,0,1,0,.48m-11.194,0h-5.6a.24.24,0,0,1,0-.48h5.6a.24.24,0,0,1,0,.48m-11.194,0h-5.6a.24.24,0,0,1,0-.48h5.6a.24.24,0,1,1,0,.48m-11.194,0h-5.6a.24.24,0,1,1,0-.48h5.6a.24.24,0,1,1,0,.48" transform="translate(-192.335 -171.796)" fill="#e0e0e0"/>
        <path id="Trazado_234438" data-name="Trazado 234438" d="M355.2,327.62h-2.879a.24.24,0,0,1-.24-.24V324.5a.24.24,0,0,1,.48,0v2.639H355.2a.24.24,0,0,1,0,.48" transform="translate(-183.147 -168.675)" fill="#e0e0e0"/>
        <path id="Trazado_234439" data-name="Trazado 234439" d="M352.322,279.711a.24.24,0,0,1-.24-.24v-6a.24.24,0,0,1,.48,0v6a.24.24,0,0,1-.24.24m0-12a.24.24,0,0,1-.24-.24v-6a.24.24,0,1,1,.48,0v6a.24.24,0,0,1-.24.24m0-12a.24.24,0,0,1-.24-.24v-6a.24.24,0,1,1,.48,0v6a.24.24,0,0,1-.24.24" transform="translate(-183.147 -129.645)" fill="#e0e0e0"/>
        <path id="Trazado_234440" data-name="Trazado 234440" d="M352.322,234.083a.24.24,0,0,1-.24-.24v-2.879a.24.24,0,0,1,.24-.24H355.2a.24.24,0,0,1,0,.48h-2.639v2.639a.24.24,0,0,1-.24.24" transform="translate(-183.147 -120.018)" fill="#e0e0e0"/>
        <path id="Trazado_234441" data-name="Trazado 234441" d="M409.167,231.2h-5.6a.24.24,0,1,1,0-.48h5.6a.24.24,0,0,1,0,.48m-11.194,0h-5.6a.24.24,0,1,1,0-.48h5.6a.24.24,0,0,1,0,.48m-11.194,0h-5.6a.24.24,0,0,1,0-.48h5.6a.24.24,0,0,1,0,.48m-11.194,0h-5.6a.24.24,0,0,1,0-.48h5.6a.24.24,0,0,1,0,.48" transform="translate(-192.336 -120.018)" fill="#e0e0e0"/>
        <path id="Trazado_234442" data-name="Trazado 234442" d="M466.186,234.083a.24.24,0,0,1-.24-.24V231.2h-2.639a.24.24,0,1,1,0-.48h2.879a.24.24,0,0,1,.24.24v2.879a.24.24,0,0,1-.24.24" transform="translate(-240.879 -120.018)" fill="#e0e0e0"/>
        <path id="Trazado_234443" data-name="Trazado 234443" d="M469.307,279.711a.24.24,0,0,1-.24-.24v-6a.24.24,0,0,1,.48,0v6a.24.24,0,0,1-.24.24m0-12a.24.24,0,0,1-.24-.24v-6a.24.24,0,0,1,.48,0v6a.24.24,0,0,1-.24.24m0-12a.24.24,0,0,1-.24-.24v-6a.24.24,0,1,1,.48,0v6a.24.24,0,0,1-.24.24" transform="translate(-244 -129.645)" fill="#e0e0e0"/>
        <path id="Trazado_234444" data-name="Trazado 234444" d="M351.95,27.3a8.362,8.362,0,0,0,.184,7.766c.647,1.135,1.608,2.326,1.259,3.591s-1.861,1.938-2.163,3.2c-.356,1.487,1.123,2.752,1.447,4.241a3.049,3.049,0,0,1-1.971,3.411,11.9,11.9,0,0,0,6.4-.227l.6-2.6a2.146,2.146,0,0,0,1.261,2.337,4.971,4.971,0,0,0,2.841.258,15.194,15.194,0,0,0,11.029-7.572" transform="translate(-182.43 -14.202)" fill="#263238"/>
        <path id="Trazado_234445" data-name="Trazado 234445" d="M378.951,15.6a29.769,29.769,0,0,1-2.255-2.2c-1.371-1.795-1.448-4.508-3.272-5.845-1.3-.951-3.076-.877-4.678-.642s-3.278.583-4.8.058c-1.118-.385-2.04-1.21-3.157-1.6a7.178,7.178,0,0,0-4.944.474,10.243,10.243,0,0,0-4.259,2.923,5.546,5.546,0,0,0-1.181,4.862,16.108,16.108,0,0,1,.8,2.389,17.247,17.247,0,0,1-.265,2.764,4.392,4.392,0,0,0,3.268,4.321l17.287,8.714c2.665-.223,7.671-3.847,8.642-6.335s.649-7.957-1.178-9.885" transform="translate(-182.185 -2.658)" fill="#263238"/>
        <path id="Trazado_234446" data-name="Trazado 234446" d="M356.889,27.26c-1.032-3.347-.371-8.193,3.04-9.106L371.147,16.8a2.047,2.047,0,0,1,2.464,1.282l8.523,23.976a.443.443,0,0,0,.678-.07.144.144,0,0,1,.248.121c-.375,2.228.064,7.425-6.654,7.868-1.5.1-4.45.217-5.288-1.178l-1.594-3.823c-.774-1.97-1.082-2.782-1.076-2.763,0,0-4.469.918-7.406-4.2a61.646,61.646,0,0,1-4.154-10.756" transform="translate(-185.416 -8.702)" fill="#ae7461"/>
        <path id="Trazado_234447" data-name="Trazado 234447" d="M364.652,46.708a.747.747,0,0,0,.946.445.722.722,0,0,0,.487-.908.747.747,0,0,0-.945-.445.722.722,0,0,0-.488.908" transform="translate(-189.667 -23.804)" fill="#263238"/>
        <path id="Trazado_234448" data-name="Trazado 234448" d="M378.82,41.37a.746.746,0,0,0,.946.445.721.721,0,0,0,.487-.908.747.747,0,0,0-.945-.445.722.722,0,0,0-.487.908" transform="translate(-197.036 -21.028)" fill="#263238"/>
        <path id="Trazado_234449" data-name="Trazado 234449" d="M360.663,41.489c.132.089.578-.607,1.423-.867s1.606.038,1.663-.111c.03-.067-.132-.251-.468-.395a2.008,2.008,0,0,0-2.463.78c-.192.312-.218.554-.155.593" transform="translate(-187.594 -20.789)" fill="#263238"/>
        <path id="Trazado_234450" data-name="Trazado 234450" d="M376.166,35.981c.147.07.558-.673,1.426-1.039s1.7-.175,1.744-.328c.025-.07-.16-.229-.527-.326a2.29,2.29,0,0,0-1.453.124,2.242,2.242,0,0,0-1.077.967c-.176.332-.182.573-.112.6" transform="translate(-195.653 -17.802)" fill="#263238"/>
        <path id="Trazado_234451" data-name="Trazado 234451" d="M373.126,43.945a5.4,5.4,0,0,0-1.314.251c-.2.054-.4.086-.48-.032a1.037,1.037,0,0,1-.087-.618q.009-.8.017-1.681a26.772,26.772,0,0,0-.165-4.315,26.923,26.923,0,0,0-.184,4.322c0,.586.006,1.145.01,1.68a1.178,1.178,0,0,0,.185.792.517.517,0,0,0,.425.159,1.41,1.41,0,0,0,.345-.081,5.32,5.32,0,0,0,1.247-.476" transform="translate(-192.942 -19.532)" fill="#263238"/>
        <path id="Trazado_234452" data-name="Trazado 234452" d="M381.465,64.674a15.091,15.091,0,0,0,6.611-4.762s-.4,4.531-6.083,6.126Z" transform="translate(-198.431 -31.165)" fill="#6f4439"/>
        <path id="Trazado_234453" data-name="Trazado 234453" d="M377.777,53.658A1.474,1.474,0,0,1,379,52.936a1.325,1.325,0,0,1,.978.353.835.835,0,0,1,.2.941.988.988,0,0,1-1.014.417,3.042,3.042,0,0,1-1.109-.459.885.885,0,0,1-.262-.2.267.267,0,0,1-.04-.3" transform="translate(-196.481 -27.536)" fill="#6f4439"/>
        <path id="Trazado_234454" data-name="Trazado 234454" d="M379.136,51.108c-.126.04.182.856-.3,1.706s-1.393,1.094-1.356,1.211c.008.056.255.084.629-.048a2.211,2.211,0,0,0,1.15-.964,1.9,1.9,0,0,0,.2-1.41c-.1-.353-.267-.521-.321-.494" transform="translate(-196.356 -26.584)" fill="#263238"/>
        <path id="Trazado_234455" data-name="Trazado 234455" d="M373.254,30.989c.182.144.818-.368,1.687-.771.862-.419,1.659-.586,1.664-.82,0-.109-.222-.215-.6-.233a3.09,3.09,0,0,0-1.414.312,3.123,3.123,0,0,0-1.14.9c-.225.3-.285.541-.2.612" transform="translate(-194.141 -15.17)" fill="#263238"/>
        <path id="Trazado_234456" data-name="Trazado 234456" d="M358.74,36.846c.22.13.851-.237,1.665-.466.808-.251,1.54-.288,1.65-.516.046-.108-.11-.256-.456-.341a2.881,2.881,0,0,0-1.434.077,2.837,2.837,0,0,0-1.237.714c-.24.259-.286.466-.187.532" transform="translate(-186.584 -18.448)" fill="#263238"/>
        <path id="Trazado_234457" data-name="Trazado 234457" d="M375.533,15.848a4.8,4.8,0,0,0-2.889-.408,54.309,54.309,0,0,0-12.565,2.477,2.159,2.159,0,0,0,1.822,2.09,9.805,9.805,0,0,0,3.036-.074,3.787,3.787,0,0,1,2.884.662c.8.718.981,1.932,1.744,2.689,1.312,1.3,3.766.763,5.071,2.074.987.991.888,2.591,1.3,3.927a5.067,5.067,0,0,0,3.221,3.257,5.169,5.169,0,0,0,3.678-.227l-5.588-13.923a4.944,4.944,0,0,0-1.718-2.543" transform="translate(-187.302 -8.01)" fill="#263238"/>
        <path id="Trazado_234458" data-name="Trazado 234458" d="M406.377,21.252c-1.02-.3-2.182-.426-2.9-1.2-1.045-1.135-.7-3.211-1.968-4.1-1.154-.807-2.995.132-4.116-.72-.875-.665-.715-1.7-1.255-2.389a2.352,2.352,0,0,0-2.721-.379l-2.012,11.882c.834,3.272,1,5.144,2.479,6.591a15.611,15.611,0,0,1,2.332,2.462,3.207,3.207,0,0,1,.343,3.222c3.854-1.47,6.431-5.05,8.773-8.44l2.478-3.588a2.758,2.758,0,0,0,.572-1.217c.113-1.057-.987-1.826-2.006-2.125" transform="translate(-203.602 -6.344)" fill="#263238"/>
        <path id="Trazado_234459" data-name="Trazado 234459" d="M388.08,25.674a1.953,1.953,0,0,1-.362.263,3.774,3.774,0,0,1-1.2.467,3.972,3.972,0,0,1-2.021-.1,3.844,3.844,0,0,1-2.078-1.652,3.951,3.951,0,0,1-.544-1.472,6.378,6.378,0,0,1,.045-1.7,6,6,0,0,0,.043-1.759,2.007,2.007,0,0,0-.935-1.47,3.714,3.714,0,0,0-1.922-.059,1.878,1.878,0,0,1-1.067-.207,1.808,1.808,0,0,1-.711-.846,11.494,11.494,0,0,1-.481-2.121,2.294,2.294,0,0,0-.438-.945,1.446,1.446,0,0,0-.889-.494,4.137,4.137,0,0,0-2.116.392,4.482,4.482,0,0,1-2.179.347,3.958,3.958,0,0,1-1.975-.79,6.458,6.458,0,0,1-1.316-1.538,9.037,9.037,0,0,0-1.145-1.486,4.06,4.06,0,0,0-1.49-.894,4.648,4.648,0,0,0-5.2,1.628A5.649,5.649,0,0,0,359.186,13a7.433,7.433,0,0,0-.293,1.677.417.417,0,0,1-.01-.113c0-.074-.009-.186,0-.332a5.363,5.363,0,0,1,.213-1.259A5.611,5.611,0,0,1,360,11.161a4.866,4.866,0,0,1,2.126-1.642,4.915,4.915,0,0,1,3.24-.092,4.255,4.255,0,0,1,1.572.929,9.181,9.181,0,0,1,1.181,1.513,6.271,6.271,0,0,0,1.274,1.483,3.737,3.737,0,0,0,1.862.738,4.248,4.248,0,0,0,2.072-.338,4.34,4.34,0,0,1,2.239-.4,1.686,1.686,0,0,1,1.028.575,2.518,2.518,0,0,1,.485,1.04,11.661,11.661,0,0,0,.464,2.084,1.584,1.584,0,0,0,.615.743,1.647,1.647,0,0,0,.939.179c.333-.015.668-.076,1.013-.092a1.95,1.95,0,0,1,1.021.184,2.21,2.21,0,0,1,1.04,1.626,6.15,6.15,0,0,1-.054,1.82,6.235,6.235,0,0,0-.06,1.647,3.8,3.8,0,0,0,.506,1.412,3.72,3.72,0,0,0,1.976,1.615,3.923,3.923,0,0,0,1.961.133,4.482,4.482,0,0,0,1.575-.639" transform="translate(-186.683 -4.783)" fill="#455a64"/>
        <path id="Trazado_234460" data-name="Trazado 234460" d="M397.8,15.3a.854.854,0,0,1,.264.244,1.452,1.452,0,0,1,.271.99,1.553,1.553,0,0,1-.242.721,1.654,1.654,0,0,1-.7.586,2.051,2.051,0,0,1-2.111-.255,2.706,2.706,0,0,1-.795-1,3.791,3.791,0,0,1-.312-1.343,8.343,8.343,0,0,0-.338-2.907,1.869,1.869,0,0,0-1.028-1.064,2.086,2.086,0,0,0-1.549.221,5.078,5.078,0,0,1-1.688.6,1.54,1.54,0,0,1-.922-.24A2.163,2.163,0,0,1,388,11.17a7.145,7.145,0,0,1-.638-1.7,3.943,3.943,0,0,0-.8-1.479,4.234,4.234,0,0,0-2.791-1.434,6.088,6.088,0,0,0-2.853.636,8.5,8.5,0,0,1-2.527.746,5.42,5.42,0,0,1-2.155-.251,5.308,5.308,0,0,1-1.46-.731,3.841,3.841,0,0,1-.994-.961,7.444,7.444,0,0,0,1.047.885,5.409,5.409,0,0,0,1.448.68,5.347,5.347,0,0,0,2.1.211,8.425,8.425,0,0,0,2.468-.761,6.249,6.249,0,0,1,2.948-.672,4.441,4.441,0,0,1,2.948,1.5,4.165,4.165,0,0,1,.85,1.559,7.038,7.038,0,0,0,.614,1.649,1.515,1.515,0,0,0,1.364.816,4.961,4.961,0,0,0,1.6-.572,2.305,2.305,0,0,1,1.721-.223,2.082,2.082,0,0,1,1.153,1.189,3.978,3.978,0,0,1,.306,1.535c.017.5,0,.986.028,1.447a3.6,3.6,0,0,0,.282,1.28,2.546,2.546,0,0,0,.731.943,1.908,1.908,0,0,0,1.953.268A1.543,1.543,0,0,0,398,17.2a1.475,1.475,0,0,0,.244-.666,1.447,1.447,0,0,0-.217-.954c-.129-.19-.234-.262-.225-.272" transform="translate(-194.436 -3.117)" fill="#263238"/>
        <path id="Trazado_234461" data-name="Trazado 234461" d="M344.321,46.953a1.6,1.6,0,0,0,.466.959,1.407,1.407,0,0,0,1.139.412,1.5,1.5,0,0,0,1.19-1.016,1.351,1.351,0,0,0-.044-.924,2.791,2.791,0,0,0-.582-.866,5.95,5.95,0,0,1-1.535-1.863,3.287,3.287,0,0,1,.128-2.667,3.921,3.921,0,0,1,.874-1.153,5.779,5.779,0,0,1,1.236-.816,7.781,7.781,0,0,0,1.223-.741,1.9,1.9,0,0,0,.71-1.091,2.293,2.293,0,0,0-.152-1.262,4.561,4.561,0,0,0-.631-1.092,9.432,9.432,0,0,1-1.349-2,3.606,3.606,0,0,1-.179-2.106,4.716,4.716,0,0,1,.734-1.589,8.889,8.889,0,0,0,.656-1.122,2.738,2.738,0,0,0,.244-1.065s.009.024.014.072a1.138,1.138,0,0,1,.011.216,2.189,2.189,0,0,1-.184.812,8.162,8.162,0,0,1-.629,1.156,4.668,4.668,0,0,0-.682,1.552,3.456,3.456,0,0,0,.2,2A9.491,9.491,0,0,0,348.52,34.7a4.724,4.724,0,0,1,.668,1.141,2.509,2.509,0,0,1,.168,1.39,2.134,2.134,0,0,1-.79,1.23,7.884,7.884,0,0,1-1.261.768,5.583,5.583,0,0,0-1.188.78,3.688,3.688,0,0,0-.823,1.081,3.076,3.076,0,0,0-.133,2.483,5.878,5.878,0,0,0,1.476,1.811,2.941,2.941,0,0,1,.608.934,1.525,1.525,0,0,1,.032,1.041,1.641,1.641,0,0,1-1.337,1.1,1.547,1.547,0,0,1-1.609-1.213.857.857,0,0,1-.01-.29" transform="translate(-179.106 -14.019)" fill="#263238"/>
        <path id="Trazado_234462" data-name="Trazado 234462" d="M402.186,212.346H347.725a2.2,2.2,0,0,1-2.2-2.2V167.284a2.2,2.2,0,0,1,2.2-2.2h54.461a2.2,2.2,0,0,1,2.2,2.2v42.858a2.2,2.2,0,0,1-2.2,2.2" transform="translate(-179.734 -85.872)" fill="#f5f5f5"/>
        <path id="Trazado_234463" data-name="Trazado 234463" d="M402.05,212.21a3.492,3.492,0,0,0,.529-.08,2.2,2.2,0,0,0,1.256-.878,2.177,2.177,0,0,0,.379-1.07c.016-.423,0-.9,0-1.4,0-1.016-.007-2.187-.012-3.506-.01-5.28-.023-12.911-.04-22.34,0-4.717-.01-9.882-.015-15.427a2.955,2.955,0,0,0-.1-1,2.1,2.1,0,0,0-1.378-1.363,3.3,3.3,0,0,0-1.03-.093l-4.365,0-9.112.005-40.571.01a2.084,2.084,0,0,0-1.955,1.363,3.423,3.423,0,0,0-.129,1.28v1.335q0,2.665,0,5.295,0,5.257,0,10.352c0,6.787,0,13.333-.008,19.569q0,2.338,0,4.618v1.135a2.092,2.092,0,0,0,2.005,2.08l8.59.011,15.428.015,22.339.04,6.074.024,1.58.012c.356,0,.538.013.538.013s-.182.009-.538.013l-1.58.012-6.074.023-22.339.04-15.428.015h-8.6a2.312,2.312,0,0,1-1.916-1.166,2.342,2.342,0,0,1-.3-1.132q0-.566,0-1.136,0-2.279,0-4.618c0-6.236,0-12.783-.007-19.569q0-5.09,0-10.352,0-2.629,0-5.295v-1.335a3.628,3.628,0,0,1,.145-1.366,2.333,2.333,0,0,1,2.188-1.527l40.571.01,9.112.005,4.365,0a3.471,3.471,0,0,1,1.092.1,2.313,2.313,0,0,1,1.514,1.5,3.178,3.178,0,0,1,.11,1.065c-.005,5.545-.011,10.711-.015,15.427-.017,9.428-.03,17.06-.039,22.34,0,1.318-.008,2.489-.012,3.506-.006.509,0,.974-.015,1.407a2.213,2.213,0,0,1-1.69,1.967,1.77,1.77,0,0,1-.535.055" transform="translate(-179.597 -85.736)" fill="#263238"/>
        <rect id="Rectángulo_58850" data-name="Rectángulo 58850" width="40.323" height="53.648" transform="matrix(0.004, -1, 1, 0.004, 168.463, 123.232)" fill="#455a64"/>
        <g id="Grupo_181190" data-name="Grupo 181190" transform="translate(168.463 98.245)" opacity="0.2">
          <g id="Grupo_181189" data-name="Grupo 181189">
            <g id="Grupo_181188" data-name="Grupo 181188" clip-path="url(#clip-path-4)">
              <path id="Trazado_234464" data-name="Trazado 234464" d="M351.1,229.742l18.842-24.986,11.542,15.73,7.908-8.35,15.356,17.831Z" transform="translate(-351.097 -204.755)"/>
            </g>
          </g>
        </g>
        <g id="Grupo_181193" data-name="Grupo 181193" transform="translate(195.405 91.002)" opacity="0.2">
          <g id="Grupo_181192" data-name="Grupo 181192">
            <g id="Grupo_181191" data-name="Grupo 181191" clip-path="url(#clip-path-5)">
              <path id="Trazado_234465" data-name="Trazado 234465" d="M415.7,193.9a4.224,4.224,0,1,1-4.207-4.242A4.224,4.224,0,0,1,415.7,193.9" transform="translate(-407.247 -189.66)"/>
            </g>
          </g>
        </g>
        <path id="Trazado_234466" data-name="Trazado 234466" d="M352.475,77.467s-.294-.591,1.381-2.471S367.1,68.835,367.1,68.835s4.5,5.442,8.682,1.7a11,11,0,0,0,3.522-6.016s10.215-.573,10.431.1l2.734,12.842-4.8.028Z" transform="translate(-183.341 -33.445)" fill="#f4a338"/>
        <path id="Trazado_234467" data-name="Trazado 234467" d="M403.239,120.143l17.784-17.761-2.267-9.714,9.566-2.814s2.833,13.566,2.454,15.954c-.733,4.623-22.556,17.833-22.556,17.833Z" transform="translate(-209.758 -46.74)" fill="#ae7461"/>
        <path id="Trazado_234468" data-name="Trazado 234468" d="M429.133,64.57a12.926,12.926,0,0,1,7.772,3.841C440.591,72.206,445,82.158,445,82.158L432.507,85.2Z" transform="translate(-223.227 -33.588)" fill="#f4a338"/>
        <path id="Trazado_234469" data-name="Trazado 234469" d="M389.213,154.923l-4.992,3.116s-2.517,4.188-2.874,5.238a29.189,29.189,0,0,0-.708,3.679s1.087.993,1.531-.539l.511-1.174-.431,2.726s1.1.854,1.642-.6a17.6,17.6,0,0,0,.775-2.83l1.706-2.344-1.721,5.606s-.327,1.129.678,1.029c.4-.039,1.286-2.013,1.286-2.013s.728.947,1.336.094,2.973-4.2,2.973-4.2,3.185-3.937,3.2-4.041c0-.021,2.342-2.2,2.342-2.2l-4.981-3.5-2.156,1.832a.386.386,0,0,1-.114.109" transform="translate(-198.001 -79.578)" fill="#ae7461"/>
        <path id="Trazado_234470" data-name="Trazado 234470" d="M384.027,175.9a1.853,1.853,0,0,0,.073-.315l.162-.866.227-1.286.131-.761a4.1,4.1,0,0,1,.247-.778,13.969,13.969,0,0,1,1.45-2.5c.214-.3.395-.544.519-.711a2,2,0,0,0,.188-.263,1.862,1.862,0,0,0-.22.238c-.134.159-.325.392-.548.692a12.587,12.587,0,0,0-1.487,2.5,4.084,4.084,0,0,0-.251.8c-.043.263-.084.518-.124.762-.077.481-.146.917-.205,1.291-.052.354-.1.648-.129.872a1.882,1.882,0,0,0-.033.322" transform="translate(-199.763 -87.609)" fill="#6f4439"/>
        <path id="Trazado_234471" data-name="Trazado 234471" d="M395.418,171.773a.747.747,0,0,0-.116.164c-.069.109-.166.268-.284.467-.236.4-.557.952-.909,1.572l0,0v0l-.045.11c-.28.686-.527,1.308-.7,1.761-.087.226-.155.411-.2.539a.827.827,0,0,0-.06.2.814.814,0,0,0,.1-.187c.057-.123.136-.3.232-.526.192-.446.451-1.064.73-1.75l.045-.11,0,.006c.351-.621.661-1.182.88-1.589.11-.2.2-.368.255-.483a.759.759,0,0,0,.081-.184" transform="translate(-204.482 -89.353)" fill="#6f4439"/>
        <path id="Trazado_234472" data-name="Trazado 234472" d="M339.3,87.071c.023.051.044.1.063.155a2.747,2.747,0,0,1,.151.745,2.411,2.411,0,0,0,.017.359,1.345,1.345,0,0,0,.1.212,3.6,3.6,0,0,1,.131,1.483,2.837,2.837,0,0,0,.274,1.588,1.047,1.047,0,0,0,1.4.43.714.714,0,0,0,.534.779,1.032,1.032,0,0,0,.951-.3,1.92,1.92,0,0,0,.476-.911.788.788,0,0,0,.785.762,1.215,1.215,0,0,0,1-.611,2.793,2.793,0,0,0,.344-1.163,13.794,13.794,0,0,1,.246-1.557s.512.082.745.1c.316.03.068.007.068.007a3.314,3.314,0,0,0,.49-.85c.326-.671.575-1.1.824-1.706.187-.456.308-.912.025-1.209-.679-.715-2.008.739-2.008.739-.188-.506-1.732-.589-2.032.085-.122-.371-.076-.586-.377-.836a1.245,1.245,0,0,0-1.094-.275.891.891,0,0,0-.664.857,1.466,1.466,0,0,0-2.658.438.6.6,0,0,0-.036.2.251.251,0,0,0,.032.089c.069.129.159.244.22.379" transform="translate(-176.368 -44.252)" fill="#ae7461"/>
        <path id="Trazado_234473" data-name="Trazado 234473" d="M334.856,87.354a1.171,1.171,0,0,0-.927.308,1.916,1.916,0,0,0-.289,1.284c.466.088.707.105,1.173.193.1.018.18-.006.262.051.215.153.18.667.267.916a.9.9,0,0,0,1.132.484,1.2,1.2,0,0,0,.726-1.071,1.858,1.858,0,0,0-.474-1.253,2.6,2.6,0,0,0-1.87-.913" transform="translate(-173.549 -45.439)" fill="#ae7461"/>
        <path id="Trazado_234474" data-name="Trazado 234474" d="M344.076,86.7a15.42,15.42,0,0,1,0,3.114,15.445,15.445,0,0,1-.317,3.1,15.415,15.415,0,0,1,0-3.115,15.435,15.435,0,0,1,.317-3.1" transform="translate(-178.783 -45.1)" fill="#6f4439"/>
        <path id="Trazado_234475" data-name="Trazado 234475" d="M348.6,87.337a8.774,8.774,0,0,1,.06,2.827,8.782,8.782,0,0,1-.543,2.774,23,23,0,0,1,.227-2.8,23.006,23.006,0,0,1,.255-2.8" transform="translate(-181.07 -45.431)" fill="#6f4439"/>
        <path id="Trazado_234476" data-name="Trazado 234476" d="M352.938,87.337a6.564,6.564,0,0,1-.038,2.335,9.185,9.185,0,0,1-.442,2.289,8.262,8.262,0,0,1,.129-2.327,12.923,12.923,0,0,1,.352-2.3" transform="translate(-183.32 -45.431)" fill="#6f4439"/>
        <path id="Trazado_234477" data-name="Trazado 234477" d="M337.582,87.858c0-.037.224-.088.546.059a1.751,1.751,0,0,1,.856,1A3.512,3.512,0,0,1,339.2,90.2c-.038.386-.319.5-.325.448-.024-.035.127-.168.1-.455a6.285,6.285,0,0,0-.285-1.164,1.9,1.9,0,0,0-.671-.92c-.243-.171-.44-.206-.435-.254" transform="translate(-175.604 -45.682)" fill="#6f4439"/>
      </g>
    </g>
    <g id="Grupo_181197" data-name="Grupo 181197">
      <g id="Grupo_181196" data-name="Grupo 181196" clip-path="url(#clip-path)">
        <path id="Trazado_234478" data-name="Trazado 234478" d="M244.124,286.872H176.412a4.151,4.151,0,0,1-4.15-4.15V248.763a4.151,4.151,0,0,1,4.15-4.15h67.712a4.151,4.151,0,0,1,4.15,4.15v33.958a4.151,4.151,0,0,1-4.15,4.15" transform="translate(-89.608 -127.243)" fill="#fff"/>
        <path id="Trazado_234479" data-name="Trazado 234479" d="M243.988,286.736c0-.012.2,0,.588-.06a4.065,4.065,0,0,0,1.607-.6,4.113,4.113,0,0,0,1.7-2.164,4.821,4.821,0,0,0,.216-1.767q0-.965-.006-2.054c-.01-5.809-.023-14.207-.04-24.583q0-1.946,0-3.983,0-1.018,0-2.059a6.5,6.5,0,0,0-.189-2.055,4.08,4.08,0,0,0-2.979-2.73,4.683,4.683,0,0,0-1.08-.1h-1.119l-2.269,0-19.483.012-44.644.01a4.065,4.065,0,0,0-2.634.982,3.98,3.98,0,0,0-1.347,2.446,10.46,10.46,0,0,0-.049,1.443q0,.731,0,1.459v2.9q0,5.785,0,11.391t0,10.994q0,2.695,0,5.33c.006.436-.014.885.013,1.306a3.945,3.945,0,0,0,.278,1.233,4.037,4.037,0,0,0,1.583,1.9,4.111,4.111,0,0,0,2.372.631h2.524l4.946,0,9.458.006,16.976.015,24.581.04,6.683.023,1.738.012c.392,0,.592.013.592.013s-.2.009-.592.013l-1.738.012-6.683.023-24.581.04-16.976.015-9.458.006-4.946,0h-2.524a4.339,4.339,0,0,1-2.5-.665,4.268,4.268,0,0,1-1.676-2.01,4.168,4.168,0,0,1-.3-1.3c-.029-.452-.008-.879-.015-1.321q0-2.636,0-5.33,0-5.388,0-10.994t0-11.391q0-1.447,0-2.9v-1.459a10.633,10.633,0,0,1,.052-1.48,4.229,4.229,0,0,1,1.431-2.6,4.312,4.312,0,0,1,2.8-1.042l44.644.01,19.483.012,2.269,0H243.8a4.922,4.922,0,0,1,1.123.106,4.277,4.277,0,0,1,3.119,2.868,6.673,6.673,0,0,1,.194,2.113q0,1.041,0,2.059,0,2.037,0,3.983c-.017,10.376-.03,18.773-.04,24.583q0,1.088-.005,2.054a4.889,4.889,0,0,1-.232,1.791,4.157,4.157,0,0,1-1.74,2.183,4.021,4.021,0,0,1-1.63.585,3.027,3.027,0,0,1-.442.033c-.1,0-.149,0-.149,0" transform="translate(-89.471 -127.108)" fill="#263238"/>
        <rect id="Rectángulo_58854" data-name="Rectángulo 58854" width="11.291" height="2.129" transform="translate(90.764 124.51)" fill="#4adbd1"/>
        <rect id="Rectángulo_58855" data-name="Rectángulo 58855" width="11.291" height="2.13" transform="translate(90.764 150.607)" fill="#4adbd1"/>
        <rect id="Rectángulo_58856" data-name="Rectángulo 58856" width="19.439" height="2.13" transform="translate(90.764 129.789)" fill="#e0e0e0"/>
        <rect id="Rectángulo_58857" data-name="Rectángulo 58857" width="8.592" height="2.13" transform="translate(113.646 129.789)" fill="#4adbd1"/>
        <rect id="Rectángulo_58858" data-name="Rectángulo 58858" width="5.649" height="2.13" transform="translate(142.191 129.789)" fill="#263238"/>
        <rect id="Rectángulo_58859" data-name="Rectángulo 58859" width="14.961" height="2.13" transform="translate(125.259 129.789)" fill="#455a64"/>
        <rect id="Rectángulo_58860" data-name="Rectángulo 58860" width="19.439" height="2.129" transform="translate(128.4 134.826)" fill="#e0e0e0"/>
        <rect id="Rectángulo_58861" data-name="Rectángulo 58861" width="8.592" height="2.129" transform="translate(116.365 134.826)" fill="#455a64"/>
        <rect id="Rectángulo_58862" data-name="Rectángulo 58862" width="5.649" height="2.129" transform="translate(90.764 134.826)" fill="#263238"/>
        <rect id="Rectángulo_58863" data-name="Rectángulo 58863" width="14.961" height="2.129" transform="translate(98.384 134.826)" fill="#4adbd1"/>
        <rect id="Rectángulo_58864" data-name="Rectángulo 58864" width="19.439" height="2.13" transform="translate(90.764 139.997)" fill="#e0e0e0"/>
        <rect id="Rectángulo_58865" data-name="Rectángulo 58865" width="8.592" height="2.13" transform="translate(113.646 139.997)" fill="#263238"/>
        <rect id="Rectángulo_58866" data-name="Rectángulo 58866" width="5.649" height="2.13" transform="translate(142.191 139.998)" fill="#263238"/>
        <rect id="Rectángulo_58867" data-name="Rectángulo 58867" width="5.649" height="2.129" transform="translate(109.231 145.267)" fill="#4adbd1"/>
        <rect id="Rectángulo_58868" data-name="Rectángulo 58868" width="14.961" height="2.13" transform="translate(125.259 139.997)" fill="#455a64"/>
        <rect id="Rectángulo_58869" data-name="Rectángulo 58869" width="14.961" height="2.129" transform="translate(90.356 145.267)" fill="#455a64"/>
      </g>
    </g>
    <g id="Grupo_181199" data-name="Grupo 181199">
      <g id="Grupo_181198" data-name="Grupo 181198" clip-path="url(#clip-path)">
        <path id="Trazado_234480" data-name="Trazado 234480" d="M441.419,305.909H417.752a3.887,3.887,0,0,1-3.887-3.887V279.264a3.887,3.887,0,0,1,3.887-3.887h23.666a3.887,3.887,0,0,1,3.887,3.887v22.758a3.888,3.888,0,0,1-3.887,3.887" transform="translate(-215.285 -143.246)" fill="#fafafa"/>
        <path id="Trazado_234481" data-name="Trazado 234481" d="M441.286,305.773a5.248,5.248,0,0,0,1.165-.2,3.994,3.994,0,0,0,1.249-.686,3.831,3.831,0,0,0,1.4-2.679c.029-.4.006-.841.011-1.29q0-1.355-.011-2.937c-.005-2.109-.012-4.508-.018-7.16s-.01-5.559-.015-8.678q0-1.17,0-2.378a7.758,7.758,0,0,0-.049-1.2,3.555,3.555,0,0,0-.365-1.139,3.758,3.758,0,0,0-1.723-1.688,3.638,3.638,0,0,0-1.2-.351c-.413-.043-.855-.024-1.292-.028l-22.82.01a3.76,3.76,0,0,0-3.76,3.655q0,2.955-.008,5.819c0,3.817,0,7.5-.007,11.008q0,2.631-.005,5.125c.006.412-.015.836.014,1.228a3.974,3.974,0,0,0,.276,1.147,3.806,3.806,0,0,0,3.6,2.326l2.215,0,4.164.008,12.565.04,3.416.024.888.012c.2,0,.3.013.3.013s-.1.009-.3.013l-.888.012-3.416.024-12.565.04-4.164.008-2.215,0a4.013,4.013,0,0,1-3.8-2.444,4.186,4.186,0,0,1-.295-1.212c-.032-.425-.011-.827-.018-1.246q0-2.492-.005-5.125c0-3.508,0-7.19-.007-11.008q0-2.864,0-5.826a4.009,4.009,0,0,1,4.009-3.9l22.82.01c.439,0,.87-.014,1.319.032a3.855,3.855,0,0,1,1.267.374,3.976,3.976,0,0,1,1.82,1.791,4.726,4.726,0,0,1,.431,2.438q0,1.208,0,2.378c-.006,3.119-.011,6.024-.015,8.678s-.013,5.051-.019,7.16q-.005,1.58-.01,2.937c-.009.453.012.879-.022,1.3a4.032,4.032,0,0,1-.278,1.152,3.841,3.841,0,0,1-3.343,2.407c-.2.006-.3,0-.3,0" transform="translate(-215.152 -143.11)" fill="#263238"/>
        <path id="Trazado_234482" data-name="Trazado 234482" d="M428.327,290.371H445.47l.028,5.742h-.82q-.4-3.081-2.308-4.169a7.106,7.106,0,0,0-3.2-.655v15a2.9,2.9,0,0,0,.549,2.087,3.528,3.528,0,0,0,2.287.515v.723h-10.15v-.723a3.347,3.347,0,0,0,2.218-.522,2.9,2.9,0,0,0,.549-2.08v-15a7.289,7.289,0,0,0-3.2.655q-2.044,1.116-2.308,4.169h-.82Z" transform="translate(-222.793 -151.046)" fill="#263238"/>
      </g>
    </g>
    <g id="Grupo_181201" data-name="Grupo 181201">
      <g id="Grupo_181200" data-name="Grupo 181200" clip-path="url(#clip-path)">
        <path id="Trazado_234483" data-name="Trazado 234483" d="M490.505,175.8V233.21a3.087,3.087,0,0,0,3.087,3.087H530.6a3.087,3.087,0,0,0,3.087-3.087V175.8a3.087,3.087,0,0,0-3.087-3.087H493.592a3.087,3.087,0,0,0-3.087,3.087" transform="translate(-255.152 -89.841)" fill="#fff"/>
        <path id="Trazado_234484" data-name="Trazado 234484" d="M490.383,175.688s0-.046,0-.136a2.316,2.316,0,0,1,.036-.4,3.061,3.061,0,0,1,.641-1.433,3.1,3.1,0,0,1,2.241-1.146c1.018-.021,2.185-.012,3.5-.02l22.314-.04,7.394-.008,3.933,0a3.2,3.2,0,0,1,3.116,2.369,3.649,3.649,0,0,1,.11,1.06q0,.524,0,1.052,0,1.057,0,2.13,0,2.146,0,4.36,0,4.426,0,9.1c0,12.456.007,26.15.01,40.523a3.236,3.236,0,0,1-1.14,2.458,3.162,3.162,0,0,1-1.222.642,4.763,4.763,0,0,1-1.356.117h-5.288l-10.34,0L494.8,236.3h-1.165a3.534,3.534,0,0,1-1.176-.165,3.187,3.187,0,0,1-2.155-2.591,9.445,9.445,0,0,1-.034-1.14q0-1.123,0-2.229,0-4.426.006-8.585c.006-5.539.011-10.7.015-15.41.017-9.417.03-17.039.04-22.313.01-2.63.018-4.674.024-6.066.005-.689.009-1.217.012-1.578s.013-.537.013-.537.009.182.013.537.007.888.012,1.578c.006,1.392.013,3.436.024,6.066.01,5.274.023,12.9.04,22.313,0,4.711.01,9.871.015,15.41q0,4.154.006,8.585,0,1.106,0,2.229a9.283,9.283,0,0,0,.033,1.109,2.959,2.959,0,0,0,2.005,2.405,3.288,3.288,0,0,0,1.1.153H494.8l19.546-.007,10.34,0h5.288a4.542,4.542,0,0,0,1.29-.108,2.908,2.908,0,0,0,1.127-.592,2.985,2.985,0,0,0,1.052-2.267c0-14.373.007-28.067.01-40.523q0-4.671.005-9.1,0-2.212,0-4.36,0-1.074,0-2.13,0-.528,0-1.052a3.431,3.431,0,0,0-.1-1.007,3,3,0,0,0-2.916-2.222l-3.933,0-7.394-.008-22.314-.04c-1.316,0-2.489-.016-3.5,0a3.053,3.053,0,0,0-2.206,1.1,3.093,3.093,0,0,0-.655,1.405c-.066.348-.047.534-.062.533" transform="translate(-255.03 -89.731)" fill="#263238"/>
        <path id="Trazado_234485" data-name="Trazado 234485" d="M514.261,237.816h-.136a1.176,1.176,0,0,1-1.177-1.177V196.887a1.176,1.176,0,0,1,1.177-1.176h.136a1.177,1.177,0,0,1,1.177,1.176v39.753a1.177,1.177,0,0,1-1.177,1.177" transform="translate(-266.826 -101.805)" fill="#e0e0e0"/>
        <path id="Trazado_234486" data-name="Trazado 234486" d="M514.1,237.656a1.278,1.278,0,0,0,.784-.34c.514-.389.306-1.331.337-2.414-.011-2.221-.026-5.409-.046-9.341-.009-3.948-.019-8.642-.031-13.853,0-2.607-.006-5.344-.009-8.18q0-2.128,0-4.327,0-1.1,0-2.213a1.989,1.989,0,0,0-.034-.519,1,1,0,0,0-.229-.429,1.074,1.074,0,0,0-.9-.346,1.039,1.039,0,0,0-.845.437,1.017,1.017,0,0,0-.179.452c-.02.152-.008.357-.012.538q0,1.114,0,2.214,0,2.2,0,4.328c0,2.837-.006,5.574-.009,8.182-.012,5.211-.022,9.906-.031,13.854-.019,3.933-.035,7.12-.046,9.34q-.007.823-.012,1.465a1.146,1.146,0,0,0,.451.9,1.165,1.165,0,0,0,.595.236c.146.014.224.012.224.019a1.165,1.165,0,0,1-.226.01,1.15,1.15,0,0,1-.627-.218,1.206,1.206,0,0,1-.5-.943c0-.427-.009-.917-.014-1.466-.011-2.221-.026-5.408-.046-9.34-.009-3.948-.019-8.642-.031-13.854,0-2.608-.006-5.345-.009-8.182q0-2.128,0-4.328,0-1.1,0-2.214a5.43,5.43,0,0,1,.014-.577,1.3,1.3,0,0,1,.229-.579,1.325,1.325,0,0,1,1.079-.558,1.366,1.366,0,0,1,1.118.441,1.292,1.292,0,0,1,.293.548,2.266,2.266,0,0,1,.043.591q0,1.114,0,2.213,0,2.2,0,4.327c0,2.837-.006,5.573-.008,8.18-.012,5.211-.022,9.9-.031,13.853-.019,3.932-.035,7.12-.046,9.341q-.008.824-.013,1.466a1.234,1.234,0,0,1-.4.99,1.054,1.054,0,0,1-.823.3" transform="translate(-266.67 -101.645)" fill="#263238"/>
        <path id="Trazado_234487" data-name="Trazado 234487" d="M534.226,237.816h-.136a1.177,1.177,0,0,1-1.177-1.177V196.887a1.177,1.177,0,0,1,1.177-1.176h.136a1.177,1.177,0,0,1,1.177,1.176v39.753a1.177,1.177,0,0,1-1.177,1.177" transform="translate(-277.211 -101.805)" fill="#e0e0e0"/>
        <path id="Trazado_234488" data-name="Trazado 234488" d="M534.069,237.656a1.278,1.278,0,0,0,.784-.34c.514-.389.306-1.331.337-2.414-.011-2.221-.026-5.409-.046-9.341-.009-3.948-.019-8.642-.031-13.853,0-2.607-.006-5.344-.009-8.18q0-2.128,0-4.327,0-1.1,0-2.213a1.974,1.974,0,0,0-.034-.519,1,1,0,0,0-.229-.429,1.074,1.074,0,0,0-.9-.346,1.039,1.039,0,0,0-.844.437,1.017,1.017,0,0,0-.18.452c-.02.152-.008.357-.011.538q0,1.114,0,2.214,0,2.2,0,4.328c0,2.837-.006,5.574-.009,8.182-.012,5.211-.022,9.906-.031,13.854-.019,3.933-.035,7.12-.046,9.34q-.007.823-.012,1.465a1.147,1.147,0,0,0,.451.9,1.166,1.166,0,0,0,.595.236c.146.014.224.012.224.019a1.166,1.166,0,0,1-.226.01,1.15,1.15,0,0,1-.627-.218,1.206,1.206,0,0,1-.5-.943c0-.427-.009-.917-.014-1.466-.011-2.221-.026-5.408-.046-9.34-.009-3.948-.019-8.642-.031-13.854,0-2.608-.006-5.345-.009-8.182q0-2.128,0-4.328,0-1.1,0-2.214a5.4,5.4,0,0,1,.014-.577,1.3,1.3,0,0,1,.229-.579,1.326,1.326,0,0,1,1.079-.558,1.366,1.366,0,0,1,1.118.441,1.3,1.3,0,0,1,.294.548,2.256,2.256,0,0,1,.043.591q0,1.114,0,2.213,0,2.2,0,4.327c0,2.837-.005,5.573-.008,8.18-.012,5.211-.022,9.9-.031,13.853-.019,3.932-.035,7.12-.046,9.341q-.008.824-.013,1.466a1.232,1.232,0,0,1-.4.99,1.053,1.053,0,0,1-.823.3" transform="translate(-277.055 -101.645)" fill="#263238"/>
        <path id="Trazado_234489" data-name="Trazado 234489" d="M554.191,237.816h-.136a1.177,1.177,0,0,1-1.177-1.177V196.887a1.177,1.177,0,0,1,1.177-1.176h.136a1.177,1.177,0,0,1,1.176,1.176v39.753a1.177,1.177,0,0,1-1.176,1.177" transform="translate(-287.597 -101.805)" fill="#e0e0e0"/>
        <path id="Trazado_234490" data-name="Trazado 234490" d="M554.034,237.656a1.278,1.278,0,0,0,.784-.34c.514-.389.306-1.331.337-2.414-.011-2.221-.026-5.409-.046-9.341-.009-3.948-.019-8.642-.031-13.853,0-2.607-.006-5.344-.009-8.18q0-2.128,0-4.327,0-1.1,0-2.213a1.993,1.993,0,0,0-.035-.519,1,1,0,0,0-.229-.429,1.074,1.074,0,0,0-.9-.346,1.039,1.039,0,0,0-.844.437,1.016,1.016,0,0,0-.179.452c-.02.152-.008.357-.012.538q0,1.114,0,2.214,0,2.2,0,4.328c0,2.837-.006,5.574-.009,8.182-.011,5.211-.022,9.906-.031,13.854-.019,3.933-.034,7.12-.046,9.34q-.007.823-.012,1.465a1.147,1.147,0,0,0,.451.9,1.165,1.165,0,0,0,.595.236c.146.014.224.012.224.019a1.166,1.166,0,0,1-.226.01,1.148,1.148,0,0,1-.626-.218,1.2,1.2,0,0,1-.5-.943c0-.427-.009-.917-.014-1.466-.01-2.221-.026-5.408-.046-9.34-.009-3.948-.019-8.642-.031-13.854,0-2.608-.005-5.345-.009-8.182q0-2.128,0-4.328,0-1.1,0-2.214a5.445,5.445,0,0,1,.014-.577,1.3,1.3,0,0,1,.229-.579,1.326,1.326,0,0,1,1.079-.558,1.367,1.367,0,0,1,1.118.441,1.3,1.3,0,0,1,.293.548,2.267,2.267,0,0,1,.043.591q0,1.114,0,2.213,0,2.2,0,4.327c0,2.837-.005,5.573-.008,8.18-.011,5.211-.022,9.9-.031,13.853-.019,3.932-.035,7.12-.046,9.341q-.007.824-.013,1.466a1.232,1.232,0,0,1-.4.99,1.053,1.053,0,0,1-.823.3" transform="translate(-287.44 -101.645)" fill="#263238"/>
        <path id="Trazado_234491" data-name="Trazado 234491" d="M512.09,231.588h-.456a2.421,2.421,0,0,1,0-4.843h.456a2.421,2.421,0,1,1,0,4.843" transform="translate(-264.883 -117.949)" fill="#12263f"/>
        <path id="Trazado_234492" data-name="Trazado 234492" d="M533.359,250.615H532.9a2.421,2.421,0,1,1,0-4.843h.456a2.421,2.421,0,0,1,0,4.843" transform="translate(-275.946 -127.846)" fill="#12263f"/>
        <path id="Trazado_234493" data-name="Trazado 234493" d="M552.6,214.755h-.456a2.421,2.421,0,0,1-2.422-2.421h0a2.422,2.422,0,0,1,2.422-2.421h.456a2.421,2.421,0,0,1,0,4.843" transform="translate(-285.955 -109.192)" fill="#12263f"/>
      </g>
    </g>
    <g id="Grupo_181209" data-name="Grupo 181209">
      <g id="Grupo_181208" data-name="Grupo 181208" clip-path="url(#clip-path)">
        <path id="Trazado_234494" data-name="Trazado 234494" d="M533.664,94.084H482.358a4,4,0,0,1-4-4V38.78a4,4,0,0,1,4-4h51.306a4,4,0,0,1,4,4V90.086a4,4,0,0,1-4,4" transform="translate(-248.834 -18.093)" fill="#fff"/>
        <path id="Trazado_234495" data-name="Trazado 234495" d="M533.527,93.949c0-.012.2,0,.59-.061a3.97,3.97,0,0,0,3.219-2.861,6.079,6.079,0,0,0,.146-1.786q0-.969-.005-2.062c-.01-5.833-.023-14.265-.04-24.682,0-5.21-.01-10.918-.015-17.044q0-2.3,0-4.672c-.006-.788.012-1.6-.014-2.386a3.88,3.88,0,0,0-2.8-3.48,9.412,9.412,0,0,0-2.454-.154l-5.1,0-44.824.01a3.881,3.881,0,0,0-3.861,3.528c-.035,1.94-.01,3.907-.018,5.838q0,5.808,0,11.437c0,7.5,0,14.731-.007,21.621q0,5.168-.005,10.068,0,1.224,0,2.43a4.016,4.016,0,0,0,.545,2.237,3.679,3.679,0,0,0,.723.89,3.622,3.622,0,0,0,.942.637,4.462,4.462,0,0,0,2.211.387l17.045.015,24.68.04,6.71.024,1.745.012c.393,0,.594.013.594.013s-.2.009-.594.013l-1.745.012-6.71.024-24.68.04-17.045.015a4.677,4.677,0,0,1-2.3-.4,3.821,3.821,0,0,1-.994-.67,3.907,3.907,0,0,1-.764-.937,4.24,4.24,0,0,1-.577-2.346q0-1.206,0-2.43,0-4.9-.005-10.068c0-6.89,0-14.122-.007-21.621q0-5.624,0-11.437c.008-1.941-.019-3.876.018-5.861a4.131,4.131,0,0,1,4.11-3.756l44.824.01,5.1,0h1.254a4.355,4.355,0,0,1,1.262.164,4.1,4.1,0,0,1,2.952,3.68c.026.817.006,1.605.012,2.4q0,2.374,0,4.672c-.006,6.126-.011,11.834-.015,17.044-.017,10.418-.03,18.85-.04,24.682q0,1.093-.006,2.062a6.131,6.131,0,0,1-.16,1.807A4.044,4.044,0,0,1,535.75,93.3a3.971,3.971,0,0,1-1.628.61,2.973,2.973,0,0,1-.444.035c-.1,0-.15,0-.15,0" transform="translate(-248.697 -17.958)" fill="#263238"/>
        <path id="Trazado_234502" data-name="Trazado 234502" d="M505.487,114.624a5.3,5.3,0,1,1-5.3-5.3,5.3,5.3,0,0,1,5.3,5.3" transform="translate(-257.431 -56.868)" fill="#ff725e"/>
        <path id="Trazado_234503" data-name="Trazado 234503" d="M539.711,114.624a5.3,5.3,0,1,1-5.3-5.3,5.3,5.3,0,0,1,5.3,5.3" transform="translate(-275.234 -56.868)" fill="#5573c6"/>
        <path id="Trazado_234577" data-name="Trazado 234577" d="M551.822,120.679a11.355,11.355,0,1,1-11.355-11.355,11.355,11.355,0,0,1,11.355,11.355" transform="translate(-281.221 -85.923)" fill="#373f51"/>
        <path id="Trazado_234504" data-name="Trazado 234504" d="M573.936,114.624a5.3,5.3,0,1,1-5.3-5.3,5.3,5.3,0,0,1,5.3,5.3" transform="translate(-293.037 -56.868)" fill="#f4a338"/>
        <g id="Grupo_181204" data-name="Grupo 181204" transform="translate(237.456 52.456)" opacity="0">
          <g id="Grupo_181203" data-name="Grupo 181203">
            <g id="Grupo_181223" data-name="Grupo 181223">
              <path id="Trazado_234505" data-name="Trazado 234505" d="M505.487,114.624a5.3,5.3,0,1,1-5.3-5.3,5.3,5.3,0,0,1,5.3,5.3" transform="translate(-494.887 -109.324)" fill="#4adbd1"/>
            </g>
          </g>
        </g>
        <path id="Trazado_234507" data-name="Trazado 234507" d="M505.345,114.507a11.4,11.4,0,0,0-.215-1.282,5.282,5.282,0,0,0-1.934-2.857,5.19,5.19,0,0,0-4.914-.725,5.193,5.193,0,0,0-2.4,1.807,5.154,5.154,0,0,0,0,6.112,5.189,5.189,0,0,0,2.4,1.808,5.19,5.19,0,0,0,4.915-.725,5.283,5.283,0,0,0,1.934-2.857,11.383,11.383,0,0,0,.215-1.282,4.105,4.105,0,0,1-.116,1.307,5.347,5.347,0,0,1-4.186,4.006,5.413,5.413,0,0,1-2.845-.222,5.418,5.418,0,0,1-2.525-1.883,5.39,5.39,0,0,1,0-6.418,5.415,5.415,0,0,1,2.525-1.882,5.413,5.413,0,0,1,2.845-.222,5.347,5.347,0,0,1,4.186,4.006,4.105,4.105,0,0,1,.116,1.307" transform="translate(-257.289 -56.752)" fill="#263238"/>
        <path id="Trazado_234508" data-name="Trazado 234508" d="M539.569,114.507a11.4,11.4,0,0,0-.215-1.282,5.282,5.282,0,0,0-1.934-2.857,5.191,5.191,0,0,0-4.914-.725,5.194,5.194,0,0,0-2.4,1.807,5.153,5.153,0,0,0,0,6.112,5.188,5.188,0,0,0,2.4,1.808,5.19,5.19,0,0,0,4.915-.725,5.282,5.282,0,0,0,1.934-2.857,11.383,11.383,0,0,0,.215-1.282,4.107,4.107,0,0,1-.116,1.307,5.347,5.347,0,0,1-4.185,4.006,5.413,5.413,0,0,1-2.845-.222,5.419,5.419,0,0,1-2.525-1.883,5.39,5.39,0,0,1,0-6.418,5.415,5.415,0,0,1,2.525-1.882,5.412,5.412,0,0,1,2.845-.222,5.327,5.327,0,0,1,2.265,1.027,5.274,5.274,0,0,1,1.921,2.98,4.107,4.107,0,0,1,.116,1.307" transform="translate(-275.092 -56.752)" fill="#263238"/>
        <path id="Trazado_234578" data-name="Trazado 234578" d="M551.83,120.685a24.459,24.459,0,0,0-.462-2.746,11.317,11.317,0,0,0-4.144-6.122,11.122,11.122,0,0,0-10.529-1.553,11.129,11.129,0,0,0-5.142,3.873,11.041,11.041,0,0,0,0,13.1,11.116,11.116,0,0,0,5.143,3.874,11.119,11.119,0,0,0,10.53-1.554,11.318,11.318,0,0,0,4.143-6.121,24.417,24.417,0,0,0,.462-2.746,8.8,8.8,0,0,1-.249,2.8,11.457,11.457,0,0,1-8.968,8.584,11.6,11.6,0,0,1-6.1-.475,11.609,11.609,0,0,1-5.411-4.034,11.549,11.549,0,0,1,0-13.75,11.6,11.6,0,0,1,5.41-4.033,11.6,11.6,0,0,1,6.1-.475,11.457,11.457,0,0,1,8.968,8.584,8.8,8.8,0,0,1,.249,2.8" transform="translate(-281.229 -85.93)" fill="#263238"/>
        <path id="Trazado_234509" data-name="Trazado 234509" d="M573.774,114.507a11.385,11.385,0,0,0-.215-1.282,5.282,5.282,0,0,0-1.934-2.857,5.191,5.191,0,0,0-4.914-.725,5.194,5.194,0,0,0-2.4,1.807,5.153,5.153,0,0,0,0,6.112,5.188,5.188,0,0,0,2.4,1.808,5.19,5.19,0,0,0,4.915-.725,5.279,5.279,0,0,0,1.934-2.857,11.365,11.365,0,0,0,.215-1.282,4.1,4.1,0,0,1-.116,1.307,5.276,5.276,0,0,1-1.921,2.98,5.33,5.33,0,0,1-2.265,1.027,5.413,5.413,0,0,1-2.845-.222,5.418,5.418,0,0,1-2.525-1.883,5.39,5.39,0,0,1,0-6.418,5.416,5.416,0,0,1,2.525-1.882,5.412,5.412,0,0,1,2.845-.222,5.347,5.347,0,0,1,4.185,4.006,4.1,4.1,0,0,1,.116,1.307" transform="translate(-292.885 -56.752)" fill="#263238"/>
      </g>
    </g>
    <g id="Grupo_181220" data-name="Grupo 181220">
      <g id="Grupo_181219" data-name="Grupo 181219" clip-path="url(#clip-path)">
        <path id="Trazado_234510" data-name="Trazado 234510" d="M84.5,148.509a2.35,2.35,0,0,0,1.882,1.214,5.764,5.764,0,0,0,.832-.19c.258.179.138,1.093-.062,1.335a4.935,4.935,0,0,1-.612.559,3.042,3.042,0,0,0,2.686.06,4.717,4.717,0,0,1-3.028,3.6,1.656,1.656,0,0,1-1.513-.064,1.9,1.9,0,0,1-.592-1.22,20.652,20.652,0,0,1-.362-5.075Z" transform="translate(-43.54 -77.252)" fill="#263238"/>
        <path id="Trazado_234511" data-name="Trazado 234511" d="M42.071,152.638,40.73,174.381c-.227,3.7.193,9.176,6.055,9.27,5.092-.3,6.672-5.031,6.882-8.482.1-1.637.185-3,.207-3.169,0,0,5.567-.179,6.3-5.633.356-2.636.648-8.124.855-13.092a10.251,10.251,0,0,0-9-10.595l-.527-.065c-5.724-.366-9.231,4.291-9.438,10.023" transform="translate(-21.163 -74.175)" fill="#ffc09d"/>
        <path id="Trazado_234512" data-name="Trazado 234512" d="M60.752,200.634a13.292,13.292,0,0,1-6.854-2.975s1.246,4.2,6.756,4.379Z" transform="translate(-28.037 -102.819)" fill="#ff9b6c"/>
        <path id="Trazado_234513" data-name="Trazado 234513" d="M59.37,166.715c-.114.106-.722-.435-1.638-.5s-1.624.346-1.714.224c-.045-.055.079-.252.388-.447a2.3,2.3,0,0,1,1.383-.32,2.217,2.217,0,0,1,1.293.544c.265.244.344.457.288.5" transform="translate(-29.135 -86.173)" fill="#263238"/>
        <path id="Trazado_234514" data-name="Trazado 234514" d="M61.488,172.638a.744.744,0,0,1-.8.657.711.711,0,0,1-.679-.759.744.744,0,0,1,.8-.658.711.711,0,0,1,.679.759" transform="translate(-31.213 -89.407)" fill="#263238"/>
        <path id="Trazado_234515" data-name="Trazado 234515" d="M67.149,173.765a5.606,5.606,0,0,1,1.393-.079c.217,0,.425-.013.479-.155a1.1,1.1,0,0,0-.065-.653q-.207-.815-.434-1.71a28.237,28.237,0,0,1-.9-4.444,28.273,28.273,0,0,1,1.255,4.361q.212.9.406,1.716a1.253,1.253,0,0,1,.008.855.541.541,0,0,1-.391.27,1.492,1.492,0,0,1-.37.006,5.517,5.517,0,0,1-1.382-.168" transform="translate(-34.93 -86.727)" fill="#263238"/>
        <path id="Trazado_234516" data-name="Trazado 234516" d="M60.086,160.825c-.118.189-.822-.072-1.7-.158-.876-.1-1.623,0-1.695-.21-.031-.1.133-.265.456-.4a2.883,2.883,0,0,1,2.586.28c.284.2.405.4.353.487" transform="translate(-29.488 -83.162)" fill="#263238"/>
        <path id="Trazado_234517" data-name="Trazado 234517" d="M77.282,163.787c-.1.161-.811-.059-1.678-.128-.866-.085-1.592.006-1.675-.172-.036-.085.114-.226.423-.344A3.047,3.047,0,0,1,75.647,163a3.139,3.139,0,0,1,1.26.377c.291.17.422.337.375.415" transform="translate(-38.454 -84.78)" fill="#263238"/>
        <path id="Trazado_234518" data-name="Trazado 234518" d="M38.824,170.981c-.088-.052-3.617-1.57-3.956,2.178s3.495,3.316,3.511,3.209.445-5.387.445-5.387" transform="translate(-18.127 -88.761)" fill="#ffc09d"/>
        <path id="Trazado_234519" data-name="Trazado 234519" d="M38.4,176.123c-.015-.013-.07.04-.184.081a.658.658,0,0,1-.489-.034,1.623,1.623,0,0,1-.617-1.518,2.169,2.169,0,0,1,.267-.918.758.758,0,0,1,.537-.457.334.334,0,0,1,.369.214c.041.109.01.182.029.19s.086-.056.07-.213a.416.416,0,0,0-.126-.248.492.492,0,0,0-.353-.128.921.921,0,0,0-.735.519,2.229,2.229,0,0,0-.321,1.025,1.7,1.7,0,0,0,.807,1.7.7.7,0,0,0,.606-.045c.125-.082.152-.164.14-.172" transform="translate(-19.166 -90.039)" fill="#ff9b6c"/>
        <path id="Trazado_234520" data-name="Trazado 234520" d="M33.025,146.155a18.407,18.407,0,0,0,1.609-4.315c.5-1.457,1.4-2.948,2.874-3.393l.032.016a3.959,3.959,0,0,1,3.957.568,5.144,5.144,0,0,1,4.078-3.807,12.734,12.734,0,0,1,6.764.868,13.967,13.967,0,0,1,4.269,3.664,18.434,18.434,0,0,1,1.8,2.417l1.405,5.2-1.552,2.614c-.094.178-.19.357-.306.532V150.5l-1.386,5.455c-.005-1.546.2-6.767.194-8.314a8.612,8.612,0,0,1-5.99-3.132c-.8-.975-1.4-2.176-2.5-2.789-1.417-.79-3.174-.353-4.731.1l.068-.055a6.888,6.888,0,0,0-2.2,1.427,21.4,21.4,0,0,1-1.371,9c-.165.43-.6,1.312-1.039,1.457-.859.285-1.044-.585-1.53-1.067a2.237,2.237,0,0,0-1.516-.453,33.744,33.744,0,0,1-.839-3.949,3.432,3.432,0,0,1-1.582.028l.542-1.138a1.792,1.792,0,0,1-.689.273.612.612,0,0,1-.626-.31c-.129-.3.082-.618.259-.887" transform="translate(-17.023 -70.262)" fill="#263238"/>
        <path id="Trazado_234521" data-name="Trazado 234521" d="M45.34,144.81a4.671,4.671,0,0,0-.574.475,3.937,3.937,0,0,0-.93,1.778,6.9,6.9,0,0,0-.209,1.385c-.027.5-.013,1.047,0,1.618a14.328,14.328,0,0,1-.048,1.8,6.292,6.292,0,0,1-.17.942,1.982,1.982,0,0,1-.432.9.829.829,0,0,1-.786.222,1.232,1.232,0,0,1-.677-.427,2.84,2.84,0,0,1-.459-1.419l.114.019a4.6,4.6,0,0,1-.723,1.115,1.633,1.633,0,0,1-1.094.528,1.052,1.052,0,0,1-.56-.127.912.912,0,0,1-.365-.4.938.938,0,0,1-.092-.491.677.677,0,0,1,.2-.417l.056.055a3.54,3.54,0,0,1-1.221.825,3.153,3.153,0,0,1-.371.124.611.611,0,0,1-.132.026.669.669,0,0,1,.126-.047c.083-.029.206-.072.361-.142a3.643,3.643,0,0,0,1.18-.84l.056.055a.7.7,0,0,0-.076.812.825.825,0,0,0,.331.352.956.956,0,0,0,.508.108,1.532,1.532,0,0,0,1.017-.5,4.548,4.548,0,0,0,.7-1.092l.087-.172.027.191a2.752,2.752,0,0,0,.437,1.356,1.109,1.109,0,0,0,.606.382.7.7,0,0,0,.668-.188,1.872,1.872,0,0,0,.4-.843,6.289,6.289,0,0,0,.168-.922,14.637,14.637,0,0,0,.054-1.783c-.007-.571-.018-1.116.014-1.626a6.893,6.893,0,0,1,.227-1.4,3.88,3.88,0,0,1,.982-1.789,2.224,2.224,0,0,1,.61-.44" transform="translate(-19.174 -75.327)" fill="#455a64"/>
        <path id="Trazado_234522" data-name="Trazado 234522" d="M71.45,147.8s-.014.014-.046.036l-.142.093a1.827,1.827,0,0,1-.239.137,2.862,2.862,0,0,1-.342.159,4.865,4.865,0,0,1-2.366.307,6.218,6.218,0,0,1-3.246-1.384,10.751,10.751,0,0,1-2.679-3.414c-.366-.683-.657-1.379-.985-2.025a7.248,7.248,0,0,0-1.142-1.728,3.739,3.739,0,0,0-1.532-1.036,2.67,2.67,0,0,0-.828-.137,2.932,2.932,0,0,0-.77.109,3.173,3.173,0,0,0-1.833,1.4,3.783,3.783,0,0,0-.323.808.175.175,0,0,1,.007-.058c.009-.045.021-.1.034-.166a2.775,2.775,0,0,1,.238-.608,3.125,3.125,0,0,1,.654-.8,3.213,3.213,0,0,1,1.2-.664,3.032,3.032,0,0,1,.794-.121,2.777,2.777,0,0,1,.862.135,3.844,3.844,0,0,1,1.584,1.056,7.328,7.328,0,0,1,1.168,1.752c.331.651.623,1.345.986,2.021a10.767,10.767,0,0,0,2.64,3.382,6.173,6.173,0,0,0,3.183,1.386,4.943,4.943,0,0,0,2.337-.262,7.761,7.761,0,0,0,.787-.379" transform="translate(-28.598 -72.155)" fill="#455a64"/>
        <path id="Trazado_234523" data-name="Trazado 234523" d="M76.768,168.293c-.114.106-.722-.435-1.638-.5s-1.624.347-1.714.224c-.045-.055.079-.252.388-.447a2.3,2.3,0,0,1,1.383-.32,2.22,2.22,0,0,1,1.293.544c.265.244.344.457.288.5" transform="translate(-38.185 -86.994)" fill="#263238"/>
        <path id="Trazado_234524" data-name="Trazado 234524" d="M77.021,174.161a.743.743,0,0,1-.8.657.711.711,0,0,1-.679-.759.744.744,0,0,1,.8-.657.711.711,0,0,1,.679.759" transform="translate(-39.293 -90.2)" fill="#263238"/>
        <path id="Trazado_234525" data-name="Trazado 234525" d="M64.363,185.209c0,.032-.215.1-.574.049a2.2,2.2,0,0,1-1.874-1.87c-.047-.359.016-.578.048-.574s.048.216.137.536a2.394,2.394,0,0,0,1.726,1.723c.321.088.535.095.537.136" transform="translate(-32.198 -95.096)" fill="#263238"/>
        <path id="Trazado_234526" data-name="Trazado 234526" d="M98.1,212.7,83.664,225.46,69.733,214.218,68.68,228.986l8.641,6.918c3.575,1.393,7.466,2.083,10.306-.5l15.988-16.2Z" transform="translate(-35.726 -110.64)" fill="#5573c6"/>
        <path id="Trazado_234527" data-name="Trazado 234527" d="M5.817,212.225a11.349,11.349,0,0,1,5.3-8.479c.726-.427,6.723-3.044,6.723-3.044l1.784-2.555,10.946,6.98,1.38,1.26,1.125-2.705,1.332,2.026-.563-.092.157,1.034.679,4.487.482,12.855c-.006-.137.2,4.517.073,6.663-.495,8.1-1.876,28.751-2.365,30.206a2.645,2.645,0,0,1-2.313,1.855L1.947,254.66c-1.616-.137-3.088-4.531-.673-5.944Z" transform="translate(0 -103.072)" fill="#5573c6"/>
        <g id="Grupo_181212" data-name="Grupo 181212" transform="translate(8.106 113.06)" opacity="0.3">
          <g id="Grupo_181211" data-name="Grupo 181211">
            <g id="Grupo_181210" data-name="Grupo 181210" clip-path="url(#clip-path-11)">
              <path id="Trazado_234528" data-name="Trazado 234528" d="M16.894,235.631s11.918,22.222,16,24.411,10.661.8,10.661.8v-1.8Z" transform="translate(-16.894 -235.631)"/>
            </g>
          </g>
        </g>
        <path id="Trazado_234529" data-name="Trazado 234529" d="M23.322,215.113c1.652.745,16.944,20.84,16.944,20.84l21.647-.179L63.32,245.9s-22.694,3.283-27.986,2.127-20.77-23.65-21.717-25.172c-1.5-2.414-.222-6.236,2.1-8.265" transform="translate(-6.746 -111.627)" fill="#5573c6"/>
        <path id="Trazado_234530" data-name="Trazado 234530" d="M15.662,214.593s-.077.084-.234.239a7.6,7.6,0,0,0-.654.728,8.508,8.508,0,0,0-1.627,3.353,5.8,5.8,0,0,0-.035,2.677,8.643,8.643,0,0,0,1.559,2.794c1.328,1.913,2.868,4.071,4.613,6.425s3.691,4.908,5.874,7.573c1.093,1.331,2.244,2.69,3.478,4.046a39.234,39.234,0,0,0,4.035,3.943,8.069,8.069,0,0,0,2.461,1.489l.17.055.182.025.366.051c.245.029.487.079.736.093l1.5.067c2.023.023,4.09-.1,6.192-.238,4.2-.314,8.544-.785,12.98-1.338q3.03-.379,5.983-.8l-.105.14c-.481-3.468-.951-6.853-1.4-10.128l.12.1-21.646.159h-.051l-.031-.04c-4.948-6.5-9.085-11.8-12.028-15.433-1.472-1.818-2.647-3.221-3.479-4.144-.415-.464-.745-.806-.981-1.022a3.719,3.719,0,0,0-.376-.3,1.553,1.553,0,0,1,.4.28,13.292,13.292,0,0,1,1,1c.848.912,2.037,2.3,3.523,4.112,2.971,3.617,7.132,8.9,12.1,15.383l-.082-.04,21.646-.2h.107l.014.106c.457,3.275.928,6.659,1.412,10.128l.017.123-.123.018q-2.953.42-5.988.8c-4.44.554-8.784,1.023-12.993,1.335-2.106.138-4.178.258-6.214.233l-1.52-.07c-.252-.015-.5-.065-.753-.1l-.375-.053-.187-.026-.184-.059a8.25,8.25,0,0,1-2.542-1.536,39.409,39.409,0,0,1-4.052-3.974c-1.235-1.362-2.385-2.727-3.476-4.063-2.179-2.674-4.117-5.238-5.856-7.6s-3.268-4.529-4.586-6.45c-.328-.482-.645-.945-.941-1.4a4.344,4.344,0,0,1-.62-1.445,5.886,5.886,0,0,1,.056-2.727,8.412,8.412,0,0,1,1.683-3.363,6.823,6.823,0,0,1,.675-.715c.164-.149.252-.221.252-.221" transform="translate(-6.69 -111.627)" fill="#263238"/>
        <path id="Trazado_234531" data-name="Trazado 234531" d="M37.191,203.471c.107.246,10.107,6.967,10.107,6.967l2.412-2.315L51,209.154" transform="translate(-19.346 -105.842)" fill="#274cb2"/>
        <path id="Trazado_234532" data-name="Trazado 234532" d="M50.993,209.154a1.817,1.817,0,0,1-.362-.24l-.969-.735.1,0-2.384,2.344-.065.064-.077-.052L44.207,208.5c-1.975-1.337-3.751-2.565-5.023-3.475a12.467,12.467,0,0,1-2-1.557l7.158,4.826,3.013,2.047-.142.012,2.439-2.286.048-.046.048.041.927.787a1.816,1.816,0,0,1,.313.3" transform="translate(-19.344 -105.842)" fill="#263238"/>
        <path id="Trazado_234533" data-name="Trazado 234533" d="M71.362,219.143a4.337,4.337,0,0,1,.122.746c.063.482.142,1.18.231,2.044.178,1.727.384,4.119.534,6.765s.209,5.048.215,6.785c0,.869,0,1.571-.017,2.057a4.359,4.359,0,0,1-.046.754,4.34,4.34,0,0,1-.052-.754c-.016-.529-.037-1.221-.062-2.054-.051-1.735-.139-4.13-.288-6.774s-.328-5.033-.46-6.764c-.061-.832-.112-1.522-.152-2.05a4.362,4.362,0,0,1-.025-.755" transform="translate(-37.117 -113.994)" fill="#263238"/>
        <path id="Trazado_234534" data-name="Trazado 234534" d="M6.5,299.738A99.445,99.445,0,0,0,26.4,296.224" transform="translate(-3.382 -154.09)" fill="#274cb2"/>
        <path id="Trazado_234535" data-name="Trazado 234535" d="M26.4,296.221a4.809,4.809,0,0,1-.753.259c-.489.153-1.2.356-2.088.592-1.771.472-4.239,1.048-6.994,1.536s-5.273.79-7.1.953c-.913.083-1.652.136-2.164.16a4.857,4.857,0,0,1-.8.014,4.831,4.831,0,0,1,.789-.111l2.154-.238c1.818-.208,4.324-.539,7.073-1.023s5.216-1.034,6.994-1.461l2.105-.514a4.817,4.817,0,0,1,.779-.166" transform="translate(-3.382 -154.087)" fill="#263238"/>
        <path id="Trazado_234536" data-name="Trazado 234536" d="M37.465,370.222,23.8,365.548s-9.34,12.319-11.949,11.7l8.11-26.819,21.589,6.408Z" transform="translate(-6.165 -182.287)" fill="#455a64"/>
        <path id="Trazado_234537" data-name="Trazado 234537" d="M42.066,364.154a1.144,1.144,0,0,0-1.021-1.135,1.1,1.1,0,0,0-1.134,1,1.207,1.207,0,0,0,1.087,1.2c.562-.025,1.175-.622,1.064-1.173" transform="translate(-20.761 -188.834)" fill="#e0e0e0"/>
        <path id="Trazado_234538" data-name="Trazado 234538" d="M19.4,350.035l2.092.618L13.533,376.4s-.881,1.037-1.681.647Z" transform="translate(-6.165 -182.082)" fill="#e0e0e0"/>
        <path id="Trazado_234539" data-name="Trazado 234539" d="M35.884,379.794c-.13-.044.009-.717-.217-1.488-.206-.778-.673-1.282-.584-1.386.062-.113.786.319,1.043,1.258s-.13,1.681-.241,1.617" transform="translate(-18.243 -196.058)" fill="#263238"/>
        <path id="Trazado_234540" data-name="Trazado 234540" d="M30.908,385.518c-.136-.008-.187-.643-.606-1.255-.4-.625-.966-.918-.921-1.047.017-.13.811.012,1.318.783s.335,1.554.21,1.519" transform="translate(-15.282 -199.32)" fill="#263238"/>
        <path id="Trazado_234541" data-name="Trazado 234541" d="M24.543,389.2c.008-.128.717-.112,1.333.441s.716,1.252.59,1.274c-.13.041-.394-.473-.907-.919s-1.042-.663-1.016-.8" transform="translate(-12.766 -202.418)" fill="#263238"/>
        <path id="Trazado_234542" data-name="Trazado 234542" d="M43.481,381.359c-.1-.091.26-.637.433-1.392.189-.752.115-1.4.248-1.438.118-.047.432.662.215,1.549s-.813,1.377-.9,1.281" transform="translate(-22.609 -196.902)" fill="#263238"/>
        <path id="Trazado_234543" data-name="Trazado 234543" d="M45.888,313.876c.526-.145,23.667,24.679,24.192,28.78s-.315,7.679-3.05,9.993-33.869-5.259-33.869-5.259l2.945-13.043L24.851,330.56l10.058-18.407Z" transform="translate(-12.927 -162.376)" fill="#263238"/>
        <g id="Grupo_181215" data-name="Grupo 181215" transform="translate(15.331 155.794)" opacity="0.3">
          <g id="Grupo_181214" data-name="Grupo 181214">
            <g id="Grupo_181213" data-name="Grupo 181213" clip-path="url(#clip-path-12)">
              <path id="Trazado_234544" data-name="Trazado 234544" d="M55.056,325.9l.741.8s-13.264,13.914-17.333,13.724l-6.512-2.206,22.033-13.521Z" transform="translate(-31.951 -324.694)"/>
            </g>
          </g>
        </g>
        <path id="Trazado_234545" data-name="Trazado 234545" d="M48.147,359.113c-.02.067,4.812,1.546,10.789,3.3s10.842,3.127,10.862,3.06-4.811-1.546-10.791-3.3-10.841-3.127-10.861-3.06" transform="translate(-25.045 -186.803)" fill="#455a64"/>
        <path id="Trazado_234546" data-name="Trazado 234546" d="M82.751,364.737l-4.07,12.911s11.757,8.473,11.237,10.932L64.6,381.587l5.516-20.376Z" transform="translate(-33.604 -187.895)" fill="#455a64"/>
        <path id="Trazado_234547" data-name="Trazado 234547" d="M77.133,388.665a1.072,1.072,0,0,0-1.041.982,1.031,1.031,0,0,0,.964,1.04,1.131,1.131,0,0,0,1.1-1.046,1.069,1.069,0,0,0-1.123-.971" transform="translate(-39.581 -202.171)" fill="#e0e0e0"/>
        <path id="Trazado_234548" data-name="Trazado 234548" d="M64.257,402.637l.532-1.975,24.3,6.879s.992.8.645,1.56Z" transform="translate(-33.425 -208.417)" fill="#e0e0e0"/>
        <path id="Trazado_234549" data-name="Trazado 234549" d="M91.956,395.121c-.038.122-.672.008-1.39.238-.725.211-1.186.659-1.286.579-.107-.056.281-.744,1.155-1.006s1.578.083,1.52.19" transform="translate(-46.433 -205.384)" fill="#263238"/>
        <path id="Trazado_234550" data-name="Trazado 234550" d="M97.43,399.125c0,.128-.6.19-1.163.6-.576.39-.838.927-.96.887-.122-.013-.007-.76.7-1.253s1.448-.35,1.418-.231" transform="translate(-49.556 -207.557)" fill="#263238"/>
        <path id="Trazado_234551" data-name="Trazado 234551" d="M101.02,404.7c-.119,0-.121-.67.383-1.259s1.157-.7,1.181-.582c.042.121-.434.381-.841.871s-.6.992-.724.97" transform="translate(-52.514 -209.539)" fill="#263238"/>
        <path id="Trazado_234552" data-name="Trazado 234552" d="M93.234,388.148c-.083.1-.6-.229-1.315-.374s-1.318-.076-1.353-.2.61-.42,1.447-.237,1.308.731,1.221.811" transform="translate(-47.11 -201.456)" fill="#263238"/>
        <g id="Grupo_181218" data-name="Grupo 181218" transform="translate(31.742 158.941)" opacity="0.3">
          <g id="Grupo_181217" data-name="Grupo 181217">
            <g id="Grupo_181216" data-name="Grupo 181216" clip-path="url(#clip-path-13)">
              <path id="Trazado_234553" data-name="Trazado 234553" d="M66.155,359.922l1.722-6.766-1.283-.6,7.826-21.306,1.494,1.3-6.151,19.518-2.2,8.147Z" transform="translate(-66.155 -331.252)"/>
            </g>
          </g>
        </g>
        <path id="Trazado_234554" data-name="Trazado 234554" d="M3.243,297.541s46.266-16.117,47.107-16.432a9.272,9.272,0,0,1,1.16-.292,10.983,10.983,0,0,1,8.807,1.888,8.079,8.079,0,0,1,3.287,8.082c-1.262,8.835-12.554,39-12.554,39l-15.623-4.7c-.089-.027-.177-.285-.128-.205.128.205,7.927-24.92,7.73-24.625-.21.316-15.767,12.867-22.233,15.178A14.336,14.336,0,0,1,4.42,310.543c-1.515-2.119-2.8-8.086-1.177-13" transform="translate(-1.296 -145.953)" fill="#263238"/>
        <path id="Trazado_234555" data-name="Trazado 234555" d="M3.2,297.42s-.055.162-.155.49a13.3,13.3,0,0,0-.361,1.479,18.6,18.6,0,0,0-.083,5.835,15.754,15.754,0,0,0,1.1,4.089,6.938,6.938,0,0,0,.568,1.051c.235.332.492.656.76.983a13.531,13.531,0,0,0,1.9,1.808,14.443,14.443,0,0,0,5.172,2.593,14.538,14.538,0,0,0,6.481.243l.846-.182c.282-.067.558-.166.84-.249a14.733,14.733,0,0,0,1.664-.636c.547-.245,1.079-.536,1.629-.807l1.614-.914c2.147-1.276,4.3-2.725,6.5-4.272s4.436-3.207,6.71-4.956q1.707-1.31,3.431-2.7l.859-.708c.073-.062.141-.114.217-.186l.113-.106.056-.053c-.086-.02.233.007-.187-.052-.009-.085,0-.017-.008-.025-.041.17-.1.354-.147.532l-.648,2.162c-1.772,5.8-3.666,11.88-5.682,18.18l-.773,2.368c-.132.394-.264.794-.41,1.178-.011.036-.054.12-.038.1.406.17.13-.248-.054.11a.347.347,0,0,0,.019.062.73.73,0,0,0,.041.087.32.32,0,0,0,.185.167l.151.046.6.182L41,326.787l9.977,3,.119.036.043-.116,1.626-4.418c2.5-6.871,4.866-13.6,6.984-20.166,1.054-3.282,2.067-6.514,2.908-9.726.223-.8.392-1.609.589-2.407s.316-1.611.457-2.413a8.231,8.231,0,0,0-3.682-8.324,10.776,10.776,0,0,0-4.24-1.73,11.464,11.464,0,0,0-4.448.092l-1.069.272-1.019.356-2.012.7-14.8,5.181-21.407,7.514-5.808,2.051-1.506.538c-.338.122-.506.19-.506.19s.181-.055.526-.17l1.523-.519,5.839-2.012,21.433-7.43,14.788-5.139,2.01-.7,1.017-.354,1.039-.261a11.235,11.235,0,0,1,4.358-.083,10.53,10.53,0,0,1,4.144,1.7,7.987,7.987,0,0,1,3.571,8.094c-.141.793-.269,1.6-.456,2.391s-.366,1.6-.589,2.4c-.841,3.2-1.855,6.432-2.91,9.711-2.12,6.555-4.492,13.286-6.986,20.155l-1.625,4.416.162-.08-9.978-3-4.877-1.465-.6-.181-.151-.045c-.016-.013-.05.107-.01.016.023-.027,0-.01.005-.02a.254.254,0,0,1-.029-.042.4.4,0,0,1-.026-.055c-.032,0,.056-.032-.068,0,.009-.019-.407.127.05.1a.764.764,0,0,0,.091-.184c.151-.4.281-.795.414-1.191l.773-2.371c2.013-6.3,3.9-12.389,5.667-18.189l.647-2.165c.051-.182.1-.356.15-.548,0-.031.012.014,0-.094-.412-.054-.143-.014-.235-.016l-.047.041-.092.083c-.059.056-.138.118-.207.177l-.854.705q-1.718,1.392-3.423,2.7-3.4,2.627-6.695,4.961c-2.194,1.549-4.345,3-6.482,4.276l-1.6.913c-.545.27-1.073.561-1.615.8a14.532,14.532,0,0,1-1.641.631c-.278.082-.55.181-.829.248l-.835.182a14.369,14.369,0,0,1-6.4-.222,14.318,14.318,0,0,1-5.126-2.547A13.435,13.435,0,0,1,5.13,311.26c-.266-.321-.523-.643-.755-.967a6.814,6.814,0,0,1-.561-1.029A15.742,15.742,0,0,1,2.7,305.21a18.9,18.9,0,0,1,.035-5.811c.125-.655.233-1.152.333-1.476s.132-.5.132-.5" transform="translate(-1.257 -145.832)" fill="#455a64"/>
        <path id="Trazado_234556" data-name="Trazado 234556" d="M94.112,307.166a6.391,6.391,0,0,0-1.288.72,19.639,19.639,0,0,0-2.793,2.212,17.334,17.334,0,0,0-2.321,2.705,10.418,10.418,0,0,0-.571.918,1.23,1.23,0,0,0-.166.361c.035.021.336-.454.881-1.175a22.2,22.2,0,0,1,2.351-2.627,26.3,26.3,0,0,1,2.72-2.248,12.848,12.848,0,0,0,1.187-.867" transform="translate(-45.241 -159.781)" fill="#455a64"/>
        <path id="Trazado_234557" data-name="Trazado 234557" d="M88.632,303.54a5.419,5.419,0,0,0-.55,1.181,21.28,21.28,0,0,0-1.361,6.122,5.418,5.418,0,0,0,0,1.3,8.677,8.677,0,0,0,.18-1.286c.1-.793.259-1.885.523-3.074s.58-2.246.829-3.006a8.623,8.623,0,0,0,.382-1.241" transform="translate(-45.094 -157.896)" fill="#455a64"/>
        <path id="Trazado_234558" data-name="Trazado 234558" d="M127.17,240l5.92-11.963a2.4,2.4,0,0,1,2.148-1.328h14.875a.725.725,0,0,1,.644,1.067l-10.069,18.64a1.623,1.623,0,0,1-1.429.849H123.832Z" transform="translate(-64.415 -117.932)" fill="#455a64"/>
        <path id="Trazado_234559" data-name="Trazado 234559" d="M155.972,228.766a1.227,1.227,0,0,1-.3.024l-.852.014H151.69l-10.327-.088a2.973,2.973,0,0,0-1.373.33,2.558,2.558,0,0,0-.913,1c-.432.817-.8,1.67-1.173,2.448l-1.973,4.172-1.353,2.8-.381.756a1.215,1.215,0,0,1-.15.256,1.149,1.149,0,0,1,.1-.279l.333-.778,1.272-2.839,1.919-4.2c.374-.788.72-1.618,1.168-2.474a2.821,2.821,0,0,1,1.011-1.106,3.227,3.227,0,0,1,1.5-.368c4.052.027,7.693.114,10.342.169l3.132.087.851.037a1.22,1.22,0,0,1,.3.032" transform="translate(-69.729 -118.83)" fill="#263238"/>
        <path id="Trazado_234560" data-name="Trazado 234560" d="M159.577,234.523a.484.484,0,0,1,.223.74.711.711,0,0,1-.787.3.551.551,0,0,1-.41-.392.679.679,0,0,1,.454-.68,1.078,1.078,0,0,1,.52.036" transform="translate(-82.5 -121.967)" fill="#fff"/>
        <path id="Trazado_234561" data-name="Trazado 234561" d="M111.84,253.89l1.026-1.046s1.506-2.173,2.122-2.852a46.386,46.386,0,0,1,4.313-3.055,16.006,16.006,0,0,1,2.056-2.394c.274,0,1.141.153.907,1.267a16.967,16.967,0,0,1-.977,3.212l7.9.171a1.68,1.68,0,0,1,1.286.611c.206.261.293.548-.077.732a38.466,38.466,0,0,1-4.176,1.222l1.5-.383a2.171,2.171,0,0,1-.627,2.1,5.121,5.121,0,0,0-1.009.8,4.422,4.422,0,0,1-.457,1.888c-.411.543-4.859,2.813-4.859,2.813a18.631,18.631,0,0,1-4.28.765,7.4,7.4,0,0,0-3.079.784c-.162.044-1.564-6.629-1.564-6.629" transform="translate(-58.177 -127.207)" fill="#ffc09d"/>
        <path id="Trazado_234562" data-name="Trazado 234562" d="M128.284,253.844a16.373,16.373,0,0,1-2.218.247,8.733,8.733,0,0,1-2.236.109,9.562,9.562,0,0,1,2.208-.385,6.369,6.369,0,0,1,2.246.029" transform="translate(-64.414 -131.995)" fill="#ff9b6c"/>
        <path id="Trazado_234563" data-name="Trazado 234563" d="M130.915,260.079a11.676,11.676,0,0,1,3.226-.68c.9-.114,1.72-.194,2.31-.259a4.313,4.313,0,0,1,.963-.072,2.792,2.792,0,0,1-.933.266c-.587.115-1.4.227-2.305.34-1.8.205-3.242.469-3.261.4" transform="translate(-68.099 -134.755)" fill="#ff9b6c"/>
        <path id="Trazado_234564" data-name="Trazado 234564" d="M130.915,265.587c0-.082,1.151-.117,2.541-.357s2.488-.58,2.516-.5a9.537,9.537,0,0,1-5.057.859" transform="translate(-68.1 -137.701)" fill="#ff9b6c"/>
        <path id="Trazado_234565" data-name="Trazado 234565" d="M131.585,270.974c-.076.012-.191-.3-.256-.688s-.056-.72.02-.732.191.3.256.687.056.72-.02.733" transform="translate(-68.292 -140.217)" fill="#ff9b6c"/>
        <path id="Trazado_234566" data-name="Trazado 234566" d="M129.868,264.186c-.079-.006-.12-.261-.256-.529s-.305-.462-.261-.527.344.06.512.406.079.663,0,.65" transform="translate(-67.282 -136.867)" fill="#ff9b6c"/>
        <path id="Trazado_234567" data-name="Trazado 234567" d="M128.13,257.352c-.078.008-.159-.156-.254-.342s-.177-.349-.123-.406.254.046.372.283.08.46,0,.465" transform="translate(-66.446 -133.472)" fill="#ff9b6c"/>
        <path id="Trazado_234568" data-name="Trazado 234568" d="M132.78,200.609a7.649,7.649,0,0,1,1.341-3.675c3.052-3.752,2.036-7.1,2.036-7.1,1.057-1.168,2.813.228,3.157,2.9a48.023,48.023,0,0,1-.292,12.031c-.075.3-3.237,1.643-3.237,1.643l-4.218-4.928Z" transform="translate(-68.439 -98.533)" fill="#ffc09d"/>
        <path id="Trazado_234569" data-name="Trazado 234569" d="M218.881,181.352H147.744a4.15,4.15,0,0,1-4.15-4.15V146.745a4.15,4.15,0,0,1,4.15-4.15h71.137a4.151,4.151,0,0,1,4.15,4.15V177.2a4.151,4.151,0,0,1-4.15,4.15" transform="translate(-74.695 -74.175)" fill="#fff"/>
        <path id="Trazado_234570" data-name="Trazado 234570" d="M218.745,181.217c0-.012.2,0,.588-.06a4.056,4.056,0,0,0,1.606-.6,4.111,4.111,0,0,0,1.7-2.162,4.822,4.822,0,0,0,.217-1.765q0-.965-.006-2.053c-.01-5.805-.023-14.2-.04-24.566q0-.972,0-1.968,0-.5,0-1a6.607,6.607,0,0,0-.045-1,4.053,4.053,0,0,0-2.332-3.119,4.417,4.417,0,0,0-2.049-.367l-2.186,0-4.494,0-19.47.012-44.614.01a4.065,4.065,0,0,0-2.633.98,3.981,3.981,0,0,0-1.348,2.443,10.284,10.284,0,0,0-.05,1.442v4.359q0,5.782,0,11.383t0,10.987q0,1.346,0,2.678a4.154,4.154,0,0,0,.677,2.446,4.055,4.055,0,0,0,1.967,1.547,6.8,6.8,0,0,0,2.517.252l36.437.027,24.565.04,6.679.023,1.737.012c.391,0,.592.013.592.013s-.2.009-.592.013l-1.737.012-6.679.023-24.565.04-36.437.027c-.43,0-.854.009-1.294-.008a4.037,4.037,0,0,1-1.3-.256,4.288,4.288,0,0,1-2.081-1.635,4.389,4.389,0,0,1-.718-2.576q0-1.331,0-2.678,0-5.384,0-10.987t0-11.383q0-1.445,0-2.9V147.45a10.469,10.469,0,0,1,.053-1.479,4.23,4.23,0,0,1,1.432-2.6,4.312,4.312,0,0,1,2.8-1.041l44.614.01,19.47.012,4.494,0,2.186,0a4.608,4.608,0,0,1,2.129.388,4.241,4.241,0,0,1,2.435,3.268,6.891,6.891,0,0,1,.045,1.023q0,.5,0,1,0,1,0,1.968c-.017,10.369-.03,18.761-.04,24.566q0,1.087-.005,2.053a4.887,4.887,0,0,1-.233,1.789,4.157,4.157,0,0,1-1.74,2.181,4.013,4.013,0,0,1-1.629.584,3.011,3.011,0,0,1-.442.033c-.1,0-.149,0-.149,0" transform="translate(-74.559 -74.04)" fill="#263238"/>
        <path id="Trazado_234571" data-name="Trazado 234571" d="M183.774,174.7v5.112l12.043,5.165.1-4.894-6.729-3,6.729-2.872v-4.742Z" transform="translate(-95.596 -88.155)" fill="#ebebeb"/>
        <path id="Trazado_234572" data-name="Trazado 234572" d="M255.69,180.6V175.49l-12.148-5.165-.1,4.894,6.788,3-6.788,2.872v4.742Z" transform="translate(-126.633 -88.6)" fill="#ebebeb"/>
        <path id="Trazado_234573" data-name="Trazado 234573" d="M220.376,160.673c0,.127-7.074,23.993-6.874,23.951s5.268,0,5.268,0l6.977-23.947Z" transform="translate(-111.058 -83.579)" fill="#ebebeb"/>
        <path id="Trazado_234574" data-name="Trazado 234574" d="M157.182,151.6a1.677,1.677,0,1,1-1.674-1.571,1.625,1.625,0,0,1,1.674,1.571" transform="translate(-80.022 -78.044)" fill="#e0e0e0"/>
        <path id="Trazado_234575" data-name="Trazado 234575" d="M166.763,151.6a1.677,1.677,0,1,1-1.674-1.571,1.625,1.625,0,0,1,1.674,1.571" transform="translate(-85.006 -78.044)" fill="#e0e0e0"/>
        <path id="Trazado_234576" data-name="Trazado 234576" d="M176.345,151.6a1.677,1.677,0,1,1-1.674-1.571,1.625,1.625,0,0,1,1.674,1.571" transform="translate(-89.99 -78.044)" fill="#e0e0e0"/>
      </g>
    </g>
  </g>
</svg>
