<svg id="Grupo_182096" data-name="Grupo 182096" xmlns="http://www.w3.org/2000/svg" xmlns:xlink="http://www.w3.org/1999/xlink" width="222.582" height="242.348" viewBox="0 0 222.582 242.348">
  <defs>
    <clipPath id="clip-path">
      <rect id="Rectángulo_57890" data-name="Rectángulo 57890" width="222.582" height="242.348" fill="none"/>
    </clipPath>
    <clipPath id="clip-path-7">
      <rect id="Rectángulo_57867" data-name="Rectángulo 57867" width="7.072" height="6.02" fill="none"/>
    </clipPath>
    <clipPath id="clip-path-10">
      <rect id="Rectángulo_57871" data-name="Rectángulo 57871" width="5.02" height="7.983" fill="none"/>
    </clipPath>
    <clipPath id="clip-path-11">
      <rect id="Rectángulo_57872" data-name="Rectángulo 57872" width="5.019" height="7.983" fill="none"/>
    </clipPath>
    <clipPath id="clip-path-16">
      <rect id="Rectángulo_57881" data-name="Rectángulo 57881" width="30.435" height="15.34" fill="none"/>
    </clipPath>
    <clipPath id="clip-path-17">
      <rect id="Rectángulo_57882" data-name="Rectángulo 57882" width="21.387" height="26.203" fill="none"/>
    </clipPath>
    <clipPath id="clip-path-18">
      <rect id="Rectángulo_57883" data-name="Rectángulo 57883" width="3.202" height="15.122" fill="none"/>
    </clipPath>
    <clipPath id="clip-path-19">
      <rect id="Rectángulo_57884" data-name="Rectángulo 57884" width="30.029" height="32.94" fill="none"/>
    </clipPath>
    <clipPath id="clip-path-20">
      <rect id="Rectángulo_57885" data-name="Rectángulo 57885" width="30.1" height="11.194" fill="none"/>
    </clipPath>
    <clipPath id="clip-path-21">
      <rect id="Rectángulo_57886" data-name="Rectángulo 57886" width="31.279" height="2.639" fill="none"/>
    </clipPath>
  </defs>
  <g id="Grupo_179949" data-name="Grupo 179949" clip-path="url(#clip-path)">
    <path id="Trazado_230356" data-name="Trazado 230356" d="M351.712,12.523V56.449h-63.09L286.349,12.83Z" transform="translate(-130.989 -5.728)" fill="#e0e0e0"/>
    <rect id="Rectángulo_57818" data-name="Rectángulo 57818" width="63.09" height="43.527" transform="translate(155.36 7.102)" fill="#fff"/>
    <path id="Trazado_230357" data-name="Trazado 230357" d="M349.485,56.663H285.8V12.538h63.688Zm-63.09-.6h62.492V13.136H286.4Z" transform="translate(-130.736 -5.735)" fill="#e0e0e0"/>
    <rect id="Rectángulo_57819" data-name="Rectángulo 57819" width="49.424" height="32.711" transform="translate(162.193 12.51)" fill="#fff"/>
    <g id="Grupo_179890" data-name="Grupo 179890">
      <g id="Grupo_179889" data-name="Grupo 179889" clip-path="url(#clip-path)">
        <path id="Trazado_230358" data-name="Trazado 230358" d="M348.235,22.935s-.085.005-.244.009l-.7.008-2.714.017-10.185.039-35.578.07.143-.143c0,9.994.008,21.068.013,32.707v0l-.156-.156,49.424.032-.124.124c.028-9.954.05-18.116.065-23.8.014-2.841.024-5.06.032-6.581q.009-1.128.014-1.73c0-.392.014-.6.014-.6s.009.19.014.574.008.965.014,1.706c.008,1.515.018,3.725.032,6.554.015,5.7.038,13.89.065,23.877v.124h-.125l-49.424.032h-.156v-.16c0-11.639.009-22.712.013-32.707v-.143h.143l35.672.071,10.152.039,2.686.017.687.008c.153,0,.227.009.227.009" transform="translate(-136.618 -10.426)" fill="#e0e0e0"/>
        <path id="Trazado_230359" data-name="Trazado 230359" d="M286.347,12.862a5.33,5.33,0,0,1,1.085.7c.646.466,1.525,1.127,2.473,1.886s1.784,1.478,2.372,2.016a5.107,5.107,0,0,1,.9.925c-.059.066-1.576-1.185-3.47-2.7a34.4,34.4,0,0,1-3.363-2.832" transform="translate(-130.987 -5.882)" fill="#e0e0e0"/>
        <path id="Trazado_230360" data-name="Trazado 230360" d="M396.869,13.087a30.572,30.572,0,0,1-3.319,2.826,30.551,30.551,0,0,1-3.514,2.581,30.618,30.618,0,0,1,3.32-2.826,30.615,30.615,0,0,1,3.513-2.581" transform="translate(-178.419 -5.985)" fill="#e0e0e0"/>
        <path id="Trazado_230361" data-name="Trazado 230361" d="M396.608,88.519l-7.034-5.7" transform="translate(-178.208 -37.885)" fill="#fff"/>
        <path id="Trazado_230362" data-name="Trazado 230362" d="M389.573,82.815a33.008,33.008,0,0,1,3.615,2.73,33.014,33.014,0,0,1,3.419,2.972,33.049,33.049,0,0,1-3.616-2.73,33.034,33.034,0,0,1-3.419-2.972" transform="translate(-178.207 -37.882)" fill="#e0e0e0"/>
        <path id="Trazado_230363" data-name="Trazado 230363" d="M286.347,88.8a29.921,29.921,0,0,1,3.285-2.8,29.959,29.959,0,0,1,3.479-2.553,29.945,29.945,0,0,1-3.285,2.8,30.029,30.029,0,0,1-3.478,2.552" transform="translate(-130.987 -38.174)" fill="#e0e0e0"/>
        <rect id="Rectángulo_57820" data-name="Rectángulo 57820" width="31.098" height="10.953" transform="translate(172.228 22.701)" fill="#e0e0e0"/>
        <rect id="Rectángulo_57821" data-name="Rectángulo 57821" width="58.644" height="52.466" transform="translate(0.157 5.698)" fill="#fafafa"/>
        <path id="Trazado_230364" data-name="Trazado 230364" d="M58.8,62.837s-.01-.336-.015-.974-.009-1.585-.016-2.811c-.008-2.463-.02-6.064-.034-10.65-.017-9.167-.04-22.266-.068-38.031l.133.133L.162,10.528H.157l.157-.157C.307,29.459.3,47.42.295,62.837L.157,62.7l42.415.069,11.963.036,3.167.016.817.008c.184,0,.282.008.282.008s-.087.005-.266.008l-.8.008-3.14.016-11.932.036-42.5.069H.019v-.138C.013,47.42.007,29.459,0,10.371v-.157H.162l58.638.024h.133v.133c-.028,15.8-.052,28.928-.068,38.115-.015,4.574-.027,8.164-.034,10.621-.007,1.215-.012,2.148-.016,2.785s-.015.945-.015.945" transform="translate(0 -4.672)" fill="#e0e0e0"/>
        <path id="Trazado_230365" data-name="Trazado 230365" d="M30.109,27.553c0,.086-3.087.157-6.894.157s-6.894-.071-6.894-.157,3.086-.157,6.894-.157,6.894.071,6.894.157" transform="translate(-7.466 -12.532)" fill="#e0e0e0"/>
        <path id="Trazado_230366" data-name="Trazado 230366" d="M55.6,34.813c0,.087-8.48.157-18.938.157s-18.94-.07-18.94-.157,8.479-.156,18.94-.156,18.938.07,18.938.156" transform="translate(-8.105 -15.854)" fill="#e0e0e0"/>
        <rect id="Rectángulo_57822" data-name="Rectángulo 57822" width="2.471" height="2.471" transform="translate(8.956 25.633)" fill="#e0e0e0"/>
        <rect id="Rectángulo_57823" data-name="Rectángulo 57823" width="2.471" height="2.471" transform="translate(15.037 25.633)" fill="#e0e0e0"/>
        <rect id="Rectángulo_57824" data-name="Rectángulo 57824" width="2.471" height="2.471" transform="translate(21.231 25.521)" fill="#e0e0e0"/>
        <rect id="Rectángulo_57825" data-name="Rectángulo 57825" width="2.471" height="2.471" transform="translate(27.201 25.633)" fill="#e0e0e0"/>
        <rect id="Rectángulo_57826" data-name="Rectángulo 57826" width="2.471" height="2.471" transform="translate(33.283 25.633)" fill="#e0e0e0"/>
        <rect id="Rectángulo_57827" data-name="Rectángulo 57827" width="2.471" height="2.471" transform="translate(39.364 25.633)" fill="#e0e0e0"/>
        <rect id="Rectángulo_57828" data-name="Rectángulo 57828" width="2.471" height="2.471" transform="translate(45.446 25.633)" fill="#ebebeb"/>
        <rect id="Rectángulo_57829" data-name="Rectángulo 57829" width="2.471" height="2.471" transform="translate(8.956 30.885)" fill="#ebebeb"/>
        <rect id="Rectángulo_57830" data-name="Rectángulo 57830" width="2.471" height="2.471" transform="translate(15.037 30.885)" fill="#e0e0e0"/>
        <rect id="Rectángulo_57831" data-name="Rectángulo 57831" width="2.471" height="2.471" transform="translate(21.12 30.885)" fill="#ebebeb"/>
        <rect id="Rectángulo_57832" data-name="Rectángulo 57832" width="2.471" height="2.471" transform="translate(27.201 30.885)" fill="#e0e0e0"/>
        <rect id="Rectángulo_57833" data-name="Rectángulo 57833" width="2.471" height="2.471" transform="translate(33.283 30.885)" fill="#e0e0e0"/>
        <rect id="Rectángulo_57834" data-name="Rectángulo 57834" width="2.471" height="2.471" transform="translate(39.476 30.773)" fill="#e0e0e0"/>
        <rect id="Rectángulo_57835" data-name="Rectángulo 57835" width="2.471" height="2.471" transform="translate(45.446 30.885)" fill="#e0e0e0"/>
        <rect id="Rectángulo_57836" data-name="Rectángulo 57836" width="2.471" height="2.471" transform="translate(8.956 36.137)" fill="#e0e0e0"/>
        <rect id="Rectángulo_57837" data-name="Rectángulo 57837" width="2.471" height="2.471" transform="translate(15.15 36.026)" fill="#e0e0e0"/>
        <rect id="Rectángulo_57838" data-name="Rectángulo 57838" width="2.471" height="2.471" transform="translate(21.12 36.137)" fill="#e0e0e0"/>
        <rect id="Rectángulo_57839" data-name="Rectángulo 57839" width="2.471" height="2.471" transform="translate(27.201 36.137)" fill="#ebebeb"/>
        <rect id="Rectángulo_57840" data-name="Rectángulo 57840" width="2.471" height="2.471" transform="translate(33.283 36.137)" fill="#e0e0e0"/>
        <rect id="Rectángulo_57841" data-name="Rectángulo 57841" width="2.471" height="2.471" transform="translate(39.364 36.137)" fill="#e0e0e0"/>
        <rect id="Rectángulo_57842" data-name="Rectángulo 57842" width="2.471" height="2.471" transform="translate(45.446 36.137)" fill="#e0e0e0"/>
        <rect id="Rectángulo_57843" data-name="Rectángulo 57843" width="2.471" height="2.471" transform="translate(8.956 41.39)" fill="#e0e0e0"/>
        <rect id="Rectángulo_57844" data-name="Rectángulo 57844" width="2.471" height="2.471" transform="translate(15.037 41.39)" fill="#e0e0e0"/>
        <rect id="Rectángulo_57845" data-name="Rectángulo 57845" width="2.471" height="2.471" transform="translate(21.12 41.39)" fill="#e0e0e0"/>
        <rect id="Rectángulo_57846" data-name="Rectángulo 57846" width="2.471" height="2.471" transform="translate(27.313 41.278)" fill="#e0e0e0"/>
        <rect id="Rectángulo_57847" data-name="Rectángulo 57847" width="2.471" height="2.471" transform="translate(33.283 41.39)" fill="#e0e0e0"/>
        <rect id="Rectángulo_57848" data-name="Rectángulo 57848" width="2.471" height="2.471" transform="translate(39.364 41.39)" fill="#ebebeb"/>
        <rect id="Rectángulo_57849" data-name="Rectángulo 57849" width="2.471" height="2.471" transform="translate(45.446 41.39)" fill="#e0e0e0"/>
        <rect id="Rectángulo_57850" data-name="Rectángulo 57850" width="2.471" height="2.471" transform="translate(8.956 46.642)" fill="#e0e0e0"/>
        <rect id="Rectángulo_57851" data-name="Rectángulo 57851" width="2.471" height="2.471" transform="translate(15.037 46.642)" fill="#ebebeb"/>
        <rect id="Rectángulo_57852" data-name="Rectángulo 57852" width="2.471" height="2.471" transform="translate(21.12 46.642)" fill="#e0e0e0"/>
        <rect id="Rectángulo_57853" data-name="Rectángulo 57853" width="2.471" height="2.471" transform="translate(27.201 46.642)" fill="#e0e0e0"/>
        <rect id="Rectángulo_57854" data-name="Rectángulo 57854" width="2.471" height="2.471" transform="translate(33.283 46.642)" fill="#e0e0e0"/>
        <rect id="Rectángulo_57855" data-name="Rectángulo 57855" width="2.471" height="2.471" transform="translate(39.476 46.531)" fill="#e0e0e0"/>
        <rect id="Rectángulo_57856" data-name="Rectángulo 57856" width="2.471" height="2.471" transform="translate(45.446 46.642)" fill="#e0e0e0"/>
        <rect id="Rectángulo_57857" data-name="Rectángulo 57857" width="21.611" height="14.567" transform="translate(87.87 91.444) rotate(-20.625)" fill="#ebebeb"/>
        <path id="Trazado_230367" data-name="Trazado 230367" d="M182.415,154.769a1.513,1.513,0,0,1-.12.252l-.378.705-1.421,2.579-4.763,8.492-.04.07-.077-.025-.184-.06-9.378-3.074-2.835-.953-.767-.269a1.522,1.522,0,0,1-.264-.106,1.514,1.514,0,0,1,.276.069l.779.233,2.854.894,9.4,3.019.185.06-.116.045,4.814-8.464,1.475-2.548.41-.687a1.5,1.5,0,0,1,.154-.233" transform="translate(-74.192 -70.798)" fill="#e0e0e0"/>
        <path id="Trazado_230368" data-name="Trazado 230368" d="M171.645,184.788c-.051-.018.767-2.459,1.826-5.452s1.96-5.4,2.011-5.387-.766,2.459-1.826,5.453-1.96,5.4-2.011,5.387" transform="translate(-78.517 -79.572)" fill="#e0e0e0"/>
        <path id="Trazado_230369" data-name="Trazado 230369" d="M190.992,168.97c.028-.046,2.229,1.243,4.916,2.88s4.843,3,4.815,3.048-2.229-1.243-4.917-2.88-4.842-3-4.814-3.048" transform="translate(-87.368 -77.294)" fill="#e0e0e0"/>
        <path id="Trazado_230370" data-name="Trazado 230370" d="M243.529,73.145a6.775,6.775,0,0,1,1.655-.719l.341-1.639,2.768-.048.4,1.625a6.76,6.76,0,0,1,1.679.661l1.4-.917,1.992,1.923-.867,1.43a6.763,6.763,0,0,1,.719,1.655l1.638.341.049,2.768-1.625.4a6.761,6.761,0,0,1-.661,1.679l.917,1.4-1.923,1.991-1.43-.867a6.789,6.789,0,0,1-1.655.719l-.341,1.638-2.768.048-.4-1.625a6.76,6.76,0,0,1-1.679-.661l-1.4.917-1.991-1.923.867-1.43a6.791,6.791,0,0,1-.719-1.655l-1.638-.341-.048-2.768,1.625-.4a6.779,6.779,0,0,1,.66-1.679l-.916-1.4,1.922-1.992ZM245,76.832a2.969,2.969,0,1,0,4.2-.074,2.969,2.969,0,0,0-4.2.074" transform="translate(-109.241 -32.359)" fill="#e0e0e0"/>
        <path id="Trazado_230371" data-name="Trazado 230371" d="M249.482,81.159a2.246,2.246,0,0,1,.553-.485,2.957,2.957,0,0,1,1.937-.458,3,3,0,0,1,1.317.468,3.037,3.037,0,0,1,1.065,1.2,3.044,3.044,0,0,1,.287,1.748,3.03,3.03,0,0,1-2.507,2.6A3.04,3.04,0,0,1,250.377,86a3.042,3.042,0,0,1-1.236-1.022,2.989,2.989,0,0,1-.513-1.3,2.952,2.952,0,0,1,.39-1.952,2.243,2.243,0,0,1,.465-.57c.016.014-.179.195-.408.6a2.958,2.958,0,0,0-.328,1.9,2.9,2.9,0,0,0,1.695,2.2,2.9,2.9,0,0,0,1.665.2,2.876,2.876,0,0,0,2.369-2.455,2.9,2.9,0,0,0-.263-1.656,2.9,2.9,0,0,0-2.254-1.617,2.962,2.962,0,0,0-1.889.394c-.4.243-.573.445-.588.429" transform="translate(-113.719 -36.686)" fill="#e0e0e0"/>
        <path id="Trazado_230372" data-name="Trazado 230372" d="M243.476,73.1a.682.682,0,0,1-.092-.049l-.275-.158-1.077-.636.034,0-1.911,2,.005-.054.922,1.395.017.025-.015.027a6.764,6.764,0,0,0-.65,1.668l-.008.033-.033.008-1.624.4.046-.06c.017.871.036,1.8.055,2.768l-.053-.065,1.639.338.042.009.012.041a6.735,6.735,0,0,0,.714,1.636l.023.038-.023.039-.865,1.431-.012-.094,1.994,1.92-.1-.009,1.4-.919.041-.027.043.024a6.735,6.735,0,0,0,1.66.651l.048.012.012.049c.125.509.261,1.064.4,1.624l-.082-.063,2.768-.049-.081.067c.108-.518.224-1.076.341-1.638l.01-.051.05-.014a6.737,6.737,0,0,0,1.633-.71h0l.044-.027.043.027,1.43.867-.105.014,1.923-1.991-.01.1-.916-1.4-.028-.042.024-.044a6.7,6.7,0,0,0,.654-1.658l.012-.049.048-.012,1.625-.4-.062.08q-.023-1.417-.046-2.768l.062.075-1.638-.343-.045-.01-.012-.045a6.741,6.741,0,0,0-.709-1.638l-.023-.038.023-.038.87-1.429.011.087-1.987-1.927.081.008-1.4.913-.031.021-.032-.018a6.746,6.746,0,0,0-1.663-.66l-.033-.009-.008-.033-.393-1.626.05.038-2.768.036.037-.03-.352,1.636,0,.016-.016,0a7.031,7.031,0,0,0-1.265.487l-.3.156a.691.691,0,0,1-.1.05.855.855,0,0,1,.092-.063c.063-.039.159-.1.292-.168a6.581,6.581,0,0,1,1.264-.514l-.02.021.33-1.64.006-.03h.031l2.768-.061h.04l.01.039c.125.5.257,1.034.4,1.624l-.041-.041a6.855,6.855,0,0,1,1.7.662l-.063,0,1.4-.92.043-.029.037.036,2,1.918.041.04-.029.048-.865,1.431V75.38a6.847,6.847,0,0,1,.729,1.673L253.576,77l1.638.339.061.012,0,.063q.024,1.349.051,2.768l0,.065-.063.016-1.624.4.06-.06a6.848,6.848,0,0,1-.668,1.7l0-.086.917,1.4.037.056-.047.048-1.922,1.992-.047.049-.058-.035-1.43-.867h.086a6.878,6.878,0,0,1-1.674.727l.06-.065c-.117.563-.234,1.121-.341,1.638l-.014.066h-.067l-2.768.048H245.7l-.016-.065c-.137-.561-.273-1.117-.4-1.625l.06.06a6.878,6.878,0,0,1-1.7-.67l.084,0-1.4.915-.053.035-.045-.044-1.99-1.925-.043-.042.031-.052.869-1.429V82.5a6.866,6.866,0,0,1-.724-1.674l.054.049-1.637-.344-.053-.011v-.054c-.015-.971-.029-1.9-.042-2.768v-.049l.047-.011,1.626-.394-.041.041A6.834,6.834,0,0,1,241,75.6l0,.052-.911-1.4-.019-.029.024-.024,1.934-1.98.015-.016.018.011,1.054.655.271.172a.9.9,0,0,1,.092.063" transform="translate(-109.189 -32.316)" fill="#e0e0e0"/>
      </g>
    </g>
    <g id="Grupo_179892" data-name="Grupo 179892">
      <g id="Grupo_179891" data-name="Grupo 179891" clip-path="url(#clip-path)">
        <path id="Trazado_230373" data-name="Trazado 230373" d="M223.151,446.3c0,.078-49.68.141-110.949.141-61.29,0-110.959-.063-110.959-.141s49.669-.141,110.959-.141c61.269,0,110.949.063,110.949.141" transform="translate(-0.569 -204.092)" fill="#263238"/>
      </g>
    </g>
    <g id="Grupo_179897" data-name="Grupo 179897">
      <g id="Grupo_179896" data-name="Grupo 179896" clip-path="url(#clip-path)">
        <path id="Trazado_230374" data-name="Trazado 230374" d="M321,200.788s6.409-7.376,8.827-14.752,1.27-6.529,1.27-6.529a84.757,84.757,0,0,1-5.744,10.626c-2.479,3.46-6.892,8.539-6.892,8.539Z" transform="translate(-145.677 -82.101)" fill="#455a64"/>
        <path id="Trazado_230375" data-name="Trazado 230375" d="M318.106,181.489a.373.373,0,0,1,.7.238,96.806,96.806,0,0,0-1.2,12.614c.043,5.123,0,7.1,0,7.1H314.93s.474-10.59,1.076-13.818a22.169,22.169,0,0,1,2.1-6.136" transform="translate(-144.063 -82.933)" fill="#455a64"/>
        <path id="Trazado_230376" data-name="Trazado 230376" d="M314.053,199.812a28.249,28.249,0,0,1-2.2-7.964c-.22-1.886.172-4.434.755-7.835a21.073,21.073,0,0,0,.337-3.77.636.636,0,0,0-1.195-.3,16.9,16.9,0,0,0-1.49,3.767c-.646,3.357-1.378,5.037-.818,8.222a49.378,49.378,0,0,0,2.626,8.093Z" transform="translate(-141.463 -82.163)" fill="#455a64"/>
        <path id="Trazado_230377" data-name="Trazado 230377" d="M305.21,196.584s-7.036-15.122-7.524-17.365-2.146-7.413-2.341-7.121a10.412,10.412,0,0,0,.78,6.145c1.268,3.121,6.682,18.8,6.682,18.8h2.4" transform="translate(-135.024 -78.72)" fill="#455a64"/>
        <path id="Trazado_230378" data-name="Trazado 230378" d="M319.524,199.456a1.414,1.414,0,0,0,.2-.136c.125-.094.314-.227.545-.416a24.922,24.922,0,0,0,1.891-1.669,31.709,31.709,0,0,0,5.1-6.552,42.934,42.934,0,0,0,3.485-7.548c.354-1,.612-1.826.78-2.4.086-.285.145-.508.187-.659a1.327,1.327,0,0,0,.054-.233,1.511,1.511,0,0,0-.083.225l-.214.651c-.185.565-.458,1.381-.824,2.379a45.649,45.649,0,0,1-3.514,7.507,33.122,33.122,0,0,1-5.05,6.553c-.753.748-1.4,1.319-1.853,1.7-.225.195-.408.335-.527.437a1.392,1.392,0,0,0-.178.159" transform="translate(-146.164 -82.269)" fill="#263238"/>
        <path id="Trazado_230379" data-name="Trazado 230379" d="M318.1,193.159a2.533,2.533,0,0,0,.063-.444c.034-.313.078-.721.13-1.212.112-1.023.285-2.434.534-3.983s.527-2.944.742-3.951c.1-.483.19-.884.257-1.191a2.645,2.645,0,0,0,.079-.441,2.5,2.5,0,0,0-.136.427c-.079.277-.183.681-.3,1.182-.241,1-.536,2.4-.786,3.95s-.407,2.97-.492,4c-.042.514-.07.93-.082,1.218a2.544,2.544,0,0,0,0,.448" transform="translate(-145.51 -83.226)" fill="#263238"/>
        <path id="Trazado_230380" data-name="Trazado 230380" d="M313.617,180.006a1.128,1.128,0,0,0-.083.192l-.211.562c-.093.244-.2.544-.3.9s-.24.755-.342,1.21c-.055.227-.114.464-.174.711s-.1.509-.155.779c-.115.537-.186,1.119-.272,1.73a25.843,25.843,0,0,0,.287,7.993c.129.6.241,1.179.394,1.706.073.264.133.522.21.766l.225.7c.135.447.3.836.428,1.183s.255.64.366.876l.251.545a1.134,1.134,0,0,0,.1.186,1.068,1.068,0,0,0-.069-.2l-.224-.555c-.1-.239-.222-.534-.341-.883s-.278-.739-.405-1.186c-.069-.222-.14-.455-.215-.7s-.131-.5-.2-.764c-.147-.526-.255-1.1-.379-1.7a26.728,26.728,0,0,1-.285-7.952c.081-.608.147-1.188.256-1.724.051-.268.09-.529.146-.776s.112-.483.164-.71c.095-.455.223-.856.32-1.212s.193-.659.277-.906.137-.425.184-.57a1.1,1.1,0,0,0,.055-.2" transform="translate(-142.676 -82.343)" fill="#263238"/>
        <path id="Trazado_230381" data-name="Trazado 230381" d="M295.641,172.67a.229.229,0,0,0,.005.068c.009.053.019.118.031.2.031.172.07.428.138.753.136.65.362,1.587.715,2.723s.831,2.468,1.4,3.931,1.228,3.059,1.852,4.757,1.123,3.349,1.582,4.85.887,2.851,1.3,3.964a25.46,25.46,0,0,0,1.111,2.586c.144.3.274.523.357.677l.1.173a.034.034,0,1,0,.014-.007l-.085-.18c-.075-.158-.2-.385-.332-.688-.283-.6-.665-1.481-1.064-2.6s-.824-2.464-1.271-3.968-.938-3.163-1.573-4.862-1.29-3.3-1.864-4.755-1.066-2.784-1.429-3.912-.605-2.058-.758-2.7c-.078-.322-.126-.576-.167-.745-.018-.078-.033-.142-.046-.194a.239.239,0,0,0-.021-.065" transform="translate(-135.239 -78.987)" fill="#263238"/>
        <path id="Trazado_230382" data-name="Trazado 230382" d="M326.3,166.367a.606.606,0,0,1,1,.618,17.321,17.321,0,0,1-.884,2.273c-.967,2.056-3.809,9.432-5.139,13.483s-3.2,11.608-3.2,11.608l-2.84-.461s2.6-12.417,5.137-16.891c2.041-3.595,4.081-8.79,5.933-10.63" transform="translate(-144.2 -76.023)" fill="#455a64"/>
        <path id="Trazado_230383" data-name="Trazado 230383" d="M322.889,201.362a1.763,1.763,0,0,0-.146.34c-.084.223-.2.548-.327.954-.262.81-.582,1.942-.9,3.2s-.59,2.4-.776,3.231l-.214.984a1.74,1.74,0,0,0-.059.366,1.809,1.809,0,0,0,.116-.352c.069-.259.156-.585.26-.973.218-.855.5-1.978.819-3.22s.626-2.389.86-3.205c.112-.385.206-.709.282-.966a1.789,1.789,0,0,0,.091-.359" transform="translate(-146.592 -92.112)" fill="#263238"/>
        <path id="Trazado_230384" data-name="Trazado 230384" d="M317.831,194.225a.283.283,0,0,0,.016-.076c.008-.059.019-.132.032-.224.03-.2.056-.488.116-.86.1-.746.291-1.821.6-3.133a44.931,44.931,0,0,1,1.329-4.537c.583-1.683,1.314-3.5,2.141-5.383,1.671-3.759,3.34-7.093,4.438-9.559.555-1.23.984-2.234,1.266-2.934.144-.348.247-.623.319-.808l.079-.212a.277.277,0,0,0,.022-.074.327.327,0,0,0-.036.068l-.092.206-.346.8c-.3.692-.743,1.689-1.309,2.912-1.12,2.452-2.8,5.777-4.478,9.542-.83,1.885-1.558,3.708-2.135,5.4a42.685,42.685,0,0,0-1.3,4.559,31.74,31.74,0,0,0-.55,3.149c-.052.374-.069.667-.088.864-.007.092-.013.166-.018.226a.3.3,0,0,0,0,.077" transform="translate(-145.389 -76.131)" fill="#263238"/>
        <path id="Trazado_230385" data-name="Trazado 230385" d="M315.225,207.176a3,3,0,0,0,.1-.477l.221-1.305c.2-1.1.495-2.616.925-4.266s.9-3.12,1.273-4.176l.444-1.247a3.1,3.1,0,0,0,.151-.463,3,3,0,0,0-.206.442c-.123.288-.293.708-.49,1.233a41.219,41.219,0,0,0-1.318,4.173,43.332,43.332,0,0,0-.884,4.287c-.081.554-.143,1-.174,1.315a3,3,0,0,0-.038.486" transform="translate(-144.197 -89.312)" fill="#263238"/>
        <rect id="Rectángulo_57860" data-name="Rectángulo 57860" width="11.087" height="13.508" transform="translate(165.199 117.456)" fill="#b0c0d2"/>
        <rect id="Rectángulo_57863" data-name="Rectángulo 57863" width="9.836" height="13.508" transform="translate(168.736 117.456)" fill="#12263f"/>
      </g>
    </g>
    <rect id="Rectángulo_57865" data-name="Rectángulo 57865" width="21.611" height="14.567" transform="matrix(0.952, -0.305, 0.305, 0.952, 56.083, 12.775)" fill="#afafaf"/>
    <g id="Grupo_179899" data-name="Grupo 179899">
      <g id="Grupo_179898" data-name="Grupo 179898" clip-path="url(#clip-path)">
        <path id="Trazado_230386" data-name="Trazado 230386" d="M124.17,11.669a1.521,1.521,0,0,1-.132.246l-.412.685-1.548,2.5-5.183,8.243-.042.068-.075-.029-.182-.069-9.212-3.54L104.6,18.685l-.753-.307a1.559,1.559,0,0,1-.258-.119,1.523,1.523,0,0,1,.272.082l.766.272,2.806,1.035,9.232,3.486.182.069-.118.039,5.232-8.212,1.6-2.471.443-.666a1.5,1.5,0,0,1,.165-.225" transform="translate(-47.386 -5.338)" fill="#263238"/>
        <path id="Trazado_230387" data-name="Trazado 230387" d="M111.773,40.42c-.05-.021.889-2.418,2.1-5.354s2.228-5.3,2.278-5.279-.889,2.417-2.1,5.354-2.228,5.3-2.278,5.279" transform="translate(-51.129 -13.626)" fill="#263238"/>
        <path id="Trazado_230388" data-name="Trazado 230388" d="M132.346,25.428c.03-.045,2.164,1.353,4.765,3.122s4.686,3.24,4.656,3.285S139.6,30.483,137,28.713s-4.686-3.24-4.655-3.285" transform="translate(-60.541 -11.631)" fill="#263238"/>
      </g>
    </g>
    <g id="Grupo_179907" data-name="Grupo 179907">
      <g id="Grupo_179906" data-name="Grupo 179906" clip-path="url(#clip-path)">
        <path id="Trazado_230389" data-name="Trazado 230389" d="M294.922,40.13,279.6,33.64a2.082,2.082,0,0,1-1.1-2.729l8.983-21.2a2.082,2.082,0,0,1,2.729-1.1l9.716,4.116,4.237,10.937-6.511,15.37a2.082,2.082,0,0,1-2.729,1.1" transform="translate(-127.322 -3.86)" fill="#afafaf"/>
        <path id="Trazado_230390" data-name="Trazado 230390" d="M315.869,16.328,313.34,22.3a1.936,1.936,0,0,0,1.028,2.538l5.737,2.432Z" transform="translate(-143.266 -7.469)" fill="#636363"/>
        <g id="Grupo_179902" data-name="Grupo 179902" transform="translate(169.768 15.384)" opacity="0.2">
          <g id="Grupo_179901" data-name="Grupo 179901">
            <g id="Grupo_179900" data-name="Grupo 179900" clip-path="url(#clip-path-7)">
              <path id="Trazado_230391" data-name="Trazado 230391" d="M313.068,28.354a2.153,2.153,0,0,0,.757,2.589,1.9,1.9,0,0,0,.171.123c.692.451,5.253,3.418,5.3,3.3l.679-1.6-5.738-2.431a1.984,1.984,0,0,1-1.17-1.982" transform="translate(-312.904 -28.354)"/>
            </g>
          </g>
        </g>
        <path id="Trazado_230393" data-name="Trazado 230393" d="M305.317,23.339a24.709,24.709,0,0,1-3.6-1.362,24.655,24.655,0,0,1-3.485-1.64,24.74,24.74,0,0,1,3.6,1.362,24.7,24.7,0,0,1,3.485,1.64" transform="translate(-136.423 -9.3)" fill="#fafafa"/>
        <path id="Trazado_230394" data-name="Trazado 230394" d="M307.26,31.5c-.033.077-2.67-.967-5.891-2.332s-5.806-2.533-5.774-2.61,2.67.967,5.892,2.332,5.806,2.533,5.773,2.61" transform="translate(-135.218 -12.147)" fill="#fafafa"/>
        <path id="Trazado_230395" data-name="Trazado 230395" d="M306.111,37.137c-.033.076-2.905-1.067-6.416-2.554s-6.332-2.756-6.3-2.832,2.9,1.067,6.417,2.554,6.331,2.756,6.3,2.832" transform="translate(-134.212 -14.523)" fill="#fafafa"/>
        <path id="Trazado_230396" data-name="Trazado 230396" d="M304.035,42.036c-.033.077-2.905-1.067-6.416-2.554s-6.332-2.756-6.3-2.832,2.9,1.067,6.417,2.554,6.331,2.756,6.3,2.832" transform="translate(-133.262 -16.764)" fill="#fafafa"/>
        <path id="Trazado_230397" data-name="Trazado 230397" d="M301.959,46.936c-.033.077-2.905-1.067-6.416-2.554s-6.332-2.756-6.3-2.832,2.9,1.067,6.417,2.554,6.331,2.756,6.3,2.832" transform="translate(-132.313 -19.005)" fill="#fafafa"/>
        <path id="Trazado_230398" data-name="Trazado 230398" d="M299.884,51.835c-.033.076-2.905-1.067-6.416-2.554s-6.331-2.756-6.3-2.832,2.9,1.067,6.417,2.554,6.331,2.756,6.3,2.832" transform="translate(-131.364 -21.246)" fill="#fafafa"/>
      </g>
    </g>
    <g id="Grupo_179909" data-name="Grupo 179909">
      <g id="Grupo_179908" data-name="Grupo 179908" clip-path="url(#clip-path)">
        <path id="Trazado_230399" data-name="Trazado 230399" d="M217.144,20.713A20.262,20.262,0,1,1,196.881.451a20.262,20.262,0,0,1,20.262,20.262" transform="translate(-80.793 -0.206)" fill="#fff"/>
        <path id="Trazado_230400" data-name="Trazado 230400" d="M217.025,20.615s-.015-.111-.031-.328-.036-.546-.063-.962q-.019-.318-.042-.708c-.028-.259-.083-.54-.129-.846a14.816,14.816,0,0,0-.422-2.09,19.332,19.332,0,0,0-2.245-5.373A20.247,20.247,0,0,0,200.48.827a18.734,18.734,0,0,0-2.547-.294c-.434-.015-.872-.058-1.312-.05l-1.333.069c-.224.016-.449.014-.673.044l-.671.1c-.448.074-.9.126-1.355.22a21.322,21.322,0,0,0-2.685.788,20.988,20.988,0,0,0-2.625,1.154c-.425.231-.833.5-1.253.749-.206.132-.426.244-.622.393l-.592.444a22.717,22.717,0,0,0-2.283,1.94,22.754,22.754,0,0,0-1.972,2.333l-.463.619-.405.662-.4.666a5.031,5.031,0,0,0-.375.686l-.683,1.419-.546,1.49a21.508,21.508,0,0,0-1.038,6.348,21.513,21.513,0,0,0,1.037,6.351l.546,1.49.684,1.42a4.942,4.942,0,0,0,.374.686l.4.667.405.662.463.62a22.766,22.766,0,0,0,1.972,2.333,22.538,22.538,0,0,0,2.284,1.941l.592.444c.2.149.416.262.622.393.421.25.828.519,1.253.749a21,21,0,0,0,2.625,1.154,21.264,21.264,0,0,0,2.685.788c.45.093.907.146,1.355.22l.671.1c.224.03.45.028.673.044l1.333.069c.441.007.879-.035,1.313-.05a18.722,18.722,0,0,0,2.547-.294,20.25,20.25,0,0,0,13.612-9.482,19.314,19.314,0,0,0,2.245-5.373,14.653,14.653,0,0,0,.422-2.089c.046-.306.1-.587.129-.846s.03-.5.042-.708c.027-.415.048-.734.063-.961s.031-.328.031-.328,0,.111,0,.328-.02.548-.035.965q-.013.32-.029.711c-.023.26-.074.543-.116.851a14.492,14.492,0,0,1-.4,2.105A19.215,19.215,0,0,1,214.229,31a20.367,20.367,0,0,1-13.7,9.631,18.965,18.965,0,0,1-2.576.305c-.439.016-.882.06-1.329.054l-1.349-.067c-.226-.015-.455-.014-.681-.042l-.68-.1c-.454-.074-.916-.126-1.372-.22a21.5,21.5,0,0,1-2.721-.793,21.158,21.158,0,0,1-2.662-1.165c-.431-.233-.845-.5-1.271-.757-.209-.133-.432-.247-.631-.4l-.6-.449a22.876,22.876,0,0,1-2.316-1.965,23.011,23.011,0,0,1-2-2.363l-.47-.628-.411-.671-.411-.675a5.111,5.111,0,0,1-.38-.7l-.694-1.439-.554-1.512a21.762,21.762,0,0,1-1.053-6.44,21.731,21.731,0,0,1,1.054-6.437l.555-1.511.693-1.438a5.109,5.109,0,0,1,.381-.7l.411-.675.411-.671.47-.627a23.063,23.063,0,0,1,2-2.362,22.985,22.985,0,0,1,2.316-1.964l.6-.449c.2-.15.422-.264.631-.4.426-.252.84-.524,1.271-.756a21.11,21.11,0,0,1,2.662-1.165,21.493,21.493,0,0,1,2.72-.793c.457-.094.918-.146,1.372-.22l.68-.1c.226-.029.455-.028.681-.043l1.349-.067c.447-.005.889.038,1.329.054A18.88,18.88,0,0,1,200.523.6a20.364,20.364,0,0,1,13.7,9.63,19.216,19.216,0,0,1,2.216,5.427,14.424,14.424,0,0,1,.4,2.105c.042.308.093.59.116.851s.021.5.029.712c.015.416.027.737.035.965s0,.328,0,.328" transform="translate(-80.674 -0.108)" fill="#263238"/>
        <path id="Trazado_230401" data-name="Trazado 230401" d="M222.577,28.519a5.082,5.082,0,0,1-.818.234l-2.261.54c-1.915.445-4.575,1.044-7.544,1.7l-.171.038v-.766c0-3.175.016-6.049.041-8.13.018-1,.034-1.833.045-2.463a5.548,5.548,0,0,1,.055-.9,5.573,5.573,0,0,1,.055.9c.011.63.027,1.46.044,2.463.025,2.081.042,4.955.042,8.13,0,.2,0,.4,0,.59l-.171-.138c2.97-.648,5.637-1.215,7.563-1.611l2.279-.454a5.011,5.011,0,0,1,.84-.13" transform="translate(-96.879 -8.584)" fill="#263238"/>
        <path id="Trazado_230402" data-name="Trazado 230402" d="M245.3,28.86a1.549,1.549,0,0,1,.09-.329c.062-.214.182-.519.3-.926a24.439,24.439,0,0,0,.792-3.475,23.947,23.947,0,0,0-1.071-11.577,23.953,23.953,0,0,0-6.5-9.639A24.506,24.506,0,0,0,236.091.727c-.345-.243-.631-.4-.814-.529A1.569,1.569,0,0,1,235,0a1.548,1.548,0,0,1,.306.149c.194.111.49.256.846.486a21.537,21.537,0,0,1,2.886,2.131,23.065,23.065,0,0,1,7.639,21.4,21.484,21.484,0,0,1-.884,3.477c-.13.4-.267.7-.347.911a1.517,1.517,0,0,1-.143.309" transform="translate(-107.499 0)" fill="#263238"/>
        <path id="Trazado_230403" data-name="Trazado 230403" d="M257.267,23.486c-.046,0-.072-.807-.238-2.1a24.584,24.584,0,0,0-3.265-9.534c-.662-1.12-1.137-1.774-1.1-1.8a2.077,2.077,0,0,1,.378.428c.227.288.538.718.893,1.269a21.49,21.49,0,0,1,3.293,9.617c.059.653.076,1.184.075,1.55a2.143,2.143,0,0,1-.036.569" transform="translate(-115.579 -4.598)" fill="#263238"/>
        <path id="Trazado_230404" data-name="Trazado 230404" d="M173.856,16.165a1.607,1.607,0,0,1-.141.31c-.1.2-.263.483-.439.867a24.442,24.442,0,0,0-1.333,3.3,23.436,23.436,0,0,0,4.1,22.15,24.378,24.378,0,0,0,2.43,2.608c.3.295.559.5.719.652a1.65,1.65,0,0,1,.243.24,1.487,1.487,0,0,1-.279-.2c-.173-.139-.442-.33-.757-.614a21.485,21.485,0,0,1-2.51-2.562,23.069,23.069,0,0,1-4.141-22.339,21.481,21.481,0,0,1,1.426-3.293c.192-.377.375-.652.487-.845a1.482,1.482,0,0,1,.19-.282" transform="translate(-77.997 -7.394)" fill="#263238"/>
        <path id="Trazado_230405" data-name="Trazado 230405" d="M166.395,33.175c.045.006-.057.808-.1,2.108A24.575,24.575,0,0,0,168,45.215c.475,1.211.84,1.933.8,1.954a2.132,2.132,0,0,1-.3-.482c-.178-.32-.416-.794-.679-1.395A21.492,21.492,0,0,1,166.1,35.274c.046-.654.113-1.181.173-1.542a2.118,2.118,0,0,1,.126-.556" transform="translate(-75.957 -15.176)" fill="#263238"/>
        <path id="Trazado_230406" data-name="Trazado 230406" d="M243.717,43.714c-.764-.157-1.383-.29-1.381-.3s.622.112,1.387.269,1.382.29,1.381.3-.623-.113-1.387-.269" transform="translate(-110.855 -19.861)" fill="#263238"/>
        <path id="Trazado_230407" data-name="Trazado 230407" d="M240.24,52.763c-.672-.4-1.214-.723-1.21-.729s.552.309,1.225.705,1.214.723,1.21.729-.552-.309-1.224-.705" transform="translate(-109.343 -23.803)" fill="#263238"/>
        <path id="Trazado_230408" data-name="Trazado 230408" d="M234,60.181c-.507-.594-.913-1.078-.908-1.083s.421.472.928,1.066.913,1.078.907,1.083-.421-.473-.928-1.066" transform="translate(-106.629 -27.034)" fill="#263238"/>
        <path id="Trazado_230409" data-name="Trazado 230409" d="M225.706,65.181c-.288-.725-.516-1.315-.509-1.318s.246.583.534,1.308.515,1.315.509,1.318-.246-.583-.534-1.308" transform="translate(-103.015 -29.214)" fill="#263238"/>
        <path id="Trazado_230410" data-name="Trazado 230410" d="M216.234,67.217c-.036-.78-.059-1.412-.052-1.412s.042.632.078,1.411.059,1.411.052,1.412-.042-.632-.078-1.411" transform="translate(-98.891 -30.102)" fill="#263238"/>
        <path id="Trazado_230411" data-name="Trazado 230411" d="M205.939,66.059c.218-.749.4-1.355.408-1.353s-.163.611-.381,1.361-.4,1.354-.408,1.352.163-.611.381-1.36" transform="translate(-94.031 -29.599)" fill="#263238"/>
        <path id="Trazado_230412" data-name="Trazado 230412" d="M196.5,61.848c.451-.637.821-1.15.827-1.146s-.354.524-.8,1.162-.82,1.15-.826,1.145.354-.524.8-1.161" transform="translate(-89.519 -27.768)" fill="#263238"/>
        <path id="Trazado_230413" data-name="Trazado 230413" d="M189.062,55.024c.633-.457,1.149-.822,1.153-.816s-.505.381-1.138.838-1.149.822-1.153.815.505-.381,1.138-.837" transform="translate(-85.965 -24.797)" fill="#263238"/>
        <path id="Trazado_230414" data-name="Trazado 230414" d="M184.41,46.339c.747-.227,1.353-.406,1.355-.4s-.6.2-1.348.424-1.353.406-1.355.4.6-.2,1.348-.424" transform="translate(-83.741 -21.015)" fill="#263238"/>
        <path id="Trazado_230415" data-name="Trazado 230415" d="M183.062,36.639c.78.029,1.412.059,1.412.066s-.633-.01-1.413-.039-1.411-.059-1.411-.066.633.01,1.412.039" transform="translate(-83.095 -16.741)" fill="#263238"/>
        <path id="Trazado_230416" data-name="Trazado 230416" d="M185.162,26.373c.729.279,1.317.511,1.315.518s-.6-.213-1.324-.492-1.317-.511-1.315-.518.6.213,1.324.492" transform="translate(-84.096 -11.839)" fill="#263238"/>
        <path id="Trazado_230417" data-name="Trazado 230417" d="M190.482,17.344c.6.5,1.079.913,1.074.919s-.493-.4-1.091-.9-1.078-.913-1.073-.919.493.4,1.091.9" transform="translate(-86.636 -7.523)" fill="#263238"/>
        <path id="Trazado_230418" data-name="Trazado 230418" d="M198.441,10.54c.4.668.725,1.213.719,1.216s-.339-.534-.742-1.2-.725-1.212-.719-1.216.339.534.742,1.2" transform="translate(-90.436 -4.272)" fill="#263238"/>
        <path id="Trazado_230419" data-name="Trazado 230419" d="M208.172,6.676c.165.763.293,1.382.285,1.385s-.146-.616-.311-1.379-.293-1.382-.285-1.383.146.615.311,1.377" transform="translate(-95.085 -2.424)" fill="#263238"/>
        <path id="Trazado_230420" data-name="Trazado 230420" d="M218.356,6.192c-.093.775-.174,1.4-.182,1.4s.062-.63.155-1.4.174-1.4.182-1.4-.062.63-.155,1.4" transform="translate(-99.802 -2.19)" fill="#263238"/>
        <path id="Trazado_230421" data-name="Trazado 230421" d="M227.669,9.124c-.339.7-.618,1.271-.625,1.267s.262-.576.6-1.279.618-1.271.624-1.267-.262.576-.6,1.279" transform="translate(-103.86 -3.589)" fill="#263238"/>
        <path id="Trazado_230422" data-name="Trazado 230422" d="M235.583,15.169c-.55.554-1,1-1,.995s.436-.459.985-1.013,1-1,1-.994-.435.459-.984,1.013" transform="translate(-107.307 -6.476)" fill="#263238"/>
        <path id="Trazado_230423" data-name="Trazado 230423" d="M241.255,23.658c-.7.347-1.268.623-1.271.617s.56-.294,1.259-.641,1.267-.623,1.271-.617-.56.294-1.259.641" transform="translate(-109.779 -10.529)" fill="#263238"/>
        <path id="Trazado_230424" data-name="Trazado 230424" d="M244.079,33.675c-.774.1-1.4.177-1.4.17s.625-.1,1.4-.2,1.4-.177,1.4-.17-.626.1-1.4.2" transform="translate(-111.011 -15.314)" fill="#263238"/>
        <path id="Trazado_230425" data-name="Trazado 230425" d="M261.369,30.392a14.83,14.83,0,0,1-1.16,2.642l-.031.063-.11.22-.135-.205a14.321,14.321,0,0,1-1.426-2.426,14.255,14.255,0,0,1,1.662,2.271l-.244.015.031-.063a14.8,14.8,0,0,1,1.413-2.516" transform="translate(-118.25 -13.902)" fill="#263238"/>
      </g>
    </g>
    <g id="Grupo_179926" data-name="Grupo 179926">
      <g id="Grupo_179925" data-name="Grupo 179925" clip-path="url(#clip-path)">
        <path id="Trazado_230426" data-name="Trazado 230426" d="M222.215,114.848H158.449a5.649,5.649,0,1,0,0,11.3h29.823l6.679,6.364v-6.364h27.265a5.649,5.649,0,0,0,0-11.3" transform="translate(-69.898 -52.537)" fill="#fafafa"/>
        <path id="Trazado_230427" data-name="Trazado 230427" d="M222.1,114.732s.071,0,.209,0a4.075,4.075,0,0,1,.619.047,5.552,5.552,0,0,1,2.26.83,5.683,5.683,0,0,1,1.548,8.117,5.773,5.773,0,0,1-2.433,1.945,6.231,6.231,0,0,1-1.637.416c-.581.044-1.157.027-1.752.033l-7.682.014-18.4.022.124-.124c0,1.992,0,4.153,0,6.364v.3l-.219-.208-6.683-6.36.093.037-25.363.006h-4.425a5.79,5.79,0,0,1-4.429-9.55,5.737,5.737,0,0,1,3.665-1.975c.706-.079,1.385-.041,2.065-.05h2.03l7.9,0,27.325.03,18.422.045,5.008.026,1.3.014c.294,0,.444.015.444.015s-.15.01-.444.015l-1.3.014-5.008.027-18.422.045-27.325.03-7.9,0h-2.03c-.678.009-1.372-.025-2.031.05a5.508,5.508,0,0,0-3.125,9.426,5.526,5.526,0,0,0,3.854,1.545H162.8l25.363.006h.054l.039.037,6.675,6.368-.218.094c0-2.211,0-4.372.005-6.364v-.124h.124l18.4.022,7.682.014c.592,0,1.18.016,1.735-.024a6.067,6.067,0,0,0,1.592-.4,5.6,5.6,0,0,0-1.319-10.7c-.538-.084-.824-.068-.823-.086" transform="translate(-69.785 -52.421)" fill="#263238"/>
        <path id="Trazado_230428" data-name="Trazado 230428" d="M187.706,125.886h-27.93a3.991,3.991,0,0,1,0-7.983h27.93a3.991,3.991,0,1,1,0,7.983" transform="translate(-71.263 -53.934)" fill="#4adbd1"/>
        <path id="Trazado_230429" data-name="Trazado 230429" d="M215.038,104.115,214.094,107h-.718l-.635-1.954L212.086,107h-.713l-.948-2.886h.692l.652,2.029.68-2.029h.618l.66,2.045.672-2.045Z" transform="translate(-96.258 -47.627)" fill="#263238"/>
        <path id="Trazado_230430" data-name="Trazado 230430" d="M219.215,105.517a1.582,1.582,0,1,1,1.579,1.493,1.493,1.493,0,0,1-1.579-1.493m2.482,0a.9.9,0,1,0-.9.923.88.88,0,0,0,.9-.923" transform="translate(-100.279 -47.586)" fill="#263238"/>
        <path id="Trazado_230431" data-name="Trazado 230431" d="M227.8,107l-.556-.8h-.615v.8h-.667v-2.886h1.249c.771,0,1.253.4,1.253,1.047a.938.938,0,0,1-.594.911l.647.927Zm-.626-2.342h-.545v1.006h.545c.408,0,.614-.189.614-.5s-.206-.5-.614-.5" transform="translate(-103.365 -47.627)" fill="#263238"/>
        <path id="Trazado_230432" data-name="Trazado 230432" d="M232.6,105.868l-.387.4V107h-.664v-2.886h.664v1.348l1.278-1.348h.742l-1.2,1.286L234.3,107h-.78Z" transform="translate(-105.92 -47.627)" fill="#263238"/>
        <path id="Trazado_230433" data-name="Trazado 230433" d="M264.122,124.528h-.808l-.2,1.037h-.585l.21-1.037H260.39l.079-.422,2.682-2.761h.681l-2.568,2.664h1.591l.187-.916h.56l-.181.916h.8Z" transform="translate(-119.114 -55.509)" fill="#263238"/>
        <path id="Trazado_230434" data-name="Trazado 230434" d="M269.082,121.87l-.35,1.157h.41c1.079,0,1.567.446,1.567,1.127,0,.874-.717,1.458-1.8,1.458a1.98,1.98,0,0,1-1.477-.53l.32-.464a1.586,1.586,0,0,0,1.2.458c.729,0,1.151-.32,1.151-.856,0-.416-.3-.669-1.073-.669h-1.025l.657-2.205h2.381l-.1.524Z" transform="translate(-122.337 -55.509)" fill="#263238"/>
        <path id="Trazado_230435" data-name="Trazado 230435" d="M274.77,122.664a1.242,1.242,0,0,1,1.151-1.374.817.817,0,0,1,.85.916,1.238,1.238,0,0,1-1.151,1.374.817.817,0,0,1-.85-.916m3.743-1.344h.482l-3.688,4.219h-.494Zm-2.133.916c0-.4-.187-.609-.489-.609-.488,0-.729.549-.729,1.007,0,.4.187.608.488.608.488,0,.73-.548.73-1.006m.668,2.423a1.239,1.239,0,0,1,1.151-1.374.816.816,0,0,1,.844.916,1.235,1.235,0,0,1-1.151,1.375.813.813,0,0,1-.844-.916m1.6-.428c0-.4-.187-.609-.488-.609-.482,0-.73.549-.73,1.006,0,.4.193.609.488.609.488,0,.729-.549.729-1.006" transform="translate(-125.692 -55.483)" fill="#263238"/>
        <g id="Grupo_179912" data-name="Grupo 179912" transform="translate(87.007 63.969)" opacity="0.3">
          <g id="Grupo_179911" data-name="Grupo 179911">
            <g id="Grupo_179910" data-name="Grupo 179910" clip-path="url(#clip-path-10)">
              <path id="Trazado_230436" data-name="Trazado 230436" d="M162.952,117.9l-2.587,7.983h2.587l2.433-7.983Z" transform="translate(-160.365 -117.903)" fill="#fff"/>
            </g>
          </g>
        </g>
        <g id="Grupo_179915" data-name="Grupo 179915" transform="translate(93.398 63.969)" opacity="0.3">
          <g id="Grupo_179914" data-name="Grupo 179914">
            <g id="Grupo_179913" data-name="Grupo 179913" clip-path="url(#clip-path-11)">
              <path id="Trazado_230437" data-name="Trazado 230437" d="M174.731,117.9l-2.587,7.983h2.587l2.433-7.983Z" transform="translate(-172.144 -117.903)" fill="#fff"/>
            </g>
          </g>
        </g>
        <g id="Grupo_179918" data-name="Grupo 179918" transform="translate(99.788 63.969)" opacity="0.3">
          <g id="Grupo_179917" data-name="Grupo 179917">
            <g id="Grupo_179916" data-name="Grupo 179916" clip-path="url(#clip-path-10)">
              <path id="Trazado_230438" data-name="Trazado 230438" d="M186.509,117.9l-2.587,7.983h2.587l2.433-7.983Z" transform="translate(-183.922 -117.903)" fill="#fff"/>
            </g>
          </g>
        </g>
        <g id="Grupo_179921" data-name="Grupo 179921" transform="translate(106.179 63.969)" opacity="0.3">
          <g id="Grupo_179920" data-name="Grupo 179920">
            <g id="Grupo_179919" data-name="Grupo 179919" clip-path="url(#clip-path-10)">
              <path id="Trazado_230439" data-name="Trazado 230439" d="M198.288,117.9l-2.587,7.983h2.587l2.433-7.983Z" transform="translate(-195.701 -117.903)" fill="#fff"/>
            </g>
          </g>
        </g>
        <g id="Grupo_179924" data-name="Grupo 179924" transform="translate(112.569 63.969)" opacity="0.3">
          <g id="Grupo_179923" data-name="Grupo 179923">
            <g id="Grupo_179922" data-name="Grupo 179922" clip-path="url(#clip-path-11)">
              <path id="Trazado_230440" data-name="Trazado 230440" d="M210.067,117.9l-2.587,7.983h2.587L212.5,117.9Z" transform="translate(-207.48 -117.903)" fill="#fff"/>
            </g>
          </g>
        </g>
      </g>
    </g>
    <g id="Grupo_179946" data-name="Grupo 179946">
      <g id="Grupo_179945" data-name="Grupo 179945" clip-path="url(#clip-path)">
        <path id="Trazado_230441" data-name="Trazado 230441" d="M33.739,325.7s13.74,6.191,28.051,6.191c13.253,0,27.277-6.672,27.277-6.672Z" transform="translate(-15.434 -148.771)" fill="#e0e0e0"/>
        <rect id="Rectángulo_57877" data-name="Rectángulo 57877" width="5.676" height="59.448" transform="translate(42.179 177.048)" fill="#e0e0e0"/>
        <rect id="Rectángulo_57878" data-name="Rectángulo 57878" width="50.374" height="3.485" transform="translate(19.83 233.011)" fill="#e0e0e0"/>
        <path id="Trazado_230442" data-name="Trazado 230442" d="M41.428,434.755a3.844,3.844,0,1,1-3.845-3.845,3.845,3.845,0,0,1,3.845,3.845" transform="translate(-15.434 -197.117)" fill="#263238"/>
        <path id="Trazado_230443" data-name="Trazado 230443" d="M82.684,434.755a3.844,3.844,0,1,1-3.845-3.845,3.845,3.845,0,0,1,3.845,3.845" transform="translate(-34.306 -197.117)" fill="#263238"/>
        <path id="Trazado_230444" data-name="Trazado 230444" d="M130.473,434.755a3.844,3.844,0,1,1-3.845-3.845,3.845,3.845,0,0,1,3.845,3.845" transform="translate(-56.167 -197.117)" fill="#263238"/>
        <rect id="Rectángulo_57879" data-name="Rectángulo 57879" width="7.72" height="3.195" transform="translate(38.636 198.445)" fill="#e0e0e0"/>
        <rect id="Rectángulo_57880" data-name="Rectángulo 57880" width="2.812" height="7.667" transform="translate(37.231 196.208)" fill="#e0e0e0"/>
        <path id="Trazado_230445" data-name="Trazado 230445" d="M48.987,242.254H19.66V165.629a6.3,6.3,0,0,1,6.3-6.3h23.03Z" transform="translate(-8.993 -72.885)" fill="#455a64"/>
        <path id="Trazado_230446" data-name="Trazado 230446" d="M31.509,242.087c-.078,0-.142-17.993-.142-40.183s.063-40.186.142-40.186.141,17.988.141,40.186-.063,40.183-.141,40.183" transform="translate(-14.349 -73.977)" fill="#263238"/>
        <path id="Trazado_230447" data-name="Trazado 230447" d="M92.261,320.872H23.978a4.317,4.317,0,0,1-4.317-4.317v-4.7h72.6Z" transform="translate(-8.994 -142.656)" fill="#455a64"/>
        <path id="Trazado_230448" data-name="Trazado 230448" d="M92.61,87.611l-3.144,30c-.535,5.1-.278,12.705,7.827,13.182,7.063-.116,9.529-6.564,10.023-11.326.234-2.258.435-4.141.474-4.372,0,0,7.712.082,9.056-7.419.649-3.625,1.379-11.2,1.959-18.061a14.194,14.194,0,0,0-11.819-15.191l-.725-.121c-7.9-.845-13.025,5.39-13.651,13.307" transform="translate(-40.848 -33.955)" fill="#ffbe9d"/>
        <path id="Trazado_230449" data-name="Trazado 230449" d="M115.537,145.741a18.4,18.4,0,0,1-9.305-4.522s1.474,5.888,9.087,6.459Z" transform="translate(-48.595 -64.6)" fill="#eb996e"/>
        <path id="Trazado_230450" data-name="Trazado 230450" d="M115.429,104.782c-.164.139-.972-.644-2.236-.795-1.26-.17-2.267.383-2.385.208-.059-.079.123-.344.563-.6a3.184,3.184,0,0,1,1.933-.36,3.067,3.067,0,0,1,1.756.829c.352.353.449.653.369.714" transform="translate(-50.683 -47.214)" fill="#263238"/>
        <path id="Trazado_230451" data-name="Trazado 230451" d="M117.371,110.532a1.03,1.03,0,0,1-1.15.862.985.985,0,0,1-.894-1.09,1.03,1.03,0,0,1,1.149-.862.985.985,0,0,1,.9,1.091" transform="translate(-52.752 -50.06)" fill="#263238"/>
        <path id="Trazado_230452" data-name="Trazado 230452" d="M123.684,114.7a7.741,7.741,0,0,1,1.933-.026c.3.018.589.007.672-.187a1.52,1.52,0,0,0-.051-.907q-.238-1.14-.5-2.391a39.107,39.107,0,0,1-.981-6.2,39.155,39.155,0,0,1,1.478,6.108q.241,1.255.46,2.4a1.735,1.735,0,0,1-.04,1.183.751.751,0,0,1-.556.35,2.027,2.027,0,0,1-.513-.014,7.635,7.635,0,0,1-1.9-.314" transform="translate(-56.579 -48.024)" fill="#263238"/>
        <path id="Trazado_230453" data-name="Trazado 230453" d="M115.163,96.246c-.148.27-1.143-.035-2.363-.085-1.219-.075-2.243.126-2.359-.157-.05-.135.163-.377.6-.589a3.853,3.853,0,0,1,1.824-.336,3.8,3.8,0,0,1,1.773.521c.409.256.592.518.526.646" transform="translate(-50.517 -43.491)" fill="#263238"/>
        <path id="Trazado_230454" data-name="Trazado 230454" d="M137.024,102.566c-.154.217-1.119-.129-2.313-.276-1.193-.169-2.2-.086-2.307-.337-.044-.119.172-.307.606-.45a4.2,4.2,0,0,1,1.8-.129,4.335,4.335,0,0,1,1.721.6c.392.253.564.492.495.6" transform="translate(-60.564 -46.354)" fill="#263238"/>
        <path id="Trazado_230455" data-name="Trazado 230455" d="M90.055,108.853c-.119-.077-4.911-2.387-5.6,2.779s4.638,4.794,4.667,4.648.935-7.426.935-7.426" transform="translate(-38.605 -49.529)" fill="#ffbe9d"/>
        <path id="Trazado_230456" data-name="Trazado 230456" d="M88.931,115.471c-.021-.02-.1.051-.26.1A.911.911,0,0,1,88,115.5a2.248,2.248,0,0,1-.763-2.136,3,3,0,0,1,.424-1.254,1.05,1.05,0,0,1,.769-.6.462.462,0,0,1,.5.318c.05.154,0,.252.03.265s.122-.072.109-.291a.578.578,0,0,0-.16-.35.684.684,0,0,0-.48-.2,1.275,1.275,0,0,0-1.047.675,3.081,3.081,0,0,0-.5,1.4,2.357,2.357,0,0,0,1.015,2.407.972.972,0,0,0,.841-.027c.177-.106.22-.219.2-.23" transform="translate(-39.731 -50.889)" fill="#eb996e"/>
        <path id="Trazado_230457" data-name="Trazado 230457" d="M118.75,126.268c.069-.126-.919-.524-1.545-1.543a5.838,5.838,0,0,1-.593-1.42c-.116-.39-.209-.637-.267-.625s-.065.267-.019.685a3.847,3.847,0,0,0,.527,1.578,3.111,3.111,0,0,0,1.231,1.136c.381.2.648.232.666.189" transform="translate(-53.199 -56.119)" fill="#263238"/>
        <path id="Trazado_230458" data-name="Trazado 230458" d="M83.164,80.466c1.25-1.729,1.7-3.888,2.481-5.875s2.111-4,4.178-4.524l.043.024a5.48,5.48,0,0,1,5.44,1.021,7.124,7.124,0,0,1,5.868-5.025,17.631,17.631,0,0,1,9.305,1.6c1.878.965,3.615,2.747,5.689,5.322a25.562,25.562,0,0,1,2.35,3.451l1.636,7.275-2.3,3.523c-.141.241-.285.482-.455.718V87.96L114.911,95.6c.085-2.139.923-9.53,1.008-11.669a11.924,11.924,0,0,1-8.1-4.689c-1.044-1.395-1.809-3.093-3.293-4.006-1.914-1.177-4.37-.675-6.551-.136l.1-.073a9.534,9.534,0,0,0-3.124,1.844,29.631,29.631,0,0,1-2.43,12.373c-.254.585-.91,1.779-1.523,1.954-1.206.342-1.41-.872-2.053-1.567a3.1,3.1,0,0,0-2.07-.717,46.575,46.575,0,0,1-.927-5.512,4.751,4.751,0,0,1-2.19-.056l.817-1.541a2.483,2.483,0,0,1-.97.335.848.848,0,0,1-.848-.466c-.161-.416.15-.85.411-1.212" transform="translate(-37.835 -30.173)" fill="#263238"/>
        <path id="Trazado_230459" data-name="Trazado 230459" d="M99.849,77.459a6.5,6.5,0,0,0-.823.624,5.443,5.443,0,0,0-1.393,2.4,9.576,9.576,0,0,0-.371,1.9c-.067.7-.08,1.448-.1,2.239a20.106,20.106,0,0,1-.172,2.485,8.77,8.77,0,0,1-.291,1.293,2.741,2.741,0,0,1-.651,1.22,1.147,1.147,0,0,1-1.1.26,1.708,1.708,0,0,1-.91-.631,3.931,3.931,0,0,1-.551-1.991l.157.034a6.367,6.367,0,0,1-1.066,1.5,2.263,2.263,0,0,1-1.546.666,1.462,1.462,0,0,1-.767-.208,1.266,1.266,0,0,1-.481-.571,1.3,1.3,0,0,1-.1-.685.94.94,0,0,1,.3-.566l.074.079a4.9,4.9,0,0,1-1.737,1.069,4.443,4.443,0,0,1-.521.149.809.809,0,0,1-.184.028.884.884,0,0,1,.177-.057c.117-.036.29-.088.508-.174a5.064,5.064,0,0,0,1.682-1.092l.074.079a.974.974,0,0,0-.154,1.119,1.137,1.137,0,0,0,.436.506,1.327,1.327,0,0,0,.7.18,2.121,2.121,0,0,0,1.436-.635A6.274,6.274,0,0,0,93.5,87.217l.131-.233.026.266a3.806,3.806,0,0,0,.524,1.9,1.538,1.538,0,0,0,.815.565.968.968,0,0,0,.935-.22,2.588,2.588,0,0,0,.6-1.142,8.722,8.722,0,0,0,.288-1.266A20.382,20.382,0,0,0,97,84.625c.024-.79.042-1.544.117-2.248a9.517,9.517,0,0,1,.4-1.927,5.377,5.377,0,0,1,1.465-2.417,3.092,3.092,0,0,1,.87-.573" transform="translate(-40.078 -35.433)" fill="#455a64"/>
        <path id="Trazado_230460" data-name="Trazado 230460" d="M133.158,83.72s-.021.018-.066.046l-.2.12a2.531,2.531,0,0,1-.34.176,4.056,4.056,0,0,1-.482.2,6.739,6.739,0,0,1-3.291.284,8.611,8.611,0,0,1-4.409-2.107,14.914,14.914,0,0,1-3.5-4.881c-.465-.967-.827-1.947-1.241-2.86a10.059,10.059,0,0,0-1.477-2.458,5.186,5.186,0,0,0-2.057-1.524,3.713,3.713,0,0,0-1.137-.238,4.1,4.1,0,0,0-1.071.1,4.395,4.395,0,0,0-2.62,1.833,5.259,5.259,0,0,0-.495,1.1.264.264,0,0,1,.013-.079c.016-.062.035-.137.058-.228a3.792,3.792,0,0,1,.366-.827,4.328,4.328,0,0,1,.953-1.07,4.445,4.445,0,0,1,1.7-.847,4.151,4.151,0,0,1,1.106-.12,3.82,3.82,0,0,1,1.184.237,5.321,5.321,0,0,1,2.13,1.555,10.156,10.156,0,0,1,1.512,2.494c.42.919.782,1.9,1.244,2.855a14.917,14.917,0,0,0,3.452,4.835,8.552,8.552,0,0,0,4.321,2.106,6.838,6.838,0,0,0,3.249-.225,10.759,10.759,0,0,0,1.112-.477" transform="translate(-50.668 -32.176)" fill="#455a64"/>
        <path id="Trazado_230461" data-name="Trazado 230461" d="M136.633,107.625c-.164.139-.973-.645-2.236-.8-1.26-.169-2.267.384-2.385.208-.059-.079.123-.344.563-.6a3.186,3.186,0,0,1,1.933-.36,3.064,3.064,0,0,1,1.756.829c.352.353.449.653.369.714" transform="translate(-60.383 -48.515)" fill="#263238"/>
        <path id="Trazado_230462" data-name="Trazado 230462" d="M136.828,112.343a1.03,1.03,0,0,1-1.15.862.985.985,0,0,1-.894-1.09,1.03,1.03,0,0,1,1.149-.862.985.985,0,0,1,.9,1.091" transform="translate(-61.653 -50.889)" fill="#263238"/>
        <path id="Trazado_230463" data-name="Trazado 230463" d="M146.675,83.6a3.254,3.254,0,0,0,2.532,1.792,8,8,0,0,0,1.162-.213c.346.263.126,1.52-.165,1.843a6.825,6.825,0,0,1-.88.738c1.172.8,2.337.588,3.712.243a6.531,6.531,0,0,1-4.4,4.8,2.289,2.289,0,0,1-2.089-.179A2.632,2.632,0,0,1,145.8,90.9a28.6,28.6,0,0,1-.2-7.042Z" transform="translate(-66.544 -38.243)" fill="#263238"/>
        <path id="Trazado_230464" data-name="Trazado 230464" d="M120.041,162.521s4.773,1.941,7.495,8.55c1.911,4.643,12.532,19.3,12.532,19.3l28.247,6.271.965,9.01-45.179-.372-6.279-19.993Z" transform="translate(-53.897 -74.344)" fill="#f4a338"/>
        <path id="Trazado_230465" data-name="Trazado 230465" d="M62.557,143.566l-5.015,2.106c-4.638,1.947-10.575,6.422-12.563,11.043a153.3,153.3,0,0,0-10.77,38.1c-1.675,12.765,1.662,31.656,1.662,31.656l42.392-24.225-2.477-1.734,8.033-43.706-1.5-5.291,1-4.473s-11.247-4.518-19.441-7.752Z" transform="translate(-15.434 -63.717)" fill="#f4a338"/>
        <g id="Grupo_179929" data-name="Grupo 179929" transform="translate(18.274 134.783)" opacity="0.3">
          <g id="Grupo_179928" data-name="Grupo 179928">
            <g id="Grupo_179927" data-name="Grupo 179927" clip-path="url(#clip-path-16)">
              <path id="Trazado_230466" data-name="Trazado 230466" d="M58.481,263.762q.236-3.274.471-6.548a2.876,2.876,0,0,1-1.835.786,19.215,19.215,0,0,0,2.8-3.371l-1.93.829a5.7,5.7,0,0,0,1.643-1.954c-1.035-.811-2.5-.676-3.8-.544-6.7.678-13.465.229-20.188-.221a4.612,4.612,0,0,1-1.927-.569,8.1,8.1,0,0,1,.162-2.531c.3-.686.763-.49,1.468-.742a7.775,7.775,0,0,1,2.21-.341c8.188-.431,16.39.244,24.561.917a2.555,2.555,0,0,1,1.436.416,2.591,2.591,0,0,1,.5,2.414L62.8,261.477" transform="translate(-33.681 -248.422)"/>
            </g>
          </g>
        </g>
        <path id="Trazado_230467" data-name="Trazado 230467" d="M118.306,168.337a2.258,2.258,0,0,1-.041.41l-.172,1.167c-.155,1.012-.4,2.475-.718,4.278-.636,3.606-1.6,8.573-2.742,14.043s-2.235,10.41-3.045,13.981c-.407,1.762-.738,3.2-.976,4.225-.116.476-.209.857-.28,1.145a2.3,2.3,0,0,1-.116.4,2.194,2.194,0,0,1,.061-.408c.058-.291.133-.675.228-1.157l.888-4.244,2.964-14c1.142-5.467,2.135-10.426,2.821-14.021.336-1.776.61-3.223.806-4.26l.224-1.158a2.223,2.223,0,0,1,.1-.4" transform="translate(-50.418 -77.005)" fill="#263238"/>
        <path id="Trazado_230468" data-name="Trazado 230468" d="M54.456,268.917a1.749,1.749,0,0,1,.252-.258l.76-.7c.33-.3.74-.668,1.232-1.073s1.037-.884,1.676-1.369c1.254-1,2.8-2.125,4.563-3.3,1.774-1.163,3.772-2.371,5.934-3.52s4.3-2.1,6.257-2.912c1.969-.79,3.77-1.432,5.3-1.9.761-.253,1.464-.436,2.076-.61s1.144-.31,1.581-.411l1.005-.233a1.743,1.743,0,0,1,.355-.063,1.713,1.713,0,0,1-.341.118l-.991.284c-.432.117-.959.264-1.565.456s-1.3.384-2.059.649c-1.521.493-3.309,1.151-5.265,1.952-1.949.818-4.063,1.789-6.224,2.921s-4.148,2.341-5.923,3.488c-1.765,1.162-3.318,2.266-4.584,3.244-.645.474-1.2.939-1.7,1.333s-.92.744-1.26,1.034l-.794.658a1.746,1.746,0,0,1-.29.215" transform="translate(-24.91 -115.533)" fill="#263238"/>
        <path id="Trazado_230469" data-name="Trazado 230469" d="M78.924,253.217c.037.068-4.086,2.386-9.208,5.175s-9.306,5-9.344,4.927,4.085-2.385,9.209-5.175,9.305-5,9.343-4.927" transform="translate(-27.617 -115.832)" fill="#263238"/>
        <g id="Grupo_179932" data-name="Grupo 179932" transform="translate(36.41 103.896)" opacity="0.3">
          <g id="Grupo_179931" data-name="Grupo 179931">
            <g id="Grupo_179930" data-name="Grupo 179930" clip-path="url(#clip-path-17)">
              <path id="Trazado_230470" data-name="Trazado 230470" d="M67.108,191.494c2.632,11.373,10.675,21.564,21.387,26.2a253.633,253.633,0,0,1-21.387-26.2" transform="translate(-67.108 -191.494)"/>
            </g>
          </g>
        </g>
        <g id="Grupo_179935" data-name="Grupo 179935" transform="translate(64.462 95.239)" opacity="0.3">
          <g id="Grupo_179934" data-name="Grupo 179934">
            <g id="Grupo_179933" data-name="Grupo 179933" clip-path="url(#clip-path-18)">
              <path id="Trazado_230471" data-name="Trazado 230471" d="M121.563,175.537a22.916,22.916,0,0,1-2.149,15.122l-.6-1.249c.852-3.616,2.075-10.038,2.751-13.873" transform="translate(-118.812 -175.537)"/>
            </g>
          </g>
        </g>
        <path id="Trazado_230472" data-name="Trazado 230472" d="M146.947,383.7l-5.081,15.293s13.838,10.3,13.174,13.218l-30.006-8.787,6.939-24.153Z" transform="translate(-57.196 -173.495)" fill="#455a64"/>
        <g id="Grupo_179938" data-name="Grupo 179938" transform="translate(67.838 205.774)" opacity="0.3">
          <g id="Grupo_179937" data-name="Grupo 179937">
            <g id="Grupo_179936" data-name="Grupo 179936" clip-path="url(#clip-path-19)">
              <path id="Trazado_230473" data-name="Trazado 230473" d="M146.947,383.7l-5.081,15.293s13.838,10.3,13.174,13.218l-30.006-8.787,6.939-24.153Z" transform="translate(-125.034 -379.269)"/>
            </g>
          </g>
        </g>
        <path id="Trazado_230474" data-name="Trazado 230474" d="M138.6,408.2a1.276,1.276,0,0,0-1.257,1.15,1.226,1.226,0,0,0,1.129,1.255,1.346,1.346,0,0,0,1.324-1.225,1.273,1.273,0,0,0-1.319-1.176" transform="translate(-62.825 -186.726)" fill="#e0e0e0"/>
        <g id="Grupo_179941" data-name="Grupo 179941" transform="translate(67.838 227.52)" opacity="0.6">
          <g id="Grupo_179940" data-name="Grupo 179940">
            <g id="Grupo_179939" data-name="Grupo 179939" clip-path="url(#clip-path-20)">
              <path id="Trazado_230475" data-name="Trazado 230475" d="M125.034,421.756l.795-2.407,28.472,9.325s1.165.972.74,1.869Z" transform="translate(-125.034 -419.349)" fill="#fff"/>
            </g>
          </g>
        </g>
        <path id="Trazado_230476" data-name="Trazado 230476" d="M154.321,415.3c-.048.145-.8,0-1.659.257-.866.237-1.423.763-1.541.666-.127-.068.348-.88,1.393-1.177s1.877.129,1.806.254" transform="translate(-69.121 -189.81)" fill="#263238"/>
        <path id="Trazado_230477" data-name="Trazado 230477" d="M159.94,419.574c-.008.152-.716.215-1.395.689-.693.454-1.015,1.087-1.158,1.038-.145-.017,0-.905.861-1.478s1.73-.39,1.692-.249" transform="translate(-71.974 -191.865)" fill="#263238"/>
        <path id="Trazado_230478" data-name="Trazado 230478" d="M163.332,425.738c-.142-.008-.132-.8.48-1.491s1.389-.811,1.416-.671c.047.145-.524.445-1.017,1.021s-.729,1.17-.879,1.142" transform="translate(-74.681 -193.738)" fill="#263238"/>
        <path id="Trazado_230479" data-name="Trazado 230479" d="M155.787,408.041c-.1.116-.713-.283-1.558-.47-.841-.2-1.567-.114-1.606-.262-.054-.131.734-.489,1.726-.256s1.544.894,1.438.987" transform="translate(-69.815 -186.169)" fill="#263238"/>
        <path id="Trazado_230480" data-name="Trazado 230480" d="M168.387,399.933l-.633,16.1s16.155,6.051,16.327,9.038l-31.266-.106-.043-25.13Z" transform="translate(-69.885 -182.904)" fill="#455a64"/>
        <path id="Trazado_230481" data-name="Trazado 230481" d="M161.8,427.091a1.276,1.276,0,0,0-.888,1.454,1.227,1.227,0,0,0,1.433.893,1.347,1.347,0,0,0,.932-1.545,1.274,1.274,0,0,0-1.594-.763" transform="translate(-73.598 -195.347)" fill="#e0e0e0"/>
        <g id="Grupo_179944" data-name="Grupo 179944" transform="translate(82.931 239.531)" opacity="0.6">
          <g id="Grupo_179943" data-name="Grupo 179943">
            <g id="Grupo_179942" data-name="Grupo 179942" clip-path="url(#clip-path-21)">
              <path id="Trazado_230482" data-name="Trazado 230482" d="M152.853,444.02l.094-2.533,29.942,1.049s1.39.61,1.229,1.59Z" transform="translate(-152.853 -441.487)" fill="#fff"/>
            </g>
          </g>
        </g>
        <path id="Trazado_230483" data-name="Trazado 230483" d="M178.913,429.281c-.005.153-.769.219-1.522.707-.766.469-1.155,1.129-1.3,1.068-.141-.03.09-.942,1.012-1.517s1.839-.4,1.806-.258" transform="translate(-80.537 -196.307)" fill="#263238"/>
        <path id="Trazado_230484" data-name="Trazado 230484" d="M185.6,431.869c.035.148-.628.405-1.149,1.049-.539.629-.673,1.327-.825,1.32-.143.023-.246-.871.417-1.66s1.554-.855,1.557-.709" transform="translate(-83.952 -197.528)" fill="#263238"/>
        <path id="Trazado_230485" data-name="Trazado 230485" d="M190.612,436.95c-.139.032-.349-.731.046-1.566s1.11-1.165,1.174-1.037c.086.125-.379.573-.693,1.263-.33.682-.375,1.326-.527,1.341" transform="translate(-87.111 -198.677)" fill="#263238"/>
        <path id="Trazado_230486" data-name="Trazado 230486" d="M178.095,422.141c-.065.139-.764-.074-1.627-.018-.864.039-1.537.326-1.616.194-.088-.111.57-.673,1.588-.725s1.731.429,1.656.549" transform="translate(-79.981 -192.853)" fill="#263238"/>
        <path id="Trazado_230487" data-name="Trazado 230487" d="M90.758,254.68s37.475,9.742,42.126,16.227c3.931,5.483-16.7,61.512-16.7,61.512l-16.278-1.4,7.017-46.869L64.937,270.8l6.344-16.122Z" transform="translate(-29.705 -116.502)" fill="#263238"/>
        <path id="Trazado_230488" data-name="Trazado 230488" d="M80.969,265.213s38.308,9.309,42.182,15.923c1.808,3.087.622,13.22-.053,18-.455,3.223-7.228,48.319-7.228,48.319H99.309l.362-50.935-39.8-8.024s-21.366,1.628-22.2-7.485l8.917-12.085,21.05-10.4Z" transform="translate(-17.232 -118.26)" fill="#263238"/>
        <path id="Trazado_230489" data-name="Trazado 230489" d="M97.686,268.7s.19.044.556.145l1.625.453,6.247,1.747c2.713.761,6.033,1.686,9.868,2.828s8.185,2.515,12.9,4.3q3.541,1.323,7.314,3.014l1.9.861a18.659,18.659,0,0,1,1.866,1.037,12.252,12.252,0,0,1,1.74,1.311,6.3,6.3,0,0,1,1.395,1.742c1.292,5.87.509,12.287-.448,18.846-.419,3.3-.957,6.674-1.464,10.122s-1.041,6.968-1.576,10.551c-1.073,7.167-2.184,14.587-3.322,22.186q-.323,2.157-.643,4.293l-.017.12H135.5l-16.56,0H118.8v-.139c.15-19.307.284-36.788.393-50.935l.086.106-28.277-5.749-7.72-1.586-2.01-.421c-.453-.1-.684-.154-.684-.154s.235.036.691.123l2.016.391,7.732,1.529,28.3,5.656.087.017v.089c-.091,14.147-.2,31.628-.331,50.935l-.138-.139,16.56,0-.139.12q.319-2.135.643-4.293c1.139-7.6,2.251-15.018,3.326-22.184q.807-5.375,1.584-10.549c.51-3.447,1.05-6.817,1.472-10.119q.335-2.474.66-4.885a43.235,43.235,0,0,0,.418-4.767q.085-2.359,0-4.651c-.03-.763-.075-1.519-.141-2.266a5.572,5.572,0,0,0-.437-2.136,6.056,6.056,0,0,0-1.34-1.676,12.043,12.043,0,0,0-1.707-1.291,18.457,18.457,0,0,0-1.84-1.028l-1.892-.862q-3.759-1.69-7.3-3.026c-4.7-1.8-9.049-3.169-12.874-4.337s-7.145-2.1-9.852-2.874l-6.232-1.8-1.618-.48c-.364-.11-.548-.173-.548-.173" transform="translate(-36.867 -122.913)" fill="#455a64"/>
        <path id="Trazado_230490" data-name="Trazado 230490" d="M206.682,222.845c.244-.365,3.409-4.017,4.261-4.017a3.383,3.383,0,0,1,1.826.974,3.154,3.154,0,0,1,1.826-.244c.731.244,4.139,3.165,4.139,4.261v1.826a4.744,4.744,0,0,1,0,1.461c-.122.852-2.191,2.313-2.191,2.313H204.861s-2.233-1.5-1.953-2.922,3.774-3.652,3.774-3.652" transform="translate(-92.808 -100.102)" fill="#ffbe9d"/>
        <path id="Trazado_230491" data-name="Trazado 230491" d="M219.473,220.622a4.734,4.734,0,0,1,.729.415l1.931,1.217a5.92,5.92,0,0,1,.638.437,1.684,1.684,0,0,1,.473.729,3.544,3.544,0,0,1,.106.9q.024.453.048.93c.062,1.278.13,2.675.2,4.141q.015.335.03.664l.005.116-.112.028-.715.177-.018,0h-.018a1.518,1.518,0,0,1-.916-.345,2.54,2.54,0,0,1-.59-.708,6.2,6.2,0,0,1-.613-1.572,14.04,14.04,0,0,1-.4-2.808l.064.088-2.042-.806a4.5,4.5,0,0,1-.732-.329,4.429,4.429,0,0,1,.769.228l2.073.723.059.021,0,.067a14.837,14.837,0,0,0,.45,2.751,6.094,6.094,0,0,0,.6,1.5,1.606,1.606,0,0,0,1.279.91l-.036,0,.715-.179-.107.143c-.01-.219-.02-.441-.03-.664-.063-1.467-.124-2.864-.178-4.142q-.019-.477-.036-.93a3.443,3.443,0,0,0-.081-.841,1.467,1.467,0,0,0-.4-.639,6.249,6.249,0,0,0-.6-.43l-1.882-1.293a4.733,4.733,0,0,1-.669-.506" transform="translate(-99.512 -100.922)" fill="#eb996e"/>
        <path id="Trazado_230492" data-name="Trazado 230492" d="M206.528,233.878a3.856,3.856,0,0,1,.782-.105l2.129-.171h.014l.019,0c.692.161,1.508.32,2.405.435a13.85,13.85,0,0,0,1.4.111,1.564,1.564,0,0,0,1.284-.366,1.123,1.123,0,0,0,.2-.715c.006-.267-.038-.531-.046-.823a1,1,0,0,0-.319-.6,2.447,2.447,0,0,0-.578-.434,4.41,4.41,0,0,0-2.5-.443,1.958,1.958,0,0,1-1.656-.663.882.882,0,0,1-.219-.625,1.974,1.974,0,0,0,.3.557,1.888,1.888,0,0,0,1.567.532,4.49,4.49,0,0,1,2.634.415,2.68,2.68,0,0,1,.645.474,1.238,1.238,0,0,1,.4.785c.007.25.055.533.05.827a1.392,1.392,0,0,1-.262.887,1.254,1.254,0,0,1-.735.418,3.217,3.217,0,0,1-.778.049,13.391,13.391,0,0,1-1.431-.127,21.146,21.146,0,0,1-2.424-.49l.033,0-2.134.076a3.859,3.859,0,0,1-.789-.014" transform="translate(-94.475 -104.977)" fill="#eb996e"/>
        <path id="Trazado_230493" data-name="Trazado 230493" d="M228.473,233.959a19.343,19.343,0,0,1,.94-2.119,9.525,9.525,0,0,1,1.077-2.061,9.819,9.819,0,0,1-.821,2.178,6.462,6.462,0,0,1-1.2,2" transform="translate(-104.511 -105.111)" fill="#eb996e"/>
        <path id="Trazado_230494" data-name="Trazado 230494" d="M180.838,208.6l42.148.559L236.558,171.1a1.6,1.6,0,1,0-2.988-1.121L220.2,206.016l-39.369.391a1.1,1.1,0,0,0,.008,2.192" transform="translate(-82.223 -77.281)" fill="#263238"/>
        <path id="Trazado_230495" data-name="Trazado 230495" d="M65.785,173.615S86.377,201.646,89.6,201.646h30.085v-11.4L96.93,184.883s-11.2-23.184-13.682-26.157-9.107-6.966-14.061-2.507-3.4,17.4-3.4,17.4" transform="translate(-29.987 -70.549)" fill="#f4a338"/>
        <path id="Trazado_230496" data-name="Trazado 230496" d="M165.278,213.339l4.928-.4s.107-1.829,1.184-2.475.968-2.044,1.614-1.937a2.8,2.8,0,0,0,1.076-.005l4.089-3.438,3.443-2.26,2.69-.538s1.614.43,0,1.936l-1.722.968-1.506,1.507,3.443-1.69a1.169,1.169,0,0,1,1.016-.008,14.575,14.575,0,0,1,2.643,1.483.745.745,0,0,1,0,1.076l1.506,1.291s.323,1.722-1.4,1.291l-1.4-.323-1.829,1.829s6.241-1.291,6.671-1.076a1.227,1.227,0,0,1,0,2.045c-.968.86-4.734.646-5.595,1.506s-6.552,6.058-7.951,6.38-12.881,3.127-12.881,3.127Z" transform="translate(-75.605 -92.537)" fill="#ffbe9d"/>
        <path id="Trazado_230497" data-name="Trazado 230497" d="M205.219,212.6a7.285,7.285,0,0,1-.847-.6c-.258-.188-.565-.412-.913-.649-.174-.119-.358-.239-.551-.356a1.252,1.252,0,0,0-.577-.237,3.527,3.527,0,0,0-1.2.5c-.371.2-.7.391-.974.553a4.766,4.766,0,0,1-.911.5,3.23,3.23,0,0,1,.8-.669c.264-.185.586-.4.954-.611.185-.109.378-.218.587-.327a1.763,1.763,0,0,1,.734-.228.641.641,0,0,1,.225.027,1.742,1.742,0,0,1,.188.076c.113.057.218.118.318.18.2.126.385.253.557.38.345.253.643.495.887.705.49.417.756.727.723.756" transform="translate(-91.143 -96.279)" fill="#eb996e"/>
        <path id="Trazado_230498" data-name="Trazado 230498" d="M180.536,213.02c.048.066-.466.508-1.06,1.083s-1.087,1.053-1.147,1a3.673,3.673,0,0,1,.951-1.2,3.188,3.188,0,0,1,1.257-.88" transform="translate(-81.573 -97.442)" fill="#eb996e"/>
        <path id="Trazado_230499" data-name="Trazado 230499" d="M83.442,162.521a13.732,13.732,0,0,1,1.191,1.735c.712,1.177,1.714,2.931,2.922,5.207,2.425,4.548,5.763,11.136,9.675,19.163l-.079-.063,22.757,5.346.107.025v.11c0,3.667,0,7.49,0,11.4v.142H118.51l-25.57-.011-2.909,0a2.321,2.321,0,0,1-.378-.017,1.393,1.393,0,0,1-.369-.124,4.138,4.138,0,0,1-.629-.377,12.216,12.216,0,0,1-1.1-.9,52.883,52.883,0,0,1-3.751-3.922c-2.309-2.628-4.357-5.161-6.211-7.483-3.7-4.655-6.589-8.5-8.578-11.163L66.749,178.5l-.581-.808c-.13-.183-.189-.282-.189-.282s.075.087.213.264l.6.792,2.313,3.048c2.015,2.642,4.931,6.467,8.646,11.1,1.863,2.313,3.919,4.837,6.23,7.453a52.854,52.854,0,0,0,3.743,3.892,11.964,11.964,0,0,0,1.075.882,3.9,3.9,0,0,0,.589.352,1.177,1.177,0,0,0,.642.116l2.909,0,25.57-.011h1.366l-.141.141c0-3.907,0-7.73,0-11.4l.107.135L97.1,188.793l-.055-.013-.024-.05c-3.888-8.035-7.2-14.638-9.583-19.2-1.189-2.285-2.171-4.048-2.862-5.234-.357-.586-.619-1.043-.832-1.325s-.3-.447-.3-.447" transform="translate(-30.182 -74.344)" fill="#263238"/>
        <path id="Trazado_230500" data-name="Trazado 230500" d="M82.006,158.2c-.019.049-.7-.23-1.858-.491a14.767,14.767,0,0,0-2.049-.31,14.567,14.567,0,0,0-5.026.475,14.861,14.861,0,0,0-1.955.688c-1.085.473-1.705.875-1.733.83a1.84,1.84,0,0,1,.415-.315,9.547,9.547,0,0,1,1.235-.7A12.885,12.885,0,0,1,73,157.622a13.533,13.533,0,0,1,5.12-.483,12.87,12.87,0,0,1,2.074.375,9.568,9.568,0,0,1,1.344.454,1.849,1.849,0,0,1,.466.232" transform="translate(-31.74 -71.855)" fill="#263238"/>
        <path id="Trazado_230501" data-name="Trazado 230501" d="M115.749,216.291a10.366,10.366,0,0,1,3.775-4.735c.055.066-.983.952-2.02,2.262s-1.678,2.513-1.755,2.474" transform="translate(-52.946 -96.774)" fill="#263238"/>
        <path id="Trazado_230502" data-name="Trazado 230502" d="M114.475,212.546a5.953,5.953,0,0,1,4.2-1.5c.007.085-.995.191-2.148.61s-2,.961-2.047.891" transform="translate(-52.365 -96.523)" fill="#263238"/>
        <path id="Trazado_230503" data-name="Trazado 230503" d="M90.792,314.41a3.8,3.8,0,0,0-2.448-1.614c-18.951-6.11-39.286-9.038-58.878-5.48a14.611,14.611,0,0,0-6.659,2.486c-1.871,1.5-3,4.184-2,6.36l4.022,1.288a256.477,256.477,0,0,1,60.343.427,7.773,7.773,0,0,0,4.02-.193c1.25-.533,2.188-2.05,1.6-3.274" transform="translate(-9.349 -139.875)" fill="#455a64"/>
        <path id="Trazado_230504" data-name="Trazado 230504" d="M69.53,308.349a.415.415,0,0,1-.127-.006l-.366-.048-1.4-.21c-1.217-.194-2.979-.476-5.168-.725a123.1,123.1,0,0,0-17.177-.819c-1.68.033-3.319.113-4.9.243s-3.1.207-4.562.34a3.089,3.089,0,0,1-.566-.011,2.822,2.822,0,0,0-.514-.023,6.318,6.318,0,0,0-1.017.154l-1.965.41c-1.263.282-2.426.594-3.47.938a19.984,19.984,0,0,0-4.7,2.189c-.515.333-.9.616-1.155.818l-.293.224a.42.42,0,0,1-.106.069s.026-.034.087-.091l.276-.246a11.553,11.553,0,0,1,1.13-.865,19.082,19.082,0,0,1,4.7-2.287,35.744,35.744,0,0,1,3.482-.977L33.678,307a6.536,6.536,0,0,1,1.057-.166,3.072,3.072,0,0,1,.556.022,2.8,2.8,0,0,0,.519.008c1.442-.138,2.979-.233,4.561-.356s3.225-.216,4.91-.25a114.4,114.4,0,0,1,17.208.9c2.19.275,3.949.587,5.161.815l1.4.263.361.075a.412.412,0,0,1,.122.035" transform="translate(-10.081 -140.082)" fill="#263238"/>
        <path id="Trazado_230505" data-name="Trazado 230505" d="M21.306,248.138l32.3,1.127a.8.8,0,0,1,.767.917l-4.649,38.74H57l3.758-42.645a2.5,2.5,0,0,0-2.394-2.8l-37.93-1.361Z" transform="translate(-9.349 -110.753)" fill="#455a64"/>
      </g>
    </g>
    <path id="Trazado_230506" data-name="Trazado 230506" d="M329.131,248.015v1.122l11.146,106.523h5.2L334.193,248.015Z" transform="translate(-150.559 -113.453)" fill="#455a64"/>
    <path id="Trazado_230507" data-name="Trazado 230507" d="M121.289,248.015,110.761,355.624h5.2l10.39-106.464v-1.145Z" transform="translate(-50.667 -113.453)" fill="#455a64"/>
    <g id="Grupo_179948" data-name="Grupo 179948">
      <g id="Grupo_179947" data-name="Grupo 179947" clip-path="url(#clip-path)">
        <path id="Trazado_230508" data-name="Trazado 230508" d="M121.158,247.98s-.012.193-.044.56-.084.915-.149,1.625c-.135,1.431-.334,3.531-.589,6.237l-2.2,22.963c-1.884,19.4-4.494,46.289-7.4,76.236l-.141-.155h5.2l-.141.128c4.928-50.015,9.1-92.381,10.488-106.453v0c0-.531,0-.846,0-1.146l.04.04L122.4,248l-.932-.009c-.206,0-.31-.008-.31-.008s.095,0,.3-.008l.923-.009,3.842-.022h.04v.04c0,.3,0,.615,0,1.146v0L115.97,355.6l-.012.127h-5.483l.015-.155c2.955-29.981,5.608-56.9,7.524-76.323.966-9.693,1.746-17.516,2.286-22.924.272-2.691.483-4.779.628-6.2q.11-1.052.167-1.605c.039-.361.063-.54.063-.54" transform="translate(-50.536 -113.419)" fill="#263238"/>
        <rect id="Rectángulo_57888" data-name="Rectángulo 57888" width="144.87" height="4.586" transform="translate(58.442 131.098)" fill="#455a64"/>
        <path id="Trazado_230509" data-name="Trazado 230509" d="M237.566,249.964c0,.078-28.874.141-64.485.141s-64.491-.063-64.491-.141,28.868-.141,64.491-.141,64.485.063,64.485.141" transform="translate(-49.674 -114.28)" fill="#263238"/>
      </g>
    </g>
  </g>
</svg>
