<svg id="Grupo_181979" data-name="Grupo 181979" xmlns="http://www.w3.org/2000/svg" xmlns:xlink="http://www.w3.org/1999/xlink" width="217.384" height="218.604" viewBox="0 0 217.384 218.604">
  <defs>
    <clipPath id="clip-path">
      <rect id="Rectángulo_59270" data-name="Rectángulo 59270" width="217.384" height="218.603" fill="none"/>
    </clipPath>
    <clipPath id="clip-path-4">
      <rect id="Rectángulo_59261" data-name="Rectángulo 59261" width="11.264" height="20.774" fill="none"/>
    </clipPath>
    <clipPath id="clip-path-5">
      <rect id="Rectángulo_59262" data-name="Rectángulo 59262" width="23.739" height="8.769" fill="none"/>
    </clipPath>
    <clipPath id="clip-path-6">
      <rect id="Rectángulo_59263" data-name="Rectángulo 59263" width="9.172" height="11.768" fill="none"/>
    </clipPath>
    <clipPath id="clip-path-9">
      <rect id="Rectángulo_59266" data-name="Rectángulo 59266" width="13.045" height="6.096" fill="none"/>
    </clipPath>
    <clipPath id="clip-path-10">
      <rect id="Rectángulo_59267" data-name="Rectángulo 59267" width="2.826" height="2.826" fill="none"/>
    </clipPath>
  </defs>
  <g id="Grupo_181978" data-name="Grupo 181978" clip-path="url(#clip-path)">
    <g id="Grupo_181954" data-name="Grupo 181954">
      <g id="Grupo_181953" data-name="Grupo 181953" clip-path="url(#clip-path)">
        <path id="Trazado_235677" data-name="Trazado 235677" d="M36.991,312.611H21.165a2.218,2.218,0,0,1-2.218-2.217V294.567a2.218,2.218,0,0,1,2.218-2.217H36.991a2.217,2.217,0,0,1,2.217,2.217v15.826a2.217,2.217,0,0,1-2.217,2.217" transform="translate(-9.555 -147.428)" fill="#ebebeb"/>
        <path id="Trazado_235678" data-name="Trazado 235678" d="M22.513,316.62l-.379-.32,4.1-4.866a1.431,1.431,0,0,1,1.966-.348l2.458,1.638,2.875-3.634a1.442,1.442,0,0,1,1.078-.547,1.42,1.42,0,0,1,1.116.462l3.506,3.79-.364.337-3.505-3.79a.936.936,0,0,0-.733-.3.949.949,0,0,0-.708.36l-3.159,3.991L27.921,311.5a.944.944,0,0,0-1.3.239Z" transform="translate(-11.162 -155.593)" fill="#fff"/>
        <path id="Trazado_235679" data-name="Trazado 235679" d="M35.7,301.118a1.811,1.811,0,1,1-1.811-1.811,1.811,1.811,0,0,1,1.811,1.811" transform="translate(-16.175 -150.936)" fill="#fff"/>
        <path id="Trazado_235680" data-name="Trazado 235680" d="M383.885,146.674a7.464,7.464,0,0,1-.19-1.677,13.811,13.811,0,0,0-.225-2.015,19.75,19.75,0,0,0-.529-2.707,25.361,25.361,0,0,0-2.811-6.964,26.086,26.086,0,0,0-6.476-7.459,25.8,25.8,0,0,0-24.322-4.18,24.174,24.174,0,0,0-6.579,3.356,23.531,23.531,0,0,0-5.553,5.33,25.6,25.6,0,0,0-.739,30.343,23.506,23.506,0,0,0,5.288,5.6,24.176,24.176,0,0,0,6.409,3.672,26,26,0,0,0,31.327-10.131,25.379,25.379,0,0,0,3.145-6.819,19.7,19.7,0,0,0,.66-2.678,13.74,13.74,0,0,0,.322-2,7.491,7.491,0,0,1,.272-1.666,7.359,7.359,0,0,1,.02,1.692,11.805,11.805,0,0,1-.188,2.046,18.335,18.335,0,0,1-.541,2.758,24.842,24.842,0,0,1-3,7.1,26.748,26.748,0,0,1-18.332,12.388,26.991,26.991,0,0,1-14.168-1.444,25.379,25.379,0,0,1-6.774-3.824,24.772,24.772,0,0,1-5.6-5.875,26.9,26.9,0,0,1,.78-32.026,24.758,24.758,0,0,1,5.88-5.594,25.379,25.379,0,0,1,6.951-3.49,26.992,26.992,0,0,1,14.22-.754,26.749,26.749,0,0,1,17.709,13.263,24.833,24.833,0,0,1,2.655,7.237,18.352,18.352,0,0,1,.407,2.781,11.8,11.8,0,0,1,.088,2.053,7.342,7.342,0,0,1-.1,1.689" transform="translate(-166.613 -60.031)" fill="#ebebeb"/>
        <path id="Trazado_235681" data-name="Trazado 235681" d="M385.518,140.493c.058.081-.418.5-1.336,1.179l-1.7,1.218c-.337.231-.689.491-1.08.737l-1.3.679a29.78,29.78,0,0,1-15.513,3.907l-2.348-.1-2.254-.352c-.368-.062-.736-.112-1.1-.184l-1.052-.28c-.692-.192-1.377-.355-2.029-.564a33.995,33.995,0,0,1-6.582-3.033c-3.536-2.138-5.257-4.083-5.123-4.208.142-.163,2.065,1.465,5.626,3.314a39.616,39.616,0,0,0,6.479,2.651c.631.183,1.291.322,1.957.494l1.011.25,1.049.159,2.153.317,2.239.09a32.122,32.122,0,0,0,15.021-3.373l1.315-.571c.4-.209.763-.434,1.113-.627l1.8-.992c1-.53,1.588-.787,1.646-.706" transform="translate(-173.525 -70.336)" fill="#ebebeb"/>
        <path id="Trazado_235682" data-name="Trazado 235682" d="M342.488,198.378c-.059-.082.418-.5,1.336-1.179l1.7-1.218c.337-.23.689-.491,1.08-.737l1.3-.679a29.78,29.78,0,0,1,15.513-3.907l2.348.1,2.254.352c.368.062.736.112,1.1.184l1.052.28c.692.192,1.377.355,2.028.564a33.93,33.93,0,0,1,6.582,3.032c3.536,2.138,5.258,4.083,5.124,4.208-.143.163-2.064-1.465-5.626-3.314a39.7,39.7,0,0,0-6.479-2.652c-.631-.183-1.292-.322-1.957-.493l-1.011-.251-1.049-.158-2.153-.317-2.238-.091a32.12,32.12,0,0,0-15.021,3.373l-1.315.571c-.4.209-.764.434-1.113.627l-1.8.992c-1,.53-1.587.787-1.645.706" transform="translate(-172.709 -96.138)" fill="#ebebeb"/>
        <path id="Trazado_235683" data-name="Trazado 235683" d="M384.6,174.384c-.01.4-11.83.439-26.4.085s-26.374-.966-26.365-1.366,11.827-.438,26.4-.084,26.372.966,26.362,1.366" transform="translate(-167.339 -87.128)" fill="#ebebeb"/>
        <path id="Trazado_235684" data-name="Trazado 235684" d="M382.265,173c-.4-.01-.439-11.826-.085-26.388s.965-26.366,1.366-26.356.438,11.823.085,26.391-.965,26.363-1.366,26.353" transform="translate(-192.606 -60.646)" fill="#ebebeb"/>
        <path id="Trazado_235685" data-name="Trazado 235685" d="M369.248,172.949c-.1.153-3.007-1.817-6.362-6.28a35.483,35.483,0,0,1-4.715-8.563,31.811,31.811,0,0,1-2.042-11.822,30.262,30.262,0,0,1,2.663-11.7,36.67,36.67,0,0,1,5.153-8.3c3.553-4.294,6.484-6.2,6.583-6.044.142.165-2.512,2.324-5.774,6.676a39.5,39.5,0,0,0-4.735,8.2,30.4,30.4,0,0,0-2.44,11.2,32.131,32.131,0,0,0,1.846,11.335,38.07,38.07,0,0,0,4.3,8.429c3.054,4.5,5.671,6.713,5.524,6.873" transform="translate(-179.588 -60.63)" fill="#ebebeb"/>
        <path id="Trazado_235686" data-name="Trazado 235686" d="M385.066,120.267c.1-.153,3.007,1.818,6.361,6.28a35.48,35.48,0,0,1,4.716,8.563,31.821,31.821,0,0,1,2.041,11.822,30.262,30.262,0,0,1-2.663,11.7,36.667,36.667,0,0,1-5.153,8.3c-3.553,4.294-6.484,6.2-6.582,6.044-.143-.165,2.512-2.324,5.774-6.676a39.526,39.526,0,0,0,4.734-8.2,30.4,30.4,0,0,0,2.44-11.2,32.131,32.131,0,0,0-1.847-11.336,38.092,38.092,0,0,0-4.3-8.429c-3.055-4.5-5.672-6.713-5.525-6.873" transform="translate(-193.535 -60.645)" fill="#ebebeb"/>
        <path id="Trazado_235687" data-name="Trazado 235687" d="M376.625,19.807H353.07a1.189,1.189,0,1,1,0-2.379h23.555a1.189,1.189,0,1,1,0,2.379" transform="translate(-177.448 -8.789)" fill="#e0e0e0"/>
        <path id="Trazado_235688" data-name="Trazado 235688" d="M376.625,30.512H353.07a1.189,1.189,0,1,1,0-2.379h23.555a1.189,1.189,0,1,1,0,2.379" transform="translate(-177.448 -14.187)" fill="#e0e0e0"/>
        <path id="Trazado_235689" data-name="Trazado 235689" d="M376.625,41.217H353.07a1.189,1.189,0,1,1,0-2.379h23.555a1.189,1.189,0,1,1,0,2.379" transform="translate(-177.448 -19.585)" fill="#e0e0e0"/>
        <path id="Trazado_235690" data-name="Trazado 235690" d="M383.112,275.237H360.638a1.135,1.135,0,0,1,0-2.27h22.475a1.135,1.135,0,1,1,0,2.27" transform="translate(-181.292 -137.653)" fill="#f5f5f5"/>
        <path id="Trazado_235691" data-name="Trazado 235691" d="M383.112,285.45H360.638a1.135,1.135,0,0,1,0-2.27h22.475a1.135,1.135,0,1,1,0,2.27" transform="translate(-181.292 -142.804)" fill="#f5f5f5"/>
        <path id="Trazado_235692" data-name="Trazado 235692" d="M383.112,295.664H360.638a1.135,1.135,0,0,1,0-2.27h22.475a1.135,1.135,0,1,1,0,2.27" transform="translate(-181.292 -147.954)" fill="#f5f5f5"/>
        <path id="Trazado_235693" data-name="Trazado 235693" d="M25.353,32.317a7.4,7.4,0,1,0-13.779,3.739h0l.021.028c.284.478.639.82,1,1.323l4.3,5.692a1.337,1.337,0,0,0,2.134,0l4.225-5.6a15.93,15.93,0,0,0,1.075-1.425l.015-.02h0a7.353,7.353,0,0,0,1.022-3.739m-7.4,3.222a3.257,3.257,0,1,1,3.257-3.256,3.256,3.256,0,0,1-3.257,3.256" transform="translate(-5.321 -12.565)" fill="#ebebeb"/>
        <path id="Trazado_235694" data-name="Trazado 235694" d="M41.209,369.8s-5.663,4.314-.237,10.014a.494.494,0,0,0,.359.152l49.476-.289s4.225-4.739.719-10.2Z" transform="translate(-19.476 -186.322)" fill="#ebebeb"/>
        <path id="Trazado_235695" data-name="Trazado 235695" d="M93.842,379.11c0,.055-6.161.1-13.759.1s-13.76-.045-13.76-.1,6.159-.1,13.76-.1,13.759.045,13.759.1" transform="translate(-33.446 -191.129)" fill="#e0e0e0"/>
        <path id="Trazado_235696" data-name="Trazado 235696" d="M93.15,382.721c0,.055-2.9.1-6.469.1s-6.47-.045-6.47-.1,2.9-.1,6.47-.1,6.469.045,6.469.1" transform="translate(-40.45 -192.95)" fill="#e0e0e0"/>
        <path id="Trazado_235697" data-name="Trazado 235697" d="M131.94,379.379c-.032-.008.108-.568.262-1.485a20.507,20.507,0,0,0-.068-7.214c-.17-.913-.322-1.47-.289-1.479a1.6,1.6,0,0,1,.143.381c.082.248.181.614.285,1.07a17.536,17.536,0,0,1,.068,7.268c-.094.458-.187.826-.265,1.076a1.643,1.643,0,0,1-.136.383" transform="translate(-66.485 -186.183)" fill="#e0e0e0"/>
        <path id="Trazado_235698" data-name="Trazado 235698" d="M139.488,369.353a1.717,1.717,0,0,1,.22.36,4.167,4.167,0,0,1,.22.443c.077.177.174.375.252.605a10.52,10.52,0,0,1,.471,1.642,11.021,11.021,0,0,1,.034,4.167,10.551,10.551,0,0,1-.445,1.649c-.074.232-.168.431-.242.609a4.342,4.342,0,0,1-.213.446,1.7,1.7,0,0,1-.215.363c-.034-.017.241-.55.536-1.464a11.91,11.91,0,0,0,.4-1.636,11.756,11.756,0,0,0-.033-4.1,11.914,11.914,0,0,0-.423-1.629c-.309-.91-.594-1.438-.56-1.455" transform="translate(-70.34 -186.259)" fill="#e0e0e0"/>
        <path id="Trazado_235699" data-name="Trazado 235699" d="M58.167,380a1.558,1.558,0,0,1-.231-.331,3.471,3.471,0,0,1-.231-.413,5.784,5.784,0,0,1-.264-.569,8.67,8.67,0,0,1-.483-1.561,9.191,9.191,0,0,1,.054-3.981,8.662,8.662,0,0,1,.524-1.548,5.811,5.811,0,0,1,.28-.562,3.538,3.538,0,0,1,.242-.406,1.541,1.541,0,0,1,.239-.325c.034.021-.285.5-.631,1.348a9.657,9.657,0,0,0-.475,1.533,9.7,9.7,0,0,0-.052,3.9,9.554,9.554,0,0,0,.433,1.545c.323.858.629,1.344.594,1.364" transform="translate(-28.626 -186.742)" fill="#e0e0e0"/>
        <path id="Trazado_235700" data-name="Trazado 235700" d="M47.127,381.129a1.961,1.961,0,0,1-.254-.375,4.286,4.286,0,0,1-.259-.464c-.091-.186-.206-.394-.3-.638a10.546,10.546,0,0,1-.567-1.746,11.048,11.048,0,0,1-.1-4.475,10.527,10.527,0,0,1,.489-1.77,6.991,6.991,0,0,1,.271-.651,4.353,4.353,0,0,1,.237-.475,1.958,1.958,0,0,1,.237-.386c.036.018-.281.581-.613,1.56a11.662,11.662,0,0,0-.44,1.754,11.653,11.653,0,0,0,.1,4.4,11.643,11.643,0,0,0,.518,1.734c.375.962.716,1.511.681,1.531" transform="translate(-22.929 -186.66)" fill="#e0e0e0"/>
        <rect id="Rectángulo_59258" data-name="Rectángulo 59258" width="18.321" height="9.468" transform="translate(51.195 208.423)" fill="#ebebeb"/>
        <path id="Trazado_235701" data-name="Trazado 235701" d="M20.869,424.248c0,.083.007.167.011.251a5.425,5.425,0,0,0,5.45,5.081H80.892v-.685H67.939a4.734,4.734,0,0,1,0-9.468H80.892V418.42l-54.578.184a5.459,5.459,0,0,0-5.444,5.643" transform="translate(-10.522 -211.003)" fill="#e0e0e0"/>
        <path id="Trazado_235702" data-name="Trazado 235702" d="M123.117,430.152c0,.055-3.767.1-8.413.1s-8.413-.045-8.413-.1,3.766-.1,8.413-.1,8.413.045,8.413.1" transform="translate(-53.601 -216.869)" fill="#e0e0e0"/>
        <path id="Trazado_235703" data-name="Trazado 235703" d="M123.5,434.457c0,.055-3.564.1-7.96.1s-7.961-.045-7.961-.1,3.564-.1,7.961-.1,7.96.045,7.96.1" transform="translate(-54.252 -219.04)" fill="#e0e0e0"/>
        <path id="Trazado_235704" data-name="Trazado 235704" d="M125.672,438.393c0,.055-3.2.1-7.157.1s-7.158-.045-7.158-.1,3.2-.1,7.158-.1,7.157.045,7.157.1" transform="translate(-56.156 -221.025)" fill="#e0e0e0"/>
        <path id="Trazado_235705" data-name="Trazado 235705" d="M123.468,426.286c0,.055-3.69.1-8.24.1s-8.241-.045-8.241-.1,3.689-.1,8.241-.1,8.24.045,8.24.1" transform="translate(-53.951 -214.919)" fill="#e0e0e0"/>
        <path id="Trazado_235706" data-name="Trazado 235706" d="M124.775,422.418c0,.055-3.284.1-7.335.1s-7.336-.045-7.336-.1,3.284-.1,7.336-.1,7.335.045,7.335.1" transform="translate(-55.524 -212.969)" fill="#e0e0e0"/>
        <path id="Trazado_235707" data-name="Trazado 235707" d="M31.56,419.111A12.112,12.112,0,0,0,30.4,420.49a7.01,7.01,0,0,0,.1,8.113,12.18,12.18,0,0,0,1.191,1.351,1.911,1.911,0,0,1-.394-.29,6.256,6.256,0,0,1-.912-.977,6.906,6.906,0,0,1-.1-8.278,6.2,6.2,0,0,1,.888-1,1.9,1.9,0,0,1,.387-.3" transform="translate(-14.602 -211.352)" fill="#f5f5f5"/>
        <path id="Trazado_235708" data-name="Trazado 235708" d="M27.838,418.7a12.1,12.1,0,0,0-1.159,1.379,7.01,7.01,0,0,0,.1,8.113,12.18,12.18,0,0,0,1.191,1.351,1.911,1.911,0,0,1-.394-.29,6.259,6.259,0,0,1-.912-.977,6.906,6.906,0,0,1-.1-8.278,6.229,6.229,0,0,1,.888-1,1.9,1.9,0,0,1,.387-.3" transform="translate(-12.725 -211.146)" fill="#f5f5f5"/>
        <path id="Trazado_235709" data-name="Trazado 235709" d="M102.626,419.111a12.111,12.111,0,0,0-1.159,1.379,7.01,7.01,0,0,0,.1,8.113,12.181,12.181,0,0,0,1.191,1.351,1.911,1.911,0,0,1-.394-.29,6.256,6.256,0,0,1-.912-.977,6.906,6.906,0,0,1-.1-8.278,6.2,6.2,0,0,1,.888-1,1.9,1.9,0,0,1,.387-.3" transform="translate(-50.439 -211.352)" fill="#f5f5f5"/>
        <path id="Trazado_235710" data-name="Trazado 235710" d="M98.9,418.7a12.1,12.1,0,0,0-1.159,1.379,7.01,7.01,0,0,0,.1,8.113,12.181,12.181,0,0,0,1.191,1.351,1.911,1.911,0,0,1-.394-.29,6.259,6.259,0,0,1-.912-.977,6.906,6.906,0,0,1-.1-8.278,6.205,6.205,0,0,1,.888-1,1.9,1.9,0,0,1,.387-.3" transform="translate(-48.563 -211.146)" fill="#f5f5f5"/>
        <path id="Trazado_235711" data-name="Trazado 235711" d="M43.818,427.249q-.026-1.925-.052-3.85a2.755,2.755,0,0,0-.136-.991.935.935,0,0,0-.731-.617,1.464,1.464,0,0,0-1.57.744,3.651,3.651,0,0,0-.378,1.887,27.214,27.214,0,0,0,.148,3.041,3.494,3.494,0,0,0,.358,1.392,1.3,1.3,0,0,0,1.174.706,1.314,1.314,0,0,0,1.029-.893,3.864,3.864,0,0,0,.158-1.419" transform="translate(-20.651 -212.674)" fill="#f5f5f5"/>
        <path id="Trazado_235712" data-name="Trazado 235712" d="M71.559,430.526c0,.055-3.944.1-8.809.1s-8.81-.045-8.81-.1,3.944-.1,8.81-.1,8.809.045,8.809.1" transform="translate(-27.201 -217.058)" fill="#f5f5f5"/>
        <path id="Trazado_235713" data-name="Trazado 235713" d="M39.259,409.219l-.1-8.974h4.885l.169,8.974Z" transform="translate(-19.747 -201.837)" fill="#f5f5f5"/>
        <path id="Trazado_235714" data-name="Trazado 235714" d="M43.812,403.363a12.985,12.985,0,0,1-2.27.1,12.989,12.989,0,0,1-2.27-.1,12.989,12.989,0,0,1,2.27-.1,12.985,12.985,0,0,1,2.27.1" transform="translate(-19.804 -203.36)" fill="#e0e0e0"/>
        <path id="Trazado_235715" data-name="Trazado 235715" d="M43.812,406.158a12.986,12.986,0,0,1-2.27.1,12.989,12.989,0,0,1-2.27-.1,12.984,12.984,0,0,1,2.27-.1,12.98,12.98,0,0,1,2.27.1" transform="translate(-19.804 -204.769)" fill="#e0e0e0"/>
        <path id="Trazado_235716" data-name="Trazado 235716" d="M43.812,408.952a12.982,12.982,0,0,1-2.27.1,12.985,12.985,0,0,1-2.27-.1,12.991,12.991,0,0,1,2.27-.1,12.987,12.987,0,0,1,2.27.1" transform="translate(-19.804 -206.178)" fill="#e0e0e0"/>
        <path id="Trazado_235717" data-name="Trazado 235717" d="M43.812,411.746a12.984,12.984,0,0,1-2.27.1,12.987,12.987,0,0,1-2.27-.1,12.985,12.985,0,0,1,2.27-.1,12.982,12.982,0,0,1,2.27.1" transform="translate(-19.804 -207.587)" fill="#e0e0e0"/>
        <path id="Trazado_235718" data-name="Trazado 235718" d="M43.812,414.54a12.987,12.987,0,0,1-2.27.1,12.991,12.991,0,0,1-2.27-.1,12.985,12.985,0,0,1,2.27-.1,12.982,12.982,0,0,1,2.27.1" transform="translate(-19.804 -208.996)" fill="#e0e0e0"/>
        <path id="Trazado_235719" data-name="Trazado 235719" d="M38.635,399.765H92.778a25.436,25.436,0,0,1,0,9.7H38.866v-.66H42.16a1.556,1.556,0,0,0,1.556-1.556v-5.368a1.556,1.556,0,0,0-1.556-1.556H38.635Z" transform="translate(-19.483 -201.596)" fill="#ebebeb"/>
        <path id="Trazado_235720" data-name="Trazado 235720" d="M63.135,407.639h.9a.211.211,0,0,1,.1.024.185.185,0,0,1,.1.17.2.2,0,0,1-.007.058c-.018.077-.038.154-.061.231a2.577,2.577,0,0,1-.566,1.023,1.069,1.069,0,0,1-.77.4.824.824,0,0,1-.109-.007.88.88,0,0,1-.614-.445,2.028,2.028,0,0,1-.27-1.088,2.9,2.9,0,0,1,.107-.775,2.594,2.594,0,0,1,.536-1.047,1.091,1.091,0,0,1,.814-.432.769.769,0,0,1,.342.078,1.109,1.109,0,0,1,.527.66.2.2,0,0,1,.021.09.191.191,0,0,1-.026.1.185.185,0,0,1-.168.1.21.21,0,0,1-.061-.009.185.185,0,0,1-.124-.122l-.009-.017a.983.983,0,0,0-.109-.214.516.516,0,0,0-.433-.258.506.506,0,0,0-.3.109,1.6,1.6,0,0,0-.493.709,2.658,2.658,0,0,0-.214,1.019,1.829,1.829,0,0,0,.155.8.526.526,0,0,0,.471.354.646.646,0,0,0,.437-.264,2.392,2.392,0,0,0,.464-.839c-.416,0-.632,0-.648-.007q-.212-.034-.217-.219a.194.194,0,0,1,.02-.065.2.2,0,0,1,.2-.11" transform="translate(-31.183 -204.613)" fill="#fafafa"/>
        <path id="Trazado_235721" data-name="Trazado 235721" d="M68.685,405.905a.554.554,0,0,1,.024.065q.057.2.637,3.355a.14.14,0,0,1,.009.049.2.2,0,0,1-.026.1.178.178,0,0,1-.162.1l-.031,0a.178.178,0,0,1-.15-.134l-.215-1.115H67.659l-.534,1.119a.251.251,0,0,1-.018.037.215.215,0,0,1-.168.095.193.193,0,0,1-.106-.031.189.189,0,0,1-.089-.163.144.144,0,0,1,.012-.058c.033-.078.089-.2.166-.368q1.167-2.549,1.4-3.009a.211.211,0,0,1,.188-.136.205.205,0,0,1,.178.1m-.242.75-.6,1.266h.85Z" transform="translate(-33.659 -204.643)" fill="#fafafa"/>
        <path id="Trazado_235722" data-name="Trazado 235722" d="M74.89,409.567H73.258a.185.185,0,0,1-.1-.032.3.3,0,0,1-.092-.2v0q0-.1.451-3.341a.55.55,0,0,1,.01-.071.178.178,0,0,1,.175-.119.193.193,0,0,1,.09.022.181.181,0,0,1,.1.173q-.022.221-.111.916-.28,2.139-.292,2.259h1.387a.289.289,0,0,1,.1.019.183.183,0,0,1,.124.182.234.234,0,0,1-.009.063.229.229,0,0,1-.2.136" transform="translate(-36.844 -204.638)" fill="#fafafa"/>
        <path id="Trazado_235723" data-name="Trazado 235723" d="M79.278,405.905a.664.664,0,0,1,.024.065q.057.2.637,3.355a.14.14,0,0,1,.009.049.2.2,0,0,1-.027.1.178.178,0,0,1-.161.1l-.031,0a.178.178,0,0,1-.15-.134l-.215-1.115H78.252l-.535,1.119a.247.247,0,0,1-.017.037.216.216,0,0,1-.168.095.193.193,0,0,1-.106-.031.188.188,0,0,1-.089-.163.144.144,0,0,1,.012-.058c.033-.078.089-.2.166-.368q1.167-2.549,1.4-3.009a.211.211,0,0,1,.188-.136.205.205,0,0,1,.178.1m-.242.75-.6,1.266h.85Z" transform="translate(-39 -204.643)" fill="#fafafa"/>
        <path id="Trazado_235724" data-name="Trazado 235724" d="M84.9,407.831q.19.53.295.817.252.7.252.737a.172.172,0,0,1-.031.1.185.185,0,0,1-.163.089.177.177,0,0,1-.162-.131c-.012-.035-.023-.062-.031-.083q-.133-.3-.436-1.15l-.924,1.262a.225.225,0,0,1-.173.1.206.206,0,0,1-.1-.027.178.178,0,0,1-.092-.163.257.257,0,0,1,0-.042.485.485,0,0,1,.1-.158q.465-.6,1.026-1.429l-.112-.308q-.521-1.4-.521-1.443a.212.212,0,0,1,.024-.1.17.17,0,0,1,.158-.1.2.2,0,0,1,.182.108l.545,1.469,1.089-1.482a.217.217,0,0,1,.173-.092.182.182,0,0,1,.089.022.184.184,0,0,1,.095.173.252.252,0,0,1-.019.089Z" transform="translate(-42.027 -204.643)" fill="#fafafa"/>
        <path id="Trazado_235725" data-name="Trazado 235725" d="M91.793,405.833a.2.2,0,0,1,.09.022.192.192,0,0,1,.1.168q-.4,3.165-.442,3.42a2.082,2.082,0,0,1-.349.891,1.259,1.259,0,0,1-1.606.394,1.158,1.158,0,0,1-.576-.505.212.212,0,0,1-.022-.095.191.191,0,0,1,.027-.1.185.185,0,0,1,.168-.1.188.188,0,0,1,.148.08,1.05,1.05,0,0,0,.836.476.826.826,0,0,0,.648-.329,1.8,1.8,0,0,0,.36-1.026.983.983,0,0,1-.826.447.827.827,0,0,1-.11-.007.874.874,0,0,1-.619-.445,2.014,2.014,0,0,1-.272-1.088q0-.3.027-.612.046-.5.221-1.406a.217.217,0,0,1,.017-.056.179.179,0,0,1,.174-.133.181.181,0,0,1,.095.027.171.171,0,0,1,.1.155,7.193,7.193,0,0,1-.09.744,10.258,10.258,0,0,0-.129,1.138,2.281,2.281,0,0,0,.146.885c.112.265.273.4.483.4a.315.315,0,0,0,.066-.008.889.889,0,0,0,.488-.39,2.432,2.432,0,0,0,.4-.9l.247-1.86a.24.24,0,0,1,.025-.082.178.178,0,0,1,.17-.107" transform="translate(-44.878 -204.656)" fill="#fafafa"/>
        <path id="Trazado_235726" data-name="Trazado 235726" d="M143.654,409.464c-.055,0-.1-2.228-.1-4.976s.045-4.977.1-4.977.1,2.227.1,4.977-.045,4.976-.1,4.976" transform="translate(-72.392 -201.468)" fill="#f5f5f5"/>
        <path id="Trazado_235727" data-name="Trazado 235727" d="M54.276,409.464c-.055,0-.1-2.228-.1-4.976s.045-4.977.1-4.977.1,2.227.1,4.977-.045,4.976-.1,4.976" transform="translate(-27.32 -201.468)" fill="#e0e0e0"/>
        <path id="Trazado_235728" data-name="Trazado 235728" d="M145.571,409.464c-.055,0-.1-2.228-.1-4.976s.045-4.977.1-4.977.1,2.227.1,4.977-.045,4.976-.1,4.976" transform="translate(-73.359 -201.468)" fill="#f5f5f5"/>
        <path id="Trazado_235729" data-name="Trazado 235729" d="M52.485,409.464c-.055,0-.1-2.228-.1-4.976s.045-4.977.1-4.977.1,2.227.1,4.977-.045,4.976-.1,4.976" transform="translate(-26.417 -201.468)" fill="#e0e0e0"/>
        <path id="Trazado_235730" data-name="Trazado 235730" d="M111.2,402.8l-.008-.017,5.723,4.617.051.041-.063.016-.761.2-4.831,1.268-.01,0-.009,0-4.379-1.857-1.24-.531-.327-.143-.083-.038a.131.131,0,0,1-.028-.014.124.124,0,0,1,.03.01l.085.033.331.134,1.246.516,4.389,1.835-.019,0,4.83-1.274.761-.2-.012.057-5.711-4.632-.008-.006v-.01" transform="translate(-53.068 -203.118)" fill="#e0e0e0"/>
        <path id="Trazado_235731" data-name="Trazado 235731" d="M127.329,410.647l.312.293.419-.09-.183.387.216.37-.425-.054-.286.319-.08-.421-.392-.173.376-.206Z" transform="translate(-63.999 -207.083)" fill="#e0e0e0"/>
        <path id="Trazado_235732" data-name="Trazado 235732" d="M116.432,414.317l.213.177.267-.075-.1.257.154.231-.277-.018-.172.218-.068-.269-.26-.1.234-.148Z" transform="translate(-58.591 -208.934)" fill="#e0e0e0"/>
        <path id="Trazado_235733" data-name="Trazado 235733" d="M104.451,409.048l.34.021.21-.268.085.33.319.117-.287.182-.013.34-.262-.217-.327.093.125-.316Z" transform="translate(-52.673 -206.153)" fill="#e0e0e0"/>
        <path id="Trazado_235734" data-name="Trazado 235734" d="M132.931,402.714l.34.021.21-.268.085.33.319.117-.287.182-.013.34-.262-.217-.327.093.125-.316Z" transform="translate(-67.035 -202.959)" fill="#e0e0e0"/>
        <path id="Trazado_235735" data-name="Trazado 235735" d="M116.713,402.355l.217.013.134-.171.054.21.2.075-.183.117-.008.217-.168-.138-.209.059.08-.2Z" transform="translate(-58.857 -202.822)" fill="#e0e0e0"/>
        <path id="Trazado_235736" data-name="Trazado 235736" d="M125.485,403.08c0,.022-1.852-.039-4.134-.137s-4.132-.195-4.131-.217,1.852.039,4.134.137,4.132.195,4.131.217" transform="translate(-59.112 -203.087)" fill="#e0e0e0"/>
        <path id="Trazado_235737" data-name="Trazado 235737" d="M81.608,394.945H26.7a4.608,4.608,0,0,1,0-4.571H81.608a5.3,5.3,0,0,1,0,4.571" transform="translate(-13.156 -196.86)" fill="#e0e0e0"/>
        <rect id="Rectángulo_59259" data-name="Rectángulo 59259" width="29.75" height="1.664" transform="translate(24.91 194.82)" fill="#ebebeb"/>
        <path id="Trazado_235738" data-name="Trazado 235738" d="M30.6,395.087a1.6,1.6,0,0,1-.434-.553,4.037,4.037,0,0,1-.291-3.307,1.6,1.6,0,0,1,.331-.62,5.211,5.211,0,0,1-.2.662,4.619,4.619,0,0,0,.282,3.2,5.311,5.311,0,0,1,.308.618" transform="translate(-14.951 -196.977)" fill="#e0e0e0"/>
        <path id="Trazado_235739" data-name="Trazado 235739" d="M33,395.087a1.6,1.6,0,0,1-.434-.553,4.035,4.035,0,0,1-.29-3.307,1.591,1.591,0,0,1,.33-.62,5.209,5.209,0,0,1-.2.662,4.619,4.619,0,0,0,.282,3.2,5.214,5.214,0,0,1,.308.618" transform="translate(-16.16 -196.977)" fill="#e0e0e0"/>
        <path id="Trazado_235740" data-name="Trazado 235740" d="M133.6,394.878a6.89,6.89,0,0,0,.026-4.474,4.649,4.649,0,0,1-.026,4.474" transform="translate(-67.37 -196.875)" fill="#f5f5f5"/>
        <path id="Trazado_235741" data-name="Trazado 235741" d="M131.528,394.955c-.06-.014.171-.979.165-2.189s-.231-2.174-.171-2.189a6.7,6.7,0,0,1,.006,4.377" transform="translate(-66.32 -196.963)" fill="#f5f5f5"/>
      </g>
    </g>
    <g id="Grupo_181965" data-name="Grupo 181965">
      <g id="Grupo_181964" data-name="Grupo 181964" clip-path="url(#clip-path)">
        <path id="Trazado_235742" data-name="Trazado 235742" d="M123.5,224.489l.014-.007c-.006-.022-.01-.014-.014.007" transform="translate(-62.28 -113.196)" fill="#ff725e"/>
        <path id="Trazado_235743" data-name="Trazado 235743" d="M199.908,283.374c-.162-3.561-5.507-51.473-6.312-57.624-1.287-9.824-9.191-12.289-9.192-12.289l-26.862-9.27H130.962l-28.806,10.065-.014.489a4.594,4.594,0,0,1,0-.481c-.287.16-7.379,2.175-9.076,9.161-.927,3.818-11.75,57.966-11.91,59.557s1.273,11.3,8.908,12.568c2.862.477,9.051.038,15.671-.7L100.565,321.4h83.5l-2.951-18.971c6.641-2.586,13.591-5.478,14.75-6.684,2.266-2.357,4.209-8.813,4.047-12.374m-94.456-13.643h0Z" transform="translate(-40.92 -102.971)" fill="#4adbd1"/>
        <g id="Grupo_181957" data-name="Grupo 181957" transform="translate(75.812 166.396)" opacity="0.3">
          <g id="Grupo_181956" data-name="Grupo 181956">
            <g id="Grupo_181955" data-name="Grupo 181955" clip-path="url(#clip-path-4)">
              <path id="Trazado_235744" data-name="Trazado 235744" d="M163.485,344.048a15.081,15.081,0,0,0-1.23-4.951,6.044,6.044,0,0,0-3.713-3.3,3.835,3.835,0,0,0-4.37,1.807c-3.013,8.455-.273,13.216,5.473,17.785a3.566,3.566,0,0,0,3.151.957c1.1-.33,1.321-1.134,1.371-2.278a61.846,61.846,0,0,0-.683-10.018" transform="translate(-152.934 -335.67)"/>
            </g>
          </g>
        </g>
        <path id="Trazado_235745" data-name="Trazado 235745" d="M247.267,272.873" transform="translate(-124.693 -137.606)" fill="#ebebeb"/>
        <path id="Trazado_235746" data-name="Trazado 235746" d="M247.267,272.873" transform="translate(-124.693 -137.606)" fill="#ebebeb"/>
        <path id="Trazado_235747" data-name="Trazado 235747" d="M135.4,333.188a2.612,2.612,0,0,1-.546.089l-1.513.16c-1.288.126-3.092.289-5.149.461l.062-.022c-.469.327-.955.666-1.444,1.023a26.455,26.455,0,0,0-4.738,4.2,13.794,13.794,0,0,0-1.125,1.555,4.292,4.292,0,0,1-.37.6,3.3,3.3,0,0,1,.283-.653,11.123,11.123,0,0,1,1.07-1.621,24.042,24.042,0,0,1,4.728-4.292c.491-.359.981-.7,1.453-1.023l.028-.019.033,0c2.059-.16,3.865-.29,5.156-.372l1.519-.085a2.6,2.6,0,0,1,.553,0" transform="translate(-60.806 -168.016)" fill="#263238"/>
        <path id="Trazado_235748" data-name="Trazado 235748" d="M131.293,351.921a.669.669,0,0,1,.041.149c.024.114.056.26.1.444.071.392.174.972.262,1.724a56.078,56.078,0,0,1,.346,6.4q.005,1.015-.017,2.125a3.13,3.13,0,0,1-.747,2.193,3.374,3.374,0,0,1-2.217,1.111l-2.573.448c-3.521.619-7.381,1.365-11.458,2.021s-7.988,1.126-11.553,1.438a60.268,60.268,0,0,1-9.5.367,13.532,13.532,0,0,1-1.922-.266,5.43,5.43,0,0,1-1.608-.657,12.61,12.61,0,0,1-2.158-1.728c-.543-.528-.943-.959-1.214-1.251l-.3-.337a.706.706,0,0,1-.1-.121.678.678,0,0,1,.116.1l.322.319c.282.281.694.7,1.246,1.214a12.9,12.9,0,0,0,2.162,1.677,5.333,5.333,0,0,0,1.571.621,13.509,13.509,0,0,0,1.9.244,62.069,62.069,0,0,0,9.466-.422c3.559-.325,7.461-.794,11.534-1.456s7.933-1.394,11.457-2l2.577-.437a3.158,3.158,0,0,0,2.093-1.028,2.925,2.925,0,0,0,.708-2.057q.031-1.106.033-2.12a61.862,61.862,0,0,0-.263-6.39c-.073-.752-.159-1.333-.214-1.726l-.069-.448a.691.691,0,0,1-.015-.154" transform="translate(-43.706 -177.469)" fill="#263238"/>
        <path id="Trazado_235749" data-name="Trazado 235749" d="M139.01,270.9c.071.007-.564,7.057-1.418,15.744s-1.6,15.727-1.675,15.72.564-7.055,1.418-15.745,1.6-15.726,1.675-15.719" transform="translate(-68.539 -136.612)" fill="#263238"/>
        <path id="Trazado_235750" data-name="Trazado 235750" d="M277.236,258.524a.423.423,0,0,1,.007.121c0,.094,0,.209,0,.351q-.016.5-.042,1.351c-.039,1.173-.118,2.871-.229,4.967-.221,4.193-.622,9.981-1.115,16.367s-.923,12.172-1.19,16.361c-.13,2.078-.236,3.767-.311,4.962q-.056.853-.09,1.348c-.012.141-.022.256-.03.35a.443.443,0,0,1-.019.119.422.422,0,0,1-.007-.12c0-.095,0-.21,0-.352q.015-.5.042-1.351c.039-1.174.118-2.871.229-4.968.222-4.193.622-9.981,1.115-16.369s.922-12.169,1.19-16.359c.13-2.078.236-3.767.311-4.961.038-.569.068-1.019.09-1.349.012-.14.022-.256.03-.35a.416.416,0,0,1,.019-.119" transform="translate(-138.278 -130.37)" fill="#263238"/>
        <path id="Trazado_235751" data-name="Trazado 235751" d="M299.841,355.224a19.823,19.823,0,0,0-1.542-2.191,12.082,12.082,0,0,0-5.261-3.581,21.481,21.481,0,0,0-3.459-.807,7.6,7.6,0,0,0-4.7.767,4.876,4.876,0,0,1-.647.321c0-.007.046-.048.147-.118s.248-.178.453-.291a7.268,7.268,0,0,1,1.833-.761,8,8,0,0,1,2.942-.154,20.225,20.225,0,0,1,3.512.8,11.745,11.745,0,0,1,5.319,3.708,10.621,10.621,0,0,1,1.1,1.647,3.411,3.411,0,0,1,.3.661" transform="translate(-143.335 -175.663)" fill="#263238"/>
        <path id="Trazado_235752" data-name="Trazado 235752" d="M268.19,387.088a1.54,1.54,0,0,1-.29.15l-.851.382c-.741.327-1.813.8-3.147,1.365a31.2,31.2,0,0,1-4.81,1.692,7.243,7.243,0,0,1-3.031.087,5.866,5.866,0,0,1-2.836-1.59,8.044,8.044,0,0,1-1.757-2.739,18.579,18.579,0,0,1-.935-2.871,42.248,42.248,0,0,1-.893-5.018c-.175-1.439-.274-2.607-.341-3.414-.028-.382-.052-.69-.069-.93a1.527,1.527,0,0,1-.007-.326,1.537,1.537,0,0,1,.059.321c.031.238.069.545.118.926.1.8.224,1.968.422,3.4a45.282,45.282,0,0,0,.942,4.982,18.716,18.716,0,0,0,.937,2.83,7.864,7.864,0,0,0,1.7,2.651,5.647,5.647,0,0,0,2.713,1.531,7.064,7.064,0,0,0,2.926-.072,32.916,32.916,0,0,0,4.792-1.628l3.178-1.289.87-.337a1.508,1.508,0,0,1,.31-.1" transform="translate(-125.676 -188.54)" fill="#263238"/>
        <g id="Grupo_181960" data-name="Grupo 181960" transform="translate(63.908 187.258)" opacity="0.3">
          <g id="Grupo_181959" data-name="Grupo 181959">
            <g id="Grupo_181958" data-name="Grupo 181958" clip-path="url(#clip-path-5)">
              <path id="Trazado_235753" data-name="Trazado 235753" d="M152.653,377.754c-.741,1.033-2.313,1.245-3.567,1.457-6.63,1.125-12.616,2.2-19.313,2.927l-.853,4.385a99.5,99.5,0,0,0,20.16-5,8.019,8.019,0,0,0,2.441-1.323,3.041,3.041,0,0,0,1.13-2.441" transform="translate(-128.921 -377.754)"/>
            </g>
          </g>
        </g>
        <g id="Grupo_181963" data-name="Grupo 181963" transform="translate(126.05 186.781)" opacity="0.3">
          <g id="Grupo_181962" data-name="Grupo 181962">
            <g id="Grupo_181961" data-name="Grupo 181961" clip-path="url(#clip-path-6)">
              <path id="Trazado_235754" data-name="Trazado 235754" d="M254.279,376.79a25,25,0,0,0,3.063,10.36c.413.711,1.038,1.492,1.855,1.4a2.149,2.149,0,0,0,1.408-1.184,17.71,17.71,0,0,0,2.845-6.442l-6.33-2.523Z" transform="translate(-254.279 -376.79)"/>
            </g>
          </g>
        </g>
        <path id="Trazado_235755" data-name="Trazado 235755" d="M204.4,375.292c.044.056-4.77,3.836-10.75,8.441s-10.866,8.294-10.909,8.237,4.769-3.835,10.752-8.442,10.864-8.293,10.908-8.236" transform="translate(-92.154 -189.254)" fill="#263238"/>
        <path id="Trazado_235756" data-name="Trazado 235756" d="M272.7,357.643a5.02,5.02,0,0,1,.069.825,8.933,8.933,0,0,1-.01.972c0,.38-.05.809-.1,1.283a33.184,33.184,0,0,1-1.792,7.215,39.158,39.158,0,0,1-3.146,6.738,20.146,20.146,0,0,1-1.257,1.873,5.012,5.012,0,0,1-.535.632,5.145,5.145,0,0,1,.453-.69c.3-.439.716-1.081,1.181-1.907a44.346,44.346,0,0,0,3.061-6.733,36.8,36.8,0,0,0,1.853-7.15c.064-.469.123-.893.14-1.269s.063-.7.054-.962a5.106,5.106,0,0,1,.031-.825" transform="translate(-134.104 -180.354)" fill="#263238"/>
        <path id="Trazado_235757" data-name="Trazado 235757" d="M177.451,313.464s-7.357-11.754-13.132-9.444c0,0-2.936-2.406-4.812-.866s-1.2,4.668-1.2,4.668-3.561-2.887-5.149-1.4-.433,4.043,0,5.294a22.99,22.99,0,0,1,.674,3.9s-2.166-1.107-3.176.674,2.839,7.748,3.416,8.566,4.283,4.476,6.833,3.513a10.807,10.807,0,0,0,4.332-3.513Z" transform="translate(-75.887 -152.616)" fill="#ffbe9d"/>
        <path id="Trazado_235758" data-name="Trazado 235758" d="M162.186,314a4.612,4.612,0,0,1,.666.415l1.76,1.211,2.592,1.825a3.894,3.894,0,0,1,.705.626,1.569,1.569,0,0,1,.392.939,1.918,1.918,0,0,1-1.122,1.707,3.227,3.227,0,0,1-2.045.214,6.952,6.952,0,0,1-1.778-.667c-1.065-.548-2-1.089-2.764-1.565s-1.372-.89-1.783-1.184a4.175,4.175,0,0,1-.619-.484,5.132,5.132,0,0,1,.675.4c.427.268,1.044.655,1.821,1.11s1.714.977,2.776,1.509a6.863,6.863,0,0,0,1.72.632,3,3,0,0,0,1.882-.2,1.675,1.675,0,0,0,.984-1.465,1.981,1.981,0,0,0-.986-1.384l-2.557-1.868-1.713-1.277a4.551,4.551,0,0,1-.607-.5" transform="translate(-79.774 -158.347)" fill="#eb996e"/>
        <path id="Trazado_235759" data-name="Trazado 235759" d="M166.444,308.712a1.026,1.026,0,0,1,.219.146l.6.453c.52.394,1.268.969,2.222,1.636a15.144,15.144,0,0,0,3.554,1.956,8.821,8.821,0,0,0,2.323.517,5.017,5.017,0,0,0,2.478-.335,2,2,0,0,0,.888-.835,1.476,1.476,0,0,0,.1-1.146,5.77,5.77,0,0,0-1.325-1.934,27.165,27.165,0,0,0-3.042-2.716c-.918-.716-1.686-1.263-2.22-1.637l-.616-.43a.969.969,0,0,1-.207-.163,1.016,1.016,0,0,1,.235.119c.15.084.366.217.643.39.552.349,1.339.875,2.276,1.576a25.438,25.438,0,0,1,3.1,2.7c.265.285.531.583.78.909a3.647,3.647,0,0,1,.614,1.116,1.732,1.732,0,0,1-.116,1.338,2.248,2.248,0,0,1-1,.946,5.206,5.206,0,0,1-2.613.356,8.938,8.938,0,0,1-2.385-.545,14.755,14.755,0,0,1-3.579-2.03c-.945-.69-1.678-1.288-2.179-1.706l-.57-.492a1,1,0,0,1-.186-.186" transform="translate(-83.935 -153.415)" fill="#eb996e"/>
        <path id="Trazado_235760" data-name="Trazado 235760" d="M155.5,328.783l5.174,2.484c.588.283,1.267.707,1.244,1.359a1.341,1.341,0,0,1-.377.8,4.207,4.207,0,0,1-3.438,1.242,12.462,12.462,0,0,1-3.643-.979" transform="translate(-77.893 -165.8)" fill="#ffbe9d"/>
        <path id="Trazado_235761" data-name="Trazado 235761" d="M154.463,333.686c.017-.051.858.307,2.264.665a6.351,6.351,0,0,0,2.5.14,4.193,4.193,0,0,0,1.385-.479,2.769,2.769,0,0,0,1.094-1.065.786.786,0,0,0,.006-.689,1.478,1.478,0,0,0-.494-.536,11.1,11.1,0,0,0-1.321-.7l-2.3-1.136-1.543-.787a2.985,2.985,0,0,1-.55-.32,3,3,0,0,1,.594.229l1.578.712L160,330.809a10.6,10.6,0,0,1,1.364.706,1.716,1.716,0,0,1,.579.632,1.047,1.047,0,0,1,0,.907,3.608,3.608,0,0,1-2.675,1.671,6.294,6.294,0,0,1-2.586-.2,13.789,13.789,0,0,1-1.643-.571,2.9,2.9,0,0,1-.577-.271" transform="translate(-77.893 -165.798)" fill="#eb996e"/>
        <path id="Trazado_235762" data-name="Trazado 235762" d="M162.729,348.081l-7.8,5.882a13,13,0,0,1-1.27-11.655h1.877l-.427,2.1,3.553.743Z" transform="translate(-77.055 -172.62)" fill="#ffbe9d"/>
        <path id="Trazado_235763" data-name="Trazado 235763" d="M154.207,342.024l2.864,3.73a5.987,5.987,0,0,0,1.112,1.2,2.022,2.022,0,0,0,1.538.435" transform="translate(-77.764 -172.478)" fill="#ffbe9d"/>
        <path id="Trazado_235764" data-name="Trazado 235764" d="M159.719,347.393a1.385,1.385,0,0,1-1.175-.107,3.2,3.2,0,0,1-1.032-.794c-.329-.362-.637-.786-.977-1.22-.672-.875-1.269-1.677-1.691-2.264a5.318,5.318,0,0,1-.64-.984,5.3,5.3,0,0,1,.785.872c.459.559,1.079,1.343,1.751,2.218.339.435.645.866.95,1.22a3.285,3.285,0,0,0,.934.788,2.577,2.577,0,0,0,1.095.27" transform="translate(-77.762 -172.477)" fill="#eb996e"/>
        <path id="Trazado_235765" data-name="Trazado 235765" d="M158.524,333.054l9.546-9.131a4.841,4.841,0,0,1,3.488-1.341l48.984,1.431a1.027,1.027,0,0,1,.578,1.855l-13.757,10.1a1.3,1.3,0,0,1-.829.252l-47.595-2.066a.642.642,0,0,1-.415-1.1" transform="translate(-79.841 -162.673)" fill="#e0e0e0"/>
        <path id="Trazado_235766" data-name="Trazado 235766" d="M222.144,326.4a.831.831,0,0,1-.173.008h-.5l-1.938-.031-7.126-.162-23.509-.63-12.943-.378-2.906-.088a10.612,10.612,0,0,0-1.375,0,3.452,3.452,0,0,0-1.238.4,4.673,4.673,0,0,0-1,.785l-.924.852-1.737,1.6-5.253,4.818-1.437,1.3-.378.334a.906.906,0,0,1-.135.107.839.839,0,0,1,.117-.126l.36-.352,1.4-1.336,5.2-4.878,1.726-1.613.919-.857a4.841,4.841,0,0,1,1.041-.821,3.666,3.666,0,0,1,1.314-.431,10.68,10.68,0,0,1,1.408-.006l2.907.077,12.944.357,23.507.705,7.125.243,1.936.079.5.027a.862.862,0,0,1,.172.018" transform="translate(-80.466 -163.826)" fill="#263238"/>
        <path id="Trazado_235767" data-name="Trazado 235767" d="M294.07,275.987c.063.034-2.377,4.747-5.45,10.526s-5.616,10.44-5.679,10.406,2.377-4.745,5.451-10.527,5.615-10.439,5.678-10.405" transform="translate(-142.682 -139.176)" fill="#fff"/>
        <path id="Trazado_235768" data-name="Trazado 235768" d="M264.493,274.026c.069.017-.91,4.229-2.187,9.406s-2.369,9.362-2.438,9.345.91-4.228,2.187-9.407,2.368-9.361,2.437-9.344" transform="translate(-131.046 -138.187)" fill="#fff"/>
        <path id="Trazado_235769" data-name="Trazado 235769" d="M118.008,289.566c.054-.047,3.051,3.293,6.694,7.46s6.554,7.583,6.5,7.63-3.05-3.293-6.695-7.46-6.553-7.582-6.5-7.63" transform="translate(-59.509 -146.023)" fill="#fff"/>
        <path id="Trazado_235770" data-name="Trazado 235770" d="M141.872,256.126c.068-.02,1.635,5.154,3.5,11.556s3.319,11.609,3.25,11.629-1.635-5.153-3.5-11.557-3.319-11.608-3.25-11.627" transform="translate(-71.543 -129.161)" fill="#fff"/>
        <path id="Trazado_235771" data-name="Trazado 235771" d="M239.226,244.686a1.791,1.791,0,0,1,.022.351c0,.256.008.59.014,1.007,0,.9,0,2.161,0,3.7-.022,3.152-.052,7.458-.085,12.214-.062,4.758-.119,9.064-.161,12.215-.032,1.541-.059,2.8-.078,3.7-.014.416-.025.751-.034,1.006a1.793,1.793,0,0,1-.029.351,1.807,1.807,0,0,1-.023-.351c0-.256-.008-.59-.014-1.006,0-.9,0-2.161,0-3.7.022-3.152.052-7.458.085-12.217.063-4.756.119-9.062.161-12.214.033-1.541.059-2.8.078-3.7.014-.416.026-.751.034-1.006a1.8,1.8,0,0,1,.03-.351" transform="translate(-120.443 -123.392)" fill="#fff"/>
        <path id="Trazado_235772" data-name="Trazado 235772" d="M209.765,96.924c-1.85-1.981-4.09-3.851-4.737-6.483-.594-2.42.259-5.193-1.021-7.33-1.576-2.631-5.508-2.849-7.4-5.261-.917-1.167-1.238-2.716-2.144-3.891-1.546-2-4.421-2.454-6.927-2.1s-4.9,1.332-7.415,1.59c-3.453.354-7.061-.659-10.353.443-3.632,1.216-5.769,4.534-8.051,7.752l-2.992,3.744a13.652,13.652,0,0,1-2.018,1.748,24.7,24.7,0,0,0-3.848,2.637,6.129,6.129,0,0,0,.69,8.813,6.553,6.553,0,0,0-4.206,6.569,18.809,18.809,0,0,0,1.332,4.408,6.549,6.549,0,0,1,.271,4.511c-.567,1.431-2.34,2.458-3.7,1.746a6.9,6.9,0,0,0,3.908,4.469,4.121,4.121,0,0,1-2.73,1.322c3.025,6.5,10.776,9.712,17.942,9.509s13.933-3.15,20.49-6.047l19.123-5.665c1.681-.445,2.316-2.528,2.234-4.265s-.585-3.53-.019-5.174c.775-2.255,3.323-3.523,4.139-5.763.927-2.547-.709-5.3-2.559-7.278" transform="translate(-74.25 -36.181)" fill="#263238"/>
        <path id="Trazado_235773" data-name="Trazado 235773" d="M178.049,128.811A79.531,79.531,0,0,1,174.2,115.64a27.774,27.774,0,0,1,.684-13.581c.223-.658,2.154-5.084,2.847-5.036.5.034-.654,4.144-.392,4.565a23.557,23.557,0,0,1,3.059,13.651,62.037,62.037,0,0,1-2.345,13.573" transform="translate(-87.582 -48.927)" fill="#263238"/>
        <path id="Trazado_235774" data-name="Trazado 235774" d="M198.388,81.92l-1.063-.025c-11.48.4-17.557,10.368-16.843,21.834l.327,39.537a13.447,13.447,0,0,0,26.889.27c.059-2.078.107-3.531.115-3.532s11.062-1.451,11.46-12.467c.192-5.322-.3-16.312-.867-26.253A20.536,20.536,0,0,0,198.388,81.92" transform="translate(-90.986 -41.298)" fill="#ffbe9d"/>
        <path id="Trazado_235775" data-name="Trazado 235775" d="M221.18,194.454a26.625,26.625,0,0,1-14.247-4.583s3.131,8.2,14.15,7.47Z" transform="translate(-104.353 -95.749)" fill="#eb996e"/>
        <path id="Trazado_235776" data-name="Trazado 235776" d="M244.05,140.044A1.574,1.574,0,0,1,242.5,141.6a1.505,1.505,0,0,1-1.588-1.457,1.574,1.574,0,0,1,1.553-1.553,1.507,1.507,0,0,1,1.59,1.458" transform="translate(-121.486 -69.886)" fill="#263238"/>
        <path id="Trazado_235777" data-name="Trazado 235777" d="M245.747,128.361c-.2.2-1.371-.71-3.065-.746-1.691-.06-2.954.782-3.133.57-.088-.094.119-.46.67-.841a4.319,4.319,0,0,1,2.515-.71,4.151,4.151,0,0,1,2.433.85c.511.412.679.788.58.877" transform="translate(-120.791 -63.859)" fill="#263238"/>
        <path id="Trazado_235778" data-name="Trazado 235778" d="M213.129,140.044a1.574,1.574,0,0,1-1.555,1.552,1.505,1.505,0,0,1-1.588-1.457,1.575,1.575,0,0,1,1.554-1.553,1.506,1.506,0,0,1,1.59,1.458" transform="translate(-105.893 -69.886)" fill="#263238"/>
        <path id="Trazado_235779" data-name="Trazado 235779" d="M212.252,128.947c-.2.2-1.373-.71-3.066-.746-1.69-.06-2.954.782-3.133.57-.087-.094.118-.46.671-.841a4.32,4.32,0,0,1,2.514-.71,4.154,4.154,0,0,1,2.433.85c.51.412.678.788.58.877" transform="translate(-103.9 -64.155)" fill="#263238"/>
        <path id="Trazado_235780" data-name="Trazado 235780" d="M229.74,142.874a11.247,11.247,0,0,1,2.762-.43c.434-.034.845-.111.925-.4a2.206,2.206,0,0,0-.258-1.289l-1.2-3.323c-1.664-4.731-2.858-8.615-2.667-8.681s1.7,3.715,3.359,8.446c.4,1.167.783,2.278,1.146,3.342a2.5,2.5,0,0,1,.184,1.7,1.085,1.085,0,0,1-.726.615,2.909,2.909,0,0,1-.737.084,11.007,11.007,0,0,1-2.788-.062" transform="translate(-115.623 -64.924)" fill="#263238"/>
        <path id="Trazado_235781" data-name="Trazado 235781" d="M219.794,159.37c.276-.009.235,1.829,1.778,3.171s3.5,1.187,3.512,1.444c.023.116-.445.346-1.272.349a4.58,4.58,0,0,1-2.934-1.1,3.988,3.988,0,0,1-1.373-2.656c-.052-.77.164-1.221.29-1.207" transform="translate(-110.689 -80.368)" fill="#263238"/>
        <path id="Trazado_235782" data-name="Trazado 235782" d="M210.839,115.467c-.178.457-1.863.2-3.856.39-2,.152-3.613.7-3.866.277-.113-.2.177-.627.835-1.057a6.739,6.739,0,0,1,5.883-.508c.722.311,1.081.682,1,.9" transform="translate(-102.417 -57.548)" fill="#263238"/>
        <path id="Trazado_235783" data-name="Trazado 235783" d="M245.072,116.874c-.307.377-1.464-.05-2.866-.1-1.4-.1-2.6.2-2.861-.212-.115-.2.081-.579.609-.93a4.152,4.152,0,0,1,4.615.253c.486.407.639.807.5.991" transform="translate(-120.682 -58.017)" fill="#263238"/>
        <path id="Trazado_235784" data-name="Trazado 235784" d="M174.377,142.029c-.186-.086-7.518-2.42-7.457,5.12s7.618,5.922,7.63,5.706-.173-10.826-.173-10.826" transform="translate(-84.175 -71.418)" fill="#ffbe9d"/>
        <path id="Trazado_235785" data-name="Trazado 235785" d="M174.17,152.5c-.034-.024-.131.093-.352.2a1.312,1.312,0,0,1-.982.028,3.25,3.25,0,0,1-1.527-2.9,4.333,4.333,0,0,1,.352-1.883,1.518,1.518,0,0,1,.98-1.017.669.669,0,0,1,.778.354c.1.21.056.361.1.373.021.019.161-.127.1-.438a.835.835,0,0,0-.3-.47.992.992,0,0,0-.728-.186,1.848,1.848,0,0,0-1.363,1.18,4.458,4.458,0,0,0-.438,2.105c.061,1.518.85,2.934,1.943,3.24a1.407,1.407,0,0,0,1.2-.209c.232-.188.27-.357.244-.37" transform="translate(-86.122 -73.902)" fill="#eb996e"/>
        <path id="Trazado_235786" data-name="Trazado 235786" d="M210.251,87.549c1.209-.694-2.52-4.583-5.541-5.892-4.566-1.979-11.507-3.128-15.665-1.872-5.006,1.512-9.142,4.085-11.59,8.707a29.65,29.65,0,0,0-3.071,15.2,9,9,0,0,0,1.14,4.588c1.081,1.649,3.12,2.664,3.07,4.965a3.156,3.156,0,0,0,.822,2.288c1.4,1.444,3.068.037,3.82-1.359,1.607-2.981,1.732-6.509,1.82-9.894a22.043,22.043,0,0,0-.6-7.161c-.39-1.251-1-2.428-1.323-3.7a4.531,4.531,0,0,1,.47-3.773,4.705,4.705,0,0,1,.6-.63,7.862,7.862,0,0,1,7.774-1.617c4.27,1.43,11.558,3.55,13.427,2.077a11.615,11.615,0,0,0,3.317-3.481Z" transform="translate(-87.92 -39.97)" fill="#263238"/>
        <path id="Trazado_235787" data-name="Trazado 235787" d="M194.08,77.183a16.564,16.564,0,0,1,12.747.482,8.619,8.619,0,0,1,4.629,4.929c.666,2.221-.24,4.984-2.373,5.9l-.146.1c-3.2,1.137-5.3.742-8.521-.314-2.714-.888-5.142-2.513-7.86-3.388a15.321,15.321,0,0,0-8.971-.109,25.012,25.012,0,0,1,10.5-7.591" transform="translate(-92.579 -38.398)" fill="#263238"/>
        <path id="Trazado_235788" data-name="Trazado 235788" d="M167.641,113.808a3.218,3.218,0,0,1-.375-.438,6.053,6.053,0,0,1-.8-1.449,6.415,6.415,0,0,1-.436-2.581,6.327,6.327,0,0,1,1.1-3.28,6.523,6.523,0,0,1,1.388-1.484,7.155,7.155,0,0,1,1.935-1.048c1.408-.545,3.043-.829,4.381-1.84a3.667,3.667,0,0,0,1.393-2.042,8.486,8.486,0,0,0,.147-2.658,15,15,0,0,1,.411-5.7,8.721,8.721,0,0,1,3.51-4.47,13.1,13.1,0,0,1,4.92-2.044,12.456,12.456,0,0,1,4.823.007A10.454,10.454,0,0,1,193.9,86.42a10.215,10.215,0,0,1,3.765,4.7,8.508,8.508,0,0,1,.45,1.592l.059.426a.621.621,0,0,1,.011.146,11.571,11.571,0,0,0-.613-2.127,10.413,10.413,0,0,0-7.581-6.162,12.312,12.312,0,0,0-4.735.016,12.919,12.919,0,0,0-4.822,2.019,8.487,8.487,0,0,0-3.408,4.342,14.828,14.828,0,0,0-.4,5.607,8.7,8.7,0,0,1-.162,2.736,3.909,3.909,0,0,1-1.487,2.167c-1.408,1.049-3.066,1.321-4.45,1.851a6.459,6.459,0,0,0-3.248,2.435,6.212,6.212,0,0,0-1.1,3.183,6.417,6.417,0,0,0,.386,2.539,7.446,7.446,0,0,0,1.08,1.922" transform="translate(-83.725 -42.633)" fill="#455a64"/>
        <path id="Trazado_235789" data-name="Trazado 235789" d="M163.537,112.519a4.154,4.154,0,0,1-.579-.335,7.653,7.653,0,0,1-1.452-1.258,8.031,8.031,0,0,1-1.557-2.608,7.662,7.662,0,0,1-.31-4,7.845,7.845,0,0,1,2.289-4.273,42.446,42.446,0,0,1,4.514-3.3,9.28,9.28,0,0,0,2.116-2.084,10.232,10.232,0,0,0,1.345-2.795c.672-2.015.977-4.247,1.935-6.345a11.986,11.986,0,0,1,4.366-4.967,12.265,12.265,0,0,1,5.853-1.948,13.383,13.383,0,0,1,5.533.815,13.673,13.673,0,0,1,4.195,2.488,14.765,14.765,0,0,1,4.012,5.754,11.317,11.317,0,0,1,.705,2.488.832.832,0,0,1-.052-.163l-.127-.481a16.71,16.71,0,0,0-.62-1.806,14.923,14.923,0,0,0-4.039-5.653,13.562,13.562,0,0,0-4.149-2.425,13.211,13.211,0,0,0-5.443-.779,12.059,12.059,0,0,0-5.731,1.922,11.759,11.759,0,0,0-4.27,4.862c-.939,2.049-1.247,4.274-1.93,6.316a10.432,10.432,0,0,1-1.384,2.858,9.5,9.5,0,0,1-2.174,2.133,43.189,43.189,0,0,0-4.507,3.265,7.675,7.675,0,0,0-2.258,4.153,7.553,7.553,0,0,0,.266,3.918,8.067,8.067,0,0,0,1.5,2.59,8.2,8.2,0,0,0,1.406,1.281c.354.255.558.365.55.378" transform="translate(-80.436 -39.625)" fill="#455a64"/>
        <path id="Trazado_235790" data-name="Trazado 235790" d="M224.14,336.127s-20.476-4.766-23.6-5c-2.935-.219-3.7,1.62-3.7,1.62s-4.389-.551-5.358,2.012a1.6,1.6,0,0,0,1.027,2.254c1.8.762,11.565,2.908,13.573,4.778s18.835,11.426,18.835,11.426l6.786,2.77s3.047-7.963,3.185-10.248a6.067,6.067,0,0,0-.693-3.531s4.224-4.293,4.709-6.024a82.5,82.5,0,0,1,3.531-7.686,3.645,3.645,0,0,0-5.688.515,41.758,41.758,0,0,1-5.183,5.579,10.087,10.087,0,0,1-7.419,1.536" transform="translate(-96.476 -165.073)" fill="#ffbe9d"/>
        <path id="Trazado_235791" data-name="Trazado 235791" d="M222.942,347.6a.789.789,0,0,1-.218-.085l-.6-.287-2.2-1.058c-1.87-.874-4.481-2.025-7.438-3.108-1.478-.543-2.9-1.021-4.2-1.429s-2.5-.705-3.459-1.126a4.593,4.593,0,0,1-1.985-1.442,2.555,2.555,0,0,1-.319-.593.782.782,0,0,1-.064-.225,6.322,6.322,0,0,0,.463.757,4.7,4.7,0,0,0,1.975,1.335c.946.39,2.151.659,3.458,1.067s2.739.869,4.222,1.414A76.018,76.018,0,0,1,220,346.007c.926.462,1.666.853,2.172,1.133l.578.33a.808.808,0,0,1,.193.131" transform="translate(-102.093 -170.574)" fill="#eb996e"/>
        <path id="Trazado_235792" data-name="Trazado 235792" d="M266.411,343.284a5.932,5.932,0,0,1-4.145,2.195c-.016-.078,1.034-.285,2.178-.9s1.912-1.353,1.967-1.3" transform="translate(-132.257 -173.112)" fill="#eb996e"/>
      </g>
    </g>
    <g id="Grupo_181967" data-name="Grupo 181967">
      <g id="Grupo_181966" data-name="Grupo 181966" clip-path="url(#clip-path)">
        <path id="Trazado_235793" data-name="Trazado 235793" d="M215.323,440.594c0,.071-44.167.129-98.638.129-54.489,0-98.648-.057-98.648-.129s44.158-.129,98.648-.129c54.471,0,98.638.057,98.638.129" transform="translate(-9.096 -222.12)" fill="#263238"/>
      </g>
    </g>
    <path id="Trazado_235794" data-name="Trazado 235794" d="M.26,113.547v26.847H58.939l4,4v-4h2.568V113.547Z" transform="translate(-0.131 -57.26)" fill="#fff"/>
    <g id="Grupo_181975" data-name="Grupo 181975">
      <g id="Grupo_181974" data-name="Grupo 181974" clip-path="url(#clip-path)">
        <path id="Trazado_235795" data-name="Trazado 235795" d="M65.375,113.422s.006.152.009.458,0,.769.009,1.365c0,1.213.012,2.993.022,5.294.011,4.63.028,11.349.049,19.73v.089h-.09l-2.567,0,.093-.093c0,1.234,0,2.6,0,4v.236l-.168-.167-4-3.995.074.03L2.962,140.4H0v-.129c0-9.42,0-18.477.006-26.847V113.3H.129l46.907.058,13.512.034,3.6.015.923.007c.206,0,.308.007.308.007s-.112,0-.323.007l-.937.007-3.621.015-13.54.034-46.825.058.122-.122c0,8.37,0,17.427.006,26.847l-.129-.129H2.962l55.846.025h.043l.03.03,3.995,4-.167.069c0-1.4,0-2.765,0-4v-.093h.093l2.567,0-.089.09c.02-8.358.037-15.058.048-19.676.01-2.309.017-4.1.022-5.314q.007-.9.009-1.381c0-.312.009-.476.009-.476" transform="translate(0 -57.136)" fill="#263238"/>
        <path id="Trazado_235796" data-name="Trazado 235796" d="M86.263,131.288H56.349a1.065,1.065,0,0,1-1.065-1.065v-.115a1.065,1.065,0,0,1,1.065-1.065H86.263a1.065,1.065,0,0,1,1.065,1.065v.115a1.065,1.065,0,0,1-1.065,1.065" transform="translate(-27.879 -65.075)" fill="#e0e0e0"/>
        <path id="Trazado_235797" data-name="Trazado 235797" d="M86.263,141.386H56.349a1.065,1.065,0,0,1-1.065-1.065v-.115a1.065,1.065,0,0,1,1.065-1.065H86.263a1.065,1.065,0,0,1,1.065,1.065v.115a1.065,1.065,0,0,1-1.065,1.065" transform="translate(-27.879 -70.167)" fill="#e0e0e0"/>
        <path id="Trazado_235798" data-name="Trazado 235798" d="M86.263,151.484H56.349a1.065,1.065,0,0,1-1.065-1.065V150.3a1.065,1.065,0,0,1,1.065-1.065H86.263a1.065,1.065,0,0,1,1.065,1.065v.115a1.065,1.065,0,0,1-1.065,1.065" transform="translate(-27.879 -75.26)" fill="#e0e0e0"/>
        <path id="Trazado_235799" data-name="Trazado 235799" d="M25.437,141.262H13.365a2.217,2.217,0,0,1-2.217-2.217V126.973a2.217,2.217,0,0,1,2.217-2.218H25.437a2.218,2.218,0,0,1,2.217,2.218v12.072a2.218,2.218,0,0,1-2.217,2.217" transform="translate(-5.622 -62.912)" fill="#455a64"/>
        <path id="Trazado_235800" data-name="Trazado 235800" d="M14.051,144.514l-.379-.319,3.338-3.966a1.212,1.212,0,0,1,1.662-.292l1.967,1.311,2.316-2.927a1.223,1.223,0,0,1,1.857-.071l2.856,3.088-.364.337-2.856-3.088a.716.716,0,0,0-.562-.233.726.726,0,0,0-.542.275l-2.6,3.286L18.4,140.35a.724.724,0,0,0-1,.183Z" transform="translate(-6.895 -69.519)" fill="#fff"/>
        <path id="Trazado_235801" data-name="Trazado 235801" d="M24.794,131.9a1.476,1.476,0,1,1-1.476-1.476,1.476,1.476,0,0,1,1.476,1.476" transform="translate(-11.015 -65.771)" fill="#fff"/>
        <path id="Trazado_235802" data-name="Trazado 235802" d="M308.541,211.712H249.227v25.271h6.119l.646,5.567,4.569-5.567h47.981Z" transform="translate(-125.681 -106.763)" fill="#fff"/>
        <path id="Trazado_235803" data-name="Trazado 235803" d="M308.41,211.588s.006.143.009.431.005.725.009,1.286c.005,1.144.013,2.822.022,4.988.011,4.363.028,10.688.049,18.565v.09h-.09l-47.981.037.1-.047-4.568,5.568-.192.234-.035-.3-.647-5.567.128.114h-6.248v-.129c0-8.875,0-17.4.007-25.271v-.122h.122l42.677.059,12.264.033,3.259.015.836.007c.187,0,.279.007.279.007s-.1,0-.293.007l-.85.007-3.284.015-12.292.033-42.595.058.121-.122c0,7.875,0,16.4.007,25.271l-.129-.129h6.234l.013.115c.222,1.909.442,3.8.646,5.567l-.227-.067,4.569-5.566.038-.047h.06l47.981.037-.09.09c.02-7.855.037-14.161.049-18.51.009-2.175.017-3.86.022-5.008q.006-.853.009-1.3c0-.294.009-.449.009-.449" transform="translate(-125.55 -106.639)" fill="#263238"/>
        <path id="Trazado_235804" data-name="Trazado 235804" d="M329.456,225.379H305.9a1.189,1.189,0,1,1,0-2.379h23.555a1.189,1.189,0,1,1,0,2.379" transform="translate(-153.661 -112.456)" fill="#e0e0e0"/>
        <path id="Trazado_235805" data-name="Trazado 235805" d="M329.456,236.084H305.9a1.189,1.189,0,1,1,0-2.379h23.555a1.189,1.189,0,1,1,0,2.379" transform="translate(-153.661 -117.854)" fill="#e0e0e0"/>
        <path id="Trazado_235806" data-name="Trazado 235806" d="M329.456,246.788H305.9a1.189,1.189,0,1,1,0-2.379h23.555a1.189,1.189,0,1,1,0,2.379" transform="translate(-153.661 -123.252)" fill="#e0e0e0"/>
        <path id="Trazado_235807" data-name="Trazado 235807" d="M273.2,235.953H260.14a2.218,2.218,0,0,1-2.217-2.217V220.671a2.217,2.217,0,0,1,2.217-2.217H273.2a2.217,2.217,0,0,1,2.217,2.217v13.064a2.218,2.218,0,0,1-2.217,2.217" transform="translate(-130.067 -110.163)" fill="#ebebeb"/>
        <path id="Trazado_235808" data-name="Trazado 235808" d="M261,239.4l-.38-.32,3.538-4.2a1.272,1.272,0,0,1,1.743-.306l2.1,1.4,2.464-3.114a1.283,1.283,0,0,1,.957-.485,1.3,1.3,0,0,1,.99.41l3.027,3.274-.364.337-3.028-3.274a.777.777,0,0,0-.607-.252.787.787,0,0,0-.586.3l-2.747,3.472-2.477-1.651a.783.783,0,0,0-1.076.2Z" transform="translate(-131.427 -117.182)" fill="#fff"/>
        <path id="Trazado_235809" data-name="Trazado 235809" d="M272.39,226.027a1.564,1.564,0,1,1-1.564-1.564,1.565,1.565,0,0,1,1.564,1.564" transform="translate(-135.785 -113.193)" fill="#fff"/>
        <path id="Trazado_235810" data-name="Trazado 235810" d="M71.52,200.824H24.3a3.109,3.109,0,0,0-3.109,3.109v27.473a2.726,2.726,0,0,0,2.726,2.726H62.4l6.051,6.051v-6.051h2.243a3.289,3.289,0,0,0,3.289-3.289V203.287a2.463,2.463,0,0,0-2.463-2.463" transform="translate(-10.686 -101.273)" fill="#fff"/>
        <path id="Trazado_235811" data-name="Trazado 235811" d="M73.706,207.3H21.469a.277.277,0,0,1-.278-.278v-2.886a3.309,3.309,0,0,1,3.308-3.309H71.578a2.4,2.4,0,0,1,2.405,2.405v3.789a.278.278,0,0,1-.278.278" transform="translate(-10.686 -101.272)" fill="#e0e0e0"/>
        <path id="Trazado_235812" data-name="Trazado 235812" d="M45.649,240.386H34.28a2.217,2.217,0,0,1-2.217-2.217V226.8a2.218,2.218,0,0,1,2.217-2.218H45.649a2.218,2.218,0,0,1,2.217,2.218v11.368a2.217,2.217,0,0,1-2.217,2.217" transform="translate(-16.169 -113.254)" fill="#f4a338"/>
        <g id="Grupo_181970" data-name="Grupo 181970" transform="translate(17.273 117.671)" opacity="0.3">
          <g id="Grupo_181969" data-name="Grupo 181969">
            <g id="Grupo_181968" data-name="Grupo 181968" clip-path="url(#clip-path-9)">
              <path id="Trazado_235813" data-name="Trazado 235813" d="M47.888,240.746a3.875,3.875,0,0,1-.525-.494L46,238.839l-.931-.983a.825.825,0,0,0-1.213.032l-2.2,2.794-.171.216-.074.093-.1-.066L39.6,239.783l-.4-.265a.81.81,0,0,0-.391-.112.824.824,0,0,0-.681.337l0,0,0,0-2.348,2.717-.676.754a1.375,1.375,0,0,1-.259.252,1.384,1.384,0,0,1,.2-.3l.628-.8,2.276-2.776-.005.007a1.05,1.05,0,0,1,1.382-.305c.15.092.273.178.414.27l1.712,1.137-.173.027.171-.216,2.225-2.791a1.044,1.044,0,0,1,1.547-.022l.91,1.006,1.3,1.468a3.871,3.871,0,0,1,.452.562" transform="translate(-34.845 -237.377)"/>
            </g>
          </g>
        </g>
        <g id="Grupo_181973" data-name="Grupo 181973" transform="translate(20.97 114.019)" opacity="0.3">
          <g id="Grupo_181972" data-name="Grupo 181972">
            <g id="Grupo_181971" data-name="Grupo 181971" clip-path="url(#clip-path-10)">
              <path id="Trazado_235814" data-name="Trazado 235814" d="M45.129,231.423a1.413,1.413,0,1,1-1.413-1.413,1.413,1.413,0,0,1,1.413,1.413" transform="translate(-42.303 -230.01)"/>
            </g>
          </g>
        </g>
        <path id="Trazado_235815" data-name="Trazado 235815" d="M71.389,200.707a2.04,2.04,0,0,1,.7.085,2.478,2.478,0,0,1,1.544,1.288,2.934,2.934,0,0,1,.261,1.481q0,.831.007,1.811c0,1.308.009,2.812.014,4.5.007,3.377.016,7.483.025,12.21,0,2.365.007,4.884.011,7.545a5.714,5.714,0,0,1-.2,2.032,3.637,3.637,0,0,1-1.23,1.7,3.6,3.6,0,0,1-2.018.748c-.727.021-1.444.007-2.179.012l.107-.107c0,1.892,0,3.944.005,6.051v.272l-.192-.192L62.185,234.1l.084.035-34.5.01h-3.4a5.933,5.933,0,0,1-1.147-.056,2.856,2.856,0,0,1-2.261-2.393,9.633,9.633,0,0,1-.032-1.126q0-4.429,0-8.722c0-5.719.005-11.234.007-16.489q0-.492,0-.982a7.954,7.954,0,0,1,.032-.99,3.2,3.2,0,0,1,.85-1.78,3.247,3.247,0,0,1,1.7-.949,4.79,4.79,0,0,1,.963-.063h.937l7.242.006,13,.016,18.822.041,5.118.024,1.33.013c.3,0,.454.013.454.013s-.154.009-.454.013l-1.33.013-5.118.024-18.822.041-13,.016-7.242.006a13.179,13.179,0,0,0-1.854.061,3.01,3.01,0,0,0-1.576.883,2.96,2.96,0,0,0-.786,1.651,7.7,7.7,0,0,0-.029.959q0,.489,0,.982c0,5.255,0,10.77.007,16.489q0,4.289,0,8.722a9.588,9.588,0,0,0,.03,1.09,2.6,2.6,0,0,0,2.056,2.177,5.794,5.794,0,0,0,1.1.051h3.4l34.5.01h.049l.035.035,6.047,6.056-.192.079c0-2.107,0-4.16.006-6.051v-.107h.107c.73,0,1.463.011,2.167-.007a3.39,3.39,0,0,0,1.9-.7,3.437,3.437,0,0,0,1.165-1.607,5.536,5.536,0,0,0,.2-1.966c0-2.661.007-5.18.011-7.545.01-4.727.018-8.833.025-12.21,0-1.686.01-3.19.014-4.5q0-.98.007-1.811a2.873,2.873,0,0,0-.239-1.453,2.462,2.462,0,0,0-1.5-1.285,3.54,3.54,0,0,0-.688-.116" transform="translate(-10.555 -101.156)" fill="#263238"/>
        <path id="Trazado_235816" data-name="Trazado 235816" d="M28.114,205.994A1.112,1.112,0,1,1,27,204.882a1.112,1.112,0,0,1,1.112,1.112" transform="translate(-13.056 -103.319)" fill="#fff"/>
        <path id="Trazado_235817" data-name="Trazado 235817" d="M34.861,205.994a1.112,1.112,0,1,1-1.112-1.112,1.112,1.112,0,0,1,1.112,1.112" transform="translate(-16.458 -103.319)" fill="#fff"/>
        <path id="Trazado_235818" data-name="Trazado 235818" d="M41.607,205.994a1.112,1.112,0,1,1-1.112-1.112,1.112,1.112,0,0,1,1.112,1.112" transform="translate(-19.86 -103.319)" fill="#fff"/>
        <path id="Trazado_235819" data-name="Trazado 235819" d="M93.836,230.685c0,.071-4.315.129-9.637.129s-9.638-.058-9.638-.129,4.314-.129,9.638-.129,9.637.057,9.637.129" transform="translate(-37.6 -116.266)" fill="#263238"/>
        <path id="Trazado_235820" data-name="Trazado 235820" d="M93.836,238.054c0,.071-4.315.129-9.637.129s-9.638-.058-9.638-.129,4.314-.129,9.638-.129,9.637.058,9.637.129" transform="translate(-37.6 -119.982)" fill="#263238"/>
        <path id="Trazado_235821" data-name="Trazado 235821" d="M93.836,245.423c0,.071-4.315.129-9.637.129s-9.638-.058-9.638-.129,4.314-.129,9.638-.129,9.637.058,9.637.129" transform="translate(-37.6 -123.698)" fill="#263238"/>
        <path id="Trazado_235822" data-name="Trazado 235822" d="M289.675,137.737H340.26V163.3h-41.7l-4.644,4.644V163.3h-4.245Z" transform="translate(-146.079 -69.459)" fill="#fff"/>
        <path id="Trazado_235823" data-name="Trazado 235823" d="M289.578,137.614s.006.159.01.459.006.749.01,1.327c.005,1.169.013,2.881.023,5.086.012,4.411.029,10.789.051,18.688l-.095-.094,4.245-.006h.1v.1c0,1.445,0,3.022.005,4.644l-.181-.075,4.639-4.649.033-.033h.047l38.41-.016h3.287l-.129.129c0-9.016.006-17.634.009-25.56l.12.12-36.371-.059-10.454-.033-2.789-.015-.722-.007c-.163,0-.249-.007-.249-.007s.077,0,.235-.007l.708-.007,2.765-.015,10.426-.033,36.45-.058h.121v.12c0,7.926,0,16.544.008,25.56v.129h-3.416l-38.41-.016.08-.033-4.649,4.639-.181.181v-.256c0-1.621,0-3.2.005-4.644l.1.1-4.245-.006h-.095v-.095c.021-7.924.039-14.321.051-18.746.01-2.2.018-3.9.023-5.065q.007-.856.01-1.31c0-.294.01-.439.01-.439" transform="translate(-145.982 -69.336)" fill="#263238"/>
        <path id="Trazado_235824" data-name="Trazado 235824" d="M340.177,153.333c0,.071-7.562.129-16.887.129s-16.888-.057-16.888-.129,7.56-.129,16.888-.129,16.887.057,16.887.129" transform="translate(-154.514 -77.259)" fill="#263238"/>
        <path id="Trazado_235825" data-name="Trazado 235825" d="M340.177,160.7c0,.071-7.562.129-16.887.129s-16.888-.057-16.888-.129,7.56-.129,16.888-.129,16.887.058,16.887.129" transform="translate(-154.514 -80.975)" fill="#263238"/>
        <path id="Trazado_235826" data-name="Trazado 235826" d="M340.177,168.071c0,.071-7.562.129-16.887.129s-16.888-.058-16.888-.129,7.56-.129,16.888-.129,16.887.058,16.887.129" transform="translate(-154.514 -84.691)" fill="#263238"/>
        <path id="Trazado_235827" data-name="Trazado 235827" d="M100.161,40.524H64.3v25.56H91.272l4.644,4.644V66.084h4.245Z" transform="translate(-32.427 -20.436)" fill="#fff"/>
        <path id="Trazado_235828" data-name="Trazado 235828" d="M100.03,40.407s.007.148.01.447.006.752.012,1.33c.006,1.182.015,2.906.026,5.114.013,4.454.031,10.853.054,18.668v.1h-.1l-4.245.006.108-.109c0,1.453,0,3.028.005,4.644v.276l-.2-.195-4.648-4.639.085.035L67.46,66.1H64.044v-.129c0-9.206.009-17.889.014-25.56v-.116h.115l25.962.058,7.315.03,1.926.014.492.007c.109,0,.162.006.162.006s-.062,0-.175.006l-.5.007-1.949.014-7.342.03-25.888.058.116-.116c0,7.671.009,16.354.013,25.56l-.129-.129H67.46l23.682.009h.05l.035.035,4.639,4.648-.195.08c0-1.616,0-3.191.005-4.644v-.109h.109l4.245.006-.1.1c.022-7.789.041-14.166.054-18.6.011-2.218.02-3.95.026-5.138.005-.586.008-1.036.012-1.349s.011-.468.011-.468" transform="translate(-32.296 -20.318)" fill="#263238"/>
        <path id="Trazado_235829" data-name="Trazado 235829" d="M81.03,56.121c0-.071,4.315-.129,9.637-.129s9.638.058,9.638.129-4.314.129-9.638.129-9.637-.058-9.637-.129" transform="translate(-40.862 -28.236)" fill="#263238"/>
        <path id="Trazado_235830" data-name="Trazado 235830" d="M81.03,63.489c0-.071,4.315-.129,9.637-.129s9.638.058,9.638.129-4.314.129-9.638.129-9.637-.057-9.637-.129" transform="translate(-40.862 -31.952)" fill="#263238"/>
        <path id="Trazado_235831" data-name="Trazado 235831" d="M81.03,70.858c0-.071,4.315-.129,9.637-.129s9.638.058,9.638.129-4.314.129-9.638.129-9.637-.058-9.637-.129" transform="translate(-40.862 -35.668)" fill="#263238"/>
        <path id="Trazado_235832" data-name="Trazado 235832" d="M193.2.435h-24.77v24.77H170.8V28.9l3.69-3.69H193.2Z" transform="translate(-84.935 -0.219)" fill="#fff"/>
        <path id="Trazado_235833" data-name="Trazado 235833" d="M193.066.323s.008.146.012.441.007.744.012,1.309c.006,1.164.016,2.855.029,5.005.013,4.346.033,10.548.056,18.015v.11h-.11l-18.711.018.09-.037-3.689,3.691-.22.22v-.311c0-1.1,0-2.266,0-3.447v-.243l.129.129h-2.5v-.129c.007-9.1.013-17.564.019-24.77V.213h.11L186.3.27,191.314.3l1.311.012c.295,0,.441.012.441.012s-.162.008-.465.012l-1.332.012-5.034.029L168.3.433l.11-.11c.006,7.206.012,15.674.019,24.77l-.129-.129h2.5v3.819l-.22-.091L174.265,25l.037-.038h.053l18.711.018-.11.11c.023-7.438.043-13.616.056-17.945.012-2.161.022-3.86.029-5.031.005-.575.009-1.019.012-1.33s.012-.464.012-.464" transform="translate(-84.804 -0.107)" fill="#263238"/>
        <path id="Trazado_235834" data-name="Trazado 235834" d="M188.23,18.068a3.745,3.745,0,0,0,2.232-3.465,3.52,3.52,0,1,0-7.026-.033,3.74,3.74,0,0,0,2.239,3.5c-5.406.814-5.161,6.69-5.161,6.69l12.783.058s.291-5.939-5.067-6.749" transform="translate(-91.029 -5.466)" fill="#455a64"/>
        <path id="Trazado_235835" data-name="Trazado 235835" d="M326.092,66.97h24.77V91.74h-2.369v3.69l-3.69-3.69H326.092Z" transform="translate(-164.443 -33.772)" fill="#fff"/>
        <path id="Trazado_235836" data-name="Trazado 235836" d="M325.98,66.858s.008.162.012.464.007.755.012,1.33c.007,1.17.016,2.869.029,5.031.013,4.329.033,10.507.056,17.945l-.11-.11,18.711-.018h.053l.037.038,3.691,3.689-.22.091c0-1.1,0-2.266,0-3.447V91.5h2.5l-.129.129c.007-9.1.013-17.564.019-24.77l.11.11-17.939-.056-5.034-.029-1.332-.012c-.3,0-.465-.012-.465-.012s.146-.008.441-.012l1.311-.012,5.009-.029,18.009-.056h.11v.11c.005,7.206.012,15.674.019,24.77v.129h-2.5l.129-.129v.243c0,1.181,0,2.352,0,3.447v.311l-.22-.22L344.6,91.718l.09.037-18.711-.018h-.11v-.11c.023-7.467.043-13.668.056-18.015.012-2.15.022-3.841.029-5.005.005-.566.009-1,.012-1.309s.012-.441.012-.441" transform="translate(-164.331 -33.66)" fill="#263238"/>
        <path id="Trazado_235837" data-name="Trazado 235837" d="M350.972,82.806a6.024,6.024,0,1,0-11.217,3.043h0l.017.023c.231.39.521.668.813,1.077l3.5,4.633a1.088,1.088,0,0,0,1.736,0l3.44-4.557a12.98,12.98,0,0,0,.875-1.159l.012-.017h0a5.984,5.984,0,0,0,.832-3.043m-6.024,2.623a2.651,2.651,0,1,1,2.651-2.651,2.651,2.651,0,0,1-2.651,2.651" transform="translate(-170.914 -38.72)" fill="#5573c6"/>
        <path id="Trazado_235838" data-name="Trazado 235838" d="M192.283,238.5H166.507a2.345,2.345,0,0,0-2.345,2.345v23.771a2.345,2.345,0,0,0,2.345,2.345h21.159l4.24,4.239v-4.239h.377a2.345,2.345,0,0,0,2.345-2.345V240.849a2.345,2.345,0,0,0-2.345-2.345" transform="translate(-82.785 -120.274)" fill="#fff"/>
        <path id="Trazado_235839" data-name="Trazado 235839" d="M192.152,238.4a1.836,1.836,0,0,1,.578.057,2.349,2.349,0,0,1,1.383.941,2.379,2.379,0,0,1,.418,1.172c.02.461.01.953.017,1.491,0,1.074.009,2.307.015,3.686.007,2.763.016,6.112.027,9.948,0,1.919.007,3.961.011,6.111q0,.807,0,1.634,0,.413,0,.831a3.088,3.088,0,0,1-.08.863,2.464,2.464,0,0,1-1.015,1.428,2.4,2.4,0,0,1-.835.354,4.146,4.146,0,0,1-.9.058l.114-.114c0,1.326,0,2.767,0,4.239v.285l-.2-.2-4.243-4.236.087.036-18.159.006-3.088,0a2.462,2.462,0,0,1-2.314-1.888,3,3,0,0,1-.071-.779v-.751q0-.749,0-1.494,0-1.488,0-2.95c0-3.9,0-7.663.007-11.247q0-2.688.005-5.237,0-.636,0-1.264v-.625a2.563,2.563,0,0,1,.087-.641,2.449,2.449,0,0,1,1.712-1.724,4.335,4.335,0,0,1,1.206-.09h1.164l2.263,0,4.254.008,12.839.041,3.49.024.908.013c.2,0,.309.013.309.013s-.1.009-.309.013l-.908.013-3.49.024-12.839.041-4.254.008-2.263,0-1.164,0a4.157,4.157,0,0,0-1.148.086,2.231,2.231,0,0,0-1.556,1.574,4.612,4.612,0,0,0-.077,1.209q0,.628,0,1.264,0,2.547.005,5.237c0,3.584,0,7.346.007,11.247q0,1.463,0,2.95,0,.744,0,1.494a7.683,7.683,0,0,0,.064,1.469,2.2,2.2,0,0,0,2.074,1.691l3.079,0,18.159.006h.051l.036.036,4.236,4.243-.2.083c0-1.473,0-2.914,0-4.239v-.113h.114a3.947,3.947,0,0,0,.852-.051,2.188,2.188,0,0,0,.759-.32,2.243,2.243,0,0,0,.927-1.3,2.842,2.842,0,0,0,.076-.807q0-.418,0-.831,0-.827,0-1.634c0-2.15.007-4.192.011-6.111.01-3.836.019-7.185.027-9.948.005-1.379.01-2.611.015-3.686,0-.535.014-1.037,0-1.485a2.309,2.309,0,0,0-.389-1.138,2.344,2.344,0,0,0-1.334-.947,4.157,4.157,0,0,0-.57-.091" transform="translate(-82.653 -120.166)" fill="#263238"/>
        <path id="Trazado_235840" data-name="Trazado 235840" d="M191.307,267.47H178.17a3.8,3.8,0,0,1-3.8-3.8v-9.853a3.8,3.8,0,0,1,3.8-3.8h13.137a3.8,3.8,0,0,1,3.8,3.8v9.853a3.8,3.8,0,0,1-3.8,3.8" transform="translate(-87.93 -126.076)" fill="#455a64"/>
        <path id="Trazado_235841" data-name="Trazado 235841" d="M191.3,267.442a.809.809,0,0,1-1.214-.7v-6.276a.809.809,0,0,1,1.214-.7l2.718,1.568,2.717,1.569a.809.809,0,0,1,0,1.4l-2.717,1.569Z" transform="translate(-95.86 -130.941)" fill="#fff"/>
      </g>
    </g>
    <g id="Grupo_181977" data-name="Grupo 181977">
      <g id="Grupo_181976" data-name="Grupo 181976" clip-path="url(#clip-path)">
        <path id="Trazado_235842" data-name="Trazado 235842" d="M285.5,17.873A17.659,17.659,0,1,1,267.841.214,17.659,17.659,0,0,1,285.5,17.873" transform="translate(-126.164 -0.108)" fill="#fff"/>
        <path id="Trazado_235843" data-name="Trazado 235843" d="M285.369,17.765s-.014-.1-.028-.286-.031-.476-.055-.838q-.017-.277-.037-.617c-.024-.226-.073-.471-.113-.737a12.952,12.952,0,0,0-.368-1.821,16.862,16.862,0,0,0-1.957-4.682A17.643,17.643,0,0,0,270.95.525,16.332,16.332,0,0,0,268.73.268c-.378-.013-.759-.05-1.144-.044l-1.161.06c-.195.014-.392.012-.586.038l-.585.09c-.39.065-.787.111-1.18.192a18.6,18.6,0,0,0-2.339.687A18.266,18.266,0,0,0,259.449,2.3c-.37.2-.725.435-1.092.652a8.956,8.956,0,0,0-1.058.729A19.693,19.693,0,0,0,255.31,5.37,19.853,19.853,0,0,0,253.592,7.4a16.989,16.989,0,0,0-2.506,4.83,18.727,18.727,0,0,0-.9,5.531,18.742,18.742,0,0,0,.9,5.533l.475,1.3.6,1.237a4.367,4.367,0,0,0,.327.6l.352.58.353.578.4.539a19.794,19.794,0,0,0,1.718,2.033,19.754,19.754,0,0,0,1.989,1.691,9,9,0,0,0,1.058.729c.367.218.722.452,1.092.653a19.2,19.2,0,0,0,4.627,1.692c.393.081.79.127,1.18.192l.585.09c.195.026.392.024.586.038l1.161.06c.384.006.765-.031,1.144-.044a16.333,16.333,0,0,0,2.219-.256,17.646,17.646,0,0,0,11.861-8.261,16.84,16.84,0,0,0,1.957-4.681,12.878,12.878,0,0,0,.368-1.821c.04-.266.088-.511.113-.737s.026-.432.037-.617c.024-.361.042-.639.055-.838s.028-.286.028-.286,0,.1,0,.286-.016.478-.029.841c-.008.186-.016.393-.025.62s-.064.473-.1.742a12.587,12.587,0,0,1-.347,1.835,16.752,16.752,0,0,1-1.93,4.731,17.752,17.752,0,0,1-11.946,8.4,16.474,16.474,0,0,1-2.246.266c-.383.014-.769.053-1.158.048l-1.176-.058c-.2-.013-.4-.011-.594-.037l-.593-.09c-.4-.064-.8-.11-1.2-.192a18.775,18.775,0,0,1-2.372-.691,18.557,18.557,0,0,1-2.321-1.016c-.376-.2-.736-.44-1.108-.66a9.134,9.134,0,0,1-1.074-.738,19.931,19.931,0,0,1-2.019-1.712,20.013,20.013,0,0,1-1.745-2.06l-.409-.547-.359-.585-.358-.589a4.414,4.414,0,0,1-.332-.607l-.6-1.255-.483-1.318a18.957,18.957,0,0,1-.918-5.613,18.962,18.962,0,0,1,.919-5.612,17.192,17.192,0,0,1,2.546-4.9,20.016,20.016,0,0,1,1.745-2.06,20,20,0,0,1,2.019-1.712,9.11,9.11,0,0,1,1.074-.738c.372-.22.732-.457,1.108-.659a18.4,18.4,0,0,1,2.32-1.015,18.712,18.712,0,0,1,2.372-.691c.4-.082.8-.127,1.2-.192l.593-.09c.2-.026.4-.024.594-.037L267.585,0c.389,0,.775.033,1.158.048a16.4,16.4,0,0,1,2.246.266,17.75,17.75,0,0,1,11.946,8.4,16.736,16.736,0,0,1,1.93,4.731,12.587,12.587,0,0,1,.347,1.835c.036.268.081.515.1.742s.017.434.025.62c.013.363.022.642.029.841s0,.286,0,.286" transform="translate(-126.033 0)" fill="#263238"/>
        <path id="Trazado_235844" data-name="Trazado 235844" d="M279.3,33.168a3.023,3.023,0,0,0,1.6-.431q.33-.313.331-1.7V25.407a3.587,3.587,0,0,0-.107-1.064.714.714,0,0,0-.744-.484,1.39,1.39,0,0,0-.254.024q-.124.024-.714.189v-.366l.508-.165q2.067-.674,2.883-1.016a1.546,1.546,0,0,1,.425-.142.641.641,0,0,1,.024.177v8.483a2.774,2.774,0,0,0,.325,1.689,2.422,2.422,0,0,0,1.471.437V33.5H279.3Zm1.878-15.8a1.173,1.173,0,0,1,.874-.364,1.234,1.234,0,1,1-1.229,1.234,1.205,1.205,0,0,1,.354-.87" transform="translate(-140.846 -8.576)" fill="#263238"/>
        <path id="Trazado_235845" data-name="Trazado 235845" d="M256.175,72.405a2.777,2.777,0,1,1-2.777-2.777,2.778,2.778,0,0,1,2.777,2.777" transform="translate(-126.384 -35.112)" fill="#fff"/>
        <path id="Trazado_235846" data-name="Trazado 235846" d="M256.043,72.294c-.026,0-.019-.247-.136-.666a2.766,2.766,0,0,0-1.017-1.469,2.666,2.666,0,1,0,0,4.27,2.774,2.774,0,0,0,1.017-1.469c.116-.418.109-.667.135-.666.009,0,.014.061.017.178a2.119,2.119,0,0,1-.055.512,2.767,2.767,0,0,1-1,1.59,2.869,2.869,0,0,1-4.075-.564,2.877,2.877,0,0,1,0-3.433A2.87,2.87,0,0,1,255,70.014a2.763,2.763,0,0,1,1,1.59,2.119,2.119,0,0,1,.055.512c0,.117-.008.178-.017.178" transform="translate(-126.252 -35.001)" fill="#263238"/>
      </g>
    </g>
  </g>
</svg>
