<svg id="Grupo_182177" data-name="Grupo 182177" xmlns="http://www.w3.org/2000/svg" xmlns:xlink="http://www.w3.org/1999/xlink" width="323.502" height="218.15" viewBox="0 0 323.502 218.15">
  <defs>
    <clipPath id="clip-path">
      <rect id="Rectángulo_57471" data-name="Rectángulo 57471" width="323.502" height="218.15" fill="none"/>
    </clipPath>
    <clipPath id="clip-path-4">
      <rect id="Rectángulo_57458" data-name="Rectángulo 57458" width="58.861" height="24.739" fill="none"/>
    </clipPath>
    <clipPath id="clip-path-5">
      <rect id="Rectángulo_57459" data-name="Rectángulo 57459" width="8.999" height="12.331" fill="none"/>
    </clipPath>
    <clipPath id="clip-path-6">
      <rect id="Rectángulo_57460" data-name="Rectángulo 57460" width="16.86" height="9.504" fill="none"/>
    </clipPath>
    <clipPath id="clip-path-7">
      <rect id="Rectángulo_57461" data-name="Rectángulo 57461" width="32.709" height="21.11" fill="none"/>
    </clipPath>
    <clipPath id="clip-path-8">
      <rect id="Rectángulo_57462" data-name="Rectángulo 57462" width="12.989" height="36.059" fill="none"/>
    </clipPath>
  </defs>
  <g id="Grupo_179253" data-name="Grupo 179253" clip-path="url(#clip-path)">
    <path id="Trazado_227361" data-name="Trazado 227361" d="M400,321.933l5,3-5.076,3.011-5.076,3.011.078-6.012.079-6.011,2.747,1.65" transform="translate(-194.861 -157.397)" fill="#e0e0e0"/>
    <path id="Trazado_227362" data-name="Trazado 227362" d="M19.7,382.994v23.381H91.6V382.994Z" transform="translate(-9.72 -189.012)" fill="#f5f5f5"/>
    <path id="Trazado_227363" data-name="Trazado 227363" d="M13.74,370.088v6.537H91.172v-6.537H13.74Z" transform="translate(-6.781 -182.643)" fill="#e0e0e0"/>
    <path id="Trazado_227364" data-name="Trazado 227364" d="M88.71,400h36.2V376.624h2.514v-6.537H87.2v5.932Z" transform="translate(-43.035 -182.643)" fill="#e0e0e0"/>
    <rect id="Rectángulo_57451" data-name="Rectángulo 57451" width="14.581" height="3.52" transform="translate(20.032 197.752)" fill="#e0e0e0"/>
    <rect id="Rectángulo_57452" data-name="Rectángulo 57452" width="18.723" height="7.432" transform="translate(18.155 205.672)" fill="#fff"/>
    <path id="Trazado_227365" data-name="Trazado 227365" d="M38.695,324.935v23.381h71.9V324.935Z" transform="translate(-19.096 -160.359)" fill="#f5f5f5"/>
    <path id="Trazado_227366" data-name="Trazado 227366" d="M32.738,312.029v6.537h77.432v-6.537H32.738Z" transform="translate(-16.157 -153.99)" fill="#e0e0e0"/>
    <path id="Trazado_227367" data-name="Trazado 227367" d="M107.708,341.946h36.2V318.565h2.514v-6.537H106.2v5.932Z" transform="translate(-52.411 -153.99)" fill="#e0e0e0"/>
    <rect id="Rectángulo_57453" data-name="Rectángulo 57453" width="14.581" height="3.52" transform="translate(29.654 168.346)" fill="#e0e0e0"/>
    <rect id="Rectángulo_57454" data-name="Rectángulo 57454" width="18.723" height="7.432" transform="translate(27.778 176.266)" fill="#fff"/>
    <g id="Grupo_179233" data-name="Grupo 179233">
      <g id="Grupo_179232" data-name="Grupo 179232" clip-path="url(#clip-path)">
        <path id="Trazado_227368" data-name="Trazado 227368" d="M497.7,214.478H413.032a3.984,3.984,0,0,1-3.985-3.985V161.046a3.984,3.984,0,0,1,3.985-3.985H497.7a3.984,3.984,0,0,1,3.984,3.985v49.447a3.984,3.984,0,0,1-3.984,3.985" transform="translate(-201.869 -77.511)" fill="#e0e0e0"/>
        <path id="Trazado_227369" data-name="Trazado 227369" d="M500.682,208.407a7.057,7.057,0,1,1-7.057-7.057,7.057,7.057,0,0,1,7.057,7.057" transform="translate(-240.127 -99.369)" fill="#ebebeb"/>
        <path id="Trazado_227370" data-name="Trazado 227370" d="M497.143,215.043v-4.164a.265.265,0,0,1,.4-.231l3.722,2.1a.266.266,0,0,1,0,.463l-3.722,2.066a.265.265,0,0,1-.394-.232" transform="translate(-245.346 -103.941)" fill="#fff"/>
        <path id="Trazado_227371" data-name="Trazado 227371" d="M418.789,256.609v.149h-.7v-.118l.376-.357c.092-.088.108-.144.108-.2,0-.087-.06-.137-.176-.137a.266.266,0,0,0-.221.1l-.123-.095a.437.437,0,0,1,.36-.157c.206,0,.338.1.338.272a.38.38,0,0,1-.157.3l-.253.241Z" transform="translate(-206.315 -126.239)" fill="#fff"/>
        <path id="Trazado_227372" data-name="Trazado 227372" d="M419.69,256.364a.111.111,0,1,1,.111.112.11.11,0,0,1-.111-.112m0,.516a.111.111,0,1,1,.222,0,.111.111,0,1,1-.222,0" transform="translate(-207.122 -126.463)" fill="#fff"/>
        <path id="Trazado_227373" data-name="Trazado 227373" d="M420.631,255.825v.947h-.176v-.8h-.2v-.147Z" transform="translate(-207.401 -126.253)" fill="#fff"/>
        <path id="Trazado_227374" data-name="Trazado 227374" d="M422.2,256.557h-.168v.215h-.171v-.215h-.519v-.122l.467-.61h.188l-.44.582h.31v-.19h.165v.19h.168Z" transform="translate(-207.936 -126.253)" fill="#fff"/>
        <rect id="Rectángulo_57455" data-name="Rectángulo 57455" width="71.748" height="0.38" transform="translate(215.805 129.9)" fill="#fff"/>
        <rect id="Rectángulo_57456" data-name="Rectángulo 57456" width="22.422" height="1.013" transform="translate(215.751 129.504)" fill="#ebebeb"/>
        <path id="Trazado_227375" data-name="Trazado 227375" d="M469.544,255.783a1.092,1.092,0,1,1-1.091-1.091,1.092,1.092,0,0,1,1.091,1.091" transform="translate(-230.648 -125.693)" fill="#ebebeb"/>
        <path id="Trazado_227376" data-name="Trazado 227376" d="M570.571,256.176a.316.316,0,0,1-.346.307c-.257,0-.409-.166-.409-.471a.448.448,0,0,1,.463-.5.473.473,0,0,1,.249.061l-.064.133a.32.32,0,0,0-.18-.046c-.179,0-.291.111-.291.326h0a.325.325,0,0,1,.253-.1.3.3,0,0,1,.326.291m-.17.008c0-.1-.075-.161-.19-.161a.172.172,0,0,0-.192.162c0,.089.071.159.2.159a.164.164,0,0,0,.185-.161" transform="translate(-281.21 -126.097)" fill="#fff"/>
        <path id="Trazado_227377" data-name="Trazado 227377" d="M571.473,256.075a.111.111,0,1,1,.111.112.11.11,0,0,1-.111-.112m0,.516a.111.111,0,1,1,.111.112.111.111,0,0,1-.111-.112" transform="translate(-282.029 -126.321)" fill="#fff"/>
        <path id="Trazado_227378" data-name="Trazado 227378" d="M572.134,256c0-.311.171-.487.4-.487s.4.176.4.487-.171.487-.4.487-.4-.176-.4-.487m.614,0c0-.228-.09-.334-.219-.334s-.217.105-.217.334.089.334.217.334.219-.105.219-.334" transform="translate(-282.355 -126.097)" fill="#fff"/>
        <path id="Trazado_227379" data-name="Trazado 227379" d="M573.927,256c0-.311.171-.487.4-.487s.4.176.4.487-.171.487-.4.487-.4-.176-.4-.487m.614,0c0-.228-.09-.334-.219-.334s-.217.105-.217.334.089.334.217.334.219-.105.219-.334" transform="translate(-283.24 -126.097)" fill="#fff"/>
        <path id="Trazado_227380" data-name="Trazado 227380" d="M578.186,255.411h-.38v-.969h.967v.38h-.588Z" transform="translate(-285.154 -125.57)" fill="#fff"/>
        <path id="Trazado_227381" data-name="Trazado 227381" d="M578.774,257.895H577.8v-.967h.38v.588h.59Z" transform="translate(-285.153 -126.797)" fill="#fff"/>
        <path id="Trazado_227382" data-name="Trazado 227382" d="M581.793,257.893h-.967v-.38h.587v-.59h.38Z" transform="translate(-286.644 -126.795)" fill="#fff"/>
        <path id="Trazado_227383" data-name="Trazado 227383" d="M581.793,255.409h-.38v-.588h-.59v-.38h.969Z" transform="translate(-286.643 -125.57)" fill="#fff"/>
        <path id="Trazado_227384" data-name="Trazado 227384" d="M558.464,167.975a15.167,15.167,0,0,1,1.951-.106l.105,0v.109c.008.74.016,1.576.025,2.479l0,.32-.228-.227-.26-.26-.661-.664.178,0-1.038.913-.2.172,0-.258c.011-.767.037-1.4.059-1.833a2.973,2.973,0,0,1,.057-.646,4.992,4.992,0,0,1,.057.72c.022.438.048,1.042.059,1.759l-.192-.086,1.019-.933.09-.083.088.088.665.661.26.26-.224.093c.009-.9.018-1.739.025-2.479l.106.106a19.156,19.156,0,0,1-1.951-.106" transform="translate(-275.55 -82.844)" fill="#fff"/>
        <path id="Trazado_227385" data-name="Trazado 227385" d="M569.7,168.549a6.892,6.892,0,0,1-.472.6c-.32.4-.8.99-1.385,1.65l-.218.246,0-.33c0-.388,0-.8-.006-1.229v-.121l.04.1-.865-.842-.225-.219.313,0c.857.012,1.594.057,2.085.086a6.528,6.528,0,0,1,.735.056c-.026.011-.346.022-.852.046s-1.183.06-1.969.062l.087-.215.874.832.04.038v.177c0,.428,0,.841-.006,1.229l-.22-.084c.548-.6,1.044-1.09,1.416-1.464s.6-.61.629-.621" transform="translate(-279.605 -83.109)" fill="#fff"/>
        <path id="Trazado_227386" data-name="Trazado 227386" d="M570.846,168.675c.028.067-.386.3-.925.531s-1,.356-1.027.288.386-.3.925-.531,1-.356,1.027-.288" transform="translate(-280.755 -83.234)" fill="#fff"/>
        <path id="Trazado_227387" data-name="Trazado 227387" d="M578.2,168.057c0-.014.124-.044.35-.007a1.378,1.378,0,0,1,.822.5,1.467,1.467,0,0,1,.24,1.4,1.5,1.5,0,0,1-2.824,0,1.466,1.466,0,0,1,.239-1.4,1.379,1.379,0,0,1,.823-.5c.226-.037.351-.007.35.007s-.123.028-.325.093a1.383,1.383,0,0,0-.7.509,1.3,1.3,0,0,0-.16,1.209,1.264,1.264,0,0,0,2.367,0,1.294,1.294,0,0,0-.159-1.209,1.383,1.383,0,0,0-.7-.509c-.2-.065-.325-.071-.325-.093" transform="translate(-284.609 -82.926)" fill="#fff"/>
        <path id="Trazado_227388" data-name="Trazado 227388" d="M579.882,170.571c-.051.051-.356-.17-.682-.5l-.039-.038v-.063c0-.464.059-.84.132-.84s.132.376.132.84v.008l-.038-.093c.325.326.547.631.5.682" transform="translate(-285.823 -83.47)" fill="#fff"/>
        <path id="Trazado_227389" data-name="Trazado 227389" d="M471.966,171.664c0,.073-9.521.132-21.263.132s-21.265-.059-21.265-.132,9.519-.132,21.265-.132,21.263.059,21.263.132" transform="translate(-211.933 -84.653)" fill="#fff"/>
        <path id="Trazado_227390" data-name="Trazado 227390" d="M422.207,170.158a1.677,1.677,0,1,1-1.677-1.677,1.677,1.677,0,0,1,1.677,1.677" transform="translate(-206.709 -83.147)" fill="#fff"/>
      </g>
    </g>
    <g id="Grupo_179250" data-name="Grupo 179250">
      <g id="Grupo_179249" data-name="Grupo 179249" clip-path="url(#clip-path)">
        <path id="Trazado_227391" data-name="Trazado 227391" d="M287.037,143.427l-26.827-9.633c1.754,20.94,3.464,42.4-2.105,62.659-.6,2.191-1.132,4.939.611,6.4a5.688,5.688,0,0,0,3.893.86q4.176-.128,8.331-.61c2.948-.342,6.092-.919,8.19-3.017,1.76-1.76,2.47-4.284,3.062-6.7a175.8,175.8,0,0,0,4.845-49.954" transform="translate(-127.094 -66.029)" fill="#263238"/>
        <path id="Trazado_227392" data-name="Trazado 227392" d="M229.022,269.311l3.178-4.171,2.13-11.151,4.838-27.12s2.134-10.2,8.712-13.127l1.395,27.1-13.421,34.05Z" transform="translate(-113.025 -105.484)" fill="#636363"/>
        <path id="Trazado_227393" data-name="Trazado 227393" d="M253.6,196.329l-3.956,4.682-6.031,2.681s-13.277,25.369-13.633,25.606-2.489,7.468-1.3,13.633a107.014,107.014,0,0,1,1.9,20.035c-.119,5.809-7.706,24.895-8.18,29.281s-2.015,21.338-2.015,21.338l67.1-.51a123.639,123.639,0,0,0-2.489-12.649s-.237-16.834-2.726-20.034c0,0,1.9-4.386,1.659-6.876s9.959-15.767,11.974-20.39,9.958-15.174,10.076-22.761-1.067-13.989-4.861-19.205-10.669-8.772-13.514-10.669l-5.571-7.113Z" transform="translate(-108.761 -95.435)" fill="#636363"/>
        <path id="Trazado_227394" data-name="Trazado 227394" d="M238.743,355.247a1.15,1.15,0,0,1,0-.2c.005-.146.012-.343.02-.594.024-.537.057-1.3.1-2.284.083-2,.2-4.864.349-8.4.061-1.773.124-3.716.15-5.8.014-1.043.015-2.121-.022-3.228a14.694,14.694,0,0,1,.343-3.432,53.55,53.55,0,0,1,2.191-7.041,33.741,33.741,0,0,0,1.159-3.7,15.8,15.8,0,0,0,.259-1.958l.2-2.008c.27-2.695.534-5.326.79-7.867q.192-1.905.377-3.74c.109-1.224.28-2.416.317-3.589a91.949,91.949,0,0,1,1.689-12.359c.686-3.485,1.312-6.288,1.717-8.231.2-.96.358-1.711.467-2.237.053-.246.095-.438.125-.581A.1.1,0,1,1,249,278c-.025.145-.058.339-.1.586-.1.528-.239,1.282-.419,2.247-.374,1.95-.973,4.76-1.635,8.246a94.428,94.428,0,0,0-1.629,12.34c-.034,1.175-.2,2.368-.308,3.592s-.245,2.472-.371,3.742c-.253,2.543-.516,5.174-.784,7.87q-.1,1.01-.2,2.009a15.978,15.978,0,0,1-.265,1.988,33.566,33.566,0,0,1-1.172,3.729,53.956,53.956,0,0,0-2.2,7,14.531,14.531,0,0,0-.349,3.374c.033,1.115.028,2.2.009,3.241-.036,2.088-.11,4.032-.182,5.805-.151,3.547-.313,6.416-.433,8.4-.064.98-.114,1.745-.149,2.282-.02.25-.035.447-.047.593a1.131,1.131,0,0,1-.025.2" transform="translate(-117.821 -137.097)" fill="#263238"/>
        <path id="Trazado_227395" data-name="Trazado 227395" d="M259.367,234.4a58.873,58.873,0,0,1,7.356-17.417,41.549,41.549,0,0,0,6.058-14.388l.079-9.919.425,1.278,25.226-3.657.762,3.643L282.42,209.2s-7.8,1.514-8.124,1.731S259.367,234.4,259.367,234.4" transform="translate(-128.001 -93.915)" fill="#efbda8"/>
        <path id="Trazado_227396" data-name="Trazado 227396" d="M322.086,207.422a2.464,2.464,0,0,1-.222.353c-.154.226-.379.559-.682.98-.6.846-1.488,2.054-2.618,3.523s-2.5,3.2-3.981,5.145c-.739.975-1.5,2.006-2.278,3.089a6.936,6.936,0,0,1-.634.808,1.538,1.538,0,0,1-.969.505,1.909,1.909,0,0,1-1.058-.3c-.312-.181-.6-.376-.9-.565l-3.472-2.23c-.56-.357-1.111-.723-1.649-1.054a2.725,2.725,0,0,0-1.7-.5,3.389,3.389,0,0,0-1.547.724c-.457.344-.91.7-1.381.984a9.843,9.843,0,0,1-2.814,1.172,9.97,9.97,0,0,1-4.382.1,6.45,6.45,0,0,1-.671-.165,4.677,4.677,0,0,1-.482-.154,2.415,2.415,0,0,1-.386-.158,2.432,2.432,0,0,1,.4.107c.129.043.292.084.486.129s.416.1.671.139a10.2,10.2,0,0,0,4.317-.181,9.773,9.773,0,0,0,2.744-1.177c.458-.284.892-.629,1.359-.985a3.594,3.594,0,0,1,1.656-.778,2.954,2.954,0,0,1,1.852.521c.555.338,1.1.7,1.661,1.053l3.475,2.226c.6.356,1.168.861,1.793.828a1.278,1.278,0,0,0,.8-.427,6.8,6.8,0,0,0,.61-.775c.778-1.083,1.549-2.114,2.294-3.086,1.492-1.945,2.882-3.658,4.027-5.113s2.058-2.642,2.682-3.469l.721-.95a2.507,2.507,0,0,1,.265-.322" transform="translate(-143.25 -102.365)" fill="#263238"/>
        <path id="Trazado_227397" data-name="Trazado 227397" d="M278.162,248.6a4.738,4.738,0,0,1,.376-.717c.256-.454.643-1.1,1.137-1.891.986-1.581,2.42-3.721,4.135-5.99s3.387-4.231,4.641-5.609c.626-.689,1.143-1.238,1.51-1.607a4.857,4.857,0,0,1,.588-.558,4.657,4.657,0,0,1-.512.627l-1.446,1.661c-1.216,1.407-2.858,3.383-4.571,5.644s-3.165,4.38-4.188,5.931l-1.206,1.844a4.741,4.741,0,0,1-.464.664" transform="translate(-137.275 -114.609)" fill="#263238"/>
        <path id="Trazado_227398" data-name="Trazado 227398" d="M277.847,268.4a.429.429,0,0,1,.1.014l.288.058,1.12.241c.981.211,2.419.525,4.255.894.918.183,1.936.383,3.048.573.557.1,1.133.179,1.74.271s1.223.243,1.857.406c1.267.328,2.594.75,3.978,1.233.691.244,1.4.5,2.114.784q.538.21,1.083.44l.546.241.273.132c.046.023.091.047.138.074a.633.633,0,0,1,.072.046l.039.028a.208.208,0,0,1,.062.115v.015l-.007.02-5.289,16.886,0,.011-.005.01a10.217,10.217,0,0,1-.993,1.542,7.243,7.243,0,0,1-1.336,1.365,2.476,2.476,0,0,1-.617.335l-.628.212-1.247.42-2.459.829-4.747,1.6-.072.024-.056-.052-4.967-4.606-1.18-1.1a14.019,14.019,0,0,1-1.13-1.113,2.838,2.838,0,0,1-.673-1.424,5.109,5.109,0,0,1,.034-1.522c.676-3.881,1.443-7.28,2.135-10.1s1.332-5.044,1.784-6.568c.231-.75.411-1.334.537-1.743l.146-.448a.9.9,0,0,1,.057-.15.861.861,0,0,1-.035.157l-.126.454c-.116.412-.282,1-.5,1.754-.425,1.531-1.036,3.763-1.71,6.582s-1.418,6.226-2.075,10.091a4.9,4.9,0,0,0-.029,1.454A2.6,2.6,0,0,0,274,290.2a13.93,13.93,0,0,0,1.113,1.088l1.183,1.091,4.976,4.6-.128-.027,4.745-1.6,2.459-.831,1.247-.421.627-.212a2.231,2.231,0,0,0,.547-.3,7.007,7.007,0,0,0,1.283-1.314,9.933,9.933,0,0,0,.967-1.5l-.008.02,5.322-16.876.1.034a67.35,67.35,0,0,0-8.227-2.914c-.629-.166-1.242-.31-1.839-.415s-1.184-.184-1.739-.284c-1.113-.2-2.13-.408-3.047-.6-1.833-.388-3.267-.723-4.244-.956l-1.113-.274-.284-.076a.4.4,0,0,1-.095-.031" transform="translate(-134.783 -132.457)" fill="#263238"/>
        <g id="Grupo_179236" data-name="Grupo 179236" transform="translate(115.651 176.57)" opacity="0.3">
          <g id="Grupo_179235" data-name="Grupo 179235">
            <g id="Grupo_179234" data-name="Grupo 179234" clip-path="url(#clip-path-4)">
              <path id="Trazado_227399" data-name="Trazado 227399" d="M256.307,366.481c-5.867-.887-14.013-3.335-20.7-4.73-2.389-.5-4.452-1.075-6.84-1.574l-.43,1.328a80.1,80.1,0,0,1,19.5,6.953c3.711,1.9,7.386,4.118,11.51,4.724,4.614.677,9.249-.743,13.7-2.146,2.509-.792,5.137-1.657,6.926-3.585a14.6,14.6,0,0,0,2.643-4.855q2.626-6.874,4.588-13.979c-7.967,8.937-19.055,19.655-30.892,17.865" transform="translate(-228.338 -348.616)"/>
            </g>
          </g>
        </g>
        <path id="Trazado_227400" data-name="Trazado 227400" d="M306.79,269.913l-16.853,31a4.994,4.994,0,0,0-3.915,4.926,2.946,2.946,0,0,0-3.34.088c-1.272.756-4.854,1.764-6.833,2.821a2.364,2.364,0,0,0-1.165,2.714l5.23,19.007s6.357,0,6.922-1.576l8.713-2.726s5.631-1.491,7.8-5.235,15.163-23.108,15.163-23.108" transform="translate(-135.518 -133.205)" fill="#636363"/>
        <path id="Trazado_227401" data-name="Trazado 227401" d="M318.383,297.819s-.036.067-.117.193l-.361.558-1.415,2.153-5.311,8.047-3.717,5.672c-1.335,2.059-2.784,4.267-4.231,6.665a9.857,9.857,0,0,1-3.1,3.037,17.964,17.964,0,0,1-4.125,1.963l-9.264,2.9.081-.078a1.42,1.42,0,0,1-.665.676,4.413,4.413,0,0,1-.847.347,11.77,11.77,0,0,1-1.793.378,29.65,29.65,0,0,1-3.737.261l-.1,0-.027-.1-2.953-10.724-1.577-5.73c-.253-.951-.53-1.862-.759-2.829a2.5,2.5,0,0,1,1.243-2.56,50.706,50.706,0,0,1,5.207-2.1c.426-.164.847-.333,1.251-.525a10.32,10.32,0,0,1,1.231-.593,2.964,2.964,0,0,1,2.667.3l-.2.1a5.044,5.044,0,0,1,1.133-3.289,5.521,5.521,0,0,1,2.882-1.752l-.08.059,12.233-22.4,3.469-6.312.925-1.663.242-.425c.055-.095.088-.141.088-.141s-.021.052-.071.15l-.225.434-.893,1.681-3.411,6.343-12.15,22.446-.024.045-.056.014a5.294,5.294,0,0,0-2.743,1.677,4.8,4.8,0,0,0-1.071,3.134l0,.235-.2-.139a2.727,2.727,0,0,0-2.433-.256,10.3,10.3,0,0,0-1.2.583c-.416.2-.841.369-1.27.534a50.98,50.98,0,0,0-5.171,2.089,2.237,2.237,0,0,0-1.112,2.293c.217.909.5,1.861.755,2.8l1.577,5.73c1.01,3.674,2,7.274,2.949,10.726l-.125-.1a29.429,29.429,0,0,0,3.7-.256,11.528,11.528,0,0,0,1.754-.367,4.258,4.258,0,0,0,.8-.325,1.194,1.194,0,0,0,.551-.54l.024-.06.057-.018,9.266-2.888a17.786,17.786,0,0,0,4.074-1.927,9.654,9.654,0,0,0,3.035-2.958c1.457-2.4,2.914-4.6,4.257-6.657l3.743-5.655,5.373-8.007,1.45-2.13.379-.546c.086-.122.135-.181.135-.181" transform="translate(-135.39 -133.205)" fill="#263238"/>
        <path id="Trazado_227402" data-name="Trazado 227402" d="M335.482,321.743a1.376,1.376,0,0,1-.1-.3l-.222-.866c-.194-.787-.461-1.868-.788-3.191-.665-2.694-1.6-6.411-2.708-10.5s-2.169-7.771-2.953-10.433l-.928-3.153-.244-.86a1.376,1.376,0,0,1-.068-.305,1.422,1.422,0,0,1,.118.29l.291.845c.249.735.594,1.8,1.009,3.13.83,2.649,1.922,6.328,3.028,10.418s2.016,7.817,2.635,10.523c.309,1.353.55,2.45.706,3.211.071.358.129.649.174.877a1.388,1.388,0,0,1,.044.309" transform="translate(-161.613 -144.174)" fill="#fff"/>
        <path id="Trazado_227403" data-name="Trazado 227403" d="M325.274,337.713c-.072.013-1.479-7.33-3.143-16.4s-2.955-16.435-2.883-16.448,1.478,7.328,3.143,16.4,2.955,16.434,2.883,16.447" transform="translate(-157.551 -150.455)" fill="#fff"/>
        <path id="Trazado_227404" data-name="Trazado 227404" d="M265.481,284.777c.041.06-2.429,1.812-5.515,3.911s-5.624,3.754-5.665,3.693,2.428-1.811,5.516-3.911,5.623-3.754,5.664-3.693" transform="translate(-125.5 -140.54)" fill="#fff"/>
        <path id="Trazado_227405" data-name="Trazado 227405" d="M262.914,297.839a2.043,2.043,0,0,1-.364.384c-.246.235-.609.566-1.064.968-.909.8-2.189,1.889-3.639,3.042s-2.8,2.157-3.784,2.861c-.494.353-.9.632-1.182.819a2.066,2.066,0,0,1-.456.268,2.05,2.05,0,0,1,.4-.352l1.131-.885c.959-.742,2.283-1.767,3.731-2.918s2.744-2.211,3.683-2.978l1.117-.9a2.049,2.049,0,0,1,.432-.306" transform="translate(-124.575 -146.986)" fill="#fff"/>
        <path id="Trazado_227406" data-name="Trazado 227406" d="M243.931,289.039c-.059.043-1.82-2.269-3.934-5.164s-3.781-5.277-3.722-5.32,1.82,2.269,3.935,5.165,3.78,5.276,3.722,5.319" transform="translate(-116.603 -137.47)" fill="#fff"/>
        <path id="Trazado_227407" data-name="Trazado 227407" d="M244.571,310.77a4.834,4.834,0,0,1-.9-.778c-.526-.511-1.225-1.247-1.948-2.1s-1.331-1.669-1.746-2.273a4.835,4.835,0,0,1-.616-1.017,5.976,5.976,0,0,1,.766.906c.453.574,1.08,1.363,1.8,2.214s1.391,1.6,1.881,2.143a5.991,5.991,0,0,1,.765.908" transform="translate(-118.127 -150.323)" fill="#fff"/>
        <path id="Trazado_227408" data-name="Trazado 227408" d="M332.619,216.932a9.575,9.575,0,0,1-1.243-.84l-2.929-2.121c-1.139-.836-2.161-1.607-2.885-2.185a7.6,7.6,0,0,1-1.131-.988,9.524,9.524,0,0,1,1.243.839l2.929,2.121c1.139.836,2.16,1.607,2.884,2.184a7.581,7.581,0,0,1,1.131.989" transform="translate(-160.11 -104.03)" fill="#fff"/>
        <path id="Trazado_227409" data-name="Trazado 227409" d="M338.19,210.816a81.881,81.881,0,0,1-7.15-5.933,81.936,81.936,0,0,1,7.15,5.933" transform="translate(-163.372 -101.111)" fill="#fff"/>
        <path id="Trazado_227410" data-name="Trazado 227410" d="M292.922,280.006c.071.014-.832,5.045-2.018,11.237s-2.206,11.2-2.277,11.188.832-5.044,2.018-11.237,2.206-11.2,2.277-11.187" transform="translate(-142.439 -138.186)" fill="#fff"/>
        <path id="Trazado_227411" data-name="Trazado 227411" d="M314.058,346.1a1.712,1.712,0,0,1-.44-.206c-.276-.145-.664-.377-1.13-.683a21.82,21.82,0,0,1-6.134-6.133c-.306-.466-.538-.853-.684-1.129a1.733,1.733,0,0,1-.206-.441c.037-.021.4.565,1.043,1.464a26.276,26.276,0,0,0,6.086,6.084c.9.646,1.486,1.006,1.464,1.043" transform="translate(-150.749 -166.563)" fill="#263238"/>
        <path id="Trazado_227412" data-name="Trazado 227412" d="M314,334.258a5.849,5.849,0,0,1-1.438.262,17.073,17.073,0,0,1-6.982-.74,5.84,5.84,0,0,1-1.351-.558,12.674,12.674,0,0,1,1.4.379,21.391,21.391,0,0,0,6.915.733,12.738,12.738,0,0,1,1.453-.076" transform="translate(-150.141 -164.446)" fill="#263238"/>
        <path id="Trazado_227413" data-name="Trazado 227413" d="M243.994,240.208a.442.442,0,0,1-.037.121l-.133.344c-.113.3-.307.741-.564,1.3-.518,1.119-1.384,2.681-2.506,4.574a41.719,41.719,0,0,0-3.486,6.86q-.092.255-.184.514l-.148.531-.3,1.083a7.51,7.51,0,0,0-.236,1.121q-.1.571-.193,1.153c-.092.78-.14,1.582-.188,2.393q0,.609,0,1.229a12.21,12.21,0,0,0,.039,1.244,78.82,78.82,0,0,0,1.3,9.352,66.769,66.769,0,0,1,1.042,7.666c.1,1.1.052,2.1.066,2.975-.067.874-.109,1.628-.186,2.239-.1.59-.188,1.057-.248,1.4-.028.146-.052.265-.071.362a.454.454,0,0,1-.033.121.461.461,0,0,1,.007-.127l.045-.366c.048-.341.114-.809.2-1.4.061-.61.088-1.362.141-2.231-.029-.871.009-1.865-.1-2.958a70.388,70.388,0,0,0-1.1-7.635,76.213,76.213,0,0,1-1.323-9.382,12.4,12.4,0,0,1-.039-1.255c0-.415,0-.83,0-1.239.049-.819.1-1.629.194-2.418q.1-.588.2-1.167a7.643,7.643,0,0,1,.242-1.133l.3-1.1.152-.537.188-.519a40.6,40.6,0,0,1,3.554-6.873c1.142-1.88,2.029-3.421,2.574-4.523.27-.551.478-.981.608-1.277l.157-.334a.5.5,0,0,1,.062-.11" transform="translate(-116.35 -118.545)" fill="#263238"/>
        <path id="Trazado_227414" data-name="Trazado 227414" d="M272.739,199.2a.45.45,0,0,1-.062.105l-.2.3c-.179.261-.466.63-.847,1.1-.762.936-1.924,2.243-3.385,3.85l-2.383,2.645c-.846.962-1.755,2-2.607,3.159a20.535,20.535,0,0,0-3.277,8.768l-.249-.074a14.636,14.636,0,0,1,1.423-2.2c.273-.373.544-.743.8-1.117.128-.187.251-.375.367-.566l.167-.289.076-.147.037-.073.019-.036c.009-.014-.01.008.031-.049a.153.153,0,0,1,.139-.048.155.155,0,0,1,.111.082l.011.027.015.041.03.081.06.162a2.218,2.218,0,0,1,.106.327,4.849,4.849,0,0,1,.147.666,7.261,7.261,0,0,1,.087,1.337,26.776,26.776,0,0,1-.831,4.971c-.593,3.163-1.675,5.864-2.319,8.188a21.1,21.1,0,0,0-.94,5.621,14.246,14.246,0,0,0,.071,1.552l.046.4a.534.534,0,0,1,.008.139,9.218,9.218,0,0,1-.228-2.093,20.328,20.328,0,0,1,.863-5.671c.626-2.346,1.685-5.041,2.261-8.189a26.966,26.966,0,0,0,.81-4.925,6.982,6.982,0,0,0-.086-1.29,4.478,4.478,0,0,0-.141-.636,2.032,2.032,0,0,0-.1-.31l-.057-.153-.029-.077-.014-.038,0-.01c.043-.022-.1.035.095-.051h0v0c-.086-.041.122.058.1.052l-.005.01-.02.038-.039.077-.079.154-.173.3q-.179.295-.374.579c-.259.38-.531.751-.8,1.124a14.518,14.518,0,0,0-1.4,2.155l-.377.79.128-.864a20.613,20.613,0,0,1,3.346-8.868c.869-1.175,1.785-2.2,2.64-3.161s1.67-1.829,2.409-2.625c1.478-1.591,2.659-2.878,3.442-3.792.391-.457.69-.815.881-1.065l.223-.281a.462.462,0,0,1,.083-.091" transform="translate(-127.897 -98.309)" fill="#263238"/>
        <path id="Trazado_227415" data-name="Trazado 227415" d="M288.046,341.924c.007-.006.068.054.177.173l.471.531a10.183,10.183,0,0,1,.706.873c.259.353.575.741.864,1.212.3.46.634.967.94,1.541.333.558.623,1.189.942,1.846a25.355,25.355,0,0,1,2.25,9.179c.021.73.056,1.423.019,2.072-.007.65-.063,1.252-.121,1.8-.039.551-.139,1.041-.205,1.474a10.272,10.272,0,0,1-.222,1.1c-.069.274-.126.5-.172.688a.842.842,0,0,1-.077.235.914.914,0,0,1,.026-.247l.123-.7c.061-.3.129-.67.177-1.1s.139-.921.165-1.468c.045-.546.091-1.144.088-1.788.028-.644-.015-1.331-.043-2.053a26.344,26.344,0,0,0-2.229-9.093c-.31-.654-.59-1.282-.912-1.84-.295-.573-.612-1.082-.9-1.545-.277-.474-.58-.867-.826-1.226s-.474-.657-.666-.9l-.432-.561a.9.9,0,0,1-.137-.208" transform="translate(-142.154 -168.743)" fill="#263238"/>
        <path id="Trazado_227416" data-name="Trazado 227416" d="M300.529,282.335a4.749,4.749,0,0,1-.766-.258l-2.062-.759c-1.745-.629-4.179-1.434-6.913-2.162s-5.249-1.232-7.076-1.552l-2.167-.364a4.71,4.71,0,0,1-.793-.156,4.7,4.7,0,0,1,.807.054c.518.05,1.264.144,2.183.282a67.009,67.009,0,0,1,14.024,3.723c.867.337,1.562.625,2.036.839a4.774,4.774,0,0,1,.727.353" transform="translate(-138.554 -136.741)" fill="#263238"/>
        <g id="Grupo_179239" data-name="Grupo 179239" transform="translate(150.505 172.084)" opacity="0.3">
          <g id="Grupo_179238" data-name="Grupo 179238">
            <g id="Grupo_179237" data-name="Grupo 179237" clip-path="url(#clip-path-5)">
              <path id="Trazado_227417" data-name="Trazado 227417" d="M305.882,348.989a6.936,6.936,0,0,0-1.429-1.825l-7.275-7.4-.025.547c1.62,1.1,1.964,3.325,2.428,5.226s.869,3.931,2.194,5.372a3.5,3.5,0,0,0,2.01,1.162,2.124,2.124,0,0,0,2.075-.846,2.348,2.348,0,0,0,.022-2.231" transform="translate(-297.154 -339.759)"/>
            </g>
          </g>
        </g>
        <g id="Grupo_179242" data-name="Grupo 179242" transform="translate(138.819 157.417)" opacity="0.3">
          <g id="Grupo_179241" data-name="Grupo 179241">
            <g id="Grupo_179240" data-name="Grupo 179240" clip-path="url(#clip-path-6)">
              <path id="Trazado_227418" data-name="Trazado 227418" d="M284.5,317.135a3.348,3.348,0,0,1-4.367-.815l-6.05-5.52c1.731,2.549,3.119,5.129,4.851,7.678a4.024,4.024,0,0,0,1.76,1.7,3.69,3.69,0,0,0,2.537-.276,21.524,21.524,0,0,0,7.713-5.094l-6.443,2.332" transform="translate(-274.082 -310.8)"/>
            </g>
          </g>
        </g>
        <g id="Grupo_179245" data-name="Grupo 179245" transform="translate(141.634 111.361)" opacity="0.3">
          <g id="Grupo_179244" data-name="Grupo 179244">
            <g id="Grupo_179243" data-name="Grupo 179243" clip-path="url(#clip-path-7)">
              <path id="Trazado_227419" data-name="Trazado 227419" d="M279.64,240.979c5.657-2.714,7.694-10.237,13.307-13.04a10.11,10.11,0,0,1,10.2.821c.972.7,2.051,1.632,3.2,1.3.87-.249,1.373-1.134,1.784-1.94l4.213-8.253-5.526,6.51a3.024,3.024,0,0,1-1.432,1.117c-1.113.286-1.918-.961-2.946-1.474-3.206-1.6-5.45-3.607-7.237-2.258,0,0-3.111,2.142-4.361,2.367L279.64,240.765" transform="translate(-279.64 -219.869)"/>
            </g>
          </g>
        </g>
        <g id="Grupo_179248" data-name="Grupo 179248" transform="translate(131.834 101.92)" opacity="0.3">
          <g id="Grupo_179247" data-name="Grupo 179247">
            <g id="Grupo_179246" data-name="Grupo 179246" clip-path="url(#clip-path-8)">
              <path id="Trazado_227420" data-name="Trazado 227420" d="M260.459,237.288a13.21,13.21,0,0,1,1.116-7.562,46.29,46.29,0,0,0,2.954-7,13.911,13.911,0,0,0,.206-6.01,7.2,7.2,0,0,1-.243-2.806,5.3,5.3,0,0,1,.763-1.644,36.533,36.533,0,0,1,4.414-5.72l3.532-5.317s.152,6.176.037,6.762a39.946,39.946,0,0,1-1.542,5.385,42.934,42.934,0,0,1-4.013,8.208,65.064,65.064,0,0,0-4.979,9.35Z" transform="translate(-260.291 -201.229)"/>
            </g>
          </g>
        </g>
        <path id="Trazado_227421" data-name="Trazado 227421" d="M284.67,155.492c-7.178-1.694-9.383-5.263-9.468-11.577l-.109-8.03s-7.945-.413-9.8-12.246a117.726,117.726,0,0,1-1.208-23.28c.463-7.1,7.836-19.609,14.9-18.845l19.416,9.447a4.161,4.161,0,0,1,3.714,4.228l-1.507,45.873" transform="translate(-130.251 -40.211)" fill="#efbda8"/>
        <path id="Trazado_227422" data-name="Trazado 227422" d="M270.236,134.593a1.518,1.518,0,0,0,1.46,1.534,1.451,1.451,0,0,0,1.567-1.364,1.517,1.517,0,0,0-1.458-1.535,1.452,1.452,0,0,0-1.569,1.365" transform="translate(-133.364 -65.748)" fill="#263238"/>
        <path id="Trazado_227423" data-name="Trazado 227423" d="M268.358,129.147c.164.146,1.358-.017,2.942.374s2.669,1.094,2.86,1.033c.092-.025-.061-.254-.532-.572a7.278,7.278,0,0,0-2.268-.953,6.5,6.5,0,0,0-2.364-.171c-.523.078-.72.221-.638.289" transform="translate(-132.429 -63.571)" fill="#263238"/>
        <path id="Trazado_227424" data-name="Trazado 227424" d="M300.241,135.491a1.518,1.518,0,0,0,1.459,1.534,1.452,1.452,0,0,0,1.567-1.364,1.518,1.518,0,0,0-1.458-1.535,1.451,1.451,0,0,0-1.568,1.365" transform="translate(-148.172 -66.191)" fill="#263238"/>
        <path id="Trazado_227425" data-name="Trazado 227425" d="M300.082,130.02c.235.059,1.284-.745,3-1.2s3.123-.329,3.271-.491c.074-.074-.191-.223-.811-.291a7.57,7.57,0,0,0-2.664.255,6.769,6.769,0,0,0-2.34,1.094c-.454.359-.567.609-.454.633" transform="translate(-148.074 -63.173)" fill="#263238"/>
        <path id="Trazado_227426" data-name="Trazado 227426" d="M284.234,139.967a10.8,10.8,0,0,0-2.65-.484c-.416-.044-.811-.128-.881-.412a2.125,2.125,0,0,1,.281-1.235l1.24-3.172c1.722-4.515,2.97-8.229,2.787-8.3s-1.727,3.537-3.449,8.053q-.621,1.67-1.188,3.19a2.409,2.409,0,0,0-.22,1.635,1.046,1.046,0,0,0,.684.611,2.816,2.816,0,0,0,.708.1,10.627,10.627,0,0,0,2.687.01" transform="translate(-138.221 -62.363)" fill="#263238"/>
        <path id="Trazado_227427" data-name="Trazado 227427" d="M285.974,185.041a30.093,30.093,0,0,0,15.852-4.191s-4.015,8.34-15.852,7.207Z" transform="translate(-141.132 -89.252)" fill="#d1967c"/>
        <path id="Trazado_227428" data-name="Trazado 227428" d="M288.548,159.032a4.358,4.358,0,0,1,3.137-2.074,1.869,1.869,0,0,1,1.839,1.025,2.96,2.96,0,0,1-.263,2.714,2.5,2.5,0,0,1-2.474,1.2,4.182,4.182,0,0,1-2.043-1.331,1.467,1.467,0,0,1-.414-.586,1,1,0,0,1,.129-.856" transform="translate(-142.273 -77.459)" fill="#d1967c"/>
        <path id="Trazado_227429" data-name="Trazado 227429" d="M292.686,155.469c-.265-.016-.273,1.756-1.792,3.01s-3.405,1.056-3.419,1.3c-.025.111.42.345,1.217.369a4.414,4.414,0,0,0,2.855-.988,3.845,3.845,0,0,0,1.389-2.524c.069-.74-.128-1.18-.249-1.17" transform="translate(-141.871 -76.726)" fill="#263238"/>
        <path id="Trazado_227430" data-name="Trazado 227430" d="M297.483,116.37c.2.426,1.805.057,3.734.1,1.93,0,3.522.409,3.735-.012.094-.2-.215-.59-.878-.956a6.494,6.494,0,0,0-5.691-.065c-.672.351-.99.732-.9.935" transform="translate(-146.804 -56.66)" fill="#263238"/>
        <path id="Trazado_227431" data-name="Trazado 227431" d="M267.34,120.718c.358.37,1.754-.017,3.434-.038,1.679-.069,3.1.244,3.43-.145.143-.188-.082-.56-.7-.91a5.635,5.635,0,0,0-2.793-.6,5.525,5.525,0,0,0-2.738.75c-.593.382-.787.764-.63.945" transform="translate(-131.91 -58.738)" fill="#263238"/>
        <path id="Trazado_227432" data-name="Trazado 227432" d="M330.736,142.4c-2.58-4.17-4.685-14.554-5.583-19.821s-3.688-22.147-8.174-31.019S307.209,79.1,302.026,77.7a11.92,11.92,0,0,0-11.413,2.592c-2.341,2.093-3.14,8.188-3.14,8.188s12.5,2.781,16.716,9.911c4.838,8.191,6.011,12.311,6.011,12.311l1.566,4.48s-1.465,8.673-2,12.96.321,8.268,3.849,10.007l7.1,5.016s9.278,6.305,9.705,6.632c1.979,1.512,5.862,7.278,5.862,7.278s-.266-6.156-5.537-14.678" transform="translate(-141.871 -38.111)" fill="#263238"/>
        <path id="Trazado_227433" data-name="Trazado 227433" d="M274.455,89.582s-7.15-.774-9.792,7.3c-1.2,3.653-2.107,14.2-2.107,14.2s-1.046-8.376-.661-13.159,2.772-10.828,6.437-14.176c3.564-3.256,6.569-4.783,12.942-4.4a10.228,10.228,0,0,0-4.6,3.44c-.817,1.211-1.173,2.243-2.221,6.788" transform="translate(-129.207 -39.133)" fill="#263238"/>
        <path id="Trazado_227434" data-name="Trazado 227434" d="M331.83,141.149a3.589,3.589,0,0,1,5.252-3.054c1.246.72,2.2,2.168,2.084,4.947-.305,7.412-7.683,5.577-7.688,5.364,0-.132.2-4.192.352-7.257" transform="translate(-163.588 -67.931)" fill="#efbda8"/>
        <path id="Trazado_227435" data-name="Trazado 227435" d="M336.169,147.869c.033-.022.126.1.34.205a1.29,1.29,0,0,0,.964.059,3.2,3.2,0,0,0,1.6-2.805,4.268,4.268,0,0,0-.286-1.864,1.494,1.494,0,0,0-.93-1.031.658.658,0,0,0-.776.323c-.108.2-.067.354-.107.364-.021.018-.154-.131-.082-.434a.824.824,0,0,1,.31-.453.976.976,0,0,1,.722-.159,1.815,1.815,0,0,1,1.3,1.2,4.383,4.383,0,0,1,.363,2.084c-.109,1.492-.931,2.858-2.015,3.123a1.381,1.381,0,0,1-1.173-.245c-.222-.192-.255-.36-.228-.372" transform="translate(-165.9 -70.109)" fill="#d1967c"/>
        <path id="Trazado_227436" data-name="Trazado 227436" d="M299.049,77.206c0,.055-1.017.025-2.627.239a9.107,9.107,0,0,0-2.705.808A8.928,8.928,0,0,0,291,80.368a13.754,13.754,0,0,0-3,5.506c-.431,1.568-.482,2.586-.534,2.58a3.309,3.309,0,0,1,.024-.712,13.232,13.232,0,0,1,3.319-7.549A8.409,8.409,0,0,1,296.4,77.26a15.235,15.235,0,0,1,1.941-.095,3.409,3.409,0,0,1,.711.041" transform="translate(-141.862 -38.081)" fill="#455a64"/>
        <path id="Trazado_227437" data-name="Trazado 227437" d="M317.532,124.667a.408.408,0,0,1,.013-.121l.064-.347q.046-.238.11-.562l.111-.773a17.823,17.823,0,0,0-2.632-11.783,20,20,0,0,0-6.506-6.111,37.155,37.155,0,0,0-4.139-2.166c-1.374-.632-2.748-1.123-4.025-1.7a48.037,48.037,0,0,1-6.459-3.631c-1.757-1.167-3.126-2.188-4.055-2.913-.463-.365-.821-.65-1.057-.851l-.269-.229c-.06-.053-.089-.082-.086-.085a.423.423,0,0,1,.1.064l.285.208,1.086.811c.946.7,2.329,1.7,4.094,2.838a49.955,49.955,0,0,0,6.457,3.566c1.263.565,2.648,1.056,4.031,1.687a36.808,36.808,0,0,1,4.172,2.177,20.039,20.039,0,0,1,6.572,6.2,17.62,17.62,0,0,1,2.545,6.937,16.915,16.915,0,0,1-.016,4.992l-.136.773-.136.559-.09.342a.406.406,0,0,1-.04.114" transform="translate(-142.429 -46.091)" fill="#455a64"/>
        <path id="Trazado_227438" data-name="Trazado 227438" d="M321.937,117.362a.429.429,0,0,1-.008-.122c0-.1,0-.212,0-.355,0-.312.035-.769.023-1.359a28.559,28.559,0,0,0-.483-4.966,28.9,28.9,0,0,0-2.293-7.014A27.844,27.844,0,0,0,314,96.168a32.854,32.854,0,0,0-7.251-5.391c-2.424-1.385-4.705-2.456-6.605-3.383s-3.443-1.675-4.488-2.231c-.526-.271-.924-.5-1.2-.651l-.307-.177a.427.427,0,0,1-.1-.068.416.416,0,0,1,.113.045l.319.154,1.219.606c1.058.528,2.6,1.258,4.521,2.154s4.2,1.961,6.645,3.34a32.553,32.553,0,0,1,7.319,5.417,27.66,27.66,0,0,1,5.21,7.46,28.424,28.424,0,0,1,2.259,7.085,26.535,26.535,0,0,1,.4,5c0,.593-.057,1.051-.073,1.362-.011.142-.022.258-.029.354a.454.454,0,0,1-.019.12" transform="translate(-145.118 -41.586)" fill="#455a64"/>
        <path id="Trazado_227439" data-name="Trazado 227439" d="M346.357,180.674a.886.886,0,0,1-.113-.223l-.278-.661a11.29,11.29,0,0,1-.394-1.065c-.137-.421-.309-.9-.442-1.437q-.108-.406-.225-.846c-.072-.3-.131-.607-.2-.927-.149-.639-.243-1.334-.362-2.062a43.577,43.577,0,0,1-.362-4.779,74.191,74.191,0,0,1,.433-8.684c.112-1.106.217-2,.3-2.616.039-.283.071-.517.1-.71a.915.915,0,0,1,.052-.246.946.946,0,0,1,0,.251l-.048.715c-.054.66-.126,1.546-.213,2.623-.174,2.213-.411,5.277-.355,8.662a47.109,47.109,0,0,0,.339,4.751c.111.724.2,1.415.336,2.051.064.319.118.63.184.924s.141.574.208.844c.12.541.279,1.017.4,1.439s.242.784.349,1.074l.231.677a.9.9,0,0,1,.064.243" transform="translate(-169.754 -77.194)" fill="#455a64"/>
        <path id="Trazado_227440" data-name="Trazado 227440" d="M163.553,338.638s8.055,10.33,10.941,11.154,13.822,3.52,13.822,3.52l35.887,8.3-4.227-15.383-33.983-.464Z" transform="translate(-80.715 -167.122)" fill="#efbda8"/>
        <path id="Trazado_227441" data-name="Trazado 227441" d="M72.4,233.73c2.691,6.669,16.245,37.187,19.386,44.252a3.561,3.561,0,0,0,2.178,1.947l42.656,13.541,42.321,3.163v-1.395l-34.215-10.367-10.807-1.266-16.136-40.022a5.771,5.771,0,0,0-4.312-3.518L73.248,232.7a.764.764,0,0,0-.849,1.035" transform="translate(-35.702 -114.831)" fill="#455a64"/>
        <path id="Trazado_227442" data-name="Trazado 227442" d="M238.321,343.332a.516.516,0,0,1-.135,0l-.393-.029-1.51-.137-5.548-.556-8.224-.857-10.075-1.012c-3.575-.354-6.984-.622-10.091-.8l-4.413-.279a7.482,7.482,0,0,1-1.027-.129,2.218,2.218,0,0,1-.5-.16.875.875,0,0,1-.384-.373,16.338,16.338,0,0,1-.7-1.73l-1.972-5.214-.524-1.422-.13-.373a.068.068,0,1,1,.025-.01l.154.363.57,1.4,2.051,5.186a16.686,16.686,0,0,0,.7,1.688.667.667,0,0,0,.3.293,2.066,2.066,0,0,0,.448.139,7.378,7.378,0,0,0,1,.118c1.377.064,2.858.164,4.411.253,3.11.164,6.527.425,10.1.779l10.074,1.033,8.22.913,5.539.639,1.5.187.39.055a.522.522,0,0,1,.132.028" transform="translate(-95.083 -162.924)" fill="#263238"/>
        <path id="Trazado_227443" data-name="Trazado 227443" d="M216.274,327.311s.613-4.024,0-4.815-4.926-4.671-4.926-4.671l-2.443-2.3-5.4-.826a1.647,1.647,0,0,0-1.646.757l-.553.888-1.461-.245-1.294-1.869h-3.594l-2.659,2.875v3.881a.733.733,0,0,0,1.294.287c.934-.791.992-2.977.992-2.977l1.6,1.468-1.694,5.177s1.191,1.08,2.054,0,2.084-2.661,2.084-2.661,1.437,3.879,3.881,5.03,8.337,2.2,9.558,1.927,3.974.225,4.207-1.927" transform="translate(-94.904 -155.077)" fill="#efbda8"/>
        <path id="Trazado_227444" data-name="Trazado 227444" d="M213.275,320.1c.005,0-.019.06-.1.144a1.091,1.091,0,0,1-.423.271,2.143,2.143,0,0,1-.785.109c-.31,0-.652-.076-1.023-.112a1.792,1.792,0,0,0-1.139.179,5.285,5.285,0,0,0-.944,1.016,4.274,4.274,0,0,1-2.882,1.568,2.716,2.716,0,0,1-2.405-1.118l-.054-.084.068-.071a27.539,27.539,0,0,0,2.608-3.181c.584-.832.9-1.345.926-1.328a1.636,1.636,0,0,1-.183.389c-.133.245-.338.6-.614,1.027a23.132,23.132,0,0,1-2.555,3.266l.013-.155a2.487,2.487,0,0,0,2.185.992,4.1,4.1,0,0,0,2.713-1.466A5.164,5.164,0,0,1,209.7,320.5a1.959,1.959,0,0,1,1.273-.177c.384.05.716.133,1.009.15a2.18,2.18,0,0,0,.746-.059,1.585,1.585,0,0,0,.553-.318" transform="translate(-100.44 -156.684)" fill="#d1967c"/>
        <path id="Trazado_227445" data-name="Trazado 227445" d="M227.618,330.454c-.03.006-.06-.227-.221-.608a5.857,5.857,0,0,0-.934-1.475c-.466-.579-1.107-1.205-1.689-2.03a4.369,4.369,0,0,1-.671-1.442,3.428,3.428,0,0,1,.029-1.714,4.169,4.169,0,0,1,.772-1.527,1.806,1.806,0,0,1,.649-.544.957.957,0,0,1,.84.025,1.936,1.936,0,0,1,.859,1.178,5.415,5.415,0,0,0,.479,1.1,4.719,4.719,0,0,0,1.145,1.3c.326.257.531.367.521.387a1.841,1.841,0,0,1-.581-.3,4.4,4.4,0,0,1-1.243-1.291,5.371,5.371,0,0,1-.525-1.126,1.738,1.738,0,0,0-.762-1.035.708.708,0,0,0-.629-.013,1.573,1.573,0,0,0-.549.475,3.961,3.961,0,0,0-.72,1.434,3.21,3.21,0,0,0-.033,1.587,4.208,4.208,0,0,0,.621,1.366c.551.8,1.179,1.448,1.634,2.05a5.314,5.314,0,0,1,.884,1.555,2.209,2.209,0,0,1,.113.475c.016.11.021.168.012.17" transform="translate(-110.55 -158.431)" fill="#d1967c"/>
        <path id="Trazado_227446" data-name="Trazado 227446" d="M201.237,319.93a1.142,1.142,0,0,0-.778.321,5.28,5.28,0,0,0-.965,1.908c-.291.808-.544,1.548-.755,2.075a2.6,2.6,0,0,1-.409.826,4.215,4.215,0,0,1,.233-.887c.164-.54.389-1.288.683-2.1a4.593,4.593,0,0,1,1.088-1.957,1.012,1.012,0,0,1,.656-.256c.171.006.253.061.247.074" transform="translate(-97.875 -157.852)" fill="#d1967c"/>
        <path id="Trazado_227447" data-name="Trazado 227447" d="M200.876,319.058c0,.028-.221.078-.592.029a2.712,2.712,0,0,1-1.353-.6h.168l-.331.285a11.566,11.566,0,0,1-1.956,1.493,11.57,11.57,0,0,1,1.785-1.693l.334-.282.085-.071.083.071a3.063,3.063,0,0,0,1.218.632c.34.089.559.1.559.137" transform="translate(-97.128 -157.044)" fill="#d1967c"/>
        <path id="Trazado_227448" data-name="Trazado 227448" d="M216.109,333.295a2.931,2.931,0,0,1,.382-.916,10.673,10.673,0,0,1,3.143-3.578,2.958,2.958,0,0,1,.86-.5,17.26,17.26,0,0,0-4.385,4.991" transform="translate(-106.65 -162.02)" fill="#d1967c"/>
        <path id="Trazado_227449" data-name="Trazado 227449" d="M156.071,248.544a.628.628,0,0,1,.066.131l.17.394.627,1.523,2.261,5.622,7.367,18.582,7.3,18.614,2.183,5.652.581,1.542.145.4a.618.618,0,0,1,.041.141.625.625,0,0,1-.066-.131l-.17-.393-.627-1.524-2.261-5.621-7.369-18.586-7.3-18.611-2.183-5.652-.581-1.542-.145-.4a.617.617,0,0,1-.041-.141" transform="translate(-77.023 -122.659)" fill="#263238"/>
        <path id="Trazado_227450" data-name="Trazado 227450" d="M133.458,284.232c1.076,1.488,1.064,3.334-.027,4.122s-2.847.222-3.923-1.266-1.064-3.334.027-4.122,2.847-.222,3.923,1.266" transform="translate(-63.519 -139.471)" fill="#fff"/>
      </g>
    </g>
    <g id="Grupo_179252" data-name="Grupo 179252">
      <g id="Grupo_179251" data-name="Grupo 179251" clip-path="url(#clip-path)">
        <path id="Trazado_227451" data-name="Trazado 227451" d="M103.594,148.815H3.985A3.984,3.984,0,0,1,0,144.831V86.125A3.984,3.984,0,0,1,3.985,82.14h99.609a3.984,3.984,0,0,1,3.985,3.985v58.706a3.984,3.984,0,0,1-3.985,3.985" transform="translate(0 -40.537)" fill="#263238"/>
        <path id="Trazado_227452" data-name="Trazado 227452" d="M106.41,141.766a8.195,8.195,0,1,1-8.195-8.195,8.2,8.2,0,0,1,8.195,8.195" transform="translate(-44.426 -65.919)" fill="#eeac3a"/>
        <path id="Trazado_227453" data-name="Trazado 227453" d="M102.3,149.472v-4.835a.308.308,0,0,1,.459-.268l4.321,2.436a.308.308,0,0,1,0,.537l-4.321,2.4a.308.308,0,0,1-.457-.269" transform="translate(-50.487 -71.228)" fill="#fff"/>
        <path id="Trazado_227454" data-name="Trazado 227454" d="M11.311,197.743v.173H10.5v-.137l.436-.414c.107-.1.126-.166.126-.227,0-.1-.069-.159-.2-.159a.31.31,0,0,0-.257.114l-.143-.11a.507.507,0,0,1,.417-.182c.239,0,.393.121.393.315a.44.44,0,0,1-.182.347l-.293.279Z" transform="translate(-5.162 -97.124)" fill="#fff"/>
        <path id="Trazado_227455" data-name="Trazado 227455" d="M12.359,197.458a.129.129,0,1,1,.257,0,.129.129,0,1,1-.257,0m0,.6a.129.129,0,1,1,.257,0,.129.129,0,1,1-.257,0" transform="translate(-6.099 -97.384)" fill="#fff"/>
        <path id="Trazado_227456" data-name="Trazado 227456" d="M13.45,196.832v1.1h-.2V197h-.232v-.171Z" transform="translate(-6.423 -97.139)" fill="#fff"/>
        <path id="Trazado_227457" data-name="Trazado 227457" d="M15.268,197.681h-.194v.249h-.2v-.249h-.6v-.141l.541-.708h.218l-.51.676h.36v-.221h.191v.221h.194Z" transform="translate(-7.044 -97.139)" fill="#fff"/>
        <rect id="Rectángulo_57464" data-name="Rectángulo 57464" width="83.317" height="0.38" transform="translate(10.018 100.103)" fill="#fff"/>
        <rect id="Rectángulo_57465" data-name="Rectángulo 57465" width="26.037" height="1.013" transform="translate(9.956 99.694)" fill="#eeac3a"/>
        <path id="Trazado_227458" data-name="Trazado 227458" d="M70.251,196.782a1.268,1.268,0,1,1-1.268-1.268,1.268,1.268,0,0,1,1.268,1.268" transform="translate(-33.419 -96.488)" fill="#eeac3a"/>
        <path id="Trazado_227459" data-name="Trazado 227459" d="M187.568,197.239a.366.366,0,0,1-.4.357c-.3,0-.475-.193-.475-.546a.52.52,0,0,1,.538-.583.549.549,0,0,1,.289.07l-.075.153a.377.377,0,0,0-.209-.053c-.207,0-.337.129-.337.378v0a.376.376,0,0,1,.294-.114.343.343,0,0,1,.378.337m-.2.01c0-.114-.086-.186-.22-.186a.2.2,0,0,0-.223.188c0,.1.082.185.228.185a.191.191,0,0,0,.215-.187" transform="translate(-92.134 -96.958)" fill="#fff"/>
        <path id="Trazado_227460" data-name="Trazado 227460" d="M188.618,197.122a.129.129,0,1,1,.257,0,.129.129,0,1,1-.257,0m0,.6a.129.129,0,1,1,.257,0,.129.129,0,1,1-.257,0" transform="translate(-93.085 -97.218)" fill="#fff"/>
        <path id="Trazado_227461" data-name="Trazado 227461" d="M189.385,197.031c0-.361.2-.565.458-.565s.46.2.46.565-.2.565-.46.565-.458-.2-.458-.565m.712,0c0-.265-.1-.387-.254-.387s-.253.123-.253.387.1.387.253.387.254-.123.254-.387" transform="translate(-93.464 -96.958)" fill="#fff"/>
        <path id="Trazado_227462" data-name="Trazado 227462" d="M191.467,197.031c0-.361.2-.565.458-.565s.46.2.46.565-.2.565-.46.565-.458-.2-.458-.565m.712,0c0-.265-.1-.387-.254-.387s-.253.123-.253.387.1.387.253.387.254-.123.254-.387" transform="translate(-94.491 -96.958)" fill="#fff"/>
        <path id="Trazado_227463" data-name="Trazado 227463" d="M196.412,196.379h-.38v-1.1h1.093v.38h-.713Z" transform="translate(-96.744 -96.375)" fill="#fff"/>
        <path id="Trazado_227464" data-name="Trazado 227464" d="M197.125,199.2h-1.1V198.11h.38v.713h.715Z" transform="translate(-96.743 -97.769)" fill="#fff"/>
        <path id="Trazado_227465" data-name="Trazado 227465" d="M200.57,199.2h-1.093v-.38h.713V198.1h.38Z" transform="translate(-98.444 -97.767)" fill="#fff"/>
        <path id="Trazado_227466" data-name="Trazado 227466" d="M200.57,196.376h-.38v-.713h-.715v-.38h1.1Z" transform="translate(-98.443 -96.375)" fill="#fff"/>
        <path id="Trazado_227467" data-name="Trazado 227467" d="M173.529,94.833a2.789,2.789,0,0,1,.584-.051c.391-.019.97-.044,1.682-.056l.105,0v.108c.008.849.016,1.824.025,2.879l0,.32L175.7,97.8l-.3-.3-.768-.772.178.005-1.2,1.061-.2.173,0-.258c.011-.887.037-1.622.059-2.123a4.142,4.142,0,0,1,.057-.756,6.584,6.584,0,0,1,.057.83c.022.509.048,1.213.059,2.049l-.192-.086,1.185-1.082.09-.083.088.087.772.768.3.3-.224.093c.009-1.055.018-2.03.025-2.879l.106.106c-.664-.012-1.218-.036-1.616-.056a4.658,4.658,0,0,1-.65-.051" transform="translate(-85.58 -46.748)" fill="#fff"/>
        <path id="Trazado_227468" data-name="Trazado 227468" d="M186.6,95.5c.026-.011-.184.242-.561.7s-.934,1.14-1.612,1.9l-.218.245,0-.329c0-.45,0-.93-.006-1.428v-.14l.04.1-1-.977-.225-.219.313,0c.99.013,1.84.058,2.411.088s.889.046.864.056-.394.022-.981.046-1.377.058-2.3.059l.087-.214c.32.3.66.629,1.014.966l.041.038v.2c0,.5,0,.978-.006,1.428l-.219-.084c.639-.7,1.214-1.28,1.642-1.715s.692-.709.718-.721" transform="translate(-90.32 -47.058)" fill="#fff"/>
        <path id="Trazado_227469" data-name="Trazado 227469" d="M187.888,95.632a5.77,5.77,0,0,1-2.267.952,5.819,5.819,0,0,1,2.267-.952" transform="translate(-91.606 -47.188)" fill="#fff"/>
        <path id="Trazado_227470" data-name="Trazado 227470" d="M196.444,94.915a.73.73,0,0,1,.4,0,1.6,1.6,0,0,1,.946.577,1.689,1.689,0,0,1,.271,1.615,1.718,1.718,0,0,1-3.243,0,1.692,1.692,0,0,1,.271-1.616,1.6,1.6,0,0,1,.946-.576.73.73,0,0,1,.4,0,3.28,3.28,0,0,1-.379.1,1.608,1.608,0,0,0-.822.591,1.518,1.518,0,0,0-.191,1.42,1.486,1.486,0,0,0,2.786,0,1.517,1.517,0,0,0-.191-1.42,1.606,1.606,0,0,0-.822-.591,3.281,3.281,0,0,1-.379-.1" transform="translate(-96.1 -46.83)" fill="#fff"/>
        <path id="Trazado_227471" data-name="Trazado 227471" d="M198.4,97.829c-.051.051-.4-.213-.776-.59l-.039-.038v-.064c0-.539.059-.976.132-.976s.132.437.132.976v.01l-.038-.094c.377.379.641.726.59.777" transform="translate(-97.511 -47.456)" fill="#fff"/>
        <path id="Trazado_227472" data-name="Trazado 227472" d="M73.064,99.119c0,.073-11.056.132-24.691.132s-24.694-.059-24.694-.132,11.054-.132,24.694-.132,24.691.059,24.691.132" transform="translate(-11.686 -48.851)" fill="#fff"/>
        <path id="Trazado_227473" data-name="Trazado 227473" d="M15.281,97.349A1.947,1.947,0,1,1,13.333,95.4a1.947,1.947,0,0,1,1.947,1.947" transform="translate(-5.619 -47.082)" fill="#fff"/>
        <path id="Trazado_227474" data-name="Trazado 227474" d="M529.909,350.6H430.3a3.984,3.984,0,0,1-3.985-3.985V287.914a3.984,3.984,0,0,1,3.985-3.985h99.609a3.984,3.984,0,0,1,3.985,3.985V346.62a3.984,3.984,0,0,1-3.985,3.985" transform="translate(-210.391 -140.122)" fill="#263238"/>
        <path id="Trazado_227475" data-name="Trazado 227475" d="M532.725,343.555a8.195,8.195,0,1,1-8.2-8.195,8.2,8.2,0,0,1,8.2,8.195" transform="translate(-254.818 -165.504)" fill="#4adbd1"/>
        <path id="Trazado_227476" data-name="Trazado 227476" d="M528.616,351.261v-4.835a.308.308,0,0,1,.459-.268l4.321,2.436a.308.308,0,0,1,0,.537l-4.321,2.4a.308.308,0,0,1-.457-.269" transform="translate(-260.878 -170.813)" fill="#fff"/>
        <path id="Trazado_227477" data-name="Trazado 227477" d="M437.626,399.532v.173h-.809v-.137l.436-.414c.107-.1.126-.166.126-.227,0-.1-.069-.159-.2-.159a.31.31,0,0,0-.257.115l-.143-.11a.507.507,0,0,1,.417-.182c.239,0,.393.121.393.315a.44.44,0,0,1-.182.347l-.293.279Z" transform="translate(-215.553 -196.709)" fill="#fff"/>
        <path id="Trazado_227478" data-name="Trazado 227478" d="M438.674,399.247a.129.129,0,1,1,.257,0,.129.129,0,1,1-.257,0m0,.6a.129.129,0,1,1,.257,0,.129.129,0,1,1-.257,0" transform="translate(-216.491 -196.969)" fill="#fff"/>
        <path id="Trazado_227479" data-name="Trazado 227479" d="M439.765,398.621v1.1h-.2v-.927h-.233v-.171Z" transform="translate(-216.814 -196.724)" fill="#fff"/>
        <path id="Trazado_227480" data-name="Trazado 227480" d="M441.583,399.47h-.194v.249h-.2v-.249h-.6v-.141l.541-.708h.218l-.51.676h.36v-.221h.191v.221h.194Z" transform="translate(-217.436 -196.724)" fill="#fff"/>
        <rect id="Rectángulo_57466" data-name="Rectángulo 57466" width="83.317" height="0.38" transform="translate(225.941 202.307)" fill="#fff"/>
        <rect id="Rectángulo_57467" data-name="Rectángulo 57467" width="26.037" height="1.013" transform="translate(225.88 201.898)" fill="#4adbd1"/>
        <path id="Trazado_227481" data-name="Trazado 227481" d="M496.567,398.571A1.268,1.268,0,1,1,495.3,397.3a1.268,1.268,0,0,1,1.268,1.268" transform="translate(-243.81 -196.074)" fill="#4adbd1"/>
        <path id="Trazado_227482" data-name="Trazado 227482" d="M613.883,399.028a.366.366,0,0,1-.4.357c-.3,0-.475-.193-.475-.546a.52.52,0,0,1,.538-.583.549.549,0,0,1,.289.07l-.075.153a.376.376,0,0,0-.209-.053c-.207,0-.337.129-.337.378v0a.374.374,0,0,1,.293-.114.343.343,0,0,1,.378.337m-.2.01c0-.114-.086-.186-.219-.186a.2.2,0,0,0-.223.188c0,.1.081.185.227.185a.191.191,0,0,0,.215-.187" transform="translate(-302.526 -196.543)" fill="#fff"/>
        <path id="Trazado_227483" data-name="Trazado 227483" d="M614.933,398.911a.129.129,0,1,1,.257,0,.129.129,0,1,1-.257,0m0,.6a.129.129,0,1,1,.257,0,.129.129,0,1,1-.257,0" transform="translate(-303.477 -196.803)" fill="#fff"/>
        <path id="Trazado_227484" data-name="Trazado 227484" d="M615.7,398.82c0-.361.2-.565.458-.565s.46.2.46.565-.2.565-.46.565-.458-.2-.458-.565m.712,0c0-.265-.1-.387-.254-.387s-.253.123-.253.387.1.387.253.387.254-.123.254-.387" transform="translate(-303.855 -196.543)" fill="#fff"/>
        <path id="Trazado_227485" data-name="Trazado 227485" d="M617.782,398.82c0-.361.2-.565.458-.565s.46.2.46.565-.2.565-.46.565-.458-.2-.458-.565m.712,0c0-.265-.1-.387-.254-.387s-.252.123-.252.387.1.387.252.387.254-.123.254-.387" transform="translate(-304.883 -196.543)" fill="#fff"/>
        <path id="Trazado_227486" data-name="Trazado 227486" d="M622.727,398.168h-.38v-1.1h1.093v.38h-.713Z" transform="translate(-307.135 -195.96)" fill="#fff"/>
        <path id="Trazado_227487" data-name="Trazado 227487" d="M623.44,400.992h-1.1V399.9h.38v.713h.715Z" transform="translate(-307.134 -197.355)" fill="#fff"/>
        <path id="Trazado_227488" data-name="Trazado 227488" d="M626.885,400.989h-1.093v-.38h.713v-.716h.38Z" transform="translate(-308.836 -197.352)" fill="#fff"/>
        <path id="Trazado_227489" data-name="Trazado 227489" d="M626.885,398.166h-.38v-.713h-.715v-.38h1.1Z" transform="translate(-308.835 -195.96)" fill="#fff"/>
        <path id="Trazado_227490" data-name="Trazado 227490" d="M599.844,296.622a2.788,2.788,0,0,1,.584-.051c.391-.019.97-.044,1.682-.056h.105v.108c.008.848.016,1.824.025,2.879l0,.32-.227-.227-.3-.3-.768-.772.178.005-1.2,1.061-.2.173,0-.258c.011-.887.037-1.622.059-2.123a4.2,4.2,0,0,1,.057-.756,6.473,6.473,0,0,1,.057.83c.022.509.048,1.213.059,2.049l-.192-.086,1.185-1.082.09-.083.088.087.772.768.3.3-.224.093c.009-1.055.018-2.031.025-2.879l.106.106c-.664-.012-1.218-.036-1.616-.055a4.657,4.657,0,0,1-.65-.051" transform="translate(-295.971 -146.333)" fill="#fff"/>
        <path id="Trazado_227491" data-name="Trazado 227491" d="M612.917,297.292c.026-.012-.184.241-.561.7s-.934,1.14-1.612,1.9l-.218.246v-.33c0-.449,0-.929-.006-1.428v-.14l.041.1-1-.977-.225-.219.313,0c.99.013,1.84.058,2.411.088s.889.045.864.056-.394.021-.981.045-1.377.059-2.3.06l.087-.215,1.015.967.041.038v.2c0,.5,0,.978-.006,1.428l-.219-.084c.639-.7,1.214-1.28,1.641-1.715s.692-.709.718-.72" transform="translate(-300.711 -146.643)" fill="#fff"/>
        <path id="Trazado_227492" data-name="Trazado 227492" d="M614.2,297.422a5.776,5.776,0,0,1-2.267.952,5.809,5.809,0,0,1,2.267-.952" transform="translate(-301.997 -146.774)" fill="#fff"/>
        <path id="Trazado_227493" data-name="Trazado 227493" d="M622.759,296.7a.73.73,0,0,1,.4,0,1.6,1.6,0,0,1,.946.577,1.69,1.69,0,0,1,.271,1.615,1.718,1.718,0,0,1-3.243,0,1.692,1.692,0,0,1,.271-1.616,1.6,1.6,0,0,1,.946-.576.73.73,0,0,1,.4,0,3.3,3.3,0,0,1-.379.1,1.608,1.608,0,0,0-.822.591,1.518,1.518,0,0,0-.191,1.42,1.486,1.486,0,0,0,2.786,0,1.517,1.517,0,0,0-.191-1.42,1.606,1.606,0,0,0-.822-.591,3.3,3.3,0,0,1-.379-.1" transform="translate(-306.491 -146.416)" fill="#fff"/>
        <path id="Trazado_227494" data-name="Trazado 227494" d="M624.717,299.618c-.051.051-.4-.213-.777-.59l-.039-.039v-.064c0-.539.059-.976.132-.976s.132.437.132.976v.009l-.038-.093c.377.379.641.726.59.777" transform="translate(-307.902 -147.041)" fill="#fff"/>
        <path id="Trazado_227495" data-name="Trazado 227495" d="M499.379,300.908c0,.073-11.056.132-24.691.132s-24.694-.059-24.694-.132,11.054-.132,24.694-.132,24.691.059,24.691.132" transform="translate(-222.077 -148.436)" fill="#fff"/>
        <path id="Trazado_227496" data-name="Trazado 227496" d="M441.6,299.138a1.947,1.947,0,1,1-1.947-1.947,1.947,1.947,0,0,1,1.947,1.947" transform="translate(-216.011 -146.667)" fill="#fff"/>
        <path id="Trazado_227497" data-name="Trazado 227497" d="M448.222,70.822H374.341a3.984,3.984,0,0,1-3.985-3.985V24.078a3.984,3.984,0,0,1,3.985-3.985h73.882a3.984,3.984,0,0,1,3.984,3.985v42.76a3.984,3.984,0,0,1-3.984,3.985" transform="translate(-182.775 -9.916)" fill="#f5f5f5"/>
        <path id="Trazado_227498" data-name="Trazado 227498" d="M439.215,60.162a11.826,11.826,0,0,0-6.439-2.129c-3.256.123-5.974,2.4-8.411,4.565L412.969,72.7a1.54,1.54,0,0,1-2.662-.06L400.216,61.449c-2.093-2.322-4.484-4.8-7.6-5.1-2.522-.245-4.932,1.023-7.052,2.411A50.476,50.476,0,0,0,370.474,74.11l-.118,10.6a5.374,5.374,0,0,0,4.875,3.993h72.1a4.938,4.938,0,0,0,4.875-4.472V74.251a34.4,34.4,0,0,0-12.991-14.09" transform="translate(-182.775 -27.792)" fill="#455a64"/>
        <path id="Trazado_227499" data-name="Trazado 227499" d="M378.961,108.05v.131h-.614v-.1l.33-.314c.082-.077.1-.126.1-.173,0-.076-.053-.121-.155-.121a.235.235,0,0,0-.2.087l-.108-.084a.384.384,0,0,1,.317-.138c.181,0,.3.092.3.239a.333.333,0,0,1-.138.263l-.222.212Z" transform="translate(-186.703 -52.972)" fill="#263238"/>
        <path id="Trazado_227500" data-name="Trazado 227500" d="M379.76,107.835a.1.1,0,1,1,.2,0,.1.1,0,1,1-.2,0m0,.453a.1.1,0,1,1,.2,0,.1.1,0,1,1-.2,0" transform="translate(-187.416 -53.169)" fill="#263238"/>
        <path id="Trazado_227501" data-name="Trazado 227501" d="M380.59,107.36v.833h-.155v-.7h-.176v-.13Z" transform="translate(-187.662 -52.983)" fill="#263238"/>
        <path id="Trazado_227502" data-name="Trazado 227502" d="M381.971,108h-.147v.189h-.15V108h-.457V107.9l.41-.537h.165l-.386.513h.273V107.7h.145v.168h.147Z" transform="translate(-188.135 -52.983)" fill="#263238"/>
        <rect id="Rectángulo_57468" data-name="Rectángulo 57468" width="63.392" height="0.38" transform="translate(195.203 54.641)" fill="#263238"/>
        <rect id="Rectángulo_57469" data-name="Rectángulo 57469" width="19.81" height="1.013" transform="translate(195.156 54.254)" fill="#f4a338"/>
        <path id="Trazado_227503" data-name="Trazado 227503" d="M423.806,107.317a.965.965,0,1,1-.964-.964.964.964,0,0,1,.964.964" transform="translate(-208.201 -52.486)" fill="#f4a338"/>
        <path id="Trazado_227504" data-name="Trazado 227504" d="M513.063,107.667a.278.278,0,0,1-.3.27c-.227,0-.361-.146-.361-.414a.4.4,0,0,1,.408-.443.417.417,0,0,1,.219.054l-.058.116a.285.285,0,0,0-.158-.04c-.157,0-.256.1-.256.287h0a.285.285,0,0,1,.222-.087.261.261,0,0,1,.287.256m-.15.007c0-.087-.066-.142-.167-.142a.152.152,0,0,0-.169.143c0,.079.062.14.173.14a.145.145,0,0,0,.163-.141" transform="translate(-252.874 -52.845)" fill="#263238"/>
        <path id="Trazado_227505" data-name="Trazado 227505" d="M513.863,107.579a.1.1,0,1,1,.2,0,.1.1,0,1,1-.2,0m0,.453a.1.1,0,1,1,.2,0,.1.1,0,1,1-.2,0" transform="translate(-253.597 -53.043)" fill="#263238"/>
        <path id="Trazado_227506" data-name="Trazado 227506" d="M514.447,107.508c0-.273.149-.428.347-.428s.35.155.35.428-.15.428-.35.428-.347-.155-.347-.428m.54,0c0-.2-.078-.294-.193-.294s-.191.093-.191.294.078.294.191.294.193-.093.193-.294" transform="translate(-253.886 -52.845)" fill="#263238"/>
        <path id="Trazado_227507" data-name="Trazado 227507" d="M516.031,107.508c0-.273.15-.428.347-.428s.349.155.349.428-.15.428-.349.428-.347-.155-.347-.428m.54,0c0-.2-.078-.294-.193-.294s-.191.093-.191.294.079.294.191.294.193-.093.193-.294" transform="translate(-254.667 -52.845)" fill="#263238"/>
        <path id="Trazado_227508" data-name="Trazado 227508" d="M519.8,106.967h-.38v-.879h.877v.38h-.5Z" transform="translate(-256.338 -52.356)" fill="#263238"/>
        <path id="Trazado_227509" data-name="Trazado 227509" d="M520.293,109.205h-.878v-.877h.38v.5h.5Z" transform="translate(-256.337 -53.461)" fill="#263238"/>
        <path id="Trazado_227510" data-name="Trazado 227510" d="M523,109.2h-.877v-.38h.5v-.5H523Z" transform="translate(-257.676 -53.459)" fill="#263238"/>
        <path id="Trazado_227511" data-name="Trazado 227511" d="M523,106.965h-.38v-.5h-.5v-.38H523Z" transform="translate(-257.675 -52.356)" fill="#263238"/>
        <path id="Trazado_227512" data-name="Trazado 227512" d="M502.355,29.724a11.684,11.684,0,0,1,1.724-.106l.1,0,0,.109c.014.621.023,1.373.025,2.19v.318l-.225-.225-.23-.229-.584-.588.178.005-.918.8-.2.173.005-.259a16.656,16.656,0,0,1,.115-2.19,20.778,20.778,0,0,1,.115,2.19l-.192-.086.9-.826.09-.083.088.088.588.584.229.23-.224.093c0-.817.011-1.569.025-2.19l.106.106a15.231,15.231,0,0,1-1.724-.106" transform="translate(-247.858 -14.615)" fill="#263238"/>
        <path id="Trazado_227513" data-name="Trazado 227513" d="M512.258,30.229a5.067,5.067,0,0,1-.408.532c-.28.352-.7.882-1.223,1.469l-.217.246,0-.33c0-.344,0-.708-.006-1.086v-.106l.041.095-.763-.744-.225-.219.312,0c.762.012,1.416.055,1.849.085a4.883,4.883,0,0,1,.643.055c-.026.011-.312.022-.76.047s-1.042.061-1.733.063l.087-.215.773.734.041.038v.163c0,.378,0,.742-.006,1.086l-.219-.084c.482-.526.921-.954,1.253-1.282s.539-.538.565-.55" transform="translate(-251.421 -14.847)" fill="#263238"/>
        <path id="Trazado_227514" data-name="Trazado 227514" d="M513.31,30.35c.028.067-.335.284-.811.484s-.885.307-.913.241.335-.284.811-.484.885-.308.913-.241" transform="translate(-252.473 -14.968)" fill="#263238"/>
        <path id="Trazado_227515" data-name="Trazado 227515" d="M519.793,29.8c0-.014.109-.043.31-.012a1.219,1.219,0,0,1,.734.438,1.308,1.308,0,0,1,.216,1.253,1.336,1.336,0,0,1-2.522,0,1.307,1.307,0,0,1,.217-1.253,1.217,1.217,0,0,1,.734-.437c.2-.031.311,0,.311.012s-.108.029-.286.088a1.222,1.222,0,0,0-.611.451,1.134,1.134,0,0,0-.136,1.057,1.1,1.1,0,0,0,2.065,0,1.133,1.133,0,0,0-.136-1.057,1.223,1.223,0,0,0-.611-.451c-.177-.059-.286-.066-.286-.088" transform="translate(-255.865 -14.696)" fill="#263238"/>
        <path id="Trazado_227516" data-name="Trazado 227516" d="M521.278,32.03c-.051.051-.326-.14-.614-.427l-.039-.038V31.5c0-.41.059-.743.132-.743s.132.332.132.743v.007l-.038-.093c.288.288.478.562.427.613" transform="translate(-256.935 -15.18)" fill="#263238"/>
        <path id="Trazado_227517" data-name="Trazado 227517" d="M425.946,32.98c0,.073-8.412.132-18.786.132s-18.788-.059-18.788-.132,8.41-.132,18.788-.132,18.786.059,18.786.132" transform="translate(-191.666 -16.211)" fill="#263238"/>
        <path id="Trazado_227518" data-name="Trazado 227518" d="M381.982,31.664a1.482,1.482,0,1,1-1.482-1.481,1.482,1.482,0,0,1,1.482,1.481" transform="translate(-187.05 -14.896)" fill="#263238"/>
        <path id="Trazado_227519" data-name="Trazado 227519" d="M448.091,70.693c0-.016.228.006.661-.073a3.937,3.937,0,0,0,1.76-.785,3.978,3.978,0,0,0,1.5-2.682c.049-1.247.007-2.706.015-4.338-.01-6.541-.025-16-.042-27.68q-.005-4.382-.009-9.171c-.009-.793.018-1.614-.021-2.405a3.889,3.889,0,0,0-3.007-3.39,5.259,5.259,0,0,0-1.241-.1h-1.282l-21.938.012-50.268.01a3.854,3.854,0,0,0-2.86,1.271,3.982,3.982,0,0,0-1,2.965q0,3.3,0,6.561,0,6.514,0,12.826t0,12.379q0,3.034,0,6,0,1.484,0,2.95,0,.733,0,1.462a4.286,4.286,0,0,0,.192,1.394,3.867,3.867,0,0,0,3,2.6,7.8,7.8,0,0,0,1.392.063l5.569,0,10.649.007,19.115.016,27.678.042,7.524.025,1.957.013c.441,0,.667.014.667.014s-.226.009-.667.014l-1.957.013-7.524.025-27.678.042-19.115.016-10.649.007-5.569,0a8.036,8.036,0,0,1-1.433-.065,4.109,4.109,0,0,1-3.19-2.765,4.539,4.539,0,0,1-.2-1.47q0-.729,0-1.462,0-1.467,0-2.95,0-2.968,0-6,0-6.067,0-12.379t0-12.826q0-3.257,0-6.561a4.713,4.713,0,0,1,.209-1.673,4.133,4.133,0,0,1,3.913-2.827l50.268.011,21.938.012H447.7a5.512,5.512,0,0,1,1.289.1,4.1,4.1,0,0,1,3.166,3.58c.041.833.01,1.624.019,2.426q-.005,4.784-.009,9.171c-.017,11.684-.031,21.139-.042,27.68-.016,1.635.02,3.082-.039,4.347a4.026,4.026,0,0,1-1.544,2.715,3.9,3.9,0,0,1-1.787.77,3.013,3.013,0,0,1-.5.045c-.112,0-.168,0-.168,0" transform="translate(-182.644 -9.787)" fill="#263238"/>
        <path id="Trazado_227520" data-name="Trazado 227520" d="M454.011,49.866a5.44,5.44,0,1,1-5.44-5.44,5.44,5.44,0,0,1,5.44,5.44" transform="translate(-218.69 -21.925)" fill="#455a64"/>
        <path id="Trazado_227521" data-name="Trazado 227521" d="M249.777,29.837a2.668,2.668,0,0,0,1.289-.461,2.441,2.441,0,0,0,.913-1.35,3.945,3.945,0,0,0,.08-1.061q0-.583,0-1.237c.016-3.521.04-8.572.068-14.8q.015-2.345.031-4.905.009-1.279.018-2.609a7.427,7.427,0,0,0-.044-1.3,2.215,2.215,0,0,0-.581-1.1,2.091,2.091,0,0,0-1.106-.589A10.851,10.851,0,0,0,249.074.4l-2.893.019-6.038.039L213.259.6a2.192,2.192,0,0,0-2.122,2.023q-.021,1.757-.043,3.491-.035,3.483-.069,6.859c-.048,4.5-.093,8.834-.137,12.967q-.008.775-.017,1.54a2.306,2.306,0,0,0,.333,1.34,2.1,2.1,0,0,0,1.034.855,3.644,3.644,0,0,0,1.388.134l5.7-.016,10.223-.021,14.8,0,4.025.023,1.047.018a2.1,2.1,0,0,1,.357.022,2.054,2.054,0,0,1-.357.025l-1.046.028-4.025.062-14.8.144-10.223.077-5.7.038a3.99,3.99,0,0,1-1.534-.154,2.506,2.506,0,0,1-1.239-1.018,2.716,2.716,0,0,1-.4-1.563q.006-.764.013-1.54c.035-4.133.072-8.471.11-12.967q.03-3.373.062-6.859.021-1.75.043-3.526A2.65,2.65,0,0,1,213.257.144L240.141.032l6.038-.02L249.072,0a10.626,10.626,0,0,1,1.447.041,2.473,2.473,0,0,1,1.306.7,2.6,2.6,0,0,1,.677,1.287,7.6,7.6,0,0,1,.045,1.378q-.016,1.33-.032,2.609-.032,2.557-.061,4.9c-.09,6.231-.163,11.283-.214,14.8q-.011.654-.022,1.237a4.053,4.053,0,0,1-.106,1.1,2.519,2.519,0,0,1-.991,1.39,2.3,2.3,0,0,1-.984.377,1.334,1.334,0,0,1-.359.009" transform="translate(-103.86 0)" fill="#5573c6"/>
        <path id="Trazado_227522" data-name="Trazado 227522" d="M250.071,21.911l5,3-5.076,3.011-5.076,3.011L245,24.922l.078-6.012Z" transform="translate(-120.869 -9.332)" fill="#5573c6"/>
      </g>
    </g>
  </g>
</svg>
