<?xml version="1.0" encoding="utf-8"?>
<!-- Generator: Adobe Illustrator 26.2.1, SVG Export Plug-In . SVG Version: 6.00 Build 0)  -->
<svg version="1.1" id="Layer_1" xmlns="http://www.w3.org/2000/svg" xmlns:xlink="http://www.w3.org/1999/xlink" x="0px" y="0px"
	 viewBox="0 0 838 478.4" style="enable-background:new 0 0 838 478.4;" xml:space="preserve">
<style type="text/css">
	.st0{filter:url(#Trazado_238553);}
	.st1{fill:#C3CEEB;}
	.st2{filter:url(#Trazado_238554);}
	.st3{filter:url(#Trazado_238552);}
	.st4{fill:#E8E8E8;}
	.st5{filter:url(#Trazado_238564);}
	.st6{filter:url(#Trazado_238555);}
	.st7{filter:url(#Trazado_238565);}
	.st8{fill:#FBDFB9;}
	.st9{filter:url(#Trazado_238566);}
	.st10{filter:url(#Trazado_238567);}
	.st11{fill:#12263F;}
	.st12{fill:none;stroke:#12263F;stroke-width:3;}
	.st13{fill:none;stroke:#12263F;stroke-width:3;stroke-dasharray:5,2;}
	.st14{clip-path:url(#SVGID_00000009575309593128479590000012344974318942965660_);}
	.st15{fill:#1AAFA5;}
	.st16{clip-path:url(#SVGID_00000075855865406923208450000002262678735049987731_);}
	.st17{fill:#FF0000;}
	.st18{clip-path:url(#SVGID_00000003795761949630179920000011114392199065973648_);}
</style>
<filter  filterUnits="userSpaceOnUse" height="91" id="Trazado_238567" width="203" x="308" y="334">
	<feOffset  dy="3" input="SourceAlpha"></feOffset>
	<feGaussianBlur  result="blur-8" stdDeviation="3"></feGaussianBlur>
	<feFlood  flood-opacity="0.161"></feFlood>
	<feComposite  in2="blur-8" operator="in"></feComposite>
	<feComposite  in="SourceGraphic" operator="over"></feComposite>
</filter>
<filter  filterUnits="userSpaceOnUse" height="91" id="Trazado_238566" width="204" x="634" y="334">
	<feOffset  dy="3" input="SourceAlpha"></feOffset>
	<feGaussianBlur  result="blur-7" stdDeviation="3"></feGaussianBlur>
	<feFlood  flood-opacity="0.161"></feFlood>
	<feComposite  in2="blur-7" operator="in"></feComposite>
	<feComposite  in="SourceGraphic" operator="over"></feComposite>
</filter>
<filter  filterUnits="userSpaceOnUse" height="91" id="Trazado_238565" width="204" x="0" y="334">
	<feOffset  dy="3" input="SourceAlpha"></feOffset>
	<feGaussianBlur  result="blur-6" stdDeviation="3"></feGaussianBlur>
	<feFlood  flood-opacity="0.161"></feFlood>
	<feComposite  in2="blur-6" operator="in"></feComposite>
	<feComposite  in="SourceGraphic" operator="over"></feComposite>
</filter>
<filter  filterUnits="userSpaceOnUse" height="91" id="Trazado_238564" width="204" x="634" y="0">
	<feOffset  dy="3" input="SourceAlpha"></feOffset>
	<feGaussianBlur  result="blur-4" stdDeviation="3"></feGaussianBlur>
	<feFlood  flood-opacity="0.161"></feFlood>
	<feComposite  in2="blur-4" operator="in"></feComposite>
	<feComposite  in="SourceGraphic" operator="over"></feComposite>
</filter>
<filter  filterUnits="userSpaceOnUse" height="91" id="Trazado_238555" width="203" x="308" y="0">
	<feOffset  dy="3" input="SourceAlpha"></feOffset>
	<feGaussianBlur  result="blur-5" stdDeviation="3"></feGaussianBlur>
	<feFlood  flood-opacity="0.161"></feFlood>
	<feComposite  in2="blur-5" operator="in"></feComposite>
	<feComposite  in="SourceGraphic" operator="over"></feComposite>
</filter>
<filter  filterUnits="userSpaceOnUse" height="91" id="Trazado_238554" width="203" x="308" y="176">
	<feOffset  dy="3" input="SourceAlpha"></feOffset>
	<feGaussianBlur  result="blur-2" stdDeviation="3"></feGaussianBlur>
	<feFlood  flood-opacity="0.161"></feFlood>
	<feComposite  in2="blur-2" operator="in"></feComposite>
	<feComposite  in="SourceGraphic" operator="over"></feComposite>
</filter>
<filter  filterUnits="userSpaceOnUse" height="91" id="Trazado_238553" width="204" x="0" y="176">
	<feOffset  dy="3" input="SourceAlpha"></feOffset>
	<feGaussianBlur  result="blur" stdDeviation="3"></feGaussianBlur>
	<feFlood  flood-opacity="0.161"></feFlood>
	<feComposite  in2="blur" operator="in"></feComposite>
	<feComposite  in="SourceGraphic" operator="over"></feComposite>
</filter>
<filter  filterUnits="userSpaceOnUse" height="91" id="Trazado_238552" width="204" x="0" y="0">
	<feOffset  dy="3" input="SourceAlpha"></feOffset>
	<feGaussianBlur  result="blur-3" stdDeviation="3"></feGaussianBlur>
	<feFlood  flood-opacity="0.161"></feFlood>
	<feComposite  in2="blur-3" operator="in"></feComposite>
	<feComposite  in="SourceGraphic" operator="over"></feComposite>
</filter>
<g id="Grupo_183604" transform="translate(6288 7348)">
	<g transform="matrix(1, 0, 0, 1, -6288, -7348)" class="st0">
		<path id="Trazado_238553-2_00000176730769235445070950000007456100390976773803_" class="st1" d="M19,182h166c5.5,0,10,4.5,10,10
			v53c0,5.5-4.5,10-10,10H19c-5.5,0-10-4.5-10-10v-53C9,186.5,13.5,182,19,182z"/>
	</g>
	<g transform="matrix(1, 0, 0, 1, -6288, -7348)" class="st2">
		<path id="Trazado_238554-2_00000047758976223295106690000008409425599340345220_" class="st1" d="M327,182h165c5.5,0,10,4.5,10,10
			v53c0,5.5-4.5,10-10,10H327c-5.5,0-10-4.5-10-10v-53C317,186.5,321.5,182,327,182z"/>
	</g>
	<g transform="matrix(1, 0, 0, 1, -6288, -7348)" class="st3">
		<path id="Trazado_238552-2_00000170254425018225212600000009495941137692125089_" class="st4" d="M19,6h166c5.5,0,10,4.5,10,10v53
			c0,5.5-4.5,10-10,10H19c-5.5,0-10-4.5-10-10V16C9,10.5,13.5,6,19,6z"/>
	</g>
	<g transform="matrix(1, 0, 0, 1, -6288, -7348)" class="st5">
		<path id="Trazado_238564-2_00000073696248408915002190000007841997792331871116_" class="st4" d="M653,6h166c5.5,0,10,4.5,10,10
			v53c0,5.5-4.5,10-10,10H653c-5.5,0-10-4.5-10-10V16C643,10.5,647.5,6,653,6z"/>
	</g>
	<g transform="matrix(1, 0, 0, 1, -6288, -7348)" class="st6">
		<path id="Trazado_238555-2_00000049901221942786722070000002346335724430724250_" class="st4" d="M327,6h165c5.5,0,10,4.5,10,10
			v53c0,5.5-4.5,10-10,10H327c-5.5,0-10-4.5-10-10V16C317,10.5,321.5,6,327,6z"/>
	</g>
	<g transform="matrix(1, 0, 0, 1, -6288, -7348)" class="st7">
		<path id="Trazado_238565-2_00000152973875896914997830000015980225543649525675_" class="st8" d="M19,340h166c5.5,0,10,4.5,10,10
			v53c0,5.5-4.5,10-10,10H19c-5.5,0-10-4.5-10-10v-53C9,344.5,13.5,340,19,340z"/>
	</g>
	<g transform="matrix(1, 0, 0, 1, -6288, -7348)" class="st9">
		<path id="Trazado_238566-2_00000002377370881966963050000007803385832689082556_" class="st8" d="M653,340h166c5.5,0,10,4.5,10,10
			v53c0,5.5-4.5,10-10,10H653c-5.5,0-10-4.5-10-10v-53C643,344.5,647.5,340,653,340z"/>
	</g>
	<g transform="matrix(1, 0, 0, 1, -6288, -7348)" class="st10">
		<path id="Trazado_238567-2_00000079482234065715550040000007934476628955303837_" class="st8" d="M327,340h165c5.5,0,10,4.5,10,10
			v53c0,5.5-4.5,10-10,10H327c-5.5,0-10-4.5-10-10v-53C317,344.5,321.5,340,327,340z"/>
	</g>
	<path id="Trazado_238556" class="st11" d="M-6252.1-7126h5.3v2h-7.8v-12.1h2.5V-7126z M-6245.9-7128.6c0-0.8,0.2-1.6,0.5-2.4
		c0.3-0.7,0.8-1.2,1.5-1.6c0.7-0.4,1.5-0.6,2.2-0.6c1.1,0,2.2,0.4,3,1.1c0.8,0.8,1.3,1.9,1.3,3l0,0.6c0.1,1.2-0.4,2.4-1.2,3.3
		c-0.8,0.8-1.9,1.3-3.1,1.2c-1.2,0.1-2.3-0.4-3.1-1.2c-0.8-0.9-1.2-2.2-1.2-3.4L-6245.9-7128.6z M-6243.5-7128.4
		c0,0.7,0.1,1.4,0.5,2c0.3,0.4,0.8,0.7,1.4,0.7c0.5,0,1-0.2,1.4-0.7c0.4-0.6,0.5-1.4,0.5-2.1c0-0.7-0.1-1.4-0.5-1.9
		c-0.3-0.5-0.8-0.7-1.4-0.7c-0.5,0-1.1,0.2-1.4,0.7C-6243.4-7129.9-6243.5-7129.1-6243.5-7128.4L-6243.5-7128.4z M-6236.2-7128.6
		c-0.1-1.2,0.3-2.4,1-3.3c0.6-0.8,1.6-1.3,2.7-1.3c0.9,0,1.7,0.3,2.3,1l0.1-0.8h2.2v8.7c0,0.7-0.2,1.4-0.5,2c-0.4,0.6-0.9,1-1.5,1.3
		c-0.7,0.3-1.5,0.5-2.3,0.5c-0.7,0-1.3-0.1-1.9-0.4c-0.6-0.2-1-0.6-1.4-1l1.1-1.5c0.5,0.6,1.3,1,2.2,1c0.5,0,1.1-0.2,1.5-0.5
		c0.4-0.4,0.6-0.9,0.5-1.4v-0.5c-0.6,0.6-1.4,1-2.2,0.9c-1,0-2-0.4-2.6-1.3C-6235.9-7126.1-6236.3-7127.3-6236.2-7128.6
		L-6236.2-7128.6z M-6233.8-7128.4c0,0.7,0.1,1.3,0.5,1.9c0.3,0.5,0.8,0.7,1.3,0.7c0.6,0,1.2-0.3,1.6-0.8v-3.8
		c-0.3-0.5-0.9-0.9-1.6-0.8c-0.5,0-1.1,0.3-1.4,0.7C-6233.7-7129.9-6233.9-7129.1-6233.8-7128.4L-6233.8-7128.4z M-6223.7-7124h-2.4
		v-9h2.4L-6223.7-7124z M-6226.2-7135.3c0-0.3,0.1-0.7,0.4-0.9c0.3-0.2,0.6-0.4,1-0.3c0.4,0,0.7,0.1,1,0.3c0.2,0.2,0.4,0.6,0.4,0.9
		c0,0.3-0.1,0.7-0.4,0.9c-0.3,0.2-0.6,0.4-1,0.3c-0.4,0-0.7-0.1-1-0.3C-6226.1-7134.6-6226.2-7135-6226.2-7135.3z M-6217.9-7125.8
		c0.4,0,0.8-0.1,1.1-0.4c0.3-0.2,0.4-0.6,0.4-1h2.2c0,0.6-0.2,1.2-0.5,1.7c-0.3,0.5-0.8,0.9-1.3,1.2c-0.6,0.3-1.2,0.4-1.9,0.4
		c-1.1,0.1-2.3-0.4-3-1.2c-0.8-0.9-1.2-2.2-1.1-3.4v-0.2c-0.1-1.2,0.3-2.4,1.1-3.3c0.8-0.8,1.9-1.3,3-1.2c1,0,2,0.3,2.7,1
		c0.7,0.7,1.1,1.6,1,2.6h-2.2c0-0.4-0.1-0.8-0.4-1.1c-0.3-0.3-0.7-0.5-1.1-0.4c-0.5,0-1,0.2-1.3,0.6c-0.3,0.6-0.5,1.3-0.4,2v0.2
		c-0.1,0.7,0.1,1.4,0.4,2C-6218.9-7126-6218.4-7125.7-6217.9-7125.8z M-6207.6-7124c-0.1-0.3-0.2-0.5-0.2-0.8c-0.6,0.6-1.4,1-2.3,1
		c-0.8,0-1.6-0.2-2.2-0.8c-0.6-0.5-0.9-1.2-0.9-1.9c0-0.9,0.4-1.7,1.1-2.2c0.9-0.6,2-0.8,3.1-0.8h1.1v-0.5c0-0.4-0.1-0.7-0.3-1
		c-0.3-0.3-0.6-0.4-1-0.4c-0.3,0-0.7,0.1-1,0.3c-0.2,0.2-0.4,0.5-0.3,0.8h-2.4c0-0.5,0.2-1,0.5-1.4c0.4-0.5,0.8-0.8,1.4-1
		c0.6-0.3,1.3-0.4,2-0.4c1-0.1,1.9,0.2,2.6,0.8c0.7,0.6,1,1.5,1,2.3v3.9c0,0.7,0.1,1.3,0.4,1.9v0.1H-6207.6z M-6209.6-7125.7
		c0.3,0,0.7-0.1,1-0.2c0.3-0.1,0.5-0.4,0.7-0.6v-1.5h-0.9c-1.2,0-1.8,0.4-1.9,1.2l0,0.1c0,0.3,0.1,0.6,0.3,0.7
		C-6210.2-7125.8-6209.9-7125.6-6209.6-7125.7z M-6199.8-7128.6c-0.1-1.2,0.3-2.4,0.9-3.3c0.6-0.8,1.6-1.3,2.6-1.2
		c0.8,0,1.6,0.3,2.2,1v-4.6h2.4v12.8h-2.2l-0.1-1c-0.5,0.7-1.4,1.1-2.3,1.1c-1,0-2-0.4-2.5-1.2
		C-6199.6-7126.1-6199.9-7127.3-6199.8-7128.6L-6199.8-7128.6z M-6197.4-7128.4c0,0.7,0.1,1.3,0.4,1.9c0.3,0.4,0.8,0.7,1.3,0.7
		c0.7,0,1.3-0.3,1.6-0.9v-3.6c-0.3-0.6-0.9-1-1.5-0.9C-6196.9-7131.2-6197.4-7130.3-6197.4-7128.4z M-6185.8-7123.8
		c-1.2,0-2.4-0.4-3.2-1.2c-0.8-0.9-1.3-2-1.2-3.2v-0.2c0-0.8,0.2-1.7,0.5-2.4c0.3-0.7,0.8-1.3,1.5-1.6c0.7-0.4,1.4-0.6,2.2-0.6
		c1.1-0.1,2.2,0.4,2.9,1.2c0.8,0.9,1.1,2.1,1.1,3.3v1h-5.7c0.1,0.5,0.3,1,0.7,1.4c0.4,0.4,0.9,0.6,1.5,0.5c0.8,0,1.7-0.3,2.2-1
		l1.2,1.3c-0.4,0.5-0.9,0.9-1.5,1.2C-6184.4-7124-6185-7123.8-6185.8-7123.8z M-6186-7131.2c-0.4,0-0.9,0.2-1.2,0.5
		c-0.3,0.4-0.5,0.9-0.6,1.4h3.3v-0.2c0-0.5-0.1-0.9-0.4-1.2C-6185.2-7131.1-6185.6-7131.2-6186-7131.2z M-6174.3-7133l0.1,1
		c0.6-0.8,1.6-1.2,2.6-1.2c0.8-0.1,1.6,0.2,2.1,0.8c0.5,0.7,0.8,1.6,0.7,2.5v5.8h-2.4v-5.8c0-0.4-0.1-0.8-0.3-1.1
		c-0.3-0.3-0.7-0.4-1.1-0.3c-0.6,0-1.2,0.3-1.5,0.9v6.3h-2.4v-9H-6174.3z M-6162.8-7123.8c-1.2,0-2.4-0.4-3.2-1.2
		c-0.8-0.9-1.3-2-1.2-3.2v-0.2c0-0.8,0.2-1.7,0.5-2.4c0.3-0.7,0.8-1.3,1.5-1.6c0.7-0.4,1.4-0.6,2.2-0.6c1.1-0.1,2.2,0.4,2.9,1.2
		c0.8,0.9,1.1,2.1,1.1,3.3v1h-5.7c0.1,0.5,0.3,1,0.7,1.4c0.4,0.4,0.9,0.6,1.5,0.5c0.8,0,1.7-0.3,2.2-1l1.2,1.3
		c-0.4,0.5-0.9,0.9-1.5,1.2C-6161.4-7124-6162.1-7123.8-6162.8-7123.8z M-6163.1-7131.2c-0.4,0-0.9,0.2-1.2,0.5
		c-0.3,0.4-0.5,0.9-0.6,1.4h3.3v-0.2c0-0.5-0.1-0.9-0.4-1.2C-6162.2-7131.1-6162.6-7131.2-6163.1-7131.2z M-6158.1-7128.6
		c-0.1-1.2,0.3-2.4,1-3.3c0.6-0.8,1.6-1.3,2.7-1.3c0.9,0,1.7,0.3,2.3,1l0.1-0.8h2.2v8.7c0,0.7-0.2,1.4-0.5,2c-0.4,0.6-0.9,1-1.5,1.3
		c-0.7,0.3-1.5,0.5-2.3,0.5c-0.7,0-1.3-0.1-1.9-0.4c-0.6-0.2-1-0.6-1.4-1l1.1-1.5c0.5,0.6,1.3,1,2.2,1c0.5,0,1.1-0.2,1.5-0.5
		c0.4-0.4,0.6-0.9,0.5-1.4v-0.5c-0.6,0.6-1.4,1-2.2,0.9c-1,0-2-0.4-2.6-1.3C-6157.8-7126.1-6158.2-7127.3-6158.1-7128.6
		L-6158.1-7128.6z M-6155.7-7128.4c0,0.7,0.1,1.3,0.5,1.9c0.3,0.5,0.8,0.7,1.3,0.7c0.6,0,1.2-0.3,1.6-0.8v-3.8
		c-0.3-0.5-0.9-0.9-1.6-0.8c-0.5,0-1.1,0.3-1.4,0.7C-6155.6-7129.9-6155.8-7129.1-6155.7-7128.4z M-6148.4-7128.6
		c0-0.8,0.2-1.6,0.5-2.4c0.3-0.7,0.8-1.2,1.5-1.6c0.7-0.4,1.5-0.6,2.2-0.6c1.1,0,2.2,0.4,3,1.1c0.8,0.8,1.3,1.9,1.3,3l0,0.6
		c0.1,1.2-0.4,2.4-1.2,3.3c-0.8,0.8-1.9,1.3-3.1,1.2c-1.2,0.1-2.3-0.4-3.1-1.2c-0.8-0.9-1.2-2.2-1.2-3.4L-6148.4-7128.6z
		 M-6146-7128.4c0,0.7,0.1,1.4,0.5,2c0.3,0.4,0.8,0.7,1.4,0.7c0.5,0,1-0.2,1.4-0.7c0.4-0.6,0.5-1.4,0.5-2.1c0-0.7-0.1-1.4-0.5-1.9
		c-0.3-0.5-0.8-0.7-1.4-0.7c-0.5,0-1.1,0.2-1.4,0.7C-6145.9-7129.9-6146.1-7129.1-6146-7128.4L-6146-7128.4z M-6134.7-7125.8
		c0.4,0,0.8-0.1,1.1-0.4c0.3-0.2,0.4-0.6,0.4-1h2.2c0,0.6-0.2,1.2-0.5,1.7c-0.3,0.5-0.8,0.9-1.3,1.2c-0.6,0.3-1.2,0.4-1.9,0.4
		c-1.1,0.1-2.3-0.4-3-1.2c-0.8-0.9-1.2-2.2-1.1-3.4v-0.2c-0.1-1.2,0.3-2.4,1.1-3.3c0.8-0.8,1.9-1.3,3-1.2c1,0,2,0.3,2.7,1
		c0.7,0.7,1.1,1.6,1,2.6h-2.2c0-0.4-0.1-0.8-0.4-1.1c-0.3-0.3-0.7-0.5-1.1-0.4c-0.5,0-1,0.2-1.3,0.6c-0.3,0.6-0.5,1.3-0.4,2v0.2
		c-0.1,0.7,0.1,1.4,0.4,2C-6135.7-7126-6135.2-7125.7-6134.7-7125.8z M-6127-7124h-2.4v-9h2.4V-7124z M-6129.6-7135.3
		c0-0.3,0.1-0.7,0.4-0.9c0.3-0.2,0.6-0.4,1-0.3c0.4,0,0.7,0.1,1,0.3c0.2,0.2,0.4,0.6,0.4,0.9c0,0.3-0.1,0.7-0.4,0.9
		c-0.3,0.2-0.6,0.4-1,0.3c-0.4,0-0.7-0.1-1-0.3C-6129.5-7134.6-6129.6-7135-6129.6-7135.3z M-6125.4-7128.6c0-0.8,0.2-1.6,0.5-2.4
		c0.3-0.7,0.8-1.2,1.5-1.6c0.7-0.4,1.5-0.6,2.2-0.6c1.1,0,2.2,0.4,3,1.1c0.8,0.8,1.3,1.9,1.3,3l0,0.6c0.1,1.2-0.4,2.4-1.2,3.3
		c-0.8,0.8-1.9,1.3-3.1,1.2c-1.2,0.1-2.3-0.4-3.1-1.2c-0.8-0.9-1.2-2.2-1.2-3.4L-6125.4-7128.6z M-6123-7128.4c0,0.7,0.1,1.4,0.5,2
		c0.3,0.4,0.8,0.7,1.4,0.7c0.5,0,1-0.2,1.4-0.7c0.4-0.6,0.5-1.4,0.5-2.1c0-0.7-0.1-1.4-0.5-1.9c-0.3-0.5-0.8-0.7-1.4-0.7
		c-0.5,0-1.1,0.2-1.4,0.7C-6122.9-7129.9-6123.1-7129.1-6123-7128.4L-6123-7128.4z"/>
	<path id="Trazado_238568" class="st11" d="M-5618.1-7126h5.3v2h-7.8v-12.1h2.5V-7126z M-5611.9-7128.6c0-0.8,0.2-1.6,0.5-2.4
		c0.3-0.7,0.8-1.2,1.5-1.6c0.7-0.4,1.5-0.6,2.2-0.6c1.1,0,2.2,0.4,3,1.1c0.8,0.8,1.3,1.9,1.3,3l0,0.6c0.1,1.2-0.4,2.4-1.2,3.3
		c-0.8,0.8-1.9,1.3-3.1,1.2c-1.2,0.1-2.3-0.4-3.1-1.2c-0.8-0.9-1.2-2.2-1.2-3.4L-5611.9-7128.6z M-5609.5-7128.4
		c0,0.7,0.1,1.4,0.5,2c0.3,0.4,0.8,0.7,1.4,0.7c0.5,0,1-0.2,1.4-0.7c0.4-0.6,0.5-1.4,0.5-2.1c0-0.7-0.1-1.4-0.5-1.9
		c-0.3-0.5-0.8-0.7-1.4-0.7c-0.5,0-1.1,0.2-1.4,0.7C-5609.4-7129.9-5609.5-7129.1-5609.5-7128.4L-5609.5-7128.4z M-5602.2-7128.6
		c-0.1-1.2,0.3-2.4,1-3.3c0.6-0.8,1.6-1.3,2.7-1.3c0.9,0,1.7,0.3,2.3,1l0.1-0.8h2.2v8.7c0,0.7-0.2,1.4-0.5,2c-0.4,0.6-0.9,1-1.5,1.3
		c-0.7,0.3-1.5,0.5-2.3,0.5c-0.7,0-1.3-0.1-1.9-0.4c-0.6-0.2-1-0.6-1.4-1l1.1-1.5c0.5,0.6,1.3,1,2.2,1c0.5,0,1.1-0.2,1.5-0.5
		c0.4-0.4,0.6-0.9,0.5-1.4v-0.5c-0.6,0.6-1.4,1-2.2,0.9c-1,0-2-0.4-2.6-1.3C-5601.9-7126.1-5602.3-7127.3-5602.2-7128.6
		L-5602.2-7128.6z M-5599.8-7128.4c0,0.7,0.1,1.3,0.5,1.9c0.3,0.5,0.8,0.7,1.3,0.7c0.6,0,1.2-0.3,1.6-0.8v-3.8
		c-0.3-0.5-0.9-0.9-1.6-0.8c-0.5,0-1.1,0.3-1.4,0.7C-5599.7-7129.9-5599.9-7129.1-5599.8-7128.4L-5599.8-7128.4z M-5589.7-7124h-2.4
		v-9h2.4L-5589.7-7124z M-5592.2-7135.3c0-0.3,0.1-0.7,0.4-0.9c0.3-0.2,0.6-0.4,1-0.3c0.4,0,0.7,0.1,1,0.3c0.2,0.2,0.4,0.6,0.4,0.9
		c0,0.3-0.1,0.7-0.4,0.9c-0.3,0.2-0.6,0.4-1,0.3c-0.4,0-0.7-0.1-1-0.3C-5592.1-7134.6-5592.2-7135-5592.2-7135.3z M-5583.9-7125.8
		c0.4,0,0.8-0.1,1.1-0.4c0.3-0.2,0.4-0.6,0.4-1h2.2c0,0.6-0.2,1.2-0.5,1.7c-0.3,0.5-0.8,0.9-1.3,1.2c-0.6,0.3-1.2,0.4-1.9,0.4
		c-1.1,0.1-2.3-0.4-3-1.2c-0.8-0.9-1.2-2.2-1.1-3.4v-0.2c-0.1-1.2,0.3-2.4,1.1-3.3c0.8-0.8,1.9-1.3,3-1.2c1,0,2,0.3,2.7,1
		c0.7,0.7,1.1,1.6,1,2.6h-2.2c0-0.4-0.1-0.8-0.4-1.1c-0.3-0.3-0.7-0.5-1.1-0.4c-0.5,0-1,0.2-1.3,0.6c-0.3,0.6-0.5,1.3-0.4,2v0.2
		c-0.1,0.7,0.1,1.4,0.4,2C-5584.9-7126-5584.4-7125.7-5583.9-7125.8z M-5573.6-7124c-0.1-0.3-0.2-0.5-0.2-0.8c-0.6,0.6-1.4,1-2.3,1
		c-0.8,0-1.6-0.2-2.2-0.8c-0.6-0.5-0.9-1.2-0.9-1.9c0-0.9,0.4-1.7,1.1-2.2c0.9-0.6,2-0.8,3.1-0.8h1.1v-0.5c0-0.4-0.1-0.7-0.3-1
		c-0.3-0.3-0.6-0.4-1-0.4c-0.3,0-0.7,0.1-1,0.3c-0.2,0.2-0.4,0.5-0.3,0.8h-2.4c0-0.5,0.2-1,0.5-1.4c0.4-0.5,0.8-0.8,1.4-1
		c0.6-0.3,1.3-0.4,2-0.4c1-0.1,1.9,0.2,2.6,0.8c0.7,0.6,1,1.5,1,2.3v3.9c0,0.7,0.1,1.3,0.4,1.9v0.1H-5573.6z M-5575.6-7125.7
		c0.3,0,0.7-0.1,1-0.2c0.3-0.1,0.5-0.4,0.7-0.6v-1.5h-0.9c-1.2,0-1.8,0.4-1.9,1.2l0,0.1c0,0.3,0.1,0.6,0.3,0.7
		C-5576.2-7125.8-5575.9-7125.6-5575.6-7125.7z M-5565.8-7128.6c-0.1-1.2,0.3-2.4,0.9-3.3c0.6-0.8,1.6-1.3,2.6-1.2
		c0.8,0,1.6,0.3,2.2,1v-4.6h2.4v12.8h-2.2l-0.1-1c-0.5,0.7-1.4,1.1-2.3,1.1c-1,0-2-0.4-2.5-1.2
		C-5565.6-7126.1-5565.9-7127.3-5565.8-7128.6L-5565.8-7128.6z M-5563.4-7128.4c0,0.7,0.1,1.3,0.4,1.9c0.3,0.4,0.8,0.7,1.3,0.7
		c0.7,0,1.3-0.3,1.6-0.9v-3.6c-0.3-0.6-0.9-1-1.5-0.9C-5562.9-7131.2-5563.4-7130.3-5563.4-7128.4z M-5551.8-7123.8
		c-1.2,0-2.4-0.4-3.2-1.2c-0.8-0.9-1.3-2-1.2-3.2v-0.2c0-0.8,0.2-1.7,0.5-2.4c0.3-0.7,0.8-1.3,1.5-1.6c0.7-0.4,1.4-0.6,2.2-0.6
		c1.1-0.1,2.2,0.4,2.9,1.2c0.8,0.9,1.1,2.1,1.1,3.3v1h-5.7c0.1,0.5,0.3,1,0.7,1.4c0.4,0.4,0.9,0.6,1.5,0.5c0.8,0,1.7-0.3,2.2-1
		l1.2,1.3c-0.4,0.5-0.9,0.9-1.5,1.2C-5550.4-7124-5551-7123.8-5551.8-7123.8z M-5552-7131.2c-0.4,0-0.9,0.2-1.2,0.5
		c-0.3,0.4-0.5,0.9-0.6,1.4h3.3v-0.2c0-0.5-0.1-0.9-0.4-1.2C-5551.2-7131.1-5551.6-7131.2-5552-7131.2z M-5540.3-7133l0.1,1
		c0.6-0.8,1.6-1.2,2.6-1.2c0.8-0.1,1.6,0.2,2.1,0.8c0.5,0.7,0.8,1.6,0.7,2.5v5.8h-2.4v-5.8c0-0.4-0.1-0.8-0.3-1.1
		c-0.3-0.3-0.7-0.4-1.1-0.3c-0.6,0-1.2,0.3-1.5,0.9v6.3h-2.4v-9H-5540.3z M-5528.8-7123.8c-1.2,0-2.4-0.4-3.2-1.2
		c-0.8-0.9-1.3-2-1.2-3.2v-0.2c0-0.8,0.2-1.7,0.5-2.4c0.3-0.7,0.8-1.3,1.5-1.6c0.7-0.4,1.4-0.6,2.2-0.6c1.1-0.1,2.2,0.4,2.9,1.2
		c0.8,0.9,1.1,2.1,1.1,3.3v1h-5.7c0.1,0.5,0.3,1,0.7,1.4c0.4,0.4,0.9,0.6,1.5,0.5c0.8,0,1.7-0.3,2.2-1l1.2,1.3
		c-0.4,0.5-0.9,0.9-1.5,1.2C-5527.4-7124-5528.1-7123.8-5528.8-7123.8z M-5529.1-7131.2c-0.4,0-0.9,0.2-1.2,0.5
		c-0.3,0.4-0.5,0.9-0.6,1.4h3.3v-0.2c0-0.5-0.1-0.9-0.4-1.2C-5528.2-7131.1-5528.6-7131.2-5529.1-7131.2z M-5524.1-7128.6
		c-0.1-1.2,0.3-2.4,1-3.3c0.6-0.8,1.6-1.3,2.7-1.3c0.9,0,1.7,0.3,2.3,1l0.1-0.8h2.2v8.7c0,0.7-0.2,1.4-0.5,2c-0.4,0.6-0.9,1-1.5,1.3
		c-0.7,0.3-1.5,0.5-2.3,0.5c-0.7,0-1.3-0.1-1.9-0.4c-0.6-0.2-1-0.6-1.4-1l1.1-1.5c0.5,0.6,1.3,1,2.2,1c0.5,0,1.1-0.2,1.5-0.5
		c0.4-0.4,0.6-0.9,0.5-1.4v-0.5c-0.6,0.6-1.4,1-2.2,0.9c-1,0-2-0.4-2.6-1.3C-5523.8-7126.1-5524.2-7127.3-5524.1-7128.6
		L-5524.1-7128.6z M-5521.7-7128.4c0,0.7,0.1,1.3,0.5,1.9c0.3,0.5,0.8,0.7,1.3,0.7c0.6,0,1.2-0.3,1.6-0.8v-3.8
		c-0.3-0.5-0.9-0.9-1.6-0.8c-0.5,0-1.1,0.3-1.4,0.7C-5521.6-7129.9-5521.8-7129.1-5521.7-7128.4z M-5514.4-7128.6
		c0-0.8,0.2-1.6,0.5-2.4c0.3-0.7,0.8-1.2,1.5-1.6c0.7-0.4,1.5-0.6,2.2-0.6c1.1,0,2.2,0.4,3,1.1c0.8,0.8,1.3,1.9,1.3,3l0,0.6
		c0.1,1.2-0.4,2.4-1.2,3.3c-0.8,0.8-1.9,1.3-3.1,1.2c-1.2,0.1-2.3-0.4-3.1-1.2c-0.8-0.9-1.2-2.2-1.2-3.4L-5514.4-7128.6z
		 M-5512-7128.4c0,0.7,0.1,1.4,0.5,2c0.3,0.4,0.8,0.7,1.4,0.7c0.5,0,1-0.2,1.4-0.7c0.4-0.6,0.5-1.4,0.5-2.1c0-0.7-0.1-1.4-0.5-1.9
		c-0.3-0.5-0.8-0.7-1.4-0.7c-0.5,0-1.1,0.2-1.4,0.7C-5511.9-7129.9-5512.1-7129.1-5512-7128.4L-5512-7128.4z M-5500.7-7125.8
		c0.4,0,0.8-0.1,1.1-0.4c0.3-0.2,0.4-0.6,0.4-1h2.2c0,0.6-0.2,1.2-0.5,1.7c-0.3,0.5-0.8,0.9-1.3,1.2c-0.6,0.3-1.2,0.4-1.9,0.4
		c-1.1,0.1-2.3-0.4-3-1.2c-0.8-0.9-1.2-2.2-1.1-3.4v-0.2c-0.1-1.2,0.3-2.4,1.1-3.3c0.8-0.8,1.9-1.3,3-1.2c1,0,2,0.3,2.7,1
		c0.7,0.7,1.1,1.6,1,2.6h-2.2c0-0.4-0.1-0.8-0.4-1.1c-0.3-0.3-0.7-0.5-1.1-0.4c-0.5,0-1,0.2-1.3,0.6c-0.3,0.6-0.5,1.3-0.4,2v0.2
		c-0.1,0.7,0.1,1.4,0.4,2C-5501.7-7126-5501.2-7125.7-5500.7-7125.8z M-5493-7124h-2.4v-9h2.4V-7124z M-5495.6-7135.3
		c0-0.3,0.1-0.7,0.4-0.9c0.3-0.2,0.6-0.4,1-0.3c0.4,0,0.7,0.1,1,0.3c0.2,0.2,0.4,0.6,0.4,0.9c0,0.3-0.1,0.7-0.4,0.9
		c-0.3,0.2-0.6,0.4-1,0.3c-0.4,0-0.7-0.1-1-0.3C-5495.5-7134.6-5495.6-7135-5495.6-7135.3z M-5491.4-7128.6c0-0.8,0.2-1.6,0.5-2.4
		c0.3-0.7,0.8-1.2,1.5-1.6c0.7-0.4,1.5-0.6,2.2-0.6c1.1,0,2.2,0.4,3,1.1c0.8,0.8,1.3,1.9,1.3,3l0,0.6c0.1,1.2-0.4,2.4-1.2,3.3
		c-0.8,0.8-1.9,1.3-3.1,1.2c-1.2,0.1-2.3-0.4-3.1-1.2c-0.8-0.9-1.2-2.2-1.2-3.4L-5491.4-7128.6z M-5489-7128.4c0,0.7,0.1,1.4,0.5,2
		c0.3,0.4,0.8,0.7,1.4,0.7c0.5,0,1-0.2,1.4-0.7c0.4-0.6,0.5-1.4,0.5-2.1c0-0.7-0.1-1.4-0.5-1.9c-0.3-0.5-0.8-0.7-1.4-0.7
		c-0.5,0-1.1,0.2-1.4,0.7C-5488.9-7129.9-5489.1-7129.1-5489-7128.4L-5489-7128.4z"/>
	<path id="Trazado_238557" class="st11" d="M-5945.1-7126h5.3v2h-7.8v-12.1h2.5V-7126z M-5938.9-7128.6c0-0.8,0.2-1.6,0.5-2.4
		c0.3-0.7,0.8-1.2,1.5-1.6c0.7-0.4,1.5-0.6,2.2-0.6c1.1,0,2.2,0.4,3,1.1c0.8,0.8,1.3,1.9,1.3,3l0,0.6c0.1,1.2-0.4,2.4-1.2,3.3
		c-0.8,0.8-1.9,1.3-3.1,1.2c-1.2,0.1-2.3-0.4-3.1-1.2c-0.8-0.9-1.2-2.2-1.2-3.4L-5938.9-7128.6z M-5936.5-7128.4
		c0,0.7,0.1,1.4,0.5,2c0.3,0.4,0.8,0.7,1.4,0.7c0.5,0,1-0.2,1.4-0.7c0.4-0.6,0.5-1.4,0.5-2.1c0-0.7-0.1-1.4-0.5-1.9
		c-0.3-0.5-0.8-0.7-1.4-0.7c-0.5,0-1.1,0.2-1.4,0.7C-5936.4-7129.9-5936.5-7129.1-5936.5-7128.4L-5936.5-7128.4z M-5929.2-7128.6
		c-0.1-1.2,0.3-2.4,1-3.3c0.6-0.8,1.6-1.3,2.7-1.3c0.9,0,1.7,0.3,2.3,1l0.1-0.8h2.2v8.7c0,0.7-0.2,1.4-0.5,2c-0.4,0.6-0.9,1-1.5,1.3
		c-0.7,0.3-1.5,0.5-2.3,0.5c-0.7,0-1.3-0.1-1.9-0.4c-0.6-0.2-1-0.6-1.4-1l1.1-1.5c0.5,0.6,1.3,1,2.2,1c0.5,0,1.1-0.2,1.5-0.5
		c0.4-0.4,0.6-0.9,0.5-1.4v-0.5c-0.6,0.6-1.4,1-2.2,0.9c-1,0-2-0.4-2.6-1.3C-5928.9-7126.1-5929.3-7127.3-5929.2-7128.6
		L-5929.2-7128.6z M-5926.8-7128.4c0,0.7,0.1,1.3,0.5,1.9c0.3,0.5,0.8,0.7,1.3,0.7c0.6,0,1.2-0.3,1.6-0.8v-3.8
		c-0.3-0.5-0.9-0.9-1.6-0.8c-0.5,0-1.1,0.3-1.4,0.7C-5926.7-7129.9-5926.9-7129.1-5926.8-7128.4L-5926.8-7128.4z M-5916.7-7124h-2.4
		v-9h2.4L-5916.7-7124z M-5919.2-7135.3c0-0.3,0.1-0.7,0.4-0.9c0.3-0.2,0.6-0.4,1-0.3c0.4,0,0.7,0.1,1,0.3c0.2,0.2,0.4,0.6,0.4,0.9
		c0,0.3-0.1,0.7-0.4,0.9c-0.3,0.2-0.6,0.4-1,0.3c-0.4,0-0.7-0.1-1-0.3C-5919.1-7134.6-5919.2-7135-5919.2-7135.3z M-5910.9-7125.8
		c0.4,0,0.8-0.1,1.1-0.4c0.3-0.2,0.4-0.6,0.4-1h2.2c0,0.6-0.2,1.2-0.5,1.7c-0.3,0.5-0.8,0.9-1.3,1.2c-0.6,0.3-1.2,0.4-1.9,0.4
		c-1.1,0.1-2.3-0.4-3-1.2c-0.8-0.9-1.2-2.2-1.1-3.4v-0.2c-0.1-1.2,0.3-2.4,1.1-3.3c0.8-0.8,1.9-1.3,3-1.2c1,0,2,0.3,2.7,1
		c0.7,0.7,1.1,1.6,1,2.6h-2.2c0-0.4-0.1-0.8-0.4-1.1c-0.3-0.3-0.7-0.5-1.1-0.4c-0.5,0-1,0.2-1.3,0.6c-0.3,0.6-0.5,1.3-0.4,2v0.2
		c-0.1,0.7,0.1,1.4,0.4,2C-5911.9-7126-5911.4-7125.7-5910.9-7125.8z M-5900.6-7124c-0.1-0.3-0.2-0.5-0.2-0.8c-0.6,0.6-1.4,1-2.3,1
		c-0.8,0-1.6-0.2-2.2-0.8c-0.6-0.5-0.9-1.2-0.9-1.9c0-0.9,0.4-1.7,1.1-2.2c0.9-0.6,2-0.8,3.1-0.8h1.1v-0.5c0-0.4-0.1-0.7-0.3-1
		c-0.3-0.3-0.6-0.4-1-0.4c-0.3,0-0.7,0.1-1,0.3c-0.2,0.2-0.4,0.5-0.3,0.8h-2.4c0-0.5,0.2-1,0.5-1.4c0.4-0.5,0.8-0.8,1.4-1
		c0.6-0.3,1.3-0.4,2-0.4c1-0.1,1.9,0.2,2.6,0.8c0.7,0.6,1,1.5,1,2.3v3.9c0,0.7,0.1,1.3,0.4,1.9v0.1H-5900.6z M-5902.6-7125.7
		c0.3,0,0.7-0.1,1-0.2c0.3-0.1,0.5-0.4,0.7-0.6v-1.5h-0.9c-1.2,0-1.8,0.4-1.9,1.2l0,0.1c0,0.3,0.1,0.6,0.3,0.7
		C-5903.2-7125.8-5902.9-7125.6-5902.6-7125.7z M-5892.8-7128.6c-0.1-1.2,0.3-2.4,0.9-3.3c0.6-0.8,1.6-1.3,2.6-1.2
		c0.8,0,1.6,0.3,2.2,1v-4.6h2.4v12.8h-2.2l-0.1-1c-0.5,0.7-1.4,1.1-2.3,1.1c-1,0-2-0.4-2.5-1.2
		C-5892.6-7126.1-5892.9-7127.3-5892.8-7128.6L-5892.8-7128.6z M-5890.4-7128.4c0,0.7,0.1,1.3,0.4,1.9c0.3,0.4,0.8,0.7,1.3,0.7
		c0.7,0,1.3-0.3,1.6-0.9v-3.6c-0.3-0.6-0.9-1-1.5-0.9C-5889.9-7131.2-5890.4-7130.3-5890.4-7128.4z M-5878.8-7123.8
		c-1.2,0-2.4-0.4-3.2-1.2c-0.8-0.9-1.3-2-1.2-3.2v-0.2c0-0.8,0.2-1.7,0.5-2.4c0.3-0.7,0.8-1.3,1.5-1.6c0.7-0.4,1.4-0.6,2.2-0.6
		c1.1-0.1,2.2,0.4,2.9,1.2c0.8,0.9,1.1,2.1,1.1,3.3v1h-5.7c0.1,0.5,0.3,1,0.7,1.4c0.4,0.4,0.9,0.6,1.5,0.5c0.8,0,1.7-0.3,2.2-1
		l1.2,1.3c-0.4,0.5-0.9,0.9-1.5,1.2C-5877.4-7124-5878-7123.8-5878.8-7123.8z M-5879-7131.2c-0.4,0-0.9,0.2-1.2,0.5
		c-0.3,0.4-0.5,0.9-0.6,1.4h3.3v-0.2c0-0.5-0.1-0.9-0.4-1.2C-5878.2-7131.1-5878.6-7131.2-5879-7131.2z M-5867.3-7133l0.1,1
		c0.6-0.8,1.6-1.2,2.6-1.2c0.8-0.1,1.6,0.2,2.1,0.8c0.5,0.7,0.8,1.6,0.7,2.5v5.8h-2.4v-5.8c0-0.4-0.1-0.8-0.3-1.1
		c-0.3-0.3-0.7-0.4-1.1-0.3c-0.6,0-1.2,0.3-1.5,0.9v6.3h-2.4v-9H-5867.3z M-5855.8-7123.8c-1.2,0-2.4-0.4-3.2-1.2
		c-0.8-0.9-1.3-2-1.2-3.2v-0.2c0-0.8,0.2-1.7,0.5-2.4c0.3-0.7,0.8-1.3,1.5-1.6c0.7-0.4,1.4-0.6,2.2-0.6c1.1-0.1,2.2,0.4,2.9,1.2
		c0.8,0.9,1.1,2.1,1.1,3.3v1h-5.7c0.1,0.5,0.3,1,0.7,1.4c0.4,0.4,0.9,0.6,1.5,0.5c0.8,0,1.7-0.3,2.2-1l1.2,1.3
		c-0.4,0.5-0.9,0.9-1.5,1.2C-5854.4-7124-5855.1-7123.8-5855.8-7123.8z M-5856.1-7131.2c-0.4,0-0.9,0.2-1.2,0.5
		c-0.3,0.4-0.5,0.9-0.6,1.4h3.3v-0.2c0-0.5-0.1-0.9-0.4-1.2C-5855.2-7131.1-5855.6-7131.2-5856.1-7131.2z M-5851.1-7128.6
		c-0.1-1.2,0.3-2.4,1-3.3c0.6-0.8,1.6-1.3,2.7-1.3c0.9,0,1.7,0.3,2.3,1l0.1-0.8h2.2v8.7c0,0.7-0.2,1.4-0.5,2c-0.4,0.6-0.9,1-1.5,1.3
		c-0.7,0.3-1.5,0.5-2.3,0.5c-0.7,0-1.3-0.1-1.9-0.4c-0.6-0.2-1-0.6-1.4-1l1.1-1.5c0.5,0.6,1.3,1,2.2,1c0.5,0,1.1-0.2,1.5-0.5
		c0.4-0.4,0.6-0.9,0.5-1.4v-0.5c-0.6,0.6-1.4,1-2.2,0.9c-1,0-2-0.4-2.6-1.3C-5850.8-7126.1-5851.2-7127.3-5851.1-7128.6
		L-5851.1-7128.6z M-5848.7-7128.4c0,0.7,0.1,1.3,0.5,1.9c0.3,0.5,0.8,0.7,1.3,0.7c0.6,0,1.2-0.3,1.6-0.8v-3.8
		c-0.3-0.5-0.9-0.9-1.6-0.8c-0.5,0-1.1,0.3-1.4,0.7C-5848.6-7129.9-5848.8-7129.1-5848.7-7128.4z M-5841.4-7128.6
		c0-0.8,0.2-1.6,0.5-2.4c0.3-0.7,0.8-1.2,1.5-1.6c0.7-0.4,1.5-0.6,2.2-0.6c1.1,0,2.2,0.4,3,1.1c0.8,0.8,1.3,1.9,1.3,3l0,0.6
		c0.1,1.2-0.4,2.4-1.2,3.3c-0.8,0.8-1.9,1.3-3.1,1.2c-1.2,0.1-2.3-0.4-3.1-1.2c-0.8-0.9-1.2-2.2-1.2-3.4L-5841.4-7128.6z
		 M-5839-7128.4c0,0.7,0.1,1.4,0.5,2c0.3,0.4,0.8,0.7,1.4,0.7c0.5,0,1-0.2,1.4-0.7c0.4-0.6,0.5-1.4,0.5-2.1c0-0.7-0.1-1.4-0.5-1.9
		c-0.3-0.5-0.8-0.7-1.4-0.7c-0.5,0-1.1,0.2-1.4,0.7C-5838.9-7129.9-5839.1-7129.1-5839-7128.4L-5839-7128.4z M-5827.7-7125.8
		c0.4,0,0.8-0.1,1.1-0.4c0.3-0.2,0.4-0.6,0.4-1h2.2c0,0.6-0.2,1.2-0.5,1.7c-0.3,0.5-0.8,0.9-1.3,1.2c-0.6,0.3-1.2,0.4-1.9,0.4
		c-1.1,0.1-2.3-0.4-3-1.2c-0.8-0.9-1.2-2.2-1.1-3.4v-0.2c-0.1-1.2,0.3-2.4,1.1-3.3c0.8-0.8,1.9-1.3,3-1.2c1,0,2,0.3,2.7,1
		c0.7,0.7,1.1,1.6,1,2.6h-2.2c0-0.4-0.1-0.8-0.4-1.1c-0.3-0.3-0.7-0.5-1.1-0.4c-0.5,0-1,0.2-1.3,0.6c-0.3,0.6-0.5,1.3-0.4,2v0.2
		c-0.1,0.7,0.1,1.4,0.4,2C-5828.7-7126-5828.2-7125.7-5827.7-7125.8z M-5820-7124h-2.4v-9h2.4V-7124z M-5822.6-7135.3
		c0-0.3,0.1-0.7,0.4-0.9c0.3-0.2,0.6-0.4,1-0.3c0.4,0,0.7,0.1,1,0.3c0.2,0.2,0.4,0.6,0.4,0.9c0,0.3-0.1,0.7-0.4,0.9
		c-0.3,0.2-0.6,0.4-1,0.3c-0.4,0-0.7-0.1-1-0.3C-5822.5-7134.6-5822.6-7135-5822.6-7135.3z M-5818.4-7128.6c0-0.8,0.2-1.6,0.5-2.4
		c0.3-0.7,0.8-1.2,1.5-1.6c0.7-0.4,1.5-0.6,2.2-0.6c1.1,0,2.2,0.4,3,1.1c0.8,0.8,1.3,1.9,1.3,3l0,0.6c0.1,1.2-0.4,2.4-1.2,3.3
		c-0.8,0.8-1.9,1.3-3.1,1.2c-1.2,0.1-2.3-0.4-3.1-1.2c-0.8-0.9-1.2-2.2-1.2-3.4L-5818.4-7128.6z M-5816-7128.4c0,0.7,0.1,1.4,0.5,2
		c0.3,0.4,0.8,0.7,1.4,0.7c0.5,0,1-0.2,1.4-0.7c0.4-0.6,0.5-1.4,0.5-2.1c0-0.7-0.1-1.4-0.5-1.9c-0.3-0.5-0.8-0.7-1.4-0.7
		c-0.5,0-1.1,0.2-1.4,0.7C-5815.9-7129.9-5816.1-7129.1-5816-7128.4L-5816-7128.4z"/>
	<path id="Trazado_238558" class="st11" d="M-6271.5-7228.2h5.4v1.2h-6.9v-11.4h1.5L-6271.5-7228.2z M-6263.1-7227h-1.4v-12h1.4
		V-7227z M-6255.6-7227c-0.1-0.3-0.2-0.6-0.2-0.9c-0.6,0.7-1.5,1.1-2.4,1c-0.7,0-1.5-0.2-2.1-0.7c-0.5-0.4-0.8-1.1-0.8-1.8
		c0-0.8,0.3-1.6,1-2.1c0.8-0.5,1.8-0.8,2.8-0.7h1.4v-0.7c0-0.4-0.1-0.9-0.4-1.2c-0.4-0.3-0.8-0.5-1.3-0.4c-0.5,0-0.9,0.1-1.3,0.4
		c-0.3,0.2-0.5,0.6-0.5,0.9h-1.5c0-0.4,0.2-0.9,0.5-1.2c0.3-0.4,0.7-0.7,1.2-0.9c0.5-0.2,1.1-0.4,1.7-0.3c0.8,0,1.6,0.2,2.3,0.7
		c0.6,0.5,0.9,1.2,0.9,2v3.9c0,0.6,0.1,1.3,0.3,1.9v0.1H-6255.6z M-6258-7228.1c0.5,0,0.9-0.1,1.3-0.4c0.4-0.2,0.7-0.5,0.9-0.9v-1.7
		h-1.1c-1.8,0-2.7,0.5-2.7,1.6c0,0.4,0.1,0.8,0.5,1.1C-6258.8-7228.2-6258.4-7228.1-6258-7228.1L-6258-7228.1z M-6250.7-7235.5
		l0,0.9c0.6-0.7,1.5-1.1,2.5-1.1c1-0.1,2,0.4,2.4,1.4c0.3-0.4,0.7-0.7,1.1-1c0.5-0.3,1-0.4,1.6-0.4c1.9,0,2.8,1,2.8,2.9v5.7h-1.5
		v-5.6c0-0.5-0.1-1-0.4-1.4c-0.4-0.3-0.9-0.5-1.4-0.4c-0.5,0-1,0.2-1.3,0.5c-0.4,0.3-0.6,0.8-0.6,1.3v5.6h-1.5v-5.5
		c0.1-0.9-0.5-1.7-1.4-1.8c-0.1,0-0.3,0-0.4,0c-0.8-0.1-1.6,0.4-1.9,1.2v6.2h-1.4v-8.5L-6250.7-7235.5z M-6232.8-7227
		c-0.1-0.3-0.2-0.6-0.2-0.9c-0.6,0.7-1.5,1.1-2.4,1c-0.7,0-1.5-0.2-2.1-0.7c-0.5-0.4-0.8-1.1-0.8-1.8c0-0.8,0.3-1.6,1-2.1
		c0.8-0.5,1.8-0.8,2.8-0.7h1.4v-0.7c0-0.4-0.1-0.9-0.5-1.2c-0.4-0.3-0.8-0.5-1.3-0.4c-0.5,0-0.9,0.1-1.3,0.4
		c-0.3,0.2-0.5,0.6-0.5,0.9h-1.5c0-0.4,0.2-0.9,0.4-1.2c0.3-0.4,0.7-0.7,1.2-0.9c0.5-0.2,1.1-0.4,1.7-0.3c0.8,0,1.6,0.2,2.3,0.7
		c0.6,0.5,0.9,1.2,0.9,2v3.9c0,0.6,0.1,1.3,0.3,1.9v0.1H-6232.8z M-6235.2-7228.1c0.5,0,0.9-0.1,1.3-0.4c0.4-0.2,0.7-0.5,0.9-0.9
		v-1.7h-1.1c-1.8,0-2.7,0.5-2.7,1.6c0,0.4,0.1,0.8,0.5,1.1C-6236.1-7228.2-6235.7-7228.1-6235.2-7228.1L-6235.2-7228.1z
		 M-6229.7-7231.3c-0.1-1.1,0.3-2.2,0.9-3.1c0.6-0.8,1.5-1.2,2.4-1.2c0.9,0,1.8,0.3,2.4,1v-4.4h1.4v12h-1.3l-0.1-0.9
		c-0.6,0.7-1.5,1.1-2.4,1.1c-0.9,0-1.8-0.4-2.4-1.2c-0.7-0.9-1-2-0.9-3.1V-7231.3z M-6228.3-7231.1c0,0.8,0.2,1.6,0.6,2.2
		c0.4,0.5,1,0.8,1.6,0.8c0.9,0,1.6-0.4,2-1.2v-3.9c-0.4-0.8-1.1-1.2-2-1.2c-0.7,0-1.3,0.3-1.7,0.8
		C-6228.1-7232.8-6228.3-7232-6228.3-7231.1L-6228.3-7231.1z M-6220.7-7231.3c0-0.8,0.2-1.5,0.5-2.2c0.3-0.6,0.8-1.2,1.4-1.5
		c0.6-0.4,1.3-0.6,2-0.5c1.1,0,2.1,0.4,2.8,1.2c0.7,0.9,1.1,2,1.1,3.2v0.1c0,0.8-0.1,1.5-0.5,2.2c-0.3,0.6-0.8,1.2-1.4,1.5
		c-0.6,0.4-1.3,0.6-2,0.5c-1.1,0-2.1-0.4-2.8-1.2C-6220.4-7228.9-6220.8-7230.1-6220.7-7231.3L-6220.7-7231.3z M-6219.3-7231.1
		c0,0.8,0.2,1.6,0.7,2.3c0.4,0.6,1.1,0.9,1.7,0.9c0.7,0,1.3-0.3,1.8-0.9c0.5-0.7,0.7-1.6,0.6-2.4c0-0.8-0.2-1.6-0.7-2.3
		c-0.4-0.6-1.1-0.9-1.8-0.9c-0.7,0-1.3,0.3-1.7,0.8C-6219.1-7232.9-6219.3-7232-6219.3-7231.1L-6219.3-7231.1z M-6202-7227
		c-0.1-0.3-0.2-0.6-0.2-0.9c-0.6,0.7-1.5,1.1-2.4,1c-0.7,0-1.5-0.2-2.1-0.7c-0.5-0.4-0.8-1.1-0.8-1.8c0-0.8,0.3-1.6,1-2.1
		c0.8-0.5,1.8-0.8,2.8-0.7h1.4v-0.7c0-0.4-0.1-0.9-0.5-1.2c-0.4-0.3-0.8-0.5-1.3-0.4c-0.5,0-0.9,0.1-1.3,0.4
		c-0.3,0.2-0.5,0.6-0.5,0.9h-1.5c0-0.4,0.2-0.9,0.4-1.2c0.3-0.4,0.7-0.7,1.2-0.9c0.5-0.2,1.1-0.4,1.7-0.3c0.8,0,1.6,0.2,2.3,0.7
		c0.6,0.5,0.9,1.3,0.9,2v3.9c0,0.6,0.1,1.3,0.3,1.9v0.1H-6202z M-6204.4-7228.1c0.5,0,0.9-0.1,1.3-0.4c0.4-0.2,0.7-0.5,0.9-0.9v-1.7
		h-1.1c-1.8,0-2.7,0.5-2.7,1.6c0,0.4,0.1,0.8,0.5,1.1C-6205.3-7228.2-6204.8-7228.1-6204.4-7228.1L-6204.4-7228.1z M-6266.1-7219.5
		l0,0.9c0.6-0.7,1.5-1.1,2.5-1.1c1-0.1,2,0.4,2.4,1.4c0.3-0.4,0.7-0.7,1.1-1c0.5-0.3,1-0.4,1.6-0.4c1.9,0,2.8,1,2.8,2.9v5.7h-1.4
		v-5.6c0-0.5-0.1-1-0.4-1.4c-0.4-0.3-0.9-0.5-1.4-0.4c-0.5,0-1,0.2-1.3,0.5c-0.4,0.3-0.6,0.8-0.6,1.3v5.6h-1.5v-5.5
		c0.1-0.9-0.5-1.7-1.4-1.8c-0.1,0-0.3,0-0.4,0c-0.8-0.1-1.6,0.4-1.9,1.2v6.2h-1.4v-8.5H-6266.1z M-6249.9-7210.8
		c-1.1,0-2.1-0.4-2.8-1.1c-0.7-0.8-1.1-1.9-1.1-3v-0.3c0-0.8,0.2-1.5,0.5-2.2c0.3-0.6,0.8-1.2,1.3-1.5c0.6-0.4,1.2-0.6,1.9-0.6
		c1-0.1,1.9,0.3,2.6,1.1c0.7,0.9,1,2,0.9,3.1v0.6h-5.7c0,0.7,0.2,1.5,0.7,2c0.5,0.5,1.1,0.8,1.8,0.8c0.5,0,0.9-0.1,1.3-0.3
		c0.4-0.2,0.7-0.5,0.9-0.8l0.9,0.7C-6247.4-7211.4-6248.6-7210.8-6249.9-7210.8z M-6250.1-7218.4c-0.6,0-1.1,0.2-1.5,0.6
		c-0.4,0.5-0.7,1.1-0.7,1.8h4.2v-0.1c0-0.6-0.2-1.2-0.6-1.7C-6249-7218.2-6249.6-7218.4-6250.1-7218.4L-6250.1-7218.4z
		 M-6243-7221.5v2h1.6v1.1h-1.6v5.2c0,0.3,0.1,0.5,0.2,0.8c0.2,0.2,0.5,0.3,0.7,0.3c0.2,0,0.5,0,0.7-0.1v1.2
		c-0.4,0.1-0.7,0.2-1.1,0.2c-0.6,0-1.1-0.2-1.5-0.6c-0.4-0.5-0.5-1.1-0.5-1.7v-5.2h-1.5v-1.1h1.5v-2H-6243z M-6240.3-7215.3
		c0-0.8,0.2-1.5,0.5-2.2c0.3-0.6,0.8-1.2,1.4-1.5c0.6-0.4,1.3-0.6,2-0.5c1.1,0,2.1,0.4,2.8,1.2c0.7,0.9,1.1,2,1.1,3.2v0.1
		c0,0.8-0.1,1.5-0.5,2.2c-0.3,0.6-0.8,1.2-1.4,1.5c-0.6,0.4-1.3,0.6-2,0.5c-1.1,0-2.1-0.4-2.8-1.2
		C-6239.9-7212.9-6240.3-7214.1-6240.3-7215.3L-6240.3-7215.3z M-6238.8-7215.1c0,0.8,0.2,1.6,0.7,2.3c0.4,0.6,1.1,0.9,1.7,0.9
		c0.7,0,1.3-0.3,1.8-0.9c0.5-0.7,0.7-1.6,0.6-2.4c0-0.8-0.2-1.6-0.7-2.3c-0.4-0.6-1.1-0.9-1.8-0.9c-0.7,0-1.3,0.3-1.7,0.9
		C-6238.6-7216.9-6238.9-7216-6238.8-7215.1L-6238.8-7215.1z M-6231.1-7215.3c-0.1-1.1,0.3-2.2,0.9-3.1c0.6-0.8,1.5-1.2,2.4-1.2
		c0.9,0,1.8,0.3,2.4,1v-4.4h1.4v12h-1.3l-0.1-0.9c-0.6,0.7-1.5,1.1-2.4,1.1c-0.9,0-1.8-0.4-2.4-1.2c-0.7-0.9-1-2-0.9-3.1
		L-6231.1-7215.3z M-6229.7-7215.1c0,0.8,0.2,1.6,0.6,2.2c0.4,0.5,1,0.8,1.6,0.8c0.9,0,1.7-0.5,2-1.2v-3.9c-0.4-0.8-1.1-1.2-2-1.2
		c-0.7,0-1.3,0.3-1.7,0.8C-6229.5-7216.8-6229.7-7216-6229.7-7215.1L-6229.7-7215.1z M-6222.1-7215.3c0-0.8,0.2-1.5,0.5-2.2
		c0.3-0.6,0.8-1.2,1.4-1.5c0.6-0.4,1.3-0.6,2-0.5c1.1,0,2.1,0.4,2.8,1.2c0.7,0.9,1.1,2,1.1,3.2v0.1c0,0.8-0.1,1.5-0.5,2.2
		c-0.3,0.6-0.8,1.2-1.4,1.5c-0.6,0.4-1.3,0.6-2,0.5c-1.1,0-2.1-0.4-2.8-1.2C-6221.8-7212.9-6222.2-7214.1-6222.1-7215.3
		L-6222.1-7215.3z M-6220.7-7215.1c0,0.8,0.2,1.6,0.7,2.3c0.7,1,2.1,1.1,3.1,0.4c0.1-0.1,0.3-0.3,0.4-0.4c0.5-0.7,0.7-1.6,0.6-2.4
		c0-0.8-0.2-1.6-0.7-2.3c-0.4-0.6-1.1-0.9-1.8-0.9c-0.7,0-1.3,0.3-1.7,0.9C-6220.5-7216.8-6220.7-7216-6220.7-7215.1L-6220.7-7215.1
		z M-6207.7-7213.2c0-0.4-0.1-0.7-0.4-0.9c-0.5-0.3-1-0.5-1.5-0.6c-0.6-0.1-1.2-0.3-1.7-0.6c-0.4-0.2-0.7-0.4-1-0.8
		c-0.2-0.3-0.3-0.7-0.3-1.1c0-0.7,0.3-1.3,0.9-1.8c0.6-0.5,1.4-0.8,2.2-0.7c0.8,0,1.7,0.2,2.3,0.7c0.6,0.5,0.9,1.2,0.9,1.9h-1.5
		c0-0.4-0.2-0.8-0.5-1c-0.4-0.3-0.8-0.4-1.3-0.4c-0.4,0-0.9,0.1-1.2,0.3c-0.3,0.2-0.5,0.5-0.4,0.9c0,0.3,0.1,0.6,0.4,0.8
		c0.5,0.2,1,0.4,1.5,0.5c0.6,0.1,1.2,0.3,1.8,0.6c0.4,0.2,0.7,0.5,1,0.8c0.2,0.3,0.3,0.7,0.3,1.2c0,0.7-0.3,1.4-0.9,1.8
		c-0.7,0.5-1.5,0.7-2.4,0.7c-0.6,0-1.2-0.1-1.8-0.4c-0.5-0.2-0.9-0.6-1.2-1c-0.3-0.4-0.4-0.9-0.4-1.4h1.4c0,0.5,0.2,0.9,0.6,1.2
		c0.4,0.3,0.9,0.5,1.4,0.4c0.5,0,0.9-0.1,1.3-0.3C-6207.9-7212.5-6207.7-7212.9-6207.7-7213.2L-6207.7-7213.2z"/>
	<path id="Trazado_238559" class="st11" d="M-6050.5-7196.2h5.4v1.2h-6.9v-11.4h1.5L-6050.5-7196.2z M-6042.1-7195h-1.4v-12h1.4
		V-7195z M-6034.6-7195c-0.1-0.3-0.2-0.6-0.2-0.9c-0.6,0.7-1.5,1.1-2.4,1c-0.7,0-1.5-0.2-2.1-0.7c-0.5-0.4-0.8-1.1-0.8-1.8
		c0-0.8,0.3-1.6,1-2.1c0.8-0.5,1.8-0.8,2.8-0.7h1.4v-0.7c0-0.4-0.1-0.9-0.4-1.2c-0.4-0.3-0.8-0.5-1.3-0.4c-0.5,0-0.9,0.1-1.3,0.4
		c-0.3,0.2-0.5,0.6-0.5,0.9h-1.5c0-0.4,0.2-0.9,0.5-1.2c0.3-0.4,0.7-0.7,1.2-0.9c0.5-0.2,1.1-0.4,1.7-0.3c0.8,0,1.6,0.2,2.3,0.7
		c0.6,0.5,0.9,1.2,0.9,2v3.9c0,0.6,0.1,1.3,0.3,1.9v0.1H-6034.6z M-6037-7196.1c0.5,0,0.9-0.1,1.3-0.4c0.4-0.2,0.7-0.5,0.9-0.9v-1.7
		h-1.1c-1.8,0-2.7,0.5-2.7,1.6c0,0.4,0.1,0.8,0.5,1.1C-6037.8-7196.2-6037.4-7196.1-6037-7196.1L-6037-7196.1z M-6029.7-7203.5
		l0,0.9c0.6-0.7,1.5-1.1,2.5-1.1c1-0.1,2,0.4,2.4,1.4c0.3-0.4,0.7-0.7,1.1-1c0.5-0.3,1-0.4,1.6-0.4c1.9,0,2.8,1,2.8,2.9v5.7h-1.5
		v-5.6c0-0.5-0.1-1-0.4-1.4c-0.4-0.3-0.9-0.5-1.4-0.4c-0.5,0-1,0.2-1.3,0.5c-0.4,0.3-0.6,0.8-0.6,1.3v5.6h-1.5v-5.5
		c0.1-0.9-0.5-1.7-1.4-1.8c-0.1,0-0.3,0-0.4,0c-0.8-0.1-1.6,0.4-1.9,1.2v6.2h-1.4v-8.5L-6029.7-7203.5z M-6011.8-7195
		c-0.1-0.3-0.2-0.6-0.2-0.9c-0.6,0.7-1.5,1.1-2.4,1c-0.7,0-1.5-0.2-2.1-0.7c-0.5-0.4-0.8-1.1-0.8-1.8c0-0.8,0.3-1.6,1-2.1
		c0.8-0.5,1.8-0.8,2.8-0.7h1.4v-0.7c0-0.4-0.1-0.9-0.5-1.2c-0.4-0.3-0.8-0.5-1.3-0.4c-0.5,0-0.9,0.1-1.3,0.4
		c-0.3,0.2-0.5,0.6-0.5,0.9h-1.5c0-0.4,0.2-0.9,0.4-1.2c0.3-0.4,0.7-0.7,1.2-0.9c0.5-0.2,1.1-0.4,1.7-0.3c0.8,0,1.6,0.2,2.3,0.7
		c0.6,0.5,0.9,1.2,0.9,2v3.9c0,0.6,0.1,1.3,0.3,1.9v0.1H-6011.8z M-6014.2-7196.1c0.5,0,0.9-0.1,1.3-0.4c0.4-0.2,0.7-0.5,0.9-0.9
		v-1.7h-1.1c-1.8,0-2.7,0.5-2.7,1.6c0,0.4,0.1,0.8,0.5,1.1C-6015.1-7196.2-6014.7-7196.1-6014.2-7196.1L-6014.2-7196.1z
		 M-6008.7-7199.3c-0.1-1.1,0.3-2.2,0.9-3.1c0.6-0.8,1.5-1.2,2.4-1.2c0.9,0,1.8,0.3,2.4,1v-4.4h1.4v12h-1.3l-0.1-0.9
		c-0.6,0.7-1.5,1.1-2.4,1.1c-0.9,0-1.8-0.4-2.4-1.2c-0.7-0.9-1-2-0.9-3.1V-7199.3z M-6007.3-7199.1c0,0.8,0.2,1.6,0.6,2.2
		c0.4,0.5,1,0.8,1.6,0.8c0.9,0,1.6-0.4,2-1.2v-3.9c-0.4-0.8-1.1-1.2-2-1.2c-0.7,0-1.3,0.3-1.7,0.8
		C-6007.1-7200.8-6007.3-7200-6007.3-7199.1L-6007.3-7199.1z M-5999.7-7199.3c0-0.8,0.2-1.5,0.5-2.2c0.3-0.6,0.8-1.2,1.4-1.5
		c0.6-0.4,1.3-0.6,2-0.5c1.1,0,2.1,0.4,2.8,1.2c0.7,0.9,1.1,2,1.1,3.2v0.1c0,0.8-0.1,1.5-0.5,2.2c-0.3,0.6-0.8,1.2-1.4,1.5
		c-0.6,0.4-1.3,0.6-2,0.5c-1.1,0-2.1-0.4-2.8-1.2C-5999.4-7196.9-5999.8-7198.1-5999.7-7199.3L-5999.7-7199.3z M-5998.3-7199.1
		c0,0.8,0.2,1.6,0.7,2.3c0.4,0.6,1.1,0.9,1.7,0.9c0.7,0,1.3-0.3,1.8-0.9c0.5-0.7,0.7-1.6,0.6-2.4c0-0.8-0.2-1.6-0.7-2.3
		c-0.4-0.6-1.1-0.9-1.8-0.9c-0.7,0-1.3,0.3-1.7,0.8C-5998.1-7200.9-5998.3-7200-5998.3-7199.1L-5998.3-7199.1z M-5981-7195
		c-0.1-0.3-0.2-0.6-0.2-0.9c-0.6,0.7-1.5,1.1-2.4,1c-0.7,0-1.5-0.2-2.1-0.7c-0.5-0.4-0.8-1.1-0.8-1.8c0-0.8,0.3-1.6,1-2.1
		c0.8-0.5,1.8-0.8,2.8-0.7h1.4v-0.7c0-0.4-0.1-0.9-0.5-1.2c-0.4-0.3-0.8-0.5-1.3-0.4c-0.5,0-0.9,0.1-1.3,0.4
		c-0.3,0.2-0.5,0.6-0.5,0.9h-1.5c0-0.4,0.2-0.9,0.4-1.2c0.3-0.4,0.7-0.7,1.2-0.9c0.5-0.2,1.1-0.4,1.7-0.3c0.8,0,1.6,0.2,2.3,0.7
		c0.6,0.5,0.9,1.3,0.9,2v3.9c0,0.6,0.1,1.3,0.3,1.9v0.1H-5981z M-5983.4-7196.1c0.5,0,0.9-0.1,1.3-0.4c0.4-0.2,0.7-0.5,0.9-0.9v-1.7
		h-1.1c-1.8,0-2.7,0.5-2.7,1.6c0,0.4,0.1,0.8,0.5,1.1C-5984.3-7196.2-5983.8-7196.1-5983.4-7196.1L-5983.4-7196.1z M-6045.1-7187.5
		l0,0.9c0.6-0.7,1.5-1.1,2.5-1.1c1-0.1,2,0.4,2.4,1.4c0.3-0.4,0.7-0.7,1.1-1c0.5-0.3,1-0.4,1.6-0.4c1.9,0,2.8,1,2.8,2.9v5.7h-1.4
		v-5.6c0-0.5-0.1-1-0.4-1.4c-0.4-0.3-0.9-0.5-1.4-0.4c-0.5,0-1,0.2-1.3,0.5c-0.4,0.3-0.6,0.8-0.6,1.3v5.6h-1.5v-5.5
		c0.1-0.9-0.5-1.7-1.4-1.8c-0.1,0-0.3,0-0.4,0c-0.8-0.1-1.6,0.4-1.9,1.2v6.2h-1.4v-8.5H-6045.1z M-6028.9-7178.8
		c-1.1,0-2.1-0.4-2.8-1.1c-0.7-0.8-1.1-1.9-1.1-3v-0.3c0-0.8,0.2-1.5,0.5-2.2c0.3-0.6,0.8-1.2,1.3-1.5c0.6-0.4,1.2-0.6,1.9-0.6
		c1-0.1,1.9,0.3,2.6,1.1c0.7,0.9,1,2,0.9,3.1v0.6h-5.7c0,0.7,0.2,1.5,0.7,2c0.5,0.5,1.1,0.8,1.8,0.8c0.5,0,0.9-0.1,1.3-0.3
		c0.4-0.2,0.7-0.5,0.9-0.8l0.9,0.7C-6026.4-7179.4-6027.6-7178.8-6028.9-7178.8z M-6029.1-7186.4c-0.6,0-1.1,0.2-1.5,0.6
		c-0.4,0.5-0.7,1.1-0.7,1.8h4.2v-0.1c0-0.6-0.2-1.2-0.6-1.7C-6028-7186.2-6028.6-7186.4-6029.1-7186.4L-6029.1-7186.4z
		 M-6022-7189.5v2h1.6v1.1h-1.6v5.2c0,0.3,0.1,0.5,0.2,0.8c0.2,0.2,0.5,0.3,0.7,0.3c0.2,0,0.5,0,0.7-0.1v1.2
		c-0.4,0.1-0.7,0.2-1.1,0.2c-0.6,0-1.1-0.2-1.5-0.6c-0.4-0.5-0.5-1.1-0.5-1.7v-5.2h-1.5v-1.1h1.5v-2H-6022z M-6019.3-7183.3
		c0-0.8,0.2-1.5,0.5-2.2c0.3-0.6,0.8-1.2,1.4-1.5c0.6-0.4,1.3-0.6,2-0.5c1.1,0,2.1,0.4,2.8,1.2c0.7,0.9,1.1,2,1.1,3.2v0.1
		c0,0.8-0.1,1.5-0.5,2.2c-0.3,0.6-0.8,1.2-1.4,1.5c-0.6,0.4-1.3,0.6-2,0.5c-1.1,0-2.1-0.4-2.8-1.2
		C-6018.9-7180.9-6019.3-7182.1-6019.3-7183.3L-6019.3-7183.3z M-6017.8-7183.1c0,0.8,0.2,1.6,0.7,2.3c0.4,0.6,1.1,0.9,1.7,0.9
		c0.7,0,1.3-0.3,1.8-0.9c0.5-0.7,0.7-1.6,0.6-2.4c0-0.8-0.2-1.6-0.7-2.3c-0.4-0.6-1.1-0.9-1.8-0.9c-0.7,0-1.3,0.3-1.7,0.9
		C-6017.6-7184.9-6017.9-7184-6017.8-7183.1L-6017.8-7183.1z M-6010.1-7183.3c-0.1-1.1,0.3-2.2,0.9-3.1c0.6-0.8,1.5-1.2,2.4-1.2
		c0.9,0,1.8,0.3,2.4,1v-4.4h1.4v12h-1.3l-0.1-0.9c-0.6,0.7-1.5,1.1-2.4,1.1c-0.9,0-1.8-0.4-2.4-1.2c-0.7-0.9-1-2-0.9-3.1
		L-6010.1-7183.3z M-6008.7-7183.1c0,0.8,0.2,1.6,0.6,2.2c0.4,0.5,1,0.8,1.6,0.8c0.9,0,1.7-0.5,2-1.2v-3.9c-0.4-0.8-1.1-1.2-2-1.2
		c-0.7,0-1.3,0.3-1.7,0.8C-6008.5-7184.8-6008.7-7184-6008.7-7183.1L-6008.7-7183.1z M-6001.1-7183.3c0-0.8,0.2-1.5,0.5-2.2
		c0.3-0.6,0.8-1.2,1.4-1.5c0.6-0.4,1.3-0.6,2-0.5c1.1,0,2.1,0.4,2.8,1.2c0.7,0.9,1.1,2,1.1,3.2v0.1c0,0.8-0.1,1.5-0.5,2.2
		c-0.3,0.6-0.8,1.2-1.4,1.5c-0.6,0.4-1.3,0.6-2,0.5c-1.1,0-2.1-0.4-2.8-1.2C-6000.8-7180.9-6001.2-7182.1-6001.1-7183.3
		L-6001.1-7183.3z M-5999.7-7183.1c0,0.8,0.2,1.6,0.7,2.3c0.7,1,2.1,1.1,3.1,0.4c0.1-0.1,0.3-0.3,0.4-0.4c0.5-0.7,0.7-1.6,0.6-2.4
		c0-0.8-0.2-1.6-0.7-2.3c-0.4-0.6-1.1-0.9-1.8-0.9c-0.7,0-1.3,0.3-1.7,0.9C-5999.5-7184.8-5999.7-7184-5999.7-7183.1L-5999.7-7183.1
		z M-5986.7-7181.2c0-0.4-0.1-0.7-0.4-0.9c-0.5-0.3-1-0.5-1.5-0.6c-0.6-0.1-1.2-0.3-1.7-0.6c-0.4-0.2-0.7-0.4-1-0.8
		c-0.2-0.3-0.3-0.7-0.3-1.1c0-0.7,0.3-1.3,0.9-1.8c0.6-0.5,1.4-0.8,2.2-0.7c0.8,0,1.7,0.2,2.3,0.7c0.6,0.5,0.9,1.2,0.9,1.9h-1.5
		c0-0.4-0.2-0.8-0.5-1c-0.4-0.3-0.8-0.4-1.3-0.4c-0.4,0-0.9,0.1-1.2,0.3c-0.3,0.2-0.5,0.5-0.4,0.9c0,0.3,0.1,0.6,0.4,0.8
		c0.5,0.2,1,0.4,1.5,0.5c0.6,0.1,1.2,0.3,1.8,0.6c0.4,0.2,0.7,0.5,1,0.8c0.2,0.3,0.3,0.7,0.3,1.2c0,0.7-0.3,1.4-0.9,1.8
		c-0.7,0.5-1.5,0.7-2.4,0.7c-0.6,0-1.2-0.1-1.8-0.4c-0.5-0.2-0.9-0.6-1.2-1c-0.3-0.4-0.4-0.9-0.4-1.4h1.4c0,0.5,0.2,0.9,0.6,1.2
		c0.4,0.3,0.9,0.5,1.4,0.4c0.5,0,0.9-0.1,1.3-0.3C-5986.9-7180.5-5986.7-7180.9-5986.7-7181.2L-5986.7-7181.2z"/>
	<path id="Trazado_238560" class="st11" d="M-6174.2-7231.6h-2.7v4.6h-1.5v-11.4h3.8c1.1-0.1,2.1,0.2,3,0.9c0.7,0.6,1.1,1.6,1,2.5
		c0,0.7-0.2,1.3-0.6,1.9c-0.4,0.5-1,1-1.6,1.2l2.7,4.8v0.1h-1.6L-6174.2-7231.6z M-6176.9-7232.8h2.3c0.6,0,1.3-0.2,1.8-0.6
		c0.4-0.4,0.7-1,0.7-1.6c0-0.6-0.2-1.2-0.6-1.6c-0.5-0.4-1.2-0.6-1.8-0.6h-2.3L-6176.9-7232.8z M-6165.2-7226.8
		c-1.1,0-2.1-0.4-2.8-1.1c-0.7-0.8-1.1-1.9-1.1-3v-0.3c0-0.8,0.2-1.5,0.5-2.2c0.3-0.6,0.8-1.2,1.3-1.5c0.6-0.4,1.2-0.6,1.9-0.6
		c1-0.1,1.9,0.3,2.6,1.1c0.7,0.9,1,2,0.9,3.1v0.6h-5.7c0,0.7,0.2,1.5,0.7,2c0.5,0.5,1.1,0.8,1.8,0.8c0.5,0,0.9-0.1,1.3-0.3
		c0.4-0.2,0.7-0.5,0.9-0.8l0.9,0.7C-6162.7-7227.4-6163.9-7226.8-6165.2-7226.8z M-6165.4-7234.4c-0.6,0-1.1,0.2-1.5,0.6
		c-0.4,0.5-0.7,1.1-0.7,1.8h4.2v-0.1c0-0.6-0.2-1.2-0.6-1.7C-6164.3-7234.2-6164.9-7234.4-6165.4-7234.4L-6165.4-7234.4z
		 M-6158.3-7237.5v2h1.6v1.1h-1.6v5.2c0,0.3,0.1,0.5,0.2,0.8c0.2,0.2,0.5,0.3,0.7,0.3c0.2,0,0.5,0,0.7-0.1v1.2
		c-0.4,0.1-0.7,0.2-1.1,0.2c-0.6,0-1.1-0.2-1.5-0.6c-0.4-0.5-0.5-1.1-0.5-1.7v-5.2h-1.5v-1.1h1.5v-2H-6158.3z M-6155.6-7231.3
		c0-0.8,0.2-1.5,0.5-2.2c0.3-0.6,0.8-1.2,1.4-1.5c0.6-0.4,1.3-0.6,2-0.5c1.1,0,2.1,0.4,2.8,1.2c0.7,0.9,1.1,2,1.1,3.2v0.1
		c0,0.8-0.1,1.5-0.5,2.2c-0.3,0.6-0.8,1.2-1.4,1.5c-0.6,0.4-1.3,0.6-2,0.5c-1.1,0-2.1-0.4-2.8-1.2
		C-6155.2-7228.9-6155.6-7230.1-6155.6-7231.3L-6155.6-7231.3z M-6154.1-7231.1c0,0.8,0.2,1.6,0.7,2.3c0.4,0.6,1.1,0.9,1.7,0.9
		c0.7,0,1.3-0.3,1.8-0.9c0.5-0.7,0.7-1.6,0.6-2.4c0-0.8-0.2-1.6-0.7-2.3c-0.4-0.6-1.1-0.9-1.8-0.9c-0.7,0-1.3,0.3-1.7,0.9
		C-6153.9-7232.8-6154.2-7232-6154.1-7231.1L-6154.1-7231.1z M-6142-7234.2c-0.2,0-0.5-0.1-0.7-0.1c-0.8-0.1-1.6,0.4-1.9,1.2v6h-1.4
		v-8.5h1.4l0,1c0.4-0.7,1.2-1.2,2-1.1c0.2,0,0.4,0,0.6,0.1V-7234.2z M-6139.3-7235.5l0,1.1c0.6-0.8,1.5-1.2,2.5-1.2
		c1.8,0,2.7,1,2.7,3v5.6h-1.4v-5.6c0-0.5-0.1-1-0.4-1.4c-0.3-0.3-0.8-0.5-1.3-0.4c-0.4,0-0.9,0.1-1.2,0.4c-0.4,0.3-0.6,0.6-0.8,1v6
		h-1.4v-8.5L-6139.3-7235.5z M-6132.2-7231.3c0-0.8,0.2-1.5,0.5-2.2c0.3-0.6,0.8-1.2,1.4-1.5c0.6-0.4,1.3-0.6,2-0.5
		c1.1,0,2.1,0.4,2.8,1.2c0.7,0.9,1.1,2,1.1,3.2v0.1c0,0.8-0.1,1.5-0.5,2.2c-0.3,0.6-0.8,1.2-1.4,1.5c-0.6,0.4-1.3,0.6-2,0.5
		c-1.1,0-2.1-0.4-2.8-1.2C-6131.9-7228.9-6132.3-7230.1-6132.2-7231.3L-6132.2-7231.3z M-6130.7-7231.1c0,0.8,0.2,1.6,0.7,2.3
		c0.4,0.6,1.1,0.9,1.7,0.9c0.7,0,1.3-0.3,1.8-0.9c0.5-0.7,0.7-1.6,0.6-2.4c0-0.8-0.2-1.6-0.7-2.3c-0.4-0.6-1.1-0.9-1.8-0.9
		c-0.7,0-1.3,0.3-1.7,0.9C-6130.6-7232.8-6130.8-7232-6130.7-7231.1L-6130.7-7231.1z M-6119.1-7231.3c-0.1-1.1,0.3-2.2,0.9-3.1
		c0.6-0.8,1.5-1.2,2.4-1.2c0.9,0,1.8,0.3,2.4,1v-4.4h1.4v12h-1.3l-0.1-0.9c-0.6,0.7-1.5,1.1-2.4,1.1c-0.9,0-1.8-0.4-2.4-1.2
		c-0.7-0.9-1-2-0.9-3.1L-6119.1-7231.3z M-6117.6-7231.1c0,0.8,0.2,1.6,0.6,2.2c0.4,0.5,1,0.8,1.6,0.8c0.9,0,1.6-0.5,2-1.2v-3.9
		c-0.4-0.8-1.1-1.2-2-1.2c-0.7,0-1.3,0.3-1.7,0.8C-6117.5-7232.8-6117.7-7232-6117.6-7231.1L-6117.6-7231.1z M-6106.2-7226.8
		c-1.1,0-2.1-0.4-2.8-1.1c-0.7-0.8-1.1-1.9-1.1-3v-0.3c0-0.8,0.2-1.5,0.5-2.2c0.3-0.6,0.8-1.2,1.3-1.5c0.6-0.4,1.2-0.6,1.9-0.6
		c1-0.1,1.9,0.3,2.6,1.1c0.7,0.9,1,2,0.9,3.1v0.6h-5.7c0,0.7,0.2,1.5,0.7,2c0.5,0.5,1.1,0.8,1.8,0.8c0.5,0,0.9-0.1,1.3-0.3
		c0.4-0.2,0.7-0.5,0.9-0.8l0.9,0.7C-6103.7-7227.4-6104.9-7226.8-6106.2-7226.8z M-6106.4-7234.4c-0.6,0-1.1,0.2-1.5,0.6
		c-0.4,0.5-0.7,1.1-0.7,1.8h4.2v-0.1c0-0.6-0.2-1.2-0.6-1.7C-6105.3-7234.2-6105.8-7234.4-6106.4-7234.4L-6106.4-7234.4z
		 M-6166-7219.5l0,0.9c0.6-0.7,1.5-1.1,2.5-1.1c1-0.1,2,0.4,2.4,1.4c0.3-0.4,0.7-0.7,1.1-1c0.5-0.3,1-0.4,1.6-0.4
		c1.9,0,2.8,1,2.8,2.9v5.7h-1.5v-5.6c0-0.5-0.1-1-0.4-1.4c-0.4-0.3-0.9-0.5-1.4-0.4c-0.5,0-1,0.2-1.3,0.5c-0.4,0.3-0.6,0.8-0.6,1.3
		v5.6h-1.5v-5.5c0.1-0.9-0.5-1.7-1.4-1.8c-0.1,0-0.3,0-0.4,0c-0.8-0.1-1.6,0.4-1.9,1.2v6.2h-1.4v-8.5H-6166z M-6149.8-7210.8
		c-1.1,0-2.1-0.4-2.8-1.1c-0.7-0.8-1.1-1.9-1.1-3v-0.3c0-0.8,0.2-1.5,0.5-2.2c0.3-0.6,0.8-1.2,1.3-1.5c0.6-0.4,1.2-0.6,1.9-0.6
		c1-0.1,1.9,0.3,2.6,1.1c0.7,0.9,1,2,0.9,3.1v0.6h-5.7c0,0.7,0.2,1.5,0.7,2c0.5,0.5,1.1,0.8,1.8,0.8c0.5,0,0.9-0.1,1.3-0.3
		c0.4-0.2,0.7-0.5,0.9-0.8l0.9,0.7C-6147.3-7211.4-6148.5-7210.8-6149.8-7210.8z M-6150-7218.4c-0.6,0-1.1,0.2-1.5,0.6
		c-0.4,0.5-0.7,1.1-0.7,1.8h4.2v-0.1c0-0.6-0.2-1.2-0.6-1.7C-6148.9-7218.2-6149.4-7218.4-6150-7218.4L-6150-7218.4z
		 M-6142.9-7221.5v2h1.6v1.1h-1.6v5.2c0,0.3,0.1,0.5,0.2,0.8c0.2,0.2,0.5,0.3,0.7,0.3c0.2,0,0.5,0,0.7-0.1v1.2
		c-0.4,0.1-0.7,0.2-1.1,0.2c-0.6,0-1.1-0.2-1.5-0.6c-0.4-0.5-0.5-1.1-0.5-1.7v-5.2h-1.5v-1.1h1.5v-2H-6142.9z M-6140.1-7215.3
		c0-0.8,0.2-1.5,0.5-2.2c0.3-0.6,0.8-1.2,1.4-1.5c0.6-0.4,1.3-0.6,2-0.5c1.1,0,2.1,0.4,2.8,1.2c0.7,0.9,1.1,2,1.1,3.2v0.1
		c0,0.8-0.1,1.5-0.5,2.2c-0.3,0.6-0.8,1.2-1.4,1.5c-0.6,0.4-1.3,0.6-2,0.5c-1.1,0-2.1-0.4-2.8-1.2
		C-6139.8-7212.9-6140.2-7214.1-6140.1-7215.3L-6140.1-7215.3z M-6138.7-7215.1c0,0.8,0.2,1.6,0.7,2.3c0.4,0.6,1.1,0.9,1.7,0.9
		c0.7,0,1.3-0.3,1.8-0.9c0.5-0.7,0.7-1.6,0.6-2.4c0-0.8-0.2-1.6-0.7-2.3c-0.4-0.6-1.1-0.9-1.7-0.9c-0.7,0-1.3,0.3-1.7,0.9
		C-6138.5-7216.9-6138.7-7216-6138.7-7215.1L-6138.7-7215.1z M-6131-7215.3c-0.1-1.1,0.3-2.2,0.9-3.1c0.6-0.8,1.5-1.2,2.4-1.2
		c0.9,0,1.8,0.3,2.4,1v-4.4h1.4v12h-1.3l-0.1-0.9c-0.6,0.7-1.5,1.1-2.4,1.1c-0.9,0-1.8-0.4-2.4-1.2c-0.7-0.9-1-2-0.9-3.1
		L-6131-7215.3z M-6129.5-7215.1c0,0.8,0.2,1.6,0.6,2.2c0.4,0.5,1,0.8,1.6,0.8c0.9,0,1.7-0.5,2-1.2v-3.9c-0.4-0.8-1.1-1.2-2-1.2
		c-0.7,0-1.3,0.3-1.7,0.8C-6129.4-7216.8-6129.6-7216-6129.5-7215.1L-6129.5-7215.1z M-6122-7215.3c0-0.8,0.2-1.5,0.5-2.2
		c0.3-0.6,0.8-1.2,1.4-1.5c0.6-0.4,1.3-0.6,2-0.5c1.1,0,2.1,0.4,2.8,1.2c0.7,0.9,1.1,2,1.1,3.2v0.1c0,0.8-0.1,1.5-0.5,2.2
		c-0.3,0.6-0.8,1.2-1.4,1.5c-0.6,0.4-1.3,0.6-2,0.5c-1.1,0-2.1-0.4-2.8-1.2C-6121.7-7212.9-6122-7214.1-6122-7215.3L-6122-7215.3z
		 M-6120.5-7215.1c0,0.8,0.2,1.6,0.7,2.3c0.7,1,2.1,1.1,3.1,0.4c0.1-0.1,0.3-0.3,0.4-0.4c0.5-0.7,0.7-1.6,0.6-2.4
		c0-0.8-0.2-1.6-0.7-2.3c-0.4-0.6-1.1-0.9-1.8-0.9c-0.7,0-1.3,0.3-1.7,0.9C-6120.4-7216.8-6120.6-7216-6120.5-7215.1L-6120.5-7215.1
		z"/>
	<path id="Trazado_238569" class="st11" d="M-5777.2-7198.6h-2.7v4.6h-1.5v-11.4h3.8c1.1-0.1,2.1,0.2,3,0.9c0.7,0.6,1.1,1.6,1,2.5
		c0,0.7-0.2,1.3-0.6,1.9c-0.4,0.5-1,1-1.6,1.2l2.7,4.8v0.1h-1.6L-5777.2-7198.6z M-5779.9-7199.8h2.3c0.6,0,1.3-0.2,1.8-0.6
		c0.4-0.4,0.7-1,0.7-1.6c0-0.6-0.2-1.2-0.6-1.6c-0.5-0.4-1.2-0.6-1.8-0.6h-2.3L-5779.9-7199.8z M-5768.2-7193.8
		c-1.1,0-2.1-0.4-2.8-1.1c-0.7-0.8-1.1-1.9-1.1-3v-0.3c0-0.8,0.2-1.5,0.5-2.2c0.3-0.6,0.8-1.2,1.3-1.5c0.6-0.4,1.2-0.6,1.9-0.6
		c1-0.1,1.9,0.3,2.6,1.1c0.7,0.9,1,2,0.9,3.1v0.6h-5.7c0,0.7,0.2,1.5,0.7,2c0.5,0.5,1.1,0.8,1.8,0.8c0.5,0,0.9-0.1,1.3-0.3
		c0.4-0.2,0.7-0.5,0.9-0.8l0.9,0.7C-5765.7-7194.4-5766.9-7193.8-5768.2-7193.8z M-5768.4-7201.4c-0.6,0-1.1,0.2-1.5,0.6
		c-0.4,0.5-0.7,1.1-0.7,1.8h4.2v-0.1c0-0.6-0.2-1.2-0.6-1.7C-5767.3-7201.2-5767.9-7201.4-5768.4-7201.4L-5768.4-7201.4z
		 M-5761.3-7204.5v2h1.6v1.1h-1.6v5.2c0,0.3,0.1,0.5,0.2,0.8c0.2,0.2,0.5,0.3,0.7,0.3c0.2,0,0.5,0,0.7-0.1v1.2
		c-0.4,0.1-0.7,0.2-1.1,0.2c-0.6,0-1.1-0.2-1.5-0.6c-0.4-0.5-0.5-1.1-0.5-1.7v-5.2h-1.5v-1.1h1.5v-2H-5761.3z M-5758.6-7198.3
		c0-0.8,0.2-1.5,0.5-2.2c0.3-0.6,0.8-1.2,1.4-1.5c0.6-0.4,1.3-0.6,2-0.5c1.1,0,2.1,0.4,2.8,1.2c0.7,0.9,1.1,2,1.1,3.2v0.1
		c0,0.8-0.1,1.5-0.5,2.2c-0.3,0.6-0.8,1.2-1.4,1.5c-0.6,0.4-1.3,0.6-2,0.5c-1.1,0-2.1-0.4-2.8-1.2
		C-5758.2-7195.9-5758.6-7197.1-5758.6-7198.3L-5758.6-7198.3z M-5757.1-7198.1c0,0.8,0.2,1.6,0.7,2.3c0.4,0.6,1.1,0.9,1.7,0.9
		c0.7,0,1.3-0.3,1.8-0.9c0.5-0.7,0.7-1.6,0.6-2.4c0-0.8-0.2-1.6-0.7-2.3c-0.4-0.6-1.1-0.9-1.8-0.9c-0.7,0-1.3,0.3-1.7,0.9
		C-5756.9-7199.8-5757.2-7199-5757.1-7198.1L-5757.1-7198.1z M-5745-7201.2c-0.2,0-0.5-0.1-0.7-0.1c-0.8-0.1-1.6,0.4-1.9,1.2v6h-1.4
		v-8.5h1.4l0,1c0.4-0.7,1.2-1.2,2-1.1c0.2,0,0.4,0,0.6,0.1V-7201.2z M-5742.3-7202.5l0,1.1c0.6-0.8,1.5-1.2,2.5-1.2
		c1.8,0,2.7,1,2.7,3v5.6h-1.4v-5.6c0-0.5-0.1-1-0.4-1.4c-0.3-0.3-0.8-0.5-1.3-0.4c-0.4,0-0.9,0.1-1.2,0.4c-0.4,0.3-0.6,0.6-0.8,1v6
		h-1.4v-8.5L-5742.3-7202.5z M-5735.2-7198.3c0-0.8,0.2-1.5,0.5-2.2c0.3-0.6,0.8-1.2,1.4-1.5c0.6-0.4,1.3-0.6,2-0.5
		c1.1,0,2.1,0.4,2.8,1.2c0.7,0.9,1.1,2,1.1,3.2v0.1c0,0.8-0.1,1.5-0.5,2.2c-0.3,0.6-0.8,1.2-1.4,1.5c-0.6,0.4-1.3,0.6-2,0.5
		c-1.1,0-2.1-0.4-2.8-1.2C-5734.9-7195.9-5735.3-7197.1-5735.2-7198.3L-5735.2-7198.3z M-5733.7-7198.1c0,0.8,0.2,1.6,0.7,2.3
		c0.4,0.6,1.1,0.9,1.7,0.9c0.7,0,1.3-0.3,1.8-0.9c0.5-0.7,0.7-1.6,0.6-2.4c0-0.8-0.2-1.6-0.7-2.3c-0.4-0.6-1.1-0.9-1.8-0.9
		c-0.7,0-1.3,0.3-1.7,0.9C-5733.6-7199.8-5733.8-7199-5733.7-7198.1L-5733.7-7198.1z M-5722.1-7198.3c-0.1-1.1,0.3-2.2,0.9-3.1
		c0.6-0.8,1.5-1.2,2.4-1.2c0.9,0,1.8,0.3,2.4,1v-4.4h1.4v12h-1.3l-0.1-0.9c-0.6,0.7-1.5,1.1-2.4,1.1c-0.9,0-1.8-0.4-2.4-1.2
		c-0.7-0.9-1-2-0.9-3.1L-5722.1-7198.3z M-5720.6-7198.1c0,0.8,0.2,1.6,0.6,2.2c0.4,0.5,1,0.8,1.6,0.8c0.9,0,1.6-0.5,2-1.2v-3.9
		c-0.4-0.8-1.1-1.2-2-1.2c-0.7,0-1.3,0.3-1.7,0.8C-5720.5-7199.8-5720.7-7199-5720.6-7198.1L-5720.6-7198.1z M-5709.2-7193.8
		c-1.1,0-2.1-0.4-2.8-1.1c-0.7-0.8-1.1-1.9-1.1-3v-0.3c0-0.8,0.2-1.5,0.5-2.2c0.3-0.6,0.8-1.2,1.3-1.5c0.6-0.4,1.2-0.6,1.9-0.6
		c1-0.1,1.9,0.3,2.6,1.1c0.7,0.9,1,2,0.9,3.1v0.6h-5.7c0,0.7,0.2,1.5,0.7,2c0.5,0.5,1.1,0.8,1.8,0.8c0.5,0,0.9-0.1,1.3-0.3
		c0.4-0.2,0.7-0.5,0.9-0.8l0.9,0.7C-5706.7-7194.4-5707.9-7193.8-5709.2-7193.8z M-5709.4-7201.4c-0.6,0-1.1,0.2-1.5,0.6
		c-0.4,0.5-0.7,1.1-0.7,1.8h4.2v-0.1c0-0.6-0.2-1.2-0.6-1.7C-5708.3-7201.2-5708.8-7201.4-5709.4-7201.4L-5709.4-7201.4z
		 M-5769-7186.5l0,0.9c0.6-0.7,1.5-1.1,2.5-1.1c1-0.1,2,0.4,2.4,1.4c0.3-0.4,0.7-0.7,1.1-1c0.5-0.3,1-0.4,1.6-0.4
		c1.9,0,2.8,1,2.8,2.9v5.7h-1.5v-5.6c0-0.5-0.1-1-0.4-1.4c-0.4-0.3-0.9-0.5-1.4-0.4c-0.5,0-1,0.2-1.3,0.5c-0.4,0.3-0.6,0.8-0.6,1.3
		v5.6h-1.5v-5.5c0.1-0.9-0.5-1.7-1.4-1.8c-0.1,0-0.3,0-0.4,0c-0.8-0.1-1.6,0.4-1.9,1.2v6.2h-1.4v-8.5H-5769z M-5752.8-7177.8
		c-1.1,0-2.1-0.4-2.8-1.1c-0.7-0.8-1.1-1.9-1.1-3v-0.3c0-0.8,0.2-1.5,0.5-2.2c0.3-0.6,0.8-1.2,1.3-1.5c0.6-0.4,1.2-0.6,1.9-0.6
		c1-0.1,1.9,0.3,2.6,1.1c0.7,0.9,1,2,0.9,3.1v0.6h-5.7c0,0.7,0.2,1.5,0.7,2c0.5,0.5,1.1,0.8,1.8,0.8c0.5,0,0.9-0.1,1.3-0.3
		c0.4-0.2,0.7-0.5,0.9-0.8l0.9,0.7C-5750.3-7178.4-5751.5-7177.8-5752.8-7177.8z M-5753-7185.4c-0.6,0-1.1,0.2-1.5,0.6
		c-0.4,0.5-0.7,1.1-0.7,1.8h4.2v-0.1c0-0.6-0.2-1.2-0.6-1.7C-5751.9-7185.2-5752.4-7185.4-5753-7185.4L-5753-7185.4z
		 M-5745.9-7188.5v2h1.6v1.1h-1.6v5.2c0,0.3,0.1,0.5,0.2,0.8c0.2,0.2,0.5,0.3,0.7,0.3c0.2,0,0.5,0,0.7-0.1v1.2
		c-0.4,0.1-0.7,0.2-1.1,0.2c-0.6,0-1.1-0.2-1.5-0.6c-0.4-0.5-0.5-1.1-0.5-1.7v-5.2h-1.5v-1.1h1.5v-2H-5745.9z M-5743.1-7182.3
		c0-0.8,0.2-1.5,0.5-2.2c0.3-0.6,0.8-1.2,1.4-1.5c0.6-0.4,1.3-0.6,2-0.5c1.1,0,2.1,0.4,2.8,1.2c0.7,0.9,1.1,2,1.1,3.2v0.1
		c0,0.8-0.1,1.5-0.5,2.2c-0.3,0.6-0.8,1.2-1.4,1.5c-0.6,0.4-1.3,0.6-2,0.5c-1.1,0-2.1-0.4-2.8-1.2
		C-5742.8-7179.9-5743.2-7181.1-5743.1-7182.3L-5743.1-7182.3z M-5741.7-7182.1c0,0.8,0.2,1.6,0.7,2.3c0.4,0.6,1.1,0.9,1.7,0.9
		c0.7,0,1.3-0.3,1.8-0.9c0.5-0.7,0.7-1.6,0.6-2.4c0-0.8-0.2-1.6-0.7-2.3c-0.4-0.6-1.1-0.9-1.7-0.9c-0.7,0-1.3,0.3-1.7,0.9
		C-5741.5-7183.9-5741.7-7183-5741.7-7182.1L-5741.7-7182.1z M-5734-7182.3c-0.1-1.1,0.3-2.2,0.9-3.1c0.6-0.8,1.5-1.2,2.4-1.2
		c0.9,0,1.8,0.3,2.4,1v-4.4h1.4v12h-1.3l-0.1-0.9c-0.6,0.7-1.5,1.1-2.4,1.1c-0.9,0-1.8-0.4-2.4-1.2c-0.7-0.9-1-2-0.9-3.1
		L-5734-7182.3z M-5732.5-7182.1c0,0.8,0.2,1.6,0.6,2.2c0.4,0.5,1,0.8,1.6,0.8c0.9,0,1.7-0.5,2-1.2v-3.9c-0.4-0.8-1.1-1.2-2-1.2
		c-0.7,0-1.3,0.3-1.7,0.8C-5732.4-7183.8-5732.6-7183-5732.5-7182.1L-5732.5-7182.1z M-5725-7182.3c0-0.8,0.2-1.5,0.5-2.2
		c0.3-0.6,0.8-1.2,1.4-1.5c0.6-0.4,1.3-0.6,2-0.5c1.1,0,2.1,0.4,2.8,1.2c0.7,0.9,1.1,2,1.1,3.2v0.1c0,0.8-0.1,1.5-0.5,2.2
		c-0.3,0.6-0.8,1.2-1.4,1.5c-0.6,0.4-1.3,0.6-2,0.5c-1.1,0-2.1-0.4-2.8-1.2C-5724.7-7179.9-5725-7181.1-5725-7182.3L-5725-7182.3z
		 M-5723.5-7182.1c0,0.8,0.2,1.6,0.7,2.3c0.7,1,2.1,1.1,3.1,0.4c0.1-0.1,0.3-0.3,0.4-0.4c0.5-0.7,0.7-1.6,0.6-2.4
		c0-0.8-0.2-1.6-0.7-2.3c-0.4-0.6-1.1-0.9-1.8-0.9c-0.7,0-1.3,0.3-1.7,0.9C-5723.4-7183.8-5723.6-7183-5723.5-7182.1L-5723.5-7182.1
		z"/>
	<path id="Trazado_238561" class="st11" d="M-6232.9-7304.3v4.3h-2.5v-12.1h4.7c0.8,0,1.6,0.2,2.4,0.5c0.7,0.3,1.2,0.8,1.6,1.4
		c0.4,0.6,0.6,1.4,0.6,2.1c0,1.1-0.4,2.1-1.2,2.8c-1,0.7-2.2,1.1-3.4,1H-6232.9z M-6232.9-7306.3h2.2c0.5,0,1.1-0.1,1.5-0.5
		c0.4-0.3,0.6-0.8,0.5-1.3c0-0.5-0.2-1-0.5-1.4c-0.4-0.4-0.9-0.6-1.4-0.6h-2.3V-7306.3z M-6219.6-7306.7c-0.3,0-0.6-0.1-0.9-0.1
		c-0.7-0.1-1.4,0.3-1.8,0.9v5.9h-2.4v-9h2.3l0.1,1.1c0.4-0.8,1.2-1.2,2-1.2c0.3,0,0.5,0,0.7,0.1L-6219.6-7306.7z M-6214.4-7299.8
		c-1.2,0-2.4-0.4-3.2-1.2c-0.8-0.9-1.3-2-1.2-3.2v-0.2c0-0.8,0.2-1.7,0.5-2.4c0.3-0.7,0.8-1.3,1.5-1.6c0.7-0.4,1.4-0.6,2.2-0.6
		c1.1-0.1,2.1,0.4,2.9,1.2c0.8,0.9,1.1,2.1,1.1,3.3v1h-5.7c0.1,0.5,0.3,1,0.7,1.4c0.4,0.4,0.9,0.6,1.5,0.5c0.8,0,1.7-0.3,2.2-1
		l1.2,1.3c-0.4,0.5-0.9,0.9-1.5,1.2C-6213-7300-6213.7-7299.8-6214.4-7299.8L-6214.4-7299.8z M-6214.7-7307.2
		c-0.4,0-0.9,0.2-1.2,0.5c-0.3,0.4-0.5,0.9-0.6,1.4h3.3v-0.2c0-0.5-0.1-0.9-0.4-1.2C-6213.9-7307.1-6214.3-7307.2-6214.7-7307.2
		L-6214.7-7307.2z M-6204.5-7302.5c0-0.3-0.2-0.6-0.4-0.7c-0.4-0.2-0.9-0.4-1.4-0.5c-2.1-0.4-3.2-1.4-3.2-2.7c0-0.8,0.4-1.5,1-2
		c0.7-0.6,1.7-0.8,2.6-0.8c1,0,1.9,0.2,2.7,0.8c0.7,0.5,1,1.3,1,2.1h-2.4c0-0.3-0.1-0.6-0.3-0.9c-0.3-0.2-0.7-0.4-1-0.3
		c-0.3,0-0.7,0.1-0.9,0.3c-0.2,0.2-0.3,0.4-0.3,0.7c0,0.3,0.1,0.5,0.4,0.6c0.4,0.2,0.8,0.4,1.3,0.4c0.5,0.1,1,0.2,1.5,0.4
		c1.1,0.3,1.9,1.3,1.9,2.4c0,0.8-0.4,1.6-1.1,2c-0.8,0.5-1.8,0.8-2.7,0.8c-0.7,0-1.4-0.1-2-0.4c-0.5-0.2-1-0.6-1.4-1.1
		c-0.3-0.4-0.5-1-0.5-1.5h2.3c0,0.4,0.2,0.7,0.5,1c0.3,0.2,0.8,0.4,1.2,0.3c0.4,0,0.7-0.1,1-0.3
		C-6204.7-7302-6204.5-7302.2-6204.5-7302.5L-6204.5-7302.5z M-6196.5-7299.8c-1.2,0-2.4-0.4-3.2-1.2c-0.8-0.9-1.3-2-1.2-3.2v-0.2
		c0-0.8,0.2-1.7,0.5-2.4c0.3-0.7,0.8-1.3,1.5-1.6c0.7-0.4,1.4-0.6,2.2-0.6c1.1-0.1,2.1,0.4,2.9,1.2c0.8,0.9,1.1,2.1,1.1,3.3v1h-5.7
		c0.1,0.5,0.3,1,0.7,1.4c0.4,0.4,0.9,0.6,1.5,0.5c0.8,0,1.7-0.3,2.2-1l1.2,1.3c-0.4,0.5-0.9,0.9-1.5,1.2
		C-6195.1-7300-6195.8-7299.8-6196.5-7299.8L-6196.5-7299.8z M-6196.8-7307.2c-0.4,0-0.9,0.2-1.2,0.5c-0.3,0.4-0.5,0.9-0.6,1.4h3.3
		v-0.2c0-0.5-0.1-0.9-0.4-1.2C-6195.9-7307.1-6196.4-7307.2-6196.8-7307.2L-6196.8-7307.2z M-6189.2-7309l0.1,1
		c0.6-0.8,1.6-1.2,2.6-1.2c0.8-0.1,1.6,0.2,2.1,0.8c0.5,0.7,0.8,1.6,0.7,2.5v5.8h-2.4v-5.8c0-0.4-0.1-0.8-0.3-1.1
		c-0.3-0.3-0.7-0.4-1.1-0.3c-0.6,0-1.2,0.3-1.5,0.9v6.3h-2.4v-9H-6189.2z M-6179.1-7311.2v2.2h1.5v1.8h-1.5v4.5c0,0.3,0,0.5,0.2,0.7
		c0.2,0.2,0.5,0.2,0.7,0.2c0.2,0,0.5,0,0.7-0.1v1.8c-0.5,0.1-1,0.2-1.5,0.2c-1.3,0.2-2.4-0.7-2.6-2c0-0.2,0-0.4,0-0.6v-4.8h-1.3
		v-1.8h1.3v-2.2L-6179.1-7311.2z M-6171-7300c-0.1-0.3-0.2-0.5-0.2-0.8c-0.6,0.6-1.4,1-2.3,1c-0.8,0-1.6-0.2-2.2-0.8
		c-0.6-0.5-0.9-1.2-0.9-1.9c0-0.9,0.4-1.7,1.1-2.2c0.9-0.6,2-0.8,3.1-0.8h1.1v-0.5c0-0.4-0.1-0.7-0.3-1c-0.3-0.3-0.6-0.4-1-0.4
		c-0.3,0-0.7,0.1-0.9,0.3c-0.2,0.2-0.4,0.5-0.3,0.8h-2.4c0-0.5,0.2-1,0.5-1.4c0.3-0.5,0.8-0.8,1.4-1c0.6-0.3,1.3-0.4,2-0.4
		c1-0.1,1.9,0.2,2.6,0.8c0.7,0.6,1,1.5,1,2.3v3.9c0,0.7,0.1,1.3,0.4,1.9v0.1H-6171z M-6173-7301.7c0.3,0,0.7-0.1,1-0.2
		c0.3-0.1,0.5-0.4,0.7-0.6v-1.5h-0.9c-1.2,0-1.8,0.4-1.9,1.2l0,0.1c0,0.3,0.1,0.6,0.3,0.7C-6173.6-7301.8-6173.3-7301.6-6173-7301.7
		z M-6163.3-7301.8c0.4,0,0.8-0.1,1.1-0.4c0.3-0.2,0.4-0.6,0.4-1h2.2c0,0.6-0.2,1.2-0.5,1.7c-0.3,0.5-0.8,0.9-1.3,1.2
		c-0.6,0.3-1.2,0.4-1.9,0.4c-1.1,0.1-2.3-0.4-3-1.2c-0.8-0.9-1.2-2.2-1.1-3.4v-0.2c-0.1-1.2,0.3-2.4,1.1-3.3c0.8-0.8,1.9-1.3,3-1.2
		c1,0,2,0.3,2.7,1c0.7,0.7,1.1,1.6,1,2.6h-2.2c0-0.4-0.1-0.8-0.4-1.1c-0.3-0.3-0.7-0.5-1.1-0.4c-0.5,0-1,0.2-1.3,0.6
		c-0.3,0.6-0.5,1.3-0.4,2v0.2c-0.1,0.7,0.1,1.4,0.4,2C-6164.3-7302-6163.9-7301.7-6163.3-7301.8z M-6155.7-7300h-2.4v-9h2.4
		L-6155.7-7300z M-6158.2-7311.3c0-0.3,0.1-0.7,0.4-0.9c0.3-0.2,0.6-0.4,1-0.3c0.4,0,0.7,0.1,1,0.3c0.2,0.2,0.4,0.6,0.4,0.9
		c0,0.3-0.1,0.7-0.4,0.9c-0.3,0.2-0.6,0.4-1,0.3c-0.4,0-0.7-0.1-1-0.3C-6158.1-7310.6-6158.2-7311-6158.2-7311.3z M-6154.1-7304.6
		c0-0.8,0.2-1.6,0.5-2.4c0.3-0.7,0.8-1.2,1.5-1.6c0.7-0.4,1.5-0.6,2.2-0.6c1.1,0,2.2,0.4,3,1.1c0.8,0.8,1.3,1.9,1.3,3l0,0.6
		c0.1,1.2-0.4,2.4-1.2,3.3c-0.8,0.8-1.9,1.3-3.1,1.2c-1.2,0.1-2.3-0.4-3.1-1.2c-0.8-0.9-1.2-2.2-1.2-3.4L-6154.1-7304.6z
		 M-6151.7-7304.4c0,0.7,0.1,1.4,0.5,2c0.3,0.4,0.8,0.7,1.4,0.7c0.5,0,1-0.2,1.4-0.7c0.4-0.6,0.5-1.4,0.5-2.1c0-0.7-0.1-1.4-0.5-1.9
		c-0.3-0.5-0.8-0.7-1.4-0.7c-0.5,0-1.1,0.2-1.4,0.7C-6151.6-7305.9-6151.7-7305.1-6151.7-7304.4L-6151.7-7304.4z M-6149.4-7312.8
		h2.6l-2.3,2.6h-2L-6149.4-7312.8z M-6141.9-7309l0.1,1c0.6-0.8,1.6-1.2,2.6-1.2c0.8-0.1,1.6,0.2,2.1,0.8c0.5,0.7,0.8,1.6,0.7,2.5
		v5.8h-2.4v-5.8c0-0.4-0.1-0.8-0.3-1.1c-0.3-0.3-0.7-0.4-1.1-0.3c-0.6,0-1.2,0.3-1.5,0.9v6.3h-2.4v-9L-6141.9-7309z"/>
	<path id="Trazado_238570" class="st11" d="M-5598.9-7304.3v4.3h-2.5v-12.1h4.7c0.8,0,1.6,0.2,2.4,0.5c0.7,0.3,1.2,0.8,1.6,1.4
		c0.4,0.6,0.6,1.4,0.6,2.1c0,1.1-0.4,2.1-1.2,2.8c-1,0.7-2.2,1.1-3.4,1H-5598.9z M-5598.9-7306.3h2.2c0.5,0,1.1-0.1,1.5-0.5
		c0.4-0.3,0.6-0.8,0.5-1.3c0-0.5-0.2-1-0.5-1.4c-0.4-0.4-0.9-0.6-1.4-0.6h-2.3V-7306.3z M-5585.6-7306.7c-0.3,0-0.6-0.1-0.9-0.1
		c-0.7-0.1-1.4,0.3-1.8,0.9v5.9h-2.4v-9h2.3l0.1,1.1c0.4-0.8,1.2-1.2,2-1.2c0.3,0,0.5,0,0.7,0.1L-5585.6-7306.7z M-5580.4-7299.8
		c-1.2,0-2.4-0.4-3.2-1.2c-0.8-0.9-1.3-2-1.2-3.2v-0.2c0-0.8,0.2-1.7,0.5-2.4c0.3-0.7,0.8-1.3,1.5-1.6c0.7-0.4,1.4-0.6,2.2-0.6
		c1.1-0.1,2.1,0.4,2.9,1.2c0.8,0.9,1.1,2.1,1.1,3.3v1h-5.7c0.1,0.5,0.3,1,0.7,1.4c0.4,0.4,0.9,0.6,1.5,0.5c0.8,0,1.7-0.3,2.2-1
		l1.2,1.3c-0.4,0.5-0.9,0.9-1.5,1.2C-5579-7300-5579.7-7299.8-5580.4-7299.8L-5580.4-7299.8z M-5580.7-7307.2
		c-0.4,0-0.9,0.2-1.2,0.5c-0.3,0.4-0.5,0.9-0.6,1.4h3.3v-0.2c0-0.5-0.1-0.9-0.4-1.2C-5579.9-7307.1-5580.3-7307.2-5580.7-7307.2
		L-5580.7-7307.2z M-5570.5-7302.5c0-0.3-0.2-0.6-0.4-0.7c-0.4-0.2-0.9-0.4-1.4-0.5c-2.1-0.4-3.2-1.4-3.2-2.7c0-0.8,0.4-1.5,1-2
		c0.7-0.6,1.7-0.8,2.6-0.8c1,0,1.9,0.2,2.7,0.8c0.7,0.5,1,1.3,1,2.1h-2.4c0-0.3-0.1-0.6-0.3-0.9c-0.3-0.2-0.7-0.4-1-0.3
		c-0.3,0-0.7,0.1-0.9,0.3c-0.2,0.2-0.3,0.4-0.3,0.7c0,0.3,0.1,0.5,0.4,0.6c0.4,0.2,0.8,0.4,1.3,0.4c0.5,0.1,1,0.2,1.5,0.4
		c1.1,0.3,1.9,1.3,1.9,2.4c0,0.8-0.4,1.6-1.1,2c-0.8,0.5-1.8,0.8-2.7,0.8c-0.7,0-1.4-0.1-2-0.4c-0.5-0.2-1-0.6-1.4-1.1
		c-0.3-0.4-0.5-1-0.5-1.5h2.3c0,0.4,0.2,0.7,0.5,1c0.3,0.2,0.8,0.4,1.2,0.3c0.4,0,0.7-0.1,1-0.3
		C-5570.7-7302-5570.5-7302.2-5570.5-7302.5L-5570.5-7302.5z M-5562.5-7299.8c-1.2,0-2.4-0.4-3.2-1.2c-0.8-0.9-1.3-2-1.2-3.2v-0.2
		c0-0.8,0.2-1.7,0.5-2.4c0.3-0.7,0.8-1.3,1.5-1.6c0.7-0.4,1.4-0.6,2.2-0.6c1.1-0.1,2.1,0.4,2.9,1.2c0.8,0.9,1.1,2.1,1.1,3.3v1h-5.7
		c0.1,0.5,0.3,1,0.7,1.4c0.4,0.4,0.9,0.6,1.5,0.5c0.8,0,1.7-0.3,2.2-1l1.2,1.3c-0.4,0.5-0.9,0.9-1.5,1.2
		C-5561.1-7300-5561.8-7299.8-5562.5-7299.8L-5562.5-7299.8z M-5562.8-7307.2c-0.4,0-0.9,0.2-1.2,0.5c-0.3,0.4-0.5,0.9-0.6,1.4h3.3
		v-0.2c0-0.5-0.1-0.9-0.4-1.2C-5561.9-7307.1-5562.4-7307.2-5562.8-7307.2L-5562.8-7307.2z M-5555.2-7309l0.1,1
		c0.6-0.8,1.6-1.2,2.6-1.2c0.8-0.1,1.6,0.2,2.1,0.8c0.5,0.7,0.8,1.6,0.7,2.5v5.8h-2.4v-5.8c0-0.4-0.1-0.8-0.3-1.1
		c-0.3-0.3-0.7-0.4-1.1-0.3c-0.6,0-1.2,0.3-1.5,0.9v6.3h-2.4v-9H-5555.2z M-5545.1-7311.2v2.2h1.5v1.8h-1.5v4.5c0,0.3,0,0.5,0.2,0.7
		c0.2,0.2,0.5,0.2,0.7,0.2c0.2,0,0.5,0,0.7-0.1v1.8c-0.5,0.1-1,0.2-1.5,0.2c-1.3,0.2-2.4-0.7-2.6-2c0-0.2,0-0.4,0-0.6v-4.8h-1.3
		v-1.8h1.3v-2.2L-5545.1-7311.2z M-5537-7300c-0.1-0.3-0.2-0.5-0.2-0.8c-0.6,0.6-1.4,1-2.3,1c-0.8,0-1.6-0.2-2.2-0.8
		c-0.6-0.5-0.9-1.2-0.9-1.9c0-0.9,0.4-1.7,1.1-2.2c0.9-0.6,2-0.8,3.1-0.8h1.1v-0.5c0-0.4-0.1-0.7-0.3-1c-0.3-0.3-0.6-0.4-1-0.4
		c-0.3,0-0.7,0.1-0.9,0.3c-0.2,0.2-0.4,0.5-0.3,0.8h-2.4c0-0.5,0.2-1,0.5-1.4c0.3-0.5,0.8-0.8,1.4-1c0.6-0.3,1.3-0.4,2-0.4
		c1-0.1,1.9,0.2,2.6,0.8c0.7,0.6,1,1.5,1,2.3v3.9c0,0.7,0.1,1.3,0.4,1.9v0.1H-5537z M-5539-7301.7c0.3,0,0.7-0.1,1-0.2
		c0.3-0.1,0.5-0.4,0.7-0.6v-1.5h-0.9c-1.2,0-1.8,0.4-1.9,1.2l0,0.1c0,0.3,0.1,0.6,0.3,0.7C-5539.6-7301.8-5539.3-7301.6-5539-7301.7
		z M-5529.3-7301.8c0.4,0,0.8-0.1,1.1-0.4c0.3-0.2,0.4-0.6,0.4-1h2.2c0,0.6-0.2,1.2-0.5,1.7c-0.3,0.5-0.8,0.9-1.3,1.2
		c-0.6,0.3-1.2,0.4-1.9,0.4c-1.1,0.1-2.3-0.4-3-1.2c-0.8-0.9-1.2-2.2-1.1-3.4v-0.2c-0.1-1.2,0.3-2.4,1.1-3.3c0.8-0.8,1.9-1.3,3-1.2
		c1,0,2,0.3,2.7,1c0.7,0.7,1.1,1.6,1,2.6h-2.2c0-0.4-0.1-0.8-0.4-1.1c-0.3-0.3-0.7-0.5-1.1-0.4c-0.5,0-1,0.2-1.3,0.6
		c-0.3,0.6-0.5,1.3-0.4,2v0.2c-0.1,0.7,0.1,1.4,0.4,2C-5530.3-7302-5529.9-7301.7-5529.3-7301.8z M-5521.7-7300h-2.4v-9h2.4
		L-5521.7-7300z M-5524.2-7311.3c0-0.3,0.1-0.7,0.4-0.9c0.3-0.2,0.6-0.4,1-0.3c0.4,0,0.7,0.1,1,0.3c0.2,0.2,0.4,0.6,0.4,0.9
		c0,0.3-0.1,0.7-0.4,0.9c-0.3,0.2-0.6,0.4-1,0.3c-0.4,0-0.7-0.1-1-0.3C-5524.1-7310.6-5524.2-7311-5524.2-7311.3z M-5520.1-7304.6
		c0-0.8,0.2-1.6,0.5-2.4c0.3-0.7,0.8-1.2,1.5-1.6c0.7-0.4,1.5-0.6,2.2-0.6c1.1,0,2.2,0.4,3,1.1c0.8,0.8,1.3,1.9,1.3,3l0,0.6
		c0.1,1.2-0.4,2.4-1.2,3.3c-0.8,0.8-1.9,1.3-3.1,1.2c-1.2,0.1-2.3-0.4-3.1-1.2c-0.8-0.9-1.2-2.2-1.2-3.4L-5520.1-7304.6z
		 M-5517.7-7304.4c0,0.7,0.1,1.4,0.5,2c0.3,0.4,0.8,0.7,1.4,0.7c0.5,0,1-0.2,1.4-0.7c0.4-0.6,0.5-1.4,0.5-2.1c0-0.7-0.1-1.4-0.5-1.9
		c-0.3-0.5-0.8-0.7-1.4-0.7c-0.5,0-1.1,0.2-1.4,0.7C-5517.6-7305.9-5517.7-7305.1-5517.7-7304.4L-5517.7-7304.4z M-5515.4-7312.8
		h2.6l-2.3,2.6h-2L-5515.4-7312.8z M-5507.9-7309l0.1,1c0.6-0.8,1.6-1.2,2.6-1.2c0.8-0.1,1.6,0.2,2.1,0.8c0.5,0.7,0.8,1.6,0.7,2.5
		v5.8h-2.4v-5.8c0-0.4-0.1-0.8-0.3-1.1c-0.3-0.3-0.7-0.4-1.1-0.3c-0.6,0-1.2,0.3-1.5,0.9v6.3h-2.4v-9L-5507.9-7309z"/>
	<path id="Trazado_238571" class="st11" d="M-5925.9-7304.3v4.3h-2.5v-12.1h4.7c0.8,0,1.6,0.2,2.4,0.5c0.7,0.3,1.2,0.8,1.6,1.4
		c0.4,0.6,0.6,1.4,0.6,2.1c0,1.1-0.4,2.1-1.2,2.8c-1,0.7-2.2,1.1-3.4,1H-5925.9z M-5925.9-7306.3h2.2c0.5,0,1.1-0.1,1.5-0.5
		c0.4-0.3,0.6-0.8,0.5-1.3c0-0.5-0.2-1-0.5-1.4c-0.4-0.4-0.9-0.6-1.4-0.6h-2.3V-7306.3z M-5912.6-7306.7c-0.3,0-0.6-0.1-0.9-0.1
		c-0.7-0.1-1.4,0.3-1.8,0.9v5.9h-2.4v-9h2.3l0.1,1.1c0.4-0.8,1.2-1.2,2-1.2c0.3,0,0.5,0,0.7,0.1L-5912.6-7306.7z M-5907.4-7299.8
		c-1.2,0-2.4-0.4-3.2-1.2c-0.8-0.9-1.3-2-1.2-3.2v-0.2c0-0.8,0.2-1.7,0.5-2.4c0.3-0.7,0.8-1.3,1.5-1.6c0.7-0.4,1.4-0.6,2.2-0.6
		c1.1-0.1,2.1,0.4,2.9,1.2c0.8,0.9,1.1,2.1,1.1,3.3v1h-5.7c0.1,0.5,0.3,1,0.7,1.4c0.4,0.4,0.9,0.6,1.5,0.5c0.8,0,1.7-0.3,2.2-1
		l1.2,1.3c-0.4,0.5-0.9,0.9-1.5,1.2C-5906-7300-5906.7-7299.8-5907.4-7299.8L-5907.4-7299.8z M-5907.7-7307.2
		c-0.4,0-0.9,0.2-1.2,0.5c-0.3,0.4-0.5,0.9-0.6,1.4h3.3v-0.2c0-0.5-0.1-0.9-0.4-1.2C-5906.9-7307.1-5907.3-7307.2-5907.7-7307.2
		L-5907.7-7307.2z M-5897.5-7302.5c0-0.3-0.2-0.6-0.4-0.7c-0.4-0.2-0.9-0.4-1.4-0.5c-2.1-0.4-3.2-1.4-3.2-2.7c0-0.8,0.4-1.5,1-2
		c0.7-0.6,1.7-0.8,2.6-0.8c1,0,1.9,0.2,2.7,0.8c0.7,0.5,1,1.3,1,2.1h-2.4c0-0.3-0.1-0.6-0.3-0.9c-0.3-0.2-0.7-0.4-1-0.3
		c-0.3,0-0.7,0.1-0.9,0.3c-0.2,0.2-0.3,0.4-0.3,0.7c0,0.3,0.1,0.5,0.4,0.6c0.4,0.2,0.8,0.4,1.3,0.4c0.5,0.1,1,0.2,1.5,0.4
		c1.1,0.3,1.9,1.3,1.9,2.4c0,0.8-0.4,1.6-1.1,2c-0.8,0.5-1.8,0.8-2.7,0.8c-0.7,0-1.4-0.1-2-0.4c-0.5-0.2-1-0.6-1.4-1.1
		c-0.3-0.4-0.5-1-0.5-1.5h2.3c0,0.4,0.2,0.7,0.5,1c0.3,0.2,0.8,0.4,1.2,0.3c0.4,0,0.7-0.1,1-0.3
		C-5897.7-7302-5897.5-7302.2-5897.5-7302.5L-5897.5-7302.5z M-5889.5-7299.8c-1.2,0-2.4-0.4-3.2-1.2c-0.8-0.9-1.3-2-1.2-3.2v-0.2
		c0-0.8,0.2-1.7,0.5-2.4c0.3-0.7,0.8-1.3,1.5-1.6c0.7-0.4,1.4-0.6,2.2-0.6c1.1-0.1,2.1,0.4,2.9,1.2c0.8,0.9,1.1,2.1,1.1,3.3v1h-5.7
		c0.1,0.5,0.3,1,0.7,1.4c0.4,0.4,0.9,0.6,1.5,0.5c0.8,0,1.7-0.3,2.2-1l1.2,1.3c-0.4,0.5-0.9,0.9-1.5,1.2
		C-5888.1-7300-5888.8-7299.8-5889.5-7299.8L-5889.5-7299.8z M-5889.8-7307.2c-0.4,0-0.9,0.2-1.2,0.5c-0.3,0.4-0.5,0.9-0.6,1.4h3.3
		v-0.2c0-0.5-0.1-0.9-0.4-1.2C-5888.9-7307.1-5889.4-7307.2-5889.8-7307.2L-5889.8-7307.2z M-5882.2-7309l0.1,1
		c0.6-0.8,1.6-1.2,2.6-1.2c0.8-0.1,1.6,0.2,2.1,0.8c0.5,0.7,0.8,1.6,0.7,2.5v5.8h-2.4v-5.8c0-0.4-0.1-0.8-0.3-1.1
		c-0.3-0.3-0.7-0.4-1.1-0.3c-0.6,0-1.2,0.3-1.5,0.9v6.3h-2.4v-9H-5882.2z M-5872.1-7311.2v2.2h1.5v1.8h-1.5v4.5c0,0.3,0,0.5,0.2,0.7
		c0.2,0.2,0.5,0.2,0.7,0.2c0.2,0,0.5,0,0.7-0.1v1.8c-0.5,0.1-1,0.2-1.5,0.2c-1.3,0.2-2.4-0.7-2.6-2c0-0.2,0-0.4,0-0.6v-4.8h-1.3
		v-1.8h1.3v-2.2L-5872.1-7311.2z M-5864-7300c-0.1-0.3-0.2-0.5-0.2-0.8c-0.6,0.6-1.4,1-2.3,1c-0.8,0-1.6-0.2-2.2-0.8
		c-0.6-0.5-0.9-1.2-0.9-1.9c0-0.9,0.4-1.7,1.1-2.2c0.9-0.6,2-0.8,3.1-0.8h1.1v-0.5c0-0.4-0.1-0.7-0.3-1c-0.3-0.3-0.6-0.4-1-0.4
		c-0.3,0-0.7,0.1-0.9,0.3c-0.2,0.2-0.4,0.5-0.3,0.8h-2.4c0-0.5,0.2-1,0.5-1.4c0.3-0.5,0.8-0.8,1.4-1c0.6-0.3,1.3-0.4,2-0.4
		c1-0.1,1.9,0.2,2.6,0.8c0.7,0.6,1,1.5,1,2.3v3.9c0,0.7,0.1,1.3,0.4,1.9v0.1H-5864z M-5866-7301.7c0.3,0,0.7-0.1,1-0.2
		c0.3-0.1,0.5-0.4,0.7-0.6v-1.5h-0.9c-1.2,0-1.8,0.4-1.9,1.2l0,0.1c0,0.3,0.1,0.6,0.3,0.7C-5866.6-7301.8-5866.3-7301.6-5866-7301.7
		z M-5856.3-7301.8c0.4,0,0.8-0.1,1.1-0.4c0.3-0.2,0.4-0.6,0.4-1h2.2c0,0.6-0.2,1.2-0.5,1.7c-0.3,0.5-0.8,0.9-1.3,1.2
		c-0.6,0.3-1.2,0.4-1.9,0.4c-1.1,0.1-2.3-0.4-3-1.2c-0.8-0.9-1.2-2.2-1.1-3.4v-0.2c-0.1-1.2,0.3-2.4,1.1-3.3c0.8-0.8,1.9-1.3,3-1.2
		c1,0,2,0.3,2.7,1c0.7,0.7,1.1,1.6,1,2.6h-2.2c0-0.4-0.1-0.8-0.4-1.1c-0.3-0.3-0.7-0.5-1.1-0.4c-0.5,0-1,0.2-1.3,0.6
		c-0.3,0.6-0.5,1.3-0.4,2v0.2c-0.1,0.7,0.1,1.4,0.4,2C-5857.3-7302-5856.9-7301.7-5856.3-7301.8z M-5848.7-7300h-2.4v-9h2.4
		L-5848.7-7300z M-5851.2-7311.3c0-0.3,0.1-0.7,0.4-0.9c0.3-0.2,0.6-0.4,1-0.3c0.4,0,0.7,0.1,1,0.3c0.2,0.2,0.4,0.6,0.4,0.9
		c0,0.3-0.1,0.7-0.4,0.9c-0.3,0.2-0.6,0.4-1,0.3c-0.4,0-0.7-0.1-1-0.3C-5851.1-7310.6-5851.2-7311-5851.2-7311.3z M-5847.1-7304.6
		c0-0.8,0.2-1.6,0.5-2.4c0.3-0.7,0.8-1.2,1.5-1.6c0.7-0.4,1.5-0.6,2.2-0.6c1.1,0,2.2,0.4,3,1.1c0.8,0.8,1.3,1.9,1.3,3l0,0.6
		c0.1,1.2-0.4,2.4-1.2,3.3c-0.8,0.8-1.9,1.3-3.1,1.2c-1.2,0.1-2.3-0.4-3.1-1.2c-0.8-0.9-1.2-2.2-1.2-3.4L-5847.1-7304.6z
		 M-5844.7-7304.4c0,0.7,0.1,1.4,0.5,2c0.3,0.4,0.8,0.7,1.4,0.7c0.5,0,1-0.2,1.4-0.7c0.4-0.6,0.5-1.4,0.5-2.1c0-0.7-0.1-1.4-0.5-1.9
		c-0.3-0.5-0.8-0.7-1.4-0.7c-0.5,0-1.1,0.2-1.4,0.7C-5844.6-7305.9-5844.7-7305.1-5844.7-7304.4L-5844.7-7304.4z M-5842.4-7312.8
		h2.6l-2.3,2.6h-2L-5842.4-7312.8z M-5834.9-7309l0.1,1c0.6-0.8,1.6-1.2,2.6-1.2c0.8-0.1,1.6,0.2,2.1,0.8c0.5,0.7,0.8,1.6,0.7,2.5
		v5.8h-2.4v-5.8c0-0.4-0.1-0.8-0.3-1.1c-0.3-0.3-0.7-0.4-1.1-0.3c-0.6,0-1.2,0.3-1.5,0.9v6.3h-2.4v-9L-5834.9-7309z"/>
	<path id="Trazado_238572" class="st11" d="M-6245.3-6969.5h-4.4l-0.8,2.5h-2.6l4.5-12.1h2.3l4.5,12.1h-2.6L-6245.3-6969.5z
		 M-6249-6971.5h3l-1.5-4.5L-6249-6971.5z M-6237.1-6968.8c0.4,0,0.8-0.1,1.1-0.4c0.3-0.2,0.4-0.6,0.4-1h2.2c0,0.6-0.2,1.2-0.5,1.7
		c-0.3,0.5-0.8,0.9-1.3,1.2c-0.6,0.3-1.2,0.4-1.9,0.4c-1.1,0.1-2.3-0.4-3-1.2c-0.8-0.9-1.2-2.2-1.1-3.4v-0.2
		c-0.1-1.2,0.3-2.4,1.1-3.3c0.8-0.8,1.9-1.3,3-1.2c1,0,2,0.3,2.7,1c0.7,0.7,1.1,1.6,1,2.6h-2.2c0-0.4-0.1-0.8-0.4-1.1
		c-0.3-0.3-0.7-0.5-1.1-0.4c-0.5,0-1,0.2-1.3,0.6c-0.3,0.6-0.5,1.3-0.4,2v0.2c-0.1,0.7,0.1,1.4,0.4,2
		C-6238.1-6969-6237.7-6968.7-6237.1-6968.8z M-6228.3-6968.8c0.4,0,0.8-0.1,1.1-0.4c0.3-0.2,0.4-0.6,0.4-1h2.2
		c0,0.6-0.2,1.2-0.5,1.7c-0.3,0.5-0.8,0.9-1.3,1.2c-0.6,0.3-1.2,0.4-1.9,0.4c-1.1,0.1-2.3-0.4-3-1.2c-0.8-0.9-1.2-2.2-1.1-3.4v-0.2
		c-0.1-1.2,0.3-2.4,1.1-3.3c0.8-0.8,1.9-1.3,3-1.2c1,0,2,0.3,2.7,1c0.7,0.7,1.1,1.6,1,2.6h-2.2c0-0.4-0.1-0.8-0.4-1.1
		c-0.3-0.3-0.7-0.5-1.1-0.4c-0.5,0-1,0.2-1.3,0.6c-0.3,0.6-0.5,1.3-0.4,2v0.2c-0.1,0.7,0.1,1.4,0.4,2
		C-6229.3-6969-6228.8-6968.7-6228.3-6968.8z M-6219-6966.8c-1.2,0-2.4-0.4-3.2-1.2c-0.8-0.9-1.3-2-1.2-3.2v-0.2
		c0-0.8,0.2-1.7,0.5-2.4c0.3-0.7,0.8-1.3,1.5-1.6c0.7-0.4,1.4-0.6,2.2-0.6c1.1-0.1,2.2,0.4,2.9,1.2c0.8,0.9,1.1,2.1,1.1,3.3v1h-5.7
		c0.1,0.5,0.3,1,0.7,1.4c0.4,0.4,0.9,0.6,1.5,0.5c0.8,0,1.7-0.3,2.2-1l1.2,1.3c-0.4,0.5-0.9,0.9-1.5,1.2
		C-6217.6-6967-6218.3-6966.8-6219-6966.8z M-6219.3-6974.2c-0.4,0-0.9,0.2-1.2,0.5c-0.3,0.4-0.5,0.9-0.6,1.4h3.3v-0.2
		c0-0.5-0.1-0.9-0.4-1.2C-6218.4-6974.1-6218.9-6974.2-6219.3-6974.2L-6219.3-6974.2z M-6209.1-6969.5c0-0.3-0.2-0.6-0.4-0.7
		c-0.4-0.2-0.9-0.4-1.4-0.5c-2.1-0.4-3.2-1.4-3.2-2.7c0-0.8,0.4-1.5,1-2c0.7-0.6,1.7-0.8,2.6-0.8c1,0,1.9,0.2,2.7,0.8
		c0.7,0.5,1,1.3,1,2.1h-2.4c0-0.3-0.1-0.6-0.3-0.9c-0.3-0.2-0.7-0.4-1-0.3c-0.3,0-0.7,0.1-0.9,0.3c-0.2,0.2-0.3,0.4-0.3,0.7
		c0,0.3,0.1,0.5,0.4,0.6c0.4,0.2,0.8,0.4,1.3,0.4c0.5,0.1,1,0.2,1.5,0.4c1.1,0.3,1.9,1.3,1.9,2.4c0,0.8-0.4,1.5-1.1,2
		c-0.8,0.5-1.8,0.8-2.7,0.8c-0.7,0-1.4-0.1-2-0.4c-0.5-0.2-1-0.6-1.4-1.1c-0.3-0.4-0.5-1-0.5-1.5h2.3c0,0.4,0.2,0.7,0.5,1
		c0.3,0.2,0.8,0.4,1.2,0.3c0.4,0,0.7-0.1,1-0.3C-6209.2-6969-6209.1-6969.2-6209.1-6969.5z M-6205.6-6971.6c0-0.8,0.2-1.6,0.5-2.4
		c0.3-0.7,0.8-1.2,1.5-1.6c0.7-0.4,1.5-0.6,2.2-0.6c1.1,0,2.2,0.4,3,1.1c0.8,0.8,1.3,1.9,1.3,3l0,0.6c0.1,1.2-0.4,2.4-1.2,3.3
		c-0.8,0.8-1.9,1.3-3.1,1.2c-1.2,0.1-2.3-0.4-3.1-1.2c-0.8-0.9-1.2-2.2-1.2-3.4V-6971.6z M-6203.2-6971.4c0,0.7,0.1,1.4,0.5,2
		c0.3,0.4,0.8,0.7,1.4,0.7c0.5,0,1-0.2,1.4-0.7c0.4-0.6,0.5-1.4,0.5-2.1c0-0.7-0.1-1.4-0.5-1.9c-0.3-0.5-0.8-0.7-1.4-0.7
		c-0.5,0-1.1,0.2-1.4,0.7C-6203.1-6972.9-6203.3-6972.1-6203.2-6971.4L-6203.2-6971.4z M-6191.8-6971.6c-0.1-1.2,0.3-2.4,0.9-3.3
		c0.6-0.8,1.6-1.3,2.6-1.2c0.8,0,1.6,0.3,2.2,1v-4.6h2.4v12.8h-2.2l-0.1-1c-0.5,0.7-1.4,1.1-2.3,1.1c-1,0-2-0.4-2.5-1.2
		C-6191.5-6969.1-6191.8-6970.3-6191.8-6971.6L-6191.8-6971.6z M-6189.4-6971.4c0,0.7,0.1,1.4,0.4,1.9c0.3,0.4,0.8,0.7,1.3,0.7
		c0.7,0,1.3-0.3,1.6-0.9v-3.6c-0.3-0.6-0.9-1-1.6-0.9C-6188.8-6974.2-6189.4-6973.3-6189.4-6971.4L-6189.4-6971.4z M-6177.7-6966.8
		c-1.2,0-2.4-0.4-3.2-1.2c-0.8-0.9-1.3-2-1.2-3.2v-0.2c0-0.8,0.2-1.7,0.5-2.4c0.3-0.7,0.8-1.3,1.5-1.6c0.7-0.4,1.4-0.6,2.2-0.6
		c1.1-0.1,2.2,0.4,2.9,1.2c0.8,0.9,1.1,2.1,1.1,3.3v1h-5.7c0.1,0.5,0.3,1,0.7,1.4c0.4,0.4,0.9,0.6,1.5,0.5c0.8,0,1.7-0.3,2.2-1
		l1.2,1.3c-0.4,0.5-0.9,0.9-1.5,1.2C-6176.3-6967-6177-6966.8-6177.7-6966.8z M-6177.9-6974.2c-0.4,0-0.9,0.2-1.2,0.5
		c-0.3,0.4-0.5,0.9-0.6,1.4h3.3v-0.2c0-0.5-0.1-0.9-0.4-1.2C-6177.1-6974.1-6177.5-6974.2-6177.9-6974.2z M-6168.8-6971.6
		c-0.1-1.2,0.3-2.4,0.9-3.3c0.6-0.8,1.6-1.3,2.6-1.2c0.8,0,1.6,0.3,2.2,1v-4.6h2.4v12.8h-2.2l-0.1-1c-0.5,0.7-1.4,1.1-2.3,1.1
		c-1,0-2-0.4-2.5-1.2C-6168.5-6969.1-6168.8-6970.3-6168.8-6971.6z M-6166.4-6971.4c0,0.7,0.1,1.4,0.4,1.9c0.3,0.4,0.8,0.7,1.3,0.7
		c0.7,0,1.3-0.3,1.6-0.9v-3.6c-0.3-0.6-0.9-1-1.6-0.9C-6165.8-6974.2-6166.4-6973.3-6166.4-6971.4L-6166.4-6971.4z M-6153.6-6967
		c-0.1-0.3-0.2-0.5-0.2-0.8c-0.6,0.6-1.4,1-2.3,1c-0.8,0-1.6-0.2-2.2-0.8c-0.6-0.5-0.9-1.2-0.9-1.9c0-0.9,0.4-1.7,1.1-2.2
		c0.9-0.6,2-0.8,3.1-0.8h1.1v-0.5c0-0.4-0.1-0.7-0.3-1c-0.3-0.3-0.6-0.4-1-0.4c-0.3,0-0.7,0.1-1,0.3c-0.2,0.2-0.4,0.5-0.3,0.8h-2.4
		c0-0.5,0.2-1,0.5-1.4c0.4-0.5,0.8-0.8,1.4-1c0.6-0.3,1.3-0.4,2-0.4c1-0.1,1.9,0.2,2.6,0.8c0.7,0.6,1,1.5,1,2.3v3.9
		c0,0.7,0.1,1.3,0.4,1.9v0.1H-6153.6z M-6155.6-6968.7c0.3,0,0.7-0.1,1-0.2c0.3-0.1,0.5-0.4,0.7-0.6v-1.5h-0.9
		c-1.2,0-1.8,0.4-1.9,1.2l0,0.1c0,0.3,0.1,0.6,0.3,0.7C-6156.2-6968.8-6155.9-6968.6-6155.6-6968.7z M-6146.8-6978.2v2.2h1.5v1.8
		h-1.5v4.5c0,0.3,0,0.5,0.2,0.7c0.2,0.2,0.5,0.2,0.7,0.2c0.2,0,0.5,0,0.7-0.1v1.8c-0.5,0.1-1,0.2-1.5,0.2c-1.3,0.2-2.4-0.7-2.6-2
		c0-0.2,0-0.4,0-0.6v-4.8h-1.3v-1.8h1.3v-2.2L-6146.8-6978.2z M-6144.6-6971.6c0-0.8,0.2-1.6,0.5-2.4c0.3-0.7,0.8-1.2,1.5-1.6
		c0.7-0.4,1.5-0.6,2.2-0.6c1.1,0,2.2,0.4,3,1.1c0.8,0.8,1.3,1.9,1.3,3l0,0.6c0.1,1.2-0.4,2.4-1.2,3.3c-0.8,0.8-1.9,1.3-3.1,1.2
		c-1.2,0.1-2.3-0.4-3.1-1.2c-0.8-0.9-1.2-2.2-1.2-3.4L-6144.6-6971.6z M-6142.2-6971.4c0,0.7,0.1,1.4,0.5,2c0.3,0.4,0.8,0.7,1.4,0.7
		c0.5,0,1-0.2,1.4-0.7c0.4-0.6,0.5-1.4,0.5-2.1c0-0.7-0.1-1.4-0.5-1.9c-0.3-0.5-0.8-0.7-1.4-0.7c-0.5,0-1.1,0.2-1.4,0.7
		C-6142-6972.9-6142.2-6972.1-6142.2-6971.4L-6142.2-6971.4z M-6129.7-6969.5c0-0.3-0.2-0.6-0.4-0.7c-0.4-0.2-0.9-0.4-1.4-0.5
		c-2.1-0.4-3.2-1.4-3.2-2.7c0-0.8,0.4-1.5,1-2c0.7-0.6,1.7-0.8,2.6-0.8c1,0,1.9,0.2,2.7,0.8c0.7,0.5,1,1.3,1,2.1h-2.4
		c0-0.3-0.1-0.6-0.3-0.9c-0.3-0.2-0.7-0.4-1-0.3c-0.3,0-0.7,0.1-0.9,0.3c-0.2,0.2-0.3,0.4-0.3,0.7c0,0.3,0.1,0.5,0.4,0.6
		c0.4,0.2,0.8,0.4,1.3,0.4c0.5,0.1,1,0.2,1.5,0.4c1.1,0.3,1.9,1.3,1.9,2.4c0,0.8-0.4,1.5-1.1,2c-0.8,0.5-1.8,0.8-2.7,0.8
		c-0.7,0-1.4-0.1-2-0.4c-0.5-0.2-1-0.6-1.4-1.1c-0.3-0.4-0.5-1-0.5-1.5h2.3c0,0.4,0.2,0.7,0.5,1c0.3,0.2,0.8,0.4,1.2,0.3
		c0.4,0,0.7-0.1,1-0.3C-6129.8-6969-6129.7-6969.2-6129.7-6969.5z"/>
	<path id="Trazado_238573" class="st11" d="M-5611.3-6969.5h-4.4l-0.8,2.5h-2.6l4.5-12.1h2.3l4.5,12.1h-2.6L-5611.3-6969.5z
		 M-5615-6971.5h3l-1.5-4.5L-5615-6971.5z M-5603.1-6968.8c0.4,0,0.8-0.1,1.1-0.4c0.3-0.2,0.4-0.6,0.4-1h2.2c0,0.6-0.2,1.2-0.5,1.7
		c-0.3,0.5-0.8,0.9-1.3,1.2c-0.6,0.3-1.2,0.4-1.9,0.4c-1.1,0.1-2.3-0.4-3-1.2c-0.8-0.9-1.2-2.2-1.1-3.4v-0.2
		c-0.1-1.2,0.3-2.4,1.1-3.3c0.8-0.8,1.9-1.3,3-1.2c1,0,2,0.3,2.7,1c0.7,0.7,1.1,1.6,1,2.6h-2.2c0-0.4-0.1-0.8-0.4-1.1
		c-0.3-0.3-0.7-0.5-1.1-0.4c-0.5,0-1,0.2-1.3,0.6c-0.3,0.6-0.5,1.3-0.4,2v0.2c-0.1,0.7,0.1,1.4,0.4,2
		C-5604.1-6969-5603.7-6968.7-5603.1-6968.8z M-5594.3-6968.8c0.4,0,0.8-0.1,1.1-0.4c0.3-0.2,0.4-0.6,0.4-1h2.2
		c0,0.6-0.2,1.2-0.5,1.7c-0.3,0.5-0.8,0.9-1.3,1.2c-0.6,0.3-1.2,0.4-1.9,0.4c-1.1,0.1-2.3-0.4-3-1.2c-0.8-0.9-1.2-2.2-1.1-3.4v-0.2
		c-0.1-1.2,0.3-2.4,1.1-3.3c0.8-0.8,1.9-1.3,3-1.2c1,0,2,0.3,2.7,1c0.7,0.7,1.1,1.6,1,2.6h-2.2c0-0.4-0.1-0.8-0.4-1.1
		c-0.3-0.3-0.7-0.5-1.1-0.4c-0.5,0-1,0.2-1.3,0.6c-0.3,0.6-0.5,1.3-0.4,2v0.2c-0.1,0.7,0.1,1.4,0.4,2
		C-5595.3-6969-5594.8-6968.7-5594.3-6968.8z M-5585-6966.8c-1.2,0-2.4-0.4-3.2-1.2c-0.8-0.9-1.3-2-1.2-3.2v-0.2
		c0-0.8,0.2-1.7,0.5-2.4c0.3-0.7,0.8-1.3,1.5-1.6c0.7-0.4,1.4-0.6,2.2-0.6c1.1-0.1,2.2,0.4,2.9,1.2c0.8,0.9,1.1,2.1,1.1,3.3v1h-5.7
		c0.1,0.5,0.3,1,0.7,1.4c0.4,0.4,0.9,0.6,1.5,0.5c0.8,0,1.7-0.3,2.2-1l1.2,1.3c-0.4,0.5-0.9,0.9-1.5,1.2
		C-5583.6-6967-5584.3-6966.8-5585-6966.8z M-5585.3-6974.2c-0.4,0-0.9,0.2-1.2,0.5c-0.3,0.4-0.5,0.9-0.6,1.4h3.3v-0.2
		c0-0.5-0.1-0.9-0.4-1.2C-5584.4-6974.1-5584.9-6974.2-5585.3-6974.2L-5585.3-6974.2z M-5575.1-6969.5c0-0.3-0.2-0.6-0.4-0.7
		c-0.4-0.2-0.9-0.4-1.4-0.5c-2.1-0.4-3.2-1.4-3.2-2.7c0-0.8,0.4-1.5,1-2c0.7-0.6,1.7-0.8,2.6-0.8c1,0,1.9,0.2,2.7,0.8
		c0.7,0.5,1,1.3,1,2.1h-2.4c0-0.3-0.1-0.6-0.3-0.9c-0.3-0.2-0.7-0.4-1-0.3c-0.3,0-0.7,0.1-0.9,0.3c-0.2,0.2-0.3,0.4-0.3,0.7
		c0,0.3,0.1,0.5,0.4,0.6c0.4,0.2,0.8,0.4,1.3,0.4c0.5,0.1,1,0.2,1.5,0.4c1.1,0.3,1.9,1.3,1.9,2.4c0,0.8-0.4,1.5-1.1,2
		c-0.8,0.5-1.8,0.8-2.7,0.8c-0.7,0-1.4-0.1-2-0.4c-0.5-0.2-1-0.6-1.4-1.1c-0.3-0.4-0.5-1-0.5-1.5h2.3c0,0.4,0.2,0.7,0.5,1
		c0.3,0.2,0.8,0.4,1.2,0.3c0.4,0,0.7-0.1,1-0.3C-5575.2-6969-5575.1-6969.2-5575.1-6969.5z M-5571.6-6971.6c0-0.8,0.2-1.6,0.5-2.4
		c0.3-0.7,0.8-1.2,1.5-1.6c0.7-0.4,1.5-0.6,2.2-0.6c1.1,0,2.2,0.4,3,1.1c0.8,0.8,1.3,1.9,1.3,3l0,0.6c0.1,1.2-0.4,2.4-1.2,3.3
		c-0.8,0.8-1.9,1.3-3.1,1.2c-1.2,0.1-2.3-0.4-3.1-1.2c-0.8-0.9-1.2-2.2-1.2-3.4V-6971.6z M-5569.2-6971.4c0,0.7,0.1,1.4,0.5,2
		c0.3,0.4,0.8,0.7,1.4,0.7c0.5,0,1-0.2,1.4-0.7c0.4-0.6,0.5-1.4,0.5-2.1c0-0.7-0.1-1.4-0.5-1.9c-0.3-0.5-0.8-0.7-1.4-0.7
		c-0.5,0-1.1,0.2-1.4,0.7C-5569.1-6972.9-5569.3-6972.1-5569.2-6971.4L-5569.2-6971.4z M-5557.8-6971.6c-0.1-1.2,0.3-2.4,0.9-3.3
		c0.6-0.8,1.6-1.3,2.6-1.2c0.8,0,1.6,0.3,2.2,1v-4.6h2.4v12.8h-2.2l-0.1-1c-0.5,0.7-1.4,1.1-2.3,1.1c-1,0-2-0.4-2.5-1.2
		C-5557.5-6969.1-5557.8-6970.3-5557.8-6971.6L-5557.8-6971.6z M-5555.4-6971.4c0,0.7,0.1,1.4,0.4,1.9c0.3,0.4,0.8,0.7,1.3,0.7
		c0.7,0,1.3-0.3,1.6-0.9v-3.6c-0.3-0.6-0.9-1-1.6-0.9C-5554.8-6974.2-5555.4-6973.3-5555.4-6971.4L-5555.4-6971.4z M-5543.7-6966.8
		c-1.2,0-2.4-0.4-3.2-1.2c-0.8-0.9-1.3-2-1.2-3.2v-0.2c0-0.8,0.2-1.7,0.5-2.4c0.3-0.7,0.8-1.3,1.5-1.6c0.7-0.4,1.4-0.6,2.2-0.6
		c1.1-0.1,2.2,0.4,2.9,1.2c0.8,0.9,1.1,2.1,1.1,3.3v1h-5.7c0.1,0.5,0.3,1,0.7,1.4c0.4,0.4,0.9,0.6,1.5,0.5c0.8,0,1.7-0.3,2.2-1
		l1.2,1.3c-0.4,0.5-0.9,0.9-1.5,1.2C-5542.3-6967-5543-6966.8-5543.7-6966.8z M-5543.9-6974.2c-0.4,0-0.9,0.2-1.2,0.5
		c-0.3,0.4-0.5,0.9-0.6,1.4h3.3v-0.2c0-0.5-0.1-0.9-0.4-1.2C-5543.1-6974.1-5543.5-6974.2-5543.9-6974.2z M-5534.8-6971.6
		c-0.1-1.2,0.3-2.4,0.9-3.3c0.6-0.8,1.6-1.3,2.6-1.2c0.8,0,1.6,0.3,2.2,1v-4.6h2.4v12.8h-2.2l-0.1-1c-0.5,0.7-1.4,1.1-2.3,1.1
		c-1,0-2-0.4-2.5-1.2C-5534.5-6969.1-5534.8-6970.3-5534.8-6971.6z M-5532.4-6971.4c0,0.7,0.1,1.4,0.4,1.9c0.3,0.4,0.8,0.7,1.3,0.7
		c0.7,0,1.3-0.3,1.6-0.9v-3.6c-0.3-0.6-0.9-1-1.6-0.9C-5531.8-6974.2-5532.4-6973.3-5532.4-6971.4L-5532.4-6971.4z M-5519.6-6967
		c-0.1-0.3-0.2-0.5-0.2-0.8c-0.6,0.6-1.4,1-2.3,1c-0.8,0-1.6-0.2-2.2-0.8c-0.6-0.5-0.9-1.2-0.9-1.9c0-0.9,0.4-1.7,1.1-2.2
		c0.9-0.6,2-0.8,3.1-0.8h1.1v-0.5c0-0.4-0.1-0.7-0.3-1c-0.3-0.3-0.6-0.4-1-0.4c-0.3,0-0.7,0.1-1,0.3c-0.2,0.2-0.4,0.5-0.3,0.8h-2.4
		c0-0.5,0.2-1,0.5-1.4c0.4-0.5,0.8-0.8,1.4-1c0.6-0.3,1.3-0.4,2-0.4c1-0.1,1.9,0.2,2.6,0.8c0.7,0.6,1,1.5,1,2.3v3.9
		c0,0.7,0.1,1.3,0.4,1.9v0.1H-5519.6z M-5521.6-6968.7c0.3,0,0.7-0.1,1-0.2c0.3-0.1,0.5-0.4,0.7-0.6v-1.5h-0.9
		c-1.2,0-1.8,0.4-1.9,1.2l0,0.1c0,0.3,0.1,0.6,0.3,0.7C-5522.2-6968.8-5521.9-6968.6-5521.6-6968.7z M-5512.8-6978.2v2.2h1.5v1.8
		h-1.5v4.5c0,0.3,0,0.5,0.2,0.7c0.2,0.2,0.5,0.2,0.7,0.2c0.2,0,0.5,0,0.7-0.1v1.8c-0.5,0.1-1,0.2-1.5,0.2c-1.3,0.2-2.4-0.7-2.6-2
		c0-0.2,0-0.4,0-0.6v-4.8h-1.3v-1.8h1.3v-2.2L-5512.8-6978.2z M-5510.6-6971.6c0-0.8,0.2-1.6,0.5-2.4c0.3-0.7,0.8-1.2,1.5-1.6
		c0.7-0.4,1.5-0.6,2.2-0.6c1.1,0,2.2,0.4,3,1.1c0.8,0.8,1.3,1.9,1.3,3l0,0.6c0.1,1.2-0.4,2.4-1.2,3.3c-0.8,0.8-1.9,1.3-3.1,1.2
		c-1.2,0.1-2.3-0.4-3.1-1.2c-0.8-0.9-1.2-2.2-1.2-3.4L-5510.6-6971.6z M-5508.2-6971.4c0,0.7,0.1,1.4,0.5,2c0.3,0.4,0.8,0.7,1.4,0.7
		c0.5,0,1-0.2,1.4-0.7c0.4-0.6,0.5-1.4,0.5-2.1c0-0.7-0.1-1.4-0.5-1.9c-0.3-0.5-0.8-0.7-1.4-0.7c-0.5,0-1.1,0.2-1.4,0.7
		C-5508-6972.9-5508.2-6972.1-5508.2-6971.4L-5508.2-6971.4z M-5495.7-6969.5c0-0.3-0.2-0.6-0.4-0.7c-0.4-0.2-0.9-0.4-1.4-0.5
		c-2.1-0.4-3.2-1.4-3.2-2.7c0-0.8,0.4-1.5,1-2c0.7-0.6,1.7-0.8,2.6-0.8c1,0,1.9,0.2,2.7,0.8c0.7,0.5,1,1.3,1,2.1h-2.4
		c0-0.3-0.1-0.6-0.3-0.9c-0.3-0.2-0.7-0.4-1-0.3c-0.3,0-0.7,0.1-0.9,0.3c-0.2,0.2-0.3,0.4-0.3,0.7c0,0.3,0.1,0.5,0.4,0.6
		c0.4,0.2,0.8,0.4,1.3,0.4c0.5,0.1,1,0.2,1.5,0.4c1.1,0.3,1.9,1.3,1.9,2.4c0,0.8-0.4,1.5-1.1,2c-0.8,0.5-1.8,0.8-2.7,0.8
		c-0.7,0-1.4-0.1-2-0.4c-0.5-0.2-1-0.6-1.4-1.1c-0.3-0.4-0.5-1-0.5-1.5h2.3c0,0.4,0.2,0.7,0.5,1c0.3,0.2,0.8,0.4,1.2,0.3
		c0.4,0,0.7-0.1,1-0.3C-5495.8-6969-5495.7-6969.2-5495.7-6969.5z"/>
	<path id="Trazado_238574" class="st11" d="M-5937.3-6969.5h-4.4l-0.8,2.5h-2.6l4.5-12.1h2.3l4.5,12.1h-2.6L-5937.3-6969.5z
		 M-5941-6971.5h3l-1.5-4.5L-5941-6971.5z M-5929.1-6968.8c0.4,0,0.8-0.1,1.1-0.4c0.3-0.2,0.4-0.6,0.4-1h2.2c0,0.6-0.2,1.2-0.5,1.7
		c-0.3,0.5-0.8,0.9-1.3,1.2c-0.6,0.3-1.2,0.4-1.9,0.4c-1.1,0.1-2.3-0.4-3-1.2c-0.8-0.9-1.2-2.2-1.1-3.4v-0.2
		c-0.1-1.2,0.3-2.4,1.1-3.3c0.8-0.8,1.9-1.3,3-1.2c1,0,2,0.3,2.7,1c0.7,0.7,1.1,1.6,1,2.6h-2.2c0-0.4-0.1-0.8-0.4-1.1
		c-0.3-0.3-0.7-0.5-1.1-0.4c-0.5,0-1,0.2-1.3,0.6c-0.3,0.6-0.5,1.3-0.4,2v0.2c-0.1,0.7,0.1,1.4,0.4,2
		C-5930.1-6969-5929.7-6968.7-5929.1-6968.8z M-5920.3-6968.8c0.4,0,0.8-0.1,1.1-0.4c0.3-0.2,0.4-0.6,0.4-1h2.2
		c0,0.6-0.2,1.2-0.5,1.7c-0.3,0.5-0.8,0.9-1.3,1.2c-0.6,0.3-1.2,0.4-1.9,0.4c-1.1,0.1-2.3-0.4-3-1.2c-0.8-0.9-1.2-2.2-1.1-3.4v-0.2
		c-0.1-1.2,0.3-2.4,1.1-3.3c0.8-0.8,1.9-1.3,3-1.2c1,0,2,0.3,2.7,1c0.7,0.7,1.1,1.6,1,2.6h-2.2c0-0.4-0.1-0.8-0.4-1.1
		c-0.3-0.3-0.7-0.5-1.1-0.4c-0.5,0-1,0.2-1.3,0.6c-0.3,0.6-0.5,1.3-0.4,2v0.2c-0.1,0.7,0.1,1.4,0.4,2
		C-5921.3-6969-5920.8-6968.7-5920.3-6968.8z M-5911-6966.8c-1.2,0-2.4-0.4-3.2-1.2c-0.8-0.9-1.3-2-1.2-3.2v-0.2
		c0-0.8,0.2-1.7,0.5-2.4c0.3-0.7,0.8-1.3,1.5-1.6c0.7-0.4,1.4-0.6,2.2-0.6c1.1-0.1,2.2,0.4,2.9,1.2c0.8,0.9,1.1,2.1,1.1,3.3v1h-5.7
		c0.1,0.5,0.3,1,0.7,1.4c0.4,0.4,0.9,0.6,1.5,0.5c0.8,0,1.7-0.3,2.2-1l1.2,1.3c-0.4,0.5-0.9,0.9-1.5,1.2
		C-5909.6-6967-5910.3-6966.8-5911-6966.8z M-5911.3-6974.2c-0.4,0-0.9,0.2-1.2,0.5c-0.3,0.4-0.5,0.9-0.6,1.4h3.3v-0.2
		c0-0.5-0.1-0.9-0.4-1.2C-5910.4-6974.1-5910.9-6974.2-5911.3-6974.2L-5911.3-6974.2z M-5901.1-6969.5c0-0.3-0.2-0.6-0.4-0.7
		c-0.4-0.2-0.9-0.4-1.4-0.5c-2.1-0.4-3.2-1.4-3.2-2.7c0-0.8,0.4-1.5,1-2c0.7-0.6,1.7-0.8,2.6-0.8c1,0,1.9,0.2,2.7,0.8
		c0.7,0.5,1,1.3,1,2.1h-2.4c0-0.3-0.1-0.6-0.3-0.9c-0.3-0.2-0.7-0.4-1-0.3c-0.3,0-0.7,0.1-0.9,0.3c-0.2,0.2-0.3,0.4-0.3,0.7
		c0,0.3,0.1,0.5,0.4,0.6c0.4,0.2,0.8,0.4,1.3,0.4c0.5,0.1,1,0.2,1.5,0.4c1.1,0.3,1.9,1.3,1.9,2.4c0,0.8-0.4,1.5-1.1,2
		c-0.8,0.5-1.8,0.8-2.7,0.8c-0.7,0-1.4-0.1-2-0.4c-0.5-0.2-1-0.6-1.4-1.1c-0.3-0.4-0.5-1-0.5-1.5h2.3c0,0.4,0.2,0.7,0.5,1
		c0.3,0.2,0.8,0.4,1.2,0.3c0.4,0,0.7-0.1,1-0.3C-5901.2-6969-5901.1-6969.2-5901.1-6969.5z M-5897.6-6971.6c0-0.8,0.2-1.6,0.5-2.4
		c0.3-0.7,0.8-1.2,1.5-1.6c0.7-0.4,1.5-0.6,2.2-0.6c1.1,0,2.2,0.4,3,1.1c0.8,0.8,1.3,1.9,1.3,3l0,0.6c0.1,1.2-0.4,2.4-1.2,3.3
		c-0.8,0.8-1.9,1.3-3.1,1.2c-1.2,0.1-2.3-0.4-3.1-1.2c-0.8-0.9-1.2-2.2-1.2-3.4V-6971.6z M-5895.2-6971.4c0,0.7,0.1,1.4,0.5,2
		c0.3,0.4,0.8,0.7,1.4,0.7c0.5,0,1-0.2,1.4-0.7c0.4-0.6,0.5-1.4,0.5-2.1c0-0.7-0.1-1.4-0.5-1.9c-0.3-0.5-0.8-0.7-1.4-0.7
		c-0.5,0-1.1,0.2-1.4,0.7C-5895.1-6972.9-5895.3-6972.1-5895.2-6971.4L-5895.2-6971.4z M-5883.8-6971.6c-0.1-1.2,0.3-2.4,0.9-3.3
		c0.6-0.8,1.6-1.3,2.6-1.2c0.8,0,1.6,0.3,2.2,1v-4.6h2.4v12.8h-2.2l-0.1-1c-0.5,0.7-1.4,1.1-2.3,1.1c-1,0-2-0.4-2.5-1.2
		C-5883.5-6969.1-5883.8-6970.3-5883.8-6971.6L-5883.8-6971.6z M-5881.4-6971.4c0,0.7,0.1,1.4,0.4,1.9c0.3,0.4,0.8,0.7,1.3,0.7
		c0.7,0,1.3-0.3,1.6-0.9v-3.6c-0.3-0.6-0.9-1-1.6-0.9C-5880.8-6974.2-5881.4-6973.3-5881.4-6971.4L-5881.4-6971.4z M-5869.7-6966.8
		c-1.2,0-2.4-0.4-3.2-1.2c-0.8-0.9-1.3-2-1.2-3.2v-0.2c0-0.8,0.2-1.7,0.5-2.4c0.3-0.7,0.8-1.3,1.5-1.6c0.7-0.4,1.4-0.6,2.2-0.6
		c1.1-0.1,2.2,0.4,2.9,1.2c0.8,0.9,1.1,2.1,1.1,3.3v1h-5.7c0.1,0.5,0.3,1,0.7,1.4c0.4,0.4,0.9,0.6,1.5,0.5c0.8,0,1.7-0.3,2.2-1
		l1.2,1.3c-0.4,0.5-0.9,0.9-1.5,1.2C-5868.3-6967-5869-6966.8-5869.7-6966.8z M-5869.9-6974.2c-0.4,0-0.9,0.2-1.2,0.5
		c-0.3,0.4-0.5,0.9-0.6,1.4h3.3v-0.2c0-0.5-0.1-0.9-0.4-1.2C-5869.1-6974.1-5869.5-6974.2-5869.9-6974.2z M-5860.8-6971.6
		c-0.1-1.2,0.3-2.4,0.9-3.3c0.6-0.8,1.6-1.3,2.6-1.2c0.8,0,1.6,0.3,2.2,1v-4.6h2.4v12.8h-2.2l-0.1-1c-0.5,0.7-1.4,1.1-2.3,1.1
		c-1,0-2-0.4-2.5-1.2C-5860.5-6969.1-5860.8-6970.3-5860.8-6971.6z M-5858.4-6971.4c0,0.7,0.1,1.4,0.4,1.9c0.3,0.4,0.8,0.7,1.3,0.7
		c0.7,0,1.3-0.3,1.6-0.9v-3.6c-0.3-0.6-0.9-1-1.6-0.9C-5857.8-6974.2-5858.4-6973.3-5858.4-6971.4L-5858.4-6971.4z M-5845.6-6967
		c-0.1-0.3-0.2-0.5-0.2-0.8c-0.6,0.6-1.4,1-2.3,1c-0.8,0-1.6-0.2-2.2-0.8c-0.6-0.5-0.9-1.2-0.9-1.9c0-0.9,0.4-1.7,1.1-2.2
		c0.9-0.6,2-0.8,3.1-0.8h1.1v-0.5c0-0.4-0.1-0.7-0.3-1c-0.3-0.3-0.6-0.4-1-0.4c-0.3,0-0.7,0.1-1,0.3c-0.2,0.2-0.4,0.5-0.3,0.8h-2.4
		c0-0.5,0.2-1,0.5-1.4c0.4-0.5,0.8-0.8,1.4-1c0.6-0.3,1.3-0.4,2-0.4c1-0.1,1.9,0.2,2.6,0.8c0.7,0.6,1,1.5,1,2.3v3.9
		c0,0.7,0.1,1.3,0.4,1.9v0.1H-5845.6z M-5847.6-6968.7c0.3,0,0.7-0.1,1-0.2c0.3-0.1,0.5-0.4,0.7-0.6v-1.5h-0.9
		c-1.2,0-1.8,0.4-1.9,1.2l0,0.1c0,0.3,0.1,0.6,0.3,0.7C-5848.2-6968.8-5847.9-6968.6-5847.6-6968.7z M-5838.8-6978.2v2.2h1.5v1.8
		h-1.5v4.5c0,0.3,0,0.5,0.2,0.7c0.2,0.2,0.5,0.2,0.7,0.2c0.2,0,0.5,0,0.7-0.1v1.8c-0.5,0.1-1,0.2-1.5,0.2c-1.3,0.2-2.4-0.7-2.6-2
		c0-0.2,0-0.4,0-0.6v-4.8h-1.3v-1.8h1.3v-2.2L-5838.8-6978.2z M-5836.6-6971.6c0-0.8,0.2-1.6,0.5-2.4c0.3-0.7,0.8-1.2,1.5-1.6
		c0.7-0.4,1.5-0.6,2.2-0.6c1.1,0,2.2,0.4,3,1.1c0.8,0.8,1.3,1.9,1.3,3l0,0.6c0.1,1.2-0.4,2.4-1.2,3.3c-0.8,0.8-1.9,1.3-3.1,1.2
		c-1.2,0.1-2.3-0.4-3.1-1.2c-0.8-0.9-1.2-2.2-1.2-3.4L-5836.6-6971.6z M-5834.2-6971.4c0,0.7,0.1,1.4,0.5,2c0.3,0.4,0.8,0.7,1.4,0.7
		c0.5,0,1-0.2,1.4-0.7c0.4-0.6,0.5-1.4,0.5-2.1c0-0.7-0.1-1.4-0.5-1.9c-0.3-0.5-0.8-0.7-1.4-0.7c-0.5,0-1.1,0.2-1.4,0.7
		C-5834-6972.9-5834.2-6972.1-5834.2-6971.4L-5834.2-6971.4z M-5821.7-6969.5c0-0.3-0.2-0.6-0.4-0.7c-0.4-0.2-0.9-0.4-1.4-0.5
		c-2.1-0.4-3.2-1.4-3.2-2.7c0-0.8,0.4-1.5,1-2c0.7-0.6,1.7-0.8,2.6-0.8c1,0,1.9,0.2,2.7,0.8c0.7,0.5,1,1.3,1,2.1h-2.4
		c0-0.3-0.1-0.6-0.3-0.9c-0.3-0.2-0.7-0.4-1-0.3c-0.3,0-0.7,0.1-0.9,0.3c-0.2,0.2-0.3,0.4-0.3,0.7c0,0.3,0.1,0.5,0.4,0.6
		c0.4,0.2,0.8,0.4,1.3,0.4c0.5,0.1,1,0.2,1.5,0.4c1.1,0.3,1.9,1.3,1.9,2.4c0,0.8-0.4,1.5-1.1,2c-0.8,0.5-1.8,0.8-2.7,0.8
		c-0.7,0-1.4-0.1-2-0.4c-0.5-0.2-1-0.6-1.4-1.1c-0.3-0.4-0.5-1-0.5-1.5h2.3c0,0.4,0.2,0.7,0.5,1c0.3,0.2,0.8,0.4,1.2,0.3
		c0.4,0,0.7-0.1,1-0.3C-5821.8-6969-5821.7-6969.2-5821.7-6969.5z"/>
	<path id="Trazado_238537" class="st12" d="M-6237.8-7261.9v19.1"/>
	<path id="Trazado_238539" class="st12" d="M-6237.8-7201.4v27.6"/>
	<path id="Trazado_238544" class="st12" d="M-6237.8-7087.3v69.5"/>
	<path id="Trazado_238546" class="st12" d="M-5603.6-7259.3v83.8"/>
	<path id="Trazado_238562" class="st11" d="M-6242.5-7177.7l10.2-0.2l-5.3,9.1L-6242.5-7177.7z"/>
	<path id="Trazado_238575" class="st11" d="M-6242.5-7021.8l10.2-0.2l-5.3,9.1L-6242.5-7021.8z"/>
	<path id="Trazado_238576" class="st11" d="M-5510.4-7179.5l10.2-0.2l-5.3,9.1L-5510.4-7179.5z"/>
	<path id="Trazado_238577" class="st11" d="M-5510.4-7018.4l10.2-0.2l-5.3,9.1L-5510.4-7018.4z"/>
	<path id="Trazado_238540" class="st13" d="M-6139.4-7168.8v-32.6"/>
	<path id="Trazado_238538" class="st13" d="M-6139.4-7242.7v-19.4"/>
	<path id="Trazado_238545" class="st13" d="M-6139.4-7012.9v-69.5"/>
	<path id="Trazado_238549" class="st13" d="M-5505.1-7177.3v-77"/>
	<path id="Trazado_238563" class="st11" d="M-6134.7-7258.2l-10.2,0.2l5.3-9.1L-6134.7-7258.2z"/>
	<path id="Trazado_238578" class="st11" d="M-5977.6-6965.1l-8.9,5.1l0.2-10.5L-5977.6-6965.1z"/>
	<path id="Trazado_238579" class="st11" d="M-5775.6-7310.6l0.2,10.2l-9.1-5.3L-5775.6-7310.6z"/>
	<path id="Trazado_238580" class="st11" d="M-6134.7-7078.4l-10.2,0.2l5.3-9.1L-6134.7-7078.4z"/>
	<path id="Trazado_238581" class="st11" d="M-5598.6-7254.5l-10.2,0.2l5.3-9.1L-5598.6-7254.5z"/>
	<path id="Trazado_238582" class="st11" d="M-5598.6-7083.6l-10.2,0.2l5.3-9.1L-5598.6-7083.6z"/>
	<path id="Trazado_238536" class="st12" d="M-5982-7305.4h-34v92.2"/>
	<path id="Trazado_238542" class="st13" d="M-5777.8-6965.1h34v-203.7"/>
	<path id="Trazado_238541" class="st12" d="M-5982-6965.1h-34v-203.7"/>
	<path id="Trazado_238543" class="st13" d="M-5777.8-7305.4h34v92.2"/>
	<path id="Trazado_238583" class="st11" d="M-5637.5-7057.9h5.4v1.2h-6.9v-11.4h1.5L-5637.5-7057.9z M-5629.1-7056.7h-1.4v-12h1.4
		V-7056.7z M-5621.5-7056.7c-0.1-0.3-0.2-0.6-0.2-0.9c-0.6,0.7-1.5,1.1-2.4,1c-0.7,0-1.5-0.2-2.1-0.7c-0.5-0.4-0.8-1.1-0.8-1.8
		c0-0.8,0.3-1.6,1-2.1c0.8-0.5,1.8-0.8,2.8-0.7h1.4v-0.7c0-0.4-0.1-0.9-0.4-1.2c-0.4-0.3-0.8-0.5-1.3-0.4c-0.5,0-0.9,0.1-1.3,0.4
		c-0.3,0.2-0.5,0.6-0.5,0.9h-1.5c0-0.4,0.2-0.9,0.5-1.2c0.3-0.4,0.7-0.7,1.2-0.9c0.5-0.2,1.1-0.4,1.7-0.3c0.8,0,1.6,0.2,2.3,0.7
		c0.6,0.5,0.9,1.2,0.9,2v3.9c0,0.6,0.1,1.3,0.3,1.9v0.1H-5621.5z M-5623.9-7057.8c0.5,0,0.9-0.1,1.3-0.4c0.4-0.2,0.7-0.5,0.9-0.9
		v-1.7h-1.1c-1.8,0-2.7,0.5-2.7,1.6c0,0.4,0.1,0.8,0.5,1.1C-5624.8-7057.9-5624.3-7057.7-5623.9-7057.8L-5623.9-7057.8z
		 M-5616.7-7065.1l0,0.9c0.6-0.7,1.5-1.1,2.5-1.1c1-0.1,2,0.4,2.4,1.4c0.3-0.4,0.7-0.7,1.1-1c0.5-0.3,1-0.4,1.6-0.4
		c1.9,0,2.8,1,2.8,2.9v5.7h-1.5v-5.6c0-0.5-0.1-1-0.4-1.4c-0.4-0.3-0.9-0.5-1.4-0.4c-0.5,0-1,0.2-1.3,0.5c-0.4,0.3-0.6,0.8-0.6,1.3
		v5.6h-1.5v-5.5c0.1-0.9-0.5-1.7-1.4-1.8c-0.1,0-0.3,0-0.4,0c-0.8-0.1-1.6,0.4-1.9,1.2v6.2h-1.4v-8.5L-5616.7-7065.1z
		 M-5598.8-7056.7c-0.1-0.3-0.2-0.6-0.2-0.9c-0.6,0.7-1.5,1.1-2.4,1c-0.7,0-1.5-0.2-2.1-0.7c-0.5-0.4-0.8-1.1-0.8-1.8
		c0-0.8,0.3-1.6,1-2.1c0.8-0.5,1.8-0.8,2.8-0.7h1.4v-0.7c0-0.4-0.1-0.9-0.5-1.2c-0.4-0.3-0.8-0.5-1.3-0.4c-0.5,0-0.9,0.1-1.3,0.4
		c-0.3,0.2-0.5,0.6-0.5,0.9h-1.5c0-0.4,0.2-0.9,0.4-1.2c0.3-0.4,0.7-0.7,1.2-0.9c0.5-0.2,1.1-0.4,1.7-0.3c0.8,0,1.6,0.2,2.3,0.7
		c0.6,0.5,0.9,1.2,0.9,2v3.9c0,0.6,0.1,1.3,0.3,1.9v0.1H-5598.8z M-5601.2-7057.8c0.5,0,0.9-0.1,1.3-0.4c0.4-0.2,0.7-0.5,0.9-0.9
		v-1.7h-1.1c-1.8,0-2.7,0.5-2.7,1.6c0,0.4,0.1,0.8,0.5,1.1C-5602-7057.9-5601.6-7057.7-5601.2-7057.8L-5601.2-7057.8z M-5595.7-7061
		c-0.1-1.1,0.3-2.2,0.9-3.1c0.6-0.8,1.5-1.2,2.4-1.2c0.9,0,1.8,0.3,2.4,1v-4.4h1.4v12h-1.3l-0.1-0.9c-0.6,0.7-1.5,1.1-2.4,1.1
		c-0.9,0-1.8-0.4-2.4-1.2c-0.7-0.9-1-2-0.9-3.1V-7061z M-5594.2-7060.8c0,0.8,0.2,1.6,0.6,2.2c0.4,0.5,1,0.8,1.6,0.8
		c0.9,0,1.6-0.4,2-1.2v-3.9c-0.4-0.8-1.1-1.2-2-1.2c-0.7,0-1.3,0.3-1.7,0.8C-5594.1-7062.5-5594.3-7061.6-5594.2-7060.8
		L-5594.2-7060.8z M-5586.7-7061c0-0.8,0.2-1.5,0.5-2.2c0.3-0.6,0.8-1.2,1.4-1.5c0.6-0.4,1.3-0.6,2-0.5c1.1,0,2.1,0.4,2.8,1.2
		c0.7,0.9,1.1,2,1.1,3.2v0.1c0,0.8-0.1,1.5-0.5,2.2c-0.3,0.6-0.8,1.2-1.4,1.5c-0.6,0.4-1.3,0.6-2,0.5c-1.1,0-2.1-0.4-2.8-1.2
		C-5586.4-7058.6-5586.7-7059.7-5586.7-7061L-5586.7-7061z M-5585.2-7060.8c0,0.8,0.2,1.6,0.7,2.3c0.4,0.6,1.1,0.9,1.7,0.9
		c0.7,0,1.3-0.3,1.8-0.9c0.5-0.7,0.7-1.6,0.6-2.4c0-0.8-0.2-1.6-0.7-2.3c-0.4-0.6-1.1-0.9-1.8-0.9c-0.7,0-1.3,0.3-1.7,0.8
		C-5585-7062.5-5585.3-7061.7-5585.2-7060.8L-5585.2-7060.8z M-5568-7056.7c-0.1-0.3-0.2-0.6-0.2-0.9c-0.6,0.7-1.5,1.1-2.4,1
		c-0.7,0-1.5-0.2-2.1-0.7c-0.5-0.4-0.8-1.1-0.8-1.8c0-0.8,0.3-1.6,1-2.1c0.8-0.5,1.8-0.8,2.8-0.7h1.4v-0.7c0-0.4-0.1-0.9-0.5-1.2
		c-0.4-0.3-0.8-0.5-1.3-0.4c-0.5,0-0.9,0.1-1.3,0.4c-0.3,0.2-0.5,0.6-0.5,0.9h-1.5c0-0.4,0.2-0.9,0.4-1.2c0.3-0.4,0.7-0.7,1.2-0.9
		c0.5-0.2,1.1-0.4,1.7-0.3c0.8,0,1.6,0.2,2.3,0.7c0.6,0.5,0.9,1.3,0.9,2v3.9c0,0.6,0.1,1.3,0.3,1.9v0.1H-5568z M-5570.4-7057.8
		c0.5,0,0.9-0.1,1.3-0.4c0.4-0.2,0.7-0.5,0.9-0.9v-1.7h-1.1c-1.8,0-2.7,0.5-2.7,1.6c0,0.4,0.1,0.8,0.5,1.1
		C-5571.2-7057.9-5570.8-7057.7-5570.4-7057.8L-5570.4-7057.8z M-5632.1-7049.1l0,0.9c0.6-0.7,1.5-1.1,2.5-1.1c1-0.1,2,0.4,2.4,1.4
		c0.3-0.4,0.7-0.7,1.1-1c0.5-0.3,1-0.4,1.6-0.4c1.9,0,2.8,1,2.8,2.9v5.7h-1.4v-5.6c0-0.5-0.1-1-0.4-1.4c-0.4-0.3-0.9-0.5-1.4-0.4
		c-0.5,0-1,0.2-1.3,0.5c-0.4,0.3-0.6,0.8-0.6,1.3v5.6h-1.5v-5.5c0.1-0.9-0.5-1.7-1.4-1.8c-0.1,0-0.3,0-0.4,0
		c-0.8-0.1-1.6,0.4-1.9,1.2v6.2h-1.4v-8.5H-5632.1z M-5615.9-7040.5c-1.1,0-2.1-0.4-2.8-1.1c-0.7-0.8-1.1-1.9-1.1-3v-0.3
		c0-0.8,0.2-1.5,0.5-2.2c0.3-0.6,0.8-1.2,1.3-1.5c0.6-0.4,1.2-0.6,1.9-0.6c1-0.1,1.9,0.3,2.6,1.1c0.7,0.9,1,2,0.9,3.1v0.6h-5.7
		c0,0.7,0.2,1.5,0.7,2c0.5,0.5,1.1,0.8,1.8,0.8c0.5,0,0.9-0.1,1.3-0.3c0.4-0.2,0.7-0.5,0.9-0.8l0.9,0.7
		C-5613.4-7041.1-5614.6-7040.4-5615.9-7040.5z M-5616.1-7048.1c-0.6,0-1.1,0.2-1.5,0.6c-0.4,0.5-0.7,1.1-0.7,1.8h4.2v-0.1
		c0-0.6-0.2-1.2-0.6-1.7C-5615-7047.9-5615.5-7048.1-5616.1-7048.1L-5616.1-7048.1z M-5609-7051.2v2h1.6v1.1h-1.6v5.2
		c0,0.3,0.1,0.5,0.2,0.8c0.2,0.2,0.5,0.3,0.7,0.3c0.2,0,0.5,0,0.7-0.1v1.2c-0.4,0.1-0.7,0.2-1.1,0.2c-0.6,0-1.1-0.2-1.5-0.6
		c-0.4-0.5-0.5-1.1-0.5-1.7v-5.2h-1.5v-1.1h1.5v-2H-5609z M-5606.2-7045c0-0.8,0.2-1.5,0.5-2.2c0.3-0.6,0.8-1.2,1.4-1.5
		c0.6-0.4,1.3-0.6,2-0.5c1.1,0,2.1,0.4,2.8,1.2c0.7,0.9,1.1,2,1.1,3.2v0.1c0,0.8-0.1,1.5-0.5,2.2c-0.3,0.6-0.8,1.2-1.4,1.5
		c-0.6,0.4-1.3,0.6-2,0.5c-1.1,0-2.1-0.4-2.8-1.2C-5605.9-7042.6-5606.3-7043.7-5606.2-7045L-5606.2-7045z M-5604.8-7044.8
		c0,0.8,0.2,1.6,0.7,2.3c0.4,0.6,1.1,0.9,1.7,0.9c0.7,0,1.3-0.3,1.8-0.9c0.5-0.7,0.7-1.6,0.6-2.4c0-0.8-0.2-1.6-0.7-2.3
		c-0.4-0.6-1.1-0.9-1.8-0.9c-0.7,0-1.3,0.3-1.7,0.9C-5604.6-7046.5-5604.8-7045.7-5604.8-7044.8L-5604.8-7044.8z M-5597.1-7045
		c-0.1-1.1,0.3-2.2,0.9-3.1c0.6-0.8,1.5-1.2,2.4-1.2c0.9,0,1.8,0.3,2.4,1v-4.4h1.4v12h-1.3l-0.1-0.9c-0.6,0.7-1.5,1.1-2.4,1.1
		c-0.9,0-1.8-0.4-2.4-1.2c-0.7-0.9-1-2-0.9-3.1L-5597.1-7045z M-5595.6-7044.8c0,0.8,0.2,1.6,0.6,2.2c0.4,0.5,1,0.8,1.6,0.8
		c0.9,0,1.7-0.5,2-1.2v-3.9c-0.4-0.8-1.1-1.2-2-1.2c-0.7,0-1.3,0.3-1.7,0.8C-5595.5-7046.5-5595.7-7045.6-5595.6-7044.8
		L-5595.6-7044.8z M-5588.1-7045c0-0.8,0.2-1.5,0.5-2.2c0.3-0.6,0.8-1.2,1.4-1.5c0.6-0.4,1.3-0.6,2-0.5c1.1,0,2.1,0.4,2.8,1.2
		c0.7,0.9,1.1,2,1.1,3.2v0.1c0,0.8-0.1,1.5-0.5,2.2c-0.3,0.6-0.8,1.2-1.4,1.5c-0.6,0.4-1.3,0.6-2,0.5c-1.1,0-2.1-0.4-2.8-1.2
		C-5587.8-7042.6-5588.1-7043.7-5588.1-7045L-5588.1-7045z M-5586.6-7044.8c0,0.8,0.2,1.6,0.7,2.3c0.7,1,2.1,1.1,3.1,0.4
		c0.1-0.1,0.3-0.3,0.4-0.4c0.5-0.7,0.7-1.6,0.6-2.4c0-0.8-0.2-1.6-0.7-2.3c-0.4-0.6-1.1-0.9-1.8-0.9c-0.7,0-1.3,0.3-1.7,0.9
		C-5586.5-7046.5-5586.7-7045.7-5586.6-7044.8L-5586.6-7044.8z M-5573.7-7042.9c0-0.4-0.1-0.7-0.4-0.9c-0.5-0.3-1-0.5-1.5-0.6
		c-0.6-0.1-1.2-0.3-1.7-0.6c-0.4-0.2-0.7-0.4-1-0.8c-0.2-0.3-0.3-0.7-0.3-1.1c0-0.7,0.3-1.3,0.9-1.8c0.6-0.5,1.4-0.8,2.2-0.7
		c0.8,0,1.7,0.2,2.3,0.7c0.6,0.5,0.9,1.2,0.9,1.9h-1.5c0-0.4-0.2-0.8-0.5-1c-0.4-0.3-0.8-0.4-1.3-0.4c-0.4,0-0.9,0.1-1.2,0.3
		c-0.3,0.2-0.5,0.5-0.4,0.9c0,0.3,0.1,0.6,0.4,0.8c0.5,0.2,1,0.4,1.5,0.5c0.6,0.1,1.2,0.3,1.8,0.6c0.4,0.2,0.7,0.5,1,0.8
		c0.2,0.3,0.3,0.7,0.3,1.2c0,0.7-0.3,1.4-0.9,1.8c-0.7,0.5-1.5,0.7-2.4,0.7c-0.6,0-1.2-0.1-1.8-0.4c-0.5-0.2-0.9-0.6-1.2-1
		c-0.3-0.4-0.4-0.9-0.4-1.4h1.4c0,0.5,0.2,0.9,0.6,1.2c0.4,0.3,0.9,0.5,1.4,0.4c0.5,0,0.9-0.1,1.3-0.3
		C-5573.8-7042.2-5573.6-7042.5-5573.7-7042.9L-5573.7-7042.9z"/>
	<path id="Trazado_238584" class="st11" d="M-5539.7-7061.3h-2.7v4.6h-1.5v-11.4h3.8c1.1-0.1,2.1,0.2,3,0.9c0.7,0.6,1.1,1.6,1,2.5
		c0,0.7-0.2,1.3-0.6,1.9c-0.4,0.5-1,1-1.6,1.2l2.7,4.8v0.1h-1.6L-5539.7-7061.3z M-5542.3-7062.5h2.3c0.6,0,1.3-0.2,1.8-0.6
		c0.4-0.4,0.7-1,0.7-1.6c0-0.6-0.2-1.2-0.6-1.6c-0.5-0.4-1.2-0.6-1.8-0.6h-2.3L-5542.3-7062.5z M-5530.7-7056.5
		c-1.1,0-2.1-0.4-2.8-1.1c-0.7-0.8-1.1-1.9-1.1-3v-0.3c0-0.8,0.2-1.5,0.5-2.2c0.3-0.6,0.8-1.2,1.3-1.5c0.6-0.4,1.2-0.6,1.9-0.6
		c1-0.1,1.9,0.3,2.6,1.1c0.7,0.9,1,2,0.9,3.1v0.6h-5.7c0,0.7,0.2,1.5,0.7,2c0.5,0.5,1.1,0.8,1.8,0.8c0.5,0,0.9-0.1,1.3-0.3
		c0.4-0.2,0.7-0.5,0.9-0.8l0.9,0.7C-5528.2-7057.1-5529.4-7056.4-5530.7-7056.5z M-5530.9-7064.1c-0.6,0-1.1,0.2-1.5,0.6
		c-0.4,0.5-0.7,1.1-0.7,1.8h4.2v-0.1c0-0.6-0.2-1.2-0.6-1.7C-5529.8-7063.9-5530.3-7064.1-5530.9-7064.1L-5530.9-7064.1z
		 M-5523.8-7067.2v2h1.6v1.1h-1.6v5.2c0,0.3,0.1,0.5,0.2,0.8c0.2,0.2,0.5,0.3,0.7,0.3c0.2,0,0.5,0,0.7-0.1v1.2
		c-0.4,0.1-0.7,0.2-1.1,0.2c-0.6,0-1.1-0.2-1.5-0.6c-0.4-0.5-0.5-1.1-0.5-1.7v-5.2h-1.5v-1.1h1.5v-2H-5523.8z M-5521-7061
		c0-0.8,0.2-1.5,0.5-2.2c0.3-0.6,0.8-1.2,1.4-1.5c0.6-0.4,1.3-0.6,2-0.5c1.1,0,2.1,0.4,2.8,1.2c0.7,0.9,1.1,2,1.1,3.2v0.1
		c0,0.8-0.1,1.5-0.5,2.2c-0.3,0.6-0.8,1.2-1.4,1.5c-0.6,0.4-1.3,0.6-2,0.5c-1.1,0-2.1-0.4-2.8-1.2
		C-5520.7-7058.6-5521.1-7059.7-5521-7061L-5521-7061z M-5519.6-7060.8c0,0.8,0.2,1.6,0.7,2.3c0.4,0.6,1.1,0.9,1.7,0.9
		c0.7,0,1.3-0.3,1.8-0.9c0.5-0.7,0.7-1.6,0.6-2.4c0-0.8-0.2-1.6-0.7-2.3c-0.4-0.6-1.1-0.9-1.8-0.9c-0.7,0-1.3,0.3-1.7,0.9
		C-5519.4-7062.5-5519.6-7061.7-5519.6-7060.8L-5519.6-7060.8z M-5507.4-7063.8c-0.2,0-0.5-0.1-0.7-0.1c-0.8-0.1-1.6,0.4-1.9,1.2v6
		h-1.4v-8.5h1.4l0,1c0.4-0.7,1.2-1.2,2-1.1c0.2,0,0.4,0,0.6,0.1V-7063.8z M-5504.7-7065.1l0,1.1c0.6-0.8,1.5-1.2,2.5-1.2
		c1.8,0,2.7,1,2.7,3v5.6h-1.4v-5.6c0-0.5-0.1-1-0.4-1.4c-0.3-0.3-0.8-0.5-1.3-0.4c-0.4,0-0.9,0.1-1.2,0.4c-0.4,0.3-0.6,0.6-0.8,1v6
		h-1.4v-8.5L-5504.7-7065.1z M-5497.7-7061c0-0.8,0.2-1.5,0.5-2.2c0.3-0.6,0.8-1.2,1.4-1.5c0.6-0.4,1.3-0.6,2-0.5
		c1.1,0,2.1,0.4,2.8,1.2c0.7,0.9,1.1,2,1.1,3.2v0.1c0,0.8-0.1,1.5-0.5,2.2c-0.3,0.6-0.8,1.2-1.4,1.5c-0.6,0.4-1.3,0.6-2,0.5
		c-1.1,0-2.1-0.4-2.8-1.2C-5497.3-7058.6-5497.7-7059.7-5497.7-7061L-5497.7-7061z M-5496.2-7060.8c0,0.8,0.2,1.6,0.7,2.3
		c0.4,0.6,1.1,0.9,1.7,0.9c0.7,0,1.3-0.3,1.8-0.9c0.5-0.7,0.7-1.6,0.6-2.4c0-0.8-0.2-1.6-0.7-2.3c-0.4-0.6-1.1-0.9-1.8-0.9
		c-0.7,0-1.3,0.3-1.7,0.9C-5496-7062.5-5496.3-7061.7-5496.2-7060.8L-5496.2-7060.8z M-5484.6-7061c-0.1-1.1,0.3-2.2,0.9-3.1
		c0.6-0.8,1.5-1.2,2.4-1.2c0.9,0,1.8,0.3,2.4,1v-4.4h1.4v12h-1.3l-0.1-0.9c-0.6,0.7-1.5,1.1-2.4,1.1c-0.9,0-1.8-0.4-2.4-1.2
		c-0.7-0.9-1-2-0.9-3.1L-5484.6-7061z M-5483.1-7060.8c0,0.8,0.2,1.6,0.6,2.2c0.4,0.5,1,0.8,1.6,0.8c0.9,0,1.6-0.5,2-1.2v-3.9
		c-0.4-0.8-1.1-1.2-2-1.2c-0.7,0-1.3,0.3-1.7,0.8C-5483-7062.5-5483.2-7061.6-5483.1-7060.8L-5483.1-7060.8z M-5471.7-7056.5
		c-1.1,0-2.1-0.4-2.8-1.1c-0.7-0.8-1.1-1.9-1.1-3v-0.3c0-0.8,0.2-1.5,0.5-2.2c0.3-0.6,0.8-1.2,1.3-1.5c0.6-0.4,1.2-0.6,1.9-0.6
		c1-0.1,1.9,0.3,2.6,1.1c0.7,0.9,1,2,0.9,3.1v0.6h-5.7c0,0.7,0.2,1.5,0.7,2c0.5,0.5,1.1,0.8,1.8,0.8c0.5,0,0.9-0.1,1.3-0.3
		c0.4-0.2,0.7-0.5,0.9-0.8l0.9,0.7C-5469.2-7057.1-5470.4-7056.4-5471.7-7056.5z M-5471.9-7064.1c-0.6,0-1.1,0.2-1.5,0.6
		c-0.4,0.5-0.7,1.1-0.7,1.8h4.2v-0.1c0-0.6-0.2-1.2-0.6-1.7C-5470.8-7063.9-5471.3-7064.1-5471.9-7064.1L-5471.9-7064.1z
		 M-5531.4-7049.1l0,0.9c0.6-0.7,1.5-1.1,2.5-1.1c1-0.1,2,0.4,2.4,1.4c0.3-0.4,0.7-0.7,1.1-1c0.5-0.3,1-0.4,1.6-0.4
		c1.9,0,2.8,1,2.8,2.9v5.7h-1.5v-5.6c0-0.5-0.1-1-0.4-1.4c-0.4-0.3-0.9-0.5-1.4-0.4c-0.5,0-1,0.2-1.3,0.5c-0.4,0.3-0.6,0.8-0.6,1.3
		v5.6h-1.5v-5.5c0.1-0.9-0.5-1.7-1.4-1.8c-0.1,0-0.3,0-0.4,0c-0.8-0.1-1.6,0.4-1.9,1.2v6.2h-1.4v-8.5H-5531.4z M-5515.3-7040.5
		c-1.1,0-2.1-0.4-2.8-1.1c-0.7-0.8-1.1-1.9-1.1-3v-0.3c0-0.8,0.2-1.5,0.5-2.2c0.3-0.6,0.8-1.2,1.3-1.5c0.6-0.4,1.2-0.6,1.9-0.6
		c1-0.1,1.9,0.3,2.6,1.1c0.7,0.9,1,2,0.9,3.1v0.6h-5.7c0,0.7,0.2,1.5,0.7,2c0.5,0.5,1.1,0.8,1.8,0.8c0.5,0,0.9-0.1,1.3-0.3
		c0.4-0.2,0.7-0.5,0.9-0.8l0.9,0.7C-5512.8-7041.1-5514-7040.4-5515.3-7040.5z M-5515.5-7048.1c-0.6,0-1.1,0.2-1.5,0.6
		c-0.4,0.5-0.7,1.1-0.7,1.8h4.2v-0.1c0-0.6-0.2-1.2-0.6-1.7C-5514.4-7047.9-5514.9-7048.1-5515.5-7048.1L-5515.5-7048.1z
		 M-5508.3-7051.2v2h1.6v1.1h-1.6v5.2c0,0.3,0.1,0.5,0.2,0.8c0.2,0.2,0.5,0.3,0.7,0.3c0.2,0,0.5,0,0.7-0.1v1.2
		c-0.4,0.1-0.7,0.2-1.1,0.2c-0.6,0-1.1-0.2-1.5-0.6c-0.4-0.5-0.5-1.1-0.5-1.7v-5.2h-1.5v-1.1h1.5v-2H-5508.3z M-5505.6-7045
		c0-0.8,0.2-1.5,0.5-2.2c0.3-0.6,0.8-1.2,1.4-1.5c0.6-0.4,1.3-0.6,2-0.5c1.1,0,2.1,0.4,2.8,1.2c0.7,0.9,1.1,2,1.1,3.2v0.1
		c0,0.8-0.1,1.5-0.5,2.2c-0.3,0.6-0.8,1.2-1.4,1.5c-0.6,0.4-1.3,0.6-2,0.5c-1.1,0-2.1-0.4-2.8-1.2
		C-5505.3-7042.6-5505.7-7043.7-5505.6-7045L-5505.6-7045z M-5504.2-7044.8c0,0.8,0.2,1.6,0.7,2.3c0.4,0.6,1.1,0.9,1.7,0.9
		c0.7,0,1.3-0.3,1.8-0.9c0.5-0.7,0.7-1.6,0.6-2.4c0-0.8-0.2-1.6-0.7-2.3c-0.4-0.6-1.1-0.9-1.7-0.9c-0.7,0-1.3,0.3-1.7,0.9
		C-5504-7046.5-5504.2-7045.7-5504.2-7044.8L-5504.2-7044.8z M-5496.5-7045c-0.1-1.1,0.3-2.2,0.9-3.1c0.6-0.8,1.5-1.2,2.4-1.2
		c0.9,0,1.8,0.3,2.4,1v-4.4h1.4v12h-1.3l-0.1-0.9c-0.6,0.7-1.5,1.1-2.4,1.1c-0.9,0-1.8-0.4-2.4-1.2c-0.7-0.9-1-2-0.9-3.1
		L-5496.5-7045z M-5495-7044.8c0,0.8,0.2,1.6,0.6,2.2c0.4,0.5,1,0.8,1.6,0.8c0.9,0,1.7-0.5,2-1.2v-3.9c-0.4-0.8-1.1-1.2-2-1.2
		c-0.7,0-1.3,0.3-1.7,0.8C-5494.9-7046.5-5495.1-7045.6-5495-7044.8L-5495-7044.8z M-5487.5-7045c0-0.8,0.2-1.5,0.5-2.2
		c0.3-0.6,0.8-1.2,1.4-1.5c0.6-0.4,1.3-0.6,2-0.5c1.1,0,2.1,0.4,2.8,1.2c0.7,0.9,1.1,2,1.1,3.2v0.1c0,0.8-0.1,1.5-0.5,2.2
		c-0.3,0.6-0.8,1.2-1.4,1.5c-0.6,0.4-1.3,0.6-2,0.5c-1.1,0-2.1-0.4-2.8-1.2C-5487.1-7042.6-5487.5-7043.7-5487.5-7045L-5487.5-7045z
		 M-5486-7044.8c0,0.8,0.2,1.6,0.7,2.3c0.7,1,2.1,1.1,3.1,0.4c0.1-0.1,0.3-0.3,0.4-0.4c0.5-0.7,0.7-1.6,0.6-2.4
		c0-0.8-0.2-1.6-0.7-2.3c-0.4-0.6-1.1-0.9-1.8-0.9c-0.7,0-1.3,0.3-1.7,0.9C-5485.8-7046.5-5486.1-7045.7-5486-7044.8L-5486-7044.8z"
		/>
	<path id="Trazado_238547" class="st12" d="M-5603.6-7089.2v19.1"/>
	<path id="Trazado_238548" class="st12" d="M-5603.6-7032.9v19.5"/>
	<path id="Trazado_238550" class="st13" d="M-5505.1-7013.4v-19.5"/>
	<path id="Trazado_238551" class="st13" d="M-5505.1-7070.1v-19.4"/>
	<g id="Grupo_183603" transform="translate(-6207.279 -6917.861)">
		<g>
			<defs>
				<rect id="SVGID_1_" x="0" y="0" width="64.6" height="48.2"/>
			</defs>
			<clipPath id="SVGID_00000051361984188594671540000001843536605131594118_">
				<use xlink:href="#SVGID_1_"  style="overflow:visible;"/>
			</clipPath>
			<g id="Grupo_182733" style="clip-path:url(#SVGID_00000051361984188594671540000001843536605131594118_);">
				<path id="Trazado_237469" class="st15" d="M24.1,31.4c2.8-2.8,5.5-5.5,8.1-8.2c7.3-7.3,14.6-14.7,22-22c1.6-1.6,3.2-1.6,4.8,0
					c1.4,1.4,2.8,2.8,4.2,4.2c1.7,1.7,1.7,3.2,0,5C53.1,20.5,43,30.7,32.8,40.8c-2.1,2.1-4.2,4.2-6.2,6.2c-1.6,1.6-3.2,1.6-4.8,0
					C14.9,40.2,8,33.3,1.1,26.4c-1.3-1-1.5-2.9-0.5-4.2c0.1-0.2,0.3-0.3,0.5-0.5c1.5-1.5,3-3,4.5-4.5c1-1.3,2.9-1.4,4.1-0.4
					c0.2,0.1,0.3,0.3,0.4,0.4c4.5,4.4,8.9,8.9,13.3,13.3C23.7,30.8,23.9,31.1,24.1,31.4"/>
			</g>
		</g>
	</g>
	<g id="Grupo_183601" transform="translate(-5896.72 -6920.068)">
		<g>
			<defs>
				<rect id="SVGID_00000159451076349122746280000013380414936797270418_" x="0" y="0" width="50.5" height="50.4"/>
			</defs>
			<clipPath id="SVGID_00000042726505424898676280000006397495435019947698_">
				<use xlink:href="#SVGID_00000159451076349122746280000013380414936797270418_"  style="overflow:visible;"/>
			</clipPath>
			<g id="Grupo_182735" style="clip-path:url(#SVGID_00000042726505424898676280000006397495435019947698_);">
				<path id="Trazado_237470" class="st17" d="M36.4,25.2c1,1,2,2,2.9,2.9l10.4,10.4c0.9,0.8,1.1,2.2,0.3,3.2
					c-0.1,0.1-0.2,0.2-0.3,0.3l-7.7,7.7c-0.8,0.9-2.2,1-3.2,0.2c-0.1-0.1-0.2-0.1-0.2-0.2L25.4,36.6c-0.1-0.1-0.1-0.1-0.2-0.2
					c-0.1,0.1-0.2,0.2-0.3,0.2l-13,13c-0.8,1-2.2,1.1-3.2,0.3c-0.1-0.1-0.2-0.2-0.3-0.3L0.8,42c-1-0.8-1.1-2.2-0.3-3.2
					c0.1-0.1,0.2-0.2,0.3-0.3l13-13c0.1-0.1,0.1-0.1,0.2-0.2c-0.1-0.1-0.1-0.1-0.2-0.2L2.2,13.3c-0.5-0.5-1-1-1.4-1.4
					c-0.9-0.8-1-2.3-0.2-3.2c0-0.1,0.1-0.1,0.2-0.2C3.3,6,5.9,3.4,8.5,0.8c0.8-0.9,2.2-1,3.2-0.2c0.1,0.1,0.1,0.1,0.2,0.2
					c4.3,4.3,8.7,8.7,13,13c0.1,0.1,0.2,0.2,0.3,0.3c0.1-0.1,0.2-0.2,0.3-0.2L38.6,0.7c0.9-0.9,2.3-1,3.3-0.1c0,0,0.1,0.1,0.1,0.1
					c2.6,2.6,5.2,5.2,7.8,7.8c0.9,0.8,1,2.2,0.2,3.2c-0.1,0.1-0.1,0.2-0.2,0.2c-4.3,4.3-8.7,8.7-13,13C36.6,25,36.5,25.1,36.4,25.2"
					/>
			</g>
		</g>
	</g>
	<g id="Grupo_183602" transform="translate(-5577.229 -6920.068)">
		<g>
			<defs>
				<rect id="SVGID_00000059277573054105675860000016223544268333765768_" x="0" y="0" width="50.5" height="50.4"/>
			</defs>
			<clipPath id="SVGID_00000021825972526688795130000014883470769768098199_">
				<use xlink:href="#SVGID_00000059277573054105675860000016223544268333765768_"  style="overflow:visible;"/>
			</clipPath>
			<g id="Grupo_182735-2" style="clip-path:url(#SVGID_00000021825972526688795130000014883470769768098199_);">
				<path id="Trazado_237470-2" class="st17" d="M36.4,25.2c1,1,2,2,2.9,2.9l10.4,10.4c0.9,0.8,1.1,2.2,0.3,3.2
					c-0.1,0.1-0.2,0.2-0.3,0.3l-7.7,7.7c-0.8,0.9-2.2,1-3.2,0.2c-0.1-0.1-0.2-0.1-0.2-0.2L25.4,36.6c-0.1-0.1-0.1-0.1-0.2-0.2
					c-0.1,0.1-0.2,0.2-0.3,0.2l-13,13c-0.8,1-2.2,1.1-3.2,0.3c-0.1-0.1-0.2-0.2-0.3-0.3L0.8,42c-1-0.8-1.1-2.2-0.3-3.2
					c0.1-0.1,0.2-0.2,0.3-0.3l13-13c0.1-0.1,0.1-0.1,0.2-0.2c-0.1-0.1-0.1-0.1-0.2-0.2L2.2,13.3c-0.5-0.5-1-1-1.4-1.4
					c-0.9-0.8-1-2.3-0.2-3.2c0-0.1,0.1-0.1,0.2-0.2C3.3,6,5.9,3.4,8.5,0.8c0.8-0.9,2.2-1,3.2-0.2c0.1,0.1,0.1,0.1,0.2,0.2
					c4.3,4.3,8.7,8.7,13,13c0.1,0.1,0.2,0.2,0.3,0.3c0.1-0.1,0.2-0.2,0.3-0.2L38.6,0.7c0.9-0.9,2.3-1,3.3-0.1c0,0,0.1,0.1,0.1,0.1
					c2.6,2.6,5.2,5.2,7.8,7.8c0.9,0.8,1,2.2,0.2,3.2c-0.1,0.1-0.1,0.2-0.2,0.2c-4.3,4.3-8.7,8.7-13,13C36.6,25,36.5,25.1,36.4,25.2"
					/>
			</g>
		</g>
	</g>
</g>
<polygon class="st11" points="39,125 40.7,125 38.6,127.3 37.4,127.3 "/>
<polygon class="st11" points="138.6,125 140.3,125 138.2,127.3 137.1,127.3 "/>
<polygon class="st11" points="47.1,210.6 49.8,210.6 47.5,213.2 45.5,213.2 "/>
<polygon class="st11" points="354.3,210.9 356.9,210.9 354.6,213.5 352.6,213.5 "/>
<polygon class="st11" points="681,210.6 683.6,210.6 681.3,213.2 679.4,213.2 "/>
<polygon class="st11" points="259.8,157 261.5,157 259.4,159.3 258.3,159.3 "/>
<polygon class="st11" points="536.2,157.7 537.9,157.7 535.8,160 534.6,160 "/>
<polygon class="st11" points="672.9,295.3 674.6,295.3 672.5,297.6 671.3,297.6 "/>
<polygon class="st11" points="773.6,295.3 775.4,295.3 773.3,297.6 772.1,297.6 "/>
</svg>
