<svg id="Grupo_180167" data-name="Grupo 180167" xmlns="http://www.w3.org/2000/svg" xmlns:xlink="http://www.w3.org/1999/xlink" width="241.055" height="238" viewBox="0 0 241.055 238">
  <defs>
    <clipPath id="clip-path">
      <rect id="Rectángulo_58051" data-name="Rectángulo 58051" width="241.055" height="238" fill="none"/>
    </clipPath>
    <clipPath id="clip-path-4">
      <rect id="Rectángulo_58022" data-name="Rectángulo 58022" width="20.09" height="9.459" fill="none"/>
    </clipPath>
    <clipPath id="clip-path-5">
      <rect id="Rectángulo_58023" data-name="Rectángulo 58023" width="3.164" height="3.164" fill="none"/>
    </clipPath>
    <linearGradient id="linear-gradient" x1="0.5" x2="0.5" y2="1" gradientUnits="objectBoundingBox">
      <stop offset="0" stop-color="#4adbd1"/>
      <stop offset="1" stop-color="#5573c6"/>
    </linearGradient>
    <clipPath id="clip-path-6">
      <rect id="Rectángulo_58035" data-name="Rectángulo 58035" width="2.862" height="2.862" fill="none"/>
    </clipPath>
    <clipPath id="clip-path-9">
      <rect id="Rectángulo_58047" data-name="Rectángulo 58047" width="10.168" height="2.237" fill="none"/>
    </clipPath>
    <clipPath id="clip-path-10">
      <rect id="Rectángulo_58048" data-name="Rectángulo 58048" width="10.66" height="2.52" fill="none"/>
    </clipPath>
    <clipPath id="clip-path-11">
      <rect id="Rectángulo_58049" data-name="Rectángulo 58049" width="18.645" height="9.658" fill="none"/>
    </clipPath>
  </defs>
  <g id="Grupo_180166" data-name="Grupo 180166" clip-path="url(#clip-path)">
    <g id="Grupo_180096" data-name="Grupo 180096">
      <g id="Grupo_180095" data-name="Grupo 180095" clip-path="url(#clip-path)">
        <path id="Trazado_231172" data-name="Trazado 231172" d="M26,97.678l-2.411,0a1.855,1.855,0,0,0-.726.079,1.137,1.137,0,0,0-.574.509,1.206,1.206,0,0,0-.135.385,2.445,2.445,0,0,0-.018.426c0,.145,0,.293,0,.443a2.062,2.062,0,0,1-.029.458,1.211,1.211,0,0,1-.538.774,1.125,1.125,0,0,1-.473.167c-.172.015-.339,0-.511.008H18.424l-4.9,0H11.84a1.345,1.345,0,0,1-.349-.034,1.161,1.161,0,0,1-.6-.37,1.23,1.23,0,0,1-.293-.653,2.735,2.735,0,0,1-.013-.361v-.36a1.922,1.922,0,0,0-.072-.709,1.16,1.16,0,0,0-.431-.562,1.123,1.123,0,0,0-.694-.191H3.826A3.835,3.835,0,0,0,2.2,98,3.792,3.792,0,0,0,.855,99a3.708,3.708,0,0,0-.764,1.537c-.038.141-.048.288-.074.432-.007.123-.013.245-.017.369v24.074c0,.322,0,.636,0,.96,0,.972,0,1.964,0,2.952v31.285a3.854,3.854,0,0,0,.149,1.167,3.685,3.685,0,0,0,1.432,1.971,3.831,3.831,0,0,0,2.361.647l2.509,0,4.968,0,9.713.007,4.732,0c.781,0,1.563.013,2.33-.01a3.669,3.669,0,0,0,2.089-.807,3.929,3.929,0,0,0,.754-.833,3.651,3.651,0,0,0,.463-1.016,3.85,3.85,0,0,0,.139-1.1q0-.563,0-1.123,0-2.239,0-4.426c.007-11.661.013-22.163.017-30.984s.016-15.957.021-20.891q0-.925,0-1.746a3.807,3.807,0,0,0-.271-1.492,3.689,3.689,0,0,0-.7-1.1,3.715,3.715,0,0,0-2.224-1.172,2.9,2.9,0,0,0-.375-.034l-.127-.01s-.171,0-.5.005l-1.482,0" transform="translate(0 -39.521)" fill="#fafafa"/>
        <path id="Trazado_231173" data-name="Trazado 231173" d="M377.675,97.678l-2.411,0a1.856,1.856,0,0,0-.726.079,1.137,1.137,0,0,0-.574.509,1.207,1.207,0,0,0-.135.385,2.509,2.509,0,0,0-.018.426c0,.145,0,.293,0,.443a2.061,2.061,0,0,1-.029.458,1.211,1.211,0,0,1-.538.774,1.125,1.125,0,0,1-.473.167c-.172.015-.339,0-.511.008H370.1l-4.9,0h-1.684a1.345,1.345,0,0,1-.349-.034,1.161,1.161,0,0,1-.6-.37,1.231,1.231,0,0,1-.293-.653,2.733,2.733,0,0,1-.013-.361v-.36a1.922,1.922,0,0,0-.072-.709,1.159,1.159,0,0,0-.431-.562,1.123,1.123,0,0,0-.694-.191H355.5a3.835,3.835,0,0,0-1.622.307A3.792,3.792,0,0,0,352.532,99a3.708,3.708,0,0,0-.764,1.537c-.038.141-.048.288-.074.432-.007.123-.013.245-.017.369v24.074c0,.322,0,.636,0,.96,0,.972,0,1.964,0,2.952v31.285a3.834,3.834,0,0,0,.149,1.167,3.687,3.687,0,0,0,1.432,1.971,3.831,3.831,0,0,0,2.361.647l2.509,0,4.968,0,9.713.007,4.733,0c.78,0,1.562.013,2.329-.01a3.669,3.669,0,0,0,2.089-.807,3.93,3.93,0,0,0,.754-.833,3.651,3.651,0,0,0,.463-1.016,3.851,3.851,0,0,0,.139-1.1v-1.123q0-2.239,0-4.426c.007-11.661.012-22.163.017-30.984s.016-15.957.021-20.891q0-.925,0-1.746a3.807,3.807,0,0,0-.271-1.492,3.689,3.689,0,0,0-.7-1.1,3.715,3.715,0,0,0-2.224-1.172,2.89,2.89,0,0,0-.375-.034l-.127-.01s-.171,0-.5.005l-1.482,0" transform="translate(-142.304 -39.521)" fill="#fafafa"/>
      </g>
    </g>
    <g id="Grupo_180152" data-name="Grupo 180152">
      <g id="Grupo_180151" data-name="Grupo 180151" clip-path="url(#clip-path)">
        <path id="Trazado_231174" data-name="Trazado 231174" d="M70.4,55.661l-3.845.006a2.947,2.947,0,0,0-1.157.125,1.811,1.811,0,0,0-.916.811,1.954,1.954,0,0,0-.216.615,3.984,3.984,0,0,0-.029.679c0,.232,0,.468,0,.707a3.309,3.309,0,0,1-.046.731,1.937,1.937,0,0,1-.858,1.235,1.81,1.81,0,0,1-.754.266c-.274.024-.54.007-.815.013l-3.447,0-7.816,0H47.82a2.122,2.122,0,0,1-.558-.054,1.854,1.854,0,0,1-.958-.591,1.966,1.966,0,0,1-.467-1.041,4.269,4.269,0,0,1-.02-.576v-.575a3.074,3.074,0,0,0-.116-1.131,1.848,1.848,0,0,0-.686-.9,1.793,1.793,0,0,0-1.107-.3H35.036a6.115,6.115,0,0,0-2.587.489A6.046,6.046,0,0,0,30.3,57.778a5.9,5.9,0,0,0-1.218,2.451c-.06.225-.077.459-.118.689-.01.2-.021.391-.027.588v94.545a6.14,6.14,0,0,0,.237,1.86,5.879,5.879,0,0,0,2.284,3.144,6.109,6.109,0,0,0,3.766,1.032l4,0,7.925.005,15.494.01,7.55.005c1.244-.007,2.492.02,3.716-.015a5.849,5.849,0,0,0,3.332-1.287,6.251,6.251,0,0,0,1.2-1.329,5.817,5.817,0,0,0,.738-1.62A6.152,6.152,0,0,0,79.4,156.1q0-.9,0-1.791,0-3.572,0-7.061c.011-18.6.02-35.354.028-49.424s.026-25.454.033-33.325q0-1.475,0-2.784a6.057,6.057,0,0,0-.432-2.38,5.86,5.86,0,0,0-1.114-1.753,5.922,5.922,0,0,0-3.548-1.869,4.9,4.9,0,0,0-.6-.055c-.135-.008-.2-.014-.2-.014s-.273.005-.806.008l-2.364.007" transform="translate(-11.708 -22.517)" fill="#fafafa"/>
        <path id="Trazado_231175" data-name="Trazado 231175" d="M73.678,55.728s.068,0,.2.006a4.456,4.456,0,0,1,.6.046,5.556,5.556,0,0,1,2.216.765,5.669,5.669,0,0,1,1.347,1.092A5.918,5.918,0,0,1,79.167,59.4a6.116,6.116,0,0,1,.442,2.4q0,1.307,0,2.784c0,7.871.011,19.256.02,33.325s0,30.822.008,49.424q0,3.488,0,7.06v1.791a6.317,6.317,0,0,1-.227,1.8,5.945,5.945,0,0,1-.754,1.664,6.387,6.387,0,0,1-1.23,1.366,5.981,5.981,0,0,1-3.411,1.324c-1.239.036-2.468.009-3.712.017l-7.522,0-15.438-.008-7.9,0-3.988,0a6.245,6.245,0,0,1-3.847-1.062,6.053,6.053,0,0,1-2.342-3.234,6.523,6.523,0,0,1-.246-2q0-1,0-1.991,0-3.977,0-7.9,0-7.843,0-15.442c0-10.123.007-19.888.011-29.191s.01-18.142.012-26.414q0-6.2.008-11.971,0-.72,0-1.432c0-.238.02-.479.033-.717.042-.235.06-.474.121-.7a6.038,6.038,0,0,1,1.242-2.5,5.993,5.993,0,0,1,4.816-2.134l5.149.006,2.477,0h1.213a1.893,1.893,0,0,1,1.163.325,1.956,1.956,0,0,1,.722.949,3.164,3.164,0,0,1,.12,1.166q0,.288,0,.575a4.284,4.284,0,0,0,.018.563,1.864,1.864,0,0,0,.441.988,1.741,1.741,0,0,0,.9.56,2.011,2.011,0,0,0,.532.053h.544l2.132,0,7.788.011,3.433.005c.271,0,.547.013.8-.01a1.732,1.732,0,0,0,.723-.254,1.871,1.871,0,0,0,.828-1.19,3.29,3.29,0,0,0,.046-.717q0-.358,0-.707a4.028,4.028,0,0,1,.031-.689,1.989,1.989,0,0,1,.223-.632,1.86,1.86,0,0,1,.943-.834,2.961,2.961,0,0,1,1.173-.126l3.831.011,2.356.01c.53,0,.8.009.8.009s-.272.005-.8.008l-2.356.007-3.831.006a2.925,2.925,0,0,0-1.153.125,1.81,1.81,0,0,0-.913.812,1.943,1.943,0,0,0-.214.614,3.925,3.925,0,0,0-.028.679q0,.348,0,.707a3.353,3.353,0,0,1-.046.731,1.94,1.94,0,0,1-.855,1.234,1.8,1.8,0,0,1-.752.266c-.273.024-.538.007-.812.013l-3.433,0-7.788,0H48.017a2.109,2.109,0,0,1-.556-.054,1.841,1.841,0,0,1-.954-.591,1.968,1.968,0,0,1-.466-1.041,4.269,4.269,0,0,1-.02-.576V58.1a3.086,3.086,0,0,0-.116-1.131,1.848,1.848,0,0,0-.685-.9,1.783,1.783,0,0,0-1.1-.3H35.28a5.875,5.875,0,0,0-4.721,2.1,5.912,5.912,0,0,0-1.213,2.451c-.061.225-.077.459-.118.689-.012.234-.029.467-.032.7q0,.713,0,1.432,0,5.76,0,11.971c0,8.272,0,17.112,0,26.414s0,19.067,0,29.191q0,7.593,0,15.442,0,3.92,0,7.9,0,.994,0,1.991a6.335,6.335,0,0,0,.24,1.952,5.883,5.883,0,0,0,2.276,3.143,6.067,6.067,0,0,0,3.753,1.032l3.987,0,7.9,0,15.437.01,7.522.005c1.24-.007,2.483.02,3.7-.015a5.816,5.816,0,0,0,3.32-1.287,6.244,6.244,0,0,0,1.2-1.329,5.81,5.81,0,0,0,.735-1.62,6.173,6.173,0,0,0,.221-1.759q0-.9,0-1.791,0-3.571,0-7.06c.01-18.6.02-35.354.027-49.424s.026-25.454.033-33.325q0-1.475,0-2.784a6.062,6.062,0,0,0-.431-2.379,5.858,5.858,0,0,0-1.109-1.754A5.9,5.9,0,0,0,74.476,55.8a4.728,4.728,0,0,0-.6-.054c-.134-.008-.2-.015-.2-.015" transform="translate(-11.746 -22.517)" fill="#263238"/>
        <path id="Trazado_231176" data-name="Trazado 231176" d="M102.978,71.831c0,.026-.976.054-2.18.064s-2.181,0-2.181-.028.975-.054,2.18-.064,2.181,0,2.181.028" transform="translate(-39.905 -29.053)" fill="#263238"/>
        <path id="Trazado_231177" data-name="Trazado 231177" d="M102.994,73.7c0,.026-.976.054-2.18.064s-2.18,0-2.181-.028.976-.054,2.18-.064,2.181,0,2.181.028" transform="translate(-39.911 -29.811)" fill="#263238"/>
        <path id="Trazado_231178" data-name="Trazado 231178" d="M103.009,75.579c0,.026-.976.054-2.18.064s-2.18,0-2.181-.028.976-.054,2.18-.064,2.181,0,2.181.028" transform="translate(-39.917 -30.57)" fill="#263238"/>
        <path id="Trazado_231179" data-name="Trazado 231179" d="M39.292,75.258a.7.7,0,0,1,.09-.006l.252-.008.931-.022-.026.026c0-.207-.007-.432-.011-.675,0-.126-.011-.244,0-.389a.357.357,0,0,1,.312-.287c.15,0,.282-.01.445,0a.362.362,0,0,1,.305.36c0,.315.007.644.011.985l-.043-.042,1.174-.012-.044.045c0-.473-.009-.962-.013-1.463l0-.373a.381.381,0,0,0-.165-.277L42,72.61l-.5-.489-.24-.237c-.083-.079-.147-.162-.243-.182a.318.318,0,0,0-.269.052c-.071.06-.147.145-.219.215l-.422.425c-.265.276-.541.527-.742.765a.83.83,0,0,0-.059.438c0,.145,0,.283,0,.414,0,.254,0,.476,0,.667,0,.17,0,.311-.005.426a1.361,1.361,0,0,1-.005.154,1.08,1.08,0,0,1-.008-.141c0-.114-.007-.252-.011-.42,0-.192-.01-.416-.015-.672,0-.133,0-.274-.008-.422,0-.075,0-.152,0-.231a.489.489,0,0,1,.065-.246c.217-.266.476-.5.744-.785l.418-.428c.076-.074.138-.148.227-.225a.4.4,0,0,1,.341-.067.628.628,0,0,1,.282.2l.241.236.5.487.514.505a.987.987,0,0,1,.131.142.391.391,0,0,1,.062.2c0,.124,0,.249,0,.374,0,.5.008.991.011,1.464v.045h-.045l-1.175.007H41.52V75.24q0-.512-.005-.985a.282.282,0,0,0-.237-.285c-.135-.007-.295,0-.426,0a.288.288,0,0,0-.253.228c-.011.118,0,.256-.005.376,0,.243,0,.469,0,.675v.026h-.026l-.946-.007-.247,0a.48.48,0,0,1-.081,0" transform="translate(-15.881 -28.976)" fill="#263238"/>
        <path id="Trazado_231180" data-name="Trazado 231180" d="M74.877,143.172c0,.169-4.671.306-10.432.306s-10.433-.137-10.433-.306,4.671-.306,10.433-.306,10.432.137,10.432.306" transform="translate(-21.856 -57.81)" fill="#263238"/>
        <rect id="Rectángulo_58012" data-name="Rectángulo 58012" width="20.256" height="26.949" transform="translate(29.091 78.289) rotate(-89.681)" fill="#afafaf"/>
        <path id="Trazado_231181" data-name="Trazado 231181" d="M48.863,122.978l9.483-12.538,5.786,7.91,3.978-4.189,7.7,8.967Z" transform="translate(-19.772 -44.689)" fill="#636363"/>
        <path id="Trazado_231182" data-name="Trazado 231182" d="M75.871,106.477a2.122,2.122,0,1,1-2.11-2.134,2.122,2.122,0,0,1,2.11,2.134" transform="translate(-28.983 -42.222)" fill="#636363"/>
        <path id="Trazado_231185" data-name="Trazado 231185" d="M77.553,155.694c0,.169-8.283.306-18.5.306s-18.5-.137-18.5-.306,8.281-.306,18.5-.306,18.5.137,18.5.306" transform="translate(-16.411 -62.877)" fill="#263238"/>
        <path id="Trazado_231186" data-name="Trazado 231186" d="M77.553,164.357c0,.169-8.283.306-18.5.306s-18.5-.137-18.5-.306,8.281-.306,18.5-.306,18.5.137,18.5.306" transform="translate(-16.411 -66.382)" fill="#263238"/>
        <path id="Trazado_231187" data-name="Trazado 231187" d="M77.553,173.019c0,.169-8.283.306-18.5.306s-18.5-.137-18.5-.306,8.281-.306,18.5-.306,18.5.137,18.5.306" transform="translate(-16.411 -69.887)" fill="#263238"/>
        <path id="Trazado_231188" data-name="Trazado 231188" d="M77.553,181.681c0,.169-8.283.306-18.5.306s-18.5-.137-18.5-.306,8.281-.306,18.5-.306,18.5.137,18.5.306" transform="translate(-16.411 -73.392)" fill="#263238"/>
        <path id="Trazado_231189" data-name="Trazado 231189" d="M77.553,190.344c0,.169-8.283.306-18.5.306s-18.5-.137-18.5-.306,8.281-.306,18.5-.306,18.5.137,18.5.306" transform="translate(-16.411 -76.897)" fill="#263238"/>
        <path id="Trazado_231190" data-name="Trazado 231190" d="M74.9,198.253a15.8,15.8,0,0,1-3.111.217c-1.922.055-4.577.089-7.509.089s-5.588-.034-7.51-.089a15.793,15.793,0,0,1-3.11-.217,15.733,15.733,0,0,1,3.11-.217c1.922-.055,4.577-.089,7.51-.089s5.587.034,7.509.089a15.743,15.743,0,0,1,3.111.217" transform="translate(-21.712 -80.098)" fill="#263238"/>
        <path id="Trazado_231191" data-name="Trazado 231191" d="M129.387,41.115l-4.273.007a3.255,3.255,0,0,0-1.287.139,2.021,2.021,0,0,0-1.017.906,2.171,2.171,0,0,0-.239.685,4.412,4.412,0,0,0-.032.757q0,.388,0,.788a3.715,3.715,0,0,1-.051.815,2.163,2.163,0,0,1-.954,1.377,2.025,2.025,0,0,1-.838.3c-.3.027-.6.008-.906.014l-3.829,0-8.686,0h-2.984a2.366,2.366,0,0,1-.62-.061,2.053,2.053,0,0,1-1.064-.658,2.2,2.2,0,0,1-.52-1.161,4.859,4.859,0,0,1-.022-.642q0-.32,0-.641a3.426,3.426,0,0,0-.129-1.262,2.06,2.06,0,0,0-.763-1,1.986,1.986,0,0,0-1.229-.34H90.086a6.554,6.554,0,0,0-5.266,2.337,6.6,6.6,0,0,0-1.354,2.734c-.067.251-.086.513-.131.769-.011.218-.023.436-.03.656V153.079a6.865,6.865,0,0,0,.263,2.075,6.563,6.563,0,0,0,2.539,3.506,6.771,6.771,0,0,0,4.184,1.151l4.447,0,8.806.005,17.217.011,8.389.006c1.382-.008,2.77.022,4.129-.017a6.49,6.49,0,0,0,3.7-1.435,6.98,6.98,0,0,0,1.337-1.482,6.512,6.512,0,0,0,.819-1.807,6.857,6.857,0,0,0,.246-1.962q0-1,0-2,0-3.984,0-7.875c.011-20.746.022-39.43.031-55.122s.028-28.388.037-37.166q0-1.646,0-3.105a6.786,6.786,0,0,0-.48-2.654,6.56,6.56,0,0,0-1.238-1.956,6.572,6.572,0,0,0-3.942-2.084,5.315,5.315,0,0,0-.666-.061c-.149-.009-.225-.016-.225-.016s-.3.006-.9.009l-2.627.008" transform="translate(-33.709 -16.63)" fill="#fafafa"/>
        <path id="Trazado_231192" data-name="Trazado 231192" d="M132.857,40.962s.076,0,.226.007a4.883,4.883,0,0,1,.668.052,6.2,6.2,0,0,1,2.471.854,6.306,6.306,0,0,1,1.5,1.218,6.585,6.585,0,0,1,1.254,1.966,6.813,6.813,0,0,1,.493,2.674q0,1.459,0,3.105c.005,8.777.013,21.476.023,37.166s.006,34.376.009,55.122q0,3.89,0,7.875v2a7.061,7.061,0,0,1-.252,2.01,6.663,6.663,0,0,1-.842,1.856,7.128,7.128,0,0,1-1.372,1.523,6.671,6.671,0,0,1-3.8,1.476c-1.381.04-2.753.01-4.14.018l-8.389,0-17.217-.009-8.806,0-4.447,0a6.961,6.961,0,0,1-4.29-1.185,6.749,6.749,0,0,1-2.612-3.607,7.258,7.258,0,0,1-.275-2.228q0-1.113,0-2.221,0-4.434,0-8.808,0-8.746,0-17.222c0-11.29.008-22.181.012-32.556s.01-20.233.014-29.46q0-6.919.008-13.35,0-.8,0-1.6c0-.266.023-.534.037-.8.046-.263.067-.529.135-.785a6.737,6.737,0,0,1,1.385-2.792,6.684,6.684,0,0,1,5.371-2.38l5.742.007,2.762,0,1.353,0a2.11,2.11,0,0,1,1.3.362,2.177,2.177,0,0,1,.806,1.059,3.522,3.522,0,0,1,.133,1.3q0,.322,0,.641a4.751,4.751,0,0,0,.021.628,2.082,2.082,0,0,0,.492,1.1,1.942,1.942,0,0,0,1.006.625,2.244,2.244,0,0,0,.594.058h.607l2.378,0,8.686.013,3.829.007c.3-.005.61.014.9-.011a1.937,1.937,0,0,0,.807-.284,2.083,2.083,0,0,0,.923-1.327,3.633,3.633,0,0,0,.052-.8q0-.4,0-.788a4.407,4.407,0,0,1,.035-.768A2.208,2.208,0,0,1,122.7,42a2.079,2.079,0,0,1,1.052-.93,3.3,3.3,0,0,1,1.308-.139l4.273.011,2.628.011c.592,0,.895.01.895.01s-.3.006-.895.009l-2.628.008-4.273.007a3.24,3.24,0,0,0-1.286.14,2.016,2.016,0,0,0-1.018.9,2.171,2.171,0,0,0-.239.685,4.465,4.465,0,0,0-.032.757q0,.388,0,.788a3.713,3.713,0,0,1-.051.815,2.161,2.161,0,0,1-.954,1.377,2.021,2.021,0,0,1-.838.3c-.3.027-.6.008-.906.014l-3.829,0-8.686,0h-2.985a2.338,2.338,0,0,1-.62-.061,2.053,2.053,0,0,1-1.064-.658,2.2,2.2,0,0,1-.52-1.16,4.869,4.869,0,0,1-.022-.643c0-.213,0-.426,0-.641a3.427,3.427,0,0,0-.129-1.262,2.054,2.054,0,0,0-.763-1A1.991,1.991,0,0,0,99.891,41H90.033a6.554,6.554,0,0,0-5.266,2.337,6.606,6.606,0,0,0-1.354,2.734c-.067.251-.086.511-.131.768-.014.261-.032.52-.036.785q0,.795,0,1.6,0,6.424,0,13.35c0,9.227,0,19.085,0,29.46s0,21.266,0,32.556q0,8.469,0,17.222,0,4.373,0,8.809,0,1.108,0,2.221a7.066,7.066,0,0,0,.268,2.176,6.559,6.559,0,0,0,2.539,3.506,6.771,6.771,0,0,0,4.184,1.151l4.447,0,8.806.005,17.217.011,8.389.006c1.382-.008,2.77.022,4.129-.017a6.488,6.488,0,0,0,3.7-1.435,6.979,6.979,0,0,0,1.337-1.482,6.494,6.494,0,0,0,.819-1.807,6.858,6.858,0,0,0,.246-1.962q0-1,0-2,0-3.984,0-7.875c.012-20.746.022-39.43.031-55.122s.028-28.388.036-37.166q0-1.646.005-3.105a6.784,6.784,0,0,0-.48-2.654,6.548,6.548,0,0,0-1.238-1.956,6.573,6.573,0,0,0-3.942-2.084,5.314,5.314,0,0,0-.666-.061c-.149-.009-.225-.016-.225-.016" transform="translate(-33.61 -16.538)" fill="#263238"/>
        <path id="Trazado_231193" data-name="Trazado 231193" d="M165.535,58.92c0,.029-1.088.06-2.431.071s-2.432,0-2.432-.031,1.088-.061,2.431-.071,2.432,0,2.432.031" transform="translate(-65.015 -23.828)" fill="#263238"/>
        <path id="Trazado_231194" data-name="Trazado 231194" d="M165.553,61.011c0,.029-1.088.06-2.431.071s-2.433,0-2.433-.031,1.089-.061,2.431-.071,2.433,0,2.433.031" transform="translate(-65.022 -24.674)" fill="#263238"/>
        <path id="Trazado_231195" data-name="Trazado 231195" d="M165.57,63.1c0,.029-1.088.06-2.431.071s-2.432,0-2.432-.031,1.088-.061,2.431-.071,2.432,0,2.432.031" transform="translate(-65.029 -25.519)" fill="#263238"/>
        <path id="Trazado_231196" data-name="Trazado 231196" d="M94.507,62.743a.77.77,0,0,1,.1-.007l.281-.01,1.039-.025-.029.03q-.005-.346-.012-.753c0-.14-.012-.272,0-.433a.4.4,0,0,1,.348-.32c.167,0,.314-.011.5,0a.4.4,0,0,1,.341.4q.006.527.013,1.1l-.048-.047,1.31-.014-.049.051c0-.527-.01-1.073-.015-1.632l0-.416a.421.421,0,0,0-.184-.309l-.573-.565-.552-.545L96.7,58.98c-.092-.089-.164-.18-.271-.2a.352.352,0,0,0-.3.057c-.08.067-.164.162-.244.24l-.47.474c-.3.307-.6.587-.827.853a.922.922,0,0,0-.066.489c0,.163,0,.316,0,.462q0,.424,0,.743c0,.19,0,.347-.006.476a1.563,1.563,0,0,1-.006.171,1.246,1.246,0,0,1-.009-.158c0-.126-.008-.281-.013-.468q-.007-.321-.017-.75,0-.222-.009-.47c0-.084,0-.17,0-.258a.54.54,0,0,1,.073-.274c.242-.3.531-.56.829-.876l.466-.477c.084-.083.153-.165.253-.251a.446.446,0,0,1,.38-.075.709.709,0,0,1,.314.225l.269.264.554.543.574.563a1.037,1.037,0,0,1,.146.159.425.425,0,0,1,.068.221q0,.207,0,.417c0,.559.008,1.1.012,1.632v.05h-.05l-1.31.008h-.048v-.048c0-.38,0-.747-.006-1.1a.316.316,0,0,0-.265-.318c-.151-.008-.328,0-.475,0a.321.321,0,0,0-.282.255c-.012.132,0,.285-.006.419q0,.407,0,.753v.029h-.029l-1.056-.008-.275,0a.539.539,0,0,1-.091-.005" transform="translate(-38.221 -23.741)" fill="#263238"/>
        <path id="Trazado_231197" data-name="Trazado 231197" d="M133.055,73.97a4.391,4.391,0,1,1-4.391-4.391,4.391,4.391,0,0,1,4.391,4.391" transform="translate(-50.286 -28.155)" fill="#4adbd1"/>
        <path id="Trazado_231198" data-name="Trazado 231198" d="M132.131,78.653h-3.013v-.37a1.506,1.506,0,0,1,3.013,0Z" transform="translate(-52.247 -31.067)" fill="#fff"/>
        <path id="Trazado_231199" data-name="Trazado 231199" d="M131.932,74.865a.885.885,0,1,1-.885-.885.885.885,0,0,1,.885.885" transform="translate(-52.669 -29.935)" fill="#fff"/>
        <path id="Trazado_231200" data-name="Trazado 231200" d="M134.194,96.215c0,.189-5.209.342-11.634.342s-11.636-.153-11.636-.342,5.209-.341,11.636-.341,11.634.152,11.634.341" transform="translate(-44.885 -38.795)" fill="#263238"/>
        <rect id="Rectángulo_58015" data-name="Rectángulo 58015" width="15.1" height="20.091" transform="translate(53.854 84.083) rotate(-89.681)" fill="#afafaf"/>
        <path id="Trazado_231201" data-name="Trazado 231201" d="M90.456,134.878l7.069-9.347,4.314,5.9,2.965-3.123,5.742,6.685Z" transform="translate(-36.603 -50.795)" fill="#636363"/>
        <path id="Trazado_231202" data-name="Trazado 231202" d="M110.591,122.577a1.582,1.582,0,1,1-1.574-1.591,1.583,1.583,0,0,1,1.574,1.591" transform="translate(-43.47 -48.956)" fill="#636363"/>
        <rect id="Rectángulo_58018" data-name="Rectángulo 58018" width="34.909" height="46.445" transform="matrix(0.006, -1, 1, 0.006, 53.671, 123.65)" fill="#afafaf"/>
        <path id="Trazado_231205" data-name="Trazado 231205" d="M90.149,193,106.492,171.4l9.973,13.631,6.856-7.219,13.273,15.455Z" transform="translate(-36.478 -69.354)" fill="#636363"/>
        <path id="Trazado_231206" data-name="Trazado 231206" d="M136.7,164.565a3.657,3.657,0,1,1-3.636-3.678,3.657,3.657,0,0,1,3.636,3.678" transform="translate(-52.353 -65.102)" fill="#636363"/>
        <rect id="Rectángulo_58021" data-name="Rectángulo 58021" width="15.1" height="20.091" transform="translate(80.377 84.083) rotate(-89.681)" fill="#afafaf"/>
        <path id="Trazado_231209" data-name="Trazado 231209" d="M135.006,134.878l7.069-9.347,4.314,5.9,2.966-3.123,5.741,6.685Z" transform="translate(-54.629 -50.795)" fill="#e8505b"/>
        <path id="Trazado_231210" data-name="Trazado 231210" d="M155.141,122.577a1.582,1.582,0,1,1-1.574-1.591,1.583,1.583,0,0,1,1.574,1.591" transform="translate(-61.496 -48.956)" fill="#e8505b"/>
        <g id="Grupo_180117" data-name="Grupo 180117" transform="translate(80.377 74.736)" opacity="0.2">
          <g id="Grupo_180116" data-name="Grupo 180116">
            <g id="Grupo_180115" data-name="Grupo 180115" clip-path="url(#clip-path-4)">
              <path id="Trazado_231211" data-name="Trazado 231211" d="M135.006,134.878l7.069-9.347,4.314,5.9,2.966-3.123,5.741,6.685Z" transform="translate(-135.006 -125.531)"/>
            </g>
          </g>
        </g>
        <g id="Grupo_180120" data-name="Grupo 180120" transform="translate(90.481 72.03)" opacity="0.2">
          <g id="Grupo_180119" data-name="Grupo 180119">
            <g id="Grupo_180118" data-name="Grupo 180118" clip-path="url(#clip-path-5)">
              <path id="Trazado_231212" data-name="Trazado 231212" d="M155.141,122.577a1.582,1.582,0,1,1-1.574-1.591,1.583,1.583,0,0,1,1.574,1.591" transform="translate(-151.978 -120.986)"/>
            </g>
          </g>
        </g>
        <path id="Trazado_231213" data-name="Trazado 231213" d="M342.183,51l-3.831.006a2.925,2.925,0,0,0-1.153.125,1.809,1.809,0,0,0-.913.811,1.936,1.936,0,0,0-.214.615,3.986,3.986,0,0,0-.029.679q0,.348,0,.707a3.317,3.317,0,0,1-.046.731,1.936,1.936,0,0,1-.855,1.234,1.794,1.794,0,0,1-.751.266c-.273.024-.538.007-.813.013l-3.433,0-7.788,0h-2.676a2.1,2.1,0,0,1-.556-.054,1.842,1.842,0,0,1-.954-.591,1.969,1.969,0,0,1-.466-1.041,4.362,4.362,0,0,1-.02-.576q0-.287,0-.575a3.06,3.06,0,0,0-.115-1.131,1.847,1.847,0,0,0-.684-.9,1.783,1.783,0,0,0-1.1-.3h-8.839a5.873,5.873,0,0,0-4.721,2.1,5.918,5.918,0,0,0-1.215,2.451c-.06.225-.077.459-.117.689-.01.2-.021.391-.027.588v94.545a6.145,6.145,0,0,0,.236,1.861,5.88,5.88,0,0,0,2.276,3.144,6.068,6.068,0,0,0,3.752,1.032l3.988,0,7.9,0,15.438.01,7.522.005c1.24-.007,2.483.02,3.7-.015a5.815,5.815,0,0,0,3.32-1.287,6.217,6.217,0,0,0,1.2-1.329,5.826,5.826,0,0,0,.735-1.62,6.174,6.174,0,0,0,.221-1.759q0-.9,0-1.791,0-3.572,0-7.061c.01-18.6.02-35.354.027-49.424s.025-25.454.033-33.325q0-1.475,0-2.784a6.078,6.078,0,0,0-.431-2.38,5.863,5.863,0,0,0-1.11-1.753,5.887,5.887,0,0,0-3.535-1.868,4.791,4.791,0,0,0-.6-.055c-.135-.008-.2-.014-.2-.014s-.271.005-.8.008L342.183,51" transform="translate(-121.742 -20.632)" fill="#fafafa"/>
        <rect id="Rectángulo_58024" data-name="Rectángulo 58024" width="33.247" height="6.791" transform="translate(187.397 70.43)" fill="#ebebeb"/>
        <path id="Trazado_231214" data-name="Trazado 231214" d="M345.412,50.866s.068,0,.2.006a4.455,4.455,0,0,1,.6.046,5.565,5.565,0,0,1,2.216.765,5.671,5.671,0,0,1,1.347,1.092,5.918,5.918,0,0,1,1.125,1.763,6.126,6.126,0,0,1,.442,2.4q0,1.308,0,2.784c0,7.871.011,19.256.02,33.325s0,30.822.008,49.424q0,3.488,0,7.061v1.791a6.317,6.317,0,0,1-.227,1.8,5.946,5.946,0,0,1-.754,1.664,6.388,6.388,0,0,1-1.23,1.366,5.982,5.982,0,0,1-3.411,1.324c-1.239.036-2.468.009-3.712.017l-7.522,0-15.438-.008-7.9,0-3.988,0a6.243,6.243,0,0,1-3.847-1.062,6.053,6.053,0,0,1-2.342-3.234,6.52,6.52,0,0,1-.247-2q0-1,0-1.991,0-3.977,0-7.9,0-7.843,0-15.442c0-10.123.007-19.888.011-29.191s.009-18.142.013-26.414q0-6.2.007-11.971,0-.72,0-1.432c0-.238.021-.479.033-.717.042-.235.06-.474.121-.7a6.04,6.04,0,0,1,1.243-2.5,5.993,5.993,0,0,1,4.816-2.134l5.149.006,2.477,0h1.213a1.9,1.9,0,0,1,1.163.325,1.953,1.953,0,0,1,.722.949,3.165,3.165,0,0,1,.12,1.167c0,.192,0,.383,0,.575a4.279,4.279,0,0,0,.018.563,1.864,1.864,0,0,0,.441.988,1.741,1.741,0,0,0,.9.56,1.987,1.987,0,0,0,.532.053h.544l2.132,0,7.788.011,3.433.005c.271,0,.547.013.8-.01a1.739,1.739,0,0,0,.723-.254,1.873,1.873,0,0,0,.828-1.19,3.288,3.288,0,0,0,.046-.717q0-.358,0-.707a4.03,4.03,0,0,1,.031-.689,2,2,0,0,1,.223-.632,1.86,1.86,0,0,1,.943-.834,2.972,2.972,0,0,1,1.173-.126l3.831.011,2.356.01c.53,0,.8.009.8.009s-.272.005-.8.008l-2.356.007-3.831.006a2.925,2.925,0,0,0-1.153.125,1.811,1.811,0,0,0-.913.812,1.941,1.941,0,0,0-.214.614,3.913,3.913,0,0,0-.028.679q0,.348,0,.707a3.345,3.345,0,0,1-.046.731,1.937,1.937,0,0,1-.855,1.235,1.8,1.8,0,0,1-.751.266c-.274.024-.538.007-.813.013l-3.433,0-7.788,0h-2.676a2.11,2.11,0,0,1-.556-.054,1.837,1.837,0,0,1-.954-.591,1.965,1.965,0,0,1-.466-1.041,4.367,4.367,0,0,1-.02-.576v-.575a3.088,3.088,0,0,0-.115-1.132,1.848,1.848,0,0,0-.685-.9,1.783,1.783,0,0,0-1.1-.3h-8.839a5.873,5.873,0,0,0-4.721,2.1,5.917,5.917,0,0,0-1.214,2.451c-.06.225-.077.459-.118.689-.012.234-.029.467-.032.7q0,.713,0,1.432,0,5.76,0,11.971c0,8.272,0,17.112,0,26.414s0,19.068,0,29.191q0,7.594,0,15.442,0,3.92,0,7.9v1.991a6.332,6.332,0,0,0,.239,1.951,5.882,5.882,0,0,0,2.277,3.143,6.066,6.066,0,0,0,3.752,1.032l3.988,0,7.9,0,15.437.01,7.522.005c1.24-.007,2.483.02,3.7-.015a5.816,5.816,0,0,0,3.32-1.287,6.229,6.229,0,0,0,1.2-1.329,5.809,5.809,0,0,0,.735-1.62,6.172,6.172,0,0,0,.221-1.759q0-.9,0-1.791,0-3.572,0-7.061c.011-18.6.02-35.354.027-49.424s.026-25.454.033-33.325q0-1.475,0-2.784a6.061,6.061,0,0,0-.431-2.379,5.867,5.867,0,0,0-1.109-1.754,5.65,5.65,0,0,0-1.334-1.091,5.592,5.592,0,0,0-2.2-.777,4.642,4.642,0,0,0-.6-.055c-.134-.008-.2-.015-.2-.015" transform="translate(-121.702 -20.549)" fill="#263238"/>
        <path id="Trazado_231215" data-name="Trazado 231215" d="M374.712,66.969c0,.026-.976.054-2.18.064s-2.181,0-2.181-.028.975-.054,2.18-.064,2.181,0,2.181.028" transform="translate(-149.86 -27.086)" fill="#263238"/>
        <path id="Trazado_231216" data-name="Trazado 231216" d="M374.728,68.843c0,.026-.976.054-2.18.064s-2.18,0-2.181-.028.976-.054,2.18-.064,2.181,0,2.181.028" transform="translate(-149.866 -27.844)" fill="#263238"/>
        <path id="Trazado_231217" data-name="Trazado 231217" d="M374.743,70.717c0,.026-.976.054-2.18.064s-2.18,0-2.18-.028.975-.054,2.18-.064,2.181,0,2.181.028" transform="translate(-149.873 -28.602)" fill="#263238"/>
        <path id="Trazado_231218" data-name="Trazado 231218" d="M311.026,70.4a.7.7,0,0,1,.091-.006l.252-.008.931-.022-.026.026c0-.207-.007-.432-.011-.675,0-.126-.011-.244,0-.389a.356.356,0,0,1,.312-.287c.15,0,.282-.01.445,0a.362.362,0,0,1,.305.36c0,.315.007.644.011.985l-.043-.043,1.175-.011-.045.045c0-.473-.009-.963-.013-1.463l0-.373a.381.381,0,0,0-.165-.277l-.513-.506-.5-.489-.24-.237c-.082-.08-.147-.162-.243-.182a.315.315,0,0,0-.269.052c-.071.06-.147.145-.219.215l-.422.425c-.265.276-.541.527-.742.764a.833.833,0,0,0-.059.439c0,.145,0,.283,0,.414,0,.254,0,.476,0,.667,0,.17,0,.311-.005.426a1.354,1.354,0,0,1-.005.154,1.09,1.09,0,0,1-.008-.141c0-.114-.007-.252-.011-.42,0-.192-.009-.416-.015-.672,0-.133,0-.274-.008-.422,0-.075,0-.152,0-.231a.489.489,0,0,1,.065-.246c.217-.266.477-.5.744-.785l.418-.428c.076-.074.138-.148.227-.225a.4.4,0,0,1,.341-.067.632.632,0,0,1,.282.2l.241.236.5.487.515.505a.991.991,0,0,1,.131.142.391.391,0,0,1,.062.2c0,.124,0,.249,0,.374,0,.5.008.991.011,1.464v.045h-.045l-1.175.007h-.043v-.043q0-.512,0-.985a.283.283,0,0,0-.238-.285c-.135-.007-.295,0-.426,0a.287.287,0,0,0-.253.228c-.011.118,0,.256,0,.376v.7H312.3l-.946-.007-.247,0a.481.481,0,0,1-.081,0" transform="translate(-125.836 -27.008)" fill="#263238"/>
        <rect id="Rectángulo_58025" data-name="Rectángulo 58025" width="33.247" height="6.791" transform="translate(187.467 80.558)" fill="#ebebeb"/>
        <rect id="Rectángulo_58026" data-name="Rectángulo 58026" width="33.247" height="6.791" transform="translate(187.467 90.412)" fill="#ebebeb"/>
        <path id="Trazado_231219" data-name="Trazado 231219" d="M343.653,181.32H326.965a3.4,3.4,0,0,1,0-6.791h16.688a3.4,3.4,0,1,1,0,6.791" transform="translate(-130.93 -70.622)" fill="#12263f"/>
        <path id="Trazado_231220" data-name="Trazado 231220" d="M346.492,106.3c0,.169-4.671.306-10.432.306s-10.433-.137-10.433-.306S330.3,106,336.06,106s10.432.137,10.432.306" transform="translate(-131.763 -42.891)" fill="#263238"/>
        <path id="Trazado_231221" data-name="Trazado 231221" d="M293.168,39.2,288.9,39.2a3.251,3.251,0,0,0-1.286.14,2.016,2.016,0,0,0-1.018.9,2.169,2.169,0,0,0-.239.686,4.458,4.458,0,0,0-.032.757q0,.388,0,.788a3.751,3.751,0,0,1-.051.815,2.161,2.161,0,0,1-.954,1.377,2.025,2.025,0,0,1-.838.3c-.3.027-.6.008-.906.014l-3.83,0-8.686,0h-2.985a2.338,2.338,0,0,1-.62-.061,2.049,2.049,0,0,1-1.065-.658,2.2,2.2,0,0,1-.52-1.16,4.878,4.878,0,0,1-.022-.643c0-.213,0-.427,0-.641a3.426,3.426,0,0,0-.129-1.262,2.06,2.06,0,0,0-.763-1,1.989,1.989,0,0,0-1.229-.34h-9.858a6.554,6.554,0,0,0-5.266,2.337,6.6,6.6,0,0,0-1.354,2.734c-.066.251-.086.513-.131.769-.011.218-.023.436-.03.656V151.159a6.849,6.849,0,0,0,.263,2.076,6.559,6.559,0,0,0,2.539,3.506,6.771,6.771,0,0,0,4.184,1.151l4.447,0,8.806.005,17.217.011,8.389.006c1.382-.008,2.77.022,4.129-.017a6.488,6.488,0,0,0,3.7-1.435,6.979,6.979,0,0,0,1.337-1.482,6.487,6.487,0,0,0,.819-1.807,6.857,6.857,0,0,0,.246-1.962q0-1,0-2,0-3.984,0-7.875c.011-20.746.022-39.429.031-55.121s.028-28.389.037-37.166q0-1.646,0-3.105a6.786,6.786,0,0,0-.48-2.654,6.568,6.568,0,0,0-1.238-1.956,6.572,6.572,0,0,0-3.942-2.084,5.314,5.314,0,0,0-.666-.061c-.149-.009-.225-.016-.225-.016s-.3.006-.9.009l-2.627.008" transform="translate(-99.982 -15.854)" fill="#fafafa"/>
        <path id="Trazado_231222" data-name="Trazado 231222" d="M296.638,39.271s.076,0,.226.007a4.866,4.866,0,0,1,.667.052,6.2,6.2,0,0,1,2.471.854,6.3,6.3,0,0,1,1.5,1.218,6.586,6.586,0,0,1,1.255,1.966,6.834,6.834,0,0,1,.493,2.674q0,1.459,0,3.105c.005,8.777.013,21.476.023,37.166s.005,34.376.009,55.122q0,3.89,0,7.875,0,1,0,2a7.061,7.061,0,0,1-.252,2.01,6.665,6.665,0,0,1-.842,1.856,7.128,7.128,0,0,1-1.372,1.523,6.671,6.671,0,0,1-3.8,1.476c-1.382.04-2.753.01-4.14.018l-8.389,0-17.217-.009-8.806,0-4.447,0a6.96,6.96,0,0,1-4.29-1.185,6.746,6.746,0,0,1-2.612-3.607,7.26,7.26,0,0,1-.275-2.228q0-1.113,0-2.221,0-4.434,0-8.808,0-8.746,0-17.222c0-11.29.008-22.181.011-32.556s.01-20.233.015-29.46q0-6.919.008-13.35,0-.8,0-1.6c0-.266.023-.534.037-.8.046-.263.067-.529.135-.785a6.73,6.73,0,0,1,1.385-2.792,6.684,6.684,0,0,1,5.371-2.38l5.742.007,2.762,0,1.353,0a2.106,2.106,0,0,1,1.3.362,2.181,2.181,0,0,1,.806,1.059,3.535,3.535,0,0,1,.133,1.3c0,.215,0,.429,0,.641a4.751,4.751,0,0,0,.021.628,2.081,2.081,0,0,0,.491,1.1,1.946,1.946,0,0,0,1.007.625,2.269,2.269,0,0,0,.594.058h.607l2.377,0,8.686.013,3.829.007c.3-.005.61.014.9-.011a1.938,1.938,0,0,0,.807-.284,2.082,2.082,0,0,0,.923-1.327,3.633,3.633,0,0,0,.052-.8q0-.4,0-.788a4.527,4.527,0,0,1,.035-.768,2.222,2.222,0,0,1,.249-.705,2.077,2.077,0,0,1,1.052-.93,3.3,3.3,0,0,1,1.308-.139l4.273.011,2.627.011c.592,0,.9.01.9.01s-.3.006-.9.009l-2.627.008-4.273.007a3.24,3.24,0,0,0-1.286.14,2.015,2.015,0,0,0-1.018.9,2.156,2.156,0,0,0-.239.685,4.406,4.406,0,0,0-.032.757q0,.388,0,.788a3.68,3.68,0,0,1-.051.815,2.163,2.163,0,0,1-.953,1.377,2.024,2.024,0,0,1-.838.3c-.3.027-.6.008-.906.014l-3.829,0-8.686,0h-2.985a2.338,2.338,0,0,1-.62-.061,2.053,2.053,0,0,1-1.064-.658,2.2,2.2,0,0,1-.52-1.16,4.967,4.967,0,0,1-.023-.643v-.641a3.427,3.427,0,0,0-.129-1.262,2.061,2.061,0,0,0-.763-1,1.99,1.99,0,0,0-1.229-.34h-9.858a6.554,6.554,0,0,0-5.266,2.337,6.605,6.605,0,0,0-1.354,2.734c-.067.251-.086.511-.132.768-.013.261-.032.52-.035.785v1.6q0,6.424,0,13.35c0,9.227,0,19.085,0,29.46s0,21.266,0,32.556q0,8.469,0,17.222,0,4.373,0,8.809,0,1.108,0,2.221a7.083,7.083,0,0,0,.267,2.176,6.56,6.56,0,0,0,2.539,3.506,6.77,6.77,0,0,0,4.184,1.151l4.447,0,8.806.005,17.217.011,8.389.006c1.382-.008,2.77.022,4.129-.017a6.49,6.49,0,0,0,3.7-1.435,6.962,6.962,0,0,0,1.336-1.482,6.478,6.478,0,0,0,.82-1.807,6.857,6.857,0,0,0,.246-1.962q0-1,0-2,0-3.984,0-7.875c.011-20.746.022-39.429.031-55.122s.028-28.388.036-37.166q0-1.646.005-3.105a6.773,6.773,0,0,0-.481-2.654,6.547,6.547,0,0,0-1.237-1.956,6.573,6.573,0,0,0-3.942-2.084,5.313,5.313,0,0,0-.666-.061c-.149-.009-.225-.016-.225-.016" transform="translate(-99.883 -15.853)" fill="#263238"/>
        <path id="Trazado_231223" data-name="Trazado 231223" d="M329.316,57.229c0,.029-1.088.06-2.431.071s-2.432,0-2.433-.031,1.088-.061,2.431-.071,2.432,0,2.432.031" transform="translate(-131.288 -23.143)" fill="#263238"/>
        <path id="Trazado_231224" data-name="Trazado 231224" d="M329.334,59.319c0,.029-1.088.06-2.431.071s-2.432,0-2.432-.031,1.088-.061,2.431-.071,2.432,0,2.432.031" transform="translate(-131.295 -23.989)" fill="#263238"/>
        <path id="Trazado_231225" data-name="Trazado 231225" d="M329.351,61.409c0,.029-1.088.06-2.431.071s-2.432,0-2.432-.031,1.088-.061,2.431-.071,2.431,0,2.432.031" transform="translate(-131.302 -24.835)" fill="#263238"/>
        <path id="Trazado_231226" data-name="Trazado 231226" d="M258.288,61.051a.774.774,0,0,1,.1-.007l.282-.01,1.038-.024-.029.029q-.005-.346-.012-.753c0-.14-.012-.272,0-.433a.4.4,0,0,1,.348-.32c.167,0,.314-.011.5,0a.4.4,0,0,1,.341.4q.006.527.013,1.1l-.048-.047,1.31-.014-.05.051c0-.527-.01-1.073-.015-1.632l0-.416a.419.419,0,0,0-.184-.309L261.3,58.1l-.553-.545-.267-.264c-.092-.089-.164-.18-.271-.2a.352.352,0,0,0-.3.057c-.08.067-.164.162-.244.24l-.47.475c-.3.307-.6.587-.828.853a.928.928,0,0,0-.066.489c0,.163,0,.317,0,.462,0,.283,0,.531,0,.743,0,.191,0,.347-.005.476a1.616,1.616,0,0,1-.007.171,1.246,1.246,0,0,1-.009-.157c0-.127-.008-.282-.013-.469q-.007-.322-.017-.75,0-.222-.008-.47c0-.084,0-.17,0-.258a.542.542,0,0,1,.073-.274c.242-.3.531-.56.829-.876l.466-.477c.084-.083.153-.164.253-.251a.446.446,0,0,1,.38-.075.709.709,0,0,1,.314.225l.269.264.554.543.573.563a1.066,1.066,0,0,1,.146.159.425.425,0,0,1,.068.221q0,.207,0,.417c0,.559.008,1.1.012,1.632v.05h-.05l-1.31.008h-.048V61.03c0-.38,0-.747-.006-1.1a.316.316,0,0,0-.265-.318c-.151-.008-.329,0-.475,0a.32.32,0,0,0-.282.255c-.013.132,0,.285-.006.419q0,.407,0,.753v.029h-.029l-1.056-.007-.275,0a.537.537,0,0,1-.091-.005" transform="translate(-104.493 -23.057)" fill="#263238"/>
        <path id="Trazado_231227" data-name="Trazado 231227" d="M299.045,97.579a11,11,0,1,1-11-11,11,11,0,0,1,11,11" transform="translate(-112.105 -35.034)" fill="#5573c6"/>
        <path id="Trazado_231228" data-name="Trazado 231228" d="M296.73,109.311h-7.546v-.928a3.773,3.773,0,1,1,7.546,0Z" transform="translate(-117.016 -42.33)" fill="#fff"/>
        <path id="Trazado_231229" data-name="Trazado 231229" d="M296.232,99.821a2.218,2.218,0,1,1-2.218-2.218,2.218,2.218,0,0,1,2.218,2.218" transform="translate(-118.073 -39.494)" fill="#fff"/>
        <rect id="Rectángulo_58027" data-name="Rectángulo 58027" width="37.079" height="7.574" transform="translate(156.334 86.145)" fill="#ebebeb"/>
        <rect id="Rectángulo_58028" data-name="Rectángulo 58028" width="37.079" height="7.574" transform="translate(156.334 97.134)" fill="#ebebeb"/>
        <path id="Trazado_231230" data-name="Trazado 231230" d="M294.677,196.007H276.065a3.787,3.787,0,0,1,0-7.574h18.612a3.787,3.787,0,1,1,0,7.574" transform="translate(-110.176 -76.248)" fill="url(#linear-gradient)"/>
        <path id="Trazado_231231" data-name="Trazado 231231" d="M297.975,136.795c0,.189-5.209.341-11.634.341s-11.636-.152-11.636-.341,5.209-.342,11.636-.342,11.634.154,11.634.342" transform="translate(-111.157 -55.215)" fill="#263238"/>
        <path id="Trazado_231232" data-name="Trazado 231232" d="M269.88,152.915h-1.638a.291.291,0,0,1-.291-.291,1.092,1.092,0,0,1,1.091-1.092h.036a1.091,1.091,0,0,1,1.091,1.092.291.291,0,0,1-.291.291" transform="translate(-108.425 -61.317)" fill="#e0e0e0"/>
        <path id="Trazado_231233" data-name="Trazado 231233" d="M270.024,150.124a.652.652,0,1,1-.653-.652.653.653,0,0,1,.653.652" transform="translate(-108.736 -60.483)" fill="#e0e0e0"/>
        <rect id="Rectángulo_58029" data-name="Rectángulo 58029" width="1.955" height="1.382" transform="translate(159.659 101.041)" fill="#e0e0e0"/>
        <path id="Trazado_231234" data-name="Trazado 231234" d="M270.179,169.1h-.656v-.426a.553.553,0,0,0-1.107,0v.426h-.656v-.426a1.209,1.209,0,0,1,2.418,0Z" transform="translate(-108.348 -67.763)" fill="#e0e0e0"/>
        <path id="Trazado_231235" data-name="Trazado 231235" d="M211.884.153l-6.364.01a4.852,4.852,0,0,0-1.915.208,3.008,3.008,0,0,0-1.516,1.347,3.236,3.236,0,0,0-.356,1.02,6.565,6.565,0,0,0-.047,1.127q0,.578,0,1.173a5.482,5.482,0,0,1-.076,1.213,3.213,3.213,0,0,1-1.42,2.049,3.005,3.005,0,0,1-1.248.442c-.454.039-.894.011-1.349.02l-5.7,0-12.936,0h-4.445a3.484,3.484,0,0,1-.923-.09A3.058,3.058,0,0,1,172,7.7a3.269,3.269,0,0,1-.774-1.728,7.286,7.286,0,0,1-.033-.957q0-.475,0-.954A5.092,5.092,0,0,0,171,2.183,3.064,3.064,0,0,0,169.863.695a2.958,2.958,0,0,0-1.831-.506H153.351A10.105,10.105,0,0,0,149.07,1a10,10,0,0,0-3.561,2.666,9.81,9.81,0,0,0-2.016,4.069c-.1.373-.127.762-.2,1.144-.017.324-.034.65-.044.976V73.6c0,.853,0,1.683,0,2.541,0,2.574,0,5.2,0,7.815v82.836a10.2,10.2,0,0,0,.392,3.089,9.76,9.76,0,0,0,3.781,5.218,10.088,10.088,0,0,0,6.232,1.714l6.624,0,13.115.008,25.642.017,12.495.008c2.059-.012,4.125.033,6.149-.026a9.661,9.661,0,0,0,5.514-2.137,10.348,10.348,0,0,0,1.99-2.205,9.655,9.655,0,0,0,1.22-2.689,10.212,10.212,0,0,0,.367-2.92q0-1.49,0-2.973,0-5.929,0-11.72c.017-30.876.033-58.684.046-82.039s.042-42.251.055-55.315q0-2.45.008-4.622a10.066,10.066,0,0,0-.716-3.95,9.731,9.731,0,0,0-1.843-2.911,9.39,9.39,0,0,0-2.216-1.812,9.3,9.3,0,0,0-3.656-1.29,7.835,7.835,0,0,0-.991-.091c-.223-.014-.335-.024-.335-.024s-.452.01-1.334.014l-3.913.011" transform="translate(-57.966 -0.052)" fill="#fafafa"/>
        <path id="Trazado_231236" data-name="Trazado 231236" d="M217.227.136s.113,0,.335.01a7.193,7.193,0,0,1,.992.077,9.213,9.213,0,0,1,3.671,1.268A9.388,9.388,0,0,1,224.458,3.3a9.781,9.781,0,0,1,1.863,2.921,10.138,10.138,0,0,1,.733,3.973q0,2.167.005,4.613c.007,13.04.018,31.9.033,55.213s.009,51.067.014,81.887v14.666a10.448,10.448,0,0,1-.375,2.985,9.9,9.9,0,0,1-1.25,2.758,10.59,10.59,0,0,1-2.039,2.262,9.9,9.9,0,0,1-5.651,2.194c-2.052.06-4.09.015-6.151.027l-12.463-.005-25.577-.013-13.082-.007-6.607,0a10.342,10.342,0,0,1-6.373-1.76,10.019,10.019,0,0,1-3.879-5.358,10.773,10.773,0,0,1-.409-3.311q0-1.652,0-3.3,0-6.587,0-13.085,0-12.994.007-25.584c.006-16.773.012-32.952.017-48.364s.015-30.058.021-43.765q.006-10.28.012-19.833,0-1.193,0-2.374c.005-.394.033-.793.055-1.187.069-.389.1-.785.2-1.166a10.008,10.008,0,0,1,2.058-4.147A10.191,10.191,0,0,1,149.258.824,10.271,10.271,0,0,1,153.608,0l8.53.01,4.1.005,2.011,0a3.134,3.134,0,0,1,1.927.538,3.238,3.238,0,0,1,1.2,1.572,5.242,5.242,0,0,1,.2,1.933q0,.479,0,.953a7.086,7.086,0,0,0,.03.933,3.1,3.1,0,0,0,.731,1.638,2.888,2.888,0,0,0,1.5.929,3.321,3.321,0,0,0,.882.087h.9l3.532,0,12.9.019,5.689.01c.449-.008.906.02,1.332-.017a2.872,2.872,0,0,0,1.2-.421,3.1,3.1,0,0,0,1.372-1.972,5.4,5.4,0,0,0,.077-1.188q0-.594,0-1.17a6.7,6.7,0,0,1,.052-1.141,3.311,3.311,0,0,1,.369-1.048A3.087,3.087,0,0,1,203.7.3a4.9,4.9,0,0,1,1.943-.207l6.348.017,3.9.016c.879,0,1.33.015,1.33.015s-.451.01-1.33.014l-3.9.011-6.348.01a4.84,4.84,0,0,0-1.91.207,3,3,0,0,0-1.512,1.345,3.222,3.222,0,0,0-.355,1.019,6.542,6.542,0,0,0-.047,1.125q0,.577,0,1.17a5.538,5.538,0,0,1-.076,1.211,3.208,3.208,0,0,1-1.416,2.046,2.99,2.99,0,0,1-1.245.441c-.452.04-.891.012-1.346.021l-5.689,0-12.9,0h-4.434a3.516,3.516,0,0,1-.921-.09,3.054,3.054,0,0,1-1.581-.979,3.259,3.259,0,0,1-.772-1.724,7.254,7.254,0,0,1-.033-.955q0-.474,0-.953a5.087,5.087,0,0,0-.191-1.874A3.061,3.061,0,0,0,170.079.7a2.945,2.945,0,0,0-1.827-.5H153.608a10.071,10.071,0,0,0-4.27.81,9.99,9.99,0,0,0-3.552,2.661,9.805,9.805,0,0,0-2.012,4.062c-.1.372-.127.76-.195,1.141-.02.388-.048.773-.053,1.165q0,1.181,0,2.374,0,9.542,0,19.833c0,13.707,0,28.352,0,43.765s0,31.591,0,48.364q0,12.58,0,25.584,0,6.5,0,13.086,0,1.647,0,3.3a10.5,10.5,0,0,0,.4,3.233,9.741,9.741,0,0,0,3.771,5.209,10.06,10.06,0,0,0,6.216,1.71l6.607,0,13.082.008,25.577.017,12.463.009c2.053-.012,4.114.033,6.134-.026a9.635,9.635,0,0,0,5.5-2.133,10.336,10.336,0,0,0,1.985-2.2,9.63,9.63,0,0,0,1.217-2.684,10.2,10.2,0,0,0,.367-2.915q0-1.488,0-2.968,0-5.918,0-11.7c.017-30.82.033-58.576.045-81.887s.042-42.173.055-55.213q0-2.444.007-4.613a10.034,10.034,0,0,0-.714-3.941,9.732,9.732,0,0,0-1.838-2.906A9.35,9.35,0,0,0,222.2,1.539,9.267,9.267,0,0,0,218.551.251a7.771,7.771,0,0,0-.989-.09c-.222-.014-.335-.024-.335-.024" transform="translate(-57.965 0)" fill="#263238"/>
        <path id="Trazado_231237" data-name="Trazado 231237" d="M265.773,26.815c0,.042-1.617.089-3.611.106s-3.613,0-3.614-.046,1.616-.089,3.612-.106,3.613,0,3.613.046" transform="translate(-104.62 -10.829)" fill="#263238"/>
        <path id="Trazado_231238" data-name="Trazado 231238" d="M265.8,29.92c0,.042-1.617.089-3.612.106s-3.613,0-3.613-.046,1.616-.089,3.612-.106,3.613,0,3.613.046" transform="translate(-104.63 -12.086)" fill="#263238"/>
        <path id="Trazado_231239" data-name="Trazado 231239" d="M265.824,33.025c0,.042-1.617.089-3.611.106s-3.613,0-3.614-.046,1.616-.089,3.612-.106,3.613,0,3.613.046" transform="translate(-104.64 -13.342)" fill="#263238"/>
        <path id="Trazado_231240" data-name="Trazado 231240" d="M160.255,32.494a1.26,1.26,0,0,1,.15-.01l.418-.014,1.543-.037-.042.043c-.006-.342-.012-.716-.018-1.119,0-.208-.018-.4,0-.644a.593.593,0,0,1,.518-.476c.248,0,.467-.016.737,0a.6.6,0,0,1,.505.6c.006.522.012,1.067.019,1.632l-.072-.07,1.946-.02-.074.076c-.007-.784-.014-1.594-.022-2.425q0-.311,0-.617a.628.628,0,0,0-.274-.46l-.851-.839-.82-.81-.4-.393c-.136-.132-.243-.268-.4-.3a.521.521,0,0,0-.446.086c-.118.1-.243.24-.363.356l-.7.7c-.439.456-.9.873-1.229,1.267a1.381,1.381,0,0,0-.1.726q0,.362,0,.686,0,.63-.007,1.1c0,.282-.006.516-.008.707,0,.163-.006.251-.01.254a1.864,1.864,0,0,1-.013-.234c-.005-.188-.012-.417-.02-.7q-.011-.478-.026-1.113-.005-.33-.013-.7c0-.124,0-.252-.006-.382a.808.808,0,0,1,.107-.407c.36-.441.79-.832,1.232-1.3l.693-.71c.124-.123.227-.245.375-.372a.663.663,0,0,1,.564-.111,1.047,1.047,0,0,1,.467.334l.4.391.823.807.853.837a1.588,1.588,0,0,1,.217.235.636.636,0,0,1,.1.329q0,.308.005.62c.007.831.013,1.641.019,2.425v.075h-.075l-1.946.013h-.071v-.071c0-.565-.006-1.11-.009-1.632a.469.469,0,0,0-.393-.472c-.224-.012-.488,0-.706,0a.477.477,0,0,0-.42.379c-.019.2,0,.424-.008.622V32.52h-.042l-1.569-.011-.408-.007a.729.729,0,0,1-.135-.008" transform="translate(-64.815 -10.701)" fill="#263238"/>
        <path id="Trazado_231241" data-name="Trazado 231241" d="M218.434,65.427h-57.77a5.233,5.233,0,0,1-5.234-5.233V58.248a5.234,5.234,0,0,1,5.234-5.234h57.77a5.234,5.234,0,0,1,5.234,5.234v1.945a5.233,5.233,0,0,1-5.234,5.233" transform="translate(-62.894 -21.452)" fill="#f5f5f5"/>
        <path id="Trazado_231242" data-name="Trazado 231242" d="M218.347,65.341s.133-.015.392-.032a5.605,5.605,0,0,0,1.126-.219,5.407,5.407,0,0,0,1.641-.863,5.136,5.136,0,0,0,1.556-1.973,5,5,0,0,0,.411-1.447,13.287,13.287,0,0,0,.047-1.672,11.226,11.226,0,0,0-.081-1.818,5.165,5.165,0,0,0-4.121-4.212,14.274,14.274,0,0,0-2.372-.09l-2.521,0-53.845.038a5.117,5.117,0,0,0-5.09,4.683c-.043.618-.012,1.272-.021,1.9a5.928,5.928,0,0,0,.193,1.846,5.147,5.147,0,0,0,2.114,2.892,4.924,4.924,0,0,0,1.653.7,7.535,7.535,0,0,0,1.8.135h3.614l7,0,24.207.027,16.319.04,4.437.023,1.154.013c.26,0,.393.012.393.012s-.133.01-.393.013l-1.154.013-4.437.024-16.319.04-24.207.028-7,0h-3.614a7.781,7.781,0,0,1-1.851-.139,5.18,5.18,0,0,1-1.734-.738,5.4,5.4,0,0,1-2.219-3.032,6.194,6.194,0,0,1-.2-1.914c.01-.64-.023-1.263.021-1.923A5.369,5.369,0,0,1,160.58,52.8l53.845.038q1.292,0,2.521,0a14.337,14.337,0,0,1,2.4.1,5.3,5.3,0,0,1,4.221,4.35,11.3,11.3,0,0,1,.071,1.84,13.223,13.223,0,0,1-.059,1.687,5.086,5.086,0,0,1-.43,1.472,5.182,5.182,0,0,1-1.6,1.992,5.373,5.373,0,0,1-1.672.853,5.3,5.3,0,0,1-1.14.2c-.26.009-.394.007-.394.007" transform="translate(-62.806 -21.366)" fill="#263238"/>
        <path id="Trazado_231243" data-name="Trazado 231243" d="M259.882,61.34c-.024,0-.022-.2-.118-.537a2.242,2.242,0,0,0-.824-1.179,2.139,2.139,0,1,0,0,3.432,2.244,2.244,0,0,0,.824-1.179c.1-.337.094-.538.118-.537.009,0,.015.049.018.145a1.679,1.679,0,0,1-.04.416,2.238,2.238,0,0,1-.811,1.3,2.33,2.33,0,0,1-2.221.364,2.358,2.358,0,0,1,0-4.444,2.331,2.331,0,0,1,2.221.363,2.236,2.236,0,0,1,.811,1.3,1.657,1.657,0,0,1,.041.416c0,.1-.01.145-.018.145" transform="translate(-103.289 -23.867)" fill="#263238"/>
        <path id="Trazado_231244" data-name="Trazado 231244" d="M263.732,67.969a8.745,8.745,0,0,1-2.014-2.18,8.745,8.745,0,0,1,2.014,2.18" transform="translate(-105.901 -26.62)" fill="#263238"/>
        <path id="Trazado_231245" data-name="Trazado 231245" d="M170.076,61.138h-1.217v-.317h2.8v.317h-1.217v3.147h-.366Z" transform="translate(-68.328 -24.611)" fill="#e0e0e0"/>
        <path id="Trazado_231246" data-name="Trazado 231246" d="M176.05,63.665h-2.177a.964.964,0,0,0,1.024.906,1.025,1.025,0,0,0,.8-.342l.2.228a1.376,1.376,0,0,1-2.37-.9,1.253,1.253,0,0,1,1.272-1.321,1.24,1.24,0,0,1,1.262,1.321c0,.03,0,.069,0,.109m-2.177-.263h1.846a.925.925,0,0,0-1.846,0" transform="translate(-70.214 -25.183)" fill="#e0e0e0"/>
        <path id="Trazado_231247" data-name="Trazado 231247" d="M180.246,64.871l-.826-1.089-.832,1.089h-.4l1.029-1.336-.979-1.267h.4l.782,1.019.782-1.019h.386l-.979,1.267,1.039,1.336Z" transform="translate(-72.104 -25.196)" fill="#e0e0e0"/>
        <path id="Trazado_231248" data-name="Trazado 231248" d="M184.391,64.326a.836.836,0,0,1-.55.183.689.689,0,0,1-.762-.757V62.178h-.465v-.3h.465v-.569h.351v.569h.792v.3h-.792v1.553a.417.417,0,0,0,.451.475.582.582,0,0,0,.386-.133Z" transform="translate(-73.893 -24.809)" fill="#e0e0e0"/>
        <path id="Trazado_231249" data-name="Trazado 231249" d="M218.452,93.632c0,.07-4.994.127-11.154.127s-11.155-.057-11.155-.127,4.993-.127,11.155-.127,11.154.057,11.154.127" transform="translate(-79.368 -37.836)" fill="#e8505b"/>
        <path id="Trazado_231250" data-name="Trazado 231250" d="M236.24,101.322c0,.07-8.977.127-20.047.127s-20.05-.057-20.05-.127,8.975-.127,20.05-.127,20.047.057,20.047.127" transform="translate(-79.368 -40.948)" fill="#263238"/>
        <path id="Trazado_231251" data-name="Trazado 231251" d="M235.769,106.814c0,.07-8.871.127-19.812.127s-19.813-.057-19.813-.127,8.869-.127,19.813-.127,19.812.057,19.812.127" transform="translate(-79.368 -43.17)" fill="#263238"/>
        <path id="Trazado_231252" data-name="Trazado 231252" d="M219.539,112.053c0,.071-5.238.127-11.7.127s-11.7-.057-11.7-.127,5.237-.126,11.7-.126,11.7.057,11.7.126" transform="translate(-79.368 -45.29)" fill="#263238"/>
        <path id="Trazado_231253" data-name="Trazado 231253" d="M218.452,135.429c0,.07-4.994.127-11.154.127s-11.155-.057-11.155-.127,4.993-.127,11.155-.127,11.154.057,11.154.127" transform="translate(-79.368 -54.749)" fill="#e8505b"/>
        <path id="Trazado_231254" data-name="Trazado 231254" d="M236.24,143.12c0,.07-8.977.127-20.047.127s-20.05-.057-20.05-.127,8.975-.127,20.05-.127,20.047.057,20.047.127" transform="translate(-79.368 -57.861)" fill="#263238"/>
        <path id="Trazado_231255" data-name="Trazado 231255" d="M235.769,148.612c0,.07-8.871.127-19.812.127s-19.813-.057-19.813-.127,8.869-.127,19.813-.127,19.812.057,19.812.127" transform="translate(-79.368 -60.083)" fill="#263238"/>
        <path id="Trazado_231256" data-name="Trazado 231256" d="M219.539,153.851c0,.07-5.238.127-11.7.127s-11.7-.057-11.7-.127,5.237-.127,11.7-.127,11.7.057,11.7.127" transform="translate(-79.368 -62.203)" fill="#263238"/>
        <path id="Trazado_231257" data-name="Trazado 231257" d="M218.452,177.227c0,.07-4.994.127-11.154.127s-11.155-.057-11.155-.127,4.993-.127,11.155-.127,11.154.057,11.154.127" transform="translate(-79.368 -71.662)" fill="#e8505b"/>
        <path id="Trazado_231258" data-name="Trazado 231258" d="M236.24,184.918c0,.07-8.977.127-20.047.127s-20.05-.057-20.05-.127,8.975-.127,20.05-.127,20.047.057,20.047.127" transform="translate(-79.368 -74.774)" fill="#263238"/>
        <path id="Trazado_231259" data-name="Trazado 231259" d="M235.769,190.41c0,.07-8.871.127-19.812.127s-19.813-.057-19.813-.127,8.869-.127,19.813-.127,19.812.057,19.812.127" transform="translate(-79.368 -76.997)" fill="#263238"/>
        <path id="Trazado_231260" data-name="Trazado 231260" d="M219.539,195.649c0,.07-5.238.127-11.7.127s-11.7-.057-11.7-.127,5.237-.127,11.7-.127,11.7.057,11.7.127" transform="translate(-79.368 -79.117)" fill="#263238"/>
        <path id="Trazado_231261" data-name="Trazado 231261" d="M218.452,219.025c0,.07-4.994.127-11.154.127s-11.155-.057-11.155-.127,4.993-.127,11.155-.127,11.154.057,11.154.127" transform="translate(-79.368 -88.575)" fill="#e8505b"/>
        <path id="Trazado_231262" data-name="Trazado 231262" d="M236.24,226.716c0,.07-8.977.127-20.047.127s-20.05-.057-20.05-.127,8.975-.127,20.05-.127,20.047.057,20.047.127" transform="translate(-79.368 -91.688)" fill="#263238"/>
        <path id="Trazado_231263" data-name="Trazado 231263" d="M235.769,232.208c0,.07-8.871.127-19.812.127s-19.813-.057-19.813-.127,8.869-.127,19.813-.127,19.812.057,19.812.127" transform="translate(-79.368 -93.91)" fill="#263238"/>
        <path id="Trazado_231264" data-name="Trazado 231264" d="M219.539,237.447c0,.07-5.238.127-11.7.127s-11.7-.057-11.7-.127,5.237-.127,11.7-.127,11.7.057,11.7.127" transform="translate(-79.368 -96.03)" fill="#263238"/>
        <path id="Trazado_231265" data-name="Trazado 231265" d="M218.452,260.53c0,.07-4.994.127-11.154.127s-11.155-.057-11.155-.127,4.993-.127,11.155-.127,11.154.057,11.154.127" transform="translate(-79.368 -105.37)" fill="#e8505b"/>
        <path id="Trazado_231266" data-name="Trazado 231266" d="M236.24,268.22c0,.07-8.977.127-20.047.127s-20.05-.057-20.05-.127,8.975-.127,20.05-.127,20.047.057,20.047.127" transform="translate(-79.368 -108.482)" fill="#263238"/>
        <path id="Trazado_231267" data-name="Trazado 231267" d="M235.769,273.712c0,.07-8.871.127-19.812.127s-19.813-.057-19.813-.127,8.869-.127,19.813-.127,19.812.057,19.812.127" transform="translate(-79.368 -110.704)" fill="#263238"/>
        <path id="Trazado_231268" data-name="Trazado 231268" d="M219.539,278.952c0,.07-5.238.127-11.7.127s-11.7-.057-11.7-.127,5.237-.127,11.7-.127,11.7.057,11.7.127" transform="translate(-79.368 -112.825)" fill="#263238"/>
        <rect id="Rectángulo_58030" data-name="Rectángulo 58030" width="13.658" height="18.172" transform="translate(92.808 69.269) rotate(-89.681)" fill="#afafaf"/>
        <path id="Trazado_231269" data-name="Trazado 231269" d="M155.886,110.6l6.394-8.454,3.9,5.333,2.683-2.824,5.193,6.046Z" transform="translate(-63.078 -41.334)" fill="#636363"/>
        <path id="Trazado_231270" data-name="Trazado 231270" d="M174.1,99.476a1.431,1.431,0,1,1-1.423-1.438,1.431,1.431,0,0,1,1.423,1.438" transform="translate(-69.29 -39.67)" fill="#636363"/>
        <rect id="Rectángulo_58033" data-name="Rectángulo 58033" width="13.658" height="18.172" transform="translate(92.808 93.837) rotate(-89.681)" fill="#afafaf"/>
        <path id="Trazado_231273" data-name="Trazado 231273" d="M155.886,151.869l6.394-8.455,3.9,5.334,2.683-2.825,5.193,6.047Z" transform="translate(-63.078 -58.032)" fill="#636363"/>
        <path id="Trazado_231274" data-name="Trazado 231274" d="M174.1,140.742a1.431,1.431,0,1,1-1.423-1.439,1.431,1.431,0,0,1,1.423,1.439" transform="translate(-69.29 -56.368)" fill="#e8505b"/>
        <g id="Grupo_180132" data-name="Grupo 180132" transform="translate(101.947 82.935)" opacity="0.2">
          <g id="Grupo_180131" data-name="Grupo 180131">
            <g id="Grupo_180130" data-name="Grupo 180130" clip-path="url(#clip-path-6)">
              <path id="Trazado_231276" data-name="Trazado 231276" d="M174.1,140.742a1.431,1.431,0,1,1-1.423-1.439,1.431,1.431,0,0,1,1.423,1.439" transform="translate(-171.236 -139.303)"/>
            </g>
          </g>
        </g>
        <rect id="Rectángulo_58036" data-name="Rectángulo 58036" width="13.658" height="18.172" transform="translate(92.808 118.405) rotate(-89.681)" fill="#afafaf"/>
        <path id="Trazado_231277" data-name="Trazado 231277" d="M155.886,193.135l6.394-8.454,3.9,5.333,2.683-2.824,5.193,6.046Z" transform="translate(-63.078 -74.73)" fill="#636363"/>
        <path id="Trazado_231278" data-name="Trazado 231278" d="M174.1,182.008a1.431,1.431,0,1,1-1.423-1.439,1.431,1.431,0,0,1,1.423,1.439" transform="translate(-69.29 -73.066)" fill="#636363"/>
        <rect id="Rectángulo_58039" data-name="Rectángulo 58039" width="13.658" height="18.172" transform="translate(92.808 142.973) rotate(-89.681)" fill="#afafaf"/>
        <path id="Trazado_231281" data-name="Trazado 231281" d="M155.886,234.4l6.394-8.455,3.9,5.334,2.683-2.825,5.193,6.047Z" transform="translate(-63.078 -91.427)" fill="#636363"/>
        <path id="Trazado_231282" data-name="Trazado 231282" d="M174.1,223.274a1.431,1.431,0,1,1-1.423-1.439,1.431,1.431,0,0,1,1.423,1.439" transform="translate(-69.29 -89.764)" fill="#636363"/>
        <rect id="Rectángulo_58042" data-name="Rectángulo 58042" width="13.658" height="18.172" transform="translate(92.808 167.422) rotate(-89.681)" fill="#afafaf"/>
        <path id="Trazado_231285" data-name="Trazado 231285" d="M155.886,275.466l6.394-8.454,3.9,5.333,2.683-2.824,5.193,6.046Z" transform="translate(-63.078 -108.044)" fill="#636363"/>
        <path id="Trazado_231286" data-name="Trazado 231286" d="M174.1,264.339a1.431,1.431,0,1,1-1.423-1.438,1.431,1.431,0,0,1,1.423,1.438" transform="translate(-69.29 -106.381)" fill="#636363"/>
        <path id="Trazado_231289" data-name="Trazado 231289" d="M387.514,49.692a6.48,6.48,0,1,1-6.48-6.479,6.48,6.48,0,0,1,6.48,6.479" transform="translate(-151.561 -17.486)" fill="#afafaf"/>
        <path id="Trazado_231290" data-name="Trazado 231290" d="M383.1,54.771a.3.3,0,0,1-.189-.068l-2.181-1.8a.3.3,0,1,1,.377-.46l1.951,1.605,2.768-3.388a.3.3,0,1,1,.46.377l-2.957,3.619a.3.3,0,0,1-.2.108H383.1" transform="translate(-154.016 -20.457)" fill="#fff"/>
        <path id="Trazado_231291" data-name="Trazado 231291" d="M341.332,33.142a8.881,8.881,0,1,1-8.882-8.882,8.882,8.882,0,0,1,8.882,8.882" transform="translate(-130.93 -9.817)" fill="#f4a338"/>
        <path id="Trazado_231292" data-name="Trazado 231292" d="M335.158,40.163a.6.6,0,0,1-.379-.136l-2.989-2.461a.6.6,0,1,1,.757-.919l2.527,2.081,3.676-4.5a.6.6,0,1,1,.922.753l-4.054,4.961a.592.592,0,0,1-.4.216l-.059,0" transform="translate(-134.169 -13.763)" fill="#fff"/>
      </g>
    </g>
    <g id="Grupo_180154" data-name="Grupo 180154">
      <g id="Grupo_180153" data-name="Grupo 180153" clip-path="url(#clip-path)">
        <path id="Trazado_231293" data-name="Trazado 231293" d="M265.522,227.212a18.509,18.509,0,0,1-13.086-21.435c-.17.457-.327.921-.463,1.4A18.511,18.511,0,0,0,287.584,217.3c.135-.477.245-.954.341-1.432a18.509,18.509,0,0,1-22.4,11.347" transform="translate(-101.671 -83.266)" fill="#263238"/>
        <path id="Trazado_231294" data-name="Trazado 231294" d="M275.312,184.412A18.509,18.509,0,0,1,288.4,205.846c.169-.457.327-.921.463-1.4a18.511,18.511,0,0,0-35.612-10.122c-.135.477-.245.954-.341,1.432a18.509,18.509,0,0,1,22.4-11.347" transform="translate(-102.337 -73.188)" fill="#455a64"/>
        <path id="Trazado_231295" data-name="Trazado 231295" d="M288.872,204.159s.012-.1.052-.3.1-.493.183-.861l.138-.633c.04-.235.061-.5.1-.775a13.5,13.5,0,0,0,.149-1.941,17.682,17.682,0,0,0-.635-5.278,18.49,18.49,0,0,0-9.589-11.717,17.168,17.168,0,0,0-2.162-.893c-.377-.121-.751-.267-1.14-.371l-1.187-.272c-.2-.042-.4-.1-.6-.129l-.616-.076c-.411-.046-.825-.114-1.244-.145a19.444,19.444,0,0,0-2.552.023,19.113,19.113,0,0,0-2.592.358c-.43.1-.856.23-1.287.345a9.384,9.384,0,0,0-1.274.432,16.787,16.787,0,0,0-4.8,2.689,17.788,17.788,0,0,0-3.907,4.147,18.191,18.191,0,0,0-3.169,11.144,17.8,17.8,0,0,0,1.141,5.584,16.8,16.8,0,0,0,2.668,4.813,9.36,9.36,0,0,0,.857,1.038c.307.324.6.662.913.97a19.175,19.175,0,0,0,2.016,1.668,19.5,19.5,0,0,0,2.159,1.362c.373.194.76.354,1.134.531l.564.258c.189.082.387.137.579.207l1.153.394c.385.116.78.188,1.165.283a17.157,17.157,0,0,0,2.309.378,18.488,18.488,0,0,0,14.318-4.922,17.663,17.663,0,0,0,3.316-4.155,13.5,13.5,0,0,0,.894-1.73c.117-.257.236-.489.326-.71s.151-.427.216-.611l.3-.828c.069-.186.112-.28.112-.28s-.023.1-.082.289l-.269.84-.2.619c-.085.223-.2.459-.313.719a13.141,13.141,0,0,1-.875,1.752,17.537,17.537,0,0,1-3.3,4.221,18.617,18.617,0,0,1-14.461,5.052,17.347,17.347,0,0,1-2.343-.375c-.391-.1-.791-.168-1.182-.285l-1.171-.4c-.195-.07-.4-.126-.588-.208l-.573-.261c-.381-.179-.775-.34-1.153-.536a19.61,19.61,0,0,1-2.2-1.378,19.412,19.412,0,0,1-2.052-1.69c-.321-.313-.617-.655-.929-.984a9.655,9.655,0,0,1-.873-1.053,17.1,17.1,0,0,1-2.718-4.888,18.077,18.077,0,0,1-1.165-5.677,18.474,18.474,0,0,1,3.222-11.33,18.069,18.069,0,0,1,3.976-4.214,17.065,17.065,0,0,1,4.881-2.726,9.476,9.476,0,0,1,1.3-.436c.439-.115.87-.251,1.308-.348a19.333,19.333,0,0,1,2.633-.359,19.638,19.638,0,0,1,2.592-.016c.425.032.844.1,1.262.149l.624.08c.207.031.407.09.61.133l1.2.279c.394.107.773.256,1.155.38a17.226,17.226,0,0,1,2.19.913,18.614,18.614,0,0,1,9.642,11.9,17.529,17.529,0,0,1,.588,5.327,13.109,13.109,0,0,1-.177,1.95c-.041.28-.067.542-.113.777l-.153.632-.213.856c-.05.192-.083.288-.083.288" transform="translate(-102.138 -73.02)" fill="#263238"/>
        <path id="Trazado_231296" data-name="Trazado 231296" d="M301.836,235.309c.233.159,17.764,16.326,24.216,22.372a2.813,2.813,0,1,0,3.842-4.11l-24.059-22.224Z" transform="translate(-122.136 -93.613)" fill="#263238"/>
      </g>
    </g>
    <g id="Grupo_180165" data-name="Grupo 180165">
      <g id="Grupo_180164" data-name="Grupo 180164" clip-path="url(#clip-path)">
        <path id="Trazado_231297" data-name="Trazado 231297" d="M143.347,131.371l.356-1.41a5.258,5.258,0,0,0-.061-2.8l-1.47-4.909a1.842,1.842,0,0,0-.845-1.067c-1.116-.642-3.327-1.88-3.515-1.724-1.353,1.125,1.671,3.11,1.671,3.11s1.166,1.3.243,2.264c-1.05,1.1-3.023-1.308-3.023-1.308s.1-.251.2-.2a3.892,3.892,0,0,0,1.9.817l0-1.6-1.788-1.121a1.8,1.8,0,0,0-1.329-.234l-.619.133a1.571,1.571,0,0,0-.979.665l-.588.882-.249.335a1.119,1.119,0,0,0-.121,1.132l.284.625-.389.55a1.684,1.684,0,0,0-.2,1.569l3.017,4.148,4.469,7.291,4.835-5.194Z" transform="translate(-53.703 -48.334)" fill="#ffbe9d"/>
        <path id="Trazado_231298" data-name="Trazado 231298" d="M134.368,130.579a1.009,1.009,0,0,1-.161-.3.84.84,0,0,1,.148-.772l.022-.028-.016-.034-.052-.107a7.569,7.569,0,0,0-.645-1.181,7.726,7.726,0,0,0,.539,1.233l.052.107.006-.062a.877.877,0,0,0-.129.871c.089.217.231.291.237.273" transform="translate(-54.085 -51.858)" fill="#eb996e"/>
        <path id="Trazado_231299" data-name="Trazado 231299" d="M135.308,123.14a1.412,1.412,0,0,0-.092.836,6.479,6.479,0,0,0,.814,1.921,2.475,2.475,0,0,1,.283.56,1.535,1.535,0,0,1,.036.594,1.448,1.448,0,0,0,.106.892,1.734,1.734,0,0,0,.585.608,1,1,0,0,1-.7-.545,1.523,1.523,0,0,1-.161-.968,1.413,1.413,0,0,0-.039-.527,2.451,2.451,0,0,0-.268-.517,5.617,5.617,0,0,1-.785-2,.9.9,0,0,1,.221-.854" transform="translate(-54.656 -49.827)" fill="#eb996e"/>
        <path id="Trazado_231300" data-name="Trazado 231300" d="M139.083,125.286a3.9,3.9,0,0,0-.227-.664c-.182-.342-.382-.606-.339-.642s.3.18.5.557c.22.383.118.776.061.75" transform="translate(-56.048 -50.166)" fill="#eb996e"/>
        <path id="Trazado_231301" data-name="Trazado 231301" d="M148.384,163.946l1.843,2.308,9.558-11.486L147.269,138.3l-6.189,4.855Z" transform="translate(-57.087 -55.963)" fill="#373f51"/>
        <path id="Trazado_231302" data-name="Trazado 231302" d="M224.8,367.839l.792,18.661,10.076-.226-.754-18.7Z" transform="translate(-90.962 -148.737)" fill="#373f51"/>
        <path id="Trazado_231303" data-name="Trazado 231303" d="M233.739,385.6c.084,0-.072-4.091-.349-9.126s-.57-9.115-.654-9.11.072,4.09.349,9.127.57,9.114.654,9.11" transform="translate(-94.166 -148.65)" fill="#263238"/>
        <path id="Trazado_231304" data-name="Trazado 231304" d="M226.034,397.025l10.078-.259.053,1.32-10.076.226Z" transform="translate(-91.463 -160.548)" fill="#263238"/>
        <path id="Trazado_231305" data-name="Trazado 231305" d="M235.888,387.063c.015-.012-.079-.157-.277-.4a7,7,0,0,0-.942-.917,6.811,6.811,0,0,0-1.677-1.015,5.365,5.365,0,0,0-6.217,1.454,4.635,4.635,0,0,0-.686,1.129,1.3,1.3,0,0,0-.139.463,10.522,10.522,0,0,1,.988-1.451,5.367,5.367,0,0,1,3.7-1.724,6.172,6.172,0,0,1,3.9,1.315c.874.648,1.31,1.18,1.35,1.143" transform="translate(-91.428 -155.501)" fill="#263238"/>
        <g id="Grupo_180157" data-name="Grupo 180157" transform="translate(134.077 224.161)" opacity="0.3">
          <g id="Grupo_180156" data-name="Grupo 180156">
            <g id="Grupo_180155" data-name="Grupo 180155" clip-path="url(#clip-path-9)">
              <path id="Trazado_231306" data-name="Trazado 231306" d="M235.289,376.515l.083,2.056-10.1.18-.065-1.548Z" transform="translate(-225.205 -376.515)"/>
            </g>
          </g>
        </g>
        <path id="Trazado_231307" data-name="Trazado 231307" d="M177.479,369.819l.492,11.358s-11.38,4.315-11.493,6.423l22.057-.163-.04-17.729Z" transform="translate(-67.364 -149.6)" fill="#373f51"/>
        <path id="Trazado_231308" data-name="Trazado 231308" d="M196.247,387.328a.907.907,0,0,1,.635,1.031.872.872,0,0,1-1.016.638.957.957,0,0,1-.667-1.095.9.9,0,0,1,1.131-.547" transform="translate(-78.973 -156.715)" fill="#e0e0e0"/>
        <path id="Trazado_231309" data-name="Trazado 231309" d="M188.42,398.279l0-1.775-21.341.806s-.986.438-.869,1.133Z" transform="translate(-67.25 -160.442)" fill="#263238"/>
        <path id="Trazado_231310" data-name="Trazado 231310" d="M185.446,389.026c0,.108.547.154,1.084.5s.824.8.923.755c.1-.021-.067-.669-.723-1.075s-1.308-.277-1.284-.178" transform="translate(-75.039 -157.375)" fill="#263238"/>
        <path id="Trazado_231311" data-name="Trazado 231311" d="M181.544,390.713c-.024.105.447.286.819.742s.482.941.59.935c.1.016.173-.62-.3-1.178s-1.106-.6-1.108-.5" transform="translate(-73.46 -158.081)" fill="#263238"/>
        <path id="Trazado_231312" data-name="Trazado 231312" d="M178.757,394.176c.1.023.246-.521-.037-1.113s-.792-.825-.838-.734c-.061.09.271.406.5.9s.271.941.379.951" transform="translate(-71.976 -158.745)" fill="#263238"/>
        <path id="Trazado_231313" data-name="Trazado 231313" d="M185.739,384.426c.046.1.543-.055,1.156-.018s1.093.227,1.149.133-.407-.477-1.13-.51-1.229.31-1.175.395" transform="translate(-75.157 -155.394)" fill="#263238"/>
        <path id="Trazado_231314" data-name="Trazado 231314" d="M185.048,379.36a2.086,2.086,0,0,0,1.113-.014,5.02,5.02,0,0,0,1.161-.366,5.271,5.271,0,0,0,.636-.344,1.368,1.368,0,0,0,.334-.264.473.473,0,0,0,.046-.578.6.6,0,0,0-.477-.245,1.448,1.448,0,0,0-.417.061,4.034,4.034,0,0,0-.69.242,3.943,3.943,0,0,0-1.021.681c-.511.481-.685.888-.647.909s.3-.306.819-.7a4.435,4.435,0,0,1,.988-.566,4.166,4.166,0,0,1,.637-.2c.235-.064.435-.067.5.037.023.04.026.056-.023.125a1.118,1.118,0,0,1-.246.193,5.742,5.742,0,0,1-.585.34,6.147,6.147,0,0,1-1.072.42,7.6,7.6,0,0,0-1.051.274" transform="translate(-74.878 -152.773)" fill="#263238"/>
        <path id="Trazado_231315" data-name="Trazado 231315" d="M184.283,378.455a1.771,1.771,0,0,0,.285-1.077,3.619,3.619,0,0,0-.16-1.216,3.663,3.663,0,0,0-.289-.674.919.919,0,0,0-.714-.556.519.519,0,0,0-.462.314,1.489,1.489,0,0,0-.111.408,2.465,2.465,0,0,0,0,.75,2.554,2.554,0,0,0,.483,1.145c.439.573.892.7.9.662.036-.055-.344-.261-.68-.812a2.566,2.566,0,0,1-.36-1.043,2.3,2.3,0,0,1,.015-.643c.033-.236.12-.427.209-.4.11,0,.3.174.392.361a3.658,3.658,0,0,1,.28.6,3.988,3.988,0,0,1,.224,1.108c.035.653-.077,1.059-.018,1.075" transform="translate(-73.971 -151.713)" fill="#263238"/>
        <g id="Grupo_180160" data-name="Grupo 180160" transform="translate(110.514 226.919)" opacity="0.3">
          <g id="Grupo_180159" data-name="Grupo 180159">
            <g id="Grupo_180158" data-name="Grupo 180158" clip-path="url(#clip-path-10)">
              <path id="Trazado_231316" data-name="Trazado 231316" d="M196.286,381.148l-.022,2.52H185.627v-2.286Z" transform="translate(-185.626 -381.148)"/>
            </g>
          </g>
        </g>
        <path id="Trazado_231317" data-name="Trazado 231317" d="M261.141,62.4l1.583,6.118s.589,3.383-.992,3.38c-1.392,0-1.525-1.816-1.525-1.816s.691-3.7-1.131-3.5c-.253.029-.918,2.582-1.241,3.884a1.913,1.913,0,0,0,.191,1.4l2.626,4.646a5.48,5.48,0,0,0,2.059,2.066l1.316.75.17,2.762,7.39.115L269.335,73.6,268.4,68.34a1.754,1.754,0,0,0-1.323-.982l-.693-.1-.264-.664a1.167,1.167,0,0,0-.937-.726l-.432-.054-.607-1.494c-.2-.495-1.649-3.752-2.183-3.745a1.359,1.359,0,0,0-.815,1.834" transform="translate(-104.308 -24.509)" fill="#ffbe9d"/>
        <path id="Trazado_231318" data-name="Trazado 231318" d="M271.07,73.211a5.275,5.275,0,0,0-.141-.672,2.536,2.536,0,0,0-1-1.28,7.4,7.4,0,0,1-.555-1.6,2.152,2.152,0,0,1-.077-.694c.02,0,.05.262.163.673a9.983,9.983,0,0,0,.565,1.546c.111.1.241.189.361.3a2.281,2.281,0,0,1,.3.342,2.246,2.246,0,0,1,.331.692,1.868,1.868,0,0,1,.074.51.48.48,0,0,1-.018.188" transform="translate(-108.965 -27.905)" fill="#eb996e"/>
        <path id="Trazado_231319" data-name="Trazado 231319" d="M273.282,73.507a1.05,1.05,0,0,0-.109-.338.872.872,0,0,0-.686-.446l-.038,0-.014-.037-.042-.116a7.96,7.96,0,0,1-.422-1.337,7.949,7.949,0,0,1,.538,1.294l.042.116-.051-.04a.913.913,0,0,1,.747.532c.1.223.052.383.034.374" transform="translate(-110.05 -28.823)" fill="#eb996e"/>
        <path id="Trazado_231320" data-name="Trazado 231320" d="M197.787,103.347l13.4-.172-1.5-11.409s.916-.2.977-5.16.289-13.4.289-13.4a17.253,17.253,0,0,0-17.335,2.179l-.735.566Z" transform="translate(-78.05 -29.056)" fill="#ffbe9d"/>
        <path id="Trazado_231321" data-name="Trazado 231321" d="M193.253,88.921c-.085-.036-3.411-1.009-3.3,2.385s3.494,2.584,3.5,2.487-.194-4.872-.194-4.872" transform="translate(-76.861 -35.918)" fill="#ffbe9d"/>
        <path id="Trazado_231322" data-name="Trazado 231322" d="M221.935,87.76c.085-.036,3.11-.853,3,2.542s-3.493,2.584-3.5,2.487.495-5.028.495-5.028" transform="translate(-89.604 -35.466)" fill="#ffbe9d"/>
        <path id="Trazado_231323" data-name="Trazado 231323" d="M193.652,81.374c.507,2.843.407,4.338.876,6.237a10,10,0,0,0,4.943,6.811c2.708,1.5,6.37,1.474,8.7-.569a7.943,7.943,0,0,0,3-5.155c.239-2.136.479-5.916.495-8.064.027-3.875.287-7.579.287-7.579l-11.069-2-6.3,3.745Z" transform="translate(-78.36 -28.751)" fill="#263238"/>
        <path id="Trazado_231324" data-name="Trazado 231324" d="M210.25,112.89a4.95,4.95,0,0,1-3.8-.419c.032-.085.851.171,1.89.282s1.893.047,1.906.137" transform="translate(-83.54 -45.504)" fill="#263238"/>
        <path id="Trazado_231325" data-name="Trazado 231325" d="M193.541,83.052c-.324-2.914-.535-6.246-.99-9.319a19.638,19.638,0,0,1-.479-3.976,9.634,9.634,0,0,1,.728-3.413,4.8,4.8,0,0,1,7.47-1.5,3.6,3.6,0,0,1,6.552,1.516,2.5,2.5,0,0,1,4.118,2.5,2.438,2.438,0,0,1,1.645,3.733c-.513.789-1.438,1.224-2,1.977a2.832,2.832,0,0,0-.17,3.063" transform="translate(-77.714 -25.594)" fill="#263238"/>
        <path id="Trazado_231326" data-name="Trazado 231326" d="M210.642,78.045a.749.749,0,0,1-.123.319,2.237,2.237,0,0,1-.644.723,2.314,2.314,0,0,1-1.44.456,2.47,2.47,0,0,1-1.774-.832l.234-.064a2.306,2.306,0,0,1-1.481,1.7,2.643,2.643,0,0,1-2.5-.314,3.746,3.746,0,0,1-1.4-1.84l.268.03a3.119,3.119,0,0,1-2.507,1.374,2.88,2.88,0,0,1-2.109-.861,2.927,2.927,0,0,1-.763-1.3,1.262,1.262,0,0,1-.065-.538c.023,0,.047.186.163.507a3.068,3.068,0,0,0,.8,1.191,2.718,2.718,0,0,0,1.967.74,2.876,2.876,0,0,0,2.262-1.276l.164-.254.1.285a3.489,3.489,0,0,0,1.294,1.684,2.354,2.354,0,0,0,2.214.293,2.044,2.044,0,0,0,1.325-1.466l.05-.282.184.218a2.264,2.264,0,0,0,1.579.786,2.206,2.206,0,0,0,1.341-.366,3.166,3.166,0,0,0,.856-.913" transform="translate(-79.445 -31.116)" fill="#455a64"/>
        <path id="Trazado_231327" data-name="Trazado 231327" d="M214.758,73.248a3.076,3.076,0,0,0-.473-1.235,2.023,2.023,0,0,0-1.164-.783,2.1,2.1,0,0,0-1.688.323l-.269.193.028-.332a2.557,2.557,0,0,0-.113-.975,2.661,2.661,0,0,0-1.362-1.584,2.6,2.6,0,0,0-1.726-.152,3.635,3.635,0,0,0-1.439.811c-.013-.01.063-.161.276-.377a2.7,2.7,0,0,1,1.106-.645,2.743,2.743,0,0,1,1.9.1,2.888,2.888,0,0,1,1.538,1.749,2.792,2.792,0,0,1,.121,1.1l-.241-.139a2.336,2.336,0,0,1,1.932-.334,2.168,2.168,0,0,1,1.262.929,2.124,2.124,0,0,1,.339.977c.017.242-.015.373-.03.371" transform="translate(-83.58 -27.665)" fill="#455a64"/>
        <path id="Trazado_231328" data-name="Trazado 231328" d="M207.556,74.949c-.043-.018.009-.194-.009-.466a2.21,2.21,0,0,0-.347-1,10.635,10.635,0,0,0-.639-.9.326.326,0,0,0-.354-.07c-.017-.006-.018-.076.073-.136a.381.381,0,0,1,.416.034,2.453,2.453,0,0,1,.382.387,3.927,3.927,0,0,1,.387.524,1.858,1.858,0,0,1,.3,1.17c-.042.32-.177.478-.21.459" transform="translate(-83.437 -29.267)" fill="#455a64"/>
        <path id="Trazado_231329" data-name="Trazado 231329" d="M197.443,68.639c-.035-.013,0-.264.207-.619a1.653,1.653,0,0,1,.5-.532,1.32,1.32,0,0,1,.9-.2,2.158,2.158,0,0,1,1.344.842c.248.314.36.529.329.555s-.212-.142-.49-.405a2.319,2.319,0,0,0-1.223-.684,1.3,1.3,0,0,0-1.185.547c-.233.291-.342.511-.386.493" transform="translate(-79.889 -27.224)" fill="#455a64"/>
        <path id="Trazado_231330" data-name="Trazado 231330" d="M199.25,90.616a7.541,7.541,0,0,1-1.579-4.591c.091-.011.265,1.066.7,2.325s.955,2.218.876,2.265" transform="translate(-79.973 -34.809)" fill="#455a64"/>
        <path id="Trazado_231331" data-name="Trazado 231331" d="M201.993,92.9a6.84,6.84,0,0,1-1.225-3.242,6.315,6.315,0,0,1,.694,1.59,6.354,6.354,0,0,1,.531,1.652" transform="translate(-81.23 -36.279)" fill="#455a64"/>
        <path id="Trazado_231332" data-name="Trazado 231332" d="M217.095,95.491a6.483,6.483,0,0,1-2.069,5.472,18.773,18.773,0,0,0,1.4-2.6,18.75,18.75,0,0,0,.672-2.873" transform="translate(-87.007 -38.64)" fill="#455a64"/>
        <path id="Trazado_231333" data-name="Trazado 231333" d="M220.363,91.333a5.232,5.232,0,0,1-.933,5.125,15,15,0,0,0,.844-2.494,15,15,0,0,0,.089-2.631" transform="translate(-88.788 -36.957)" fill="#455a64"/>
        <path id="Trazado_231334" data-name="Trazado 231334" d="M196.994,233.53l3.26,31.413,2.339,47.306h12.484l.338-100.684-35.741,2.549-7.406,52.826,6.414,46.235h13.7l-3.207-43.962Z" transform="translate(-69.706 -85.608)" fill="#263238"/>
        <path id="Trazado_231335" data-name="Trazado 231335" d="M210.357,248.457a37.593,37.593,0,0,1-5.064,4.559,37.489,37.489,0,0,1,5.064-4.559" transform="translate(-83.069 -100.535)" fill="#455a64"/>
        <path id="Trazado_231336" data-name="Trazado 231336" d="M213.714,241.925a35.441,35.441,0,0,1,.066-4.032,35.353,35.353,0,0,1,.233-4.027,36.022,36.022,0,0,1-.3,8.059" transform="translate(-86.462 -94.632)" fill="#455a64"/>
        <path id="Trazado_231337" data-name="Trazado 231337" d="M220.671,227.347a.883.883,0,0,1,.2-.022l.617-.037,2.368-.115,8.463-.354.145-.006v.146c0,2.64.01,5.629.015,8.786v.274l-.1.039-5.505,2.206-.052.021-.052-.018-4.868-1.691-.076-.026-.01-.079c-.356-2.741-.653-5.025-.865-6.664-.093-.764-.168-1.376-.223-1.833a5.44,5.44,0,0,1-.06-.627,1.026,1.026,0,0,1,.039.179c.023.136.051.3.084.5l.293,1.855c.243,1.613.582,3.861.99,6.56l-.086-.1,4.88,1.656-.1,0,5.5-2.219-.1.144v-.17c.005-3.157.011-6.146.015-8.786l.145.139-8.371.208-2.405.043-.647.006a1.641,1.641,0,0,1-.235-.008" transform="translate(-89.292 -91.778)" fill="#455a64"/>
        <path id="Trazado_231338" data-name="Trazado 231338" d="M190.16,227.768a.7.7,0,0,1,.18-.018l.555-.024,2.141-.067,7.72-.179.142,0,0,.143c-.084,2.608-.18,5.614-.283,8.814l0,.08-.068.044-.893.583-4.526,2.951-.079.052-.08-.049-5.1-3.106-.065-.039,0-.074c.1-2.738.176-5.019.233-6.656.033-.763.06-1.374.079-1.829a4.94,4.94,0,0,1,.045-.625,1.014,1.014,0,0,1,.01.18c0,.136,0,.3,0,.5,0,.463-.008,1.084-.013,1.859-.024,1.618-.058,3.872-.1,6.579L190,236.77l5.119,3.071-.159,0,4.52-2.961.894-.583-.07.124c.117-3.2.227-6.205.322-8.813l.137.141-7.637.042-2.172,0-.582-.008a1.177,1.177,0,0,1-.21-.013" transform="translate(-76.801 -92.047)" fill="#455a64"/>
        <path id="Trazado_231339" data-name="Trazado 231339" d="M230.491,250.852a8.727,8.727,0,0,1-1.693-.053c-1.042-.077-2.478-.22-4.059-.424s-3.006-.435-4.033-.626a8.688,8.688,0,0,1-1.65-.381,9.723,9.723,0,0,1,1.684.164l4.039.535,4.041.513a9.669,9.669,0,0,1,1.671.272" transform="translate(-88.64 -100.9)" fill="#455a64"/>
        <path id="Trazado_231340" data-name="Trazado 231340" d="M232.027,306.071c.013.006-.051.18-.3.4a1.978,1.978,0,0,1-1.277.433,3.017,3.017,0,0,1-1.865-.715,12.887,12.887,0,0,1-1.7-1.719,23.494,23.494,0,0,1-2.528-3.557,7.538,7.538,0,0,1-.789-1.625,16.7,16.7,0,0,1,.976,1.512,31.3,31.3,0,0,0,2.576,3.469,14.283,14.283,0,0,0,1.641,1.7,2.888,2.888,0,0,0,1.692.72,1.993,1.993,0,0,0,1.2-.31c.248-.17.346-.317.369-.3" transform="translate(-90.466 -121.103)" fill="#455a64"/>
        <path id="Trazado_231341" data-name="Trazado 231341" d="M190.986,310.216a.849.849,0,0,1-.168.4,2.565,2.565,0,0,1-.863.82,3.306,3.306,0,0,1-1.713.45,4.053,4.053,0,0,1-2.064-.655,7.3,7.3,0,0,1-2.482-2.959,6.556,6.556,0,0,1-.617-1.471,10.586,10.586,0,0,1,.81,1.366,7.831,7.831,0,0,0,2.455,2.8,3.922,3.922,0,0,0,1.906.632,3.243,3.243,0,0,0,1.6-.355,3.568,3.568,0,0,0,1.138-1.031" transform="translate(-74.08 -124.145)" fill="#455a64"/>
        <path id="Trazado_231342" data-name="Trazado 231342" d="M192.441,304.571a3.082,3.082,0,0,1-1.026.6,8.1,8.1,0,0,1-5.639.233,3.053,3.053,0,0,1-1.071-.51,10.354,10.354,0,0,0,7.735-.319" transform="translate(-74.74 -123.24)" fill="#455a64"/>
        <path id="Trazado_231343" data-name="Trazado 231343" d="M249.559,107.733h-18.2s-2.473-1.424-3.669-1.185a4.734,4.734,0,0,0-2.233,1.515l2.408,20.056,5.9-4.363,21.942-2.286a6.98,6.98,0,0,0,6.865-7.808L258.507,92.1l-8.326.276-.329,5.474Z" transform="translate(-91.229 -37.266)" fill="#373f51"/>
        <path id="Trazado_231344" data-name="Trazado 231344" d="M169.983,126.853a11.152,11.152,0,0,0-4.4,5.108c-1.062,2.548-8.31,15.273-12.13,21.931a6.293,6.293,0,0,0,.911,7.482c2.322,2.427,5.1,1.481,8.483.379,1.518-.494,8.35-10.98,8.35-10.98Z" transform="translate(-61.758 -51.33)" fill="#373f51"/>
        <path id="Trazado_231345" data-name="Trazado 231345" d="M184.264,168.64l-4.172-35.908,1.006-9.569,10.624-4.528,13.76-.9,13.1,1.443-3.065,36.83,3.353,20.771-36.7,1.659Z" transform="translate(-72.873 -47.64)" fill="#373f51"/>
        <path id="Trazado_231346" data-name="Trazado 231346" d="M184.242,178.679c-.085.01-1.084-7.987-2.231-17.859s-2.009-17.887-1.924-17.9,1.084,7.986,2.231,17.861,2.008,17.885,1.923,17.895" transform="translate(-72.869 -57.833)" fill="#263238"/>
        <path id="Trazado_231347" data-name="Trazado 231347" d="M242.319,133.692a1.293,1.293,0,0,1-.008.324c-.022.246-.049.551-.083.922-.086.844-.2,1.99-.344,3.386-.291,2.9-.686,6.829-1.122,11.171-.416,4.365-.754,8.32-.967,11.185-.1,1.4-.183,2.548-.245,3.394l-.074.922a1.292,1.292,0,0,1-.046.321,1.26,1.26,0,0,1-.016-.323c0-.246.01-.552.016-.926.016-.8.071-1.966.146-3.4.158-2.871.462-6.832.878-11.2s.862-8.313,1.212-11.166c.177-1.426.327-2.58.442-3.376.057-.369.1-.672.141-.916a1.273,1.273,0,0,1,.07-.316" transform="translate(-96.877 -54.097)" fill="#263238"/>
        <path id="Trazado_231348" data-name="Trazado 231348" d="M219.289,193.737a5.221,5.221,0,0,1-.581.71,8.2,8.2,0,0,1-.745.778,13.66,13.66,0,0,1-1.06.957,15.272,15.272,0,0,1-1.38,1.047c-.5.372-1.083.7-1.686,1.056a20.961,20.961,0,0,1-8.679,2.59c-.7.031-1.366.077-1.99.04a15.133,15.133,0,0,1-1.728-.119,13.553,13.553,0,0,1-1.411-.219,8.186,8.186,0,0,1-1.05-.242,5.073,5.073,0,0,1-.875-.276c.017-.068,1.27.323,3.358.518a16.172,16.172,0,0,0,1.71.081c.616.025,1.272-.03,1.963-.068a21.735,21.735,0,0,0,8.564-2.556c.6-.346,1.178-.66,1.679-1.019a16.158,16.158,0,0,0,1.387-1c1.639-1.308,2.473-2.322,2.525-2.274" transform="translate(-80.161 -78.394)" fill="#263238"/>
        <g id="Grupo_180163" data-name="Grupo 180163" transform="translate(118.134 112.895)" opacity="0.3">
          <g id="Grupo_180162" data-name="Grupo 180162">
            <g id="Grupo_180161" data-name="Grupo 180161" clip-path="url(#clip-path-11)">
              <path id="Trazado_231349" data-name="Trazado 231349" d="M200.018,198.777a1.823,1.823,0,0,1-1.2-2.918,3.208,3.208,0,0,1,2.805-.673,14.246,14.246,0,0,0,2.964.4,6.733,6.733,0,0,0,4.134-2.426,13.012,13.012,0,0,1,3.7-3.176c1.49-.676,3.562-.439,4.346,1a3.114,3.114,0,0,1-.178,2.98,6.952,6.952,0,0,1-2.209,2.165,18.069,18.069,0,0,1-14.362,2.648" transform="translate(-198.425 -189.625)"/>
            </g>
          </g>
        </g>
        <path id="Trazado_231350" data-name="Trazado 231350" d="M237.553,119.586a5.647,5.647,0,0,1,3.438,4.765,8.642,8.642,0,0,0-3.438-4.765" transform="translate(-96.123 -48.387)" fill="#263238"/>
        <path id="Trazado_231351" data-name="Trazado 231351" d="M212.954,118.684a2.151,2.151,0,0,0-.3-.181,1.547,1.547,0,0,0-.988-.061,2.753,2.753,0,0,0-1.353.806,15.163,15.163,0,0,1-1.5,1.525,4.425,4.425,0,0,1-2.465.758c-.937.046-1.93-.052-2.974-.079a58.62,58.62,0,0,0-6.8.148,43.629,43.629,0,0,0-12.027,2.654,37.377,37.377,0,0,0-3.422,1.519l-.9.475c-.207.107-.319.158-.319.158s.1-.065.307-.18l.892-.5a34.492,34.492,0,0,1,3.412-1.559,42.773,42.773,0,0,1,12.049-2.7,57.482,57.482,0,0,1,6.812-.139c1.047.03,2.04.132,2.965.09a4.343,4.343,0,0,0,2.418-.726,15.684,15.684,0,0,0,1.5-1.5,2.782,2.782,0,0,1,1.391-.8,1.547,1.547,0,0,1,1.009.085.957.957,0,0,1,.292.2" transform="translate(-72.796 -47.89)" fill="#fafafa"/>
        <path id="Trazado_231352" data-name="Trazado 231352" d="M217.574,131.144c0,.009-.126-.038-.369-.08a3.829,3.829,0,0,0-1.075-.035,6,6,0,0,0-1.646.436,19.871,19.871,0,0,0-2.017,1.038,11.228,11.228,0,0,1-2.535,1.09,16.155,16.155,0,0,1-3.127.506c-2.227.139-4.674.173-7.237.372-5.129.353-9.745.975-13.069,1.517-1.663.266-3,.519-3.929.687l-1.066.2c-.244.045-.373.062-.373.062s.126-.034.369-.086l1.062-.225c.924-.183,2.262-.449,3.924-.727,3.322-.564,7.941-1.2,13.075-1.553,2.564-.2,5.018-.23,7.237-.363a16.176,16.176,0,0,0,3.108-.491,11.23,11.23,0,0,0,2.52-1.069,19.562,19.562,0,0,1,2.033-1.025,5.9,5.9,0,0,1,1.667-.419,3.657,3.657,0,0,1,1.085.058,1.913,1.913,0,0,1,.364.1" transform="translate(-73.293 -52.995)" fill="#fafafa"/>
        <path id="Trazado_231353" data-name="Trazado 231353" d="M218.09,148.274s-.462.215-1.319.552-2.116.783-3.7,1.232a55.644,55.644,0,0,1-12.708,1.9,116.6,116.6,0,0,1-12.864-.306l-3.888-.3-1.056-.093c-.242-.023-.368-.04-.368-.04s.128,0,.37.015l1.058.07,3.89.263a123.535,123.535,0,0,0,12.853.269,57.092,57.092,0,0,0,12.69-1.859c1.585-.438,2.847-.867,3.708-1.192.434-.154.762-.3.99-.38s.347-.127.347-.127" transform="translate(-73.72 -59.998)" fill="#fafafa"/>
        <path id="Trazado_231354" data-name="Trazado 231354" d="M217.487,167.9s-.432.189-1.237.465a24.643,24.643,0,0,1-3.491.892,35.535,35.535,0,0,1-5.315.544c-2.012.069-4.225,0-6.542-.135-4.631-.305-8.822-.634-11.863-.526-1.518.039-2.745.137-3.589.237-.423.04-.748.1-.971.12s-.339.036-.339.036a31.041,31.041,0,0,1,4.9-.482c3.045-.131,7.245.185,11.873.491,2.314.138,4.523.207,6.53.144a36.431,36.431,0,0,0,5.3-.516,26.323,26.323,0,0,0,3.491-.852c.408-.119.713-.245.926-.313s.325-.106.325-.106" transform="translate(-74.511 -67.94)" fill="#fafafa"/>
        <path id="Trazado_231355" data-name="Trazado 231355" d="M217.02,183.091s-1.68.554-4.466,1.193c-1.391.324-3.063.644-4.93.932s-3.934.508-6.11.646-4.256.142-6.145.095-3.586-.177-5.007-.332c-2.842-.3-4.577-.646-4.577-.646s.111.008.319.036l.91.127c.789.118,1.936.258,3.356.4s3.116.249,5,.3c1.885.04,3.96.021,6.134-.1s4.234-.368,6.1-.635,3.536-.592,4.928-.9,2.515-.584,3.284-.8l.888-.236c.2-.053.313-.074.313-.074" transform="translate(-75.177 -74.086)" fill="#fafafa"/>
        <path id="Trazado_231356" data-name="Trazado 231356" d="M218.883,188.64s-.106.045-.311.117l-.9.324c-.776.287-1.885.736-3.238,1.335s-2.95,1.344-4.761,2.09a30.986,30.986,0,0,1-6.088,1.861,50.333,50.333,0,0,1-11.534.637c-1.479-.061-2.674-.139-3.5-.191l-.95-.067c-.217-.017-.331-.032-.331-.032s.115,0,.332.007l.952.044,3.5.152a51.855,51.855,0,0,0,11.507-.672,31.308,31.308,0,0,0,6.068-1.844c1.81-.738,3.409-1.48,4.769-2.064s2.474-1.027,3.256-1.3,1.223-.4,1.223-.4" transform="translate(-75.779 -76.332)" fill="#fafafa"/>
        <path id="Trazado_231357" data-name="Trazado 231357" d="M220.041,205.195s-.408.28-1.185.721a23.728,23.728,0,0,1-3.438,1.574,37.828,37.828,0,0,1-12.258,2.072c-4.878.088-9.28-.3-12.466-.433-1.594-.078-2.884-.124-3.776-.142l-1.027-.02c-.235-.005-.358-.014-.358-.014s.123-.008.358-.011l1.028,0c.893,0,2.184.036,3.779.1,3.189.112,7.591.485,12.46.4a38.5,38.5,0,0,0,12.23-2.031,25.019,25.019,0,0,0,3.445-1.534c.4-.2.688-.394.894-.505s.314-.173.314-.173" transform="translate(-75.075 -83.031)" fill="#fafafa"/>
        <path id="Trazado_231358" data-name="Trazado 231358" d="M252.658,134.108a.681.681,0,0,1,.032-.15l.113-.423c.1-.364.235-.9.373-1.562a24.023,24.023,0,0,0-.158-10.506c-.158-.659-.3-1.189-.42-1.55l-.125-.419a.687.687,0,0,1-.036-.149.729.729,0,0,1,.059.141c.046.127.094.263.148.412.13.358.29.885.46,1.544a22.74,22.74,0,0,1,.158,10.545c-.15.664-.293,1.2-.413,1.557-.049.151-.093.288-.135.417a.731.731,0,0,1-.055.142" transform="translate(-102.146 -48.294)" fill="#fafafa"/>
        <path id="Trazado_231359" data-name="Trazado 231359" d="M265.632,131.813a.558.558,0,0,1,0-.136c0-.122.01-.25.015-.389.02-.337.03-.826.023-1.428a22.081,22.081,0,0,0-2.078-9.114c-.255-.546-.476-.982-.641-1.276l-.182-.344a.6.6,0,0,1-.057-.124.532.532,0,0,1,.078.111c.064.1.131.214.2.333.177.288.411.719.677,1.263a20.72,20.72,0,0,1,2.087,9.151c0,.6-.029,1.095-.063,1.431-.014.139-.027.266-.039.388a.555.555,0,0,1-.022.135" transform="translate(-106.303 -48.153)" fill="#fafafa"/>
        <path id="Trazado_231360" data-name="Trazado 231360" d="M278.9,127.322a.843.843,0,0,1-.112-.119l-.3-.355c-.257-.313-.645-.753-1.139-1.281a28.692,28.692,0,0,0-9.133-6.539c-.66-.3-1.2-.523-1.579-.666l-.434-.171a.809.809,0,0,1-.149-.068.8.8,0,0,1,.157.044l.443.15c.385.129.932.342,1.6.631a27.078,27.078,0,0,1,9.163,6.56c.488.538.866.988,1.112,1.31l.285.37a.778.778,0,0,1,.092.135" transform="translate(-107.654 -47.797)" fill="#fafafa"/>
        <path id="Trazado_231361" data-name="Trazado 231361" d="M276.551,105.14a2.245,2.245,0,0,1-.379.007l-1.032-.018c-.871-.015-2.074-.026-3.4,0s-2.531.075-3.4.121l-1.031.054a2.166,2.166,0,0,1-.379.006,2.226,2.226,0,0,1,.375-.054c.242-.027.594-.059,1.029-.093.869-.068,2.073-.134,3.4-.158s2.536,0,3.407.04c.436.019.788.039,1.032.058a2.264,2.264,0,0,1,.377.041" transform="translate(-108.01 -42.484)" fill="#fafafa"/>
        <path id="Trazado_231362" data-name="Trazado 231362" d="M169.8,144.927a1.648,1.648,0,0,1,.224.236c.136.158.341.38.6.645a15.638,15.638,0,0,0,2.231,1.856,28.745,28.745,0,0,0,2.488,1.51l.775.423a1.606,1.606,0,0,1,.279.167,1.629,1.629,0,0,1-.3-.124c-.19-.087-.462-.219-.795-.389a22.552,22.552,0,0,1-2.517-1.486,13.633,13.633,0,0,1-2.224-1.9,8.626,8.626,0,0,1-.575-.675,1.658,1.658,0,0,1-.187-.266" transform="translate(-68.709 -58.643)" fill="#fafafa"/>
        <path id="Trazado_231363" data-name="Trazado 231363" d="M174.019,136.925c.018-.01.137.2.42.476a8.93,8.93,0,0,0,1.2.951c.5.335.968.613,1.316.8s.57.285.564.3a6.7,6.7,0,0,1-1.949-1,6.871,6.871,0,0,1-1.2-.993,1.414,1.414,0,0,1-.357-.537" transform="translate(-70.415 -55.406)" fill="#fafafa"/>
        <path id="Trazado_231364" data-name="Trazado 231364" d="M174.367,164.521a.659.659,0,0,1-.13-.058l-.362-.189c-.314-.166-.758-.423-1.29-.769a26.639,26.639,0,0,1-3.878-3.076,24.656,24.656,0,0,1-3.233-3.748,14.916,14.916,0,0,1-.8-1.269l-.2-.358a.646.646,0,0,1-.061-.129.6.6,0,0,1,.082.117l.216.346c.183.3.462.732.832,1.244a26.789,26.789,0,0,0,3.247,3.709,29.1,29.1,0,0,0,3.84,3.092c.523.354.96.622,1.265.8l.35.209a.631.631,0,0,1,.118.08" transform="translate(-66.53 -62.689)" fill="#fafafa"/>
        <path id="Trazado_231365" data-name="Trazado 231365" d="M153.231,170.671a2.94,2.94,0,0,1-.11-.68,11.256,11.256,0,0,1-.04-1.885,12.129,12.129,0,0,1,1.975-5.852c1.28-2.047,2.453-3.892,3.316-5.218l1.035-1.562a2.973,2.973,0,0,1,.415-.55,2.924,2.924,0,0,1-.313.615l-.951,1.615c-.814,1.356-1.958,3.217-3.237,5.264a12.658,12.658,0,0,0-2.021,5.707c-.138,1.562,0,2.545-.068,2.548" transform="translate(-61.934 -62.689)" fill="#263238"/>
        <path id="Trazado_231366" data-name="Trazado 231366" d="M164.613,179.178a7.739,7.739,0,0,1-2.057-.306,9.643,9.643,0,0,1-6.817-6.817,7.753,7.753,0,0,1-.305-2.057.646.646,0,0,1,.024.143c.014.093.022.232.051.41a10.278,10.278,0,0,0,.315,1.481,9.8,9.8,0,0,0,6.756,6.757,10.217,10.217,0,0,0,1.481.316c.177.029.316.036.41.051a.653.653,0,0,1,.143.024" transform="translate(-62.895 -68.788)" fill="#fafafa"/>
        <path id="Trazado_231367" data-name="Trazado 231367" d="M155.671,151.281a.5.5,0,0,1-.1.073l-.31.189c-.271.157-.654.4-1.111.731a15.844,15.844,0,0,0-5.4,6.763c-.216.518-.373.945-.467,1.245-.041.121-.079.235-.115.343a.507.507,0,0,1-.048.118.471.471,0,0,1,.024-.124c.029-.111.06-.227.093-.351a11.755,11.755,0,0,1,.432-1.264,15.064,15.064,0,0,1,5.433-6.8,11.861,11.861,0,0,1,1.138-.7l.321-.168a.494.494,0,0,1,.116-.051" transform="translate(-59.933 -61.214)" fill="#fafafa"/>
        <path id="Trazado_231368" data-name="Trazado 231368" d="M150.429,143.879a1.991,1.991,0,0,1-.338.12c-.221.065-.535.178-.916.332a10.675,10.675,0,0,0-2.734,1.655,15.558,15.558,0,0,0-2.215,2.319c-.254.324-.455.59-.591.777a2,2,0,0,1-.224.28,1.941,1.941,0,0,1,.184-.308c.124-.2.315-.47.561-.8a13.936,13.936,0,0,1,2.205-2.362,9.914,9.914,0,0,1,2.781-1.64,7.915,7.915,0,0,1,.934-.3,2.007,2.007,0,0,1,.352-.074" transform="translate(-58.03 -58.219)" fill="#fafafa"/>
      </g>
    </g>
  </g>
</svg>
