<svg id="Grupo_180274" data-name="Grupo 180274" xmlns="http://www.w3.org/2000/svg" xmlns:xlink="http://www.w3.org/1999/xlink" width="252.275" height="274.677" viewBox="0 0 252.275 274.677">
  <defs>
    <clipPath id="clip-path">
      <rect id="Rectángulo_57890" data-name="Rectángulo 57890" width="252.275" height="274.677" fill="none"/>
    </clipPath>
    <clipPath id="clip-path-7">
      <rect id="Rectángulo_57867" data-name="Rectángulo 57867" width="8.016" height="6.823" fill="none"/>
    </clipPath>
    <clipPath id="clip-path-10">
      <rect id="Rectángulo_57871" data-name="Rectángulo 57871" width="5.689" height="9.047" fill="none"/>
    </clipPath>
    <clipPath id="clip-path-16">
      <rect id="Rectángulo_57881" data-name="Rectángulo 57881" width="34.496" height="17.387" fill="none"/>
    </clipPath>
    <clipPath id="clip-path-17">
      <rect id="Rectángulo_57882" data-name="Rectángulo 57882" width="24.24" height="29.698" fill="none"/>
    </clipPath>
    <clipPath id="clip-path-18">
      <rect id="Rectángulo_57883" data-name="Rectángulo 57883" width="3.629" height="17.139" fill="none"/>
    </clipPath>
    <clipPath id="clip-path-19">
      <rect id="Rectángulo_57884" data-name="Rectángulo 57884" width="34.035" height="37.334" fill="none"/>
    </clipPath>
    <clipPath id="clip-path-20">
      <rect id="Rectángulo_57885" data-name="Rectángulo 57885" width="34.115" height="12.688" fill="none"/>
    </clipPath>
    <clipPath id="clip-path-21">
      <rect id="Rectángulo_57886" data-name="Rectángulo 57886" width="35.452" height="2.991" fill="none"/>
    </clipPath>
  </defs>
  <g id="Grupo_179949" data-name="Grupo 179949" clip-path="url(#clip-path)">
    <path id="Trazado_230356" data-name="Trazado 230356" d="M360.431,12.523V62.309H288.925l-2.576-49.438Z" transform="translate(-110.263 -4.822)" fill="#e0e0e0"/>
    <rect id="Rectángulo_57818" data-name="Rectángulo 57818" width="71.506" height="49.333" transform="translate(176.085 8.049)" fill="#fff"/>
    <path id="Trazado_230357" data-name="Trazado 230357" d="M357.982,62.549H285.8V12.538h72.185Zm-71.506-.679H357.3V13.216H286.475Z" transform="translate(-110.051 -4.828)" fill="#e0e0e0"/>
    <rect id="Rectángulo_57819" data-name="Rectángulo 57819" width="56.017" height="37.074" transform="translate(183.83 14.179)" fill="#fff"/>
    <g id="Grupo_179890" data-name="Grupo 179890">
      <g id="Grupo_179889" data-name="Grupo 179889" clip-path="url(#clip-path)">
        <path id="Trazado_230358" data-name="Trazado 230358" d="M354.849,22.954s-.1.006-.276.01l-.8.009-3.077.02-11.544.044-40.324.079.162-.162c0,11.328.009,23.878.015,37.07v0l-.176-.176,56.017.036-.141.14c.031-11.282.057-20.533.074-26.975.016-3.22.028-5.735.036-7.459q.01-1.278.015-1.96c.006-.444.015-.68.015-.68s.01.216.015.651.009,1.093.015,1.934c.009,1.717.02,4.222.036,7.428.017,6.462.043,15.743.074,27.062v.141h-.141l-56.017.036h-.177v-.181c.006-13.192.01-25.742.015-37.07v-.162h.162l40.431.08,11.507.044,3.044.02.779.009c.173,0,.257.01.257.01" transform="translate(-115.002 -8.776)" fill="#e0e0e0"/>
        <path id="Trazado_230359" data-name="Trazado 230359" d="M286.347,12.862a6.04,6.04,0,0,1,1.229.8c.732.528,1.728,1.277,2.8,2.138s2.022,1.675,2.688,2.285a5.788,5.788,0,0,1,1.024,1.048c-.066.075-1.786-1.343-3.933-3.058a39,39,0,0,1-3.812-3.21" transform="translate(-110.262 -4.952)" fill="#e0e0e0"/>
        <path id="Trazado_230360" data-name="Trazado 230360" d="M397.78,13.087a34.65,34.65,0,0,1-3.762,3.2,34.624,34.624,0,0,1-3.982,2.926,34.7,34.7,0,0,1,3.763-3.2,34.7,34.7,0,0,1,3.982-2.926" transform="translate(-150.189 -5.038)" fill="#e0e0e0"/>
        <path id="Trazado_230361" data-name="Trazado 230361" d="M397.547,89.28l-7.973-6.462" transform="translate(-150.012 -31.89)" fill="#fff"/>
        <path id="Trazado_230362" data-name="Trazado 230362" d="M389.573,82.815a37.411,37.411,0,0,1,4.1,3.094,37.418,37.418,0,0,1,3.875,3.368,37.461,37.461,0,0,1-4.1-3.094,37.436,37.436,0,0,1-3.875-3.368" transform="translate(-150.011 -31.888)" fill="#e0e0e0"/>
        <path id="Trazado_230363" data-name="Trazado 230363" d="M286.347,89.516a33.914,33.914,0,0,1,3.723-3.169,33.96,33.96,0,0,1,3.943-2.893,33.936,33.936,0,0,1-3.723,3.17,34.035,34.035,0,0,1-3.942,2.893" transform="translate(-110.262 -32.134)" fill="#e0e0e0"/>
        <rect id="Rectángulo_57820" data-name="Rectángulo 57820" width="35.247" height="12.414" transform="translate(195.204 25.729)" fill="#e0e0e0"/>
        <rect id="Rectángulo_57821" data-name="Rectángulo 57821" width="66.467" height="59.465" transform="translate(0.178 6.459)" fill="#fafafa"/>
        <path id="Trazado_230364" data-name="Trazado 230364" d="M66.645,69.857s-.011-.381-.017-1.1-.01-1.8-.018-3.186c-.009-2.792-.022-6.873-.039-12.071-.019-10.39-.046-25.236-.077-43.1l.151.151L.184,10.569H.178l.178-.178C.347,32.026.34,52.384.334,69.857L.178,69.7l48.074.079,13.559.041,3.589.018.925.009c.208,0,.319.009.319.009s-.1.006-.3.009l-.909.009-3.559.018-13.524.041L.178,70.013H.022v-.157C.015,52.384.008,32.026,0,10.392v-.178H.184l66.461.027H66.8v.151c-.032,17.907-.059,32.787-.077,43.2-.017,5.184-.03,9.254-.039,12.037-.008,1.377-.014,2.435-.018,3.157s-.017,1.071-.017,1.071" transform="translate(0 -3.933)" fill="#e0e0e0"/>
        <path id="Trazado_230365" data-name="Trazado 230365" d="M31.948,27.574c0,.1-3.5.178-7.813.178s-7.814-.08-7.814-.178,3.5-.178,7.814-.178,7.813.08,7.813.178" transform="translate(-6.285 -10.549)" fill="#e0e0e0"/>
        <path id="Trazado_230366" data-name="Trazado 230366" d="M60.649,34.834c0,.1-9.611.178-21.465.178s-21.467-.079-21.467-.178,9.61-.177,21.467-.177,21.465.079,21.465.177" transform="translate(-6.822 -13.345)" fill="#e0e0e0"/>
        <rect id="Rectángulo_57822" data-name="Rectángulo 57822" width="2.8" height="2.8" transform="translate(10.151 29.052)" fill="#e0e0e0"/>
        <rect id="Rectángulo_57823" data-name="Rectángulo 57823" width="2.8" height="2.8" transform="translate(17.043 29.052)" fill="#e0e0e0"/>
        <rect id="Rectángulo_57824" data-name="Rectángulo 57824" width="2.8" height="2.8" transform="translate(24.064 28.925)" fill="#e0e0e0"/>
        <rect id="Rectángulo_57825" data-name="Rectángulo 57825" width="2.8" height="2.8" transform="translate(30.83 29.052)" fill="#e0e0e0"/>
        <rect id="Rectángulo_57826" data-name="Rectángulo 57826" width="2.8" height="2.8" transform="translate(37.722 29.052)" fill="#e0e0e0"/>
        <rect id="Rectángulo_57827" data-name="Rectángulo 57827" width="2.8" height="2.8" transform="translate(44.615 29.052)" fill="#e0e0e0"/>
        <rect id="Rectángulo_57828" data-name="Rectángulo 57828" width="2.8" height="2.8" transform="translate(51.508 29.052)" fill="#ebebeb"/>
        <rect id="Rectángulo_57829" data-name="Rectángulo 57829" width="2.8" height="2.8" transform="translate(10.151 35.005)" fill="#ebebeb"/>
        <rect id="Rectángulo_57830" data-name="Rectángulo 57830" width="2.8" height="2.8" transform="translate(17.043 35.005)" fill="#e0e0e0"/>
        <rect id="Rectángulo_57831" data-name="Rectángulo 57831" width="2.8" height="2.8" transform="translate(23.937 35.005)" fill="#ebebeb"/>
        <rect id="Rectángulo_57832" data-name="Rectángulo 57832" width="2.8" height="2.8" transform="translate(30.83 35.005)" fill="#e0e0e0"/>
        <rect id="Rectángulo_57833" data-name="Rectángulo 57833" width="2.8" height="2.8" transform="translate(37.722 35.005)" fill="#e0e0e0"/>
        <rect id="Rectángulo_57834" data-name="Rectángulo 57834" width="2.8" height="2.8" transform="translate(44.743 34.878)" fill="#e0e0e0"/>
        <rect id="Rectángulo_57835" data-name="Rectángulo 57835" width="2.8" height="2.8" transform="translate(51.508 35.005)" fill="#e0e0e0"/>
        <rect id="Rectángulo_57836" data-name="Rectángulo 57836" width="2.8" height="2.8" transform="translate(10.151 40.958)" fill="#e0e0e0"/>
        <rect id="Rectángulo_57837" data-name="Rectángulo 57837" width="2.8" height="2.8" transform="translate(17.171 40.832)" fill="#e0e0e0"/>
        <rect id="Rectángulo_57838" data-name="Rectángulo 57838" width="2.8" height="2.8" transform="translate(23.937 40.958)" fill="#e0e0e0"/>
        <rect id="Rectángulo_57839" data-name="Rectángulo 57839" width="2.8" height="2.8" transform="translate(30.83 40.958)" fill="#ebebeb"/>
        <rect id="Rectángulo_57840" data-name="Rectángulo 57840" width="2.8" height="2.8" transform="translate(37.722 40.958)" fill="#e0e0e0"/>
        <rect id="Rectángulo_57841" data-name="Rectángulo 57841" width="2.8" height="2.8" transform="translate(44.615 40.958)" fill="#e0e0e0"/>
        <rect id="Rectángulo_57842" data-name="Rectángulo 57842" width="2.8" height="2.8" transform="translate(51.508 40.958)" fill="#e0e0e0"/>
        <rect id="Rectángulo_57843" data-name="Rectángulo 57843" width="2.8" height="2.8" transform="translate(10.151 46.911)" fill="#e0e0e0"/>
        <rect id="Rectángulo_57844" data-name="Rectángulo 57844" width="2.8" height="2.8" transform="translate(17.043 46.911)" fill="#e0e0e0"/>
        <rect id="Rectángulo_57845" data-name="Rectángulo 57845" width="2.8" height="2.8" transform="translate(23.937 46.911)" fill="#e0e0e0"/>
        <rect id="Rectángulo_57846" data-name="Rectángulo 57846" width="2.8" height="2.8" transform="translate(30.956 46.785)" fill="#e0e0e0"/>
        <rect id="Rectángulo_57847" data-name="Rectángulo 57847" width="2.8" height="2.8" transform="translate(37.722 46.911)" fill="#e0e0e0"/>
        <rect id="Rectángulo_57848" data-name="Rectángulo 57848" width="2.8" height="2.8" transform="translate(44.615 46.911)" fill="#ebebeb"/>
        <rect id="Rectángulo_57849" data-name="Rectángulo 57849" width="2.8" height="2.8" transform="translate(51.508 46.911)" fill="#e0e0e0"/>
        <rect id="Rectángulo_57850" data-name="Rectángulo 57850" width="2.8" height="2.8" transform="translate(10.151 52.865)" fill="#e0e0e0"/>
        <rect id="Rectángulo_57851" data-name="Rectángulo 57851" width="2.8" height="2.8" transform="translate(17.043 52.865)" fill="#ebebeb"/>
        <rect id="Rectángulo_57852" data-name="Rectángulo 57852" width="2.8" height="2.8" transform="translate(23.937 52.865)" fill="#e0e0e0"/>
        <rect id="Rectángulo_57853" data-name="Rectángulo 57853" width="2.8" height="2.8" transform="translate(30.83 52.865)" fill="#e0e0e0"/>
        <rect id="Rectángulo_57854" data-name="Rectángulo 57854" width="2.8" height="2.8" transform="translate(37.722 52.865)" fill="#e0e0e0"/>
        <rect id="Rectángulo_57855" data-name="Rectángulo 57855" width="2.8" height="2.8" transform="translate(44.743 52.738)" fill="#e0e0e0"/>
        <rect id="Rectángulo_57856" data-name="Rectángulo 57856" width="2.8" height="2.8" transform="translate(51.508 52.865)" fill="#e0e0e0"/>
        <rect id="Rectángulo_57857" data-name="Rectángulo 57857" width="24.494" height="16.51" transform="translate(99.592 103.642) rotate(-20.625)" fill="#ebebeb"/>
        <path id="Trazado_230367" data-name="Trazado 230367" d="M185.113,154.769a1.714,1.714,0,0,1-.136.286l-.428.8-1.611,2.923-5.4,9.625-.045.079-.087-.028-.209-.068L166.57,164.9l-3.213-1.08-.87-.3a1.725,1.725,0,0,1-.3-.121,1.717,1.717,0,0,1,.312.078l.883.264,3.235,1.013,10.649,3.421.21.068-.131.051L182.8,158.7l1.671-2.888.464-.779a1.706,1.706,0,0,1,.175-.264" transform="translate(-62.454 -59.596)" fill="#e0e0e0"/>
        <path id="Trazado_230368" data-name="Trazado 230368" d="M171.645,186.234c-.058-.02.869-2.788,2.069-6.179s2.222-6.126,2.28-6.106-.868,2.787-2.07,6.18-2.221,6.125-2.279,6.105" transform="translate(-66.094 -66.982)" fill="#e0e0e0"/>
        <path id="Trazado_230369" data-name="Trazado 230369" d="M190.992,168.97c.032-.052,2.527,1.409,5.571,3.264s5.489,3.4,5.457,3.454-2.526-1.409-5.573-3.264-5.488-3.4-5.456-3.454" transform="translate(-73.545 -65.064)" fill="#e0e0e0"/>
        <path id="Trazado_230370" data-name="Trazado 230370" d="M244.159,73.466a7.678,7.678,0,0,1,1.876-.815l.386-1.857,3.137-.055.451,1.842a7.661,7.661,0,0,1,1.9.749L253.5,72.29l2.257,2.179-.983,1.62a7.666,7.666,0,0,1,.815,1.876l1.857.387.055,3.137-1.842.451a7.662,7.662,0,0,1-.749,1.9l1.039,1.586-2.179,2.257-1.62-.983a7.694,7.694,0,0,1-1.876.815l-.387,1.856-3.137.055-.451-1.842a7.662,7.662,0,0,1-1.9-.749l-1.586,1.039L240.551,85.7l.983-1.62a7.7,7.7,0,0,1-.815-1.876l-1.856-.386-.055-3.137,1.842-.451a7.683,7.683,0,0,1,.748-1.9l-1.039-1.585,2.179-2.257Zm1.672,4.179a3.366,3.366,0,1,0,4.759-.084,3.365,3.365,0,0,0-4.759.084" transform="translate(-91.957 -27.239)" fill="#e0e0e0"/>
        <path id="Trazado_230371" data-name="Trazado 230371" d="M249.6,81.287a2.545,2.545,0,0,1,.627-.55,3.352,3.352,0,0,1,2.2-.52,3.4,3.4,0,0,1,1.492.531,3.443,3.443,0,0,1,1.207,1.36,3.451,3.451,0,0,1,.325,1.981,3.435,3.435,0,0,1-2.841,2.943,3.446,3.446,0,0,1-1.992-.255,3.448,3.448,0,0,1-1.4-1.159,3.387,3.387,0,0,1-.582-1.473,3.345,3.345,0,0,1,.442-2.213,2.542,2.542,0,0,1,.528-.646c.018.015-.2.221-.462.683a3.353,3.353,0,0,0-.372,2.154,3.288,3.288,0,0,0,1.921,2.49,3.282,3.282,0,0,0,1.887.231,3.26,3.26,0,0,0,2.685-2.782,3.29,3.29,0,0,0-.3-1.877,3.288,3.288,0,0,0-2.555-1.832,3.357,3.357,0,0,0-2.141.447c-.453.275-.65.5-.666.486" transform="translate(-95.726 -30.882)" fill="#e0e0e0"/>
        <path id="Trazado_230372" data-name="Trazado 230372" d="M244.114,73.43a.772.772,0,0,1-.1-.055l-.311-.18-1.221-.721.038,0-2.166,2.27.006-.061,1.045,1.581.019.028-.017.031a7.666,7.666,0,0,0-.737,1.89l-.009.038-.037.009-1.841.457.052-.068c.02.988.041,2.036.062,3.137l-.06-.073,1.857.383.047.01.014.046A7.633,7.633,0,0,0,241.56,84l.026.043-.026.044-.98,1.622-.014-.106,2.26,2.176-.112-.01,1.585-1.041.046-.03.049.027a7.633,7.633,0,0,0,1.881.738l.055.014.014.055c.141.577.3,1.206.453,1.841L246.7,89.3l3.137-.056-.092.076c.122-.587.254-1.219.386-1.856l.012-.058.057-.015a7.636,7.636,0,0,0,1.85-.8h0l.05-.03.049.03,1.621.983-.119.015,2.18-2.257-.011.119-1.039-1.586-.031-.048.028-.05a7.6,7.6,0,0,0,.741-1.879l.014-.055.055-.014,1.842-.45-.07.091q-.026-1.606-.052-3.137l.071.085-1.857-.389L255.475,78l-.014-.05a7.639,7.639,0,0,0-.8-1.856l-.026-.043.026-.043.986-1.619.013.1L253.4,72.308l.092.009-1.588,1.035-.036.023-.036-.02a7.646,7.646,0,0,0-1.885-.748l-.038-.01-.009-.037-.445-1.843.057.043-3.137.041.042-.034-.4,1.855,0,.018-.018,0a7.969,7.969,0,0,0-1.434.552l-.338.176a.782.782,0,0,1-.113.057.966.966,0,0,1,.1-.071c.072-.044.18-.11.331-.191a7.458,7.458,0,0,1,1.432-.583l-.022.023.375-1.859.007-.034h.035l3.137-.069h.045l.011.044c.141.569.292,1.172.458,1.84l-.047-.047a7.769,7.769,0,0,1,1.922.75l-.072,0,1.583-1.043.049-.033.042.041,2.262,2.174.046.045-.033.055L254.8,76.1v-.086a7.76,7.76,0,0,1,.826,1.9l-.065-.061,1.857.384.069.014,0,.071q.028,1.529.058,3.137l0,.073-.072.018L255.636,82l.068-.068a7.761,7.761,0,0,1-.757,1.927l0-.1,1.039,1.585.042.064-.053.055-2.179,2.258-.053.055-.066-.04-1.621-.983h.1a7.8,7.8,0,0,1-1.9.824l.068-.073c-.133.638-.265,1.27-.387,1.856l-.016.075h-.076l-3.137.054h-.076l-.018-.073c-.155-.636-.309-1.266-.45-1.842l.068.068a7.8,7.8,0,0,1-1.925-.759l.095,0-1.587,1.037-.06.039-.051-.05-2.255-2.182-.049-.048.036-.058.985-1.62v.086a7.782,7.782,0,0,1-.821-1.9l.061.056-1.856-.39-.06-.012v-.061c-.017-1.1-.033-2.149-.048-3.137v-.055l.054-.013,1.843-.446-.046.047a7.747,7.747,0,0,1,.761-1.916l0,.058-1.032-1.59-.021-.033.027-.028,2.192-2.244.017-.018.021.013,1.194.743.307.195a1.021,1.021,0,0,1,.1.071" transform="translate(-91.913 -27.203)" fill="#e0e0e0"/>
      </g>
    </g>
    <g id="Grupo_179892" data-name="Grupo 179892">
      <g id="Grupo_179891" data-name="Grupo 179891" clip-path="url(#clip-path)">
        <path id="Trazado_230373" data-name="Trazado 230373" d="M252.754,446.318c0,.089-56.307.16-125.75.16-69.466,0-125.761-.071-125.761-.16s56.3-.16,125.761-.16c69.443,0,125.75.071,125.75.16" transform="translate(-0.479 -171.801)" fill="#263238"/>
      </g>
    </g>
    <g id="Grupo_179897" data-name="Grupo 179897">
      <g id="Grupo_179896" data-name="Grupo 179896" clip-path="url(#clip-path)">
        <path id="Trazado_230374" data-name="Trazado 230374" d="M321.336,203.631s7.264-8.36,10-16.72,1.439-7.4,1.439-7.4-3.7,8.121-6.51,12.043-7.811,9.678-7.811,9.678Z" transform="translate(-122.628 -69.111)" fill="#455a64"/>
        <path id="Trazado_230375" data-name="Trazado 230375" d="M318.53,181.514a.423.423,0,0,1,.788.269,109.714,109.714,0,0,0-1.363,14.3c.049,5.806,0,8.051,0,8.051H314.93s.537-12,1.22-15.662a25.127,25.127,0,0,1,2.38-6.955" transform="translate(-121.269 -69.812)" fill="#455a64"/>
        <path id="Trazado_230376" data-name="Trazado 230376" d="M314.694,202.507a32.017,32.017,0,0,1-2.488-9.026c-.249-2.137.195-5.026.855-8.88a23.884,23.884,0,0,0,.383-4.273.721.721,0,0,0-1.354-.338,19.149,19.149,0,0,0-1.689,4.269c-.732,3.805-1.561,5.708-.927,9.319a55.965,55.965,0,0,0,2.976,9.173Z" transform="translate(-119.081 -69.163)" fill="#455a64"/>
        <path id="Trazado_230377" data-name="Trazado 230377" d="M306.549,199.852s-7.975-17.139-8.528-19.681-2.432-8.4-2.653-8.07-.553,3.427.884,6.965,7.574,21.309,7.574,21.309h2.723" transform="translate(-113.66 -66.265)" fill="#455a64"/>
        <path id="Trazado_230378" data-name="Trazado 230378" d="M319.524,202.072a1.6,1.6,0,0,0,.224-.154c.141-.107.356-.258.617-.472a28.244,28.244,0,0,0,2.144-1.892,35.94,35.94,0,0,0,5.785-7.426,48.66,48.66,0,0,0,3.95-8.555c.4-1.138.694-2.07.884-2.717.1-.323.164-.576.212-.747a1.5,1.5,0,0,0,.061-.264,1.719,1.719,0,0,0-.094.255l-.242.737c-.209.641-.519,1.566-.933,2.7a51.738,51.738,0,0,1-3.983,8.509,37.54,37.54,0,0,1-5.724,7.427c-.854.848-1.584,1.495-2.1,1.927-.255.221-.462.38-.6.5a1.577,1.577,0,0,0-.2.181" transform="translate(-123.038 -69.252)" fill="#263238"/>
        <path id="Trazado_230379" data-name="Trazado 230379" d="M318.1,194.656a2.868,2.868,0,0,0,.071-.5c.038-.355.088-.817.147-1.374.127-1.159.323-2.759.605-4.515s.6-3.337.841-4.478c.118-.547.216-1,.292-1.35a3,3,0,0,0,.09-.5,2.834,2.834,0,0,0-.154.484c-.089.314-.207.772-.344,1.34-.274,1.136-.608,2.716-.891,4.477s-.461,3.366-.557,4.53c-.048.582-.079,1.054-.093,1.381a2.886,2.886,0,0,0-.006.508" transform="translate(-122.487 -70.058)" fill="#263238"/>
        <path id="Trazado_230380" data-name="Trazado 230380" d="M313.847,180.006a1.279,1.279,0,0,0-.094.218l-.239.636c-.105.277-.227.617-.342,1.021s-.272.856-.388,1.372c-.063.258-.129.526-.2.806s-.114.577-.175.882c-.13.608-.211,1.268-.308,1.96a29.29,29.29,0,0,0,.325,9.06c.146.684.273,1.336.447,1.934.082.3.151.592.238.868l.255.79c.152.507.338.948.485,1.341s.289.725.414.993l.284.617a1.29,1.29,0,0,0,.109.211,1.209,1.209,0,0,0-.078-.225l-.254-.629c-.116-.271-.252-.605-.386-1s-.315-.838-.459-1.344c-.078-.252-.159-.516-.244-.79s-.148-.567-.228-.866c-.167-.6-.288-1.246-.43-1.927a30.294,30.294,0,0,1-.323-9.012c.092-.689.167-1.347.29-1.954.058-.3.1-.6.165-.88s.127-.548.186-.8c.108-.516.253-.97.362-1.374s.218-.747.314-1.026.156-.482.208-.646a1.242,1.242,0,0,0,.062-.229" transform="translate(-120.102 -69.314)" fill="#263238"/>
        <path id="Trazado_230381" data-name="Trazado 230381" d="M295.641,172.67a.259.259,0,0,0,.006.077c.01.06.022.133.036.223.035.195.079.485.157.853.154.737.411,1.8.81,3.086s.942,2.8,1.588,4.455,1.392,3.467,2.1,5.392,1.273,3.8,1.793,5.5,1,3.231,1.478,4.493a28.845,28.845,0,0,0,1.259,2.931c.163.339.311.593.4.767l.112.2a.039.039,0,1,0,.015-.008l-.1-.2c-.085-.179-.222-.437-.376-.78-.321-.679-.753-1.678-1.206-2.943s-.933-2.792-1.441-4.5-1.063-3.584-1.783-5.511-1.462-3.735-2.113-5.39-1.208-3.155-1.619-4.434-.686-2.332-.86-3.064c-.088-.365-.143-.652-.189-.845-.02-.088-.038-.16-.052-.22a.272.272,0,0,0-.023-.074" transform="translate(-113.841 -66.49)" fill="#263238"/>
        <path id="Trazado_230382" data-name="Trazado 230382" d="M327.776,166.39a.686.686,0,0,1,1.13.7,19.634,19.634,0,0,1-1,2.577c-1.1,2.33-4.317,10.69-5.825,15.281s-3.632,13.156-3.632,13.156l-3.219-.522s2.945-14.073,5.823-19.144c2.313-4.075,4.625-9.963,6.724-12.048" transform="translate(-121.384 -63.995)" fill="#455a64"/>
        <path id="Trazado_230383" data-name="Trazado 230383" d="M323.213,201.362a2,2,0,0,0-.166.386c-.1.253-.225.621-.371,1.081-.3.918-.659,2.2-1.025,3.626s-.668,2.722-.88,3.663l-.242,1.116a1.972,1.972,0,0,0-.066.414,2.05,2.05,0,0,0,.131-.4c.079-.293.177-.663.295-1.1.247-.969.57-2.241.928-3.649.365-1.423.709-2.708.975-3.633.127-.437.234-.8.319-1.095a2.03,2.03,0,0,0,.1-.407" transform="translate(-123.398 -77.538)" fill="#263238"/>
        <path id="Trazado_230384" data-name="Trazado 230384" d="M317.832,197.933a.321.321,0,0,0,.018-.086c.009-.066.022-.15.036-.253.034-.223.064-.553.132-.975.118-.846.33-2.064.675-3.551a50.932,50.932,0,0,1,1.507-5.143c.66-1.908,1.489-3.968,2.427-6.1,1.894-4.261,3.786-8.04,5.03-10.834.629-1.394,1.115-2.532,1.435-3.325.164-.395.28-.706.362-.916l.09-.24a.312.312,0,0,0,.025-.084.371.371,0,0,0-.041.077l-.1.234-.392.9c-.339.785-.842,1.914-1.484,3.3-1.27,2.779-3.179,6.548-5.075,10.815-.94,2.136-1.766,4.2-2.42,6.119a48.373,48.373,0,0,0-1.476,5.167,35.975,35.975,0,0,0-.623,3.569c-.058.424-.078.756-.1.98-.008.1-.015.188-.02.256a.341.341,0,0,0,0,.087" transform="translate(-122.386 -64.085)" fill="#263238"/>
        <path id="Trazado_230385" data-name="Trazado 230385" d="M315.226,208.768a3.408,3.408,0,0,0,.109-.541l.25-1.479c.222-1.248.561-2.965,1.048-4.835s1.025-3.536,1.443-4.733l.5-1.414a3.506,3.506,0,0,0,.172-.525,3.4,3.4,0,0,0-.233.5c-.139.327-.333.8-.555,1.4a46.716,46.716,0,0,0-1.494,4.73,49.108,49.108,0,0,0-1,4.859c-.092.628-.162,1.137-.2,1.49a3.4,3.4,0,0,0-.043.55" transform="translate(-121.382 -75.181)" fill="#263238"/>
        <rect id="Rectángulo_57860" data-name="Rectángulo 57860" width="12.566" height="15.31" transform="translate(187.237 133.124)" fill="#b0c0d2"/>
        <rect id="Rectángulo_57863" data-name="Rectángulo 57863" width="11.148" height="15.31" transform="translate(191.245 133.124)" fill="#12263f"/>
      </g>
    </g>
    <rect id="Rectángulo_57865" data-name="Rectángulo 57865" width="24.494" height="16.51" transform="matrix(0.952, -0.305, 0.305, 0.952, 63.565, 14.48)" fill="#afafaf"/>
    <g id="Grupo_179899" data-name="Grupo 179899">
      <g id="Grupo_179898" data-name="Grupo 179898" clip-path="url(#clip-path)">
        <path id="Trazado_230386" data-name="Trazado 230386" d="M126.915,11.669a1.724,1.724,0,0,1-.15.279l-.467.777-1.755,2.839-5.874,9.343-.048.077-.085-.033-.206-.079-10.44-4.012-3.155-1.239-.854-.347a1.768,1.768,0,0,1-.292-.135,1.726,1.726,0,0,1,.308.093l.868.308,3.18,1.173,10.464,3.951.206.079-.133.044,5.93-9.307,1.815-2.8.5-.755a1.7,1.7,0,0,1,.188-.255" transform="translate(-39.888 -4.493)" fill="#263238"/>
        <path id="Trazado_230387" data-name="Trazado 230387" d="M111.774,41.838c-.057-.023,1.007-2.741,2.377-6.068s2.526-6.007,2.582-5.983-1.007,2.74-2.377,6.068-2.526,6.007-2.582,5.983" transform="translate(-43.04 -11.47)" fill="#263238"/>
        <path id="Trazado_230388" data-name="Trazado 230388" d="M132.346,25.428c.034-.051,2.453,1.534,5.4,3.539s5.311,3.672,5.277,3.723-2.453-1.534-5.4-3.54-5.311-3.672-5.276-3.723" transform="translate(-50.962 -9.791)" fill="#263238"/>
      </g>
    </g>
    <g id="Grupo_179907" data-name="Grupo 179907">
      <g id="Grupo_179906" data-name="Grupo 179906" clip-path="url(#clip-path)">
        <path id="Trazado_230389" data-name="Trazado 230389" d="M297.135,44.358,279.772,37a2.36,2.36,0,0,1-1.252-3.093L288.7,9.877a2.359,2.359,0,0,1,3.092-1.252l11.012,4.665,4.8,12.4-7.379,17.42a2.36,2.36,0,0,1-3.093,1.252" transform="translate(-107.177 -3.249)" fill="#afafaf"/>
        <path id="Trazado_230390" data-name="Trazado 230390" d="M316.227,16.328l-2.866,6.764a2.195,2.195,0,0,0,1.165,2.877l6.5,2.756Z" transform="translate(-120.598 -6.287)" fill="#636363"/>
        <g id="Grupo_179902" data-name="Grupo 179902" transform="translate(192.415 17.436)" opacity="0.2">
          <g id="Grupo_179901" data-name="Grupo 179901">
            <g id="Grupo_179900" data-name="Grupo 179900" clip-path="url(#clip-path-7)">
              <path id="Trazado_230391" data-name="Trazado 230391" d="M313.09,28.354a2.44,2.44,0,0,0,.858,2.934,2.15,2.15,0,0,0,.194.139c.785.512,5.954,3.874,6.008,3.746l.77-1.817-6.5-2.756a2.248,2.248,0,0,1-1.326-2.246" transform="translate(-312.904 -28.354)"/>
            </g>
          </g>
        </g>
        <path id="Trazado_230393" data-name="Trazado 230393" d="M306.263,23.74a28.007,28.007,0,0,1-4.083-1.544,27.945,27.945,0,0,1-3.95-1.859,28.039,28.039,0,0,1,4.083,1.544,27.993,27.993,0,0,1,3.95,1.859" transform="translate(-114.838 -7.828)" fill="#fafafa"/>
        <path id="Trazado_230394" data-name="Trazado 230394" d="M308.816,32.159c-.037.087-3.027-1.1-6.677-2.643s-6.58-2.871-6.544-2.958,3.026,1.1,6.678,2.643,6.58,2.871,6.543,2.958" transform="translate(-113.824 -10.225)" fill="#fafafa"/>
        <path id="Trazado_230395" data-name="Trazado 230395" d="M307.807,37.856c-.037.087-3.293-1.21-7.272-2.9s-7.176-3.123-7.139-3.21,3.292,1.209,7.273,2.9,7.176,3.123,7.139,3.21" transform="translate(-112.977 -12.225)" fill="#fafafa"/>
        <path id="Trazado_230396" data-name="Trazado 230396" d="M305.731,42.755c-.037.087-3.293-1.21-7.272-2.9s-7.176-3.123-7.139-3.21,3.292,1.209,7.273,2.9,7.176,3.123,7.139,3.21" transform="translate(-112.178 -14.111)" fill="#fafafa"/>
        <path id="Trazado_230397" data-name="Trazado 230397" d="M303.655,47.655c-.037.087-3.293-1.21-7.272-2.9s-7.176-3.123-7.139-3.21,3.292,1.209,7.273,2.9,7.176,3.123,7.139,3.21" transform="translate(-111.378 -15.998)" fill="#fafafa"/>
        <path id="Trazado_230398" data-name="Trazado 230398" d="M301.58,52.554c-.037.087-3.293-1.21-7.272-2.9s-7.176-3.123-7.139-3.21,3.292,1.209,7.273,2.9,7.176,3.123,7.139,3.21" transform="translate(-110.579 -17.885)" fill="#fafafa"/>
      </g>
    </g>
    <g id="Grupo_179909" data-name="Grupo 179909">
      <g id="Grupo_179908" data-name="Grupo 179908" clip-path="url(#clip-path)">
        <path id="Trazado_230399" data-name="Trazado 230399" d="M222.55,23.416A22.965,22.965,0,1,1,199.584.451,22.965,22.965,0,0,1,222.55,23.416" transform="translate(-68.01 -0.174)" fill="#fff"/>
        <path id="Trazado_230400" data-name="Trazado 230400" d="M222.449,23.334s-.017-.126-.035-.371-.041-.619-.071-1.09q-.021-.361-.048-.8c-.031-.294-.094-.612-.146-.959a16.794,16.794,0,0,0-.478-2.369,21.911,21.911,0,0,0-2.545-6.09A22.948,22.948,0,0,0,203.7.906a21.233,21.233,0,0,0-2.887-.333c-.492-.017-.988-.065-1.488-.057l-1.511.078c-.253.018-.509.016-.763.05l-.761.117c-.508.084-1.025.143-1.535.249a24.166,24.166,0,0,0-3.043.893,23.788,23.788,0,0,0-2.975,1.308c-.482.261-.944.566-1.42.849-.234.149-.483.277-.705.446l-.672.5a25.748,25.748,0,0,0-2.588,2.2,25.79,25.79,0,0,0-2.235,2.644l-.525.7-.459.751-.459.755a5.7,5.7,0,0,0-.425.778l-.774,1.609-.619,1.689a24.378,24.378,0,0,0-1.177,7.195,24.383,24.383,0,0,0,1.176,7.2l.619,1.689.775,1.609a5.6,5.6,0,0,0,.424.778l.459.756.459.751.525.7a25.8,25.8,0,0,0,2.235,2.644,25.544,25.544,0,0,0,2.588,2.2l.672.5c.222.169.472.3.705.446.477.283.938.588,1.42.849a23.8,23.8,0,0,0,2.976,1.308,24.1,24.1,0,0,0,3.043.893c.51.106,1.027.165,1.535.25l.761.117c.253.034.51.032.763.05l1.511.078c.5.008,1-.04,1.488-.057a21.22,21.22,0,0,0,2.887-.333,22.951,22.951,0,0,0,15.427-10.747,21.891,21.891,0,0,0,2.544-6.09,16.608,16.608,0,0,0,.478-2.368c.052-.347.115-.665.146-.959s.034-.561.048-.8c.031-.47.055-.832.071-1.09s.035-.371.035-.371,0,.126,0,.372-.022.621-.039,1.093q-.015.363-.033.806c-.026.3-.084.616-.132.964a16.425,16.425,0,0,1-.451,2.386,21.778,21.778,0,0,1-2.511,6.151,23.084,23.084,0,0,1-15.533,10.916,21.5,21.5,0,0,1-2.92.346c-.5.018-1,.068-1.506.061l-1.529-.076c-.256-.017-.515-.015-.772-.048l-.771-.117c-.514-.084-1.038-.143-1.555-.25a24.367,24.367,0,0,1-3.084-.9,23.981,23.981,0,0,1-3.017-1.32c-.489-.264-.957-.571-1.441-.858-.237-.151-.49-.28-.715-.451l-.681-.509a25.928,25.928,0,0,1-2.625-2.227A26.083,26.083,0,0,1,180.862,37l-.533-.711-.466-.761-.466-.766a5.8,5.8,0,0,1-.431-.789l-.787-1.631-.628-1.713a24.665,24.665,0,0,1-1.193-7.3,24.629,24.629,0,0,1,1.195-7.3l.628-1.713.786-1.63a5.789,5.789,0,0,1,.432-.788l.466-.766.466-.761.533-.711a26.139,26.139,0,0,1,2.268-2.677,26.052,26.052,0,0,1,2.625-2.226l.681-.509c.226-.17.478-.3.715-.451.483-.286.952-.593,1.441-.857a23.926,23.926,0,0,1,3.017-1.32,24.36,24.36,0,0,1,3.083-.9c.518-.106,1.04-.165,1.555-.25l.771-.116c.256-.033.515-.031.772-.049l1.529-.076c.506-.006,1.008.043,1.506.061a21.4,21.4,0,0,1,2.92.346A23.081,23.081,0,0,1,219.28,11.56a21.78,21.78,0,0,1,2.511,6.151,16.348,16.348,0,0,1,.452,2.386c.047.349.105.669.131.964s.023.565.033.807c.017.472.03.835.039,1.093s0,.372,0,.372" transform="translate(-67.91 -0.091)" fill="#263238"/>
        <path id="Trazado_230401" data-name="Trazado 230401" d="M224.017,29.82a5.761,5.761,0,0,1-.927.265l-2.562.612c-2.171.5-5.185,1.184-8.551,1.923l-.194.043v-.868c0-3.6.018-6.856.047-9.214.021-1.137.038-2.078.051-2.792a6.288,6.288,0,0,1,.062-1.024,6.317,6.317,0,0,1,.063,1.024c.013.714.03,1.655.05,2.792.029,2.358.047,5.616.047,9.214,0,.229,0,.457,0,.669l-.194-.156c3.366-.735,6.389-1.377,8.572-1.826l2.583-.514a5.679,5.679,0,0,1,.953-.147" transform="translate(-81.551 -7.226)" fill="#263238"/>
        <path id="Trazado_230402" data-name="Trazado 230402" d="M246.676,32.711a1.757,1.757,0,0,1,.1-.373c.07-.242.207-.588.334-1.049a27.7,27.7,0,0,0,.9-3.939A27.141,27.141,0,0,0,246.8,14.229,27.148,27.148,0,0,0,239.425,3.3a27.776,27.776,0,0,0-3.188-2.48c-.39-.275-.715-.456-.923-.6A1.779,1.779,0,0,1,235,0a1.755,1.755,0,0,1,.347.168c.219.125.555.29.959.551a24.408,24.408,0,0,1,3.271,2.415,26.141,26.141,0,0,1,8.658,24.252,24.35,24.35,0,0,1-1,3.94c-.147.458-.3.8-.393,1.033a1.72,1.72,0,0,1-.162.351" transform="translate(-90.49 0)" fill="#263238"/>
        <path id="Trazado_230403" data-name="Trazado 230403" d="M257.881,25.278c-.052,0-.082-.915-.269-2.377a27.863,27.863,0,0,0-3.7-10.806c-.75-1.269-1.288-2.011-1.247-2.042a2.355,2.355,0,0,1,.428.485c.257.326.609.814,1.012,1.438a24.357,24.357,0,0,1,3.732,10.9c.066.74.086,1.342.085,1.757a2.428,2.428,0,0,1-.041.645" transform="translate(-97.292 -3.871)" fill="#263238"/>
        <path id="Trazado_230404" data-name="Trazado 230404" d="M174.3,16.165a1.82,1.82,0,0,1-.159.352c-.109.228-.3.548-.5.983a27.7,27.7,0,0,0-1.511,3.746,26.562,26.562,0,0,0,4.653,25.1,27.628,27.628,0,0,0,2.754,2.955c.342.334.633.565.815.739a1.869,1.869,0,0,1,.276.272,1.687,1.687,0,0,1-.317-.222c-.2-.158-.5-.374-.858-.7a24.352,24.352,0,0,1-2.845-2.9,26.147,26.147,0,0,1-4.694-25.319,24.348,24.348,0,0,1,1.617-3.732c.217-.427.425-.739.552-.957a1.68,1.68,0,0,1,.216-.32" transform="translate(-65.656 -6.224)" fill="#263238"/>
        <path id="Trazado_230405" data-name="Trazado 230405" d="M166.441,33.175c.051.007-.065.916-.112,2.39a27.853,27.853,0,0,0,1.935,11.257c.539,1.373.953,2.19.906,2.214a2.415,2.415,0,0,1-.346-.547c-.2-.363-.472-.9-.77-1.581A24.36,24.36,0,0,1,166.1,35.554c.052-.742.129-1.338.2-1.748a2.4,2.4,0,0,1,.143-.63" transform="translate(-63.939 -12.775)" fill="#263238"/>
        <path id="Trazado_230406" data-name="Trazado 230406" d="M243.9,43.754c-.866-.178-1.567-.328-1.566-.337s.705.127,1.572.305,1.567.328,1.565.337-.706-.128-1.572-.305" transform="translate(-93.316 -16.718)" fill="#263238"/>
        <path id="Trazado_230407" data-name="Trazado 230407" d="M240.4,52.86c-.762-.449-1.376-.819-1.372-.826s.626.351,1.388.8,1.376.819,1.371.826-.625-.351-1.387-.8" transform="translate(-92.043 -20.037)" fill="#263238"/>
        <path id="Trazado_230408" data-name="Trazado 230408" d="M234.126,60.325c-.574-.673-1.035-1.222-1.029-1.227s.477.535,1.052,1.208,1.034,1.222,1.028,1.227-.477-.536-1.052-1.208" transform="translate(-89.758 -22.757)" fill="#263238"/>
        <path id="Trazado_230409" data-name="Trazado 230409" d="M225.774,65.357c-.327-.822-.585-1.491-.577-1.494s.279.66.605,1.483.584,1.491.577,1.494-.279-.661-.605-1.483" transform="translate(-86.716 -24.592)" fill="#263238"/>
        <path id="Trazado_230410" data-name="Trazado 230410" d="M216.241,67.406c-.041-.884-.066-1.6-.058-1.6s.048.716.089,1.6.067,1.6.058,1.6-.048-.716-.089-1.6" transform="translate(-83.244 -25.339)" fill="#263238"/>
        <path id="Trazado_230411" data-name="Trazado 230411" d="M205.99,66.239c.247-.849.454-1.535.462-1.533s-.184.692-.432,1.542-.454,1.535-.462,1.532.185-.693.432-1.542" transform="translate(-79.153 -24.916)" fill="#263238"/>
        <path id="Trazado_230412" data-name="Trazado 230412" d="M196.606,62c.511-.722.93-1.3.937-1.3s-.4.594-.912,1.317-.93,1.3-.937,1.3.4-.594.911-1.316" transform="translate(-75.356 -23.374)" fill="#263238"/>
        <path id="Trazado_230413" data-name="Trazado 230413" d="M189.214,55.133c.717-.518,1.3-.932,1.307-.925s-.572.432-1.29.949-1.3.932-1.307.924.572-.432,1.289-.949" transform="translate(-72.363 -20.874)" fill="#263238"/>
        <path id="Trazado_230414" data-name="Trazado 230414" d="M184.589,46.392c.846-.258,1.534-.46,1.536-.452s-.681.223-1.527.481-1.534.46-1.536.452.682-.223,1.527-.481" transform="translate(-70.491 -17.69)" fill="#263238"/>
        <path id="Trazado_230415" data-name="Trazado 230415" d="M183.251,36.644c.884.033,1.6.066,1.6.074s-.717-.011-1.6-.044-1.6-.066-1.6-.075.717.012,1.6.044" transform="translate(-69.947 -14.093)" fill="#263238"/>
        <path id="Trazado_230416" data-name="Trazado 230416" d="M185.339,26.439c.826.316,1.493.579,1.49.587s-.675-.242-1.5-.558-1.493-.579-1.49-.587.676.241,1.5.557" transform="translate(-70.79 -9.966)" fill="#263238"/>
        <path id="Trazado_230417" data-name="Trazado 230417" d="M190.627,17.464c.678.569,1.223,1.035,1.217,1.041s-.559-.449-1.237-1.018-1.222-1.034-1.216-1.041.559.45,1.236,1.018" transform="translate(-72.928 -6.333)" fill="#263238"/>
        <path id="Trazado_230418" data-name="Trazado 230418" d="M198.54,10.7c.457.758.822,1.374.815,1.379s-.384-.606-.841-1.363-.822-1.374-.815-1.378.384.606.841,1.363" transform="translate(-76.127 -3.596)" fill="#263238"/>
        <path id="Trazado_230419" data-name="Trazado 230419" d="M208.214,6.86c.187.865.332,1.567.323,1.569s-.166-.7-.353-1.563-.332-1.566-.323-1.567.166.7.353,1.561" transform="translate(-80.04 -2.04)" fill="#263238"/>
        <path id="Trazado_230420" data-name="Trazado 230420" d="M218.381,6.379c-.105.878-.2,1.589-.206,1.588s.07-.714.175-1.592.2-1.589.206-1.588-.07.714-.175,1.591" transform="translate(-84.012 -1.844)" fill="#263238"/>
        <path id="Trazado_230421" data-name="Trazado 230421" d="M227.752,9.294c-.384.8-.7,1.44-.708,1.436s.3-.653.68-1.45.7-1.44.708-1.436-.3.652-.679,1.449" transform="translate(-87.427 -3.021)" fill="#263238"/>
        <path id="Trazado_230422" data-name="Trazado 230422" d="M235.717,15.3c-.623.628-1.132,1.133-1.138,1.127s.494-.52,1.117-1.149,1.131-1.133,1.136-1.127-.493.52-1.115,1.148" transform="translate(-90.329 -5.451)" fill="#263238"/>
        <path id="Trazado_230423" data-name="Trazado 230423" d="M241.425,23.743c-.792.394-1.437.707-1.441.7s.635-.333,1.427-.726,1.436-.707,1.44-.7-.635.333-1.427.726" transform="translate(-92.41 -8.863)" fill="#263238"/>
        <path id="Trazado_230424" data-name="Trazado 230424" d="M244.266,33.7c-.877.115-1.589.2-1.59.193s.708-.108,1.586-.223,1.588-.2,1.589-.192-.709.108-1.585.223" transform="translate(-93.447 -12.891)" fill="#263238"/>
        <path id="Trazado_230425" data-name="Trazado 230425" d="M261.751,30.392a16.809,16.809,0,0,1-1.315,2.994l-.036.072-.125.249-.152-.232a16.226,16.226,0,0,1-1.617-2.75,16.16,16.16,0,0,1,1.884,2.574l-.277.017.036-.072a16.773,16.773,0,0,1,1.6-2.851" transform="translate(-99.54 -11.703)" fill="#263238"/>
      </g>
    </g>
    <g id="Grupo_179926" data-name="Grupo 179926">
      <g id="Grupo_179925" data-name="Grupo 179925" clip-path="url(#clip-path)">
        <path id="Trazado_230426" data-name="Trazado 230426" d="M231.475,114.848H159.2a6.4,6.4,0,1,0,0,12.8H193l7.57,7.213v-7.213h30.9a6.4,6.4,0,0,0,0-12.8" transform="translate(-58.838 -44.224)" fill="#fafafa"/>
        <path id="Trazado_230427" data-name="Trazado 230427" d="M231.381,114.75s.08,0,.237,0a4.618,4.618,0,0,1,.7.053,6.292,6.292,0,0,1,2.562.94,6.441,6.441,0,0,1,1.754,9.2,6.543,6.543,0,0,1-2.757,2.2,7.062,7.062,0,0,1-1.855.471c-.658.05-1.312.031-1.986.037l-8.706.015-20.852.025.141-.14c0,2.258,0,4.707.006,7.213v.341l-.248-.236-7.575-7.208.106.042-28.747.007h-5.015a6.562,6.562,0,0,1-5.02-10.824,6.5,6.5,0,0,1,4.154-2.238c.8-.089,1.569-.046,2.34-.057h2.3l8.952.006,30.971.034,20.879.051,5.676.03,1.476.016c.333.006.5.017.5.017s-.17.011-.5.017l-1.476.015-5.676.03-20.879.051-30.971.034-8.952.006h-2.3c-.768.01-1.555-.029-2.3.057a6.243,6.243,0,0,0-3.541,10.684,6.263,6.263,0,0,0,4.368,1.751h5.015l28.747.007h.061l.044.042,7.566,7.217-.247.106c0-2.506,0-4.955.006-7.213v-.141h.14l20.852.025,8.706.015c.671,0,1.337.018,1.967-.027a6.876,6.876,0,0,0,1.8-.45,6.351,6.351,0,0,0-1.495-12.13c-.61-.1-.933-.077-.932-.1" transform="translate(-58.744 -44.127)" fill="#263238"/>
        <path id="Trazado_230428" data-name="Trazado 230428" d="M191.965,126.951H160.308a4.524,4.524,0,0,1,0-9.048h31.656a4.524,4.524,0,1,1,0,9.048" transform="translate(-59.988 -45.401)" fill="#4adbd1"/>
        <path id="Trazado_230429" data-name="Trazado 230429" d="M215.653,104.115l-1.069,3.271h-.814l-.719-2.215-.743,2.215H211.5l-1.075-3.271h.785l.739,2.3.771-2.3h.7l.748,2.318.761-2.318Z" transform="translate(-81.028 -40.091)" fill="#263238"/>
        <path id="Trazado_230430" data-name="Trazado 230430" d="M219.215,105.716a1.793,1.793,0,1,1,1.79,1.692,1.692,1.692,0,0,1-1.79-1.692m2.813,0a1.024,1.024,0,1,0-1.023,1.047,1,1,0,0,0,1.023-1.047" transform="translate(-84.412 -40.057)" fill="#263238"/>
        <path id="Trazado_230431" data-name="Trazado 230431" d="M228.045,107.386l-.63-.911h-.7v.911h-.756v-3.271h1.416c.874,0,1.421.453,1.421,1.187a1.063,1.063,0,0,1-.673,1.033l.734,1.051Zm-.71-2.654h-.617v1.14h.617c.462,0,.7-.215.7-.57s-.234-.57-.7-.57" transform="translate(-87.011 -40.091)" fill="#263238"/>
        <path id="Trazado_230432" data-name="Trazado 230432" d="M232.737,106.1l-.439.458v.827h-.752v-3.271h.752v1.527l1.449-1.527h.841l-1.355,1.458,1.435,1.813h-.884Z" transform="translate(-89.161 -40.092)" fill="#263238"/>
        <path id="Trazado_230433" data-name="Trazado 230433" d="M264.619,124.953H263.7l-.232,1.175h-.663l.239-1.175H260.39l.089-.478,3.04-3.129h.772l-2.911,3.019h1.8l.212-1.039h.635l-.2,1.039h.909Z" transform="translate(-100.268 -46.726)" fill="#263238"/>
        <path id="Trazado_230434" data-name="Trazado 230434" d="M269.3,121.94l-.4,1.312h.465c1.223,0,1.776.505,1.776,1.277,0,.991-.812,1.653-2.035,1.653a2.245,2.245,0,0,1-1.674-.6l.362-.526a1.8,1.8,0,0,0,1.36.52c.826,0,1.3-.362,1.3-.97,0-.471-.342-.758-1.216-.758h-1.162l.745-2.5h2.7l-.116.594Z" transform="translate(-102.981 -46.726)" fill="#263238"/>
        <path id="Trazado_230435" data-name="Trazado 230435" d="M274.77,122.848a1.408,1.408,0,0,1,1.3-1.558.926.926,0,0,1,.963,1.039,1.4,1.4,0,0,1-1.3,1.557.926.926,0,0,1-.963-1.038m4.242-1.523h.547l-4.18,4.782h-.56Zm-2.417,1.038c0-.451-.212-.69-.554-.69-.553,0-.826.622-.826,1.141,0,.45.212.689.553.689.553,0,.827-.621.827-1.141m.758,2.746a1.4,1.4,0,0,1,1.3-1.558.924.924,0,0,1,.956,1.038,1.4,1.4,0,0,1-1.3,1.558.922.922,0,0,1-.957-1.039m1.817-.485c0-.451-.212-.69-.553-.69-.547,0-.827.622-.827,1.141,0,.451.218.69.553.69.553,0,.827-.622.827-1.141" transform="translate(-105.805 -46.705)" fill="#263238"/>
        <g id="Grupo_179912" data-name="Grupo 179912" transform="translate(98.614 72.502)" opacity="0.3">
          <g id="Grupo_179911" data-name="Grupo 179911">
            <g id="Grupo_179910" data-name="Grupo 179910" clip-path="url(#clip-path-10)">
              <path id="Trazado_230436" data-name="Trazado 230436" d="M163.3,117.9l-2.932,9.048H163.3l2.757-9.048Z" transform="translate(-160.365 -117.903)" fill="#fff"/>
            </g>
          </g>
        </g>
        <g id="Grupo_179915" data-name="Grupo 179915" transform="translate(105.857 72.502)" opacity="0.3">
          <g id="Grupo_179914" data-name="Grupo 179914">
            <g id="Grupo_179913" data-name="Grupo 179913" clip-path="url(#clip-path-10)">
              <path id="Trazado_230437" data-name="Trazado 230437" d="M175.076,117.9l-2.932,9.048h2.932l2.757-9.048Z" transform="translate(-172.144 -117.903)" fill="#fff"/>
            </g>
          </g>
        </g>
        <g id="Grupo_179918" data-name="Grupo 179918" transform="translate(113.1 72.502)" opacity="0.3">
          <g id="Grupo_179917" data-name="Grupo 179917">
            <g id="Grupo_179916" data-name="Grupo 179916" clip-path="url(#clip-path-10)">
              <path id="Trazado_230438" data-name="Trazado 230438" d="M186.854,117.9l-2.932,9.048h2.932l2.757-9.048Z" transform="translate(-183.922 -117.903)" fill="#fff"/>
            </g>
          </g>
        </g>
        <g id="Grupo_179921" data-name="Grupo 179921" transform="translate(120.343 72.502)" opacity="0.3">
          <g id="Grupo_179920" data-name="Grupo 179920">
            <g id="Grupo_179919" data-name="Grupo 179919" clip-path="url(#clip-path-10)">
              <path id="Trazado_230439" data-name="Trazado 230439" d="M198.633,117.9,195.7,126.95h2.932l2.757-9.048Z" transform="translate(-195.701 -117.903)" fill="#fff"/>
            </g>
          </g>
        </g>
        <g id="Grupo_179924" data-name="Grupo 179924" transform="translate(127.586 72.502)" opacity="0.3">
          <g id="Grupo_179923" data-name="Grupo 179923">
            <g id="Grupo_179922" data-name="Grupo 179922" clip-path="url(#clip-path-10)">
              <path id="Trazado_230440" data-name="Trazado 230440" d="M210.412,117.9l-2.932,9.048h2.932l2.757-9.048Z" transform="translate(-207.48 -117.903)" fill="#fff"/>
            </g>
          </g>
        </g>
      </g>
    </g>
    <g id="Grupo_179946" data-name="Grupo 179946">
      <g id="Grupo_179945" data-name="Grupo 179945" clip-path="url(#clip-path)">
        <path id="Trazado_230441" data-name="Trazado 230441" d="M33.739,325.768s15.573,7.017,31.793,7.017c15.021,0,30.916-7.562,30.916-7.562Z" transform="translate(-12.992 -125.233)" fill="#e0e0e0"/>
        <rect id="Rectángulo_57877" data-name="Rectángulo 57877" width="6.433" height="67.379" transform="translate(47.806 200.666)" fill="#e0e0e0"/>
        <rect id="Rectángulo_57878" data-name="Rectángulo 57878" width="57.093" height="3.95" transform="translate(22.475 264.095)" fill="#e0e0e0"/>
        <path id="Trazado_230442" data-name="Trazado 230442" d="M42.453,435.267A4.357,4.357,0,1,1,38.1,430.91a4.357,4.357,0,0,1,4.357,4.357" transform="translate(-12.992 -165.929)" fill="#263238"/>
        <path id="Trazado_230443" data-name="Trazado 230443" d="M83.709,435.267a4.357,4.357,0,1,1-4.357-4.357,4.357,4.357,0,0,1,4.357,4.357" transform="translate(-28.878 -165.929)" fill="#263238"/>
        <path id="Trazado_230444" data-name="Trazado 230444" d="M131.5,435.267a4.357,4.357,0,1,1-4.357-4.357,4.357,4.357,0,0,1,4.357,4.357" transform="translate(-47.28 -165.929)" fill="#263238"/>
        <rect id="Rectángulo_57879" data-name="Rectángulo 57879" width="8.75" height="3.621" transform="translate(43.791 224.917)" fill="#e0e0e0"/>
        <rect id="Rectángulo_57880" data-name="Rectángulo 57880" width="3.187" height="8.69" transform="translate(42.197 222.383)" fill="#e0e0e0"/>
        <path id="Trazado_230445" data-name="Trazado 230445" d="M52.9,253.316H19.66V166.469a7.138,7.138,0,0,1,7.138-7.138H52.9Z" transform="translate(-7.57 -61.353)" fill="#455a64"/>
        <path id="Trazado_230446" data-name="Trazado 230446" d="M31.527,252.808c-.089,0-.16-20.393-.16-45.543s.072-45.547.16-45.547.16,20.388.16,45.547-.071,45.543-.16,45.543" transform="translate(-12.078 -62.272)" fill="#263238"/>
        <path id="Trazado_230447" data-name="Trazado 230447" d="M101.946,322.075H24.553a4.892,4.892,0,0,1-4.892-4.892v-5.328h82.285Z" transform="translate(-7.571 -120.085)" fill="#455a64"/>
        <path id="Trazado_230448" data-name="Trazado 230448" d="M93.052,89.4l-3.564,34c-.606,5.782-.315,14.4,8.871,14.941,8.005-.131,10.8-7.44,11.36-12.837.266-2.559.493-4.694.537-4.955,0,0,8.741.093,10.264-8.409.736-4.108,1.563-12.694,2.221-20.47a16.087,16.087,0,0,0-13.4-17.218l-.822-.137c-8.95-.957-14.763,6.109-15.472,15.082" transform="translate(-34.385 -28.583)" fill="#ffbe9d"/>
        <path id="Trazado_230449" data-name="Trazado 230449" d="M116.779,146.344a20.858,20.858,0,0,1-10.547-5.125s1.671,6.673,10.3,7.321Z" transform="translate(-40.906 -54.379)" fill="#eb996e"/>
        <path id="Trazado_230450" data-name="Trazado 230450" d="M116.047,104.991c-.186.158-1.1-.73-2.535-.9-1.428-.192-2.569.434-2.7.236-.067-.089.14-.39.638-.675a3.609,3.609,0,0,1,2.19-.408,3.477,3.477,0,0,1,1.991.94c.4.4.509.74.418.809" transform="translate(-42.664 -39.744)" fill="#263238"/>
        <path id="Trazado_230451" data-name="Trazado 230451" d="M117.645,110.678a1.167,1.167,0,0,1-1.3.977,1.116,1.116,0,0,1-1.013-1.235,1.168,1.168,0,0,1,1.3-.977,1.116,1.116,0,0,1,1.015,1.236" transform="translate(-44.406 -42.14)" fill="#263238"/>
        <path id="Trazado_230452" data-name="Trazado 230452" d="M123.684,115.991a8.774,8.774,0,0,1,2.19-.03c.34.021.667.007.761-.212a1.723,1.723,0,0,0-.058-1.028q-.27-1.292-.565-2.71a44.323,44.323,0,0,1-1.112-7.028,44.379,44.379,0,0,1,1.675,6.922q.273,1.422.521,2.718a1.966,1.966,0,0,1-.045,1.341.851.851,0,0,1-.63.4,2.3,2.3,0,0,1-.581-.016,8.653,8.653,0,0,1-2.156-.355" transform="translate(-47.627 -40.426)" fill="#263238"/>
        <path id="Trazado_230453" data-name="Trazado 230453" d="M115.794,96.4c-.168.306-1.3-.04-2.678-.1-1.382-.085-2.542.143-2.674-.178-.057-.153.184-.427.678-.668a4.367,4.367,0,0,1,2.067-.381,4.312,4.312,0,0,1,2.01.59c.463.29.671.587.6.732" transform="translate(-42.524 -36.61)" fill="#263238"/>
        <path id="Trazado_230454" data-name="Trazado 230454" d="M137.641,102.731c-.175.246-1.269-.146-2.622-.313-1.352-.192-2.5-.1-2.615-.382-.05-.135.195-.347.687-.51a4.761,4.761,0,0,1,2.039-.146,4.913,4.913,0,0,1,1.951.676c.445.287.639.557.561.675" transform="translate(-50.982 -39.02)" fill="#263238"/>
        <path id="Trazado_230455" data-name="Trazado 230455" d="M90.811,108.93c-.135-.087-5.566-2.705-6.349,3.15s5.256,5.434,5.289,5.268,1.06-8.417,1.06-8.417" transform="translate(-32.497 -41.692)" fill="#ffbe9d"/>
        <path id="Trazado_230456" data-name="Trazado 230456" d="M89.208,116.035c-.023-.022-.112.058-.295.114a1.032,1.032,0,0,1-.765-.086,2.548,2.548,0,0,1-.865-2.421,3.4,3.4,0,0,1,.481-1.422,1.19,1.19,0,0,1,.872-.681.524.524,0,0,1,.565.36c.057.174,0,.286.034.3.014.017.138-.081.124-.33a.655.655,0,0,0-.181-.4.776.776,0,0,0-.544-.224,1.445,1.445,0,0,0-1.187.765,3.492,3.492,0,0,0-.572,1.585,2.672,2.672,0,0,0,1.15,2.728,1.1,1.1,0,0,0,.953-.03c.2-.121.249-.248.231-.261" transform="translate(-33.445 -42.837)" fill="#eb996e"/>
        <path id="Trazado_230457" data-name="Trazado 230457" d="M119.077,126.747c.078-.143-1.042-.593-1.751-1.749a6.616,6.616,0,0,1-.672-1.61c-.132-.442-.237-.722-.3-.708s-.073.3-.022.777a4.36,4.36,0,0,0,.6,1.789,3.526,3.526,0,0,0,1.4,1.288c.432.223.734.263.755.214" transform="translate(-44.782 -47.24)" fill="#263238"/>
        <path id="Trazado_230458" data-name="Trazado 230458" d="M83.225,82.4c1.416-1.96,1.93-4.407,2.812-6.659s2.393-4.528,4.735-5.127l.049.027c2.112-.631,4.624-.411,6.165,1.157.7-3.016,3.6-5.188,6.651-5.7a19.983,19.983,0,0,1,10.547,1.816c2.128,1.093,4.1,3.113,6.448,6.032a28.97,28.97,0,0,1,2.663,3.911l1.854,8.246L122.541,90.1c-.159.274-.323.546-.515.814v-.02l-2.819,8.663c.1-2.425,1.046-10.8,1.142-13.226a13.515,13.515,0,0,1-9.181-5.314c-1.183-1.581-2.05-3.506-3.733-4.541-2.169-1.334-4.953-.766-7.425-.154l.11-.082a10.805,10.805,0,0,0-3.541,2.09,33.585,33.585,0,0,1-2.754,14.024c-.288.664-1.031,2.016-1.727,2.214-1.367.388-1.6-.988-2.327-1.776a3.511,3.511,0,0,0-2.346-.812,52.785,52.785,0,0,1-1.05-6.248,5.384,5.384,0,0,1-2.482-.063l.926-1.746a2.814,2.814,0,0,1-1.1.38.961.961,0,0,1-.961-.528c-.182-.472.17-.963.466-1.373" transform="translate(-31.848 -25.399)" fill="#263238"/>
        <path id="Trazado_230459" data-name="Trazado 230459" d="M101.482,77.459a7.366,7.366,0,0,0-.932.707,6.169,6.169,0,0,0-1.579,2.725,10.854,10.854,0,0,0-.42,2.158c-.076.79-.091,1.641-.113,2.537a22.788,22.788,0,0,1-.195,2.817,9.939,9.939,0,0,1-.33,1.465,3.106,3.106,0,0,1-.738,1.382,1.3,1.3,0,0,1-1.247.3,1.936,1.936,0,0,1-1.032-.715,4.455,4.455,0,0,1-.625-2.256l.178.038a7.216,7.216,0,0,1-1.208,1.7,2.564,2.564,0,0,1-1.752.755,1.657,1.657,0,0,1-.87-.236,1.435,1.435,0,0,1-.545-.647,1.473,1.473,0,0,1-.112-.777,1.066,1.066,0,0,1,.336-.641l.084.089a5.553,5.553,0,0,1-1.969,1.212,5.036,5.036,0,0,1-.591.168.918.918,0,0,1-.209.032,1,1,0,0,1,.2-.065c.132-.041.328-.1.576-.2A5.74,5.74,0,0,0,90.3,88.768l.084.089a1.1,1.1,0,0,0-.174,1.269,1.289,1.289,0,0,0,.494.574,1.5,1.5,0,0,0,.789.2,2.4,2.4,0,0,0,1.628-.72,7.11,7.11,0,0,0,1.166-1.665l.149-.264.03.3a4.314,4.314,0,0,0,.594,2.155,1.743,1.743,0,0,0,.924.64,1.1,1.1,0,0,0,1.06-.25,2.933,2.933,0,0,0,.683-1.294,9.886,9.886,0,0,0,.327-1.435,23.1,23.1,0,0,0,.2-2.793c.027-.9.047-1.749.132-2.548a10.787,10.787,0,0,1,.45-2.184,6.094,6.094,0,0,1,1.661-2.74,3.505,3.505,0,0,1,.986-.649" transform="translate(-33.737 -29.827)" fill="#455a64"/>
        <path id="Trazado_230460" data-name="Trazado 230460" d="M136.145,85.5s-.023.02-.074.052l-.228.137a2.87,2.87,0,0,1-.385.2,4.6,4.6,0,0,1-.547.226,7.637,7.637,0,0,1-3.73.322,9.76,9.76,0,0,1-5-2.388,16.9,16.9,0,0,1-3.972-5.533c-.528-1.1-.937-2.207-1.407-3.241a11.4,11.4,0,0,0-1.674-2.786,5.878,5.878,0,0,0-2.332-1.727,4.208,4.208,0,0,0-1.289-.27,4.647,4.647,0,0,0-1.214.119,4.981,4.981,0,0,0-2.97,2.077,5.96,5.96,0,0,0-.561,1.244.3.3,0,0,1,.015-.089c.018-.07.039-.155.065-.259a4.3,4.3,0,0,1,.414-.938,4.906,4.906,0,0,1,1.08-1.213,5.038,5.038,0,0,1,1.923-.961,4.7,4.7,0,0,1,1.253-.136,4.329,4.329,0,0,1,1.342.269,6.031,6.031,0,0,1,2.414,1.762,11.511,11.511,0,0,1,1.713,2.826c.476,1.042.886,2.15,1.409,3.236a16.906,16.906,0,0,0,3.912,5.48,9.692,9.692,0,0,0,4.9,2.387,7.75,7.75,0,0,0,3.682-.255,12.2,12.2,0,0,0,1.26-.541" transform="translate(-42.652 -27.085)" fill="#455a64"/>
        <path id="Trazado_230461" data-name="Trazado 230461" d="M137.251,107.834c-.186.157-1.1-.731-2.535-.9-1.428-.192-2.569.435-2.7.236-.067-.089.14-.39.638-.675a3.611,3.611,0,0,1,2.19-.408,3.473,3.473,0,0,1,1.991.94c.4.4.509.74.419.809" transform="translate(-50.829 -40.839)" fill="#263238"/>
        <path id="Trazado_230462" data-name="Trazado 230462" d="M137.1,112.489a1.167,1.167,0,0,1-1.3.977,1.117,1.117,0,0,1-1.013-1.235,1.167,1.167,0,0,1,1.3-.977,1.116,1.116,0,0,1,1.015,1.236" transform="translate(-51.898 -42.837)" fill="#263238"/>
        <path id="Trazado_230463" data-name="Trazado 230463" d="M146.836,83.6a3.688,3.688,0,0,0,2.87,2.031,9.07,9.07,0,0,0,1.317-.241c.392.3.143,1.723-.187,2.088a7.735,7.735,0,0,1-1,.836c1.328.9,2.649.667,4.207.275a7.4,7.4,0,0,1-4.99,5.442,2.594,2.594,0,0,1-2.368-.2,2.983,2.983,0,0,1-.846-1.952,32.412,32.412,0,0,1-.226-7.982Z" transform="translate(-56.015 -32.192)" fill="#263238"/>
        <path id="Trazado_230464" data-name="Trazado 230464" d="M120.337,162.521s5.41,2.2,8.495,9.69c2.166,5.262,14.2,21.877,14.2,21.877L175.05,201.2l1.094,10.212-51.205-.422-7.117-22.66Z" transform="translate(-45.369 -62.581)" fill="#f4a338"/>
        <path id="Trazado_230465" data-name="Trazado 230465" d="M66.4,144.136l-5.684,2.387c-5.256,2.206-11.986,7.279-14.239,12.516-5.419,12.6-10.322,28.832-12.206,43.184-1.9,14.468,1.884,35.879,1.884,35.879L84.2,210.645,81.4,208.68l9.1-49.537-1.7-6,1.134-5.07S77.189,142.956,67.9,139.29Z" transform="translate(-12.992 -53.636)" fill="#f4a338"/>
        <g id="Grupo_179929" data-name="Grupo 179929" transform="translate(20.712 152.763)" opacity="0.3">
          <g id="Grupo_179928" data-name="Grupo 179928">
            <g id="Grupo_179927" data-name="Grupo 179927" clip-path="url(#clip-path-16)">
              <path id="Trazado_230466" data-name="Trazado 230466" d="M61.79,265.809q.268-3.711.534-7.421a3.26,3.26,0,0,1-2.08.891,21.777,21.777,0,0,0,3.176-3.821l-2.187.94a6.462,6.462,0,0,0,1.862-2.214c-1.173-.919-2.829-.766-4.312-.616-7.6.769-15.261.259-22.882-.251a5.228,5.228,0,0,1-2.184-.644A9.176,9.176,0,0,1,33.9,249.8c.339-.778.865-.556,1.664-.841a8.812,8.812,0,0,1,2.505-.386c9.281-.489,18.576.276,27.837,1.04a2.9,2.9,0,0,1,1.627.472c.756.616.693,1.769.561,2.736l-1.413,10.4" transform="translate(-33.681 -248.422)"/>
            </g>
          </g>
        </g>
        <path id="Trazado_230467" data-name="Trazado 230467" d="M119.386,168.337a2.559,2.559,0,0,1-.046.465l-.195,1.322c-.175,1.147-.45,2.8-.814,4.848-.721,4.087-1.813,9.717-3.107,15.916s-2.534,11.8-3.451,15.846c-.461,2-.836,3.624-1.106,4.788-.132.54-.237.972-.317,1.3a2.61,2.61,0,0,1-.132.448,2.486,2.486,0,0,1,.069-.462c.065-.33.151-.766.258-1.311l1.006-4.81,3.359-15.863c1.294-6.2,2.42-11.817,3.2-15.892.381-2.013.691-3.653.914-4.828q.158-.818.253-1.312a2.518,2.518,0,0,1,.11-.454" transform="translate(-42.44 -64.821)" fill="#263238"/>
        <path id="Trazado_230468" data-name="Trazado 230468" d="M54.456,271.1a1.982,1.982,0,0,1,.285-.292l.862-.792c.374-.344.838-.758,1.4-1.216s1.176-1,1.9-1.551c1.421-1.135,3.173-2.409,5.172-3.745,2.011-1.318,4.275-2.687,6.726-3.99s4.868-2.384,7.091-3.3c2.232-.9,4.273-1.623,6.011-2.155.863-.287,1.659-.494,2.353-.692s1.3-.351,1.792-.465l1.139-.264a1.978,1.978,0,0,1,.4-.071,1.941,1.941,0,0,1-.387.133l-1.123.322c-.49.133-1.087.3-1.774.517s-1.478.435-2.334.735c-1.724.558-3.75,1.3-5.968,2.213-2.209.927-4.6,2.027-7.055,3.311s-4.7,2.654-6.713,3.953c-2,1.317-3.761,2.569-5.2,3.677-.731.537-1.36,1.064-1.924,1.511s-1.043.843-1.428,1.172l-.9.746a1.979,1.979,0,0,1-.328.244" transform="translate(-20.969 -97.253)" fill="#263238"/>
        <path id="Trazado_230469" data-name="Trazado 230469" d="M81.4,253.217c.042.077-4.631,2.7-10.436,5.865s-10.548,5.662-10.59,5.585,4.63-2.7,10.437-5.866,10.547-5.662,10.589-5.584" transform="translate(-23.247 -97.505)" fill="#263238"/>
        <g id="Grupo_179932" data-name="Grupo 179932" transform="translate(41.267 117.756)" opacity="0.3">
          <g id="Grupo_179931" data-name="Grupo 179931">
            <g id="Grupo_179930" data-name="Grupo 179930" clip-path="url(#clip-path-17)">
              <path id="Trazado_230470" data-name="Trazado 230470" d="M67.108,191.494c2.983,12.89,12.1,24.441,24.24,29.7a287.467,287.467,0,0,1-24.24-29.7" transform="translate(-67.108 -191.494)"/>
            </g>
          </g>
        </g>
        <g id="Grupo_179935" data-name="Grupo 179935" transform="translate(73.061 107.944)" opacity="0.3">
          <g id="Grupo_179934" data-name="Grupo 179934">
            <g id="Grupo_179933" data-name="Grupo 179933" clip-path="url(#clip-path-18)">
              <path id="Trazado_230471" data-name="Trazado 230471" d="M121.93,175.537a25.973,25.973,0,0,1-2.436,17.139l-.683-1.416c.966-4.1,2.352-11.378,3.118-15.723" transform="translate(-118.812 -175.537)"/>
            </g>
          </g>
        </g>
        <path id="Trazado_230472" data-name="Trazado 230472" d="M149.87,384.289l-5.759,17.333S159.795,413.3,159.042,416.6l-34.008-9.959,7.865-27.375Z" transform="translate(-48.146 -146.044)" fill="#455a64"/>
        <g id="Grupo_179938" data-name="Grupo 179938" transform="translate(76.888 233.225)" opacity="0.3">
          <g id="Grupo_179937" data-name="Grupo 179937">
            <g id="Grupo_179936" data-name="Grupo 179936" clip-path="url(#clip-path-19)">
              <path id="Trazado_230473" data-name="Trazado 230473" d="M149.87,384.289l-5.759,17.333S159.795,413.3,159.042,416.6l-34.008-9.959,7.865-27.375Z" transform="translate(-125.034 -379.269)"/>
            </g>
          </g>
        </g>
        <path id="Trazado_230474" data-name="Trazado 230474" d="M138.765,408.206a1.447,1.447,0,0,0-1.424,1.3,1.39,1.39,0,0,0,1.28,1.423,1.526,1.526,0,0,0,1.5-1.389,1.443,1.443,0,0,0-1.5-1.333" transform="translate(-52.885 -157.182)" fill="#e0e0e0"/>
        <g id="Grupo_179941" data-name="Grupo 179941" transform="translate(76.888 257.872)" opacity="0.6">
          <g id="Grupo_179940" data-name="Grupo 179940">
            <g id="Grupo_179939" data-name="Grupo 179939" clip-path="url(#clip-path-20)">
              <path id="Trazado_230475" data-name="Trazado 230475" d="M125.034,422.078l.9-2.728,32.27,10.569s1.321,1.1.838,2.118Z" transform="translate(-125.034 -419.349)" fill="#fff"/>
            </g>
          </g>
        </g>
        <path id="Trazado_230476" data-name="Trazado 230476" d="M154.751,415.344c-.054.165-.906,0-1.88.291-.981.269-1.613.865-1.746.755-.144-.077.395-1,1.579-1.334s2.128.146,2.047.288" transform="translate(-58.184 -159.778)" fill="#263238"/>
        <path id="Trazado_230477" data-name="Trazado 230477" d="M160.287,419.593c-.009.172-.811.243-1.581.781-.785.515-1.15,1.232-1.313,1.176-.164-.019.006-1.026.976-1.675s1.96-.442,1.918-.282" transform="translate(-60.586 -161.508)" fill="#263238"/>
        <path id="Trazado_230478" data-name="Trazado 230478" d="M163.342,426.033c-.161-.009-.149-.906.544-1.69s1.575-.919,1.6-.761c.053.164-.593.5-1.152,1.157s-.826,1.326-1,1.294" transform="translate(-62.865 -163.085)" fill="#263238"/>
        <path id="Trazado_230479" data-name="Trazado 230479" d="M156.209,408.183c-.114.131-.809-.321-1.766-.533-.953-.231-1.776-.129-1.82-.3-.062-.148.832-.554,1.956-.29s1.75,1.013,1.63,1.119" transform="translate(-58.769 -156.713)" fill="#263238"/>
        <path id="Trazado_230480" data-name="Trazado 230480" d="M170.47,399.946l-.717,18.251s18.31,6.858,18.505,10.244l-35.437-.12-.049-28.482Z" transform="translate(-58.827 -153.964)" fill="#455a64"/>
        <path id="Trazado_230481" data-name="Trazado 230481" d="M161.926,427.1a1.447,1.447,0,0,0-1.006,1.648,1.39,1.39,0,0,0,1.625,1.012,1.527,1.527,0,0,0,1.056-1.751,1.444,1.444,0,0,0-1.807-.865" transform="translate(-61.954 -164.439)" fill="#e0e0e0"/>
        <g id="Grupo_179944" data-name="Grupo 179944" transform="translate(93.994 271.485)" opacity="0.6">
          <g id="Grupo_179943" data-name="Grupo 179943">
            <g id="Grupo_179942" data-name="Grupo 179942" clip-path="url(#clip-path-21)">
              <path id="Trazado_230482" data-name="Trazado 230482" d="M152.853,444.358l.107-2.871,33.936,1.189s1.575.692,1.393,1.8Z" transform="translate(-152.853 -441.487)" fill="#fff"/>
            </g>
          </g>
        </g>
        <path id="Trazado_230483" data-name="Trazado 230483" d="M179.294,429.3c-.006.173-.872.248-1.725.8-.868.531-1.309,1.28-1.468,1.21-.159-.034.1-1.068,1.147-1.719s2.085-.451,2.047-.293" transform="translate(-67.794 -165.247)" fill="#263238"/>
        <path id="Trazado_230484" data-name="Trazado 230484" d="M185.881,431.878c.039.168-.711.459-1.3,1.189-.611.713-.763,1.5-.935,1.5-.162.026-.279-.988.472-1.881s1.761-.969,1.764-.8" transform="translate(-70.669 -166.275)" fill="#263238"/>
        <path id="Trazado_230485" data-name="Trazado 230485" d="M190.636,437.3c-.157.036-.4-.829.052-1.775s1.258-1.32,1.331-1.176c.1.142-.43.649-.785,1.432-.374.774-.426,1.5-.6,1.519" transform="translate(-73.328 -167.242)" fill="#263238"/>
        <path id="Trazado_230486" data-name="Trazado 230486" d="M178.529,422.215c-.073.157-.866-.084-1.844-.021-.98.044-1.742.369-1.832.22-.1-.125.646-.763,1.8-.822s1.962.486,1.877.622" transform="translate(-67.326 -162.339)" fill="#263238"/>
        <path id="Trazado_230487" data-name="Trazado 230487" d="M94.2,254.68s42.474,11.041,47.746,18.392c4.456,6.215-18.929,69.718-18.929,69.718l-18.449-1.59,7.953-53.121L64.937,272.953l7.19-18.273Z" transform="translate(-25.005 -98.069)" fill="#263238"/>
        <path id="Trazado_230488" data-name="Trazado 230488" d="M86.745,266.1s43.419,10.551,47.809,18.047c2.049,3.5.705,14.984-.06,20.406-.515,3.653-8.193,54.765-8.193,54.765H107.532l.41-57.73L62.829,292.5s-24.217,1.845-25.159-8.484l10.106-13.7,23.858-11.793Z" transform="translate(-14.505 -99.549)" fill="#263238"/>
        <path id="Trazado_230489" data-name="Trazado 230489" d="M99.966,268.7s.215.05.63.164l1.842.513,7.08,1.98c3.075.862,6.837,1.911,11.184,3.206s9.277,2.851,14.619,4.875q4.013,1.5,8.289,3.416l2.154.976A21.159,21.159,0,0,1,147.881,285a13.886,13.886,0,0,1,1.972,1.486,7.144,7.144,0,0,1,1.581,1.974c1.465,6.654.577,13.926-.507,21.36-.475,3.745-1.084,7.564-1.66,11.473s-1.179,7.9-1.786,11.958c-1.216,8.123-2.476,16.532-3.765,25.145q-.366,2.445-.729,4.866l-.02.136h-.138l-18.769,0H123.9v-.158c.17-21.883.322-41.7.446-57.729l.1.12L92.4,299.113l-8.75-1.8-2.278-.477c-.513-.11-.775-.175-.775-.175s.267.041.783.139l2.284.443,8.763,1.733,32.07,6.411.1.02v.1c-.1,16.034-.232,35.848-.375,57.73l-.156-.158,18.769,0-.158.137q.362-2.419.729-4.865c1.291-8.613,2.551-17.022,3.77-25.143q.914-6.092,1.8-11.957c.578-3.907,1.19-7.727,1.669-11.469q.379-2.8.748-5.537a49,49,0,0,0,.473-5.4q.1-2.674-.006-5.272c-.034-.865-.085-1.721-.159-2.569a6.315,6.315,0,0,0-.5-2.421,6.864,6.864,0,0,0-1.519-1.9,13.648,13.648,0,0,0-1.935-1.463,20.918,20.918,0,0,0-2.086-1.165l-2.144-.977q-4.261-1.916-8.269-3.43c-5.33-2.035-10.256-3.591-14.591-4.915s-8.1-2.377-11.167-3.257l-7.064-2.038-1.834-.544c-.412-.124-.621-.2-.621-.2" transform="translate(-31.034 -103.466)" fill="#455a64"/>
        <path id="Trazado_230490" data-name="Trazado 230490" d="M207.188,223.381c.276-.414,3.864-4.553,4.829-4.553a3.834,3.834,0,0,1,2.07,1.1,3.575,3.575,0,0,1,2.069-.276c.828.276,4.691,3.588,4.691,4.829v2.07a5.377,5.377,0,0,1,0,1.655c-.138.966-2.484,2.621-2.484,2.621H205.125s-2.53-1.705-2.214-3.311,4.277-4.139,4.277-4.139" transform="translate(-78.124 -84.263)" fill="#ffbe9d"/>
        <path id="Trazado_230491" data-name="Trazado 230491" d="M219.731,220.622a5.363,5.363,0,0,1,.826.47l2.189,1.38a6.714,6.714,0,0,1,.723.5,1.908,1.908,0,0,1,.536.826,4.017,4.017,0,0,1,.12,1.02q.027.514.055,1.054c.071,1.449.147,3.032.228,4.693q.018.38.034.753l.006.131-.127.031-.81.2-.02,0h-.021a1.721,1.721,0,0,1-1.038-.39,2.879,2.879,0,0,1-.668-.8,7.022,7.022,0,0,1-.694-1.781,15.912,15.912,0,0,1-.456-3.182l.073.1-2.315-.913a5.1,5.1,0,0,1-.83-.373,5.022,5.022,0,0,1,.872.259l2.35.819.066.023.006.076a16.817,16.817,0,0,0,.51,3.118,6.907,6.907,0,0,0,.681,1.7,1.82,1.82,0,0,0,1.45,1.032l-.041,0,.81-.2-.121.162c-.012-.248-.023-.5-.034-.753-.072-1.662-.14-3.246-.2-4.694q-.021-.541-.041-1.055a3.9,3.9,0,0,0-.092-.953,1.663,1.663,0,0,0-.45-.724,7.081,7.081,0,0,0-.68-.488l-2.133-1.465a5.364,5.364,0,0,1-.758-.574" transform="translate(-83.767 -84.954)" fill="#eb996e"/>
        <path id="Trazado_230492" data-name="Trazado 230492" d="M206.528,234.464a4.37,4.37,0,0,1,.886-.119l2.413-.194h.016l.021,0c.784.182,1.709.362,2.726.493a15.7,15.7,0,0,0,1.591.126,1.772,1.772,0,0,0,1.456-.414,1.273,1.273,0,0,0,.229-.81c.007-.3-.044-.6-.052-.932a1.137,1.137,0,0,0-.362-.677,2.774,2.774,0,0,0-.656-.492,5,5,0,0,0-2.839-.5,2.219,2.219,0,0,1-1.877-.751,1,1,0,0,1-.248-.708,2.237,2.237,0,0,0,.345.631,2.14,2.14,0,0,0,1.776.6,5.089,5.089,0,0,1,2.986.47,3.038,3.038,0,0,1,.731.537,1.4,1.4,0,0,1,.456.889c.008.283.062.6.057.937a1.577,1.577,0,0,1-.3,1.005,1.421,1.421,0,0,1-.833.474,3.646,3.646,0,0,1-.882.056,15.178,15.178,0,0,1-1.622-.144,23.967,23.967,0,0,1-2.748-.555l.038,0-2.419.087a4.373,4.373,0,0,1-.894-.016" transform="translate(-79.527 -88.367)" fill="#eb996e"/>
        <path id="Trazado_230493" data-name="Trazado 230493" d="M228.474,234.517a21.926,21.926,0,0,1,1.066-2.4,10.8,10.8,0,0,1,1.221-2.335,11.129,11.129,0,0,1-.93,2.469,7.324,7.324,0,0,1-1.357,2.268" transform="translate(-87.975 -88.48)" fill="#eb996e"/>
        <path id="Trazado_230494" data-name="Trazado 230494" d="M180.983,213.889l47.771.633,15.382-43.131a1.809,1.809,0,1,0-3.386-1.271L225.6,210.962l-44.621.443a1.242,1.242,0,0,0,.009,2.484" transform="translate(-69.214 -65.053)" fill="#263238"/>
        <path id="Trazado_230495" data-name="Trazado 230495" d="M65.815,176.2s23.339,31.77,26.989,31.77h34.1V195.055l-25.788-6.082s-12.7-26.277-15.507-29.647-10.322-7.9-15.937-2.842S65.815,176.2,65.815,176.2" transform="translate(-25.243 -59.386)" fill="#f4a338"/>
        <path id="Trazado_230496" data-name="Trazado 230496" d="M165.278,214.812l5.585-.448s.122-2.073,1.342-2.8,1.1-2.317,1.829-2.2a3.177,3.177,0,0,0,1.22-.006l4.634-3.9,3.9-2.561,3.049-.609s1.829.488,0,2.195l-1.951,1.1-1.707,1.708,3.9-1.915a1.325,1.325,0,0,1,1.152-.009,16.519,16.519,0,0,1,3,1.681.845.845,0,0,1,0,1.219l1.707,1.464s.366,1.951-1.585,1.464l-1.585-.366-2.074,2.074s7.074-1.464,7.561-1.22a1.39,1.39,0,0,1,0,2.318c-1.1.975-5.366.732-6.341,1.707s-7.426,6.866-9.011,7.232-14.6,3.544-14.6,3.544Z" transform="translate(-63.643 -77.896)" fill="#ffbe9d"/>
        <path id="Trazado_230497" data-name="Trazado 230497" d="M206.016,212.88a8.257,8.257,0,0,1-.96-.68c-.292-.213-.641-.467-1.034-.735-.2-.135-.406-.271-.624-.4a1.419,1.419,0,0,0-.654-.268,4,4,0,0,0-1.363.566c-.42.228-.792.443-1.1.627a5.4,5.4,0,0,1-1.032.568,3.661,3.661,0,0,1,.91-.758c.3-.21.664-.448,1.082-.692.21-.123.429-.247.665-.37a2,2,0,0,1,.832-.259.727.727,0,0,1,.255.03,1.979,1.979,0,0,1,.213.086c.128.065.247.133.36.2.226.143.436.287.631.431.391.287.729.561,1.005.8.556.473.857.824.819.857" transform="translate(-76.722 -81.045)" fill="#eb996e"/>
        <path id="Trazado_230498" data-name="Trazado 230498" d="M180.831,213.021c.055.075-.528.576-1.2,1.228s-1.232,1.194-1.3,1.13a4.163,4.163,0,0,1,1.078-1.36,3.614,3.614,0,0,1,1.424-1" transform="translate(-68.666 -82.024)" fill="#eb996e"/>
        <path id="Trazado_230499" data-name="Trazado 230499" d="M85.771,162.521a15.563,15.563,0,0,1,1.35,1.967c.807,1.334,1.943,3.322,3.311,5.9,2.748,5.155,6.532,12.622,10.965,21.719l-.09-.072L127.1,198.1l.121.028v.124c0,4.156,0,8.489,0,12.918v.161h-1.708l-28.981-.013-3.3,0a2.628,2.628,0,0,1-.429-.019,1.578,1.578,0,0,1-.418-.14,4.689,4.689,0,0,1-.713-.427,13.847,13.847,0,0,1-1.242-1.024,59.935,59.935,0,0,1-4.252-4.445c-2.617-2.979-4.938-5.849-7.039-8.482-4.191-5.276-7.468-9.633-9.722-12.652l-2.574-3.492-.659-.916c-.147-.208-.215-.319-.215-.319s.085.1.241.3l.684.9,2.621,3.455c2.284,2.995,5.589,7.33,9.8,12.585,2.111,2.622,4.442,5.482,7.061,8.447a59.908,59.908,0,0,0,4.242,4.412,13.563,13.563,0,0,0,1.218,1,4.42,4.42,0,0,0,.667.4,1.334,1.334,0,0,0,.727.131l3.3,0,28.981-.012h1.548l-.16.16c0-4.429,0-8.762,0-12.918l.121.153L101.248,192.3l-.062-.015-.028-.057C96.751,183.119,93,175.635,90.3,170.462c-1.347-2.589-2.46-4.588-3.244-5.932-.4-.664-.7-1.182-.943-1.5s-.338-.507-.338-.507" transform="translate(-25.406 -62.581)" fill="#263238"/>
        <path id="Trazado_230500" data-name="Trazado 230500" d="M83.69,158.348c-.022.055-.8-.26-2.106-.557a16.737,16.737,0,0,0-2.323-.352,16.511,16.511,0,0,0-5.7.538,16.844,16.844,0,0,0-2.216.78c-1.229.536-1.933.991-1.964.941a2.085,2.085,0,0,1,.47-.357,10.821,10.821,0,0,1,1.4-.79,14.6,14.6,0,0,1,2.229-.858,15.338,15.338,0,0,1,5.8-.548,14.588,14.588,0,0,1,2.351.426,10.846,10.846,0,0,1,1.523.514,2.1,2.1,0,0,1,.528.263" transform="translate(-26.718 -60.486)" fill="#263238"/>
        <path id="Trazado_230501" data-name="Trazado 230501" d="M115.75,216.923a11.748,11.748,0,0,1,4.279-5.367c.062.074-1.114,1.079-2.29,2.564s-1.9,2.848-1.989,2.8" transform="translate(-44.569 -81.462)" fill="#263238"/>
        <path id="Trazado_230502" data-name="Trazado 230502" d="M114.476,212.752a6.747,6.747,0,0,1,4.755-1.7c.008.1-1.127.216-2.435.691s-2.265,1.09-2.32,1.01" transform="translate(-44.08 -81.251)" fill="#263238"/>
        <path id="Trazado_230503" data-name="Trazado 230503" d="M100.177,315.562a4.3,4.3,0,0,0-2.775-1.829c-21.479-6.925-44.527-10.244-66.732-6.211-2.671.485-5.427,1.123-7.548,2.818s-3.4,4.742-2.262,7.208l4.558,1.46a290.689,290.689,0,0,1,68.392.485,8.81,8.81,0,0,0,4.556-.219c1.416-.6,2.479-2.324,1.81-3.71" transform="translate(-7.87 -117.744)" fill="#455a64"/>
        <path id="Trazado_230504" data-name="Trazado 230504" d="M75.866,308.633a.471.471,0,0,1-.144-.007l-.415-.054-1.591-.238c-1.38-.22-3.376-.539-5.857-.822a139.524,139.524,0,0,0-19.469-.929c-1.9.037-3.762.129-5.553.276s-3.514.235-5.17.385a3.5,3.5,0,0,1-.641-.013,3.2,3.2,0,0,0-.582-.026,7.157,7.157,0,0,0-1.153.175l-2.227.464c-1.431.32-2.75.673-3.933,1.063a22.65,22.65,0,0,0-5.33,2.481c-.584.378-1.022.7-1.309.927l-.332.254a.475.475,0,0,1-.121.078s.03-.039.1-.1l.313-.279a13.1,13.1,0,0,1,1.28-.981,21.627,21.627,0,0,1,5.326-2.592A40.512,40.512,0,0,1,33,307.584l2.228-.481a7.406,7.406,0,0,1,1.2-.188,3.482,3.482,0,0,1,.63.025,3.174,3.174,0,0,0,.588.009c1.634-.157,3.377-.264,5.169-.4s3.656-.245,5.565-.283a129.666,129.666,0,0,1,19.5,1.024c2.482.312,4.475.665,5.85.924l1.583.3.41.085a.467.467,0,0,1,.138.04" transform="translate(-8.486 -117.918)" fill="#263238"/>
        <path id="Trazado_230505" data-name="Trazado 230505" d="M21.422,248.942l36.609,1.277a.911.911,0,0,1,.87,1.04L53.63,295.167h8.25l4.259-48.334a2.835,2.835,0,0,0-2.713-3.179l-42.989-1.542Z" transform="translate(-7.87 -93.229)" fill="#455a64"/>
      </g>
    </g>
    <path id="Trazado_230506" data-name="Trazado 230506" d="M329.131,248.015v1.272l12.633,120.733h5.892l-12.788-122Z" transform="translate(-126.737 -95.502)" fill="#455a64"/>
    <path id="Trazado_230507" data-name="Trazado 230507" d="M122.693,248.015,110.761,369.979h5.892L128.43,249.313v-1.3Z" transform="translate(-42.651 -95.502)" fill="#455a64"/>
    <g id="Grupo_179948" data-name="Grupo 179948">
      <g id="Grupo_179947" data-name="Grupo 179947" clip-path="url(#clip-path)">
        <path id="Trazado_230508" data-name="Trazado 230508" d="M122.583,247.986s-.014.219-.05.635-.095,1.037-.168,1.842c-.153,1.622-.378,4-.668,7.069l-2.5,26.026c-2.135,21.993-5.093,52.464-8.388,86.406l-.159-.176h5.892l-.159.145c5.585-56.687,10.316-104.7,11.887-120.654v0c0-.6,0-.959,0-1.3l.045.045-4.33-.026-1.056-.01c-.233,0-.351-.009-.351-.009s.108-.006.336-.009l1.046-.01,4.355-.025h.046v.046c0,.34,0,.7,0,1.3v0L116.7,369.965l-.014.144h-6.214l.017-.176c3.35-33.981,6.357-64.487,8.527-86.5,1.1-10.986,1.979-19.853,2.591-25.982.309-3.05.548-5.417.711-7.03q.124-1.193.189-1.82c.044-.409.072-.612.072-.612" transform="translate(-42.54 -95.474)" fill="#263238"/>
        <rect id="Rectángulo_57888" data-name="Rectángulo 57888" width="164.196" height="5.198" transform="translate(66.238 148.586)" fill="#455a64"/>
        <path id="Trazado_230509" data-name="Trazado 230509" d="M254.771,249.983c0,.089-32.726.16-73.087.16s-73.094-.071-73.094-.16,32.719-.16,73.094-.16,73.087.071,73.087.16" transform="translate(-41.814 -96.199)" fill="#263238"/>
      </g>
    </g>
  </g>
</svg>
