<svg xmlns="http://www.w3.org/2000/svg" width="351.524" height="145.601" viewBox="0 0 351.524 145.601">
  <g id="Grupo_183765" data-name="Grupo 183765" transform="translate(459.384 8514)">
    <g id="Grupo_183762" data-name="Grupo 183762" transform="translate(-1074.579 -11663.116)">
      <text id="SISTEMA_EXTERNO" data-name="SISTEMA EXTERNO" transform="translate(805.72 3289.717)" fill="#12263f" font-size="18" font-family="Roboto-Bold, Roboto" font-weight="700"><tspan x="0" y="0">SISTEMA EXTERNO</tspan></text>
    </g>
    <path id="Trazado_238733" data-name="Trazado 238733" d="M11.188-4.263A4.528,4.528,0,0,1,9.664-1.011,5.355,5.355,0,0,1,6.038.176,4.816,4.816,0,0,1,2.167-1.481,6.793,6.793,0,0,1,.756-6.029v-.782a7.671,7.671,0,0,1,.65-3.252,4.874,4.874,0,0,1,1.859-2.158,5.207,5.207,0,0,1,2.808-.751,5.217,5.217,0,0,1,3.568,1.187,4.866,4.866,0,0,1,1.564,3.331H8.569a2.673,2.673,0,0,0-.69-1.8,2.555,2.555,0,0,0-1.806-.558A2.24,2.24,0,0,0,4.1-9.866a5.3,5.3,0,0,0-.672,2.931v.967a5.667,5.667,0,0,0,.628,3.032,2.2,2.2,0,0,0,1.982.958,2.6,2.6,0,0,0,1.824-.558,2.521,2.521,0,0,0,.69-1.727ZM23.432-6.108a7.725,7.725,0,0,1-.668,3.313A5.03,5.03,0,0,1,20.852-.6,5.288,5.288,0,0,1,18,.176a5.324,5.324,0,0,1-2.839-.765,5.08,5.08,0,0,1-1.934-2.184,7.5,7.5,0,0,1-.694-3.265v-.633A7.685,7.685,0,0,1,13.214-10,5.072,5.072,0,0,1,15.139-12.2a5.3,5.3,0,0,1,2.843-.769,5.3,5.3,0,0,1,2.843.769A5.072,5.072,0,0,1,22.75-10a7.663,7.663,0,0,1,.681,3.318Zm-2.672-.58a5.385,5.385,0,0,0-.721-3.059,2.349,2.349,0,0,0-2.057-1.046A2.349,2.349,0,0,0,15.935-9.76a5.324,5.324,0,0,0-.729,3.028v.624a5.453,5.453,0,0,0,.721,3.041A2.342,2.342,0,0,0,18-1.986a2.321,2.321,0,0,0,2.039-1.042,5.421,5.421,0,0,0,.721-3.037ZM28.793-12.8,32.08-3.516,35.35-12.8h3.463V0H36.167V-3.5l.264-6.038L32.977,0H31.166L27.721-9.527,27.984-3.5V0H25.348V-12.8ZM48.814-5.563H43.752v3.445h5.941V0H41.115V-12.8h8.561v2.136H43.752v3.05h5.063Zm7.163.879h-2.1V0H51.24V-12.8H56a5.375,5.375,0,0,1,3.5,1.011,3.488,3.488,0,0,1,1.23,2.856,3.937,3.937,0,0,1-.567,2.184,3.866,3.866,0,0,1-1.718,1.393L61.207-.123V0h-2.83Zm-2.1-2.136H56a2.178,2.178,0,0,0,1.538-.505,1.806,1.806,0,0,0,.545-1.393,1.933,1.933,0,0,0-.514-1.424A2.137,2.137,0,0,0,56-10.661H53.877Zm18.9,2.558a4.528,4.528,0,0,1-1.525,3.252A5.355,5.355,0,0,1,67.623.176a4.816,4.816,0,0,1-3.872-1.657,6.793,6.793,0,0,1-1.411-4.548v-.782a7.671,7.671,0,0,1,.65-3.252,4.874,4.874,0,0,1,1.859-2.158,5.207,5.207,0,0,1,2.808-.751,5.217,5.217,0,0,1,3.568,1.187,4.866,4.866,0,0,1,1.564,3.331H70.154a2.673,2.673,0,0,0-.69-1.8,2.555,2.555,0,0,0-1.806-.558,2.24,2.24,0,0,0-1.973.945,5.3,5.3,0,0,0-.672,2.931v.967a5.667,5.667,0,0,0,.628,3.032,2.2,2.2,0,0,0,1.982.958,2.6,2.6,0,0,0,1.824-.558,2.521,2.521,0,0,0,.69-1.727ZM77.309,0H74.672V-12.8h2.637Zm9.826-2.637H82.512L81.633,0h-2.8l4.764-12.8h2.443L90.826,0h-2.8ZM83.224-4.772h3.2l-1.608-4.79ZM102.428,0H99.791L94.658-8.42V0H92.021V-12.8h2.637L99.8-4.359V-12.8h2.628Zm11.681-10.661h-3.92V0h-2.637V-10.661h-3.867V-12.8h10.424Zm9.2,5.1h-5.062v3.445h5.941V0h-8.578V-12.8h8.561v2.136h-5.924v3.05h5.063Z" transform="translate(-460.14 -8373.399)" fill="#12263f"/>
    <g id="Grupo_183761" data-name="Grupo 183761" transform="translate(-1331.323 -11700)">
      <g id="Elipse_6343" data-name="Elipse 6343" transform="translate(909.72 3186)" fill="none" stroke="#12263f" stroke-width="4">
        <circle cx="24.5" cy="24.5" r="24.5" stroke="none"/>
        <circle cx="24.5" cy="24.5" r="22.5" fill="none"/>
      </g>
      <path id="Trazado_238529" data-name="Trazado 238529" d="M1712.463-8465v41.5" transform="translate(-778.28 11700)" fill="none" stroke="#12263f" stroke-width="4"/>
      <path id="Trazado_238530" data-name="Trazado 238530" d="M1693.333-8402l19.333-22.667L1730-8402" transform="translate(-778.28 11700)" fill="none" stroke="#12263f" stroke-width="4"/>
      <path id="Trazado_238531" data-name="Trazado 238531" d="M1693.333-8450.5H1730" transform="translate(-778.28 11700)" fill="none" stroke="#12263f" stroke-width="4"/>
    </g>
    <g id="Grupo_183763" data-name="Grupo 183763" transform="translate(-1121.323 -11700)">
      <g id="Elipse_6343-2" data-name="Elipse 6343" transform="translate(909.72 3186)" fill="none" stroke="#12263f" stroke-width="4">
        <circle cx="24.5" cy="24.5" r="24.5" stroke="none"/>
        <circle cx="24.5" cy="24.5" r="22.5" fill="none"/>
      </g>
      <path id="Trazado_238529-2" data-name="Trazado 238529" d="M1712.463-8465v41.5" transform="translate(-778.28 11700)" fill="none" stroke="#12263f" stroke-width="4"/>
      <path id="Trazado_238530-2" data-name="Trazado 238530" d="M1693.333-8402l19.333-22.667L1730-8402" transform="translate(-778.28 11700)" fill="none" stroke="#12263f" stroke-width="4"/>
      <path id="Trazado_238531-2" data-name="Trazado 238531" d="M1693.333-8450.5H1730" transform="translate(-778.28 11700)" fill="none" stroke="#12263f" stroke-width="4"/>
    </g>
  </g>
</svg>
