<svg xmlns="http://www.w3.org/2000/svg" width="257" height="148" viewBox="0 0 257 148">
  <g id="Grupo_183766" data-name="Grupo 183766" transform="translate(416 7947.5)">
    <g id="Grupo_183764" data-name="Grupo 183764">
      <path id="Trazado_238732" data-name="Trazado 238732" d="M11.268-1.617A4.577,4.577,0,0,1,9.255-.294a8.429,8.429,0,0,1-2.883.47A5.711,5.711,0,0,1,3.458-.549a4.836,4.836,0,0,1-1.934-2.1A7.408,7.408,0,0,1,.826-5.9v-.87a7.868,7.868,0,0,1,.646-3.318A4.779,4.779,0,0,1,3.335-12.23a5.367,5.367,0,0,1,2.852-.743,5.345,5.345,0,0,1,3.56,1.085,4.639,4.639,0,0,1,1.521,3.16H8.7a2.552,2.552,0,0,0-.778-1.608,2.484,2.484,0,0,0-1.657-.51A2.338,2.338,0,0,0,4.219-9.835a5.315,5.315,0,0,0-.712,3.006v.817a5.06,5.06,0,0,0,.765,3.041A2.618,2.618,0,0,0,6.513-1.942a2.925,2.925,0,0,0,2.118-.633V-4.781h-2.4V-6.724h5.036ZM21.1-5.563H16.04v3.445h5.941V0H13.4V-12.8h8.561v2.136H16.04v3.05H21.1ZM33.935,0H31.3L26.165-8.42V0H23.528V-12.8h2.637l5.142,8.438V-12.8h2.628Zm10-5.563H38.874v3.445h5.941V0H36.237V-12.8H44.8v2.136H38.874v3.05h5.063Zm7.163.879H49V0H46.362V-12.8h4.755a5.375,5.375,0,0,1,3.5,1.011,3.488,3.488,0,0,1,1.23,2.856,3.937,3.937,0,0,1-.567,2.184,3.866,3.866,0,0,1-1.718,1.393L56.329-.123V0H53.5ZM49-6.82h2.127a2.178,2.178,0,0,0,1.538-.505,1.806,1.806,0,0,0,.545-1.393,1.933,1.933,0,0,0-.514-1.424,2.137,2.137,0,0,0-1.578-.519H49ZM65.074-2.637H60.451L59.572,0h-2.8l4.764-12.8h2.443L68.766,0h-2.8ZM61.163-4.772h3.2l-1.608-4.79ZM74.7-4.685H72.6V0H69.961V-12.8h4.755a5.375,5.375,0,0,1,3.5,1.011,3.488,3.488,0,0,1,1.23,2.856,3.937,3.937,0,0,1-.567,2.184,3.866,3.866,0,0,1-1.718,1.393L79.928-.123V0H77.1ZM72.6-6.82h2.127a2.178,2.178,0,0,0,1.538-.505,1.806,1.806,0,0,0,.545-1.393,1.933,1.933,0,0,0-.514-1.424,2.137,2.137,0,0,0-1.578-.519H72.6ZM93.63-5.229H88.567V0H85.931V-12.8h8.332v2.136h-5.7v3.3H93.63Zm7.7,2.593H96.706L95.827,0h-2.8l4.764-12.8h2.443L105.021,0h-2.8ZM97.418-4.772h3.2l-1.608-4.79Zm18.659.51a4.528,4.528,0,0,1-1.525,3.252A5.355,5.355,0,0,1,110.927.176a4.816,4.816,0,0,1-3.872-1.657,6.793,6.793,0,0,1-1.411-4.548v-.782a7.671,7.671,0,0,1,.65-3.252,4.874,4.874,0,0,1,1.859-2.158,5.207,5.207,0,0,1,2.808-.751,5.217,5.217,0,0,1,3.568,1.187,4.866,4.866,0,0,1,1.564,3.331h-2.637a2.673,2.673,0,0,0-.69-1.8,2.555,2.555,0,0,0-1.806-.558,2.24,2.24,0,0,0-1.973.945,5.3,5.3,0,0,0-.672,2.931v.967a5.667,5.667,0,0,0,.628,3.032,2.2,2.2,0,0,0,1.982.958,2.6,2.6,0,0,0,1.824-.558,2.521,2.521,0,0,0,.69-1.727Zm11.109-6.4h-3.92V0H120.63V-10.661h-3.867V-12.8h10.424ZM138.375-12.8v8.429a4.315,4.315,0,0,1-1.314,3.322,5.066,5.066,0,0,1-3.59,1.222,5.123,5.123,0,0,1-3.56-1.187,4.242,4.242,0,0,1-1.345-3.261V-12.8H131.2v8.446a2.438,2.438,0,0,0,.6,1.833,2.311,2.311,0,0,0,1.666.576q2.224,0,2.259-2.338V-12.8Zm6.9,8.112h-2.1V0h-2.637V-12.8h4.755a5.375,5.375,0,0,1,3.5,1.011,3.488,3.488,0,0,1,1.23,2.856,3.937,3.937,0,0,1-.567,2.184,3.866,3.866,0,0,1-1.718,1.393L150.5-.123V0h-2.83Zm-2.1-2.136H145.3a2.178,2.178,0,0,0,1.538-.505,1.806,1.806,0,0,0,.545-1.393,1.933,1.933,0,0,0-.514-1.424,2.137,2.137,0,0,0-1.578-.519h-2.118Zm16.075,4.184h-4.623L153.747,0h-2.8l4.764-12.8h2.443L162.94,0h-2.8Zm-3.911-2.136h3.2l-1.608-4.79Z" transform="translate(-368.845 -7908.5)" fill="#12263f"/>
      <g id="Trazado_238731" data-name="Trazado 238731" transform="translate(-416 -7947.5)" fill="none">
        <path d="M128.5,0C199.469,0,257,14.551,257,32.5S199.469,65,128.5,65,0,50.449,0,32.5,57.531,0,128.5,0Z" stroke="none"/>
        <path d="M 128.5 3 C 111.2587890625 3 94.53764343261719 3.853572845458984 78.80110168457031 5.536998748779297 C 63.63935852050781 7.158927917480469 50.03713989257812 9.477214813232422 38.37236022949219 12.42746353149414 C 32.66421508789062 13.87114334106445 27.49139404296875 15.4561767578125 22.99760437011719 17.13850021362305 C 18.52549743652344 18.81271362304688 14.70353698730469 20.59110641479492 11.63778686523438 22.42432022094727 C 7.697280883789062 24.78060531616211 3 28.44135665893555 3 32.5 C 3 36.55864334106445 7.697280883789062 40.21939086914062 11.63778686523438 42.57567596435547 C 14.70353698730469 44.40889358520508 18.52549743652344 46.18728637695312 22.99760437011719 47.86149978637695 C 27.49139404296875 49.5438232421875 32.66421508789062 51.12885665893555 38.37236022949219 52.57253646850586 C 50.03713989257812 55.52278518676758 63.63935852050781 57.84107208251953 78.80110168457031 59.4630012512207 C 94.53764343261719 61.14642715454102 111.2587890625 62 128.5 62 C 145.7412109375 62 162.4623565673828 61.14642715454102 178.1988830566406 59.4630012512207 C 193.3606414794922 57.84107208251953 206.9628601074219 55.52278518676758 218.6276397705078 52.57253646850586 C 224.3357849121094 51.12885665893555 229.5086059570312 49.5438232421875 234.0023956298828 47.86149978637695 C 238.4745025634766 46.18728637695312 242.2964630126953 44.40889358520508 245.3622131347656 42.57567596435547 C 249.3027191162109 40.21939086914062 254 36.55864334106445 254 32.5 C 254 28.44135665893555 249.3027191162109 24.78060531616211 245.3622131347656 22.42432022094727 C 242.2964630126953 20.59110641479492 238.4745025634766 18.81271362304688 234.0023956298828 17.13850021362305 C 229.5086059570312 15.4561767578125 224.3357849121094 13.87114334106445 218.6276397705078 12.42746353149414 C 206.9628601074219 9.477214813232422 193.3606414794922 7.158927917480469 178.1988830566406 5.536998748779297 C 162.4623565673828 3.853572845458984 145.7412109375 3 128.5 3 M 128.5 0 C 199.4686126708984 0 257 14.55075073242188 257 32.5 C 257 50.44924926757812 199.4686126708984 65 128.5 65 C 57.53138732910156 65 0 50.44924926757812 0 32.5 C 0 14.55075073242188 57.53138732910156 0 128.5 0 Z" stroke="none" fill="#12263f"/>
      </g>
      <g id="Trazado_238729" data-name="Trazado 238729" transform="translate(-416 -7864.5)" fill="none">
        <path d="M128.5,0C199.469,0,257,14.551,257,32.5S199.469,65,128.5,65,0,50.449,0,32.5,57.531,0,128.5,0Z" stroke="none"/>
        <path d="M 128.5 3 C 111.2587890625 3 94.53764343261719 3.853572845458984 78.80110168457031 5.536998748779297 C 63.63935852050781 7.158927917480469 50.03713989257812 9.477214813232422 38.37236022949219 12.42746353149414 C 32.66421508789062 13.87114334106445 27.49139404296875 15.4561767578125 22.99760437011719 17.13850021362305 C 18.52549743652344 18.81271362304688 14.70353698730469 20.59110641479492 11.63778686523438 22.42432022094727 C 7.697280883789062 24.78060531616211 3 28.44135665893555 3 32.5 C 3 36.55864334106445 7.697280883789062 40.21939086914062 11.63778686523438 42.57567596435547 C 14.70353698730469 44.40889358520508 18.52549743652344 46.18728637695312 22.99760437011719 47.86149978637695 C 27.49139404296875 49.5438232421875 32.66421508789062 51.12885665893555 38.37236022949219 52.57253646850586 C 50.03713989257812 55.52278518676758 63.63935852050781 57.84107208251953 78.80110168457031 59.4630012512207 C 94.53764343261719 61.14642715454102 111.2587890625 62 128.5 62 C 145.7412109375 62 162.4623565673828 61.14642715454102 178.1988830566406 59.4630012512207 C 193.3606414794922 57.84107208251953 206.9628601074219 55.52278518676758 218.6276397705078 52.57253646850586 C 224.3357849121094 51.12885665893555 229.5086059570312 49.5438232421875 234.0023956298828 47.86149978637695 C 238.4745025634766 46.18728637695312 242.2964630126953 44.40889358520508 245.3622131347656 42.57567596435547 C 249.3027191162109 40.21939086914062 254 36.55864334106445 254 32.5 C 254 28.44135665893555 249.3027191162109 24.78060531616211 245.3622131347656 22.42432022094727 C 242.2964630126953 20.59110641479492 238.4745025634766 18.81271362304688 234.0023956298828 17.13850021362305 C 229.5086059570312 15.4561767578125 224.3357849121094 13.87114334106445 218.6276397705078 12.42746353149414 C 206.9628601074219 9.477214813232422 193.3606414794922 7.158927917480469 178.1988830566406 5.536998748779297 C 162.4623565673828 3.853572845458984 145.7412109375 3 128.5 3 M 128.5 0 C 199.4686126708984 0 257 14.55075073242188 257 32.5 C 257 50.44924926757812 199.4686126708984 65 128.5 65 C 57.53138732910156 65 0 50.44924926757812 0 32.5 C 0 14.55075073242188 57.53138732910156 0 128.5 0 Z" stroke="none" fill="#12263f"/>
      </g>
      <path id="Trazado_238730" data-name="Trazado 238730" d="M8.842-5.563H3.779v3.445H9.721V0H1.143V-12.8H9.7v2.136H3.779v3.05H8.842ZM21.674,0H19.037L13.9-8.42V0H11.268V-12.8H13.9l5.142,8.438V-12.8h2.628Zm7.031-3.173,2.9-9.624h2.936L30.085,0H27.334L22.9-12.8h2.927ZM38.549,0H35.912V-12.8h2.637Zm9.826-2.637H43.752L42.873,0h-2.8l4.764-12.8h2.443L52.066,0h-2.8ZM44.464-4.772h3.2l-1.608-4.79ZM58-4.685H55.9V0H53.262V-12.8h4.755a5.375,5.375,0,0,1,3.5,1.011,3.488,3.488,0,0,1,1.23,2.856,3.937,3.937,0,0,1-.567,2.184A3.866,3.866,0,0,1,60.46-5.353L63.229-.123V0H60.4ZM55.9-6.82h2.127a2.178,2.178,0,0,0,1.538-.505,1.806,1.806,0,0,0,.545-1.393,1.933,1.933,0,0,0-.514-1.424,2.137,2.137,0,0,0-1.578-.519H55.9ZM76.931-5.229H71.868V0H69.231V-12.8h8.332v2.136h-5.7v3.3h5.063Zm7.7,2.593H80.007L79.128,0h-2.8l4.764-12.8h2.443L88.321,0h-2.8ZM80.719-4.772h3.2L82.31-9.562Zm18.659.51a4.528,4.528,0,0,1-1.525,3.252A5.355,5.355,0,0,1,94.228.176a4.816,4.816,0,0,1-3.872-1.657,6.793,6.793,0,0,1-1.411-4.548v-.782a7.671,7.671,0,0,1,.65-3.252,4.874,4.874,0,0,1,1.859-2.158,5.207,5.207,0,0,1,2.808-.751,5.217,5.217,0,0,1,3.568,1.187A4.866,4.866,0,0,1,99.4-8.455H96.759a2.673,2.673,0,0,0-.69-1.8,2.555,2.555,0,0,0-1.806-.558,2.24,2.24,0,0,0-1.973.945,5.3,5.3,0,0,0-.672,2.931v.967a5.667,5.667,0,0,0,.628,3.032,2.2,2.2,0,0,0,1.982.958,2.6,2.6,0,0,0,1.824-.558,2.521,2.521,0,0,0,.69-1.727Zm11.109-6.4h-3.92V0h-2.637V-10.661h-3.867V-12.8h10.424ZM121.676-12.8v8.429a4.315,4.315,0,0,1-1.314,3.322,5.066,5.066,0,0,1-3.59,1.222,5.123,5.123,0,0,1-3.56-1.187,4.242,4.242,0,0,1-1.345-3.261V-12.8H114.5v8.446a2.438,2.438,0,0,0,.6,1.833,2.311,2.311,0,0,0,1.666.576q2.224,0,2.259-2.338V-12.8Zm6.9,8.112h-2.1V0h-2.637V-12.8h4.755a5.375,5.375,0,0,1,3.5,1.011,3.488,3.488,0,0,1,1.23,2.856,3.937,3.937,0,0,1-.567,2.184,3.866,3.866,0,0,1-1.718,1.393L133.8-.123V0h-2.83Zm-2.1-2.136H128.6a2.178,2.178,0,0,0,1.538-.505,1.806,1.806,0,0,0,.545-1.393,1.933,1.933,0,0,0-.514-1.424,2.137,2.137,0,0,0-1.578-.519h-2.118ZM142.55-2.637h-4.623L137.048,0h-2.8l4.764-12.8h2.443L146.241,0h-2.8Zm-3.911-2.136h3.2l-1.608-4.79Z" transform="translate(-355.845 -7824)" fill="#12263f"/>
    </g>
  </g>
</svg>
