<?xml version="1.0" encoding="utf-8"?>
<!-- Generator: Adobe Illustrator 26.2.1, SVG Export Plug-In . SVG Version: 6.00 Build 0)  -->
<svg version="1.1" id="Layer_1" xmlns="http://www.w3.org/2000/svg" xmlns:xlink="http://www.w3.org/1999/xlink" x="0px" y="0px"
	 viewBox="0 0 239.9 44.2" style="enable-background:new 0 0 239.9 44.2;" xml:space="preserve">
<style type="text/css">
	.st0{fill:none;stroke:#12263F;stroke-width:8;stroke-dasharray:10,5;}
	.st1{fill:none;stroke:#12263F;stroke-width:8;}
	.st2{fill:#12263F;}
</style>
<g id="Grupo_182912">
	<path id="Trazado_237869" class="st0" d="M0,26.1h220.6"/>
	<path id="Trazado_237870" class="st1" d="M219.1,11l15.2,15.2l-15.2,15.2"/>
</g>
<g>
	<path class="st2" d="M87.8,9.7l-0.7,0.1v0l0.6,0.1l3.6,1.8l-0.3,1.6l-5.3-3l0.2-0.8L86,9.2l6.5-2.9l-0.3,1.6L87.8,9.7z"/>
	<path class="st2" d="M95.4,9.7l-0.7,0.1v0l0.6,0.1l3.6,1.8l-0.3,1.6l-5.3-3l0.2-0.8l0.1-0.3l6.5-2.9l-0.3,1.6L95.4,9.7z"/>
	<path class="st2" d="M102.6,14.2h-1.5l2.3-11.4h1.5L102.6,14.2z"/>
	<path class="st2" d="M108,6.9c0.3-0.4,0.7-0.8,1.2-1c0.4-0.2,0.9-0.3,1.4-0.3c0.8,0,1.4,0.3,1.8,0.8s0.5,1.4,0.2,2.5l-1.1,5.3H110
		l1.1-5.3c0.2-0.8,0.1-1.3-0.1-1.6c-0.2-0.3-0.6-0.4-1.2-0.4c-0.4,0-0.7,0.1-1.1,0.3s-0.7,0.5-0.9,0.9l-1.2,6.1h-1.5l1.7-8.4h1.3
		L108,6.9z"/>
	<path class="st2" d="M117.1,13.1c0.4,0,0.9-0.2,1.3-0.5c0.4-0.3,0.6-0.7,0.7-1.1h1.3l0,0c-0.1,0.8-0.5,1.4-1.2,2s-1.5,0.8-2.3,0.8
		c-1.1,0-1.9-0.4-2.4-1.2c-0.5-0.8-0.7-1.8-0.5-3l0.1-0.3c0.2-1.2,0.7-2.3,1.4-3c0.7-0.8,1.7-1.2,2.8-1.2c0.9,0,1.6,0.3,2.1,0.9
		c0.5,0.6,0.7,1.3,0.5,2.1l0,0h-1.4c0.1-0.5,0-1-0.3-1.3c-0.3-0.3-0.7-0.5-1.2-0.5c-0.7,0-1.3,0.3-1.7,0.9c-0.4,0.6-0.7,1.3-0.8,2.1
		l-0.1,0.3c-0.1,0.9-0.1,1.6,0.1,2.2C115.9,12.8,116.4,13.1,117.1,13.1z"/>
	<path class="st2" d="M123.2,14.2h-1.5L124.1,2h1.5L123.2,14.2z"/>
	<path class="st2" d="M130.5,14.2l0.1-1.2c-0.3,0.4-0.7,0.8-1.1,1c-0.4,0.2-0.9,0.3-1.4,0.3c-0.8,0-1.4-0.3-1.8-0.9
		s-0.5-1.5-0.2-2.7l1-5h1.5l-1,5c-0.2,1-0.2,1.6,0,1.9c0.2,0.3,0.5,0.5,1,0.5c0.5,0,0.9-0.1,1.3-0.3c0.4-0.2,0.7-0.5,1-1l1.2-6.1
		h1.5l-1.7,8.4H130.5z"/>
	<path class="st2" d="M134.5,9.9c0.3-1.5,0.7-2.5,1.4-3.3s1.4-1.1,2.4-1.1c0.4,0,0.8,0.1,1.2,0.3c0.4,0.2,0.6,0.4,0.9,0.8l0.9-4.6
		h1.5l-2.4,12.2h-1.3l0.1-0.8c-0.3,0.3-0.7,0.6-1,0.7c-0.4,0.2-0.8,0.2-1.2,0.2c-0.9,0-1.6-0.4-2-1.2s-0.6-1.8-0.3-3L134.5,9.9z
		 M136,10.1c-0.2,0.9-0.1,1.6,0.1,2.2c0.2,0.5,0.7,0.8,1.4,0.8c0.4,0,0.7-0.1,1-0.3s0.6-0.5,0.8-0.9l0.8-4c-0.1-0.3-0.3-0.6-0.6-0.8
		c-0.3-0.2-0.6-0.3-1-0.3c-0.6,0-1.1,0.3-1.5,0.8S136.2,9,136,9.9L136,10.1z"/>
	<path class="st2" d="M146,14.3c-1.1,0-1.9-0.4-2.4-1.2c-0.5-0.8-0.7-1.8-0.5-3l0.1-0.3c0.2-1.2,0.7-2.3,1.5-3s1.6-1.2,2.6-1.2
		c1,0,1.8,0.3,2.2,1c0.4,0.7,0.6,1.6,0.4,2.7l-0.2,1h-5.1c-0.1,0.9,0,1.5,0.2,2c0.3,0.5,0.7,0.8,1.4,0.8c0.5,0,0.9-0.1,1.3-0.2
		c0.4-0.2,0.7-0.4,1-0.6l0.4,1c-0.3,0.3-0.7,0.5-1.2,0.7C147.2,14.2,146.6,14.3,146,14.3z M146.9,6.8c-0.4,0-0.9,0.2-1.3,0.7
		s-0.7,1-0.9,1.6l0,0h3.5l0-0.2c0.1-0.6,0-1.1-0.2-1.5C147.9,7,147.5,6.8,146.9,6.8z"/>
	<path class="st2" d="M151.7,7.8l0.3-1.5l5.6,2.9l-0.1,0.3l-0.1,0.5l-0.1,0.3l-6.8,3l0.3-1.5l4.7-1.9l0.7-0.1v0l-0.6-0.1L151.7,7.8z
		"/>
	<path class="st2" d="M159.6,7.8l0.3-1.5l5.6,2.9l-0.1,0.3l-0.1,0.5l-0.1,0.3l-6.8,3l0.3-1.5l4.7-1.9l0.7-0.1v0l-0.6-0.1L159.6,7.8z
		"/>
</g>
</svg>
