<svg xmlns="http://www.w3.org/2000/svg" width="239.901" height="44.171" viewBox="0 0 239.901 44.171">
  <g id="Grupo_183720" data-name="Grupo 183720" transform="translate(-2530.378 4895.188)">
    <g id="Grupo_182912" data-name="Grupo 182912">
      <path id="Trazado_237869" data-name="Trazado 237869" d="M2711.828-4536.133h220.648" transform="translate(-181.45 -333)" fill="none" stroke="#12263f" stroke-width="8" stroke-dasharray="10 5"/>
      <path id="Trazado_237870" data-name="Trazado 237870" d="M2918.411-4570.2l15.191,15.191-15.191,15.19" transform="translate(-168.98 -314.023)" fill="none" stroke="#12263f" stroke-width="8"/>
    </g>
    <path id="Trazado_238586" data-name="Trazado 238586" d="M2.7-4.523l-.672.141v.047l.6.148L6.289-2.406l-.32,1.57L.641-3.8l.172-.844.063-.32L7.391-7.914l-.32,1.57Zm7.625,0-.672.141v.047l.6.148,3.656,1.781-.32,1.57L8.266-3.8l.172-.844.063-.32,6.516-2.953-.32,1.57ZM17.273,0H15.766l1.688-8.453h1.508ZM19.4-10.617H17.891l.313-1.57h1.508ZM22.43-7.289A3.69,3.69,0,0,1,23.6-8.27a2.991,2.991,0,0,1,1.4-.34,2.03,2.03,0,0,1,1.773.813,3.162,3.162,0,0,1,.25,2.461L25.953,0H24.445l1.063-5.3a2.308,2.308,0,0,0-.062-1.621,1.313,1.313,0,0,0-1.156-.434,2.053,2.053,0,0,0-1.086.332,3.347,3.347,0,0,0-.945.887L21.031,0H19.523l1.688-8.453h1.352ZM31.6-1.047a2.072,2.072,0,0,0,1.285-.474,1.793,1.793,0,0,0,.723-1.151h1.352l.016.047A2.965,2.965,0,0,1,33.758-.66a3.736,3.736,0,0,1-2.344.824A2.631,2.631,0,0,1,29-1.055a4.252,4.252,0,0,1-.469-3.008l.055-.328a5.586,5.586,0,0,1,1.387-3.043,3.709,3.709,0,0,1,2.84-1.176,2.639,2.639,0,0,1,2.105.879,2.444,2.444,0,0,1,.527,2.152l-.016.039H34.063A1.672,1.672,0,0,0,33.8-6.875,1.382,1.382,0,0,0,32.625-7.4a1.985,1.985,0,0,0-1.7.882A4.884,4.884,0,0,0,30.1-4.394l-.055.328a4.31,4.31,0,0,0,.109,2.181A1.371,1.371,0,0,0,31.6-1.047ZM37.711,0H36.2l2.438-12.187h1.508Zm7.32,0,.133-1.156a3.508,3.508,0,0,1-1.137.984,2.942,2.942,0,0,1-1.395.336,1.987,1.987,0,0,1-1.793-.9,3.732,3.732,0,0,1-.215-2.734l.992-4.984h1.508l-1,5a3.258,3.258,0,0,0-.031,1.9,1.081,1.081,0,0,0,1.039.465,2.384,2.384,0,0,0,1.262-.344,2.959,2.959,0,0,0,.957-.953l1.211-6.07H48.07L46.383,0Zm4.008-4.227a7.091,7.091,0,0,1,1.379-3.281,3.076,3.076,0,0,1,2.441-1.1,2.546,2.546,0,0,1,1.176.27,2.294,2.294,0,0,1,.863.762l.922-4.609h1.508L54.891,0h-1.3l.055-.812a3.227,3.227,0,0,1-1.035.73,3.035,3.035,0,0,1-1.223.246A2.222,2.222,0,0,1,49.34-1.055a4.253,4.253,0,0,1-.332-3.008Zm1.484.164a3.518,3.518,0,0,0,.1,2.16,1.4,1.4,0,0,0,1.406.816,1.7,1.7,0,0,0,1-.309,3.1,3.1,0,0,0,.809-.879l.8-3.992a1.791,1.791,0,0,0-.613-.8,1.693,1.693,0,0,0-1.02-.3,1.847,1.847,0,0,0-1.551.848,5.767,5.767,0,0,0-.895,2.285ZM60.484.164a2.739,2.739,0,0,1-2.41-1.184,4.064,4.064,0,0,1-.52-3.043l.055-.344a5.286,5.286,0,0,1,1.48-3.039,3.6,3.6,0,0,1,2.559-1.164,2.448,2.448,0,0,1,2.227,1.041,3.859,3.859,0,0,1,.406,2.747l-.156.963H59.031a3.377,3.377,0,0,0,.238,2.051,1.461,1.461,0,0,0,1.4.761,3.59,3.59,0,0,0,1.289-.229,3.624,3.624,0,0,0,1.047-.6l.43,1a3.866,3.866,0,0,1-1.219.743A4.645,4.645,0,0,1,60.484.164ZM61.461-7.4a1.757,1.757,0,0,0-1.27.656,3.809,3.809,0,0,0-.879,1.625l.023.047h3.477l.031-.2a2.365,2.365,0,0,0-.18-1.535A1.254,1.254,0,0,0,61.461-7.4Zm4.828,1.008.3-1.523,5.641,2.953-.062.313-.109.539L72-3.8,65.172-.836l.313-1.531,4.68-1.859.672-.141v-.047l-.6-.148Zm7.875,0,.3-1.523,5.641,2.953-.062.313-.109.539-.062.313L73.047-.836l.313-1.531,4.68-1.859.672-.141v-.047l-.6-.148Z" transform="translate(2616 -4883)" fill="#12263f"/>
  </g>
</svg>
