<?xml version="1.0" encoding="utf-8"?>
<!-- Generator: Adobe Illustrator 26.2.1, SVG Export Plug-In . SVG Version: 6.00 Build 0)  -->
<svg version="1.1" id="Layer_1" xmlns="http://www.w3.org/2000/svg" xmlns:xlink="http://www.w3.org/1999/xlink" x="0px" y="0px"
	 viewBox="0 0 239.9 43.2" style="enable-background:new 0 0 239.9 43.2;" xml:space="preserve">
<style type="text/css">
	.st0{fill:none;stroke:#12263F;stroke-width:8;stroke-dasharray:10,5;}
	.st1{fill:none;stroke:#12263F;stroke-width:8;}
	.st2{fill:#12263F;}
</style>
<g id="Grupo_182934" transform="translate(-1847.5 11671)">
	<path id="Trazado_237869" class="st0" d="M1847.5-11645.9h220.6"/>
	<path id="Trazado_237870" class="st1" d="M2066.6-11661l15.2,15.2l-15.2,15.2"/>
</g>
<g>
	<path class="st2" d="M75.1,8.6l-0.7,0.1v0l0.6,0.1l3.6,1.8l-0.3,1.6l-5.3-2.9l0.2-0.8l0.1-0.3l6.5-2.9l-0.3,1.6L75.1,8.6z"/>
	<path class="st2" d="M82.7,8.6L82,8.7v0l0.6,0.1l3.6,1.8l-0.3,1.6l-5.3-2.9l0.2-0.8l0.1-0.3l6.5-2.9L87,6.8L82.7,8.6z"/>
	<path class="st2" d="M95.5,7.8h-4.8l-0.8,4h5.5L95.2,13h-7l2.3-11.3h6.9L97.1,3h-5.4L91,6.6h4.8L95.5,7.8z"/>
	<path class="st2" d="M100.3,7.8l2.1-3.1h1.7l-3.2,4.1l1.9,4.2h-1.7L100,9.9L97.8,13h-1.7l3.3-4.2l-1.8-4.1h1.7L100.3,7.8z"/>
	<path class="st2" d="M108.2,2.6l-0.4,2h1.4l-0.2,1.1h-1.4l-1,5.1c-0.1,0.4-0.1,0.7,0,0.8c0.1,0.1,0.3,0.2,0.5,0.2
		c0.1,0,0.3,0,0.4,0c0.2,0,0.3,0,0.4-0.1l0,1c-0.1,0.1-0.4,0.2-0.6,0.2c-0.3,0.1-0.5,0.1-0.8,0.1c-0.5,0-1-0.2-1.2-0.6
		c-0.3-0.4-0.4-1-0.2-1.7l1-5.1h-1.2l0.2-1.1h1.2l0.4-2H108.2z"/>
	<path class="st2" d="M112.8,13.2c-1.1,0-1.8-0.4-2.4-1.2s-0.7-1.8-0.5-3l0.1-0.3c0.2-1.2,0.7-2.2,1.5-3s1.6-1.2,2.5-1.2
		c1,0,1.8,0.3,2.2,1c0.4,0.7,0.6,1.6,0.4,2.7l-0.2,1h-5c-0.1,0.9,0,1.5,0.2,2c0.3,0.5,0.7,0.8,1.4,0.8c0.5,0,0.9-0.1,1.3-0.2
		c0.4-0.2,0.7-0.4,1-0.6l0.4,1c-0.3,0.3-0.7,0.5-1.2,0.7C114.1,13.1,113.5,13.2,112.8,13.2z M113.8,5.7c-0.4,0-0.9,0.2-1.3,0.6
		s-0.7,1-0.9,1.6l0,0h3.4l0-0.2c0.1-0.6,0-1.1-0.2-1.5S114.4,5.7,113.8,5.7z"/>
	<path class="st2" d="M120.2,5.8c0.3-0.4,0.7-0.7,1.2-1c0.4-0.2,0.9-0.3,1.4-0.3c0.8,0,1.4,0.3,1.8,0.8s0.5,1.3,0.2,2.4l-1.1,5.3
		h-1.5l1.1-5.3c0.2-0.8,0.1-1.3-0.1-1.6c-0.2-0.3-0.6-0.4-1.1-0.4c-0.4,0-0.7,0.1-1.1,0.3s-0.7,0.5-0.9,0.9l-1.2,6.1h-1.5l1.7-8.4
		h1.3L120.2,5.8z"/>
	<path class="st2" d="M126.4,8.9c0.3-1.4,0.7-2.5,1.4-3.2s1.4-1.1,2.4-1.1c0.4,0,0.8,0.1,1.2,0.3s0.6,0.4,0.9,0.8l0.9-4.6h1.5
		L132.2,13h-1.3l0.1-0.8c-0.3,0.3-0.7,0.6-1,0.7c-0.4,0.2-0.8,0.2-1.2,0.2c-0.9,0-1.6-0.4-2-1.2s-0.6-1.8-0.3-3L126.4,8.9z M127.8,9
		c-0.2,0.9-0.1,1.6,0.1,2.1c0.2,0.5,0.7,0.8,1.4,0.8c0.4,0,0.7-0.1,1-0.3s0.6-0.5,0.8-0.9l0.8-4c-0.1-0.3-0.3-0.6-0.6-0.8
		s-0.6-0.3-1-0.3c-0.6,0-1.1,0.3-1.5,0.8s-0.7,1.3-0.9,2.3L127.8,9z"/>
	<path class="st2" d="M139.3,10.8c0.1-0.3,0-0.6-0.2-0.8s-0.6-0.4-1.2-0.6c-0.9-0.2-1.6-0.5-2-0.9c-0.4-0.4-0.6-0.9-0.5-1.5
		c0.1-0.7,0.5-1.3,1.1-1.8c0.6-0.5,1.4-0.7,2.2-0.7s1.6,0.3,2,0.8s0.6,1.1,0.5,1.8l0,0h-1.4c0.1-0.4,0-0.7-0.2-1
		c-0.2-0.3-0.6-0.4-1-0.4c-0.5,0-0.8,0.1-1.1,0.4c-0.3,0.2-0.5,0.5-0.5,0.9c-0.1,0.3,0,0.6,0.2,0.8c0.2,0.2,0.6,0.3,1.2,0.5
		c1,0.2,1.6,0.5,2.1,0.9c0.4,0.4,0.6,0.9,0.5,1.6c-0.1,0.8-0.5,1.4-1.1,1.8c-0.6,0.4-1.4,0.7-2.3,0.7c-1,0-1.7-0.3-2.2-0.8
		c-0.5-0.5-0.7-1.2-0.5-1.9l0,0h1.4c-0.1,0.5,0,0.9,0.3,1.2c0.3,0.2,0.7,0.4,1.1,0.4c0.5,0,0.9-0.1,1.2-0.3
		C139.1,11.4,139.3,11.2,139.3,10.8z"/>
	<path class="st2" d="M143.4,6.7l0.3-1.5l5.6,2.9l-0.1,0.3L149.1,9L149,9.3l-6.8,2.9l0.3-1.5l4.6-1.8l0.7-0.1v0l-0.6-0.1L143.4,6.7z
		"/>
	<path class="st2" d="M151.2,6.7l0.3-1.5l5.6,2.9L157,8.4L156.9,9l-0.1,0.3l-6.8,2.9l0.3-1.5l4.6-1.8l0.7-0.1v0l-0.6-0.1L151.2,6.7z
		"/>
</g>
</svg>
