<?xml version="1.0" encoding="utf-8"?>
<!-- Generator: Adobe Illustrator 26.4.1, SVG Export Plug-In . SVG Version: 6.00 Build 0)  -->
<svg version="1.1" id="Layer_1" xmlns="http://www.w3.org/2000/svg" xmlns:xlink="http://www.w3.org/1999/xlink" x="0px" y="0px"
	 viewBox="0 0 909.9 417.4" style="enable-background:new 0 0 909.9 417.4;" xml:space="preserve">
<style type="text/css">
	.st0{fill:none;}
	.st1{fill:#12263F;}
	.st2{fill:none;stroke:#12263F;stroke-width:4;}
	.st3{fill:none;stroke:#12263F;stroke-width:3;}
	.st4{fill:none;stroke:#FF0000;stroke-width:3.9993;stroke-miterlimit:3.9993;stroke-dasharray:7.9986,4.9991;}
	.st5{fill:none;stroke:#FF0000;stroke-width:3.9993;stroke-miterlimit:3.9993;}
	.st6{fill:none;stroke:#FF0000;stroke-width:4;stroke-dasharray:8,5;}
	.st7{fill:none;stroke:#FF0000;stroke-width:4;}
</style>
<g id="Grupo_183758" transform="translate(1400.692 2921.699)">
	<g id="Trazado_238620" transform="translate(-1265.616 -2921.699)">
		<path class="st0" d="M0,0h578v417.4H0V0z"/>
		<path class="st1" d="M3,3v411.4h572V3H3 M0,0h578v417.4H0V0z"/>
	</g>
	<path id="Trazado_238621" class="st1" d="M-965.3-2849.9c-0.5,0.6-1.2,1-1.9,1.2c-0.9,0.3-1.8,0.5-2.7,0.4c-1,0-1.9-0.2-2.8-0.7
		c-0.8-0.5-1.4-1.2-1.8-2c-0.4-1-0.7-2-0.7-3.1v-0.8c0-1.1,0.2-2.1,0.6-3.1c0.4-0.8,1-1.5,1.8-2c0.8-0.5,1.7-0.7,2.7-0.7
		c1.2-0.1,2.4,0.3,3.4,1c0.9,0.8,1.4,1.8,1.4,3h-2.4c-0.1-0.6-0.3-1.1-0.7-1.5c-0.4-0.3-1-0.5-1.6-0.5c-0.8,0-1.5,0.3-1.9,1
		c-0.5,0.9-0.7,1.8-0.7,2.8v0.8c-0.1,1,0.2,2,0.7,2.9c0.5,0.7,1.3,1,2.1,1c0.7,0.1,1.4-0.1,2-0.6v-2.1h-2.3v-1.8h4.8L-965.3-2849.9z
		 M-959.3-2848.2c-1.2,0-2.4-0.4-3.2-1.2c-0.8-0.9-1.3-2-1.2-3.2v-0.2c0-0.8,0.2-1.7,0.5-2.4c0.3-0.7,0.8-1.3,1.5-1.6
		c0.7-0.4,1.4-0.6,2.2-0.6c1.1-0.1,2.2,0.4,2.9,1.2c0.8,0.9,1.1,2.1,1.1,3.3v1h-5.7c0.1,0.5,0.3,1,0.7,1.4c0.4,0.4,0.9,0.6,1.5,0.5
		c0.8,0,1.7-0.3,2.2-1l1.2,1.3c-0.4,0.5-0.9,0.9-1.5,1.2C-957.9-2848.4-958.6-2848.2-959.3-2848.2z M-959.6-2855.6
		c-0.4,0-0.9,0.2-1.2,0.5c-0.3,0.4-0.5,0.9-0.6,1.4h3.3v-0.2c0-0.5-0.1-0.9-0.4-1.2C-958.7-2855.5-959.2-2855.6-959.6-2855.6z
		 M-952.1-2857.4l0.1,1c0.6-0.8,1.6-1.2,2.6-1.2c0.8-0.1,1.6,0.2,2.1,0.8c0.5,0.7,0.8,1.6,0.7,2.5v5.8h-2.4v-5.8
		c0-0.4-0.1-0.8-0.3-1.1c-0.3-0.3-0.7-0.4-1.1-0.3c-0.6,0-1.2,0.3-1.5,0.9v6.3h-2.4v-9H-952.1z M-940.6-2848.2
		c-1.2,0-2.4-0.4-3.2-1.2c-0.8-0.9-1.3-2-1.2-3.2v-0.2c0-0.8,0.2-1.7,0.5-2.4c0.3-0.7,0.8-1.3,1.5-1.6c0.7-0.4,1.4-0.6,2.2-0.6
		c1.1-0.1,2.2,0.4,2.9,1.2c0.8,0.9,1.1,2.1,1.1,3.3v1h-5.7c0.1,0.5,0.3,1,0.7,1.4c0.4,0.4,0.9,0.6,1.5,0.5c0.8,0,1.7-0.3,2.2-1
		l1.2,1.3c-0.4,0.5-0.9,0.9-1.5,1.2C-939.2-2848.4-939.9-2848.2-940.6-2848.2z M-940.9-2855.6c-0.4,0-0.9,0.2-1.2,0.5
		c-0.3,0.4-0.5,0.9-0.6,1.4h3.3v-0.2c0-0.5-0.1-0.9-0.4-1.2C-940-2855.5-940.5-2855.6-940.9-2855.6z M-930.5-2855.1
		c-0.3,0-0.6-0.1-0.9-0.1c-0.7-0.1-1.4,0.3-1.8,0.9v5.9h-2.4v-9h2.3l0.1,1.1c0.4-0.8,1.2-1.2,2-1.2c0.3,0,0.5,0,0.7,0.1
		L-930.5-2855.1z M-924.4-2848.4c-0.1-0.3-0.2-0.5-0.2-0.8c-0.6,0.6-1.4,1-2.3,1c-0.8,0-1.6-0.2-2.2-0.8c-0.6-0.5-0.9-1.2-0.9-1.9
		c0-0.9,0.4-1.7,1.1-2.2c0.9-0.6,2-0.8,3.1-0.8h1.1v-0.5c0-0.4-0.1-0.7-0.3-1c-0.3-0.3-0.6-0.4-1-0.4c-0.3,0-0.7,0.1-1,0.3
		c-0.2,0.2-0.4,0.5-0.3,0.8h-2.4c0-0.5,0.2-1,0.5-1.4c0.4-0.5,0.8-0.8,1.4-1c0.6-0.3,1.3-0.4,2-0.4c1-0.1,1.9,0.2,2.6,0.8
		c0.7,0.6,1,1.5,1,2.3v3.9c0,0.7,0.1,1.3,0.4,1.9v0.1H-924.4z M-926.4-2850.1c0.3,0,0.7-0.1,1-0.2c0.3-0.1,0.5-0.4,0.7-0.6v-1.5
		h-0.9c-1.2,0-1.8,0.4-1.9,1.2l0,0.1c0,0.3,0.1,0.6,0.3,0.7C-927-2850.2-926.7-2850-926.4-2850.1z M-915.4-2855.1
		c-0.3,0-0.6-0.1-0.9-0.1c-0.7-0.1-1.4,0.3-1.8,0.9v5.9h-2.4v-9h2.3l0.1,1.1c0.4-0.8,1.2-1.2,2-1.2c0.3,0,0.5,0,0.7,0.1
		L-915.4-2855.1z M-909.4-2848.4v-7.2h-1.3v-1.8h1.3v-0.8c-0.1-0.9,0.3-1.7,0.9-2.3c0.7-0.6,1.5-0.9,2.4-0.8c0.4,0,0.8,0.1,1.2,0.2
		l0,1.8c-0.2-0.1-0.5-0.1-0.7-0.1c-0.9,0-1.4,0.4-1.4,1.3v0.7h1.8v1.8h-1.8v7.2H-909.4z M-898.8-2848.4c-0.1-0.3-0.2-0.5-0.2-0.8
		c-0.6,0.6-1.4,1-2.3,1c-0.8,0-1.6-0.2-2.2-0.8c-0.6-0.5-0.9-1.2-0.9-1.9c0-0.9,0.4-1.7,1.1-2.2c0.9-0.6,2-0.8,3.1-0.8h1.1v-0.5
		c0-0.4-0.1-0.7-0.3-1c-0.3-0.3-0.6-0.4-1-0.4c-0.3,0-0.7,0.1-1,0.3c-0.2,0.2-0.4,0.5-0.3,0.8h-2.4c0-0.5,0.2-1,0.5-1.4
		c0.4-0.5,0.8-0.8,1.4-1c0.6-0.3,1.3-0.4,2-0.4c1-0.1,1.9,0.2,2.6,0.8c0.7,0.6,1,1.5,1,2.3v3.9c0,0.7,0.1,1.3,0.4,1.9v0.1H-898.8z
		 M-900.7-2850.1c0.3,0,0.7-0.1,1-0.2c0.3-0.1,0.5-0.4,0.7-0.6v-1.5h-0.9c-1.2,0-1.8,0.4-1.9,1.2l0,0.1c0,0.3,0.1,0.6,0.3,0.7
		C-901.4-2850.2-901.1-2850-900.7-2850.1z M-891.1-2850.2c0.4,0,0.8-0.1,1.1-0.4c0.3-0.2,0.4-0.6,0.4-1h2.2c0,0.6-0.2,1.2-0.5,1.7
		c-0.3,0.5-0.8,0.9-1.3,1.2c-0.6,0.3-1.2,0.4-1.9,0.4c-1.1,0.1-2.3-0.4-3-1.2c-0.8-0.9-1.2-2.2-1.1-3.4v-0.2
		c-0.1-1.2,0.3-2.4,1.1-3.3c0.8-0.8,1.9-1.3,3-1.2c1,0,2,0.3,2.7,1c0.7,0.7,1.1,1.6,1,2.6h-2.2c0-0.4-0.1-0.8-0.4-1.1
		c-0.3-0.3-0.7-0.5-1.1-0.4c-0.5,0-1,0.2-1.3,0.6c-0.3,0.6-0.5,1.3-0.4,2v0.2c-0.1,0.7,0.1,1.4,0.4,2
		C-892.1-2850.4-891.6-2850.1-891.1-2850.2z M-883.1-2859.6v2.2h1.5v1.8h-1.5v4.5c0,0.3,0,0.5,0.2,0.7c0.2,0.2,0.5,0.2,0.7,0.2
		c0.2,0,0.5,0,0.7-0.1v1.8c-0.5,0.1-1,0.2-1.5,0.2c-1.3,0.2-2.4-0.7-2.6-2c0-0.2,0-0.4,0-0.6v-4.8h-1.3v-1.8h1.3v-2.2L-883.1-2859.6
		z M-874.9-2849.3c-0.6,0.7-1.5,1.1-2.5,1.1c-0.8,0.1-1.6-0.2-2.2-0.8c-0.6-0.7-0.8-1.6-0.8-2.4v-5.9h2.4v5.8c0,0.9,0.4,1.4,1.3,1.4
		c0.7,0.1,1.3-0.3,1.7-0.8v-6.4h2.4v9h-2.3L-874.9-2849.3z M-865.7-2855.1c-0.3,0-0.6-0.1-0.9-0.1c-0.7-0.1-1.4,0.3-1.8,0.9v5.9
		h-2.4v-9h2.3l0.1,1.1c0.4-0.8,1.2-1.2,2-1.2c0.3,0,0.5,0,0.7,0.1L-865.7-2855.1z M-859.6-2848.4c-0.1-0.3-0.2-0.5-0.2-0.8
		c-0.6,0.6-1.4,1-2.3,1c-0.8,0-1.6-0.2-2.2-0.8c-0.6-0.5-0.9-1.2-0.9-1.9c0-0.9,0.4-1.7,1.1-2.2c0.9-0.6,2-0.8,3.1-0.8h1.1v-0.5
		c0-0.4-0.1-0.7-0.3-1c-0.3-0.3-0.6-0.4-1-0.4c-0.3,0-0.7,0.1-0.9,0.3c-0.2,0.2-0.4,0.5-0.3,0.8h-2.4c0-0.5,0.2-1,0.5-1.4
		c0.3-0.5,0.8-0.8,1.4-1c0.6-0.3,1.3-0.4,2-0.4c1-0.1,1.9,0.2,2.6,0.8c0.7,0.6,1,1.5,1,2.3v3.9c0,0.7,0.1,1.3,0.4,1.9v0.1H-859.6z
		 M-861.6-2850.1c0.3,0,0.7-0.1,1-0.2c0.3-0.1,0.5-0.4,0.7-0.6v-1.5h-0.9c-1.2,0-1.8,0.4-1.9,1.2l0,0.1c0,0.3,0.1,0.6,0.3,0.7
		C-862.2-2850.2-861.9-2850-861.6-2850.1z"/>
	<g id="Trazado_238569" transform="translate(-1038.961 -2883.4)">
		<path class="st0" d="M121.5,0C188.6,0,243,13.7,243,30.5S188.6,61,121.5,61S0,47.3,0,30.5S54.4,0,121.5,0z"/>
		<path class="st1" d="M121.5,3c-16.3,0-32.1,0.8-47,2.4c-14.3,1.5-27.2,3.7-38.2,6.5c-5.4,1.4-10.3,2.8-14.5,4.4
			c-4.2,1.6-7.8,3.2-10.7,4.9c-2.8,1.7-4.9,3.4-6.3,5C3.6,27.7,3,29.1,3,30.5s0.6,2.8,1.8,4.3c1.4,1.7,3.5,3.4,6.3,5
			c2.9,1.7,6.5,3.4,10.7,4.9c4.2,1.6,9.1,3.1,14.5,4.4c11,2.8,23.9,4.9,38.2,6.5c14.9,1.6,30.7,2.4,47,2.4s32.1-0.8,47-2.4
			c14.3-1.5,27.2-3.7,38.2-6.5c5.4-1.4,10.3-2.8,14.5-4.4c4.2-1.6,7.8-3.2,10.7-4.9c2.8-1.7,4.9-3.4,6.3-5c1.2-1.5,1.8-2.9,1.8-4.3
			s-0.6-2.8-1.8-4.3c-1.4-1.7-3.5-3.4-6.3-5c-2.9-1.7-6.5-3.4-10.7-4.9c-4.2-1.6-9.1-3.1-14.5-4.4c-11-2.8-23.9-4.9-38.2-6.5
			C153.6,3.8,137.8,3,121.5,3 M121.5,0C188.6,0,243,13.7,243,30.5S188.6,61,121.5,61S0,47.3,0,30.5S54.4,0,121.5,0z"/>
	</g>
	<g id="Trazado_238622" transform="translate(-1088.461 -2751.4)">
		<path class="st0" d="M121.5,0C188.6,0,243,13.9,243,31s-54.4,31-121.5,31S0,48.1,0,31S54.4,0,121.5,0z"/>
		<path class="st1" d="M121.5,3c-16.3,0-32.1,0.8-47,2.4C60.2,7,47.3,9.2,36.3,12c-5.4,1.4-10.3,2.9-14.5,4.5
			c-4.2,1.6-7.8,3.3-10.7,5C7.4,23.7,3,27.2,3,31s4.4,7.3,8.1,9.5c2.9,1.7,6.5,3.4,10.7,5c4.2,1.6,9.1,3.1,14.5,4.5
			c11,2.8,23.9,5,38.2,6.6c14.9,1.6,30.7,2.4,47,2.4s32.1-0.8,47-2.4c14.3-1.5,27.2-3.8,38.2-6.6c5.4-1.4,10.3-2.9,14.5-4.5
			c4.2-1.6,7.8-3.3,10.7-5c3.7-2.2,8.1-5.7,8.1-9.5s-4.4-7.3-8.1-9.5c-2.9-1.7-6.5-3.4-10.7-5c-4.2-1.6-9.1-3.1-14.5-4.5
			c-11-2.8-23.9-5-38.2-6.6C153.6,3.8,137.8,3,121.5,3 M121.5,0C188.6,0,243,13.9,243,31s-54.4,31-121.5,31S0,48.1,0,31
			S54.4,0,121.5,0z"/>
	</g>
	<path id="Trazado_238623" class="st1" d="M-1011.1-2720.7h-4.8v3.3h5.6v2h-8.1v-12.1h8.1v2h-5.6v2.9h4.8V-2720.7z M-1006.8-2724.4
		l0.1,1c0.6-0.8,1.6-1.2,2.6-1.2c0.8-0.1,1.6,0.2,2.1,0.8c0.5,0.7,0.8,1.6,0.7,2.5v5.8h-2.4v-5.8c0-0.4-0.1-0.8-0.3-1.1
		c-0.3-0.3-0.7-0.4-1.1-0.3c-0.6,0-1.2,0.3-1.5,0.9v6.3h-2.4v-9H-1006.8z M-996.1-2718.3l1.7-6.1h2.5l-3,9h-2.3l-3-9h2.5
		L-996.1-2718.3z M-988.3-2715.4h-2.4v-9h2.4V-2715.4z M-990.9-2726.7c0-0.3,0.1-0.7,0.4-0.9c0.3-0.2,0.6-0.4,1-0.3
		c0.4,0,0.7,0.1,1,0.3c0.2,0.2,0.4,0.6,0.4,0.9c0,0.3-0.1,0.7-0.4,0.9c-0.3,0.2-0.6,0.4-1,0.3c-0.4,0-0.7-0.1-1-0.3
		C-990.8-2726-990.9-2726.4-990.9-2726.7z M-981.2-2715.4c-0.1-0.3-0.2-0.5-0.2-0.8c-0.6,0.6-1.4,1-2.3,1c-0.8,0-1.6-0.2-2.2-0.8
		c-0.6-0.5-0.9-1.2-0.9-1.9c0-0.9,0.4-1.7,1.1-2.2c0.9-0.6,2-0.8,3.1-0.8h1.1v-0.5c0-0.4-0.1-0.7-0.3-1c-0.3-0.3-0.6-0.4-1-0.4
		c-0.3,0-0.7,0.1-1,0.3c-0.2,0.2-0.4,0.5-0.3,0.8h-2.4c0-0.5,0.2-1,0.5-1.4c0.4-0.5,0.8-0.8,1.4-1c0.6-0.3,1.3-0.4,2-0.4
		c1-0.1,1.9,0.2,2.6,0.8c0.7,0.6,1,1.5,1,2.3v3.9c0,0.7,0.1,1.3,0.4,1.9v0.1H-981.2z M-983.1-2717.1c0.3,0,0.7-0.1,1-0.2
		c0.3-0.1,0.5-0.4,0.7-0.6v-1.5h-0.9c-1.2,0-1.8,0.4-1.9,1.2l0,0.1c0,0.3,0.1,0.6,0.3,0.7C-983.8-2717.2-983.5-2717.1-983.1-2717.1z
		 M-972.2-2722.1c-0.3,0-0.6-0.1-0.9-0.1c-0.7-0.1-1.4,0.3-1.8,0.9v5.9h-2.4v-9h2.3l0.1,1.1c0.4-0.8,1.2-1.2,2-1.2
		c0.3,0,0.5,0,0.7,0.1L-972.2-2722.1z M-966.2-2715.4v-7.2h-1.3v-1.8h1.3v-0.8c-0.1-0.9,0.3-1.7,0.9-2.3c0.7-0.6,1.5-0.9,2.4-0.8
		c0.4,0,0.8,0.1,1.2,0.2l0,1.8c-0.2-0.1-0.5-0.1-0.7-0.1c-0.9,0-1.4,0.4-1.4,1.3v0.7h1.8v1.8h-1.8v7.2H-966.2z M-955.5-2715.4
		c-0.1-0.3-0.2-0.5-0.2-0.8c-0.6,0.6-1.4,1-2.3,1c-0.8,0-1.6-0.2-2.2-0.8c-0.6-0.5-0.9-1.2-0.9-1.9c0-0.9,0.4-1.7,1.1-2.2
		c0.9-0.6,2-0.8,3.1-0.8h1.1v-0.5c0-0.4-0.1-0.7-0.3-1c-0.3-0.3-0.6-0.4-1-0.4c-0.3,0-0.7,0.1-1,0.3c-0.2,0.2-0.4,0.5-0.3,0.8h-2.4
		c0-0.5,0.2-1,0.5-1.4c0.4-0.5,0.8-0.8,1.4-1c0.6-0.3,1.3-0.4,2-0.4c1-0.1,1.9,0.2,2.6,0.8c0.7,0.6,1,1.5,1,2.3v3.9
		c0,0.7,0.1,1.3,0.4,1.9v0.1H-955.5z M-957.5-2717.1c0.3,0,0.7-0.1,1-0.2c0.3-0.1,0.5-0.4,0.7-0.6v-1.5h-0.9c-1.2,0-1.8,0.4-1.9,1.2
		l0,0.1c0,0.3,0.1,0.6,0.3,0.7C-958.1-2717.2-957.8-2717.1-957.5-2717.1z M-947.9-2717.2c0.4,0,0.8-0.1,1.1-0.4
		c0.3-0.2,0.4-0.6,0.4-1h2.2c0,0.6-0.2,1.2-0.5,1.7c-0.3,0.5-0.8,0.9-1.3,1.2c-0.6,0.3-1.2,0.4-1.9,0.4c-1.1,0.1-2.3-0.4-3-1.2
		c-0.8-0.9-1.2-2.2-1.1-3.4v-0.2c-0.1-1.2,0.3-2.4,1.1-3.3c0.8-0.8,1.9-1.3,3-1.2c1,0,2,0.3,2.7,1c0.7,0.7,1.1,1.6,1,2.6h-2.3
		c0-0.4-0.1-0.8-0.4-1.1c-0.3-0.3-0.7-0.5-1.1-0.4c-0.5,0-1,0.2-1.3,0.6c-0.3,0.6-0.5,1.3-0.4,2v0.2c-0.1,0.7,0.1,1.4,0.4,2
		C-948.9-2717.4-948.4-2717.1-947.9-2717.2z M-939.9-2726.6v2.2h1.5v1.8h-1.5v4.5c0,0.3,0,0.5,0.2,0.7c0.2,0.2,0.5,0.2,0.7,0.2
		c0.2,0,0.5,0,0.7-0.1v1.8c-0.5,0.1-1,0.2-1.5,0.2c-1.3,0.2-2.4-0.7-2.6-2c0-0.2,0-0.4,0-0.6v-4.8h-1.3v-1.8h1.3v-2.2L-939.9-2726.6
		z M-931.6-2716.3c-0.6,0.7-1.5,1.1-2.5,1.1c-0.8,0.1-1.6-0.2-2.2-0.8c-0.6-0.7-0.8-1.6-0.8-2.4v-5.9h2.4v5.8c0,0.9,0.4,1.4,1.3,1.4
		c0.7,0.1,1.3-0.3,1.7-0.8v-6.4h2.4v9h-2.3L-931.6-2716.3z M-922.4-2722.1c-0.3,0-0.6-0.1-0.9-0.1c-0.7-0.1-1.4,0.3-1.8,0.9v5.9
		h-2.4v-9h2.3l0.1,1.1c0.4-0.8,1.2-1.2,2-1.2c0.3,0,0.5,0,0.7,0.1L-922.4-2722.1z M-916.3-2715.4c-0.1-0.3-0.2-0.5-0.2-0.8
		c-0.6,0.6-1.4,1-2.3,1c-0.8,0-1.6-0.2-2.2-0.8c-0.6-0.5-0.9-1.2-0.9-1.9c0-0.9,0.4-1.7,1.1-2.2c0.9-0.6,2-0.8,3.1-0.8h1.1v-0.5
		c0-0.4-0.1-0.7-0.3-1c-0.3-0.3-0.6-0.4-1-0.4c-0.3,0-0.7,0.1-1,0.3c-0.2,0.2-0.4,0.5-0.3,0.8h-2.4c0-0.5,0.2-1,0.5-1.4
		c0.4-0.5,0.8-0.8,1.4-1c0.6-0.3,1.3-0.4,2-0.4c1-0.1,1.9,0.2,2.6,0.8c0.7,0.6,1,1.5,1,2.3v3.9c0,0.7,0.1,1.3,0.4,1.9v0.1H-916.3z
		 M-918.3-2717.1c0.3,0,0.7-0.1,1-0.2c0.3-0.1,0.5-0.4,0.7-0.6v-1.5h-0.9c-1.2,0-1.8,0.4-1.9,1.2l0,0.1c0,0.3,0.1,0.6,0.3,0.7
		C-918.9-2717.2-918.6-2717.1-918.3-2717.1z"/>
	<g id="Trazado_238587" transform="translate(-966.961 -2618.4)">
		<path class="st0" d="M121.5,0C188.6,0,243,16.9,243,37.8s-54.4,37.8-121.5,37.8S0,58.7,0,37.8S54.4,0,121.5,0z"/>
		<path class="st1" d="M121.5,3c-16.3,0-32.1,1-46.9,2.9c-14.3,1.9-27.1,4.6-38.1,8c-5.4,1.7-10.2,3.5-14.5,5.5
			c-4.2,1.9-7.8,4-10.7,6.1c-2.8,2.1-5,4.2-6.4,6.3c-1.3,2-2,4-2,6s0.7,4,2,6c1.4,2.1,3.5,4.3,6.4,6.3c2.9,2.1,6.5,4.2,10.7,6.1
			c4.2,1.9,9.1,3.8,14.5,5.5c11,3.4,23.8,6.1,38.1,8c14.8,2,30.6,2.9,46.9,2.9s32.1-1,46.9-2.9c14.3-1.9,27.1-4.6,38.1-8
			c5.4-1.7,10.2-3.5,14.5-5.5c4.2-1.9,7.8-4,10.7-6.1c2.8-2.1,5-4.2,6.4-6.3c1.3-2,2-4,2-6s-0.7-4-2-6c-1.4-2.1-3.5-4.3-6.4-6.3
			c-2.9-2.1-6.5-4.2-10.7-6.1c-4.2-1.9-9.1-3.8-14.5-5.5c-11-3.4-23.8-6.1-38.1-8C153.6,4,137.8,3,121.5,3 M121.5,0
			C188.6,0,243,16.9,243,37.8s-54.4,37.8-121.5,37.8S0,58.7,0,37.8S54.4,0,121.5,0z"/>
	</g>
	<path id="Trazado_238624" class="st1" d="M-889.7-2590.7h-4.8v3.3h5.6v2h-8.1v-12.1h8.1v2h-5.6v2.9h4.8L-889.7-2590.7z
		 M-885.3-2594.4l0.1,1c0.6-0.8,1.6-1.2,2.6-1.2c0.8-0.1,1.6,0.2,2.1,0.8c0.5,0.7,0.8,1.6,0.7,2.5v5.8h-2.4v-5.8
		c0-0.4-0.1-0.8-0.3-1.1c-0.3-0.3-0.7-0.4-1.1-0.3c-0.6,0-1.2,0.3-1.5,0.9v6.3h-2.4v-9H-885.3z M-874.7-2588.3l1.7-6.1h2.5l-3,9
		h-2.3l-3-9h2.5L-874.7-2588.3z M-866.9-2585.4h-2.4v-9h2.4V-2585.4z M-869.4-2596.7c0-0.3,0.1-0.7,0.4-0.9c0.3-0.2,0.6-0.4,1-0.3
		c0.4,0,0.7,0.1,1,0.3c0.2,0.2,0.4,0.6,0.4,0.9c0,0.3-0.1,0.7-0.4,0.9c-0.3,0.2-0.6,0.4-1,0.3c-0.4,0-0.7-0.1-1-0.3
		C-869.3-2596-869.5-2596.4-869.4-2596.7z M-859.7-2585.4c-0.1-0.3-0.2-0.5-0.2-0.8c-0.6,0.6-1.4,1-2.3,1c-0.8,0-1.6-0.2-2.2-0.8
		c-0.6-0.5-0.9-1.2-0.9-1.9c0-0.9,0.4-1.7,1.1-2.2c0.9-0.6,2-0.8,3.1-0.8h1.1v-0.5c0-0.4-0.1-0.7-0.3-1c-0.3-0.3-0.6-0.4-1-0.4
		c-0.3,0-0.7,0.1-1,0.3c-0.2,0.2-0.4,0.5-0.3,0.8h-2.4c0-0.5,0.2-1,0.5-1.4c0.4-0.5,0.8-0.8,1.4-1c0.6-0.3,1.3-0.4,2-0.4
		c1-0.1,1.9,0.2,2.6,0.8c0.7,0.6,1,1.5,1,2.3v3.9c0,0.7,0.1,1.3,0.4,1.9v0.1H-859.7z M-861.7-2587.1c0.3,0,0.7-0.1,1-0.2
		c0.3-0.1,0.5-0.4,0.7-0.6v-1.5h-0.9c-1.2,0-1.8,0.4-1.9,1.2l0,0.1c0,0.3,0.1,0.6,0.3,0.7C-862.3-2587.2-862-2587.1-861.7-2587.1z
		 M-850.8-2592.1c-0.3,0-0.6-0.1-0.9-0.1c-0.7-0.1-1.4,0.3-1.8,0.9v5.9h-2.4v-9h2.3l0.1,1.1c0.4-0.8,1.2-1.2,2-1.2
		c0.3,0,0.5,0,0.7,0.1L-850.8-2592.1z M-844.7-2585.4v-7.2h-1.3v-1.8h1.3v-0.8c-0.1-0.9,0.3-1.7,0.9-2.3c0.7-0.6,1.5-0.9,2.4-0.8
		c0.4,0,0.8,0.1,1.2,0.2l0,1.8c-0.2-0.1-0.5-0.1-0.7-0.1c-0.9,0-1.4,0.4-1.4,1.3v0.7h1.8v1.8h-1.8v7.2H-844.7z M-834.1-2585.4
		c-0.1-0.3-0.2-0.5-0.2-0.8c-0.6,0.6-1.4,1-2.3,1c-0.8,0-1.6-0.2-2.2-0.8c-0.6-0.5-0.9-1.2-0.9-1.9c0-0.9,0.4-1.7,1.1-2.2
		c0.9-0.6,2-0.8,3.1-0.8h1.1v-0.5c0-0.4-0.1-0.7-0.3-1c-0.3-0.3-0.6-0.4-1-0.4c-0.3,0-0.7,0.1-1,0.3c-0.2,0.2-0.4,0.5-0.3,0.8h-2.4
		c0-0.5,0.2-1,0.5-1.4c0.4-0.5,0.8-0.8,1.4-1c0.6-0.3,1.3-0.4,2-0.4c1-0.1,1.9,0.2,2.6,0.8c0.7,0.6,1,1.5,1,2.3v3.9
		c0,0.7,0.1,1.3,0.4,1.9v0.1H-834.1z M-836.1-2587.1c0.3,0,0.7-0.1,1-0.2c0.3-0.1,0.5-0.4,0.7-0.6v-1.5h-0.9c-1.2,0-1.8,0.4-1.9,1.2
		l0,0.1c0,0.3,0.1,0.6,0.3,0.7C-836.7-2587.2-836.4-2587.1-836.1-2587.1z M-826.4-2587.2c0.4,0,0.8-0.1,1.1-0.4
		c0.3-0.2,0.4-0.6,0.4-1h2.2c0,0.6-0.2,1.2-0.5,1.7c-0.3,0.5-0.8,0.9-1.3,1.2c-0.6,0.3-1.2,0.4-1.9,0.4c-1.1,0.1-2.3-0.4-3-1.2
		c-0.8-0.9-1.2-2.2-1.1-3.4v-0.2c-0.1-1.2,0.3-2.4,1.1-3.3c0.8-0.8,1.9-1.3,3-1.2c1,0,2,0.3,2.7,1c0.7,0.7,1.1,1.6,1,2.6h-2.2
		c0-0.4-0.1-0.8-0.4-1.1c-0.3-0.3-0.7-0.5-1.1-0.4c-0.5,0-1,0.2-1.3,0.6c-0.3,0.6-0.5,1.3-0.4,2v0.2c-0.1,0.7,0.1,1.4,0.4,2
		C-827.4-2587.4-826.9-2587.1-826.4-2587.2L-826.4-2587.2z M-818.4-2596.6v2.2h1.5v1.8h-1.5v4.5c0,0.3,0,0.5,0.2,0.7
		c0.2,0.2,0.5,0.2,0.7,0.2c0.2,0,0.5,0,0.7-0.1v1.8c-0.5,0.1-1,0.2-1.5,0.2c-1.3,0.2-2.4-0.7-2.6-2c0-0.2,0-0.4,0-0.6v-4.8h-1.3
		v-1.8h1.3v-2.2L-818.4-2596.6z M-810.2-2586.3c-0.6,0.7-1.5,1.1-2.5,1.1c-0.8,0.1-1.6-0.2-2.2-0.8c-0.6-0.7-0.8-1.6-0.8-2.4v-5.9
		h2.4v5.8c0,0.9,0.4,1.4,1.3,1.4c0.7,0.1,1.3-0.3,1.7-0.8v-6.4h2.4v9h-2.3L-810.2-2586.3z M-801-2592.1c-0.3,0-0.6-0.1-0.9-0.1
		c-0.7-0.1-1.4,0.3-1.8,0.9v5.9h-2.4v-9h2.3l0.1,1.1c0.4-0.8,1.2-1.2,2-1.2c0.3,0,0.5,0,0.8,0.1L-801-2592.1z M-794.9-2585.4
		c-0.1-0.3-0.2-0.5-0.2-0.8c-0.6,0.6-1.4,1-2.3,1c-0.8,0-1.6-0.2-2.2-0.8c-0.6-0.5-0.9-1.2-0.9-1.9c0-0.9,0.4-1.7,1.1-2.2
		c0.9-0.6,2-0.8,3.1-0.8h1.1v-0.5c0-0.4-0.1-0.7-0.3-1c-0.3-0.3-0.6-0.4-1-0.4c-0.3,0-0.7,0.1-1,0.3c-0.2,0.2-0.4,0.5-0.3,0.8h-2.4
		c0-0.5,0.2-1,0.5-1.4c0.4-0.5,0.8-0.8,1.4-1c0.6-0.3,1.3-0.4,2-0.4c1-0.1,1.9,0.2,2.6,0.8c0.7,0.6,1,1.5,1,2.3v3.9
		c0,0.7,0.1,1.3,0.4,1.9v0.1H-794.9z M-796.9-2587.1c0.3,0,0.7-0.1,1-0.2c0.3-0.1,0.5-0.4,0.7-0.6v-1.5h-0.9c-1.2,0-1.8,0.4-1.9,1.2
		l0,0.1c0,0.3,0.1,0.6,0.3,0.7C-797.5-2587.2-797.2-2587.1-796.9-2587.1z M-865.1-2561.2c0.4,0,0.8-0.1,1.1-0.4
		c0.3-0.2,0.4-0.6,0.4-1h2.2c0,0.6-0.2,1.2-0.5,1.7c-0.3,0.5-0.8,0.9-1.3,1.2c-0.6,0.3-1.2,0.4-1.9,0.4c-1.1,0.1-2.2-0.4-3-1.2
		c-0.8-0.9-1.2-2.2-1.1-3.4v-0.2c-0.1-1.2,0.3-2.4,1.1-3.3c0.8-0.8,1.9-1.3,3-1.2c1,0,2,0.3,2.7,1c0.7,0.7,1.1,1.6,1,2.6h-2.2
		c0-0.4-0.1-0.8-0.4-1.1c-0.3-0.3-0.7-0.5-1.1-0.4c-0.5,0-1,0.2-1.3,0.6c-0.3,0.6-0.5,1.3-0.4,2v0.2c-0.1,0.7,0.1,1.4,0.4,2
		C-866.1-2561.4-865.6-2561.1-865.1-2561.2L-865.1-2561.2z M-860.3-2564c0-0.8,0.2-1.6,0.5-2.4c0.3-0.7,0.8-1.2,1.5-1.6
		c0.7-0.4,1.5-0.6,2.2-0.6c1.1,0,2.2,0.4,3,1.1c0.8,0.8,1.3,1.9,1.3,3l0,0.6c0.1,1.2-0.4,2.4-1.2,3.3c-0.8,0.8-1.9,1.3-3.1,1.2
		c-1.2,0.1-2.3-0.4-3.1-1.2c-0.8-0.9-1.2-2.2-1.2-3.4L-860.3-2564z M-857.9-2563.8c0,0.7,0.1,1.4,0.5,2c0.3,0.4,0.8,0.7,1.4,0.7
		c0.5,0,1-0.2,1.4-0.7c0.4-0.6,0.5-1.4,0.5-2.1c0-0.7-0.1-1.4-0.5-1.9c-0.3-0.5-0.8-0.7-1.4-0.7c-0.5,0-1.1,0.2-1.4,0.7
		C-857.8-2565.3-858-2564.5-857.9-2563.8L-857.9-2563.8z M-845.3-2566.1c-0.3,0-0.6-0.1-0.9-0.1c-0.7-0.1-1.4,0.3-1.8,0.9v5.9h-2.4
		v-9h2.3l0.1,1.1c0.4-0.8,1.2-1.2,2-1.2c0.3,0,0.5,0,0.7,0.1L-845.3-2566.1z M-839.1-2566.1c-0.3,0-0.6-0.1-0.9-0.1
		c-0.7-0.1-1.4,0.3-1.8,0.9v5.9h-2.4v-9h2.3l0.1,1.1c0.4-0.8,1.2-1.2,2-1.2c0.3,0,0.5,0,0.7,0.1L-839.1-2566.1z M-833.9-2559.2
		c-1.2,0-2.4-0.4-3.2-1.2c-0.8-0.9-1.3-2-1.2-3.2v-0.2c0-0.8,0.2-1.7,0.5-2.4c0.3-0.7,0.8-1.3,1.5-1.6c0.7-0.4,1.4-0.6,2.2-0.6
		c1.1-0.1,2.2,0.4,2.9,1.2c0.8,0.9,1.1,2.1,1.1,3.3v1h-5.7c0.1,0.5,0.3,1,0.7,1.4c0.4,0.4,0.9,0.6,1.5,0.5c0.8,0,1.7-0.3,2.2-1
		l1.2,1.3c-0.4,0.5-0.9,0.9-1.5,1.2C-832.5-2559.4-833.2-2559.2-833.9-2559.2L-833.9-2559.2z M-834.2-2566.6c-0.4,0-0.9,0.2-1.2,0.5
		c-0.3,0.4-0.5,0.9-0.6,1.4h3.3v-0.2c0-0.5-0.1-0.9-0.4-1.2C-833.4-2566.5-833.8-2566.6-834.2-2566.6L-834.2-2566.6z M-829.3-2564
		c0-0.8,0.2-1.6,0.5-2.4c0.3-0.7,0.8-1.2,1.5-1.6c0.7-0.4,1.5-0.6,2.2-0.6c1.1,0,2.2,0.4,3,1.1c0.8,0.8,1.3,1.9,1.3,3l0,0.6
		c0.1,1.2-0.4,2.4-1.2,3.3c-0.8,0.8-1.9,1.3-3.1,1.2c-1.2,0.1-2.3-0.4-3.1-1.2c-0.8-0.9-1.2-2.2-1.2-3.4L-829.3-2564z
		 M-826.9-2563.8c0,0.7,0.1,1.4,0.5,2c0.6,0.8,1.7,0.9,2.4,0.3c0.1-0.1,0.2-0.2,0.3-0.3c0.4-0.6,0.5-1.4,0.5-2.1
		c0-0.7-0.1-1.4-0.5-1.9c-0.3-0.5-0.8-0.7-1.4-0.7c-0.5,0-1.1,0.2-1.4,0.7C-826.7-2565.3-826.9-2564.5-826.9-2563.8L-826.9-2563.8z"
		/>
	<path id="Trazado_238602" class="st1" d="M-1151.8-2660.8l5.2,2.1v1.6l-6.8-3.1v-1.2l6.8-3.1v1.6L-1151.8-2660.8z M-1143.2-2660.8
		l5.2,2.1v1.6l-6.8-3.1v-1.2l6.8-3.1v1.6L-1143.2-2660.8z M-1134.6-2655.5h-1.6l1.8-9h1.6L-1134.6-2655.5z M-1132.3-2666.8h-1.6
		l0.3-1.7h1.6L-1132.3-2666.8z M-1129.1-2663.2c0.3-0.4,0.8-0.8,1.2-1c0.5-0.2,1-0.4,1.5-0.4c0.7-0.1,1.4,0.3,1.9,0.9
		c0.4,0.8,0.5,1.7,0.3,2.6l-1.1,5.7h-1.6l1.1-5.6c0.2-0.6,0.2-1.2-0.1-1.7c-0.3-0.3-0.8-0.5-1.2-0.5c-0.4,0-0.8,0.1-1.2,0.4
		c-0.4,0.2-0.7,0.6-1,0.9l-1.3,6.5h-1.6l1.8-9h1.4L-1129.1-2663.2z M-1119.4-2656.6c0.5,0,1-0.2,1.4-0.5c0.4-0.3,0.7-0.7,0.8-1.2
		h1.4l0,0.1c-0.1,0.8-0.6,1.6-1.3,2.1c-0.7,0.6-1.6,0.9-2.5,0.9c-1,0.1-2-0.4-2.6-1.3c-0.6-1-0.7-2.1-0.5-3.2l0.1-0.3
		c0.2-1.2,0.7-2.3,1.5-3.2c0.8-0.8,1.9-1.3,3-1.2c0.8,0,1.7,0.3,2.2,0.9c0.5,0.6,0.7,1.5,0.6,2.3l0,0h-1.4c0.1-0.5,0-1-0.3-1.4
		c-0.3-0.4-0.8-0.6-1.2-0.6c-0.7,0-1.4,0.3-1.8,0.9c-0.5,0.7-0.8,1.4-0.9,2.3l-0.1,0.3c-0.2,0.8-0.1,1.6,0.1,2.3
		C-1120.6-2656.9-1120-2656.5-1119.4-2656.6L-1119.4-2656.6z M-1112.9-2655.5h-1.6l2.6-12.9h1.6L-1112.9-2655.5z M-1105.1-2655.5
		l0.1-1.2c-0.3,0.4-0.7,0.8-1.2,1c-0.5,0.2-1,0.4-1.5,0.4c-0.8,0-1.5-0.3-1.9-1c-0.4-0.9-0.5-1.9-0.2-2.9l1.1-5.3h1.6l-1.1,5.3
		c-0.2,0.7-0.2,1.4,0,2c0.2,0.4,0.7,0.6,1.1,0.5c0.5,0,0.9-0.1,1.3-0.4c0.4-0.3,0.8-0.6,1-1l1.3-6.4h1.6l-1.8,9H-1105.1z
		 M-1100.8-2660c0.2-1.3,0.7-2.5,1.5-3.5c0.6-0.8,1.6-1.2,2.6-1.2c0.4,0,0.9,0.1,1.2,0.3c0.4,0.2,0.7,0.5,0.9,0.8l1-4.9h1.6l-2.6,13
		h-1.4l0.1-0.9c-0.3,0.3-0.7,0.6-1.1,0.8c-0.4,0.2-0.9,0.3-1.3,0.3c-0.9,0-1.8-0.5-2.2-1.3c-0.5-1-0.6-2.1-0.4-3.2L-1100.8-2660z
		 M-1099.2-2659.8c-0.2,0.8-0.2,1.6,0.1,2.3c0.3,0.6,0.9,0.9,1.5,0.9c0.4,0,0.7-0.1,1.1-0.3c0.3-0.3,0.6-0.6,0.9-0.9l0.8-4.2
		c-0.1-0.3-0.4-0.6-0.7-0.8c-0.3-0.2-0.7-0.3-1.1-0.3c-0.7,0-1.3,0.3-1.6,0.9c-0.5,0.7-0.8,1.6-0.9,2.4L-1099.2-2659.8z
		 M-1088.7-2655.3c-1,0.1-2-0.4-2.6-1.3c-0.6-1-0.8-2.1-0.6-3.2l0.1-0.4c0.2-1.2,0.7-2.4,1.6-3.2c0.7-0.8,1.7-1.2,2.7-1.2
		c0.9-0.1,1.8,0.3,2.4,1.1c0.5,0.9,0.7,1.9,0.4,2.9l-0.2,1h-5.4c-0.1,0.7-0.1,1.5,0.3,2.2c0.3,0.5,0.9,0.9,1.5,0.8
		c0.5,0,0.9-0.1,1.4-0.2c0.4-0.2,0.8-0.4,1.1-0.6l0.5,1.1c-0.4,0.3-0.8,0.6-1.3,0.8C-1087.4-2655.4-1088-2655.3-1088.7-2655.3z
		 M-1087.6-2663.4c-0.5,0-1,0.3-1.3,0.7c-0.4,0.5-0.8,1.1-0.9,1.7l0,0.1h3.7l0-0.2c0.1-0.5,0.1-1.1-0.2-1.6
		C-1086.6-2663.2-1087.1-2663.4-1087.6-2663.4L-1087.6-2663.4z M-1077.6-2660.9l-5.5-2.1v-1.6l7.1,3.1v1.2l-7.1,3.1v-1.6
		L-1077.6-2660.9z M-1068.7-2660.9l-5.5-2.1v-1.6l7.1,3.1v1.2l-7.1,3.1v-1.6L-1068.7-2660.9z"/>
	<path id="Trazado_238603" class="st1" d="M-863-2660.8l5.2,2.1v1.6l-6.8-3.1v-1.2l6.8-3.1v1.6L-863-2660.8z M-854.4-2660.8l5.2,2.1
		v1.6l-6.8-3.1v-1.2l6.8-3.1v1.6L-854.4-2660.8z M-843.9-2655.3c-1,0.1-2-0.4-2.6-1.3c-0.6-1-0.8-2.1-0.6-3.2l0.1-0.4
		c0.2-1.2,0.7-2.4,1.6-3.2c0.7-0.8,1.7-1.2,2.7-1.2c0.9-0.1,1.8,0.3,2.4,1.1c0.5,0.9,0.7,1.9,0.4,2.9l-0.2,1h-5.4
		c-0.1,0.7-0.1,1.5,0.3,2.2c0.3,0.5,0.9,0.9,1.5,0.8c0.5,0,0.9-0.1,1.4-0.2c0.4-0.2,0.8-0.4,1.1-0.6l0.5,1.1
		c-0.4,0.3-0.8,0.6-1.3,0.8C-842.6-2655.4-843.3-2655.3-843.9-2655.3z M-842.8-2663.4c-0.5,0-1,0.3-1.3,0.7
		c-0.4,0.5-0.8,1.1-0.9,1.7l0,0.1h3.7l0-0.2c0.1-0.5,0.1-1.1-0.2-1.6C-841.8-2663.2-842.3-2663.4-842.8-2663.4L-842.8-2663.4z
		 M-835.1-2661.2l2.2-3.3h1.9l-3.4,4.4l2,4.5h-1.8l-1.2-3.4l-2.3,3.4h-1.8l3.5-4.5l-2-4.4h1.8L-835.1-2661.2z M-826.6-2666.6
		l-0.4,2.2h1.5l-0.2,1.2h-1.6l-1.1,5.5c-0.1,0.3-0.1,0.6,0,0.9c0.1,0.2,0.4,0.3,0.6,0.2c0.2,0,0.3,0,0.5,0c0.1,0,0.3,0,0.4-0.1
		l0,1.1c-0.2,0.1-0.4,0.2-0.7,0.2c-0.3,0.1-0.6,0.1-0.9,0.1c-0.5,0-1-0.2-1.3-0.6c-0.3-0.6-0.4-1.2-0.2-1.9l1.1-5.5h-1.3l0.2-1.2
		h1.3l0.4-2.2H-826.6z M-821.7-2655.3c-1,0.1-2-0.4-2.6-1.3c-0.6-1-0.8-2.1-0.6-3.2l0.1-0.4c0.2-1.2,0.7-2.4,1.6-3.2
		c0.7-0.8,1.7-1.2,2.7-1.2c0.9-0.1,1.8,0.3,2.4,1.1c0.5,0.9,0.7,1.9,0.4,2.9l-0.2,1h-5.4c-0.1,0.7-0.1,1.5,0.3,2.2
		c0.3,0.5,0.9,0.9,1.5,0.8c0.5,0,0.9-0.1,1.4-0.2c0.4-0.2,0.8-0.4,1.1-0.6l0.5,1.1c-0.4,0.3-0.8,0.6-1.3,0.8
		C-820.4-2655.4-821-2655.3-821.7-2655.3z M-820.6-2663.4c-0.5,0-1,0.3-1.3,0.7c-0.4,0.5-0.8,1.1-0.9,1.7l0,0.1h3.7l0-0.2
		c0.1-0.5,0.1-1.1-0.2-1.6C-819.6-2663.2-820.1-2663.4-820.6-2663.4z M-813.7-2663.2c0.3-0.4,0.8-0.8,1.2-1c0.5-0.2,1-0.4,1.5-0.4
		c0.7-0.1,1.4,0.3,1.9,0.9c0.4,0.8,0.5,1.7,0.3,2.6l-1.1,5.7h-1.6l1.1-5.6c0.2-0.6,0.2-1.2-0.1-1.7c-0.3-0.3-0.8-0.5-1.2-0.5
		c-0.4,0-0.8,0.1-1.2,0.4c-0.4,0.2-0.7,0.6-1,0.9l-1.3,6.5h-1.6l1.8-9h1.4L-813.7-2663.2z M-807.2-2660c0.2-1.3,0.7-2.5,1.5-3.5
		c0.6-0.8,1.6-1.2,2.6-1.2c0.4,0,0.9,0.1,1.2,0.3c0.4,0.2,0.7,0.5,0.9,0.8l1-4.9h1.6l-2.6,13h-1.4l0.1-0.9c-0.3,0.3-0.7,0.6-1.1,0.8
		c-0.4,0.2-0.9,0.3-1.3,0.3c-0.9,0-1.8-0.5-2.2-1.3c-0.5-1-0.6-2.1-0.4-3.2L-807.2-2660z M-805.6-2659.8c-0.2,0.8-0.2,1.6,0.1,2.3
		c0.3,0.6,0.9,0.9,1.5,0.9c0.4,0,0.7-0.1,1.1-0.3c0.3-0.3,0.6-0.6,0.9-0.9l0.8-4.2c-0.1-0.3-0.4-0.6-0.7-0.8
		c-0.3-0.2-0.7-0.3-1.1-0.3c-0.7,0-1.3,0.3-1.6,0.9c-0.5,0.7-0.8,1.6-0.9,2.4L-805.6-2659.8z M-792.4-2660.9l-5.5-2.2v-1.6l7.1,3.1
		v1.2l-7.1,3.1v-1.6L-792.4-2660.9z M-783.6-2660.9l-5.5-2.1v-1.6l7.1,3.1v1.2l-7.1,3.1v-1.6L-783.6-2660.9z"/>
	<g id="Trazado_238587-2" transform="translate(-1236.32 -2618.4)">
		<path class="st0" d="M121.5,0C188.6,0,243,16.9,243,37.8s-54.4,37.8-121.5,37.8S0,58.7,0,37.8S54.4,0,121.5,0z"/>
		<path class="st1" d="M121.5,3c-16.3,0-32.1,1-46.9,2.9c-14.3,1.9-27.1,4.6-38.1,8c-5.4,1.7-10.2,3.5-14.5,5.5
			c-4.2,1.9-7.8,4-10.7,6.1c-2.8,2.1-5,4.2-6.4,6.3c-1.3,2-2,4-2,6s0.7,4,2,6c1.4,2.1,3.5,4.3,6.4,6.3c2.9,2.1,6.5,4.2,10.7,6.1
			c4.2,1.9,9.1,3.8,14.5,5.5c11,3.4,23.8,6.1,38.1,8c14.8,2,30.6,2.9,46.9,2.9s32.1-1,46.9-2.9c14.3-1.9,27.1-4.6,38.1-8
			c5.4-1.7,10.2-3.5,14.5-5.5c4.2-1.9,7.8-4,10.7-6.1c2.8-2.1,5-4.2,6.4-6.3c1.3-2,2-4,2-6s-0.7-4-2-6c-1.4-2.1-3.5-4.3-6.4-6.3
			c-2.9-2.1-6.5-4.2-10.7-6.1c-4.2-1.9-9.1-3.8-14.5-5.5c-11-3.4-23.8-6.1-38.1-8C153.6,4,137.8,3,121.5,3 M121.5,0
			C188.6,0,243,16.9,243,37.8s-54.4,37.8-121.5,37.8S0,58.7,0,37.8S54.4,0,121.5,0z"/>
	</g>
	<path id="Trazado_238625" class="st1" d="M-1114.1-2585.4v-7.2h-1.3v-1.8h1.3v-0.8c-0.1-0.9,0.3-1.7,0.9-2.3
		c0.7-0.6,1.5-0.9,2.4-0.8c0.4,0,0.8,0.1,1.2,0.2l0,1.8c-0.2-0.1-0.5-0.1-0.7-0.1c-0.9,0-1.4,0.4-1.4,1.3v0.7h1.8v1.8h-1.8v7.2
		H-1114.1z M-1103.4-2585.4c-0.1-0.3-0.2-0.5-0.2-0.8c-0.6,0.6-1.4,1-2.3,1c-0.8,0-1.6-0.2-2.2-0.8c-0.6-0.5-0.9-1.2-0.9-1.9
		c0-0.9,0.4-1.7,1.1-2.2c0.9-0.6,2-0.8,3.1-0.8h1.1v-0.5c0-0.4-0.1-0.7-0.3-1c-0.3-0.3-0.6-0.4-1-0.4c-0.3,0-0.7,0.1-1,0.3
		c-0.2,0.2-0.4,0.5-0.3,0.8h-2.4c0-0.5,0.2-1,0.5-1.4c0.4-0.5,0.8-0.8,1.4-1c0.6-0.3,1.3-0.4,2-0.4c1-0.1,1.9,0.2,2.6,0.8
		c0.7,0.6,1,1.5,1,2.3v3.9c0,0.7,0.1,1.3,0.4,1.9v0.1H-1103.4z M-1105.4-2587.1c0.3,0,0.7-0.1,1-0.2c0.3-0.1,0.5-0.4,0.7-0.6v-1.5
		h-0.9c-1.2,0-1.8,0.4-1.9,1.2l0,0.1c0,0.3,0.1,0.6,0.3,0.7C-1106-2587.2-1105.7-2587.1-1105.4-2587.1z M-1095.8-2587.2
		c0.4,0,0.8-0.1,1.1-0.4c0.3-0.2,0.4-0.6,0.4-1h2.2c0,0.6-0.2,1.2-0.5,1.7c-0.3,0.5-0.8,0.9-1.3,1.2c-0.6,0.3-1.2,0.4-1.9,0.4
		c-1.1,0.1-2.3-0.4-3-1.2c-0.8-0.9-1.2-2.2-1.1-3.4v-0.2c-0.1-1.2,0.3-2.4,1.1-3.3c0.8-0.8,1.9-1.3,3-1.2c1,0,2,0.3,2.7,1
		c0.7,0.7,1.1,1.6,1,2.6h-2.2c0-0.4-0.1-0.8-0.4-1.1c-0.3-0.3-0.7-0.5-1.1-0.4c-0.5,0-1,0.2-1.3,0.6c-0.3,0.6-0.5,1.3-0.4,2v0.2
		c-0.1,0.7,0.1,1.4,0.4,2C-1096.8-2587.4-1096.3-2587.1-1095.8-2587.2L-1095.8-2587.2z M-1087.8-2596.6v2.2h1.5v1.8h-1.5v4.5
		c0,0.3,0,0.5,0.2,0.7c0.2,0.2,0.5,0.2,0.7,0.2c0.2,0,0.5,0,0.7-0.1v1.8c-0.5,0.1-1,0.2-1.5,0.2c-1.3,0.2-2.4-0.7-2.6-2
		c0-0.2,0-0.4,0-0.6v-4.8h-1.3v-1.8h1.3v-2.2L-1087.8-2596.6z M-1079.5-2586.3c-0.6,0.7-1.5,1.1-2.5,1.1c-0.8,0.1-1.6-0.2-2.2-0.8
		c-0.6-0.7-0.8-1.6-0.8-2.4v-5.9h2.4v5.8c0,0.9,0.4,1.4,1.3,1.4c0.7,0.1,1.3-0.3,1.7-0.8v-6.4h2.4v9h-2.3L-1079.5-2586.3z
		 M-1070.4-2592.1c-0.3,0-0.6-0.1-0.9-0.1c-0.7-0.1-1.4,0.3-1.8,0.9v5.9h-2.4v-9h2.3l0.1,1.1c0.4-0.8,1.2-1.2,2-1.2
		c0.3,0,0.5,0,0.8,0.1L-1070.4-2592.1z M-1064.2-2585.4c-0.1-0.3-0.2-0.5-0.2-0.8c-0.6,0.6-1.4,1-2.3,1c-0.8,0-1.6-0.2-2.2-0.8
		c-0.6-0.5-0.9-1.2-0.9-1.9c0-0.9,0.4-1.7,1.1-2.2c0.9-0.6,2-0.8,3.1-0.8h1.1v-0.5c0-0.4-0.1-0.7-0.3-1c-0.3-0.3-0.6-0.4-1-0.4
		c-0.3,0-0.7,0.1-0.9,0.3c-0.2,0.2-0.4,0.5-0.3,0.8h-2.4c0-0.5,0.2-1,0.5-1.4c0.4-0.5,0.8-0.8,1.4-1c0.6-0.3,1.3-0.4,2-0.4
		c1-0.1,1.9,0.2,2.6,0.8c0.7,0.6,1,1.5,1,2.3v3.9c0,0.7,0.1,1.3,0.4,1.9v0.1H-1064.2z M-1066.2-2587.1c0.3,0,0.7-0.1,1-0.2
		c0.3-0.1,0.5-0.4,0.7-0.6v-1.5h-0.9c-1.2,0-1.8,0.4-1.9,1.2l0,0.1c0,0.3,0.1,0.6,0.3,0.7
		C-1066.9-2587.2-1066.5-2587.1-1066.2-2587.1z M-1134.4-2561.2c0.4,0,0.8-0.1,1.1-0.4c0.3-0.2,0.4-0.6,0.4-1h2.2
		c0,0.6-0.2,1.2-0.5,1.7c-0.3,0.5-0.8,0.9-1.3,1.2c-0.6,0.3-1.2,0.4-1.9,0.4c-1.1,0.1-2.2-0.4-3-1.2c-0.8-0.9-1.2-2.2-1.1-3.4v-0.2
		c-0.1-1.2,0.3-2.4,1.1-3.3c0.8-0.8,1.9-1.3,3-1.2c1,0,2,0.3,2.7,1c0.7,0.7,1.1,1.6,1,2.6h-2.2c0-0.4-0.1-0.8-0.4-1.1
		c-0.3-0.3-0.7-0.5-1.1-0.4c-0.5,0-1,0.2-1.3,0.6c-0.3,0.6-0.5,1.3-0.4,2v0.2c-0.1,0.7,0.1,1.4,0.4,2
		C-1135.4-2561.4-1134.9-2561.1-1134.4-2561.2L-1134.4-2561.2z M-1129.7-2564c0-0.8,0.2-1.6,0.5-2.4c0.3-0.7,0.8-1.2,1.5-1.6
		c0.7-0.4,1.5-0.6,2.2-0.6c1.1,0,2.2,0.4,3,1.1c0.8,0.8,1.3,1.9,1.3,3l0,0.6c0.1,1.2-0.4,2.4-1.2,3.3c-0.8,0.8-1.9,1.3-3.1,1.2
		c-1.2,0.1-2.3-0.4-3.1-1.2c-0.8-0.9-1.2-2.2-1.2-3.4L-1129.7-2564z M-1127.3-2563.8c0,0.7,0.1,1.4,0.5,2c0.3,0.4,0.8,0.7,1.4,0.7
		c0.5,0,1-0.2,1.4-0.7c0.4-0.6,0.5-1.4,0.5-2.1c0-0.7-0.1-1.4-0.5-1.9c-0.3-0.5-0.8-0.7-1.4-0.7c-0.5,0-1.1,0.2-1.4,0.7
		C-1127.2-2565.3-1127.3-2564.5-1127.3-2563.8L-1127.3-2563.8z M-1114.6-2566.1c-0.3,0-0.6-0.1-0.9-0.1c-0.7-0.1-1.4,0.3-1.8,0.9
		v5.9h-2.4v-9h2.3l0.1,1.1c0.4-0.8,1.2-1.2,2-1.2c0.3,0,0.5,0,0.7,0.1L-1114.6-2566.1z M-1108.4-2566.1c-0.3,0-0.6-0.1-0.9-0.1
		c-0.7-0.1-1.4,0.3-1.8,0.9v5.9h-2.4v-9h2.3l0.1,1.1c0.4-0.8,1.2-1.2,2-1.2c0.3,0,0.5,0,0.7,0.1L-1108.4-2566.1z M-1103.3-2559.2
		c-1.2,0-2.4-0.4-3.2-1.2c-0.8-0.9-1.3-2-1.2-3.2v-0.2c0-0.8,0.2-1.7,0.5-2.4c0.3-0.7,0.8-1.3,1.5-1.6c0.7-0.4,1.4-0.6,2.2-0.6
		c1.1-0.1,2.2,0.4,2.9,1.2c0.8,0.9,1.1,2.1,1.1,3.3v1h-5.7c0.1,0.5,0.3,1,0.7,1.4c0.4,0.4,0.9,0.6,1.5,0.5c0.8,0,1.7-0.3,2.2-1
		l1.2,1.3c-0.4,0.5-0.9,0.9-1.5,1.2C-1101.9-2559.4-1102.6-2559.2-1103.3-2559.2L-1103.3-2559.2z M-1103.6-2566.6
		c-0.4,0-0.9,0.2-1.2,0.5c-0.3,0.4-0.5,0.9-0.6,1.4h3.3v-0.2c0-0.5-0.1-0.9-0.4-1.2C-1102.7-2566.5-1103.1-2566.6-1103.6-2566.6
		L-1103.6-2566.6z M-1098.6-2564c0-0.8,0.2-1.6,0.5-2.4c0.3-0.7,0.8-1.2,1.5-1.6c0.7-0.4,1.5-0.6,2.2-0.6c1.1,0,2.2,0.4,3,1.1
		c0.8,0.8,1.3,1.9,1.3,3l0,0.6c0.1,1.2-0.4,2.4-1.2,3.3c-0.8,0.8-1.9,1.3-3.1,1.2c-1.2,0.1-2.3-0.4-3.1-1.2
		c-0.8-0.9-1.2-2.2-1.2-3.4L-1098.6-2564z M-1096.2-2563.8c0,0.7,0.1,1.4,0.5,2c0.6,0.8,1.7,0.9,2.4,0.3c0.1-0.1,0.2-0.2,0.3-0.3
		c0.4-0.6,0.5-1.4,0.5-2.1c0-0.7-0.1-1.4-0.5-1.9c-0.3-0.5-0.8-0.7-1.4-0.7c-0.5,0-1.1,0.2-1.4,0.7
		C-1096.1-2565.3-1096.3-2564.5-1096.2-2563.8L-1096.2-2563.8z M-1173.7-2585.4v-11.9h4.2c1.4,0,2.5,0.3,3.3,0.8
		c0.7,0.6,1.1,1.4,1.1,2.4c0,0.6-0.2,1.1-0.5,1.5c-0.3,0.4-0.7,0.8-1.3,1c0.6,0.2,1.1,0.5,1.4,0.9c0.4,0.5,0.5,1,0.5,1.7
		c0,1.1-0.4,2-1.1,2.6c-0.7,0.6-1.8,0.9-3.1,0.9H-1173.7z M-1171.2-2592.3h1.8c1.2,0,1.9-0.5,1.9-1.5c0-0.5-0.2-0.9-0.5-1.2
		c-0.3-0.2-0.8-0.4-1.5-0.4h-1.7V-2592.3z M-1171.2-2590.6v3.2h2.1c0.6,0,1-0.1,1.4-0.4c0.3-0.3,0.5-0.7,0.5-1.1
		c0-1.1-0.6-1.6-1.7-1.7H-1171.2z M-1157.8-2586.3c-0.6,0.7-1.4,1.1-2.4,1.1c-0.9,0-1.7-0.3-2.2-0.8c-0.5-0.5-0.8-1.3-0.8-2.4v-5.8
		h2.4v5.7c0,0.9,0.4,1.4,1.3,1.4c0.8,0,1.4-0.3,1.7-0.8v-6.3h2.4v8.9h-2.2L-1157.8-2586.3z M-1149-2587.8c0-0.3-0.1-0.5-0.4-0.7
		s-0.7-0.3-1.4-0.4c-2.1-0.4-3.2-1.3-3.2-2.7c0-0.8,0.3-1.4,1-2c0.7-0.5,1.5-0.8,2.6-0.8c1.1,0,2,0.3,2.7,0.8s1,1.2,1,2.1h-2.4
		c0-0.3-0.1-0.6-0.3-0.8c-0.2-0.2-0.6-0.3-1-0.3c-0.4,0-0.7,0.1-0.9,0.3s-0.3,0.4-0.3,0.7c0,0.3,0.1,0.5,0.4,0.6s0.7,0.3,1.3,0.4
		c0.6,0.1,1.1,0.2,1.5,0.4c1.2,0.5,1.9,1.3,1.9,2.4c0,0.8-0.3,1.5-1,2c-0.7,0.5-1.6,0.7-2.7,0.7c-0.7,0-1.4-0.1-2-0.4
		c-0.6-0.3-1-0.6-1.4-1.1s-0.5-1-0.5-1.5h2.2c0,0.4,0.2,0.7,0.5,1c0.3,0.2,0.7,0.3,1.2,0.3c0.5,0,0.8-0.1,1-0.3
		S-1149-2587.6-1149-2587.8z M-1141.5-2587.1c0.4,0,0.8-0.1,1.1-0.4s0.4-0.6,0.4-1h2.2c0,0.6-0.2,1.1-0.5,1.6
		c-0.3,0.5-0.8,0.9-1.3,1.2s-1.2,0.4-1.9,0.4c-1.3,0-2.3-0.4-3-1.2c-0.7-0.8-1.1-1.9-1.1-3.3v-0.2c0-1.4,0.4-2.5,1.1-3.3
		c0.7-0.8,1.7-1.2,3-1.2c1.1,0,2,0.3,2.7,0.9c0.7,0.6,1,1.5,1,2.5h-2.2c0-0.5-0.2-0.8-0.4-1.1c-0.3-0.3-0.6-0.4-1.1-0.4
		c-0.6,0-1,0.2-1.2,0.6c-0.3,0.4-0.4,1.1-0.4,2v0.2c0,0.9,0.1,1.6,0.4,2C-1142.5-2587.3-1142-2587.1-1141.5-2587.1z M-1131.3-2585.4
		c-0.1-0.2-0.2-0.5-0.2-0.8c-0.6,0.6-1.3,1-2.2,1c-0.9,0-1.6-0.3-2.2-0.8c-0.6-0.5-0.9-1.1-0.9-1.9c0-0.9,0.3-1.7,1-2.2
		c0.7-0.5,1.7-0.8,3-0.8h1.1v-0.5c0-0.4-0.1-0.7-0.3-1c-0.2-0.2-0.5-0.4-1-0.4c-0.4,0-0.7,0.1-0.9,0.3s-0.3,0.5-0.3,0.8h-2.4
		c0-0.5,0.2-1,0.5-1.4c0.3-0.4,0.8-0.8,1.3-1c0.6-0.2,1.2-0.4,1.9-0.4c1.1,0,2,0.3,2.6,0.8s1,1.3,1,2.3v3.8c0,0.8,0.1,1.5,0.4,1.9
		v0.1H-1131.3z M-1133.2-2587c0.3,0,0.7-0.1,1-0.2c0.3-0.2,0.5-0.4,0.7-0.6v-1.5h-0.9c-1.2,0-1.8,0.4-1.9,1.2l0,0.1
		c0,0.3,0.1,0.5,0.3,0.7C-1133.9-2587.1-1133.6-2587-1133.2-2587z M-1122.5-2592c-0.3,0-0.6-0.1-0.9-0.1c-0.9,0-1.5,0.3-1.8,0.9v5.8
		h-2.4v-8.9h2.2l0.1,1.1c0.5-0.8,1.1-1.2,2-1.2c0.3,0,0.5,0,0.7,0.1L-1122.5-2592z"/>
	<path id="Trazado_238626" class="st1" d="M-1390.3-2737.1c0,1.2-0.6,2.4-1.5,3.3c-1,0.8-2.3,1.2-3.6,1.2c-1.5,0.1-2.9-0.5-3.9-1.7
		c-1-1.3-1.5-2.9-1.4-4.5v-0.8c0-1.1,0.2-2.2,0.7-3.3c0.4-0.9,1-1.6,1.9-2.2c0.8-0.5,1.8-0.8,2.8-0.8c1.3-0.1,2.6,0.4,3.6,1.2
		c0.9,0.9,1.5,2.1,1.6,3.3h-2.6c0-0.7-0.2-1.3-0.7-1.8c-0.5-0.4-1.2-0.6-1.8-0.6c-0.8,0-1.5,0.3-2,0.9c-0.5,0.9-0.7,1.9-0.7,2.9v1
		c-0.1,1,0.1,2.1,0.6,3c0.4,0.7,1.2,1,2,1c0.7,0.1,1.3-0.1,1.8-0.6c0.4-0.5,0.7-1.1,0.7-1.7H-1390.3z M-1389.1-2737.7
		c0-0.9,0.2-1.7,0.5-2.5c0.3-0.7,0.9-1.3,1.6-1.7c0.7-0.4,1.5-0.6,2.4-0.6c1.2,0,2.3,0.4,3.1,1.2c0.8,0.9,1.3,2,1.4,3.2l0,0.6
		c0.1,1.3-0.4,2.5-1.2,3.5c-0.8,0.9-2,1.4-3.3,1.3c-1.2,0.1-2.4-0.4-3.3-1.3c-0.9-1-1.3-2.3-1.2-3.6V-2737.7z M-1386.6-2737.5
		c0,0.7,0.1,1.5,0.5,2.1c0.3,0.5,0.9,0.7,1.5,0.7c0.6,0,1.1-0.2,1.4-0.7c0.4-0.7,0.6-1.5,0.5-2.3c0-0.7-0.1-1.4-0.5-2.1
		c-0.3-0.5-0.9-0.8-1.5-0.7c-0.6,0-1.1,0.3-1.4,0.7C-1386.4-2739.1-1386.6-2738.3-1386.6-2737.5L-1386.6-2737.5z M-1376.1-2742.4
		l0.1,1.1c0.7-0.8,1.7-1.3,2.7-1.2c1.1-0.1,2.1,0.5,2.5,1.4c0.6-0.9,1.7-1.5,2.9-1.4c0.9-0.1,1.7,0.3,2.3,0.9
		c0.6,0.8,0.8,1.7,0.8,2.7v6.1h-2.5v-6.1c0-0.4-0.1-0.8-0.3-1.2c-0.3-0.3-0.7-0.4-1.1-0.4c-0.7,0-1.4,0.4-1.6,1.1l0,6.5h-2.5v-6.1
		c0-0.4-0.1-0.9-0.3-1.2c-0.3-0.3-0.7-0.4-1.1-0.4c-0.7,0-1.3,0.3-1.6,0.9v6.7h-2.5v-9.5H-1376.1z M-1358.6-2732.7
		c-1.3,0.1-2.5-0.4-3.4-1.3c-0.9-0.9-1.4-2.1-1.3-3.4v-0.2c0-0.9,0.2-1.8,0.6-2.6c0.3-0.7,0.9-1.3,1.6-1.7c0.7-0.4,1.5-0.6,2.3-0.6
		c1.2-0.1,2.3,0.4,3.1,1.2c0.8,1,1.2,2.2,1.1,3.5v1h-6.1c0.1,0.6,0.3,1.1,0.7,1.5c0.4,0.4,1,0.6,1.6,0.6c0.9,0,1.7-0.4,2.3-1.1
		l1.2,1.4c-0.4,0.5-0.9,1-1.5,1.3C-1357.1-2732.8-1357.8-2732.7-1358.6-2732.7z M-1358.8-2740.5c-0.5,0-0.9,0.2-1.2,0.5
		c-0.3,0.4-0.6,0.9-0.6,1.5h3.5v-0.2c0-0.5-0.1-0.9-0.5-1.3C-1357.9-2740.3-1358.4-2740.5-1358.8-2740.5z M-1347.9-2740
		c-0.3,0-0.6-0.1-0.9-0.1c-0.8-0.1-1.5,0.3-1.9,1v6.2h-2.5v-9.5h2.4l0.1,1.1c0.4-0.8,1.2-1.3,2.1-1.3c0.3,0,0.5,0,0.8,0.1
		L-1347.9-2740z M-1342.8-2734.7c0.4,0,0.8-0.1,1.1-0.4c0.3-0.3,0.5-0.6,0.5-1h2.4c0,0.6-0.2,1.2-0.5,1.8c-0.4,0.5-0.8,1-1.4,1.2
		c-0.6,0.3-1.3,0.5-2,0.4c-1.2,0.1-2.4-0.4-3.2-1.3c-0.8-1-1.3-2.3-1.2-3.6v-0.2c-0.1-1.3,0.4-2.5,1.2-3.5c0.8-0.9,2-1.4,3.2-1.3
		c1-0.1,2.1,0.3,2.9,1c0.7,0.7,1.1,1.7,1.1,2.7h-2.4c0-0.4-0.2-0.9-0.5-1.2c-0.3-0.3-0.7-0.5-1.2-0.5c-0.5,0-1,0.2-1.3,0.6
		c-0.4,0.6-0.5,1.4-0.5,2.1v0.3c-0.1,0.7,0.1,1.5,0.4,2.1C-1343.9-2734.9-1343.4-2734.7-1342.8-2734.7z M-1334.7-2732.9h-2.5v-9.5
		h2.5V-2732.9z M-1337.4-2744.8c0-0.4,0.1-0.7,0.4-0.9c0.3-0.3,0.7-0.4,1-0.4c0.4,0,0.8,0.1,1,0.4c0.3,0.2,0.4,0.6,0.4,0.9
		c0,0.4-0.1,0.7-0.4,0.9c-0.3,0.3-0.7,0.4-1,0.4c-0.4,0-0.8-0.1-1-0.4C-1337.3-2744.1-1337.4-2744.5-1337.4-2744.8L-1337.4-2744.8z
		 M-1327.1-2732.9c-0.1-0.3-0.2-0.6-0.3-0.9c-0.6,0.7-1.5,1.1-2.4,1c-0.8,0-1.7-0.3-2.3-0.8c-0.6-0.5-0.9-1.3-0.9-2
		c0-0.9,0.4-1.8,1.1-2.3c1-0.6,2.1-0.9,3.2-0.8h1.2v-0.5c0-0.4-0.1-0.8-0.3-1.1c-0.3-0.3-0.7-0.4-1.1-0.4c-0.4,0-0.7,0.1-1,0.3
		c-0.2,0.2-0.4,0.5-0.4,0.8h-2.5c0-0.6,0.2-1.1,0.5-1.5c0.4-0.5,0.9-0.9,1.4-1.1c0.7-0.3,1.4-0.4,2.1-0.4c1-0.1,2,0.3,2.8,0.9
		c0.7,0.6,1.1,1.5,1,2.5v4.1c0,0.7,0.1,1.4,0.4,2v0.2H-1327.1z M-1329.2-2734.6c0.4,0,0.7-0.1,1-0.2c0.3-0.1,0.5-0.4,0.7-0.7v-1.6
		h-0.9c-1.3,0-1.9,0.4-2,1.3l0,0.1c0,0.3,0.1,0.6,0.3,0.8C-1329.9-2734.7-1329.6-2734.6-1329.2-2734.6L-1329.2-2734.6z
		 M-1320.7-2742.4l0.1,1.1c0.7-0.8,1.7-1.3,2.7-1.3c0.8-0.1,1.7,0.3,2.2,0.9c0.5,0.8,0.8,1.7,0.8,2.7v6.1h-2.5v-6.1
		c0-0.4-0.1-0.8-0.4-1.2c-0.3-0.3-0.7-0.4-1.2-0.4c-0.7,0-1.3,0.3-1.6,0.9v6.7h-2.5v-9.5H-1320.7z M-1309.9-2744.7v2.3h1.6v1.9h-1.6
		v4.7c0,0.3,0,0.5,0.2,0.8c0.2,0.2,0.5,0.3,0.8,0.2c0.3,0,0.5,0,0.7-0.1v1.9c-0.5,0.2-1,0.2-1.5,0.2c-1.3,0.2-2.5-0.8-2.7-2.1
		c0-0.2,0-0.4,0-0.6v-5.1h-1.4v-1.9h1.4v-2.3H-1309.9z M-1302.5-2732.7c-1.3,0.1-2.5-0.4-3.4-1.3c-0.9-0.9-1.4-2.1-1.3-3.4v-0.2
		c0-0.9,0.2-1.8,0.6-2.6c0.3-0.7,0.9-1.3,1.6-1.7c0.7-0.4,1.5-0.6,2.3-0.6c1.2-0.1,2.3,0.4,3.1,1.2c0.8,1,1.2,2.2,1.1,3.5v1h-6.1
		c0.1,0.6,0.3,1.1,0.7,1.5c0.4,0.4,1,0.6,1.6,0.6c0.9,0,1.7-0.4,2.3-1.1l1.2,1.4c-0.4,0.6-0.9,1-1.5,1.3
		C-1301-2732.8-1301.7-2732.7-1302.5-2732.7z M-1302.7-2740.5c-0.5,0-0.9,0.2-1.2,0.5c-0.3,0.4-0.6,0.9-0.6,1.5h3.5v-0.2
		c0-0.5-0.1-0.9-0.5-1.3C-1301.8-2740.3-1302.3-2740.5-1302.7-2740.5z"/>
	<g id="Grupo_183689" transform="translate(-1370.22 -2864.922)">
		<g id="Elipse_6343" transform="translate(0.492 -0.479)">
			<ellipse class="st0" cx="23" cy="23.5" rx="23" ry="23.5"/>
			<ellipse class="st2" cx="23" cy="23.5" rx="21" ry="21.5"/>
		</g>
		<path id="Trazado_238529" class="st2" d="M23.1,46.4v39.3"/>
		<path id="Trazado_238530" class="st2" d="M5,106l18.3-21.4L39.7,106"/>
		<path id="Trazado_238531" class="st2" d="M5,60.1h34.7"/>
	</g>
	<g id="Grupo_183694" transform="translate(-575.979 -2871.545)">
		<g id="Elipse_6343-2" transform="translate(0.017 0.145)">
			<circle class="st0" cx="23" cy="23" r="23"/>
			<circle class="st2" cx="23" cy="23" r="21"/>
		</g>
		<path id="Trazado_238529-2" class="st2" d="M23.1,46.4v39.3"/>
		<path id="Trazado_238530-2" class="st2" d="M5,106l18.3-21.4L39.7,106"/>
		<path id="Trazado_238531-2" class="st2" d="M5,60.1h34.7"/>
	</g>
	<path id="Trazado_238627" class="st1" d="M-614.6-2730.5c0-0.4-0.2-0.9-0.5-1.1c-0.6-0.4-1.2-0.7-1.9-0.8c-0.7-0.2-1.5-0.5-2.2-0.9
		c-1.3-0.5-2.1-1.8-2.2-3.2c0-0.7,0.2-1.3,0.6-1.9c0.4-0.6,1-1,1.7-1.3c0.8-0.3,1.6-0.5,2.5-0.5c0.8,0,1.7,0.2,2.4,0.5
		c0.7,0.3,1.3,0.8,1.7,1.4c0.4,0.6,0.6,1.3,0.6,2.1h-2.6c0-0.5-0.2-1-0.6-1.4c-0.4-0.3-1-0.5-1.6-0.5c-0.5,0-1.1,0.1-1.5,0.4
		c-0.3,0.2-0.5,0.7-0.5,1.1c0,0.4,0.2,0.8,0.6,1c0.6,0.4,1.2,0.6,1.9,0.8c1.2,0.3,2.3,0.9,3.3,1.7c0.7,0.7,1.1,1.6,1,2.5
		c0,1-0.4,2-1.3,2.6c-1,0.7-2.2,1-3.4,0.9c-0.9,0-1.8-0.2-2.7-0.5c-0.7-0.3-1.4-0.8-1.8-1.5c-0.4-0.6-0.7-1.4-0.6-2.2h2.6
		c0,1.4,0.8,2.1,2.5,2.1c0.5,0,1-0.1,1.5-0.4C-614.8-2729.7-614.6-2730.1-614.6-2730.5z M-607.6-2727.2h-2.5v-9.5h2.5V-2727.2z
		 M-610.3-2739.1c0-0.4,0.1-0.7,0.4-0.9c0.3-0.3,0.7-0.4,1-0.4c0.4,0,0.8,0.1,1,0.4c0.3,0.2,0.4,0.6,0.4,0.9c0,0.4-0.1,0.7-0.4,0.9
		c-0.3,0.3-0.7,0.4-1,0.4c-0.4,0-0.8-0.1-1-0.4C-610.2-2738.4-610.3-2738.8-610.3-2739.1L-610.3-2739.1z M-600.4-2729.8
		c0-0.3-0.2-0.6-0.5-0.7c-0.5-0.2-1-0.4-1.5-0.5c-2.3-0.5-3.4-1.4-3.4-2.9c0-0.8,0.4-1.6,1-2.1c0.8-0.6,1.8-0.9,2.7-0.8
		c1-0.1,2.1,0.2,2.9,0.9c0.7,0.5,1.1,1.3,1.1,2.2h-2.5c0-0.3-0.1-0.7-0.4-0.9c-0.3-0.3-0.7-0.4-1.1-0.4c-0.4,0-0.7,0.1-1,0.3
		c-0.2,0.2-0.4,0.5-0.4,0.7c0,0.3,0.2,0.5,0.4,0.7c0.4,0.2,0.9,0.4,1.3,0.4c0.5,0.1,1.1,0.2,1.6,0.4c1.2,0.3,2,1.3,2,2.6
		c0,0.8-0.4,1.6-1.1,2.1c-0.9,0.6-1.9,0.8-2.9,0.8c-0.7,0-1.5-0.1-2.1-0.4c-0.6-0.3-1.1-0.7-1.5-1.2c-0.3-0.5-0.5-1-0.5-1.6h2.4
		c0,0.4,0.2,0.8,0.5,1c0.4,0.3,0.8,0.4,1.2,0.4c0.4,0,0.8-0.1,1.1-0.3C-600.5-2729.2-600.4-2729.5-600.4-2729.8L-600.4-2729.8z
		 M-593.2-2739v2.3h1.6v1.9h-1.6v4.7c0,0.3,0,0.5,0.2,0.8c0.2,0.2,0.5,0.3,0.8,0.2c0.3,0,0.5,0,0.7-0.1v1.9c-0.5,0.2-1,0.2-1.5,0.2
		c-1.3,0.2-2.5-0.8-2.7-2.1c0-0.2,0-0.4,0-0.6v-5.1h-1.4v-1.9h1.4v-2.3H-593.2z M-585.8-2727c-1.3,0.1-2.5-0.4-3.4-1.3
		c-0.9-0.9-1.4-2.1-1.3-3.4v-0.2c0-0.9,0.2-1.8,0.6-2.6c0.3-0.7,0.9-1.3,1.6-1.7c0.7-0.4,1.5-0.6,2.3-0.6c1.2-0.1,2.3,0.4,3.1,1.2
		c0.8,1,1.2,2.2,1.1,3.5v1h-6.1c0.1,0.6,0.3,1.1,0.7,1.5c0.4,0.4,1,0.6,1.6,0.6c0.9,0,1.7-0.4,2.3-1.1l1.2,1.4
		c-0.4,0.5-0.9,1-1.5,1.3C-584.3-2727.1-585.1-2727-585.8-2727z M-586.1-2734.8c-0.5,0-0.9,0.2-1.2,0.5c-0.3,0.4-0.6,0.9-0.6,1.5
		h3.5v-0.2c0-0.5-0.1-0.9-0.5-1.3C-585.2-2734.7-585.6-2734.8-586.1-2734.8L-586.1-2734.8z M-578.1-2736.7l0.1,1.1
		c0.7-0.8,1.7-1.3,2.7-1.2c1.1-0.1,2.1,0.5,2.5,1.5c0.6-0.9,1.7-1.5,2.9-1.4c0.9-0.1,1.7,0.3,2.3,0.9c0.6,0.8,0.8,1.7,0.8,2.7v6.1
		h-2.5v-6.1c0-0.4-0.1-0.8-0.3-1.2c-0.3-0.3-0.7-0.4-1.1-0.4c-0.7,0-1.4,0.4-1.6,1.1l0,6.5h-2.5v-6.1c0-0.4-0.1-0.9-0.3-1.2
		c-0.3-0.3-0.7-0.4-1.1-0.4c-0.7,0-1.3,0.3-1.6,0.9v6.7h-2.5v-9.5H-578.1z M-559.4-2727.2c-0.1-0.3-0.2-0.6-0.3-0.9
		c-0.6,0.7-1.5,1.1-2.4,1c-0.8,0-1.7-0.3-2.3-0.8c-0.6-0.5-0.9-1.3-0.9-2c0-0.9,0.4-1.8,1.1-2.3c1-0.6,2.1-0.9,3.2-0.8h1.2v-0.5
		c0-0.4-0.1-0.8-0.3-1.1c-0.3-0.3-0.7-0.4-1.1-0.4c-0.4,0-0.7,0.1-1,0.3c-0.2,0.2-0.4,0.5-0.4,0.8h-2.5c0-0.6,0.2-1.1,0.5-1.5
		c0.4-0.5,0.9-0.9,1.4-1.1c0.7-0.3,1.4-0.4,2.1-0.4c1-0.1,2,0.3,2.8,0.9c0.7,0.6,1.1,1.5,1,2.5v4.1c0,0.7,0.1,1.4,0.4,2.1v0.1
		H-559.4z M-561.5-2728.9c0.4,0,0.7-0.1,1-0.2c0.3-0.1,0.5-0.4,0.7-0.7v-1.6h-0.9c-1.3,0-1.9,0.4-2,1.3l0,0.1c0,0.3,0.1,0.6,0.3,0.8
		C-562.1-2729-561.8-2728.9-561.5-2728.9L-561.5-2728.9z M-546.4-2727c-1.3,0.1-2.5-0.4-3.4-1.3c-0.9-0.9-1.4-2.1-1.3-3.4v-0.2
		c0-0.9,0.2-1.8,0.6-2.6c0.3-0.7,0.9-1.3,1.6-1.7c0.7-0.4,1.5-0.6,2.3-0.6c1.2-0.1,2.3,0.4,3.1,1.2c0.8,1,1.2,2.2,1.1,3.5v1h-6.1
		c0.1,0.6,0.3,1.1,0.7,1.5c0.4,0.4,1,0.6,1.6,0.6c0.9,0,1.7-0.4,2.3-1.1l1.2,1.4c-0.4,0.5-0.9,1-1.5,1.3
		C-544.9-2727.1-545.6-2727-546.4-2727z M-546.7-2734.8c-0.5,0-0.9,0.2-1.2,0.5c-0.3,0.4-0.6,0.9-0.6,1.5h3.5v-0.2
		c0-0.5-0.1-0.9-0.5-1.3C-545.7-2734.7-546.2-2734.8-546.7-2734.8L-546.7-2734.8z M-537.4-2733.8l1.6-2.8h2.7l-2.7,4.7l2.8,4.9h-2.7
		l-1.7-3l-1.7,3h-2.7l2.8-4.9l-2.7-4.7h2.7L-537.4-2733.8z M-528.8-2739v2.3h1.6v1.9h-1.6v4.7c0,0.3,0,0.5,0.2,0.8
		c0.2,0.2,0.5,0.3,0.8,0.2c0.3,0,0.5,0,0.7-0.1v1.9c-0.5,0.2-1,0.2-1.5,0.2c-1.3,0.2-2.5-0.8-2.7-2.1c0-0.2,0-0.4,0-0.6v-5.1h-1.4
		v-1.9h1.4v-2.3L-528.8-2739z M-521.4-2727c-1.3,0.1-2.5-0.4-3.4-1.3c-0.9-0.9-1.4-2.1-1.3-3.4v-0.2c0-0.9,0.2-1.8,0.6-2.6
		c0.3-0.7,0.9-1.3,1.6-1.7c0.7-0.4,1.5-0.6,2.3-0.6c1.2-0.1,2.3,0.4,3.1,1.2c0.8,1,1.2,2.2,1.1,3.5v1h-6.1c0.1,0.6,0.3,1.1,0.7,1.5
		c0.4,0.4,1,0.6,1.6,0.6c0.9,0,1.7-0.4,2.3-1.1l1.2,1.4c-0.4,0.5-0.9,1-1.5,1.3C-519.9-2727.1-520.7-2727-521.4-2727z
		 M-521.7-2734.8c-0.5,0-0.9,0.2-1.2,0.5c-0.3,0.4-0.6,0.9-0.6,1.5h3.5v-0.2c0-0.5-0.1-0.9-0.5-1.3
		C-520.8-2734.7-521.2-2734.8-521.7-2734.8L-521.7-2734.8z M-510.7-2734.3c-0.3,0-0.6-0.1-0.9-0.1c-0.8-0.1-1.5,0.3-1.9,1v6.2h-2.5
		v-9.5h2.4l0.1,1.1c0.4-0.8,1.2-1.3,2.1-1.3c0.3,0,0.5,0,0.8,0.1L-510.7-2734.3z M-507.1-2736.7l0.1,1.1c0.7-0.8,1.7-1.3,2.7-1.3
		c0.8-0.1,1.7,0.3,2.2,0.9c0.5,0.8,0.8,1.7,0.8,2.7v6.1h-2.5v-6.1c0-0.4-0.1-0.8-0.4-1.2c-0.3-0.3-0.7-0.4-1.2-0.4
		c-0.7,0-1.3,0.3-1.6,0.9v6.7h-2.5v-9.5H-507.1z M-499.8-2732c0-0.9,0.2-1.7,0.5-2.5c0.3-0.7,0.9-1.3,1.6-1.7
		c0.7-0.4,1.5-0.6,2.4-0.6c1.2,0,2.3,0.4,3.1,1.2c0.8,0.9,1.3,2,1.4,3.2l0,0.6c0.1,1.3-0.4,2.5-1.2,3.5c-0.8,0.9-2,1.4-3.3,1.3
		c-1.2,0.1-2.4-0.4-3.3-1.3c-0.9-1-1.3-2.3-1.2-3.6L-499.8-2732z M-497.3-2731.8c0,0.7,0.1,1.5,0.5,2.1c0.3,0.5,0.9,0.7,1.5,0.7
		c0.6,0,1.1-0.2,1.4-0.7c0.4-0.7,0.6-1.5,0.5-2.3c0-0.7-0.1-1.4-0.5-2.1c-0.3-0.5-0.9-0.8-1.5-0.7c-0.6,0-1.1,0.3-1.4,0.7
		C-497.1-2733.4-497.3-2732.6-497.3-2731.8L-497.3-2731.8z"/>
	<path id="Trazado_238628" class="st3" d="M-1299.9-2803.9l243.7-48.6"/>
	<path id="Trazado_238629" class="st3" d="M-1299.9-2786.9l189.7,64.4"/>
	<path id="Trazado_238630" class="st3" d="M-829.2-2720.5l215.8-83.4"/>
	<path id="Trazado_237869" class="st4" d="M-884.2-2631l-24.4-45.9"/>
	<path id="Trazado_237870" class="st5" d="M-913.2-2668.5l3.2-10.5l10.5,3.2"/>
	<path id="Trazado_237869-2" class="st6" d="M-1026.3-2679.5l-30.6,42.1"/>
	<path id="Trazado_237870-2" class="st7" d="M-1047.3-2637.1l-10.8,1.7l-1.7-10.8"/>
</g>
</svg>
