<svg xmlns="http://www.w3.org/2000/svg" width="909.9" height="417.399" viewBox="0 0 909.9 417.399">
  <g id="Grupo_183749" data-name="Grupo 183749" transform="translate(464.692 3929.699)">
    <g id="Trazado_238607" data-name="Trazado 238607" transform="translate(-329.616 -3929.699)" fill="none">
      <path d="M0,0H577.974V417.4H0Z" stroke="none"/>
      <path d="M 3 3 L 3 414.3995361328125 L 574.9741821289062 414.3995361328125 L 574.9741821289062 3 L 3 3 M 0 0 L 577.9741821289062 0 L 577.9741821289062 417.3995361328125 L 0 417.3995361328125 L 0 0 Z" stroke="none" fill="#12263f"/>
    </g>
    <path id="Trazado_238612" data-name="Trazado 238612" d="M10.642-1.527a4.322,4.322,0,0,1-1.9,1.249A7.961,7.961,0,0,1,6.018.166,5.393,5.393,0,0,1,3.266-.519,4.568,4.568,0,0,1,1.44-2.507,7,7,0,0,1,.78-5.57v-.822a7.431,7.431,0,0,1,.61-3.134,4.513,4.513,0,0,1,1.76-2.025,5.069,5.069,0,0,1,2.694-.7,5.048,5.048,0,0,1,3.362,1.025,4.381,4.381,0,0,1,1.436,2.984H8.218a2.41,2.41,0,0,0-.735-1.519,2.346,2.346,0,0,0-1.565-.481,2.208,2.208,0,0,0-1.934.955A5.02,5.02,0,0,0,3.312-6.45v.772a4.778,4.778,0,0,0,.722,2.872,2.473,2.473,0,0,0,2.117.971,2.762,2.762,0,0,0,2-.6V-4.516H5.885V-6.35h4.756ZM16.635.166a4.409,4.409,0,0,1-3.217-1.212,4.308,4.308,0,0,1-1.241-3.229v-.232a5.426,5.426,0,0,1,.523-2.42,3.838,3.838,0,0,1,1.482-1.644,4.159,4.159,0,0,1,2.187-.577,3.727,3.727,0,0,1,2.9,1.162,4.722,4.722,0,0,1,1.058,3.3v.979H14.609a2.229,2.229,0,0,0,.7,1.411,2.12,2.12,0,0,0,1.482.531,2.589,2.589,0,0,0,2.167-1l1.179,1.32A3.6,3.6,0,0,1,18.677-.261,4.793,4.793,0,0,1,16.635.166Zm-.274-7.379A1.5,1.5,0,0,0,15.2-6.73a2.5,2.5,0,0,0-.569,1.384h3.337v-.192a1.786,1.786,0,0,0-.432-1.238A1.547,1.547,0,0,0,16.361-7.213ZM23.9-8.981l.075,1.038a3.136,3.136,0,0,1,2.582-1.2,2.606,2.606,0,0,1,2.125.838A3.912,3.912,0,0,1,29.393-5.8V0h-2.4V-5.757a1.562,1.562,0,0,0-.332-1.111,1.484,1.484,0,0,0-1.1-.345,1.65,1.65,0,0,0-1.519.865V0h-2.4V-8.981ZM35.345.166a4.409,4.409,0,0,1-3.217-1.212,4.308,4.308,0,0,1-1.241-3.229v-.232a5.426,5.426,0,0,1,.523-2.42,3.838,3.838,0,0,1,1.482-1.644,4.159,4.159,0,0,1,2.187-.577,3.727,3.727,0,0,1,2.9,1.162,4.722,4.722,0,0,1,1.058,3.3v.979H33.319a2.229,2.229,0,0,0,.7,1.411,2.12,2.12,0,0,0,1.482.531,2.589,2.589,0,0,0,2.167-1l1.179,1.32A3.6,3.6,0,0,1,37.387-.261,4.793,4.793,0,0,1,35.345.166Zm-.274-7.379a1.5,1.5,0,0,0-1.158.484,2.5,2.5,0,0,0-.569,1.384h3.337v-.192a1.786,1.786,0,0,0-.432-1.238A1.547,1.547,0,0,0,35.071-7.213Zm10.376.481a6.517,6.517,0,0,0-.863-.066,1.757,1.757,0,0,0-1.785.921V0H40.4V-8.981h2.266l.066,1.071a2.223,2.223,0,0,1,2-1.237,2.514,2.514,0,0,1,.747.108ZM51.556,0a2.664,2.664,0,0,1-.241-.805,2.9,2.9,0,0,1-2.266.971A3.189,3.189,0,0,1,46.862-.6a2.456,2.456,0,0,1-.867-1.926,2.538,2.538,0,0,1,1.058-2.191,5.222,5.222,0,0,1,3.059-.772h1.1V-6a1.48,1.48,0,0,0-.32-1,1.257,1.257,0,0,0-1.009-.374,1.429,1.429,0,0,0-.95.291.987.987,0,0,0-.344.8h-2.4a2.41,2.41,0,0,1,.481-1.444A3.182,3.182,0,0,1,48.037-8.77a4.961,4.961,0,0,1,1.976-.378,3.92,3.92,0,0,1,2.635.834,2.918,2.918,0,0,1,.975,2.345v3.893A4.294,4.294,0,0,0,53.98-.141V0ZM49.572-1.668a2.066,2.066,0,0,0,.979-.237,1.554,1.554,0,0,0,.664-.635V-4.084h-.9q-1.8,0-1.917,1.245l-.008.141a.96.96,0,0,0,.315.739A1.225,1.225,0,0,0,49.572-1.668Zm10.94-5.063a6.517,6.517,0,0,0-.863-.066,1.757,1.757,0,0,0-1.785.921V0h-2.4V-8.981h2.266L57.8-7.911a2.223,2.223,0,0,1,2-1.237,2.514,2.514,0,0,1,.747.108ZM66.556,0V-7.222H65.219v-1.76h1.336v-.764a3.1,3.1,0,0,1,.867-2.345,3.359,3.359,0,0,1,2.428-.834,5.654,5.654,0,0,1,1.22.165l-.025,1.844a3.058,3.058,0,0,0-.73-.075q-1.353,0-1.353,1.281v.728h1.785v1.76H68.963V0ZM77.2,0a2.664,2.664,0,0,1-.241-.805A2.9,2.9,0,0,1,74.69.166,3.189,3.189,0,0,1,72.5-.6a2.456,2.456,0,0,1-.867-1.926,2.538,2.538,0,0,1,1.058-2.191,5.222,5.222,0,0,1,3.059-.772h1.1V-6a1.48,1.48,0,0,0-.32-1,1.257,1.257,0,0,0-1.009-.374,1.429,1.429,0,0,0-.95.291.987.987,0,0,0-.344.8h-2.4a2.41,2.41,0,0,1,.481-1.444A3.182,3.182,0,0,1,73.678-8.77a4.961,4.961,0,0,1,1.976-.378,3.92,3.92,0,0,1,2.635.834,2.918,2.918,0,0,1,.975,2.345v3.893a4.294,4.294,0,0,0,.357,1.934V0ZM75.213-1.668a2.066,2.066,0,0,0,.979-.237,1.554,1.554,0,0,0,.664-.635V-4.084h-.9q-1.8,0-1.917,1.245l-.008.141a.96.96,0,0,0,.315.739A1.225,1.225,0,0,0,75.213-1.668Zm9.629-.1a1.573,1.573,0,0,0,1.079-.365,1.28,1.28,0,0,0,.432-.971H88.6a3.077,3.077,0,0,1-.5,1.673A3.286,3.286,0,0,1,86.764-.253a4.2,4.2,0,0,1-1.88.419,3.9,3.9,0,0,1-3.038-1.224,4.845,4.845,0,0,1-1.112-3.383V-4.6a4.79,4.79,0,0,1,1.1-3.312,3.854,3.854,0,0,1,3.03-1.237,3.778,3.778,0,0,1,2.7.959A3.4,3.4,0,0,1,88.6-5.636h-2.25a1.648,1.648,0,0,0-.432-1.139,1.439,1.439,0,0,0-1.1-.438A1.445,1.445,0,0,0,83.56-6.6a3.541,3.541,0,0,0-.427,1.983v.249a3.586,3.586,0,0,0,.423,2A1.463,1.463,0,0,0,84.842-1.768Zm8-9.421v2.208H94.38v1.76H92.844v4.482a1.07,1.07,0,0,0,.191.714.959.959,0,0,0,.73.216,3.826,3.826,0,0,0,.706-.058V-.05a4.939,4.939,0,0,1-1.453.216,2.29,2.29,0,0,1-2.573-2.548V-7.222H89.134v-1.76h1.312v-2.208ZM101.1-.913A3.008,3.008,0,0,1,98.638.166a2.837,2.837,0,0,1-2.2-.83A3.543,3.543,0,0,1,95.658-3.1V-8.981h2.4v5.809q0,1.4,1.278,1.4a1.732,1.732,0,0,0,1.677-.848V-8.981h2.407V0h-2.258Zm9.181-5.819a6.517,6.517,0,0,0-.863-.066,1.757,1.757,0,0,0-1.785.921V0h-2.4V-8.981H107.5l.066,1.071a2.223,2.223,0,0,1,2-1.237,2.514,2.514,0,0,1,.747.108ZM116.385,0a2.664,2.664,0,0,1-.241-.805,2.9,2.9,0,0,1-2.266.971A3.189,3.189,0,0,1,111.691-.6a2.456,2.456,0,0,1-.867-1.926,2.538,2.538,0,0,1,1.058-2.191,5.222,5.222,0,0,1,3.059-.772h1.1V-6a1.48,1.48,0,0,0-.32-1,1.257,1.257,0,0,0-1.009-.374,1.429,1.429,0,0,0-.95.291.987.987,0,0,0-.344.8h-2.4a2.41,2.41,0,0,1,.481-1.444,3.182,3.182,0,0,1,1.361-1.042,4.961,4.961,0,0,1,1.976-.378,3.92,3.92,0,0,1,2.635.834,2.918,2.918,0,0,1,.975,2.345v3.893a4.294,4.294,0,0,0,.357,1.934V0ZM114.4-1.668a2.066,2.066,0,0,0,.979-.237,1.554,1.554,0,0,0,.664-.635V-4.084h-.9q-1.8,0-1.917,1.245l-.008.141a.96.96,0,0,0,.315.739A1.225,1.225,0,0,0,114.4-1.668Z" transform="translate(-39.961 -3856.4)" fill="#12263f"/>
    <g id="Trazado_238569" data-name="Trazado 238569" transform="translate(-102.961 -3891.4)" fill="none">
      <path d="M121.5,0C188.6,0,243,13.655,243,30.5S188.6,61,121.5,61,0,47.345,0,30.5,54.4,0,121.5,0Z" stroke="none"/>
      <path d="M 121.5 3 C 105.2030029296875 3 89.39779663085938 3.800765991210938 74.52346801757812 5.38006591796875 C 60.19430541992188 6.901500701904297 47.33976745605469 9.075931549072266 36.31694030761719 11.84296798706055 C 30.9249267578125 13.196533203125 26.03913879394531 14.68239974975586 21.79519653320312 16.25930023193359 C 17.57530212402344 17.82730102539062 13.96994018554688 19.49223327636719 11.07919311523438 21.20786666870117 C 8.281600952148438 22.86826705932617 6.1668701171875 24.56423187255859 4.79376220703125 26.24869918823242 C 3.603500366210938 27.70883178710938 3 29.1391658782959 3 30.5 C 3 31.8608341217041 3.603500366210938 33.29116821289062 4.79376220703125 34.75130081176758 C 6.1668701171875 36.43576812744141 8.281600952148438 38.13173294067383 11.07919311523438 39.79213333129883 C 13.96994018554688 41.50776672363281 17.57530212402344 43.17269897460938 21.79519653320312 44.74069976806641 C 26.03913879394531 46.31760025024414 30.9249267578125 47.803466796875 36.31694030761719 49.15703201293945 C 47.33976745605469 51.92406463623047 60.19430541992188 54.0984992980957 74.52346801757812 55.61993408203125 C 89.39779663085938 57.19923400878906 105.2030029296875 58 121.5 58 C 137.7969970703125 58 153.6022033691406 57.19923400878906 168.4765319824219 55.61993408203125 C 182.8056945800781 54.0984992980957 195.6602325439453 51.92406463623047 206.6830749511719 49.15703201293945 C 212.0750732421875 47.803466796875 216.9608612060547 46.31760025024414 221.2048034667969 44.74069976806641 C 225.4246978759766 43.17269897460938 229.0300598144531 41.50776672363281 231.9208068847656 39.79213333129883 C 234.7183990478516 38.13173294067383 236.8331298828125 36.43576812744141 238.2062377929688 34.75130081176758 C 239.3964996337891 33.29116821289062 240 31.8608341217041 240 30.5 C 240 29.1391658782959 239.3964996337891 27.70883178710938 238.2062377929688 26.24869918823242 C 236.8331298828125 24.56423187255859 234.7183990478516 22.86826705932617 231.9208068847656 21.20786666870117 C 229.0300598144531 19.49223327636719 225.4246978759766 17.82730102539062 221.2048034667969 16.25930023193359 C 216.9608612060547 14.68239974975586 212.0750732421875 13.196533203125 206.6830749511719 11.84296798706055 C 195.6602325439453 9.075931549072266 182.8056945800781 6.901500701904297 168.4765319824219 5.38006591796875 C 153.6022033691406 3.800765991210938 137.7969970703125 3 121.5 3 M 121.5 0 C 188.6026000976562 0 243 13.65533447265625 243 30.5 C 243 47.34466552734375 188.6026000976562 61 121.5 61 C 54.39739990234375 61 0 47.34466552734375 0 30.5 C 0 13.65533447265625 54.39739990234375 0 121.5 0 Z" stroke="none" fill="#12263f"/>
    </g>
    <g id="Trazado_238613" data-name="Trazado 238613" transform="translate(-152.461 -3759.4)" fill="none">
      <path d="M121.5,0C188.6,0,243,13.879,243,31S188.6,62,121.5,62,0,48.121,0,31,54.4,0,121.5,0Z" stroke="none"/>
      <path d="M 121.5 3 C 105.2046966552734 3 89.40122985839844 3.813800811767578 74.52859497070312 5.418800354003906 C 60.2015380859375 6.964931488037109 47.34906005859375 9.174667358398438 36.32820129394531 11.98656845092773 C 30.9375 13.36196517944336 26.05296325683594 14.87179946899414 21.81019592285156 16.4741325378418 C 17.59165954589844 18.06729888916016 13.98747253417969 19.75899887084961 11.09767150878906 21.50220108032227 C 7.403533935546875 23.73059844970703 3 27.1872673034668 3 31 C 3 34.8127326965332 7.403533935546875 38.26940155029297 11.09767150878906 40.497802734375 C 13.98747253417969 42.24099731445312 17.59165954589844 43.93270111083984 21.81019592285156 45.5258674621582 C 26.05296325683594 47.12820053100586 30.9375 48.63803100585938 36.32820129394531 50.01343536376953 C 47.34906005859375 52.82533264160156 60.2015380859375 55.03506469726562 74.52859497070312 56.58119964599609 C 89.40122985839844 58.18619918823242 105.2046966552734 59 121.5 59 C 137.7953033447266 59 153.5987701416016 58.18619918823242 168.4714050292969 56.58119964599609 C 182.7984619140625 55.03506469726562 195.6509399414062 52.82533264160156 206.6717987060547 50.01343536376953 C 212.0625 48.63803100585938 216.9470367431641 47.12820053100586 221.1898040771484 45.5258674621582 C 225.4083251953125 43.93270111083984 229.0125274658203 42.24099731445312 231.9023284912109 40.497802734375 C 235.5964660644531 38.26940155029297 240 34.8127326965332 240 31 C 240 27.1872673034668 235.5964660644531 23.73059844970703 231.9023284912109 21.50220108032227 C 229.0125274658203 19.75899887084961 225.4083251953125 18.06729888916016 221.1898040771484 16.4741325378418 C 216.9470367431641 14.87179946899414 212.0625 13.36196517944336 206.6717987060547 11.98656845092773 C 195.6509399414062 9.174667358398438 182.7984619140625 6.964931488037109 168.4714050292969 5.418800354003906 C 153.5987701416016 3.813800811767578 137.7953033447266 3 121.5 3 M 121.5 0 C 188.6026000976562 0 243 13.87916564941406 243 31 C 243 48.12083435058594 188.6026000976562 62 121.5 62 C 54.39739990234375 62 0 48.12083435058594 0 31 C 0 13.87916564941406 54.39739990234375 0 121.5 0 Z" stroke="none" fill="#12263f"/>
    </g>
    <path id="Trazado_238614" data-name="Trazado 238614" d="M8.351-5.254H3.569V-2H9.181V0h-8.1V-12.086H9.164v2.017H3.569v2.88H8.351Zm4.341-3.727.075,1.038a3.136,3.136,0,0,1,2.582-1.2,2.606,2.606,0,0,1,2.125.838A3.912,3.912,0,0,1,18.187-5.8V0h-2.4V-5.757a1.562,1.562,0,0,0-.332-1.111,1.484,1.484,0,0,0-1.1-.345,1.65,1.65,0,0,0-1.519.865V0h-2.4V-8.981ZM23.367-2.93l1.668-6.051h2.507L24.512,0H22.221l-3.03-8.981H21.7ZM31.128,0H28.721V-8.981h2.407ZM28.58-11.306a1.181,1.181,0,0,1,.361-.888,1.356,1.356,0,0,1,.984-.349,1.36,1.36,0,0,1,.979.349,1.175,1.175,0,0,1,.365.888,1.178,1.178,0,0,1-.369.9,1.363,1.363,0,0,1-.975.349,1.363,1.363,0,0,1-.975-.349A1.178,1.178,0,0,1,28.58-11.306ZM38.308,0a2.664,2.664,0,0,1-.241-.805A2.9,2.9,0,0,1,35.8.166,3.189,3.189,0,0,1,33.614-.6a2.456,2.456,0,0,1-.867-1.926A2.538,2.538,0,0,1,33.8-4.715a5.222,5.222,0,0,1,3.059-.772h1.1V-6a1.48,1.48,0,0,0-.32-1,1.257,1.257,0,0,0-1.009-.374,1.429,1.429,0,0,0-.95.291.987.987,0,0,0-.344.8h-2.4a2.41,2.41,0,0,1,.481-1.444A3.182,3.182,0,0,1,34.789-8.77a4.961,4.961,0,0,1,1.976-.378,3.92,3.92,0,0,1,2.635.834,2.918,2.918,0,0,1,.975,2.345v3.893a4.294,4.294,0,0,0,.357,1.934V0ZM36.324-1.668a2.066,2.066,0,0,0,.979-.237,1.554,1.554,0,0,0,.664-.635V-4.084h-.9q-1.8,0-1.917,1.245l-.008.141a.96.96,0,0,0,.315.739A1.225,1.225,0,0,0,36.324-1.668Zm10.94-5.063A6.517,6.517,0,0,0,46.4-6.8a1.757,1.757,0,0,0-1.785.921V0h-2.4V-8.981h2.266l.066,1.071a2.223,2.223,0,0,1,2-1.237,2.514,2.514,0,0,1,.747.108ZM53.308,0V-7.222H51.971v-1.76h1.336v-.764a3.1,3.1,0,0,1,.867-2.345,3.359,3.359,0,0,1,2.428-.834,5.654,5.654,0,0,1,1.22.165L57.8-10.916a3.058,3.058,0,0,0-.73-.075q-1.353,0-1.353,1.281v.728H57.5v1.76H55.715V0ZM63.949,0a2.664,2.664,0,0,1-.241-.805,2.9,2.9,0,0,1-2.266.971A3.189,3.189,0,0,1,59.255-.6a2.456,2.456,0,0,1-.867-1.926,2.538,2.538,0,0,1,1.058-2.191A5.222,5.222,0,0,1,62.5-5.487h1.1V-6a1.48,1.48,0,0,0-.32-1,1.257,1.257,0,0,0-1.009-.374,1.429,1.429,0,0,0-.95.291.987.987,0,0,0-.344.8h-2.4a2.41,2.41,0,0,1,.481-1.444A3.182,3.182,0,0,1,60.43-8.77a4.961,4.961,0,0,1,1.976-.378,3.92,3.92,0,0,1,2.635.834,2.918,2.918,0,0,1,.975,2.345v3.893a4.294,4.294,0,0,0,.357,1.934V0ZM61.965-1.668a2.066,2.066,0,0,0,.979-.237,1.554,1.554,0,0,0,.664-.635V-4.084h-.9q-1.8,0-1.917,1.245l-.008.141a.96.96,0,0,0,.315.739A1.225,1.225,0,0,0,61.965-1.668Zm9.629-.1a1.573,1.573,0,0,0,1.079-.365A1.28,1.28,0,0,0,73.1-3.1h2.25a3.077,3.077,0,0,1-.5,1.673A3.286,3.286,0,0,1,73.516-.253a4.2,4.2,0,0,1-1.88.419A3.9,3.9,0,0,1,68.6-1.058a4.845,4.845,0,0,1-1.112-3.383V-4.6a4.79,4.79,0,0,1,1.1-3.312,3.854,3.854,0,0,1,3.03-1.237,3.778,3.778,0,0,1,2.7.959,3.4,3.4,0,0,1,1.033,2.552H73.1a1.648,1.648,0,0,0-.432-1.139,1.439,1.439,0,0,0-1.1-.438,1.445,1.445,0,0,0-1.266.611,3.541,3.541,0,0,0-.427,1.983v.249a3.586,3.586,0,0,0,.423,2A1.463,1.463,0,0,0,71.594-1.768Zm8-9.421v2.208h1.536v1.76H79.6v4.482a1.07,1.07,0,0,0,.191.714.959.959,0,0,0,.73.216,3.826,3.826,0,0,0,.706-.058V-.05a4.939,4.939,0,0,1-1.453.216A2.29,2.29,0,0,1,77.2-2.382V-7.222H75.886v-1.76H77.2v-2.208ZM87.847-.913A3.008,3.008,0,0,1,85.39.166a2.837,2.837,0,0,1-2.2-.83A3.543,3.543,0,0,1,82.41-3.1V-8.981h2.4v5.809q0,1.4,1.278,1.4a1.732,1.732,0,0,0,1.677-.848V-8.981h2.407V0H87.914Zm9.181-5.819a6.517,6.517,0,0,0-.863-.066,1.757,1.757,0,0,0-1.785.921V0h-2.4V-8.981h2.266l.066,1.071a2.223,2.223,0,0,1,2-1.237,2.514,2.514,0,0,1,.747.108ZM103.137,0a2.664,2.664,0,0,1-.241-.805,2.9,2.9,0,0,1-2.266.971A3.189,3.189,0,0,1,98.443-.6a2.456,2.456,0,0,1-.867-1.926,2.538,2.538,0,0,1,1.058-2.191,5.222,5.222,0,0,1,3.059-.772h1.1V-6a1.48,1.48,0,0,0-.32-1,1.257,1.257,0,0,0-1.009-.374,1.429,1.429,0,0,0-.95.291.987.987,0,0,0-.344.8h-2.4a2.41,2.41,0,0,1,.481-1.444A3.182,3.182,0,0,1,99.618-8.77a4.961,4.961,0,0,1,1.976-.378,3.92,3.92,0,0,1,2.635.834,2.918,2.918,0,0,1,.975,2.345v3.893a4.294,4.294,0,0,0,.357,1.934V0Zm-1.984-1.668a2.066,2.066,0,0,0,.979-.237,1.554,1.554,0,0,0,.664-.635V-4.084h-.9q-1.8,0-1.917,1.245l-.008.141a.96.96,0,0,0,.315.739A1.225,1.225,0,0,0,101.153-1.668Z" transform="translate(-83.461 -3723.401)" fill="#12263f"/>
    <g id="Trazado_238605" data-name="Trazado 238605" transform="translate(-30.961 -3626.4)" fill="none">
      <path d="M121.5,0C188.6,0,243,16.945,243,37.847S188.6,75.694,121.5,75.694,0,58.749,0,37.847,54.4,0,121.5,0Z" stroke="none"/>
      <path d="M 121.5 3 C 105.2281646728516 3 89.44827270507812 3.99200439453125 74.59860229492188 5.948501586914062 C 60.299560546875 7.832405090332031 47.47419738769531 10.52426910400391 36.47872924804688 13.94933319091797 C 31.1043701171875 15.62343597412109 26.23519897460938 17.46086883544922 22.00643920898438 19.41066741943359 C 17.80213928222656 21.34913635253906 14.2091064453125 23.40823364257812 11.32707214355469 25.53073501586914 C 8.5130615234375 27.60313415527344 6.37615966796875 29.73480224609375 4.975799560546875 31.86650085449219 C 3.664764404296875 33.86226654052734 3 35.87430191040039 3 37.8468017578125 C 3 39.81930160522461 3.664764404296875 41.83133697509766 4.975799560546875 43.82710266113281 C 6.37615966796875 45.95880126953125 8.5130615234375 48.09046936035156 11.32707214355469 50.16286849975586 C 14.2091064453125 52.28536987304688 17.80213928222656 54.34446716308594 22.00643920898438 56.28293609619141 C 26.23519897460938 58.23273468017578 31.1043701171875 60.07016754150391 36.47872924804688 61.74427032470703 C 47.47419738769531 65.16933441162109 60.299560546875 67.86119842529297 74.59860229492188 69.74510192871094 C 89.44827270507812 71.70159912109375 105.2281646728516 72.693603515625 121.5 72.693603515625 C 137.7718353271484 72.693603515625 153.5517272949219 71.70159912109375 168.4013977050781 69.74510192871094 C 182.700439453125 67.86119842529297 195.5258026123047 65.16933441162109 206.5212707519531 61.74427032470703 C 211.8956298828125 60.07016754150391 216.7648010253906 58.23273468017578 220.9935607910156 56.28293609619141 C 225.1978607177734 54.34446716308594 228.7908935546875 52.28536987304688 231.6729278564453 50.16286849975586 C 234.4869384765625 48.09046936035156 236.6238403320312 45.95880126953125 238.0242004394531 43.82710266113281 C 239.3352355957031 41.83133697509766 240 39.81930160522461 240 37.8468017578125 C 240 35.87430191040039 239.3352355957031 33.86226654052734 238.0242004394531 31.86650085449219 C 236.6238403320312 29.73480224609375 234.4869384765625 27.60313415527344 231.6729278564453 25.53073501586914 C 228.7908935546875 23.40823364257812 225.1978607177734 21.34913635253906 220.9935607910156 19.41066741943359 C 216.7648010253906 17.46086883544922 211.8956298828125 15.62343597412109 206.5212707519531 13.94933319091797 C 195.5258026123047 10.52426910400391 182.700439453125 7.832405090332031 168.4013977050781 5.948501586914062 C 153.5517272949219 3.99200439453125 137.7718353271484 3 121.5 3 M 121.5 0 C 188.6026000976562 0 243 16.94460296630859 243 37.8468017578125 C 243 58.74900054931641 188.6026000976562 75.693603515625 121.5 75.693603515625 C 54.39739990234375 75.693603515625 0 58.74900054931641 0 37.8468017578125 C 0 16.94460296630859 54.39739990234375 0 121.5 0 Z" stroke="none" fill="#12263f"/>
    </g>
    <path id="Trazado_238608" data-name="Trazado 238608" d="M-44.712-5.254h-4.781V-2h5.611V0h-8.1V-12.086H-43.9v2.017h-5.595v2.88h4.781Zm4.341-3.727.075,1.038a3.136,3.136,0,0,1,2.582-1.2,2.606,2.606,0,0,1,2.125.838A3.912,3.912,0,0,1-34.876-5.8V0h-2.4V-5.757a1.562,1.562,0,0,0-.332-1.111,1.484,1.484,0,0,0-1.1-.345,1.65,1.65,0,0,0-1.519.865V0h-2.4V-8.981ZM-29.7-2.93l1.668-6.051h2.507L-28.551,0h-2.291l-3.03-8.981h2.507ZM-21.935,0h-2.407V-8.981h2.407Zm-2.548-11.306a1.181,1.181,0,0,1,.361-.888,1.356,1.356,0,0,1,.984-.349,1.36,1.36,0,0,1,.979.349,1.175,1.175,0,0,1,.365.888,1.178,1.178,0,0,1-.369.9,1.363,1.363,0,0,1-.975.349,1.363,1.363,0,0,1-.975-.349A1.178,1.178,0,0,1-24.483-11.306ZM-14.755,0A2.664,2.664,0,0,1-15-.805a2.9,2.9,0,0,1-2.266.971A3.189,3.189,0,0,1-19.449-.6a2.456,2.456,0,0,1-.867-1.926,2.538,2.538,0,0,1,1.058-2.191A5.222,5.222,0,0,1-16.2-5.487h1.1V-6a1.48,1.48,0,0,0-.32-1,1.257,1.257,0,0,0-1.009-.374,1.429,1.429,0,0,0-.95.291.987.987,0,0,0-.344.8h-2.4a2.41,2.41,0,0,1,.481-1.444A3.182,3.182,0,0,1-18.274-8.77,4.961,4.961,0,0,1-16.3-9.147a3.92,3.92,0,0,1,2.635.834,2.918,2.918,0,0,1,.975,2.345v3.893a4.294,4.294,0,0,0,.357,1.934V0Zm-1.984-1.668a2.066,2.066,0,0,0,.979-.237,1.554,1.554,0,0,0,.664-.635V-4.084h-.9q-1.8,0-1.917,1.245l-.008.141a.96.96,0,0,0,.315.739A1.225,1.225,0,0,0-16.739-1.668ZM-5.8-6.732A6.517,6.517,0,0,0-6.661-6.8a1.757,1.757,0,0,0-1.785.921V0h-2.4V-8.981h2.266l.066,1.071a2.223,2.223,0,0,1,2-1.237,2.514,2.514,0,0,1,.747.108ZM.245,0V-7.222H-1.092v-1.76H.245v-.764a3.1,3.1,0,0,1,.867-2.345,3.359,3.359,0,0,1,2.428-.834,5.654,5.654,0,0,1,1.22.165l-.025,1.844a3.058,3.058,0,0,0-.73-.075q-1.353,0-1.353,1.281v.728H4.437v1.76H2.652V0ZM10.886,0a2.664,2.664,0,0,1-.241-.805A2.9,2.9,0,0,1,8.38.166,3.189,3.189,0,0,1,6.192-.6a2.456,2.456,0,0,1-.867-1.926A2.538,2.538,0,0,1,6.383-4.715a5.222,5.222,0,0,1,3.059-.772h1.1V-6a1.48,1.48,0,0,0-.32-1,1.257,1.257,0,0,0-1.009-.374,1.429,1.429,0,0,0-.95.291.987.987,0,0,0-.344.8h-2.4a2.41,2.41,0,0,1,.481-1.444A3.182,3.182,0,0,1,7.367-8.77a4.961,4.961,0,0,1,1.976-.378,3.92,3.92,0,0,1,2.635.834,2.918,2.918,0,0,1,.975,2.345v3.893A4.294,4.294,0,0,0,13.31-.141V0ZM8.9-1.668a2.066,2.066,0,0,0,.979-.237,1.554,1.554,0,0,0,.664-.635V-4.084h-.9q-1.8,0-1.917,1.245L7.724-2.7a.96.96,0,0,0,.315.739A1.225,1.225,0,0,0,8.9-1.668Zm9.629-.1a1.573,1.573,0,0,0,1.079-.365,1.28,1.28,0,0,0,.432-.971h2.25a3.077,3.077,0,0,1-.5,1.673A3.286,3.286,0,0,1,20.453-.253a4.2,4.2,0,0,1-1.88.419,3.9,3.9,0,0,1-3.038-1.224,4.845,4.845,0,0,1-1.112-3.383V-4.6a4.79,4.79,0,0,1,1.1-3.312,3.854,3.854,0,0,1,3.03-1.237,3.778,3.778,0,0,1,2.7.959,3.4,3.4,0,0,1,1.033,2.552h-2.25a1.648,1.648,0,0,0-.432-1.139,1.439,1.439,0,0,0-1.1-.438,1.445,1.445,0,0,0-1.266.611,3.541,3.541,0,0,0-.427,1.983v.249a3.586,3.586,0,0,0,.423,2A1.463,1.463,0,0,0,18.531-1.768Zm8-9.421v2.208h1.536v1.76H26.533v4.482a1.07,1.07,0,0,0,.191.714.959.959,0,0,0,.73.216,3.826,3.826,0,0,0,.706-.058V-.05a4.939,4.939,0,0,1-1.453.216,2.29,2.29,0,0,1-2.573-2.548V-7.222H22.823v-1.76h1.312v-2.208ZM34.784-.913A3.008,3.008,0,0,1,32.327.166a2.837,2.837,0,0,1-2.2-.83A3.543,3.543,0,0,1,29.347-3.1V-8.981h2.4v5.809q0,1.4,1.278,1.4A1.732,1.732,0,0,0,34.7-2.616V-8.981h2.407V0H34.851Zm9.181-5.819A6.517,6.517,0,0,0,43.1-6.8a1.757,1.757,0,0,0-1.785.921V0h-2.4V-8.981h2.266l.066,1.071a2.223,2.223,0,0,1,2-1.237A2.514,2.514,0,0,1,44-9.04ZM50.074,0a2.664,2.664,0,0,1-.241-.805,2.9,2.9,0,0,1-2.266.971A3.189,3.189,0,0,1,45.38-.6a2.456,2.456,0,0,1-.867-1.926,2.538,2.538,0,0,1,1.058-2.191,5.222,5.222,0,0,1,3.059-.772h1.1V-6a1.48,1.48,0,0,0-.32-1,1.257,1.257,0,0,0-1.009-.374,1.429,1.429,0,0,0-.95.291.987.987,0,0,0-.344.8h-2.4a2.41,2.41,0,0,1,.481-1.444A3.182,3.182,0,0,1,46.555-8.77a4.961,4.961,0,0,1,1.976-.378,3.92,3.92,0,0,1,2.635.834,2.918,2.918,0,0,1,.975,2.345v3.893A4.294,4.294,0,0,0,52.5-.141V0ZM48.091-1.668a2.066,2.066,0,0,0,.979-.237,1.554,1.554,0,0,0,.664-.635V-4.084h-.9q-1.8,0-1.917,1.245l-.008.141a.96.96,0,0,0,.315.739A1.225,1.225,0,0,0,48.091-1.668Zm-68.2,25.9a1.573,1.573,0,0,0,1.079-.365,1.28,1.28,0,0,0,.432-.971h2.25a3.077,3.077,0,0,1-.5,1.673,3.286,3.286,0,0,1-1.341,1.179,4.2,4.2,0,0,1-1.88.419A3.9,3.9,0,0,1-23.1,24.942a4.845,4.845,0,0,1-1.112-3.383V21.4a4.79,4.79,0,0,1,1.1-3.312,3.854,3.854,0,0,1,3.03-1.237,3.778,3.778,0,0,1,2.7.959,3.4,3.4,0,0,1,1.033,2.552h-2.25a1.648,1.648,0,0,0-.432-1.139,1.439,1.439,0,0,0-1.1-.438,1.445,1.445,0,0,0-1.266.611,3.541,3.541,0,0,0-.427,1.983v.249a3.586,3.586,0,0,0,.423,2A1.463,1.463,0,0,0-20.1,24.232Zm4.756-2.806a5.327,5.327,0,0,1,.515-2.382,3.768,3.768,0,0,1,1.482-1.619,4.323,4.323,0,0,1,2.245-.573,4.09,4.09,0,0,1,2.968,1.112,4.464,4.464,0,0,1,1.282,3.021l.017.614a4.694,4.694,0,0,1-1.154,3.316,4.011,4.011,0,0,1-3.1,1.249,4.031,4.031,0,0,1-3.1-1.245,4.777,4.777,0,0,1-1.158-3.387Zm2.4.17a3.357,3.357,0,0,0,.481,1.958,1.588,1.588,0,0,0,1.378.678,1.592,1.592,0,0,0,1.361-.669,3.674,3.674,0,0,0,.49-2.141,3.324,3.324,0,0,0-.49-1.945,1.592,1.592,0,0,0-1.378-.69,1.566,1.566,0,0,0-1.361.686A3.735,3.735,0,0,0-12.949,21.6ZM-.315,19.268a6.517,6.517,0,0,0-.863-.066,1.757,1.757,0,0,0-1.785.921V26h-2.4V17.019H-3.1l.066,1.071a2.223,2.223,0,0,1,2-1.237,2.514,2.514,0,0,1,.747.108Zm6.2,0a6.517,6.517,0,0,0-.863-.066,1.757,1.757,0,0,0-1.785.921V26H.838V17.019H3.1l.066,1.071a2.223,2.223,0,0,1,2-1.237,2.514,2.514,0,0,1,.747.108Zm5.13,6.9A4.409,4.409,0,0,1,7.8,24.954a4.308,4.308,0,0,1-1.241-3.229v-.232a5.426,5.426,0,0,1,.523-2.42,3.838,3.838,0,0,1,1.482-1.644,4.159,4.159,0,0,1,2.187-.577,3.727,3.727,0,0,1,2.9,1.162,4.722,4.722,0,0,1,1.058,3.3v.979H8.99a2.229,2.229,0,0,0,.7,1.411,2.12,2.12,0,0,0,1.482.531,2.589,2.589,0,0,0,2.167-1l1.179,1.32a3.6,3.6,0,0,1-1.461,1.191A4.793,4.793,0,0,1,11.015,26.166Zm-.274-7.379a1.5,1.5,0,0,0-1.158.484,2.5,2.5,0,0,0-.569,1.384h3.337v-.192a1.786,1.786,0,0,0-.432-1.238A1.547,1.547,0,0,0,10.741,18.787Zm4.956,2.64a5.327,5.327,0,0,1,.515-2.382,3.768,3.768,0,0,1,1.482-1.619,4.323,4.323,0,0,1,2.245-.573,4.09,4.09,0,0,1,2.968,1.112,4.464,4.464,0,0,1,1.282,3.021l.017.614a4.694,4.694,0,0,1-1.154,3.316,4.011,4.011,0,0,1-3.1,1.249,4.031,4.031,0,0,1-3.1-1.245A4.777,4.777,0,0,1,15.7,21.534Zm2.4.17a3.357,3.357,0,0,0,.481,1.958,1.73,1.73,0,0,0,2.739.008,3.674,3.674,0,0,0,.49-2.141,3.324,3.324,0,0,0-.49-1.945,1.592,1.592,0,0,0-1.378-.69,1.566,1.566,0,0,0-1.361.686A3.735,3.735,0,0,0,18.1,21.6Z" transform="translate(91.039 -3593.401)" fill="#12263f"/>
    <path id="Trazado_238606" data-name="Trazado 238606" d="M-39.777-5.346l5.2,2.1v1.627l-6.79-3.146V-5.977l6.79-3.138v1.627Zm8.641,0,5.2,2.1v1.627l-6.79-3.146V-5.977l6.79-3.138v1.627ZM-20.652.174a2.91,2.91,0,0,1-2.561-1.258,4.318,4.318,0,0,1-.552-3.233l.058-.365a5.617,5.617,0,0,1,1.573-3.229,3.827,3.827,0,0,1,2.719-1.237A2.6,2.6,0,0,1-17.05-8.042a4.1,4.1,0,0,1,.432,2.918L-16.784-4.1H-22.2a3.588,3.588,0,0,0,.253,2.179,1.552,1.552,0,0,0,1.49.809,3.814,3.814,0,0,0,1.37-.244A3.851,3.851,0,0,0-17.971-2l.457,1.064a4.107,4.107,0,0,1-1.295.79A4.935,4.935,0,0,1-20.652.174Zm1.038-8.035a1.866,1.866,0,0,0-1.349.7A4.047,4.047,0,0,0-21.9-5.437l.025.05h3.694l.033-.216a2.513,2.513,0,0,0-.191-1.631A1.333,1.333,0,0,0-19.615-7.861Zm7.72,2.191,2.241-3.312h1.868l-3.4,4.441L-9.156,0H-10.99l-1.237-3.4L-14.551,0H-16.4l3.495-4.541-1.984-4.441h1.843Zm8.533-5.479L-3.8-8.981H-2.25L-2.49-7.77H-4.042L-5.13-2.316a1.189,1.189,0,0,0,.042.909A.7.7,0,0,0-4.5-1.17a3.438,3.438,0,0,0,.461-.037,3.813,3.813,0,0,0,.427-.079L-3.619-.166A2.2,2.2,0,0,1-4.3.079a4.159,4.159,0,0,1-.876.1A1.586,1.586,0,0,1-6.52-.44a2.3,2.3,0,0,1-.212-1.876L-5.645-7.77H-6.956l.241-1.212H-5.4l.44-2.167ZM1.569.174A2.91,2.91,0,0,1-.992-1.083a4.318,4.318,0,0,1-.552-3.233l.058-.365A5.617,5.617,0,0,1,.087-7.911,3.827,3.827,0,0,1,2.806-9.147,2.6,2.6,0,0,1,5.171-8.042,4.1,4.1,0,0,1,5.6-5.123L5.437-4.1H.025A3.588,3.588,0,0,0,.278-1.921a1.552,1.552,0,0,0,1.49.809,3.814,3.814,0,0,0,1.37-.244A3.851,3.851,0,0,0,4.25-2L4.707-.931a4.107,4.107,0,0,1-1.295.79A4.935,4.935,0,0,1,1.569.174ZM2.606-7.861a1.866,1.866,0,0,0-1.349.7A4.047,4.047,0,0,0,.324-5.437l.025.05H4.042L4.076-5.6a2.513,2.513,0,0,0-.191-1.631A1.333,1.333,0,0,0,2.606-7.861Zm6.915.116a3.921,3.921,0,0,1,1.241-1.042,3.178,3.178,0,0,1,1.49-.361,2.157,2.157,0,0,1,1.884.863A3.359,3.359,0,0,1,14.4-5.669L13.265,0h-1.6l1.129-5.636a2.452,2.452,0,0,0-.066-1.722A1.4,1.4,0,0,0,11.5-7.819a2.181,2.181,0,0,0-1.154.353,3.556,3.556,0,0,0-1,.942L8.035,0h-1.6L8.226-8.981H9.662Zm6.558,3.254a7.535,7.535,0,0,1,1.465-3.486,3.268,3.268,0,0,1,2.594-1.17,2.7,2.7,0,0,1,1.249.286,2.437,2.437,0,0,1,.917.809l.979-4.9h1.6L22.3,0H20.918l.058-.863a3.429,3.429,0,0,1-1.1.776,3.224,3.224,0,0,1-1.3.261A2.361,2.361,0,0,1,16.4-1.121a4.519,4.519,0,0,1-.353-3.2Zm1.577.174a3.737,3.737,0,0,0,.108,2.3,1.491,1.491,0,0,0,1.494.867,1.8,1.8,0,0,0,1.058-.328,3.288,3.288,0,0,0,.859-.934l.847-4.242A1.9,1.9,0,0,0,21.37-7.5a1.8,1.8,0,0,0-1.083-.315,1.963,1.963,0,0,0-1.648.9,6.127,6.127,0,0,0-.95,2.428ZM30.8-5.4l-5.487-2.15V-9.123l7.089,3.138v1.212L25.317-1.627V-3.221Zm8.882,0L34.2-7.545V-9.123l7.089,3.138v1.212L34.2-1.627V-3.221Z" transform="translate(112.765 -3663.5)" fill="#12263f"/>
    <path id="Trazado_238615" data-name="Trazado 238615" d="M11.188-4.263A4.528,4.528,0,0,1,9.664-1.011,5.355,5.355,0,0,1,6.038.176,4.816,4.816,0,0,1,2.167-1.481,6.793,6.793,0,0,1,.756-6.029v-.782a7.671,7.671,0,0,1,.65-3.252,4.874,4.874,0,0,1,1.859-2.158,5.207,5.207,0,0,1,2.808-.751,5.217,5.217,0,0,1,3.568,1.187,4.866,4.866,0,0,1,1.564,3.331H8.569a2.673,2.673,0,0,0-.69-1.8,2.555,2.555,0,0,0-1.806-.558A2.24,2.24,0,0,0,4.1-9.866a5.3,5.3,0,0,0-.672,2.931v.967a5.667,5.667,0,0,0,.628,3.032,2.2,2.2,0,0,0,1.982.958,2.6,2.6,0,0,0,1.824-.558,2.521,2.521,0,0,0,.69-1.727Zm1.169-.58A5.64,5.64,0,0,1,12.9-7.365a3.989,3.989,0,0,1,1.569-1.714,4.577,4.577,0,0,1,2.377-.606,4.33,4.33,0,0,1,3.142,1.178,4.727,4.727,0,0,1,1.358,3.2l.018.65a4.97,4.97,0,0,1-1.222,3.511A4.247,4.247,0,0,1,16.866.176a4.268,4.268,0,0,1-3.283-1.318,5.058,5.058,0,0,1-1.226-3.586Zm2.54.18a3.555,3.555,0,0,0,.51,2.073,1.682,1.682,0,0,0,1.459.717,1.686,1.686,0,0,0,1.441-.709,3.89,3.89,0,0,0,.519-2.267,3.519,3.519,0,0,0-.519-2.06,1.686,1.686,0,0,0-1.459-.731,1.658,1.658,0,0,0-1.441.726A3.955,3.955,0,0,0,14.9-4.662ZM25.313-9.51l.079,1.063a3.342,3.342,0,0,1,2.733-1.239,2.536,2.536,0,0,1,2.522,1.45A3.265,3.265,0,0,1,33.5-9.686a2.836,2.836,0,0,1,2.3.9,4.141,4.141,0,0,1,.756,2.711V0H34.014V-6.078A1.818,1.818,0,0,0,33.7-7.263a1.4,1.4,0,0,0-1.116-.374A1.585,1.585,0,0,0,31-6.545L31.008,0h-2.54V-6.07a1.8,1.8,0,0,0-.325-1.2,1.414,1.414,0,0,0-1.107-.37,1.645,1.645,0,0,0-1.564.9V0h-2.54V-9.51ZM42.891.176a4.668,4.668,0,0,1-3.406-1.283,4.561,4.561,0,0,1-1.314-3.419v-.246a5.745,5.745,0,0,1,.554-2.562,4.064,4.064,0,0,1,1.569-1.74,4.4,4.4,0,0,1,2.316-.611,3.947,3.947,0,0,1,3.072,1.23A5,5,0,0,1,46.8-4.966v1.037H40.746a2.36,2.36,0,0,0,.743,1.494,2.245,2.245,0,0,0,1.569.563,2.742,2.742,0,0,0,2.294-1.063l1.248,1.4A3.813,3.813,0,0,1,45.053-.277,5.075,5.075,0,0,1,42.891.176ZM42.6-7.638a1.587,1.587,0,0,0-1.226.512,2.651,2.651,0,0,0-.6,1.466h3.533v-.2a1.891,1.891,0,0,0-.457-1.311A1.638,1.638,0,0,0,42.6-7.638Zm10.986.51a6.9,6.9,0,0,0-.914-.07,1.86,1.86,0,0,0-1.89.976V0h-2.54V-9.51h2.4l.07,1.134a2.354,2.354,0,0,1,2.118-1.31,2.662,2.662,0,0,1,.791.114ZM58.6-1.872a1.666,1.666,0,0,0,1.143-.387A1.355,1.355,0,0,0,60.2-3.287h2.382a3.258,3.258,0,0,1-.527,1.771A3.48,3.48,0,0,1,60.631-.268a4.442,4.442,0,0,1-1.991.444,4.129,4.129,0,0,1-3.217-1.3A5.13,5.13,0,0,1,54.246-4.7v-.167a5.071,5.071,0,0,1,1.169-3.507,4.08,4.08,0,0,1,3.208-1.31A4,4,0,0,1,61.484-8.67a3.594,3.594,0,0,1,1.094,2.7H60.2a1.745,1.745,0,0,0-.457-1.206,1.524,1.524,0,0,0-1.16-.464,1.53,1.53,0,0,0-1.34.647,3.749,3.749,0,0,0-.453,2.1v.264a3.8,3.8,0,0,0,.448,2.113A1.549,1.549,0,0,0,58.6-1.872ZM66.709,0H64.16V-9.51h2.549Zm-2.7-11.971a1.251,1.251,0,0,1,.382-.94,1.436,1.436,0,0,1,1.042-.369,1.44,1.44,0,0,1,1.037.369,1.244,1.244,0,0,1,.387.94,1.247,1.247,0,0,1-.391.949,1.443,1.443,0,0,1-1.033.369,1.443,1.443,0,0,1-1.033-.369A1.247,1.247,0,0,1,64.011-11.971ZM74.312,0a2.821,2.821,0,0,1-.255-.853,3.073,3.073,0,0,1-2.4,1.028,3.376,3.376,0,0,1-2.316-.809,2.6,2.6,0,0,1-.918-2.039,2.687,2.687,0,0,1,1.121-2.32,5.529,5.529,0,0,1,3.239-.817h1.169v-.545a1.567,1.567,0,0,0-.338-1.055,1.331,1.331,0,0,0-1.068-.4,1.513,1.513,0,0,0-1.006.308,1.045,1.045,0,0,0-.365.844h-2.54a2.551,2.551,0,0,1,.51-1.529,3.37,3.37,0,0,1,1.441-1.1,5.253,5.253,0,0,1,2.092-.4,4.15,4.15,0,0,1,2.791.883A3.09,3.09,0,0,1,76.5-6.319V-2.2a4.546,4.546,0,0,0,.378,2.048V0Zm-2.1-1.767a2.188,2.188,0,0,0,1.037-.25,1.645,1.645,0,0,0,.7-.672V-4.324H73q-1.907,0-2.03,1.318l-.009.149a1.017,1.017,0,0,0,.334.782A1.3,1.3,0,0,0,72.211-1.767ZM80.789-9.51l.079,1.1A3.32,3.32,0,0,1,83.6-9.686a2.759,2.759,0,0,1,2.25.888,4.142,4.142,0,0,1,.756,2.654V0h-2.54V-6.1a1.654,1.654,0,0,0-.352-1.176,1.572,1.572,0,0,0-1.169-.366,1.747,1.747,0,0,0-1.608.916V0H78.4V-9.51Zm10.784-2.338V-9.51H93.2v1.863H91.573V-2.9a1.133,1.133,0,0,0,.2.756,1.015,1.015,0,0,0,.773.229,4.051,4.051,0,0,0,.747-.062V-.053a5.229,5.229,0,0,1-1.538.229,2.425,2.425,0,0,1-2.725-2.7V-7.646H87.645V-9.51h1.389v-2.338ZM98.991.176a4.668,4.668,0,0,1-3.406-1.283,4.561,4.561,0,0,1-1.314-3.419v-.246a5.745,5.745,0,0,1,.554-2.562,4.064,4.064,0,0,1,1.569-1.74,4.4,4.4,0,0,1,2.316-.611,3.947,3.947,0,0,1,3.072,1.23A5,5,0,0,1,102.9-4.966v1.037H96.847a2.36,2.36,0,0,0,.743,1.494,2.245,2.245,0,0,0,1.569.563,2.742,2.742,0,0,0,2.294-1.063l1.248,1.4a3.813,3.813,0,0,1-1.547,1.261A5.075,5.075,0,0,1,98.991.176ZM98.7-7.638a1.587,1.587,0,0,0-1.226.512,2.651,2.651,0,0,0-.6,1.466h3.533v-.2a1.891,1.891,0,0,0-.457-1.311A1.638,1.638,0,0,0,98.7-7.638Z" transform="translate(-465.448 -3740.851)" fill="#12263f"/>
    <g id="Grupo_183689" data-name="Grupo 183689" transform="translate(-434.22 -3872.922)">
      <g id="Elipse_6343" data-name="Elipse 6343" transform="translate(0.492 -0.479)" fill="none" stroke="#12263f" stroke-width="4">
        <ellipse cx="23" cy="23.5" rx="23" ry="23.5" stroke="none"/>
        <ellipse cx="23" cy="23.5" rx="21" ry="21.5" fill="none"/>
      </g>
      <path id="Trazado_238529" data-name="Trazado 238529" d="M1712.463-8465v39.271" transform="translate(-1689.314 8511.368)" fill="none" stroke="#12263f" stroke-width="4"/>
      <path id="Trazado_238530" data-name="Trazado 238530" d="M1693.333-8403.218l18.3-21.449,16.4,21.449" transform="translate(-1688.286 8509.202)" fill="none" stroke="#12263f" stroke-width="4"/>
      <path id="Trazado_238531" data-name="Trazado 238531" d="M1693.333-8450.5h34.7" transform="translate(-1688.286 8510.59)" fill="none" stroke="#12263f" stroke-width="4"/>
    </g>
    <g id="Grupo_183694" data-name="Grupo 183694" transform="translate(360.021 -3879.545)">
      <g id="Elipse_6343-2" data-name="Elipse 6343" transform="translate(0.017 0.145)" fill="none" stroke="#12263f" stroke-width="4">
        <circle cx="23" cy="23" r="23" stroke="none"/>
        <circle cx="23" cy="23" r="21" fill="none"/>
      </g>
      <path id="Trazado_238529-2" data-name="Trazado 238529" d="M1712.463-8465v39.271" transform="translate(-1689.314 8511.368)" fill="none" stroke="#12263f" stroke-width="4"/>
      <path id="Trazado_238530-2" data-name="Trazado 238530" d="M1693.333-8403.218l18.3-21.449,16.4,21.449" transform="translate(-1688.286 8509.202)" fill="none" stroke="#12263f" stroke-width="4"/>
      <path id="Trazado_238531-2" data-name="Trazado 238531" d="M1693.333-8450.5h34.7" transform="translate(-1688.286 8510.59)" fill="none" stroke="#12263f" stroke-width="4"/>
    </g>
    <path id="Trazado_238616" data-name="Trazado 238616" d="M7.778-3.357A1.353,1.353,0,0,0,7.251-4.5a6.917,6.917,0,0,0-1.9-.844,13.458,13.458,0,0,1-2.171-.875A3.547,3.547,0,0,1,1-9.4a3.09,3.09,0,0,1,.584-1.85,3.812,3.812,0,0,1,1.679-1.27,6.318,6.318,0,0,1,2.457-.457,5.751,5.751,0,0,1,2.443.5,3.891,3.891,0,0,1,1.666,1.4,3.668,3.668,0,0,1,.593,2.057H7.787a1.726,1.726,0,0,0-.554-1.367,2.276,2.276,0,0,0-1.556-.488,2.432,2.432,0,0,0-1.5.409,1.289,1.289,0,0,0-.536,1.077,1.235,1.235,0,0,0,.628,1.046,7.1,7.1,0,0,0,1.85.791A7.994,7.994,0,0,1,9.4-5.871a3.343,3.343,0,0,1,1.028,2.5A3.08,3.08,0,0,1,9.167-.769,5.5,5.5,0,0,1,5.783.176,6.534,6.534,0,0,1,3.094-.365a4.256,4.256,0,0,1-1.85-1.481,3.793,3.793,0,0,1-.637-2.18H3.252q0,2.118,2.531,2.118A2.462,2.462,0,0,0,7.251-2.29,1.244,1.244,0,0,0,7.778-3.357ZM14.722,0H12.173V-9.51h2.549Zm-2.7-11.971a1.251,1.251,0,0,1,.382-.94,1.436,1.436,0,0,1,1.042-.369,1.44,1.44,0,0,1,1.037.369,1.244,1.244,0,0,1,.387.94,1.247,1.247,0,0,1-.391.949,1.443,1.443,0,0,1-1.033.369,1.443,1.443,0,0,1-1.033-.369A1.247,1.247,0,0,1,12.023-11.971Zm9.94,9.343a.818.818,0,0,0-.461-.734,5.241,5.241,0,0,0-1.481-.479q-3.393-.712-3.393-2.883a2.613,2.613,0,0,1,1.05-2.114,4.237,4.237,0,0,1,2.747-.848,4.56,4.56,0,0,1,2.9.853,2.687,2.687,0,0,1,1.085,2.215h-2.54a1.229,1.229,0,0,0-.352-.9,1.488,1.488,0,0,0-1.1-.356,1.52,1.52,0,0,0-.993.29.916.916,0,0,0-.352.738.783.783,0,0,0,.4.681,4.114,4.114,0,0,0,1.349.448,11.019,11.019,0,0,1,1.6.426,2.628,2.628,0,0,1,2.013,2.558,2.481,2.481,0,0,1-1.116,2.1,4.815,4.815,0,0,1-2.883.8A5.029,5.029,0,0,1,18.312-.25a3.561,3.561,0,0,1-1.455-1.169,2.716,2.716,0,0,1-.527-1.6h2.408a1.326,1.326,0,0,0,.5,1.037,1.987,1.987,0,0,0,1.248.36,1.839,1.839,0,0,0,1.1-.277A.861.861,0,0,0,21.964-2.628Zm7.146-9.22V-9.51h1.626v1.863H29.109V-2.9a1.133,1.133,0,0,0,.2.756,1.015,1.015,0,0,0,.773.229,4.051,4.051,0,0,0,.747-.062V-.053a5.229,5.229,0,0,1-1.538.229,2.425,2.425,0,0,1-2.725-2.7V-7.646H25.181V-9.51h1.389v-2.338ZM36.527.176a4.668,4.668,0,0,1-3.406-1.283,4.561,4.561,0,0,1-1.314-3.419v-.246a5.745,5.745,0,0,1,.554-2.562,4.064,4.064,0,0,1,1.569-1.74,4.4,4.4,0,0,1,2.316-.611,3.947,3.947,0,0,1,3.072,1.23,5,5,0,0,1,1.121,3.489v1.037H34.383a2.36,2.36,0,0,0,.743,1.494,2.245,2.245,0,0,0,1.569.563,2.742,2.742,0,0,0,2.294-1.063l1.248,1.4A3.813,3.813,0,0,1,38.689-.277,5.075,5.075,0,0,1,36.527.176Zm-.29-7.813a1.587,1.587,0,0,0-1.226.512,2.651,2.651,0,0,0-.6,1.466h3.533v-.2a1.891,1.891,0,0,0-.457-1.311A1.638,1.638,0,0,0,36.237-7.638ZM44.262-9.51l.079,1.063a3.342,3.342,0,0,1,2.733-1.239A2.536,2.536,0,0,1,49.6-8.235a3.265,3.265,0,0,1,2.856-1.45,2.836,2.836,0,0,1,2.3.9,4.141,4.141,0,0,1,.756,2.711V0H52.963V-6.078a1.818,1.818,0,0,0-.316-1.185,1.4,1.4,0,0,0-1.116-.374,1.585,1.585,0,0,0-1.582,1.092L49.957,0h-2.54V-6.07a1.8,1.8,0,0,0-.325-1.2,1.414,1.414,0,0,0-1.107-.37,1.645,1.645,0,0,0-1.564.9V0H41.88V-9.51ZM62.974,0a2.821,2.821,0,0,1-.255-.853,3.073,3.073,0,0,1-2.4,1.028A3.376,3.376,0,0,1,58-.633a2.6,2.6,0,0,1-.918-2.039,2.687,2.687,0,0,1,1.121-2.32,5.529,5.529,0,0,1,3.239-.817h1.169v-.545a1.567,1.567,0,0,0-.338-1.055,1.331,1.331,0,0,0-1.068-.4A1.513,1.513,0,0,0,60.2-7.5a1.045,1.045,0,0,0-.365.844H57.3a2.551,2.551,0,0,1,.51-1.529,3.37,3.37,0,0,1,1.441-1.1,5.253,5.253,0,0,1,2.092-.4,4.15,4.15,0,0,1,2.791.883,3.09,3.09,0,0,1,1.033,2.483V-2.2A4.546,4.546,0,0,0,65.54-.149V0Zm-2.1-1.767a2.188,2.188,0,0,0,1.037-.25,1.645,1.645,0,0,0,.7-.672V-4.324h-.949q-1.907,0-2.03,1.318l-.009.149a1.017,1.017,0,0,0,.334.782A1.3,1.3,0,0,0,60.873-1.767ZM75.973.176a4.668,4.668,0,0,1-3.406-1.283,4.561,4.561,0,0,1-1.314-3.419v-.246a5.745,5.745,0,0,1,.554-2.562,4.064,4.064,0,0,1,1.569-1.74,4.4,4.4,0,0,1,2.316-.611,3.947,3.947,0,0,1,3.072,1.23,5,5,0,0,1,1.121,3.489v1.037H73.828a2.36,2.36,0,0,0,.743,1.494,2.245,2.245,0,0,0,1.569.563,2.742,2.742,0,0,0,2.294-1.063l1.248,1.4A3.813,3.813,0,0,1,78.135-.277,5.075,5.075,0,0,1,75.973.176Zm-.29-7.813a1.587,1.587,0,0,0-1.226.512,2.651,2.651,0,0,0-.6,1.466h3.533v-.2a1.891,1.891,0,0,0-.457-1.311A1.638,1.638,0,0,0,75.683-7.638Zm9.264.967,1.6-2.839h2.716L86.555-4.852,89.376,0H86.651l-1.7-2.988L83.268,0H80.534l2.821-4.852-2.7-4.658h2.725Zm8.578-5.177V-9.51H95.15v1.863H93.524V-2.9a1.133,1.133,0,0,0,.2.756,1.015,1.015,0,0,0,.773.229,4.051,4.051,0,0,0,.747-.062V-.053a5.229,5.229,0,0,1-1.538.229,2.425,2.425,0,0,1-2.725-2.7V-7.646H89.6V-9.51h1.389v-2.338ZM100.942.176a4.668,4.668,0,0,1-3.406-1.283,4.561,4.561,0,0,1-1.314-3.419v-.246a5.745,5.745,0,0,1,.554-2.562,4.064,4.064,0,0,1,1.569-1.74,4.4,4.4,0,0,1,2.316-.611,3.947,3.947,0,0,1,3.072,1.23,5,5,0,0,1,1.121,3.489v1.037H98.8a2.36,2.36,0,0,0,.743,1.494,2.245,2.245,0,0,0,1.569.563A2.742,2.742,0,0,0,103.4-2.936l1.248,1.4A3.813,3.813,0,0,1,103.1-.277,5.075,5.075,0,0,1,100.942.176Zm-.29-7.813a1.587,1.587,0,0,0-1.226.512,2.651,2.651,0,0,0-.6,1.466h3.533v-.2a1.891,1.891,0,0,0-.457-1.311A1.638,1.638,0,0,0,100.652-7.638Zm10.986.51a6.9,6.9,0,0,0-.914-.07,1.86,1.86,0,0,0-1.89.976V0h-2.54V-9.51h2.4l.07,1.134a2.354,2.354,0,0,1,2.118-1.31,2.662,2.662,0,0,1,.791.114ZM115.2-9.51l.079,1.1a3.32,3.32,0,0,1,2.733-1.274,2.759,2.759,0,0,1,2.25.888,4.142,4.142,0,0,1,.756,2.654V0h-2.54V-6.1a1.654,1.654,0,0,0-.352-1.176,1.572,1.572,0,0,0-1.169-.366,1.747,1.747,0,0,0-1.608.916V0h-2.54V-9.51Zm7.348,4.667a5.64,5.64,0,0,1,.545-2.522,3.989,3.989,0,0,1,1.569-1.714,4.577,4.577,0,0,1,2.377-.606,4.33,4.33,0,0,1,3.142,1.178,4.727,4.727,0,0,1,1.358,3.2l.018.65a4.97,4.97,0,0,1-1.222,3.511A4.247,4.247,0,0,1,127.055.176a4.268,4.268,0,0,1-3.283-1.318,5.058,5.058,0,0,1-1.226-3.586Zm2.54.18a3.555,3.555,0,0,0,.51,2.073,1.682,1.682,0,0,0,1.459.717,1.686,1.686,0,0,0,1.441-.709,3.89,3.89,0,0,0,.519-2.267,3.519,3.519,0,0,0-.519-2.06,1.686,1.686,0,0,0-1.459-.731,1.658,1.658,0,0,0-1.441.726A3.955,3.955,0,0,0,125.086-4.662Z" transform="translate(313.653 -3735.172)" fill="#12263f"/>
    <path id="Trazado_238609" data-name="Trazado 238609" d="M0,48.615,243.676,0" transform="translate(-363.857 -3860.5)" fill="none" stroke="#12263f" stroke-width="3"/>
    <path id="Trazado_238610" data-name="Trazado 238610" d="M0,0,189.676,64.352" transform="translate(-363.857 -3794.852)" fill="none" stroke="#12263f" stroke-width="3"/>
    <path id="Trazado_238611" data-name="Trazado 238611" d="M0,83.385,215.823,0" transform="translate(106.819 -3811.885)" fill="none" stroke="#12263f" stroke-width="3"/>
    <path id="Trazado_237869" data-name="Trazado 237869" d="M0,0H52.036" transform="matrix(-0.469, -0.883, 0.883, -0.469, 51.769, -3639.032)" fill="none" stroke="red" stroke-width="4" stroke-dasharray="8 5"/>
    <path id="Trazado_237870" data-name="Trazado 237870" d="M0,0,7.763,7.763,0,15.525" transform="matrix(-0.469, -0.883, 0.883, -0.469, 22.843, -3676.499)" fill="none" stroke="red" stroke-width="4"/>
  </g>
</svg>
