<svg xmlns="http://www.w3.org/2000/svg" width="239.901" height="43.171" viewBox="0 0 239.901 43.171">
  <g id="Grupo_183719" data-name="Grupo 183719" transform="translate(-682.878 -6776.813)">
    <g id="Grupo_182934" data-name="Grupo 182934" transform="translate(-1847.5 11671)">
      <path id="Trazado_237869" data-name="Trazado 237869" d="M2711.828-4536.133h220.648" transform="translate(-181.45 -333)" fill="none" stroke="#12263f" stroke-width="8" stroke-dasharray="10 5"/>
      <path id="Trazado_237870" data-name="Trazado 237870" d="M2918.411-4570.2l15.191,15.191-15.191,15.19" transform="translate(-168.98 -314.023)" fill="none" stroke="#12263f" stroke-width="8"/>
    </g>
    <path id="Trazado_238585" data-name="Trazado 238585" d="M2.7-4.523l-.672.141v.047l.6.148L6.289-2.406l-.32,1.57L.641-3.8l.172-.844.063-.32L7.391-7.914l-.32,1.57Zm7.625,0-.672.141v.047l.6.148,3.656,1.781-.32,1.57L8.266-3.8l.172-.844.063-.32,6.516-2.953-.32,1.57ZM19.047.164a2.739,2.739,0,0,1-2.41-1.184,4.064,4.064,0,0,1-.52-3.043l.055-.344a5.286,5.286,0,0,1,1.48-3.039,3.6,3.6,0,0,1,2.559-1.164,2.448,2.448,0,0,1,2.227,1.041,3.859,3.859,0,0,1,.406,2.747l-.156.963H17.594a3.377,3.377,0,0,0,.238,2.051,1.461,1.461,0,0,0,1.4.761,3.59,3.59,0,0,0,1.289-.229,3.624,3.624,0,0,0,1.047-.6l.43,1a3.866,3.866,0,0,1-1.219.743A4.645,4.645,0,0,1,19.047.164ZM20.023-7.4a1.757,1.757,0,0,0-1.27.656,3.809,3.809,0,0,0-.879,1.625l.023.047h3.477l.031-.2a2.365,2.365,0,0,0-.18-1.535A1.254,1.254,0,0,0,20.023-7.4Zm7.266,2.063L29.4-8.453h1.758l-3.2,4.18L29.867,0H28.141L26.977-3.2,24.789,0H23.047l3.289-4.273-1.867-4.18H26.2Zm8.031-5.156-.414,2.039h1.461l-.227,1.141H34.68L33.656-2.18a1.119,1.119,0,0,0,.039.855.657.657,0,0,0,.555.223,3.236,3.236,0,0,0,.434-.035,3.588,3.588,0,0,0,.4-.074L35.078-.156a2.072,2.072,0,0,1-.645.23,3.914,3.914,0,0,1-.824.09,1.493,1.493,0,0,1-1.262-.578,2.162,2.162,0,0,1-.2-1.766l1.023-5.133H31.938l.227-1.141H33.4l.414-2.039ZM39.961.164a2.739,2.739,0,0,1-2.41-1.184,4.064,4.064,0,0,1-.52-3.043l.055-.344a5.286,5.286,0,0,1,1.48-3.039,3.6,3.6,0,0,1,2.559-1.164,2.448,2.448,0,0,1,2.227,1.041,3.859,3.859,0,0,1,.406,2.747l-.156.963H38.508a3.377,3.377,0,0,0,.238,2.051,1.461,1.461,0,0,0,1.4.761,3.59,3.59,0,0,0,1.289-.229,3.624,3.624,0,0,0,1.047-.6l.43,1A3.866,3.866,0,0,1,41.7-.133,4.645,4.645,0,0,1,39.961.164ZM40.938-7.4a1.757,1.757,0,0,0-1.27.656,3.809,3.809,0,0,0-.879,1.625l.023.047h3.477l.031-.2a2.365,2.365,0,0,0-.18-1.535A1.254,1.254,0,0,0,40.938-7.4Zm6.508.109a3.69,3.69,0,0,1,1.168-.98,2.991,2.991,0,0,1,1.4-.34,2.03,2.03,0,0,1,1.773.813,3.162,3.162,0,0,1,.25,2.461L50.969,0H49.461l1.063-5.3a2.308,2.308,0,0,0-.062-1.621A1.313,1.313,0,0,0,49.3-7.359a2.053,2.053,0,0,0-1.086.332,3.347,3.347,0,0,0-.945.887L46.047,0H44.539l1.688-8.453h1.352Zm6.172,3.063A7.091,7.091,0,0,1,55-7.508a3.076,3.076,0,0,1,2.441-1.1,2.546,2.546,0,0,1,1.176.27,2.294,2.294,0,0,1,.863.762l.922-4.609h1.508L59.469,0h-1.3l.055-.812a3.227,3.227,0,0,1-1.035.73,3.035,3.035,0,0,1-1.223.246,2.222,2.222,0,0,1-2.051-1.219,4.253,4.253,0,0,1-.332-3.008Zm1.484.164a3.518,3.518,0,0,0,.1,2.16,1.4,1.4,0,0,0,1.406.816,1.7,1.7,0,0,0,1-.309,3.1,3.1,0,0,0,.809-.879l.8-3.992a1.791,1.791,0,0,0-.613-.8,1.693,1.693,0,0,0-1.02-.3,1.847,1.847,0,0,0-1.551.848,5.767,5.767,0,0,0-.895,2.285ZM66.7-2.246a.944.944,0,0,0-.211-.841,2.669,2.669,0,0,0-1.234-.561,4.706,4.706,0,0,1-2.027-.914,1.606,1.606,0,0,1-.48-1.562,2.72,2.72,0,0,1,1.1-1.777A3.621,3.621,0,0,1,66.1-8.609a2.671,2.671,0,0,1,2.047.766,2,2,0,0,1,.516,1.836l-.023.047H67.2a1.227,1.227,0,0,0-.25-1A1.236,1.236,0,0,0,65.914-7.4a1.723,1.723,0,0,0-1.141.364,1.386,1.386,0,0,0-.516.866.878.878,0,0,0,.184.8,2.816,2.816,0,0,0,1.223.509,4.639,4.639,0,0,1,2.078.932,1.668,1.668,0,0,1,.477,1.58A2.689,2.689,0,0,1,67.078-.511a3.953,3.953,0,0,1-2.344.675,2.872,2.872,0,0,1-2.219-.828,2.064,2.064,0,0,1-.547-1.906l.016-.047H63.43a1.25,1.25,0,0,0,.352,1.193,1.723,1.723,0,0,0,1.141.377,2.07,2.07,0,0,0,1.2-.335A1.271,1.271,0,0,0,66.7-2.246Zm4.086-4.144.3-1.523,5.641,2.953-.062.313-.109.539-.062.313L69.664-.836l.313-1.531,4.68-1.859.672-.141v-.047l-.6-.148Zm7.875,0,.3-1.523L84.6-4.961l-.062.313-.109.539-.062.313L77.539-.836l.313-1.531,4.68-1.859.672-.141v-.047l-.6-.148Z" transform="translate(754.72 6789)" fill="#12263f"/>
  </g>
</svg>
