<svg id="Grupo_182837" data-name="Grupo 182837" xmlns="http://www.w3.org/2000/svg" xmlns:xlink="http://www.w3.org/1999/xlink" width="81.269" height="81.269" viewBox="0 0 81.269 81.269">
  <defs>
    <radialGradient id="radial-gradient" cx="0.076" cy="0.019" r="1.465" gradientTransform="translate(0.001)" gradientUnits="objectBoundingBox">
      <stop offset="0" stop-color="#f6f6f7"/>
      <stop offset="0.477" stop-color="#f9f9fa"/>
      <stop offset="0.715" stop-color="#fff"/>
    </radialGradient>
  </defs>
  <g id="Grupo_18531" data-name="Grupo 18531" transform="translate(0 0)">
    <g id="Grupo_18423" data-name="Grupo 18423">
      <g id="Grupo_18421" data-name="Grupo 18421">
        <g id="Grupo_18420" data-name="Grupo 18420">
          <g id="Grupo_18419" data-name="Grupo 18419">
            <path id="Trazado_40936" data-name="Trazado 40936" d="M275.892,2186.354a40.634,40.634,0,1,1-40.634-40.633A40.634,40.634,0,0,1,275.892,2186.354Z" transform="translate(-194.623 -2145.721)" fill="#fff"/>
          </g>
        </g>
      </g>
      <path id="Trazado_40937" data-name="Trazado 40937" d="M275.708,2186.154a40.634,40.634,0,1,0-40.634,40.635A40.473,40.473,0,0,0,275.708,2186.154Z" transform="translate(-194.439 -2145.521)" fill="url(#radial-gradient)"/>
      <path id="Trazado_40938" data-name="Trazado 40938" d="M264.529,2184.607a31.016,31.016,0,1,0-31.016,31.016A30.9,30.9,0,0,0,264.529,2184.607Z" transform="translate(-192.755 -2143.838)" fill="none" stroke="#4adbd1" stroke-miterlimit="10" stroke-width="5"/>
      <g id="Grupo_18422" data-name="Grupo 18422" transform="translate(7.199 22.813)">
        <path id="Trazado_40939" data-name="Trazado 40939" d="M270.506,2164.488a40.639,40.639,0,0,1-69.961,40.466,40.51,40.51,0,0,0,69.961-40.466Z" transform="translate(-200.545 -2164.488)" fill="#eceef0"/>
      </g>
    </g>
  </g>
  <g id="LwdD94.tif" transform="translate(21.853 21.844)">
    <g id="Grupo_157288" data-name="Grupo 157288" transform="translate(0)">
      <path id="Trazado_197625" data-name="Trazado 197625" d="M-2541.156,314.86h-1.211a.838.838,0,0,0-.162-.076,3.719,3.719,0,0,1-2.64-2.17.715.715,0,0,0-.323-.316,1.827,1.827,0,0,1-1.074-1.284,1.763,1.763,0,0,1,.325-1.5l-.46-1.569c-1.171,1.172-2.359,2.37-3.561,3.555a1.787,1.787,0,0,1-.589.382c-1.72.673-3.448,1.327-5.17,1.994-.827.32-1.648.657-2.471.986h-.833c-1.275-.728-1.464-1.278-.922-2.691.893-2.326,1.781-4.654,2.684-6.976a1.963,1.963,0,0,1,.427-.649q2.423-2.448,4.87-4.873a.464.464,0,0,0,.133-.553,8.243,8.243,0,0,1-.433-1.789c-.071-1.009-.019-2.026-.019-3.052.011,0-.012-.011-.036-.011q-1.854,0-3.709-.007a8.106,8.106,0,0,1-1.021-.021,3.666,3.666,0,0,1-3.172-3.185,3.665,3.665,0,0,1,2.308-3.824c.079-.032.157-.066.178-.075a19.378,19.378,0,0,1,.014-2.368,6.031,6.031,0,0,1,5.716-5.062,6,6,0,0,1,5.466,2.984.422.422,0,0,0,.345.16,4.812,4.812,0,0,1,5.19,2.12.615.615,0,0,0,.356.209c.751.152,1.51.266,2.258.433a.567.567,0,0,0,.623-.16c2.24-2.257,4.479-4.514,6.743-6.746a4.651,4.651,0,0,1,4.772-1.24,4.724,4.724,0,0,1,3.428,3.548c.045.169.092.337.138.506V282.9c-.022.029-.058.057-.063.089a5.106,5.106,0,0,1-1.564,2.865c-2.025,2.006-4.012,4.052-6.064,6.03a1.431,1.431,0,0,0-.5,1.737,10.961,10.961,0,0,1,.345,1.87h1.182c0,.389,0,.741,0,1.093a1.173,1.173,0,0,0,.71,1.185,1.128,1.128,0,0,0,1.372-.3c.265-.267.5-.561.721-.808l2.646,2.647c-.259.248-.545.512-.819.788a1.114,1.114,0,0,0-.275,1.314,1.159,1.159,0,0,0,1.135.731c.391.007.782,0,1.173,0v3.635c-.391,0-.782-.007-1.173,0a1.147,1.147,0,0,0-1.134.729,1.125,1.125,0,0,0,.275,1.316c.275.275.56.541.789.761l-2.612,2.624c-.222-.234-.471-.5-.725-.764a1.131,1.131,0,0,0-1.338-.317,1.181,1.181,0,0,0-.746,1.2c0,.361,0,.723,0,1.082h-3.631v-1.086a1.176,1.176,0,0,0-.712-1.185,1.123,1.123,0,0,0-1.371.308c-.264.267-.5.561-.847.953l-.687-.893a1.911,1.911,0,0,1-1.233,1.839.536.536,0,0,0-.225.266,3.26,3.26,0,0,1-1.213,1.514A14.992,14.992,0,0,1-2541.156,314.86Zm-13.3-24.253c-.031-.172-.057-.333-.089-.492a2.4,2.4,0,0,0-2.817-1.85,2.389,2.389,0,0,0-1.909,2.774,2.409,2.409,0,0,0,2.47,2.012q8.061.007,16.122,0c.063,0,.126,0,.189,0a1.835,1.835,0,0,0,1.736-1.565,1.827,1.827,0,0,0-1.03-1.892,1.751,1.751,0,0,0-2.17.527,6.125,6.125,0,0,0-.5,1.086h-1.122a2.784,2.784,0,0,1,1.238-2.374,1.244,1.244,0,0,0,.579-1.165,3.611,3.611,0,0,0-.054-.6,3.616,3.616,0,0,0-3.4-3.095,3.66,3.66,0,0,0-3.663,2.652c-.091.318-.069.473.28.62a2.191,2.191,0,0,1,1.352,2.15h-1.145c-.2-.778-.6-1.165-1.2-1.188s-1,.345-1.289,1.181h-1.153a2.346,2.346,0,0,1,1.552-2.229.451.451,0,0,0,.328-.4,4.712,4.712,0,0,1,1.783-2.976c.165-.131.337-.254.5-.377a4.787,4.787,0,0,0-6.183-2.028,4.741,4.741,0,0,0-2.643,5.6,3.619,3.619,0,0,1,3.4,3.625Zm13.929-2.421a1.171,1.171,0,0,0,.117.02,3.045,3.045,0,0,1,2.885,2.749,3.008,3.008,0,0,1-2.485,3.253,7.3,7.3,0,0,1-1.281.052c-.752.007-1.5,0-2.286,0,0,.56,0,1.074,0,1.589,0,.631.206.836.84.837,1.513,0,3.027,0,4.541,0a1.8,1.8,0,0,1,1.886,1.795,1.8,1.8,0,0,1-1.883,1.836q-2.857,0-5.714,0a1.744,1.744,0,0,0-.34.011.585.585,0,0,0-.53.595.588.588,0,0,0,.529.6,1.306,1.306,0,0,0,.264.011c.341,0,.681,0,1.022,0a1.8,1.8,0,0,1,1.806,1.8c.007,1.005,0,2.01,0,3.052.909,0,1.776.006,2.644-.01.083,0,.181-.134.241-.225a21.529,21.529,0,0,1,1.421-2.128c.809-.948,1.72-1.809,2.595-2.7a7.248,7.248,0,0,0,2.089-6.51,9.542,9.542,0,0,0-6.185-7.771,20.339,20.339,0,0,0-2.275-.642C-2540.592,287.055-2540.562,287.6-2540.53,288.185Zm-1.837,18.185c0-1.023.009-2.005,0-2.988a.609.609,0,0,0-.653-.637c-.365-.013-.732,0-1.1,0a1.8,1.8,0,0,1-1.877-1.8,1.8,1.8,0,0,1,1.891-1.827q2.839,0,5.678,0a2.1,2.1,0,0,0,.377-.013.592.592,0,0,0,.456-.856.692.692,0,0,0-.7-.347q-2.29.005-4.58,0a1.8,1.8,0,0,1-1.911-1.922c0-.563,0-1.126,0-1.712-2.117,0-4.184,0-6.251.008a.328.328,0,0,0-.249.191,7.049,7.049,0,0,0,.95,5.474,19.95,19.95,0,0,0,2.162,2.47,12.726,12.726,0,0,1,3.017,3.966Zm15.584,3.082.832-.814a2.349,2.349,0,0,1-.469-2.614,2.371,2.371,0,0,1,2.194-1.487v-1.175c-2.2-.166-3-2.138-1.72-4.131l-.811-.821a2.356,2.356,0,0,1-2.412.586,2.42,2.42,0,0,1-1.674-1.831l-.7,2.53a4.25,4.25,0,0,1,4.3,3.9,4.244,4.244,0,0,1-3.333,4.508,4.153,4.153,0,0,1-2.926-.432,4.3,4.3,0,0,1-2.185-3.15,7.328,7.328,0,0,0-1.583,2.431.375.375,0,0,0,.069.27,1.863,1.863,0,0,1,.257,1.305.412.412,0,0,0,.079.29c.2.242.42.467.643.709a2.391,2.391,0,0,1,2.668-.537,2.38,2.38,0,0,1,1.5,2.233h1.169A2.437,2.437,0,0,1-2526.783,309.452Zm-4.331-29.189,5.17,5.172c2.086-1.862,2.348-4.25.6-5.9C-2526.744,278.215-2529.224,277.866-2531.114,280.263Zm-22.809,26.981,4.382-4.391-1.865-2.17-4.537,4.54Zm-2.742-.9a.084.084,0,0,0-.035.035c-.481,1.242-.965,2.483-1.431,3.73a.414.414,0,0,0,.112.339c.623.642,1.267,1.264,1.888,1.908a.355.355,0,0,0,.461.081c.571-.231,1.147-.447,1.721-.669l1.951-.755Zm3.766,1.839,2.12,2.119c1.313-1.316,2.66-2.661,4-4.015a.311.311,0,0,0,.06-.283,9.731,9.731,0,0,0-1.81-2.193Zm24.461-4.223a3.049,3.049,0,0,0-3.041-3.025,1.523,1.523,0,0,0-1.372.621,7.627,7.627,0,0,1-1.18,1.272,1.4,1.4,0,0,0-.462,1.14,3.06,3.06,0,0,0,3.05,3.02A3.061,3.061,0,0,0-2528.438,303.956Zm-2.422-17.826-2.707,2.7,1.66,2.48,3.115-3.113Zm-.993-.923-2.066-2.063-3.074,3.074,2.489,1.668Zm-1.088-3.12,5.124,5.124.841-.779-5.157-5.158Zm-8.832,26.715q1.417,0,2.832,0c.5,0,.8-.222.809-.6s-.291-.617-.787-.617q-2.851,0-5.7,0c-.471,0-.763.231-.771.6s.292.616.787.618C-2543.661,308.8-2542.716,308.8-2541.772,308.8Zm0,2.423c.982,0,1.964.005,2.946,0a.63.63,0,0,0,.691-.6.623.623,0,0,0-.678-.61c-1.964-.006-3.927-.011-5.891.01a.8.8,0,0,0-.567.284.61.61,0,0,0-.024.577.921.921,0,0,0,.616.326C-2543.707,311.245-2542.737,311.226-2541.768,311.226Zm2.114,1.233h-4.217a2.43,2.43,0,0,0,2.11,1.178A2.422,2.422,0,0,0-2539.654,312.459Zm-17.6.575-1.456-1.452c-.183.48-.39.978-.557,1.49a.525.525,0,0,0,.1.433.457.457,0,0,0,.4.1C-2558.254,313.43-2557.748,313.221-2557.258,313.034Z" transform="translate(2560.549 -277.279)" fill="#12263f"/>
      <path id="Trazado_197626" data-name="Trazado 197626" d="M-2197.458,606.815a1.8,1.8,0,0,1-1.821,1.82,1.8,1.8,0,0,1-1.81-1.831,1.8,1.8,0,0,1,1.8-1.8A1.8,1.8,0,0,1-2197.458,606.815Zm-1.214,0a.631.631,0,0,0-.608-.6.63.63,0,0,0-.6.608.631.631,0,0,0,.608.6A.633.633,0,0,0-2198.672,606.813Z" transform="translate(2228.358 -580.143)" fill="#12263f"/>
    </g>
  </g>
</svg>
