<svg xmlns="http://www.w3.org/2000/svg" xmlns:xlink="http://www.w3.org/1999/xlink" width="126" height="126" viewBox="0 0 126 126">
  <defs>
    <filter id="Elipse_6215" x="0" y="0" width="126" height="126" filterUnits="userSpaceOnUse">
      <feOffset dy="3" input="SourceAlpha"/>
      <feGaussianBlur stdDeviation="3" result="blur"/>
      <feFlood flood-opacity="0.161"/>
      <feComposite operator="in" in2="blur"/>
      <feComposite in="SourceGraphic"/>
    </filter>
    <clipPath id="clip-path">
      <rect id="Rectángulo_58343" data-name="Rectángulo 58343" width="73.246" height="73.229" fill="#12263f"/>
    </clipPath>
  </defs>
  <g id="Grupo_183599" data-name="Grupo 183599" transform="translate(-812 -3898.332)">
    <g transform="matrix(1, 0, 0, 1, 812, 3898.33)" filter="url(#Elipse_6215)">
      <circle id="Elipse_6215-2" data-name="Elipse 6215" cx="54" cy="54" r="54" transform="translate(9 6)" fill="#fff"/>
    </g>
    <g id="Grupo_180447" data-name="Grupo 180447" transform="translate(842.625 3925.332)">
      <g id="Grupo_180446" data-name="Grupo 180446" clip-path="url(#clip-path)">
        <path id="Trazado_231959" data-name="Trazado 231959" d="M0,2.86c.044-.051.109-.1.13-.155A3.623,3.623,0,0,1,3.946,0Q26.614,0,49.281,0c1.43,0,2.86-.007,4.29,0a3.612,3.612,0,0,1,3.792,3.761q.02,10.8,0,21.591c0,.937-.5,1.53-1.246,1.505-.726-.024-1.184-.592-1.185-1.5q0-6.148,0-12.3v-.8H2.437v.826q0,16.3,0,32.6c0,1.53.372,1.907,1.886,1.908H20.2c1.173,0,1.755.391,1.781,1.186.027.822-.6,1.263-1.788,1.263-5.125,0-10.251-.066-15.374.03C2.514,50.125.831,49.455,0,47.2V2.86M2.442,9.683H54.936c0-1.793,0-3.53,0-5.267,0-1.638-.338-1.98-1.956-1.98H4.368a6.084,6.084,0,0,0-.643.009,1.233,1.233,0,0,0-1.27,1.284C2.417,5.7,2.442,7.674,2.442,9.683" transform="translate(0 0)" fill="#12263f"/>
        <path id="Trazado_231960" data-name="Trazado 231960" d="M192.8,219.074a2.9,2.9,0,0,1-1.758-3.228c.024-.233,0-.471,0-.767a21.329,21.329,0,0,1-8.134-3.36c-.431.4-.8.776-1.2,1.116a2.419,2.419,0,0,1-3.418-.051c-.592-.553-1.168-1.125-1.719-1.719a2.414,2.414,0,0,1,.018-3.469,11.51,11.51,0,0,1,.961-.846c-.914-2.02-1.774-3.839-2.554-5.691-.3-.715-.393-1.516-.641-2.258a.83.83,0,0,0-.546-.441,7.169,7.169,0,0,0-1.14-.034,2.341,2.341,0,0,1-2.34-2.162,20.527,20.527,0,0,1-.01-2.925,2.312,2.312,0,0,1,2.277-2.217c.562-.042,1.3.112,1.637-.185s.276-1.065.46-1.6c.376-1.1.742-2.209,1.219-3.266s1.085-2.057,1.684-3.17c-.275-.285-.6-.618-.923-.96a2.461,2.461,0,0,1,.005-3.684c.512-.533,1.031-1.059,1.569-1.566a2.436,2.436,0,0,1,3.577.012c.346.325.658.687.85.889,1.959-.885,3.779-1.745,5.632-2.527a11.721,11.721,0,0,1,2.2-.591.523.523,0,0,0,.5-.618,11.7,11.7,0,0,1,.058-1.213,2.3,2.3,0,0,1,2.239-2.255,20.621,20.621,0,0,1,2.926.016,2.328,2.328,0,0,1,2.134,2.29c.022.543,0,1.088,0,1.554,1.487.469,2.925.821,4.276,1.379,1.333.55,2.58,1.31,3.935,2.014.334-.313.724-.693,1.131-1.054a2.42,2.42,0,0,1,3.364.026c.612.566,1.2,1.158,1.77,1.768a2.385,2.385,0,0,1,.006,3.408,13.073,13.073,0,0,1-1.133.993,27.661,27.661,0,0,1,1.531,2.79c.637,1.555,1.187,3.15,1.679,4.757.171.558.367.819.949.749a3.364,3.364,0,0,1,.571.019,2.462,2.462,0,0,1,2.667,2.809c0,.715.013,1.43,0,2.145a2.417,2.417,0,0,1-2.37,2.375c-.522.017-1.045,0-1.572,0a21.51,21.51,0,0,1-.767,2.7c-.706,1.656-1.49,3.281-2.32,4.879-.248.478-.228.728.148,1.073a3.1,3.1,0,0,1,1.313,2.421c-.051,1.461-2.634,4.046-4.095,4.1a2.832,2.832,0,0,1-2.309-1.222.813.813,0,0,0-1.3-.167,19.184,19.184,0,0,1-6.74,2.807c-.229.05-.452.123-.739.2.138,1.673.044,3.252-1.848,3.954Zm-20-23.184c.458,0,.881-.005,1.3,0a2.392,2.392,0,0,1,2.611,2.048,20.448,20.448,0,0,0,2.956,7.136,2.424,2.424,0,0,1-.4,3.3,11.606,11.606,0,0,1-.918.774l1.817,1.971a6.438,6.438,0,0,1,.562-.765c1.33-1.346,2.27-1.485,3.856-.466a20.072,20.072,0,0,0,6.834,2.769,2.462,2.462,0,0,1,2.081,2.6c.006.444,0,.888,0,1.343h2.43c0-.507-.009-.978,0-1.448a2.38,2.38,0,0,1,2.02-2.487,20.29,20.29,0,0,0,7.14-2.947,2.39,2.39,0,0,1,3.3.352c.319.308.59.667,1,1.142a11.7,11.7,0,0,1,.85-1.029,12.212,12.212,0,0,1,1.1-.816,15.467,15.467,0,0,1-1.364-1.145,2.3,2.3,0,0,1-.316-3.016,20.972,20.972,0,0,0,3.061-7.4,2.35,2.35,0,0,1,2.43-1.91c.49-.012.981,0,1.479,0v-2.431c-.511,0-.983.01-1.453,0a2.438,2.438,0,0,1-2.47-1.977,20.409,20.409,0,0,0-3-7.271,2.35,2.35,0,0,1,.348-3.186,8.917,8.917,0,0,1,.99-.794l-1.818-1.883c-.226.248-.472.542-.742.81a2.523,2.523,0,0,1-3.475.425,13.3,13.3,0,0,0-1.975-1.138c-1.68-.644-3.388-1.221-5.1-1.759a2.509,2.509,0,0,1-2.008-2.514c-.01-.467,0-.935,0-1.414H193.5c0,.435,0,.834,0,1.233a2.451,2.451,0,0,1-2.069,2.68,20.561,20.561,0,0,0-7.139,2.952,2.417,2.417,0,0,1-3.3-.386,9.257,9.257,0,0,1-.8-1.033l-1.962,1.912a12,12,0,0,1,1.212,1.021,2.322,2.322,0,0,1,.31,2.961,21.834,21.834,0,0,0-3.1,7.46,2.365,2.365,0,0,1-2.439,1.9c-.468.011-.936,0-1.414,0Z" transform="translate(-145.875 -145.845)" fill="#12263f"/>
        <path id="Trazado_231961" data-name="Trazado 231961" d="M60.443,394.219c-.895-.638-.732-1.6-.715-2.41l-3.258-1.342a6.922,6.922,0,0,1-.7.877,1.178,1.178,0,0,1-1.727.055,1.161,1.161,0,0,1,.021-1.771,1.312,1.312,0,0,0,.281-2.063,6.95,6.95,0,0,1-.634-1.671,20.273,20.273,0,0,1-2.222-.669c-.189-.079-.307-.539-.306-.824,0-.854.55-1.111,2.371-1.207.433-.939.867-1.849,1.263-2.775a.607.607,0,0,0-.15-.476c-.223-.277-.513-.5-.733-.779a1.217,1.217,0,0,1,.086-1.626,1.2,1.2,0,0,1,1.62-.074c.367.3.695.642.962.893.974-.364,1.884-.689,2.778-1.053a.66.66,0,0,0,.327-.446c.053-.35,0-.714.034-1.069a1.226,1.226,0,0,1,1.2-1.1c.6,0,1.268.5,1.176,1.1-.188,1.231.389,1.688,1.47,1.856a2.741,2.741,0,0,1,.779.344c.252.131.492.285.8.466.3-.283.591-.586.909-.862a1.233,1.233,0,0,1,1.789-.015A1.165,1.165,0,0,1,67.8,379.3c-.856.661-.764,1.251-.255,2.062a9.666,9.666,0,0,1,.692,1.855c.342,0,.721-.013,1.1,0a1.289,1.289,0,0,1,1.381,1.246,1.168,1.168,0,0,1-1.329,1.179c-.981-.092-1.422.267-1.543,1.208a1.907,1.907,0,0,1-.393.907c-.574.711-.372,1.188.264,1.762a1.185,1.185,0,0,1-.445,2.146,2,2,0,0,1-1.209-.384,3.668,3.668,0,0,1-.732-.786L62.166,391.8c-.038.8.19,1.78-.722,2.416Zm-4.352-9.783a4.845,4.845,0,1,0,9.69.041,4.845,4.845,0,1,0-9.69-.041" transform="translate(-43.848 -320.991)" fill="#12263f"/>
        <path id="Trazado_231962" data-name="Trazado 231962" d="M48.675,110.74c1.215,0,2.43-.016,3.645,0a2.381,2.381,0,0,1,2.437,2.44q.021,3.644,0,7.289a2.31,2.31,0,0,1-2.287,2.428q-3.822.072-7.646,0a2.19,2.19,0,0,1-2.224-2.17q-.1-3.89,0-7.784a2.271,2.271,0,0,1,2.359-2.2c1.239-.021,2.478,0,3.717-.005m-3.623,9.679H52.29v-7.206H45.052Z" transform="translate(-36.453 -94.865)" fill="#12263f"/>
        <path id="Trazado_231963" data-name="Trazado 231963" d="M152.269,110.735c4.744,0,9.488-.014,14.231.023a1.958,1.958,0,0,1,1.3.521,1.164,1.164,0,0,1-.747,1.864,4.57,4.57,0,0,1-.785.025H138.094c-.143,0-.286,0-.429,0a1.237,1.237,0,0,1-1.339-1.188,1.224,1.224,0,0,1,1.354-1.24c3.075-.01,6.15,0,9.225,0h5.364" transform="translate(-116.789 -94.864)" fill="#12263f"/>
        <path id="Trazado_231964" data-name="Trazado 231964" d="M149.111,147.152q-5.681,0-11.362,0c-.9,0-1.454-.488-1.447-1.223a1.218,1.218,0,0,1,1.181-1.2c.474-.033.952-.012,1.429-.012h21.081c.214,0,.429-.007.643,0a1.271,1.271,0,0,1,1.313,1.232,1.234,1.234,0,0,1-1.332,1.2c-2.811.014-5.621.007-8.432.008h-3.073" transform="translate(-116.769 -123.968)" fill="#12263f"/>
        <path id="Trazado_231965" data-name="Trazado 231965" d="M53.08,215.225q-4.255,0-8.509,0a4.143,4.143,0,0,1-.92-.088,1.081,1.081,0,0,1-.89-1.063,1.1,1.1,0,0,1,.784-1.213,2.93,2.93,0,0,1,.912-.121q8.652-.01,17.3,0a3.646,3.646,0,0,1,.777.078,1.192,1.192,0,0,1-.1,2.348,6.424,6.424,0,0,1-.852.062q-4.255.007-8.509,0" transform="translate(-36.63 -182.246)" fill="#12263f"/>
        <path id="Trazado_231966" data-name="Trazado 231966" d="M51.839,249.271c-2.454,0-4.908,0-7.361,0a3.236,3.236,0,0,1-.914-.114,1.2,1.2,0,0,1-.018-2.261,3.025,3.025,0,0,1,.913-.119q7.433-.01,14.866,0a3.966,3.966,0,0,1,.706.07,1.126,1.126,0,0,1,1,1.2,1.109,1.109,0,0,1-.978,1.147,5.012,5.012,0,0,1-.848.076q-3.681.009-7.361,0" transform="translate(-36.623 -211.405)" fill="#12263f"/>
        <path id="Trazado_231967" data-name="Trazado 231967" d="M50.641,283.363c-2.142,0-4.285.008-6.427,0-.919-.005-1.469-.464-1.475-1.2a1.109,1.109,0,0,1,.9-1.2,3.671,3.671,0,0,1,.848-.086q6.141-.008,12.283,0c1.194,0,1.817.43,1.821,1.241s-.623,1.251-1.811,1.251q-3.071,0-6.141,0" transform="translate(-36.614 -240.62)" fill="#12263f"/>
        <path id="Trazado_231968" data-name="Trazado 231968" d="M142.476,178.691c1.549,0,3.1-.016,4.647.005,1.109.015,1.781.98,1.229,1.8a1.49,1.49,0,0,1-1.028.61c-3.264.046-6.529.04-9.793.016a1.166,1.166,0,0,1-1.2-1.239,1.243,1.243,0,0,1,1.351-1.188c1.6-.02,3.193-.006,4.79-.006" transform="translate(-116.797 -153.079)" fill="#12263f"/>
        <path id="Trazado_231969" data-name="Trazado 231969" d="M35.278,36.465a1.219,1.219,0,0,1-1.237-1.205,1.273,1.273,0,0,1,1.246-1.219,1.223,1.223,0,0,1,1.18,1.191,1.173,1.173,0,0,1-1.189,1.233" transform="translate(-29.163 -29.163)" fill="#12263f"/>
        <path id="Trazado_231970" data-name="Trazado 231970" d="M69.279,36.46a1.232,1.232,0,0,1-1.212-1.235,1.29,1.29,0,0,1,1.211-1.189A1.224,1.224,0,0,1,70.5,35.256a1.177,1.177,0,0,1-1.224,1.2" transform="translate(-58.312 -29.158)" fill="#12263f"/>
        <path id="Trazado_231971" data-name="Trazado 231971" d="M104.6,35.233a1.2,1.2,0,0,1-1.21,1.226,1.229,1.229,0,0,1-1.238-1.209,1.289,1.289,0,0,1,1.186-1.212,1.259,1.259,0,0,1,1.262,1.2" transform="translate(-87.512 -29.159)" fill="#12263f"/>
        <path id="Trazado_231972" data-name="Trazado 231972" d="M245.811,261.674a15.862,15.862,0,1,1,15.92-15.778,15.8,15.8,0,0,1-15.92,15.778M232.479,245.8a13.4,13.4,0,1,0,13.4-13.377,13.386,13.386,0,0,0-13.4,13.377" transform="translate(-197.042 -196.998)" fill="#12263f"/>
        <path id="Trazado_231973" data-name="Trazado 231973" d="M113.255,435.532a1.21,1.21,0,1,1-2.42-.071,1.21,1.21,0,1,1,2.42.071" transform="translate(-94.951 -372.052)" fill="#12263f"/>
        <path id="Trazado_231974" data-name="Trazado 231974" d="M315.283,318.843a3.656,3.656,0,1,1,7.312.07,3.656,3.656,0,0,1-7.312-.07m3.682-1.179a1.2,1.2,0,1,0-.031,2.4,1.265,1.265,0,0,0,1.2-1.185,1.245,1.245,0,0,0-1.17-1.211" transform="translate(-270.102 -270.04)" fill="#12263f"/>
        <path id="Trazado_231975" data-name="Trazado 231975" d="M350.54,266.253a8.881,8.881,0,0,1,4.1,2.008A24.784,24.784,0,0,1,357.4,271.4a1.2,1.2,0,0,1-.317,1.848,1.216,1.216,0,0,1-1.747-.558,8.766,8.766,0,0,0-5.236-4.024,1.208,1.208,0,0,1-.94-1.522,1.226,1.226,0,0,1,1.379-.887" transform="translate(-299.089 -228.095)" fill="#12263f"/>
        <path id="Trazado_231976" data-name="Trazado 231976" d="M304.577,395.421a10.86,10.86,0,0,1-4.629-1.3,1.232,1.232,0,0,1-.619-1.632,1.2,1.2,0,0,1,1.637-.581,10.8,10.8,0,0,0,4.318,1.109,1.206,1.206,0,0,1,1.1,1.27,1.227,1.227,0,0,1-1.239,1.136c-.167.006-.334,0-.572,0" transform="translate(-256.337 -335.633)" fill="#12263f"/>
        <path id="Trazado_231977" data-name="Trazado 231977" d="M266.446,350.661a1.163,1.163,0,0,1,.92-1.27,1.116,1.116,0,0,1,1.357.66c.243.513.364,1.084.62,1.588.31.612.7,1.186,1.066,1.766a1.238,1.238,0,0,1-.227,1.822,1.206,1.206,0,0,1-1.748-.355,10.93,10.93,0,0,1-1.921-3.79,2.8,2.8,0,0,1-.066-.422" transform="translate(-228.263 -299.286)" fill="#12263f"/>
      </g>
    </g>
  </g>
</svg>
