<svg xmlns="http://www.w3.org/2000/svg" xmlns:xlink="http://www.w3.org/1999/xlink" width="565.408" height="770.799" viewBox="0 0 565.408 770.799">
  <defs>
    <linearGradient id="linear-gradient" x1="0.5" x2="0.5" y2="1" gradientUnits="objectBoundingBox">
      <stop offset="0" stop-color="#5573c6"/>
      <stop offset="1" stop-color="#2c4a9b"/>
    </linearGradient>
  </defs>
  <g id="Grupo_183219" data-name="Grupo 183219" transform="translate(-247.226 -995.148)">
    <g id="_ÎÓÈ_28_3_" data-name="—ÎÓÈ_28_3_" transform="translate(436.977 995.148)">
      <g id="Grupo_33182" data-name="Grupo 33182" transform="translate(93.065 37.561)">
        <g id="Grupo_33181" data-name="Grupo 33181">
          <path id="Trazado_81696" data-name="Trazado 81696" d="M1666.056,637.155a76.323,76.323,0,0,0-9.442,6.083l5.085,12.532a63.642,63.642,0,0,0-7.058,6.946l-12.765-4.876a75.767,75.767,0,0,0-6.048,9.228l9.743,9.378a62.851,62.851,0,0,0-3.724,9.59l-13.607.735a76.573,76.573,0,0,0-1.706,10.737l12.718,4.606a63.285,63.285,0,0,0,.547,10.561l-12.12,6.2a75.625,75.625,0,0,0,2.821,10.37l13.515-.966a62.761,62.761,0,0,0,4.95,9.539l-8.52,10.556c1.033,1.441,2.119,2.862,3.267,4.249s2.339,2.721,3.561,4.007l11.967-6.388a62.814,62.814,0,0,0,8.441,6.652l-3.486,13.094a75.775,75.775,0,0,0,9.657,4.719l8.365-10.742a63.194,63.194,0,0,0,10.272,2.52l2.137,13.356a76.288,76.288,0,0,0,10.866.339l3.276-13.227a62.792,62.792,0,0,0,10.119-1.858l7.383,11.331a75.61,75.61,0,0,0,10.2-4.209l-2.394-13.453a63.628,63.628,0,0,0,8.148-5.629l11.353,7.346a76.27,76.27,0,0,0,7.747-8.132l-7.655-11.31a62.816,62.816,0,0,0,4.969-8.122l13.37,2.1a76.228,76.228,0,0,0,3.831-10.752l-11.6-7.221a63.392,63.392,0,0,0,1.221-9.087l13.092-3.531a75.991,75.991,0,0,0-.814-11.53l-13.513-1.877a62.584,62.584,0,0,0-2.463-8.6l10.548-8.569a75.814,75.814,0,0,0-5.429-10.288l-13.091,3.776c-.856-1.191-1.753-2.365-2.7-3.512s-1.933-2.249-2.942-3.314l6.165-12.149a75.671,75.671,0,0,0-9.087-7.262l-10.4,8.751a62.673,62.673,0,0,0-7.989-4.033l.692-13.626a76.409,76.409,0,0,0-11.171-2.963l-5.925,12.2a63.487,63.487,0,0,0-9.155-.506l-4.917-12.747a76.1,76.1,0,0,0-11.278,1.747l-.452,13.525a62.816,62.816,0,0,0-8.91,3.356Zm63.9,44.151a36.066,36.066,0,1,1-50.779-4.808A36.065,36.065,0,0,1,1729.951,681.306Z" transform="translate(-1626.536 -628.169)" fill="#e8e8e8"/>
          <g id="Grupo_33180" data-name="Grupo 33180" transform="translate(52.243 52.743)">
            <path id="Trazado_81697" data-name="Trazado 81697" d="M1724.319,759.752a23.379,23.379,0,1,0,3.115-32.915A23.377,23.377,0,0,0,1724.319,759.752Z" transform="translate(-1718.956 -721.473)" fill="url(#linear-gradient)"/>
          </g>
        </g>
      </g>
      <g id="Grupo_33184" data-name="Grupo 33184" transform="translate(0 74.083)">
        <g id="Grupo_33183" data-name="Grupo 33183">
          <path id="Trazado_81698" data-name="Trazado 81698" d="M1474.292,724.154l-9.249-.974-3.141,12.1,8.674,3.7a38.639,38.639,0,0,0,1.277,11.854l-7.7,5.189,5.371,11.286,9.106-2.767a38.794,38.794,0,0,0,8.544,8.167l-2.6,9.044,11.37,5.194,5.3-8.135a38.673,38.673,0,0,0,11.6.723l3.911,8.8,12.052-3.33-1.2-9.855a39.071,39.071,0,0,0,9.194-6.778l8.838,4.313,7.088-10.293-7.359-6.886a38.529,38.529,0,0,0,2.712-10.978l9.627-2.4-1.185-12.443-10.065-.542a39.1,39.1,0,0,0-4.949-10.195l5.8-7.984-8.907-8.769-7.941,5.966A38.824,38.824,0,0,0,1520,703.431l-.672-9.662-12.461-.992-2.2,9.462A38.793,38.793,0,0,0,1493.4,705.4l-6.566-6.8-10.183,7.248,4.3,8.48A38.549,38.549,0,0,0,1474.292,724.154Zm40.3-3.339a20.66,20.66,0,1,1-25.191,14.805A20.66,20.66,0,0,1,1514.6,720.816Z" transform="translate(-1461.902 -692.777)" fill="#f59d36"/>
          <path id="Trazado_81699" data-name="Trazado 81699" d="M1531.515,780.56a14.127,14.127,0,1,0-10.124-17.223A14.127,14.127,0,0,0,1531.515,780.56Z" transform="translate(-1487.564 -718.851)" fill="#4adbd1"/>
        </g>
      </g>
      <path id="Trazado_81700" data-name="Trazado 81700" d="M1615.493,568.989l-11.147,7.887a24.153,24.153,0,0,0-6.294-2.179l-3.028-12.974-6.929.206-2.3,13.442a24.148,24.148,0,0,0-6,2.91l-11.308-7.028-4.753,5.045,7.884,11.143a24.128,24.128,0,0,0-2.183,6.289l-12.973,3.027.206,6.929,13.444,2.3a24.226,24.226,0,0,0,2.914,6L1566,623.292l5.045,4.753,11.14-7.88a24.1,24.1,0,0,0,6.285,2.189l3.028,12.974,6.93-.206,2.3-13.442a24.167,24.167,0,0,0,6-2.91l11.308,7.028,4.753-5.045-7.884-11.143a24.058,24.058,0,0,0,2.185-6.289l12.974-3.029-.206-6.929-13.441-2.3a24.223,24.223,0,0,0-2.909-6l7.032-11.312ZM1600.869,605.7a10.453,10.453,0,1,1-.44-14.776A10.453,10.453,0,0,1,1600.869,605.7Z" transform="translate(-1503.009 -561.723)" fill="#12263f"/>
      <path id="Trazado_81701" data-name="Trazado 81701" d="M1617.864,628.225a7.075,7.075,0,1,0-8.595-5.122A7.075,7.075,0,0,0,1617.864,628.225Z" transform="translate(-1525.87 -584.575)" fill="#1565c0"/>
    </g>
    <g id="Grupo_41974" data-name="Grupo 41974" transform="translate(247.226 1128.671)">
      <ellipse id="Elipse_3405" data-name="Elipse 3405" cx="266.882" cy="15.471" rx="266.882" ry="15.471" transform="translate(0 606.333)" fill="#fff"/>
      <g id="Grupo_33123" data-name="Grupo 33123" transform="translate(14.499 74.843)">
        <g id="Grupo_33119" data-name="Grupo 33119" transform="translate(86.667 473.185)">
          <path id="Trazado_81544" data-name="Trazado 81544" d="M1809.239,927.758l-3.257-51.369,18.562-.977-2.609,53.855Z" transform="translate(-1803.54 -875.412)" fill="#fac5c2"/>
          <g id="Grupo_33118" data-name="Grupo 33118" transform="translate(0 44.976)">
            <path id="Trazado_81545" data-name="Trazado 81545" d="M1808.7,931.823s-7.164,12.892-5.061,22.912l56.006,1.112s3.667-10.673-8.939-13.609S1820.7,930.27,1820.7,930.27,1813.492,936.526,1808.7,931.823Z" transform="translate(-1803.095 -929.326)" fill="#5573c6"/>
            <path id="Trazado_81546" data-name="Trazado 81546" d="M1803.591,958.4l56.005,1.113a11.791,11.791,0,0,0,.27-5.623l-56.8-1.128A27.277,27.277,0,0,0,1803.591,958.4Z" transform="translate(-1803.065 -932.99)" fill="#f7ead5"/>
            <path id="Trazado_81547" data-name="Trazado 81547" d="M1823.42,933.248a7.771,7.771,0,0,1,1.876-2.508,8.036,8.036,0,0,1,4.231-1.4,34.153,34.153,0,0,1,3.927-.2,8.457,8.457,0,0,1,4.906,1.177,1.364,1.364,0,0,1,.715,1.284,1.267,1.267,0,0,1-.8.789,6.38,6.38,0,0,1-3.649.1q-4.412-.776-8.74-1.957a17.989,17.989,0,0,1,.46,4.807,9.724,9.724,0,0,1-1.064,4.38,3.61,3.61,0,0,1-1.3,1.424,1.912,1.912,0,0,1-1.865.069,2.017,2.017,0,0,1-.9-1.632,5.187,5.187,0,0,1,.333-1.9A27.147,27.147,0,0,1,1823.42,933.248Z" transform="translate(-1806.022 -929.142)" fill="none" stroke="#fff" stroke-linecap="round" stroke-linejoin="round" stroke-width="0.917"/>
          </g>
        </g>
        <g id="Grupo_33121" data-name="Grupo 33121" transform="translate(20.361 472.08)">
          <path id="Trazado_81548" data-name="Trazado 81548" d="M1730.027,926.438l-3.256-51.37,18.561-.977-2.609,53.855Z" transform="translate(-1724.328 -874.092)" fill="#fac5c2"/>
          <g id="Grupo_33120" data-name="Grupo 33120" transform="translate(0 44.976)">
            <path id="Trazado_81549" data-name="Trazado 81549" d="M1729.485,930.5s-7.164,12.892-5.061,22.911l56.006,1.114s3.666-10.673-8.939-13.609-30.007-11.969-30.007-11.969S1734.279,935.206,1729.485,930.5Z" transform="translate(-1723.883 -928.006)" fill="#5573c6"/>
            <path id="Trazado_81550" data-name="Trazado 81550" d="M1724.379,957.079l56.005,1.112a11.791,11.791,0,0,0,.27-5.623l-56.8-1.128A27.228,27.228,0,0,0,1724.379,957.079Z" transform="translate(-1723.853 -931.67)" fill="#f7ead5"/>
            <path id="Trazado_81551" data-name="Trazado 81551" d="M1744.208,931.928a7.755,7.755,0,0,1,1.876-2.508,8.032,8.032,0,0,1,4.23-1.4,34.259,34.259,0,0,1,3.927-.2,8.454,8.454,0,0,1,4.905,1.177,1.365,1.365,0,0,1,.717,1.284,1.272,1.272,0,0,1-.8.789,6.382,6.382,0,0,1-3.65.1q-4.41-.777-8.738-1.957a18.019,18.019,0,0,1,.459,4.807,9.7,9.7,0,0,1-1.065,4.38,3.612,3.612,0,0,1-1.3,1.424,1.913,1.913,0,0,1-1.864.069,2.019,2.019,0,0,1-.9-1.632,5.189,5.189,0,0,1,.333-1.9A27.066,27.066,0,0,1,1744.208,931.928Z" transform="translate(-1726.81 -927.822)" fill="none" stroke="#fff" stroke-linecap="round" stroke-linejoin="round" stroke-width="0.917"/>
          </g>
        </g>
        <path id="Trazado_81552" data-name="Trazado 81552" d="M1840.814,464.074l8.1,55.255,36.33,57.143-9.808,5.479-43.468-43.1-11.788-50.1Z" transform="translate(-1719.187 -335.209)" fill="#fac5c2"/>
        <path id="Trazado_81553" data-name="Trazado 81553" d="M1816.006,611.189l1.781,21.773-.323,235.789-30,.968-9.031-213.21-4.838-.323L1751.341,869.4H1719.73l4.838-120.959-1.291-129.991,20-13.87Z" transform="translate(-1702.821 -358.101)" fill="#00223d"/>
        <path id="Trazado_81554" data-name="Trazado 81554" d="M1726.281,639.245l24.514-25.8,26.772.323" transform="translate(-1703.888 -359.545)" fill="none" stroke="#356493" stroke-linecap="round" stroke-linejoin="round" stroke-width="1.156"/>
        <path id="Trazado_81555" data-name="Trazado 81555" d="M1789.862,658.016l1.935-3.871.323-40.32,24.192.645,12.9,20" transform="translate(-1714.247 -359.608)" fill="none" stroke="#356493" stroke-linecap="round" stroke-linejoin="round" stroke-width="1.156"/>
        <path id="Trazado_81556" data-name="Trazado 81556" d="M1792.453,544.364a2.5,2.5,0,1,0-2.5,2.5A2.5,2.5,0,0,0,1792.453,544.364Z" transform="translate(-1713.855 -347.883)" fill="none" stroke="#356493" stroke-linecap="round" stroke-linejoin="round" stroke-width="1.156"/>
        <path id="Trazado_81557" data-name="Trazado 81557" d="M1752.455,405.105s-23.868,9.1-27.139,10.683c-23.576,11.419-25.786,66.675-25.786,66.675h19.892L1716.8,589.473s56.747,11.787,99.846-.737l-5.479-97.71s16.383-.276,28.594-6.907c0,0-19.523-55.992-28.143-62.622s-41.662-12.524-41.662-12.524Z" transform="translate(-1699.529 -325.602)" fill="#5573c6"/>
        <path id="Trazado_81558" data-name="Trazado 81558" d="M1771.651,373.729,1763,403.255s-1.495,15.665,16.022,18.971c16.985,3.205,16.561-12.8,16.561-12.8l-1.116-5.309,1.625-17.658Z" transform="translate(-1709.866 -320.49)" fill="#fac5c2"/>
        <path id="Trazado_81559" data-name="Trazado 81559" d="M1771.553,379.011l1.237-4.226,7.621,2.95,7.2,3.75,9.45,9.836-.885,9.625C1791.192,400.226,1773.929,396.48,1771.553,379.011Z" transform="translate(-1711.264 -320.662)" fill="#d88080"/>
        <g id="Grupo_33122" data-name="Grupo 33122" transform="translate(54.404 0)">
          <path id="Trazado_81560" data-name="Trazado 81560" d="M1815.629,348.3c-1.7,13.525-8.437,40.1-22.04,39.26-14.313-.887-21.063-9.061-22.572-22.512,0,0-7.284,2.334-6.425-7.382.379-4.286,5.081-1.83,5.081-1.83s-6.9-35.552,15.478-37.634S1817.951,329.788,1815.629,348.3Z" transform="translate(-1764.522 -311.409)" fill="#fac5c2"/>
          <path id="Trazado_81561" data-name="Trazado 81561" d="M1794.518,353.586a4.052,4.052,0,0,0,1.209.62,1.1,1.1,0,0,0,1.2-.458,2.162,2.162,0,0,0-.229-2.189,5.213,5.213,0,0,0-3.39-1.941,11.123,11.123,0,0,0-3.867-.437,4.95,4.95,0,0,0-3.492,1.967.934.934,0,0,0-.216.506.6.6,0,0,0,.4.573,1.265,1.265,0,0,0,.651-.038A10.206,10.206,0,0,1,1794.518,353.586Z" transform="translate(-1767.978 -316.483)" fill="#242638"/>
          <path id="Trazado_81562" data-name="Trazado 81562" d="M1811.739,356.278a3.469,3.469,0,0,1-1.2.29.933.933,0,0,1-.894-.742,2.4,2.4,0,0,1,.806-2.044,4.51,4.51,0,0,1,3.425-1.012,8.775,8.775,0,0,1,3.411.552,4.32,4.32,0,0,1,2.421,2.766,1,1,0,0,1,.042.541.593.593,0,0,1-.5.45,1,1,0,0,1-.542-.2A8.183,8.183,0,0,0,1811.739,356.278Z" transform="translate(-1771.868 -317.074)" fill="#242638"/>
          <path id="Trazado_81563" data-name="Trazado 81563" d="M1803.745,365.251c-.676,3.089.217,6.279,1.071,9.323a1.209,1.209,0,0,1,.007.92,1.042,1.042,0,0,1-.283.291,3.792,3.792,0,0,1-2.006.753c-1.032.073-2.233-.231-2.987.478" transform="translate(-1770.228 -319.108)" fill="none" stroke="#242638" stroke-miterlimit="10" stroke-width="0.679"/>
          <path id="Trazado_81564" data-name="Trazado 81564" d="M1815.014,365.6c.313-2.284-.385-4.265-1.558-4.426s-2.376,1.561-2.689,3.845.386,4.265,1.559,4.426S1814.7,367.887,1815.014,365.6Z" transform="translate(-1772.044 -318.443)" fill="#242638"/>
          <path id="Trazado_81565" data-name="Trazado 81565" d="M1793.507,362.348c.311-2.284-.386-4.265-1.56-4.426s-2.376,1.562-2.689,3.846.386,4.266,1.559,4.426S1793.194,364.632,1793.507,362.348Z" transform="translate(-1768.54 -317.913)" fill="#242638"/>
          <path id="Trazado_81566" data-name="Trazado 81566" d="M1806.388,383.89s-9.043,1.335-17.277-1.905c0,0,2.626,6.992,8.259,7.316S1806.388,383.89,1806.388,383.89Z" transform="translate(-1768.528 -321.835)" fill="#fff"/>
          <path id="Trazado_81567" data-name="Trazado 81567" d="M1821.564,336.276c1.235-.707,2.78-1.416,2.979-2.825.191-1.36-1.046-2.493-2.274-3.109s-2.646-1.058-3.438-2.181c2.862-.2,4.357-3.889,3.453-6.613a9.4,9.4,0,0,0-5.076-5.275,23.015,23.015,0,0,0-7.287-1.747,87.314,87.314,0,0,0-14.127-.434c-3.954.2-8.337.544-11.441-1.914a8.864,8.864,0,0,0-2.739-1.943c-1.73-.508-3.569.826-4.266,2.49a11.191,11.191,0,0,0-.386,5.341c-1.835-.737-4.015-1.15-5.72-.151s-2.207,3.9-.485,4.873c.559.316,1.318.447,1.566,1.04.278.663-.3,1.346-.809,1.856a21.855,21.855,0,0,0,.067,30.9c1.889-4.787,4.532-9.241,6.6-13.955s3.566-9.853,2.969-14.965c8.582,6.662,20.045,8.637,30.88,7.845a3.319,3.319,0,0,1,2.372.411,3.254,3.254,0,0,1,.846,2.408l.631,9.7A11.858,11.858,0,0,1,1821.564,336.276Z" transform="translate(-1764.624 -310.127)" fill="#242638"/>
          <path id="Trazado_81568" data-name="Trazado 81568" d="M1771.9,356.891a105.614,105.614,0,0,0,8.917-30.32c-.127,1.073,3.982,2.748,4.714,3.122a40.637,40.637,0,0,0,8.5,3.213c7.806,1.967,15.641,1.47,23.59,1.682a5.394,5.394,0,0,1,3.136.753,1.925,1.925,0,0,1,.4,2.832" transform="translate(-1765.723 -312.806)" fill="none" stroke="#fff" stroke-linecap="round" stroke-linejoin="round" stroke-width="0.69"/>
          <path id="Trazado_81569" data-name="Trazado 81569" d="M1821.826,329.739c-4-2.382-8.982-2.026-13.629-1.766-6.831.381-13.944.335-20.155-2.534" transform="translate(-1768.354 -312.622)" fill="none" stroke="#fff" stroke-linecap="round" stroke-linejoin="round" stroke-width="0.69"/>
        </g>
        <rect id="Rectángulo_26606" data-name="Rectángulo 26606" width="13.33" height="11.811" rx="1.976" transform="translate(83.204 51.053) rotate(-169.629)" fill="none" stroke="#242638" stroke-miterlimit="10" stroke-width="0.855"/>
        <rect id="Rectángulo_26607" data-name="Rectángulo 26607" width="12.363" height="11.811" rx="1.903" transform="translate(100.937 54.298) rotate(-169.629)" fill="none" stroke="#242638" stroke-miterlimit="10" stroke-width="0.823"/>
        <line id="Línea_268" data-name="Línea 268" x2="8.812" y2="0.957" transform="translate(61.9 43.152)" fill="none" stroke="#242638" stroke-miterlimit="10" stroke-width="0.66"/>
        <path id="Trazado_81570" data-name="Trazado 81570" d="M1799.912,365.439s4.434-1.4,5.664,1.282" transform="translate(-1715.884 -319.08)" fill="none" stroke="#242638" stroke-miterlimit="10" stroke-width="0.66"/>
        <line id="Línea_269" data-name="Línea 269" x2="1.153" y2="0.351" transform="translate(101.924 49.541)" fill="none" stroke="#242638" stroke-miterlimit="10" stroke-width="0.66"/>
        <line id="Línea_270" data-name="Línea 270" x1="2.164" y1="30.298" transform="translate(109.47 135.127)" fill="none" stroke="#242638" stroke-linecap="round" stroke-linejoin="round" stroke-width="1.32"/>
        <path id="Trazado_81571" data-name="Trazado 81571" d="M1738.025,497.079l5.525,31.679,52.308,40.521,25.049,1.473,12.156,4.789-5.525,5.894h-40.52l-68.844-33.173a4.842,4.842,0,0,1-2.672-3.549l-8.053-47.265Z" transform="translate(-1700.82 -340.587)" fill="#fac5c2"/>
        <path id="Trazado_81572" data-name="Trazado 81572" d="M1743.976,491.63l4.052.737.737-28.733" transform="translate(-1706.771 -335.137)" fill="none" stroke="#242638" stroke-linecap="round" stroke-linejoin="round" stroke-width="1.32"/>
      </g>
      <g id="Grupo_33139" data-name="Grupo 33139" transform="translate(249.886)">
        <rect id="Rectángulo_26608" data-name="Rectángulo 26608" width="243.123" height="618.858" fill="#d4dee8"/>
        <rect id="Rectángulo_26609" data-name="Rectángulo 26609" width="218.187" height="504.664" transform="translate(12.468 15.471)" fill="none" stroke="#242638" stroke-miterlimit="10" stroke-width="2.25"/>
        <g id="Grupo_33124" data-name="Grupo 33124" transform="translate(18.078 23.944)">
          <rect id="Rectángulo_26610" data-name="Rectángulo 26610" width="205.096" height="20.997" fill="#242638"/>
          <rect id="Rectángulo_26611" data-name="Rectángulo 26611" width="5.54" height="15.656" transform="translate(195.192 2.21)" fill="#2ec49f"/>
          <rect id="Rectángulo_26612" data-name="Rectángulo 26612" width="5.54" height="15.656" transform="translate(188.268 2.21)" fill="#2ec49f"/>
          <rect id="Rectángulo_26613" data-name="Rectángulo 26613" width="5.54" height="15.656" transform="translate(181.251 2.21)" fill="#2ec49f"/>
          <rect id="Rectángulo_26614" data-name="Rectángulo 26614" width="5.54" height="15.656" transform="translate(174.238 2.21)" fill="#2ec49f"/>
          <rect id="Rectángulo_26615" data-name="Rectángulo 26615" width="5.54" height="15.656" transform="translate(167.073 2.21)" fill="#2ec49f"/>
          <rect id="Rectángulo_26616" data-name="Rectángulo 26616" width="5.54" height="15.656" transform="translate(160.056 2.21)" fill="#2ec49f"/>
          <rect id="Rectángulo_26617" data-name="Rectángulo 26617" width="5.54" height="15.656" transform="translate(153.043 2.21)" fill="#2ec49f"/>
          <rect id="Rectángulo_26618" data-name="Rectángulo 26618" width="43.715" height="5.802" rx="2.901" transform="translate(78.859 4.42)" fill="#fff"/>
          <path id="Trazado_81573" data-name="Trazado 81573" d="M2055.436,261.3c0-2.849-1.954-5.157-4.364-5.157s-4.364,2.309-4.364,5.157,1.954,5.157,4.364,5.157S2055.436,264.148,2055.436,261.3Z" transform="translate(-2009.559 -250.433)" fill="#f59d36"/>
          <path id="Trazado_81574" data-name="Trazado 81574" d="M2040.414,261.3c0-2.849-1.954-5.157-4.364-5.157s-4.365,2.309-4.365,5.157,1.954,5.157,4.365,5.157S2040.414,264.148,2040.414,261.3Z" transform="translate(-2007.111 -250.433)" fill="#5793ce"/>
          <path id="Trazado_81575" data-name="Trazado 81575" d="M2025.392,261.3c0-2.849-1.954-5.157-4.364-5.157s-4.365,2.309-4.365,5.157,1.954,5.157,4.365,5.157S2025.392,264.148,2025.392,261.3Z" transform="translate(-2004.664 -250.433)" fill="#2ec49f"/>
        </g>
        <g id="Grupo_33125" data-name="Grupo 33125" transform="translate(18.078 51.019)">
          <rect id="Rectángulo_26619" data-name="Rectángulo 26619" width="205.096" height="20.997" fill="#242638"/>
          <rect id="Rectángulo_26620" data-name="Rectángulo 26620" width="5.54" height="15.656" transform="translate(195.192 2.21)" fill="#2ec49f"/>
          <rect id="Rectángulo_26621" data-name="Rectángulo 26621" width="5.54" height="15.656" transform="translate(188.268 2.21)" fill="#2ec49f"/>
          <rect id="Rectángulo_26622" data-name="Rectángulo 26622" width="5.54" height="15.656" transform="translate(181.251 2.21)" fill="#2ec49f"/>
          <rect id="Rectángulo_26623" data-name="Rectángulo 26623" width="5.54" height="15.656" transform="translate(174.238 2.21)" fill="#2ec49f"/>
          <rect id="Rectángulo_26624" data-name="Rectángulo 26624" width="5.54" height="15.656" transform="translate(167.073 2.21)" fill="#2ec49f"/>
          <rect id="Rectángulo_26625" data-name="Rectángulo 26625" width="43.715" height="5.802" rx="2.901" transform="translate(78.859 4.42)" fill="#fff"/>
          <ellipse id="Elipse_3406" data-name="Elipse 3406" cx="4.364" cy="5.157" rx="4.364" ry="5.157" transform="translate(37.149 5.71)" fill="#f59d36"/>
          <ellipse id="Elipse_3407" data-name="Elipse 3407" cx="4.364" cy="5.157" rx="4.364" ry="5.157" transform="translate(24.575 5.71)" fill="#5793ce"/>
          <ellipse id="Elipse_3408" data-name="Elipse 3408" cx="4.364" cy="5.157" rx="4.364" ry="5.157" transform="translate(12 5.71)" fill="#2ec49f"/>
        </g>
        <g id="Grupo_33126" data-name="Grupo 33126" transform="translate(18.078 77.265)">
          <rect id="Rectángulo_26626" data-name="Rectángulo 26626" width="205.096" height="20.997" fill="#242638"/>
          <rect id="Rectángulo_26627" data-name="Rectángulo 26627" width="5.54" height="15.656" transform="translate(195.192 2.21)" fill="#2ec49f"/>
          <rect id="Rectángulo_26628" data-name="Rectángulo 26628" width="5.54" height="15.656" transform="translate(188.268 2.21)" fill="#2ec49f"/>
          <rect id="Rectángulo_26629" data-name="Rectángulo 26629" width="5.54" height="15.656" transform="translate(181.251 2.21)" fill="#2ec49f"/>
          <rect id="Rectángulo_26630" data-name="Rectángulo 26630" width="43.715" height="5.802" rx="2.901" transform="translate(78.859 4.42)" fill="#fff"/>
          <ellipse id="Elipse_3409" data-name="Elipse 3409" cx="4.364" cy="5.157" rx="4.364" ry="5.157" transform="translate(37.149 5.71)" fill="#f59d36"/>
          <ellipse id="Elipse_3410" data-name="Elipse 3410" cx="4.364" cy="5.157" rx="4.364" ry="5.157" transform="translate(24.575 5.71)" fill="#5793ce"/>
          <ellipse id="Elipse_3411" data-name="Elipse 3411" cx="4.364" cy="5.157" rx="4.364" ry="5.157" transform="translate(12 5.71)" fill="#2ec49f"/>
        </g>
        <g id="Grupo_33127" data-name="Grupo 33127" transform="translate(18.078 197.813)">
          <rect id="Rectángulo_26631" data-name="Rectángulo 26631" width="205.096" height="20.997" fill="#242638"/>
          <rect id="Rectángulo_26632" data-name="Rectángulo 26632" width="5.54" height="15.656" transform="translate(195.192 2.21)" fill="#2ec49f"/>
          <rect id="Rectángulo_26633" data-name="Rectángulo 26633" width="5.54" height="15.656" transform="translate(188.268 2.21)" fill="#2ec49f"/>
          <rect id="Rectángulo_26634" data-name="Rectángulo 26634" width="5.54" height="15.656" transform="translate(181.251 2.21)" fill="#2ec49f"/>
          <rect id="Rectángulo_26635" data-name="Rectángulo 26635" width="5.54" height="15.656" transform="translate(174.238 2.21)" fill="#2ec49f"/>
          <rect id="Rectángulo_26636" data-name="Rectángulo 26636" width="5.54" height="15.656" transform="translate(167.073 2.21)" fill="#2ec49f"/>
          <rect id="Rectángulo_26637" data-name="Rectángulo 26637" width="5.54" height="15.656" transform="translate(160.056 2.21)" fill="#2ec49f"/>
          <rect id="Rectángulo_26638" data-name="Rectángulo 26638" width="5.54" height="15.656" transform="translate(153.043 2.21)" fill="#2ec49f"/>
          <rect id="Rectángulo_26639" data-name="Rectángulo 26639" width="43.715" height="5.802" rx="2.901" transform="translate(78.859 4.42)" fill="#fff"/>
          <ellipse id="Elipse_3412" data-name="Elipse 3412" cx="4.364" cy="5.157" rx="4.364" ry="5.157" transform="translate(37.149 5.71)" fill="#f59d36"/>
          <ellipse id="Elipse_3413" data-name="Elipse 3413" cx="4.364" cy="5.157" rx="4.364" ry="5.157" transform="translate(24.575 5.71)" fill="#5793ce"/>
          <ellipse id="Elipse_3414" data-name="Elipse 3414" cx="4.364" cy="5.157" rx="4.364" ry="5.157" transform="translate(12 5.71)" fill="#2ec49f"/>
        </g>
        <g id="Grupo_33128" data-name="Grupo 33128" transform="translate(18.078 224.888)">
          <rect id="Rectángulo_26640" data-name="Rectángulo 26640" width="205.096" height="20.997" fill="#242638"/>
          <rect id="Rectángulo_26641" data-name="Rectángulo 26641" width="5.54" height="15.656" transform="translate(195.192 2.21)" fill="#2ec49f"/>
          <rect id="Rectángulo_26642" data-name="Rectángulo 26642" width="5.54" height="15.656" transform="translate(188.268 2.21)" fill="#2ec49f"/>
          <rect id="Rectángulo_26643" data-name="Rectángulo 26643" width="5.54" height="15.656" transform="translate(181.251 2.21)" fill="#2ec49f"/>
          <rect id="Rectángulo_26644" data-name="Rectángulo 26644" width="5.54" height="15.656" transform="translate(174.238 2.21)" fill="#2ec49f"/>
          <rect id="Rectángulo_26645" data-name="Rectángulo 26645" width="5.54" height="15.656" transform="translate(167.073 2.21)" fill="#2ec49f"/>
          <rect id="Rectángulo_26646" data-name="Rectángulo 26646" width="43.715" height="5.802" rx="2.901" transform="translate(78.859 4.42)" fill="#fff"/>
          <ellipse id="Elipse_3415" data-name="Elipse 3415" cx="4.364" cy="5.157" rx="4.364" ry="5.157" transform="translate(37.149 5.71)" fill="#f59d36"/>
          <ellipse id="Elipse_3416" data-name="Elipse 3416" cx="4.364" cy="5.157" rx="4.364" ry="5.157" transform="translate(24.575 5.71)" fill="#5793ce"/>
          <ellipse id="Elipse_3417" data-name="Elipse 3417" cx="4.364" cy="5.157" rx="4.364" ry="5.157" transform="translate(12 5.71)" fill="#2ec49f"/>
        </g>
        <g id="Grupo_33129" data-name="Grupo 33129" transform="translate(18.078 251.135)">
          <rect id="Rectángulo_26647" data-name="Rectángulo 26647" width="205.096" height="20.997" fill="#242638"/>
          <rect id="Rectángulo_26648" data-name="Rectángulo 26648" width="5.54" height="15.656" transform="translate(195.192 2.21)" fill="#2ec49f"/>
          <rect id="Rectángulo_26649" data-name="Rectángulo 26649" width="5.54" height="15.656" transform="translate(188.268 2.21)" fill="#2ec49f"/>
          <rect id="Rectángulo_26650" data-name="Rectángulo 26650" width="5.54" height="15.656" transform="translate(181.251 2.21)" fill="#2ec49f"/>
          <rect id="Rectángulo_26651" data-name="Rectángulo 26651" width="43.715" height="5.802" rx="2.901" transform="translate(78.859 4.42)" fill="#fff"/>
          <path id="Trazado_81576" data-name="Trazado 81576" d="M2055.436,532.71c0-2.848-1.954-5.157-4.364-5.157s-4.364,2.31-4.364,5.157,1.954,5.157,4.364,5.157S2055.436,535.559,2055.436,532.71Z" transform="translate(-2009.559 -521.844)" fill="#f59d36"/>
          <path id="Trazado_81577" data-name="Trazado 81577" d="M2040.414,532.71c0-2.848-1.954-5.157-4.364-5.157s-4.365,2.31-4.365,5.157,1.954,5.157,4.365,5.157S2040.414,535.559,2040.414,532.71Z" transform="translate(-2007.111 -521.844)" fill="#5793ce"/>
          <path id="Trazado_81578" data-name="Trazado 81578" d="M2025.392,532.71c0-2.848-1.954-5.157-4.364-5.157s-4.365,2.31-4.365,5.157,1.954,5.157,4.365,5.157S2025.392,535.559,2025.392,532.71Z" transform="translate(-2004.664 -521.844)" fill="#2ec49f"/>
        </g>
        <g id="Grupo_33130" data-name="Grupo 33130" transform="translate(18.078 346.634)">
          <rect id="Rectángulo_26652" data-name="Rectángulo 26652" width="205.096" height="20.997" fill="#242638"/>
          <rect id="Rectángulo_26653" data-name="Rectángulo 26653" width="5.54" height="15.656" transform="translate(195.192 2.21)" fill="#2ec49f"/>
          <rect id="Rectángulo_26654" data-name="Rectángulo 26654" width="5.54" height="15.656" transform="translate(188.268 2.21)" fill="#2ec49f"/>
          <rect id="Rectángulo_26655" data-name="Rectángulo 26655" width="5.54" height="15.656" transform="translate(181.251 2.21)" fill="#2ec49f"/>
          <rect id="Rectángulo_26656" data-name="Rectángulo 26656" width="5.54" height="15.656" transform="translate(174.238 2.21)" fill="#2ec49f"/>
          <rect id="Rectángulo_26657" data-name="Rectángulo 26657" width="5.54" height="15.656" transform="translate(167.073 2.21)" fill="#2ec49f"/>
          <rect id="Rectángulo_26658" data-name="Rectángulo 26658" width="5.54" height="15.656" transform="translate(160.056 2.21)" fill="#2ec49f"/>
          <rect id="Rectángulo_26659" data-name="Rectángulo 26659" width="5.54" height="15.656" transform="translate(153.043 2.21)" fill="#2ec49f"/>
          <rect id="Rectángulo_26660" data-name="Rectángulo 26660" width="43.715" height="5.802" rx="2.901" transform="translate(78.859 4.42)" fill="#fff"/>
          <ellipse id="Elipse_3418" data-name="Elipse 3418" cx="4.364" cy="5.157" rx="4.364" ry="5.157" transform="translate(37.149 5.71)" fill="#f59d36"/>
          <ellipse id="Elipse_3419" data-name="Elipse 3419" cx="4.364" cy="5.157" rx="4.364" ry="5.157" transform="translate(24.575 5.71)" fill="#5793ce"/>
          <ellipse id="Elipse_3420" data-name="Elipse 3420" cx="4.364" cy="5.157" rx="4.364" ry="5.157" transform="translate(12 5.71)" fill="#2ec49f"/>
        </g>
        <g id="Grupo_33131" data-name="Grupo 33131" transform="translate(18.078 373.709)">
          <rect id="Rectángulo_26661" data-name="Rectángulo 26661" width="205.096" height="20.997" fill="#242638"/>
          <rect id="Rectángulo_26662" data-name="Rectángulo 26662" width="5.54" height="15.656" transform="translate(195.192 2.21)" fill="#2ec49f"/>
          <rect id="Rectángulo_26663" data-name="Rectángulo 26663" width="5.54" height="15.656" transform="translate(188.268 2.21)" fill="#2ec49f"/>
          <rect id="Rectángulo_26664" data-name="Rectángulo 26664" width="5.54" height="15.656" transform="translate(181.251 2.21)" fill="#2ec49f"/>
          <rect id="Rectángulo_26665" data-name="Rectángulo 26665" width="5.54" height="15.656" transform="translate(174.238 2.21)" fill="#2ec49f"/>
          <rect id="Rectángulo_26666" data-name="Rectángulo 26666" width="5.54" height="15.656" transform="translate(167.073 2.21)" fill="#2ec49f"/>
          <rect id="Rectángulo_26667" data-name="Rectángulo 26667" width="43.715" height="5.802" rx="2.901" transform="translate(78.859 4.42)" fill="#fff"/>
          <path id="Trazado_81579" data-name="Trazado 81579" d="M2055.436,679.142c0-2.848-1.954-5.157-4.364-5.157s-4.364,2.31-4.364,5.157,1.954,5.157,4.364,5.157S2055.436,681.991,2055.436,679.142Z" transform="translate(-2009.559 -668.276)" fill="#f59d36"/>
          <path id="Trazado_81580" data-name="Trazado 81580" d="M2040.414,679.142c0-2.848-1.954-5.157-4.364-5.157s-4.365,2.31-4.365,5.157,1.954,5.157,4.365,5.157S2040.414,681.991,2040.414,679.142Z" transform="translate(-2007.111 -668.276)" fill="#5793ce"/>
          <path id="Trazado_81581" data-name="Trazado 81581" d="M2025.392,679.142c0-2.848-1.954-5.157-4.364-5.157s-4.365,2.31-4.365,5.157,1.954,5.157,4.365,5.157S2025.392,681.991,2025.392,679.142Z" transform="translate(-2004.664 -668.276)" fill="#2ec49f"/>
        </g>
        <g id="Grupo_33132" data-name="Grupo 33132" transform="translate(18.078 399.955)">
          <rect id="Rectángulo_26668" data-name="Rectángulo 26668" width="205.096" height="20.997" fill="#242638"/>
          <rect id="Rectángulo_26669" data-name="Rectángulo 26669" width="5.54" height="15.656" transform="translate(195.192 2.21)" fill="#2ec49f"/>
          <rect id="Rectángulo_26670" data-name="Rectángulo 26670" width="5.54" height="15.656" transform="translate(188.268 2.21)" fill="#2ec49f"/>
          <rect id="Rectángulo_26671" data-name="Rectángulo 26671" width="5.54" height="15.656" transform="translate(181.251 2.21)" fill="#2ec49f"/>
          <rect id="Rectángulo_26672" data-name="Rectángulo 26672" width="43.715" height="5.802" rx="2.901" transform="translate(78.859 4.42)" fill="#fff"/>
          <path id="Trazado_81582" data-name="Trazado 81582" d="M2055.436,710.5c0-2.849-1.954-5.157-4.364-5.157s-4.364,2.309-4.364,5.157,1.954,5.157,4.364,5.157S2055.436,713.345,2055.436,710.5Z" transform="translate(-2009.559 -699.63)" fill="#f59d36"/>
          <path id="Trazado_81583" data-name="Trazado 81583" d="M2040.414,710.5c0-2.849-1.954-5.157-4.364-5.157s-4.365,2.309-4.365,5.157,1.954,5.157,4.365,5.157S2040.414,713.345,2040.414,710.5Z" transform="translate(-2007.111 -699.63)" fill="#5793ce"/>
          <path id="Trazado_81584" data-name="Trazado 81584" d="M2025.392,710.5c0-2.849-1.954-5.157-4.364-5.157s-4.365,2.309-4.365,5.157,1.954,5.157,4.365,5.157S2025.392,713.345,2025.392,710.5Z" transform="translate(-2004.664 -699.63)" fill="#2ec49f"/>
        </g>
        <g id="Grupo_33133" data-name="Grupo 33133" transform="translate(18.078 119.72)">
          <rect id="Rectángulo_26673" data-name="Rectángulo 26673" width="205.096" height="45.678" fill="#242638"/>
        </g>
        <g id="Grupo_33134" data-name="Grupo 33134" transform="translate(18.078 286.222)">
          <rect id="Rectángulo_26674" data-name="Rectángulo 26674" width="205.096" height="45.678" fill="#242638"/>
        </g>
        <g id="Grupo_33135" data-name="Grupo 33135" transform="translate(18.078 440.199)">
          <rect id="Rectángulo_26675" data-name="Rectángulo 26675" width="205.096" height="45.678" fill="#242638"/>
        </g>
        <g id="Grupo_33136" data-name="Grupo 33136" transform="translate(185.303 540.027)">
          <rect id="Rectángulo_26676" data-name="Rectángulo 26676" width="40.209" height="4.973" rx="2.486" fill="#242638"/>
          <rect id="Rectángulo_26677" data-name="Rectángulo 26677" width="40.209" height="4.973" rx="2.486" transform="translate(0 10.222)" fill="#242638"/>
          <rect id="Rectángulo_26678" data-name="Rectángulo 26678" width="40.209" height="4.973" rx="2.486" transform="translate(0 25.694)" fill="#242638"/>
          <rect id="Rectángulo_26679" data-name="Rectángulo 26679" width="40.209" height="4.973" rx="2.486" transform="translate(0 35.916)" fill="#242638"/>
          <rect id="Rectángulo_26680" data-name="Rectángulo 26680" width="40.209" height="4.973" rx="2.486" transform="translate(0 52.216)" fill="#242638"/>
          <rect id="Rectángulo_26681" data-name="Rectángulo 26681" width="40.209" height="4.973" rx="2.486" transform="translate(0 62.438)" fill="#242638"/>
        </g>
        <g id="Grupo_33137" data-name="Grupo 33137" transform="translate(101.846 540.027)">
          <path id="Rectángulo_26682" data-name="Rectángulo 26682" d="M2.486,0H37.722a2.487,2.487,0,0,1,2.487,2.487v0a2.486,2.486,0,0,1-2.486,2.486H2.486A2.486,2.486,0,0,1,0,2.487v0A2.486,2.486,0,0,1,2.486,0Z" fill="#242638"/>
          <path id="Rectángulo_26683" data-name="Rectángulo 26683" d="M2.486,0H37.722a2.487,2.487,0,0,1,2.487,2.487v0a2.486,2.486,0,0,1-2.486,2.486H2.486A2.486,2.486,0,0,1,0,2.487v0A2.486,2.486,0,0,1,2.486,0Z" transform="translate(0 10.222)" fill="#242638"/>
          <path id="Rectángulo_26684" data-name="Rectángulo 26684" d="M2.486,0H37.722a2.487,2.487,0,0,1,2.487,2.487v0a2.486,2.486,0,0,1-2.486,2.486H2.486A2.486,2.486,0,0,1,0,2.487v0A2.486,2.486,0,0,1,2.486,0Z" transform="translate(0 25.694)" fill="#242638"/>
          <path id="Rectángulo_26685" data-name="Rectángulo 26685" d="M2.486,0H37.722a2.487,2.487,0,0,1,2.487,2.487v0a2.486,2.486,0,0,1-2.486,2.486H2.486A2.486,2.486,0,0,1,0,2.487v0A2.486,2.486,0,0,1,2.486,0Z" transform="translate(0 35.916)" fill="#242638"/>
          <path id="Rectángulo_26686" data-name="Rectángulo 26686" d="M2.486,0H37.722a2.486,2.486,0,0,1,2.486,2.486v0a2.486,2.486,0,0,1-2.486,2.486H2.486A2.486,2.486,0,0,1,0,2.486v0A2.486,2.486,0,0,1,2.486,0Z" transform="translate(0 52.216)" fill="#242638"/>
          <path id="Rectángulo_26687" data-name="Rectángulo 26687" d="M2.486,0H37.722a2.487,2.487,0,0,1,2.487,2.487v0a2.486,2.486,0,0,1-2.486,2.486H2.486A2.486,2.486,0,0,1,0,2.487v0A2.486,2.486,0,0,1,2.486,0Z" transform="translate(0 62.438)" fill="#242638"/>
        </g>
        <g id="Grupo_33138" data-name="Grupo 33138" transform="translate(18.858 540.027)">
          <path id="Rectángulo_26688" data-name="Rectángulo 26688" d="M2.486,0H37.722a2.486,2.486,0,0,1,2.486,2.486v0a2.486,2.486,0,0,1-2.486,2.486H2.487A2.487,2.487,0,0,1,0,2.486v0A2.486,2.486,0,0,1,2.486,0Z" fill="#242638"/>
          <path id="Rectángulo_26689" data-name="Rectángulo 26689" d="M2.486,0H37.722a2.486,2.486,0,0,1,2.486,2.486v0a2.486,2.486,0,0,1-2.486,2.486H2.487A2.487,2.487,0,0,1,0,2.486v0A2.486,2.486,0,0,1,2.486,0Z" transform="translate(0 10.222)" fill="#242638"/>
          <path id="Rectángulo_26690" data-name="Rectángulo 26690" d="M2.486,0H37.722a2.486,2.486,0,0,1,2.486,2.486v0a2.486,2.486,0,0,1-2.486,2.486H2.487A2.487,2.487,0,0,1,0,2.486v0A2.486,2.486,0,0,1,2.486,0Z" transform="translate(0 25.694)" fill="#242638"/>
          <path id="Rectángulo_26691" data-name="Rectángulo 26691" d="M2.486,0H37.722a2.486,2.486,0,0,1,2.486,2.486v0a2.486,2.486,0,0,1-2.486,2.486H2.487A2.487,2.487,0,0,1,0,2.486v0A2.486,2.486,0,0,1,2.486,0Z" transform="translate(0 35.916)" fill="#242638"/>
          <path id="Rectángulo_26692" data-name="Rectángulo 26692" d="M2.486,0H37.722a2.486,2.486,0,0,1,2.486,2.486v0a2.486,2.486,0,0,1-2.486,2.486H2.486A2.486,2.486,0,0,1,0,2.486v0A2.486,2.486,0,0,1,2.486,0Z" transform="translate(0 52.216)" fill="#242638"/>
          <path id="Rectángulo_26693" data-name="Rectángulo 26693" d="M2.486,0H37.722a2.486,2.486,0,0,1,2.486,2.486v0a2.486,2.486,0,0,1-2.486,2.486H2.487A2.487,2.487,0,0,1,0,2.486v0A2.486,2.486,0,0,1,2.486,0Z" transform="translate(0 62.438)" fill="#242638"/>
        </g>
      </g>
      <path id="Trazado_81585" data-name="Trazado 81585" d="M1936.725,726.052c10.683,0,30.943-1.474,30.943,26.153s-3.315,74.411,14.366,74.411,16.945-25.418,16.945-71.464,1.473-44.2,7.367-44.2" transform="translate(-1723.676 -300.587)" fill="none" stroke="#2ec49f" stroke-miterlimit="10" stroke-width="2.64"/>
      <rect id="Rectángulo_26694" data-name="Rectángulo 26694" width="13.261" height="299.115" transform="translate(224.837 319.375)" fill="#d4dee8"/>
      <path id="Trazado_81586" data-name="Trazado 81586" d="M1936.725,734.895c8.472,0,22.838.368,22.838,16.208s-12.524,144.032,20.629,144.032,33.521-39.784,33.521-87.672-3.684-96.512,5.526-96.512" transform="translate(-1723.676 -300.589)" fill="none" stroke="#5793ce" stroke-miterlimit="10" stroke-width="2.64"/>
      <rect id="Rectángulo_26695" data-name="Rectángulo 26695" width="13.261" height="299.115" transform="translate(90.383 319.375)" fill="#d4dee8"/>
      <rect id="Rectángulo_26696" data-name="Rectángulo 26696" width="25.786" height="157.661" transform="translate(241.782 315.691) rotate(90)" fill="#d4dee8"/>
      <path id="Trazado_81587" data-name="Trazado 81587" d="M1957.328,591.913c16.023,0,13.261,13.813,13.261,48.625s-7.919,47.8-36.285,47.8" transform="translate(-1723.281 -281.195)" fill="none" stroke="#f59d36" stroke-miterlimit="10" stroke-width="2.64"/>
      <rect id="Rectángulo_26697" data-name="Rectángulo 26697" width="13.63" height="141.453" transform="translate(234.046 447.198) rotate(90)" fill="#d4dee8"/>
      <g id="Grupo_33141" data-name="Grupo 33141" transform="translate(84.16 233.07)">
        <g id="Grupo_33140" data-name="Grupo 33140" transform="translate(0)">
          <path id="Trazado_81588" data-name="Trazado 81588" d="M1961.918,499.152l-112.034,1.537-14.4,81.877,111.288-.436Z" transform="translate(-1791.34 -499.152)" fill="#242638"/>
          <rect id="Rectángulo_26698" data-name="Rectángulo 26698" width="71.378" height="7.087" transform="translate(0 76.426) rotate(-0.786)" fill="#242638"/>
        </g>
        <path id="Trazado_81589" data-name="Trazado 81589" d="M1924.7,540.036a9.618,9.618,0,1,0-9.485,9.75A9.619,9.619,0,0,0,1924.7,540.036Z" transform="translate(-1802.743 -504.267)" fill="#fff"/>
      </g>
      <g id="Grupo_33142" data-name="Grupo 33142" transform="translate(114.142 420.123)">
        <rect id="Rectángulo_26699" data-name="Rectángulo 26699" width="103.327" height="27.075" fill="#a9bdd2"/>
        <path id="Trazado_81590" data-name="Trazado 81590" d="M1911.2,743.893h-81.225a5.265,5.265,0,0,1-5.25-5.249h0a5.265,5.265,0,0,1,5.25-5.249H1911.2a5.264,5.264,0,0,1,5.249,5.249h0A5.264,5.264,0,0,1,1911.2,743.893Z" transform="translate(-1819.57 -724.369)" fill="#242638"/>
        <circle id="Elipse_3421" data-name="Elipse 3421" cx="3.499" cy="3.499" r="3.499" transform="translate(86.152 10.867)" fill="#5793ce"/>
        <circle id="Elipse_3422" data-name="Elipse 3422" cx="3.499" cy="3.499" r="3.499" transform="translate(77.173 10.867)" fill="#5793ce"/>
        <path id="Trazado_81591" data-name="Trazado 81591" d="M1906.7,739.094a3.5,3.5,0,1,0-3.5,3.5A3.5,3.5,0,0,0,1906.7,739.094Z" transform="translate(-1831.786 -724.728)" fill="#5793ce"/>
        <path id="Trazado_81592" data-name="Trazado 81592" d="M1895.977,739.094a3.5,3.5,0,1,0-3.5,3.5A3.5,3.5,0,0,0,1895.977,739.094Z" transform="translate(-1830.039 -724.728)" fill="#5793ce"/>
        <circle id="Elipse_3423" data-name="Elipse 3423" cx="3.499" cy="3.499" r="3.499" transform="translate(49.822 10.867)" fill="#5793ce"/>
        <circle id="Elipse_3424" data-name="Elipse 3424" cx="3.499" cy="3.499" r="3.499" transform="translate(40.843 10.867)" fill="#5793ce"/>
      </g>
      <g id="Grupo_33143" data-name="Grupo 33143" transform="translate(114.286 391.759)">
        <rect id="Rectángulo_26700" data-name="Rectángulo 26700" width="103.327" height="27.075" fill="#a9bdd2"/>
        <path id="Trazado_81593" data-name="Trazado 81593" d="M1911.374,710.008h-81.225a5.265,5.265,0,0,1-5.249-5.249h0a5.265,5.265,0,0,1,5.249-5.249h81.225a5.265,5.265,0,0,1,5.249,5.249h0A5.265,5.265,0,0,1,1911.374,710.008Z" transform="translate(-1819.743 -690.484)" fill="#242638"/>
        <path id="Trazado_81594" data-name="Trazado 81594" d="M1928.659,705.209a3.5,3.5,0,1,0-3.5,3.5A3.5,3.5,0,0,0,1928.659,705.209Z" transform="translate(-1835.507 -690.842)" fill="#f59d36"/>
        <circle id="Elipse_3425" data-name="Elipse 3425" cx="3.499" cy="3.499" r="3.499" transform="translate(77.173 10.867)" fill="#f59d36"/>
        <path id="Trazado_81595" data-name="Trazado 81595" d="M1906.875,705.209a3.5,3.5,0,1,0-3.5,3.5A3.5,3.5,0,0,0,1906.875,705.209Z" transform="translate(-1831.958 -690.842)" fill="#f59d36"/>
        <path id="Trazado_81596" data-name="Trazado 81596" d="M1896.148,705.209a3.5,3.5,0,1,0-3.5,3.5A3.5,3.5,0,0,0,1896.148,705.209Z" transform="translate(-1830.211 -690.842)" fill="#f59d36"/>
        <circle id="Elipse_3426" data-name="Elipse 3426" cx="3.499" cy="3.499" r="3.499" transform="translate(49.822 10.867)" fill="#f59d36"/>
        <circle id="Elipse_3427" data-name="Elipse 3427" cx="3.499" cy="3.499" r="3.499" transform="translate(40.843 10.867)" fill="#f59d36"/>
      </g>
      <line id="Línea_271" data-name="Línea 271" x2="103.327" transform="translate(114.142 419.939)" fill="none" stroke="#242638" stroke-miterlimit="10" stroke-width="2.64"/>
    </g>
    <g id="Grupo_156383" data-name="Grupo 156383" transform="translate(436.977 1186.729)">
      <g id="Grupo_156205" data-name="Grupo 156205">
        <g id="Grupo_156176" data-name="Grupo 156176" transform="translate(0 14.947)">
          <path id="Trazado_196533" data-name="Trazado 196533" d="M837.46,202.7c0-23.312.273-43.613,0-65.5-32.662,0-65.492.95-98.4.6-.316,22.305,0,43.286,0,64.973Q788.4,202.777,837.46,202.7Z" transform="translate(-738.287 -136.565)" fill="#fff"/>
          <path id="Trazado_196534" data-name="Trazado 196534" d="M739.175,203.526a.635.635,0,0,1-.635-.635c0-7.23-.036-14.5-.07-21.534-.07-14.049-.14-28.575.07-43.448a.634.634,0,0,1,.635-.625h.006c19.007.2,38.284-.037,56.928-.266,13.6-.167,27.67-.339,41.465-.339a.635.635,0,0,1,.635.627c.179,14.439.123,28.1.062,42.561-.03,7.379-.062,15.009-.062,22.947a.634.634,0,0,1-.635.635c-16.341,0-32.982.02-49.074.039C772.344,203.506,755.641,203.526,739.175,203.526Zm.625-64.967c-.2,14.641-.129,28.948-.061,42.792.033,6.828.068,13.881.07,20.9,16.261,0,32.742-.019,48.688-.038,15.885-.02,32.3-.039,48.443-.039,0-7.712.032-15.135.062-22.319.06-14.246.115-27.715-.055-41.912-13.588.006-27.429.176-40.823.34C777.682,138.513,758.615,138.749,739.8,138.559Z" transform="translate(-738.401 -136.679)"/>
        </g>
        <g id="Grupo_156177" data-name="Grupo 156177" transform="translate(0.139 8.355)">
          <path id="Trazado_196535" data-name="Trazado 196535" d="M739.243,132.225c-.109,2.719-.083,5.3-.207,8.418,32.935.071,65.567.028,98.4-.077,0-2.813-.083-6.488-.083-8.773Z" transform="translate(-738.401 -131.157)" fill="#f59d36"/>
          <path id="Trazado_196536" data-name="Trazado 196536" d="M772.443,141.426c-11.433,0-22.5-.012-33.294-.035a.635.635,0,0,1-.634-.659c.065-1.6.089-3.066.112-4.479.022-1.346.043-2.616.1-3.938a.635.635,0,0,1,.631-.609l98.107-.433h0a.635.635,0,0,1,.634.635c0,1.081.02,2.474.039,3.939.022,1.647.045,3.351.045,4.833a.635.635,0,0,1-.633.635C814.376,141.389,792.831,141.426,772.443,141.426Zm-32.634-1.3c29.675.063,61.454.037,97.106-.076-.006-1.318-.026-2.772-.044-4.186-.017-1.2-.032-2.346-.038-3.318l-96.863.427c-.037,1.1-.055,2.172-.073,3.3C739.877,137.5,739.856,138.761,739.808,140.123Z" transform="translate(-738.515 -131.271)"/>
        </g>
        <g id="Grupo_156178" data-name="Grupo 156178" transform="translate(69.127 12.84)">
          <path id="Trazado_196537" data-name="Trazado 196537" d="M795.748,136.3a.635.635,0,0,1-.011-1.27l4.531-.08h.011a.635.635,0,0,1,.011,1.27l-4.529.08Z" transform="translate(-795.114 -134.95)"/>
        </g>
        <g id="Grupo_156179" data-name="Grupo 156179" transform="translate(79.147 12.92)">
          <path id="Trazado_196538" data-name="Trazado 196538" d="M803.97,136.365a.634.634,0,0,1-.011-1.269l4.529-.08h.012a.635.635,0,0,1,.011,1.27l-4.53.079Z" transform="translate(-803.335 -135.016)"/>
        </g>
        <g id="Grupo_156180" data-name="Grupo 156180" transform="translate(88.846 12.758)">
          <path id="Trazado_196539" data-name="Trazado 196539" d="M811.926,136.232a.634.634,0,0,1-.011-1.269l4.531-.08h.011a.635.635,0,0,1,.011,1.27l-4.529.079Z" transform="translate(-811.292 -134.883)"/>
        </g>
        <g id="Grupo_156181" data-name="Grupo 156181" transform="translate(12.056 31.014)">
          <path id="Trazado_196540" data-name="Trazado 196540" d="M748.926,151.5a.635.635,0,0,1-.022-1.269l11-.374a.642.642,0,0,1,.656.612.634.634,0,0,1-.613.656l-11,.374Z" transform="translate(-748.292 -149.861)"/>
        </g>
        <g id="Grupo_156182" data-name="Grupo 156182" transform="translate(12.662 43.81)">
          <path id="Trazado_196541" data-name="Trazado 196541" d="M749.423,162a.635.635,0,0,1-.016-1.27l14.728-.374h.016a.635.635,0,0,1,.016,1.269L749.44,162Z" transform="translate(-748.789 -160.359)"/>
        </g>
        <g id="Grupo_156183" data-name="Grupo 156183" transform="translate(12.484 56.607)">
          <path id="Trazado_196542" data-name="Trazado 196542" d="M749.278,172.5a.635.635,0,0,1-.008-1.27l29.809-.374h.009a.634.634,0,0,1,.007,1.269l-29.809.375Z" transform="translate(-748.643 -170.858)"/>
        </g>
        <g id="Grupo_156184" data-name="Grupo 156184" transform="translate(12.662 68.054)">
          <path id="Trazado_196543" data-name="Trazado 196543" d="M749.424,181.892a.634.634,0,0,1-.005-1.269l52.285-.374h0a.634.634,0,0,1,0,1.269l-52.285.374Z" transform="translate(-748.789 -180.249)"/>
        </g>
        <g id="Grupo_156200" data-name="Grupo 156200" transform="translate(33.789)">
          <g id="Grupo_156185" data-name="Grupo 156185" transform="translate(44.924 41.898)">
            <path id="Trazado_196544" data-name="Trazado 196544" d="M803.5,165.621,816.793,178.7a87.435,87.435,0,0,0,7.237,6.608c1.375,1.077,2.906,2.1,4.579,2.1a3.466,3.466,0,0,0,3.439-3.3,5.692,5.692,0,0,0-1.983-3.666q-10.582-11.162-22.087-21.133C806.574,161.357,805.17,163.414,803.5,165.621Z" transform="translate(-802.865 -158.678)" fill="#fff"/>
            <path id="Trazado_196545" data-name="Trazado 196545" d="M828.724,188.148h0c-1.865,0-3.491-1.073-4.969-2.231a88.078,88.078,0,0,1-7.29-6.655l-13.293-13.077a.633.633,0,0,1-.061-.835c1.654-2.185,3.07-4.261,4.442-6.269A.668.668,0,0,1,808,158.8a.65.65,0,0,1,.507.137c7.644,6.625,15.09,13.749,22.131,21.176a6.241,6.241,0,0,1,2.156,4.1,3.748,3.748,0,0,1-1.13,2.677A4.254,4.254,0,0,1,828.724,188.148Zm-24.269-22.477,12.9,12.687a87.423,87.423,0,0,0,7.183,6.56,7.32,7.32,0,0,0,4.188,1.961h0a2.965,2.965,0,0,0,2.042-.889,2.5,2.5,0,0,0,.76-1.773,5.138,5.138,0,0,0-1.809-3.235c-6.848-7.223-14.079-14.158-21.5-20.622C807.038,162.08,805.827,163.834,804.455,165.671Z" transform="translate(-802.979 -158.79)"/>
          </g>
          <g id="Grupo_156187" data-name="Grupo 156187">
            <g id="Grupo_156186" data-name="Grupo 156186">
              <path id="Trazado_196546" data-name="Trazado 196546" d="M794.276,124.937A27.633,27.633,0,1,0,821.91,152.57,27.634,27.634,0,0,0,794.276,124.937Zm0,48.621a20.988,20.988,0,1,1,20.987-20.988A20.988,20.988,0,0,1,794.276,173.558Zm0,0a20.988,20.988,0,1,1,20.987-20.988A20.988,20.988,0,0,1,794.276,173.558Z" transform="translate(-766.008 -124.302)" fill="#fff"/>
              <path id="Trazado_196547" data-name="Trazado 196547" d="M794.39,180.952a28.268,28.268,0,1,1,28.268-28.268A28.3,28.3,0,0,1,794.39,180.952Zm0-55.268a27,27,0,1,0,27,27A27.03,27.03,0,0,0,794.39,125.685Zm0,48.622a21.623,21.623,0,1,1,21.622-21.623A21.647,21.647,0,0,1,794.39,174.307Zm-20.354-21.623a20.353,20.353,0,1,0,20.354-20.353A20.376,20.376,0,0,0,774.036,152.684Z" transform="translate(-766.122 -124.416)"/>
            </g>
          </g>
          <g id="Grupo_156188" data-name="Grupo 156188" transform="translate(14.684 25.18)">
            <path id="Trazado_196548" data-name="Trazado 196548" d="M778.689,147.763a2.168,2.168,0,1,1,2.168,2.168A2.168,2.168,0,0,1,778.689,147.763Z" transform="translate(-778.055 -144.96)" fill="#fff"/>
            <path id="Trazado_196549" data-name="Trazado 196549" d="M780.971,150.68a2.8,2.8,0,1,1,2.8-2.8A2.8,2.8,0,0,1,780.971,150.68Zm0-4.337a1.534,1.534,0,1,0,1.535,1.535A1.536,1.536,0,0,0,780.971,146.343Z" transform="translate(-778.169 -145.074)"/>
          </g>
          <g id="Grupo_156189" data-name="Grupo 156189" transform="translate(25.183 25.18)">
            <circle id="Elipse_6032" data-name="Elipse 6032" cx="2.168" cy="2.168" r="2.168" transform="translate(0.635 0.635)" fill="#fff"/>
            <path id="Trazado_196550" data-name="Trazado 196550" d="M789.585,150.68a2.8,2.8,0,1,1,2.8-2.8A2.8,2.8,0,0,1,789.585,150.68Zm0-4.337a1.534,1.534,0,1,0,1.535,1.535A1.536,1.536,0,0,0,789.585,146.343Z" transform="translate(-786.783 -145.074)"/>
          </g>
          <g id="Grupo_156190" data-name="Grupo 156190" transform="translate(35.683 25.18)">
            <circle id="Elipse_6033" data-name="Elipse 6033" cx="2.168" cy="2.168" r="2.168" transform="translate(0.635 0.635)" fill="#fff"/>
            <path id="Trazado_196551" data-name="Trazado 196551" d="M798.2,150.68a2.8,2.8,0,1,1,2.8-2.8A2.806,2.806,0,0,1,798.2,150.68Zm0-4.337a1.534,1.534,0,1,0,1.533,1.535A1.536,1.536,0,0,0,798.2,146.343Z" transform="translate(-795.397 -145.074)"/>
          </g>
          <g id="Grupo_156191" data-name="Grupo 156191" transform="translate(48.91 47.508)">
            <path id="Trazado_196552" data-name="Trazado 196552" d="M806.461,165.518a.2.2,0,0,1-.059-.009.213.213,0,0,1-.145-.262l.488-1.7a.211.211,0,0,1,.406.116l-.486,1.7A.212.212,0,0,1,806.461,165.518Z" transform="translate(-806.249 -163.393)"/>
          </g>
          <g id="Grupo_156192" data-name="Grupo 156192" transform="translate(51.235 46.229)">
            <path id="Trazado_196553" data-name="Trazado 196553" d="M808.369,168.726h-.028a.213.213,0,0,1-.183-.238c.261-1.988.574-4,.932-5.97a.212.212,0,1,1,.417.077c-.359,1.966-.67,3.967-.929,5.948A.213.213,0,0,1,808.369,168.726Z" transform="translate(-808.157 -162.343)"/>
          </g>
          <g id="Grupo_156193" data-name="Grupo 156193" transform="translate(54.255 48.793)">
            <path id="Trazado_196554" data-name="Trazado 196554" d="M810.845,171.158a.211.211,0,0,1-.211-.212c0-.993.152-2.661.288-4.131.083-.9.154-1.677.178-2.166a.211.211,0,1,1,.422.021c-.024.5-.1,1.279-.179,2.183-.134,1.463-.285,3.119-.285,4.093A.212.212,0,0,1,810.845,171.158Z" transform="translate(-810.634 -164.447)"/>
          </g>
          <g id="Grupo_156194" data-name="Grupo 156194" transform="translate(57.185 50.872)">
            <path id="Trazado_196555" data-name="Trazado 196555" d="M813.41,173.634a.212.212,0,0,1-.212-.207l-.16-7.057a.212.212,0,0,1,.424-.01l.159,7.057a.213.213,0,0,1-.206.217Z" transform="translate(-813.038 -166.153)"/>
          </g>
          <g id="Grupo_156195" data-name="Grupo 156195" transform="translate(60.009 53.661)">
            <path id="Trazado_196556" data-name="Trazado 196556" d="M815.844,176.254a.212.212,0,0,1-.212-.2l-.277-7.39a.213.213,0,0,1,.2-.219.221.221,0,0,1,.219.2l.278,7.391a.212.212,0,0,1-.2.218Z" transform="translate(-815.355 -168.441)"/>
          </g>
          <g id="Grupo_156196" data-name="Grupo 156196" transform="translate(62.905 56.778)">
            <path id="Trazado_196557" data-name="Trazado 196557" d="M818.316,178.326a.211.211,0,0,1-.211-.2l-.374-6.9a.213.213,0,0,1,.2-.223.206.206,0,0,1,.223.2l.374,6.9a.212.212,0,0,1-.2.223Z" transform="translate(-817.731 -170.999)"/>
          </g>
          <g id="Grupo_156197" data-name="Grupo 156197" transform="translate(65.725 59.392)">
            <path id="Trazado_196558" data-name="Trazado 196558" d="M820.774,180.289a.211.211,0,0,1-.211-.2l-.518-6.722a.211.211,0,0,1,.421-.033l.519,6.722a.211.211,0,0,1-.195.227Z" transform="translate(-820.045 -173.143)"/>
          </g>
          <g id="Grupo_156198" data-name="Grupo 156198" transform="translate(68.442 62.406)">
            <path id="Trazado_196559" data-name="Trazado 196559" d="M823.091,181.934a.211.211,0,0,1-.21-.19l-.606-5.9a.211.211,0,0,1,.189-.232.219.219,0,0,1,.232.189l.606,5.9a.211.211,0,0,1-.189.232Z" transform="translate(-822.274 -175.615)"/>
          </g>
          <g id="Grupo_156199" data-name="Grupo 156199" transform="translate(71.37 65.353)">
            <path id="Trazado_196560" data-name="Trazado 196560" d="M825.313,181.091a.213.213,0,0,1-.208-.178l-.425-2.634a.211.211,0,0,1,.174-.243.208.208,0,0,1,.243.174l.427,2.634a.211.211,0,0,1-.176.243A.164.164,0,0,1,825.313,181.091Z" transform="translate(-824.676 -178.033)"/>
          </g>
        </g>
        <g id="Grupo_156201" data-name="Grupo 156201" transform="translate(0.912 17.434)" opacity="0.129">
          <path id="Trazado_196561" data-name="Trazado 196561" d="M773.642,139.1c-.713-.42-1.564-.111-2.341-.129-3.248-.039-6.5-.3-9.753-.244-3.687.044-7.37.377-11.058.235-2.1-.088-4.212-.016-6.317-.066-.809-.02-1.619-.023-2.428-.018a3.96,3.96,0,0,0-1.583.146,1.668,1.668,0,0,0,.644,3.2c5.339.024,10.671.433,16.01.316,5.318-.229,10.651.017,15.959-.368l.04,0a1.825,1.825,0,0,0,1.162-.481A1.662,1.662,0,0,0,773.642,139.1Z" transform="translate(-739.149 -138.72)"/>
        </g>
        <g id="Grupo_156202" data-name="Grupo 156202" transform="translate(87.593 17.221)" opacity="0.129">
          <path id="Trazado_196562" data-name="Trazado 196562" d="M821.469,138.752a1.641,1.641,0,0,0-1.316-.126c.033-.015.046-.021.015-.01-.345.056-.691.1-1.032.179l-.087.01c-2.093.007-4.194-.194-6.3-.124-.7,0-1.5-.1-2.023.469a1.626,1.626,0,0,0,1.14,2.753c1.8-.129,3.607-.143,5.413-.113,1.48-.115,1.171-.132,2.243-.189.333,0,.664-.039,1-.057.011,0,.011,0,0,0a1.509,1.509,0,0,0,1.093-.33A1.491,1.491,0,0,0,821.469,138.752Z" transform="translate(-810.265 -138.545)"/>
        </g>
        <g id="Grupo_156203" data-name="Grupo 156203" transform="translate(41.1 25.828)" opacity="0.129">
          <path id="Trazado_196563" data-name="Trazado 196563" d="M799.5,167.7c.7-.235,1.4-.466,2.092-.719,1.492-.842,2.951-1.742,4.345-2.708a25.545,25.545,0,0,0,3.524-3.2,19.177,19.177,0,0,0,1.274-1.442,1.4,1.4,0,0,0-1.23.106,27.952,27.952,0,0,1-5.813,3.514,16.422,16.422,0,0,1-5.629,1.6c-3.793.548-10.776-.687-14.7-2.894a21.088,21.088,0,0,1-3.395-2.117q-.927-.75-1.775-1.589c-.24-.2-.914-.985-1.17-1.279a41.608,41.608,0,0,1-3.8-7.84,24.462,24.462,0,0,1-.729-2.357,7.253,7.253,0,0,0-.339-1.171,23.505,23.505,0,0,0,.314,5.378,35.482,35.482,0,0,0,1.547,5.483c.187.321.376.639.561.951a31.589,31.589,0,0,0,5.077,6.565,25.013,25.013,0,0,0,4.443,2.226,32.517,32.517,0,0,0,9.5,2.226,20.189,20.189,0,0,0,3.57.017Q798.336,168.086,799.5,167.7Z" transform="translate(-772.12 -145.606)"/>
        </g>
        <g id="Grupo_156204" data-name="Grupo 156204" transform="translate(78.427 43.87)" opacity="0.129">
          <path id="Trazado_196564" data-name="Trazado 196564" d="M824.212,184.509a1.494,1.494,0,0,0-.575-.559l-.013-.013.017.007a.232.232,0,0,0-.029-.018c-.145-.14-.511-.47-.641-.609-2.126-2.143-4.532-3.97-6.771-5.985-1.63-1.514-3-3.282-4.7-4.724-1.77-1.521-3.211-3.374-4.944-4.928a1.665,1.665,0,0,0,.362-.161,12.223,12.223,0,0,0,2.873-2.61c.312-.366.656-.7.959-1.076a2.061,2.061,0,0,0,.826-1.393,1.764,1.764,0,0,0-1.281-1.961,1.9,1.9,0,0,0-2.255,1.293,24.517,24.517,0,0,1-2.683,2.619l-.19.132a1.747,1.747,0,0,0-.8,1.037,1.617,1.617,0,0,0-.066.467,1.1,1.1,0,0,0-.223-.023,1.354,1.354,0,0,0-.949,2.293,37.757,37.757,0,0,1,5.1,5c1.836,1.871,3.574,3.838,5.419,5.7,1.469,1.41,3.106,2.625,4.633,3.97,1.124.951,2.169,1.987,3.247,2.989a1.248,1.248,0,0,0,.445.517A1.52,1.52,0,0,0,824.212,184.509Z" transform="translate(-802.745 -160.408)"/>
        </g>
      </g>
    </g>
    <g id="Grupo_156386" data-name="Grupo 156386" transform="translate(409.637 1243.583)">
      <g id="Grupo_156148" data-name="Grupo 156148">
        <path id="Trazado_196507" data-name="Trazado 196507" d="M128.2,347.964c0-17.4.2-32.544,0-48.876-24.373,0-48.87.708-73.426.45-.235,16.645,0,32.3,0,48.484Q91.591,348.022,128.2,347.964Z" transform="translate(-54.199 -298.614)" fill="#fff"/>
        <path id="Trazado_196508" data-name="Trazado 196508" d="M54.73,348.448a.474.474,0,0,1-.474-.473c0-5.4-.026-10.822-.052-16.069-.051-10.483-.1-21.323.052-32.421a.475.475,0,0,1,.479-.468c14.182.149,28.568-.026,42.479-.2,10.151-.125,20.647-.253,30.942-.253a.474.474,0,0,1,.474.468c.135,10.775.092,20.97.047,31.764-.023,5.5-.047,11.2-.047,17.118a.473.473,0,0,1-.473.474c-12.194,0-24.612.015-36.621.029C79.482,348.433,67.017,348.448,54.73,348.448ZM55.2,299.97c-.149,10.925-.1,21.6-.046,31.932.025,5.094.051,10.358.053,15.6,12.133,0,24.432-.014,36.331-.029,11.853-.014,24.105-.028,36.148-.028,0-5.754.025-11.291.046-16.65.045-10.633.086-20.684-.041-31.28-10.139,0-20.467.131-30.462.254C83.463,299.936,69.236,300.11,55.2,299.97Z" transform="translate(-54.152 -298.567)"/>
      </g>
      <g id="Grupo_156149" data-name="Grupo 156149">
        <path id="Trazado_196509" data-name="Trazado 196509" d="M128.2,347.964c0-17.4.2-32.544,0-48.876-24.373,0-48.87.708-73.426.45-.235,16.645,0,32.3,0,48.484Q91.591,348.022,128.2,347.964Z" transform="translate(-54.199 -298.614)" fill="#fff"/>
        <path id="Trazado_196510" data-name="Trazado 196510" d="M54.73,348.448a.474.474,0,0,1-.474-.473c0-5.4-.026-10.822-.052-16.069-.051-10.483-.1-21.323.052-32.421a.475.475,0,0,1,.479-.468c14.182.149,28.568-.026,42.479-.2,10.151-.125,20.647-.253,30.942-.253a.474.474,0,0,1,.474.468c.135,10.775.092,20.97.047,31.764-.023,5.5-.047,11.2-.047,17.118a.473.473,0,0,1-.473.474c-12.194,0-24.612.015-36.621.029C79.482,348.433,67.017,348.448,54.73,348.448ZM55.2,299.97c-.149,10.925-.1,21.6-.046,31.932.025,5.094.051,10.358.053,15.6,12.133,0,24.432-.014,36.331-.029,11.853-.014,24.105-.028,36.148-.028,0-5.754.025-11.291.046-16.65.045-10.633.086-20.684-.041-31.28-10.139,0-20.467.131-30.462.254C83.463,299.936,69.236,300.11,55.2,299.97Z" transform="translate(-54.152 -298.567)"/>
      </g>
      <g id="Grupo_156150" data-name="Grupo 156150" transform="translate(36.81 18.769)">
        <path id="Trazado_196511" data-name="Trazado 196511" d="M95.1,320.159a.474.474,0,1,1,0-.948l10.322-.008h0a.473.473,0,1,1,0,.947l-10.322.009Z" transform="translate(-94.623 -319.203)"/>
      </g>
      <g id="Grupo_156151" data-name="Grupo 156151" transform="translate(36.81 28.036)">
        <path id="Trazado_196512" data-name="Trazado 196512" d="M95.1,330.347a.473.473,0,1,1,0-.947l10.914-.009h0a.473.473,0,0,1,0,.947l-10.914.009Z" transform="translate(-94.623 -329.391)"/>
      </g>
      <g id="Grupo_156152" data-name="Grupo 156152" transform="translate(10.073 37.138)">
        <path id="Trazado_196513" data-name="Trazado 196513" d="M65.7,340.356a.474.474,0,1,1,0-.948l33.744-.009a.474.474,0,0,1,0,.948Z" transform="translate(-65.227 -339.399)"/>
      </g>
      <g id="Grupo_156153" data-name="Grupo 156153" transform="translate(50.4 3.003)">
        <circle id="Elipse_6030" data-name="Elipse 6030" cx="15.175" cy="15.175" r="15.175" transform="translate(0 21.46) rotate(-45)" fill="#fff"/>
        <path id="Trazado_196514" data-name="Trazado 196514" d="M131.6,339.555a15.649,15.649,0,1,1,15.649-15.649A15.666,15.666,0,0,1,131.6,339.555Zm0-30.349a14.7,14.7,0,1,0,14.7,14.7A14.718,14.718,0,0,0,131.6,309.206Z" transform="translate(-110.142 -302.447)"/>
      </g>
      <g id="Grupo_156154" data-name="Grupo 156154" transform="translate(63.417 15.43)">
        <path id="Trazado_196515" data-name="Trazado 196515" d="M124.4,322.256l2.466-2.466,3.794,5.3,5.431-9.037,3.028,2.293L131,331.007Z" transform="translate(-123.924 -315.579)" fill="#2ec49f"/>
        <path id="Trazado_196516" data-name="Trazado 196516" d="M130.952,331.434a.475.475,0,0,1-.377-.188l-6.6-8.751a.473.473,0,0,1,.043-.62l2.466-2.466a.474.474,0,0,1,.72.059l3.374,4.713,5.06-8.42a.473.473,0,0,1,.692-.133l3.028,2.293a.475.475,0,0,1,.113.633l-8.117,12.661a.473.473,0,0,1-.381.217Zm-5.976-9.181,5.945,7.879,7.513-11.72-2.258-1.71-5.16,8.584a.473.473,0,0,1-.79.032l-3.469-4.845Z" transform="translate(-123.876 -315.532)"/>
      </g>
      <g id="Grupo_156165" data-name="Grupo 156165" transform="translate(10.547 9.437)">
        <g id="Grupo_156155" data-name="Grupo 156155">
          <path id="Trazado_196517" data-name="Trazado 196517" d="M84.873,330.367c0-7.44.051-13.919,0-20.9-6.167,0-12.365.3-18.577.193-.06,7.118,0,13.814,0,20.735C72.5,330.392,78.694,330.367,84.873,330.367Z" transform="translate(-65.795 -308.99)" fill="#fff"/>
          <path id="Trazado_196518" data-name="Trazado 196518" d="M66.248,330.818a.474.474,0,0,1-.474-.474c0-2.307-.006-4.59-.014-6.872-.013-4.484-.025-9.12.014-13.867a.474.474,0,0,1,.482-.47c3.58.065,7.215-.012,10.732-.085,2.57-.053,5.228-.108,7.837-.108a.473.473,0,0,1,.473.47c.035,4.61.024,8.971.013,13.588-.006,2.367-.013,4.787-.013,7.319a.474.474,0,0,1-.473.474q-4.628,0-9.265.012T66.248,330.818Zm.469-20.728c-.035,4.575-.022,9.049-.009,13.379.006,2.126.012,4.253.013,6.4q4.426,0,8.838-.012t8.792-.013c0-2.361.006-4.628.012-6.848.011-4.457.022-8.675-.008-13.107-2.448.006-4.937.058-7.348.108C73.639,310.068,70.16,310.14,66.718,310.091Z" transform="translate(-65.748 -308.943)"/>
        </g>
        <g id="Grupo_156156" data-name="Grupo 156156" transform="translate(2.152 17.864)">
          <path id="Trazado_196519" data-name="Trazado 196519" d="M69.857,330.289a.159.159,0,0,1-.094-.031,12.755,12.755,0,0,1-1.6-1.407.158.158,0,0,1,.227-.219A12.327,12.327,0,0,0,69.951,330a.159.159,0,0,1-.095.286Z" transform="translate(-68.114 -328.584)"/>
        </g>
        <g id="Grupo_156157" data-name="Grupo 156157" transform="translate(1.863 14.768)">
          <path id="Trazado_196520" data-name="Trazado 196520" d="M73.573,330.519a.16.16,0,0,1-.108-.043c-1.827-1.7-3.716-3.391-5.613-5.02a.158.158,0,1,1,.206-.239c1.9,1.631,3.792,3.323,5.623,5.028a.158.158,0,0,1-.107.274Z" transform="translate(-67.796 -325.179)"/>
        </g>
        <g id="Grupo_156158" data-name="Grupo 156158" transform="translate(2.095 12.034)">
          <path id="Trazado_196521" data-name="Trazado 196521" d="M77.362,330.232a.159.159,0,0,1-.1-.037l-9.152-7.744a.157.157,0,0,1-.019-.222.159.159,0,0,1,.223-.019l9.152,7.744a.157.157,0,0,1,.018.222A.156.156,0,0,1,77.362,330.232Z" transform="translate(-68.052 -322.174)"/>
        </g>
        <g id="Grupo_156159" data-name="Grupo 156159" transform="translate(2.228 8.988)">
          <path id="Trazado_196522" data-name="Trazado 196522" d="M80.858,329.758a.159.159,0,0,1-.105-.04c-4.052-3.629-8.256-7.2-12.5-10.612a.158.158,0,1,1,.2-.246c4.244,3.416,8.452,6.991,12.508,10.622a.158.158,0,0,1-.1.276Z" transform="translate(-68.197 -318.825)"/>
        </g>
        <g id="Grupo_156160" data-name="Grupo 156160" transform="translate(2.166 5.694)">
          <path id="Trazado_196523" data-name="Trazado 196523" d="M83.557,328.3a.16.16,0,0,1-.1-.035c-5.153-4.137-10.292-8.439-15.274-12.785a.158.158,0,0,1,.207-.238c4.979,4.345,10.114,8.643,15.264,12.777a.158.158,0,0,1-.1.281Z" transform="translate(-68.13 -315.204)"/>
        </g>
        <g id="Grupo_156161" data-name="Grupo 156161" transform="translate(2.2 2.664)">
          <path id="Trazado_196524" data-name="Trazado 196524" d="M83.448,324.546a.158.158,0,0,1-.1-.035L68.225,312.152a.158.158,0,1,1,.2-.245l15.124,12.359a.158.158,0,0,1-.1.28Z" transform="translate(-68.167 -311.872)"/>
        </g>
        <g id="Grupo_156162" data-name="Grupo 156162" transform="translate(6.162 2.183)">
          <path id="Trazado_196525" data-name="Trazado 196525" d="M83.868,320.959a.159.159,0,0,1-.1-.038c-3.655-3.15-7.416-6.278-11.183-9.3a.158.158,0,0,1,.2-.246c3.768,3.021,7.534,6.151,11.191,9.3a.158.158,0,0,1-.1.277Z" transform="translate(-72.523 -311.343)"/>
        </g>
        <g id="Grupo_156163" data-name="Grupo 156163" transform="translate(10.774 2.476)">
          <path id="Trazado_196526" data-name="Trazado 196526" d="M84.291,317.05a.153.153,0,0,1-.093-.03c-2.228-1.61-4.431-3.318-6.547-5.076a.158.158,0,1,1,.2-.243c2.11,1.754,4.308,3.457,6.53,5.063a.157.157,0,0,1,.035.22A.155.155,0,0,1,84.291,317.05Z" transform="translate(-77.594 -311.665)"/>
        </g>
        <g id="Grupo_156164" data-name="Grupo 156164" transform="translate(14.996 2.532)">
          <path id="Trazado_196527" data-name="Trazado 196527" d="M84.834,313.949a.158.158,0,0,1-.1-.038c-.777-.663-1.6-1.3-2.43-1.9a.158.158,0,1,1,.183-.257c.843.6,1.668,1.246,2.453,1.915a.158.158,0,0,1-.1.278Z" transform="translate(-82.235 -311.727)"/>
        </g>
      </g>
      <g id="Grupo_156166" data-name="Grupo 156166" transform="translate(10.896 28.694)" opacity="0.129">
        <path id="Trazado_196528" data-name="Trazado 196528" d="M84.4,330.625a2.164,2.164,0,0,0-1.094-.145q-1.28-.026-2.558-.079-6.431-.131-12.863-.286c-.495.013-1.067-.077-1.439.323a1.091,1.091,0,0,0,.765,1.846c4.259.021,8.516.233,12.776.256.98.037,1.959.085,2.94.1a4.1,4.1,0,0,0,1.345-.116A1.07,1.07,0,0,0,84.4,330.625Z" transform="translate(-66.132 -330.115)"/>
      </g>
      <g id="Grupo_156169" data-name="Grupo 156169" transform="translate(58.477 28.586)">
        <g id="Grupo_156167" data-name="Grupo 156167" opacity="0.129">
          <path id="Trazado_196529" data-name="Trazado 196529" d="M146.085,330.029c-.6-.171-.88.373-1.152.791-.422.584-.817,1.188-1.256,1.759l-.028.036a8.448,8.448,0,0,1-.734.858,10.513,10.513,0,0,0-1.238,1.194c-.23.256-.475.5-.729.728l-.073.043a1.376,1.376,0,0,0-.138.089l-.1.066c-.777.512-1.552,1.034-2.367,1.485a17.452,17.452,0,0,1-4.2,1.206,12.663,12.663,0,0,1-4.866-.472,17.628,17.628,0,0,1-3.2-1.076c-.135-.059-.223-.094-.24-.1a20.5,20.5,0,0,1-2.749-1.348,17.243,17.243,0,0,1-2.343-1.912c-.023-.018-.046-.035-.069-.055l-.013-.01.01.008c-.367-.306-.709-.7-1.2-.708a.971.971,0,0,0-.681,1.643c1.1.87,1.886,2.072,3.1,2.811a34.7,34.7,0,0,0,4.608,2.535,19.768,19.768,0,0,0,5.316,1.143,12.925,12.925,0,0,0,3.86-.519,14.953,14.953,0,0,0,4.529-1.931,7.73,7.73,0,0,0,1.95-1.551,19.661,19.661,0,0,0,1.572-1.754,23.285,23.285,0,0,0,2.4-3.107,3.1,3.1,0,0,0,.578-1.02A.751.751,0,0,0,146.085,330.029Z" transform="translate(-118.445 -329.997)"/>
        </g>
        <g id="Grupo_156168" data-name="Grupo 156168" transform="translate(2.162 3.324)" opacity="0.129">
          <path id="Trazado_196530" data-name="Trazado 196530" d="M120.894,333.707c.039.031.077.062.116.089l-.188-.146,0,0Z" transform="translate(-120.822 -333.651)"/>
        </g>
      </g>
    </g>
    <g id="Grupo_161675" data-name="Grupo 161675" transform="translate(276.824 1074.597)">
      <g id="Grupo_155411" data-name="Grupo 155411" transform="translate(0 4.775)">
        <path id="Trazado_195826" data-name="Trazado 195826" d="M244.1,88.736h-.009a.883.883,0,0,1-.873-.892l.262-24.2a.883.883,0,0,1,.881-.873h.011a.882.882,0,0,1,.873.892l-.262,24.2A.883.883,0,0,1,244.1,88.736Z" transform="translate(-243.216 -62.774)"/>
      </g>
      <g id="Grupo_155412" data-name="Grupo 155412" transform="translate(11.323 9.885)">
        <path id="Trazado_195827" data-name="Trazado 195827" d="M250.445,86.49h-.012a.884.884,0,0,1-.871-.894l.264-19.089a.881.881,0,0,1,.881-.869h.012a.881.881,0,0,1,.869.894l-.262,19.087A.882.882,0,0,1,250.445,86.49Z" transform="translate(-249.562 -65.638)"/>
      </g>
      <g id="Grupo_155413" data-name="Grupo 155413" transform="translate(32.909 9.885)">
        <path id="Trazado_195828" data-name="Trazado 195828" d="M262.542,86.49h-.013a.884.884,0,0,1-.871-.894l.264-19.089a.881.881,0,0,1,.881-.869h.013a.881.881,0,0,1,.869.894l-.262,19.087A.882.882,0,0,1,262.542,86.49Z" transform="translate(-261.659 -65.638)"/>
      </g>
      <g id="Grupo_155414" data-name="Grupo 155414" transform="translate(22.652)">
        <path id="Trazado_195829" data-name="Trazado 195829" d="M256.793,90.835h-.009a.881.881,0,0,1-.873-.89l.262-28.972a.882.882,0,1,1,1.763.016l-.262,28.972A.882.882,0,0,1,256.793,90.835Z" transform="translate(-255.911 -60.098)"/>
      </g>
    </g>
    <g id="Grupo_161676" data-name="Grupo 161676" transform="translate(411.37 1538.442)">
      <g id="Grupo_155411-2" data-name="Grupo 155411" transform="translate(0 4.775)">
        <path id="Trazado_195826-2" data-name="Trazado 195826" d="M244.1,88.736h-.009a.883.883,0,0,1-.873-.892l.262-24.2a.883.883,0,0,1,.881-.873h.011a.882.882,0,0,1,.873.892l-.262,24.2A.883.883,0,0,1,244.1,88.736Z" transform="translate(-243.216 -62.774)"/>
      </g>
      <g id="Grupo_155412-2" data-name="Grupo 155412" transform="translate(11.323 9.885)">
        <path id="Trazado_195827-2" data-name="Trazado 195827" d="M250.445,86.49h-.012a.884.884,0,0,1-.871-.894l.264-19.089a.881.881,0,0,1,.881-.869h.012a.881.881,0,0,1,.869.894l-.262,19.087A.882.882,0,0,1,250.445,86.49Z" transform="translate(-249.562 -65.638)"/>
      </g>
      <g id="Grupo_155413-2" data-name="Grupo 155413" transform="translate(32.909 9.885)">
        <path id="Trazado_195828-2" data-name="Trazado 195828" d="M262.542,86.49h-.013a.884.884,0,0,1-.871-.894l.264-19.089a.881.881,0,0,1,.881-.869h.013a.881.881,0,0,1,.869.894l-.262,19.087A.882.882,0,0,1,262.542,86.49Z" transform="translate(-261.659 -65.638)"/>
      </g>
      <g id="Grupo_155414-2" data-name="Grupo 155414" transform="translate(22.652)">
        <path id="Trazado_195829-2" data-name="Trazado 195829" d="M256.793,90.835h-.009a.881.881,0,0,1-.873-.89l.262-28.972a.882.882,0,1,1,1.763.016l-.262,28.972A.882.882,0,0,1,256.793,90.835Z" transform="translate(-255.911 -60.098)"/>
      </g>
    </g>
    <g id="Grupo_161677" data-name="Grupo 161677" transform="translate(756.216 1349.081)">
      <g id="Grupo_155416" data-name="Grupo 155416" transform="translate(14.252 4.775)">
        <path id="Trazado_195830" data-name="Trazado 195830" d="M506.5,71.266h-.013a.884.884,0,0,1-.871-.894l.319-24.2a.884.884,0,0,1,.883-.871h.011a.883.883,0,0,1,.871.894l-.319,24.2A.882.882,0,0,1,506.5,71.266Z" transform="translate(-505.616 -45.304)"/>
      </g>
      <g id="Grupo_155417" data-name="Grupo 155417" transform="translate(28.045 9.885)">
        <path id="Trazado_195831" data-name="Trazado 195831" d="M514.228,69.02h-.015a.883.883,0,0,1-.867-.9l.319-19.087a.865.865,0,0,1,.9-.867.883.883,0,0,1,.867.9l-.321,19.087A.882.882,0,0,1,514.228,69.02Z" transform="translate(-513.346 -48.168)"/>
      </g>
      <g id="Grupo_155418" data-name="Grupo 155418" transform="translate(54.333 9.885)">
        <path id="Trazado_195832" data-name="Trazado 195832" d="M528.962,69.02h-.016a.884.884,0,0,1-.867-.9l.321-19.087a.861.861,0,0,1,.9-.867.882.882,0,0,1,.867.9l-.319,19.087A.883.883,0,0,1,528.962,69.02Z" transform="translate(-528.079 -48.168)"/>
      </g>
      <g id="Grupo_155419" data-name="Grupo 155419" transform="translate(41.839)">
        <path id="Trazado_195833" data-name="Trazado 195833" d="M521.96,73.365h-.011a.883.883,0,0,1-.872-.892L521.4,43.5a.883.883,0,0,1,.881-.873h.011a.881.881,0,0,1,.871.892l-.32,28.972A.883.883,0,0,1,521.96,73.365Z" transform="translate(-521.077 -42.628)"/>
      </g>
      <g id="Grupo_155420" data-name="Grupo 155420" transform="translate(0 12.953)">
        <path id="Trazado_195834" data-name="Trazado 195834" d="M498.511,67.672h-.018a.881.881,0,0,1-.864-.9l.32-16.02a.912.912,0,0,1,.9-.865.885.885,0,0,1,.865.9l-.321,16.02A.881.881,0,0,1,498.511,67.672Z" transform="translate(-497.629 -49.887)"/>
      </g>
    </g>
    <g id="Grupo_161678" data-name="Grupo 161678" transform="translate(294.292 1146.461)">
      <g id="Grupo_155451" data-name="Grupo 155451">
        <path id="Trazado_195861" data-name="Trazado 195861" d="M394.227,72.011l46.7-.621c4.957-.068,10.137-.189,14.493-2.553A14.4,14.4,0,0,0,462.973,56.2a12.442,12.442,0,0,0-8.75-11.5c-4.984-1.353-10.849,1.349-12.737,6.154.248-8.915-7.623-17.41-16.541-17.351S408.15,42.7,409.867,51.455c-1.522-4.067-6.4-6.215-10.686-5.5s-7.889,3.763-10.3,7.378C386.872,56.358,385.532,60,386,63.6S388.917,72.08,394.227,72.011Z" transform="translate(-385.026 -32.625)" fill="#fff"/>
        <path id="Trazado_195862" data-name="Trazado 195862" d="M394.5,73.28c-5.373,0-8.381-4.591-8.982-9.177-.575-4.372,1.326-8.324,3.021-10.87,2.828-4.247,6.795-7.075,10.883-7.758a11.245,11.245,0,0,1,9.739,3.08,16.268,16.268,0,0,1,3.767-9.27,16.534,16.534,0,0,1,12.4-6.272h.094a17.077,17.077,0,0,1,12.019,5.339,18.5,18.5,0,0,1,5.123,9.98,12.141,12.141,0,0,1,12.276-4.092,13.241,13.241,0,0,1,9.4,12.33A15.311,15.311,0,0,1,456.225,70c-4.646,2.523-10.094,2.6-14.9,2.66l-46.7.621H394.5Zm.114-.881h0Zm6.6-25.306a9.2,9.2,0,0,0-1.5.121c-3.61.6-7.148,3.153-9.705,7-1.527,2.295-3.244,5.833-2.741,9.664.375,2.85,2.32,7.642,7.236,7.642l.1,0,46.7-.621c4.6-.061,9.819-.13,14.082-2.446a13.51,13.51,0,0,0,7.1-11.834,11.594,11.594,0,0,0-8.1-10.672c-4.641-1.258-9.991,1.319-11.684,5.628a.882.882,0,0,1-1.7-.348,16.231,16.231,0,0,0-4.811-11.638,15.384,15.384,0,0,0-10.843-4.807A14.757,14.757,0,0,0,414.293,40.4a13.766,13.766,0,0,0-3.172,11.272.882.882,0,0,1-1.692.478C408.175,48.8,404.531,47.093,401.212,47.093Z" transform="translate(-385.414 -33.013)"/>
      </g>
      <g id="Grupo_155452" data-name="Grupo 155452" transform="translate(2.243 29.102)" opacity="0.129">
        <path id="Trazado_195863" data-name="Trazado 195863" d="M458.539,49.382a2.557,2.557,0,0,0-1.029.691c-.38.28-.787.516-1.187.764a28.227,28.227,0,0,1-2.807,1.7c-.1.043-.155.071-.186.087a55.416,55.416,0,0,1-6.1,1.74c-1.442.177-6.436.03-9.341.127-6.206.123-12.414.148-18.618.332a92.8,92.8,0,0,0-14.673.944c-6.251.48-8.331.749-12.942-1.181l.207.087a22.08,22.08,0,0,0-3.016-1.367,1.93,1.93,0,0,0-1.233,3.569,29.521,29.521,0,0,0,7.828,3.008c6.318,1.022,12.612-.846,18.946-.658,2.221-.043,4.441.121,6.664.07,3-.109,5.988-.325,8.988-.373,4.466-.093,9.131-.387,12.437-.794a1.632,1.632,0,0,0,1.934,1.7,27.674,27.674,0,0,0,10.274-3.192c.732-.377,1.445-.783,2.155-1.194.407-.261.921-.416,1.192-.837a1.5,1.5,0,0,0,.359-1.1,13.071,13.071,0,0,0,1.41-1.051,1.922,1.922,0,0,0,.823-1.488A1.662,1.662,0,0,0,458.539,49.382Z" transform="translate(-386.671 -49.323)"/>
      </g>
    </g>
  </g>
</svg>
