<svg xmlns="http://www.w3.org/2000/svg" xmlns:xlink="http://www.w3.org/1999/xlink" width="251" height="190" viewBox="0 0 251 190">
  <defs>
    <clipPath id="clip-path">
      <rect id="Rectángulo_58416" data-name="Rectángulo 58416" width="209.226" height="160.058" fill="none"/>
    </clipPath>
    <linearGradient id="linear-gradient" x1="0.5" x2="0.5" y2="1" gradientUnits="objectBoundingBox">
      <stop offset="0" stop-color="#5573c6"/>
      <stop offset="1" stop-color="#2c4a9b"/>
    </linearGradient>
  </defs>
  <g id="Grupo_183587" data-name="Grupo 183587" transform="translate(7901 12264)">
    <g id="Grupo_183584" data-name="Grupo 183584" transform="translate(-7880 -12248.999)">
      <g id="Grupo_180473" data-name="Grupo 180473" transform="translate(0 -0.001)" clip-path="url(#clip-path)">
        <path id="Trazado_232047" data-name="Trazado 232047" d="M269.015,73.762H80.455A1.558,1.558,0,0,0,78.9,75.316v147.4a1.558,1.558,0,0,0,1.554,1.554h188.56a1.558,1.558,0,0,0,1.554-1.554V75.316a1.558,1.558,0,0,0-1.554-1.554" transform="translate(-68.685 -64.211)" fill="#e5e6eb"/>
        <rect id="Rectángulo_58398" data-name="Rectángulo 58398" width="189.078" height="147.917" rx="2" transform="translate(11.511 10.846)" fill="#fff"/>
        <rect id="Rectángulo_58399" data-name="Rectángulo 58399" width="34.566" height="11.246" transform="translate(23.198 22.464)" fill="#84a9ff"/>
        <rect id="Rectángulo_58400" data-name="Rectángulo 58400" width="34.566" height="11.246" transform="translate(66.911 22.464)" fill="#e5e6eb"/>
        <rect id="Rectángulo_58401" data-name="Rectángulo 58401" width="34.566" height="11.246" transform="translate(110.623 22.464)" fill="#84a9ff"/>
        <rect id="Rectángulo_58402" data-name="Rectángulo 58402" width="34.566" height="11.246" transform="translate(154.336 22.464)" fill="#f4a338"/>
        <rect id="Rectángulo_58403" data-name="Rectángulo 58403" width="1.295" height="124.68" transform="translate(61.69 22.464)" fill="#e5e6eb"/>
        <rect id="Rectángulo_58404" data-name="Rectángulo 58404" width="1.295" height="124.68" transform="translate(105.403 22.464)" fill="#e5e6eb"/>
        <rect id="Rectángulo_58405" data-name="Rectángulo 58405" width="1.295" height="124.68" transform="translate(149.116 22.464)" fill="#e5e6eb"/>
        <rect id="Rectángulo_58406" data-name="Rectángulo 58406" width="165.704" height="1.295" transform="translate(23.198 40.002)" fill="#e5e6eb"/>
        <rect id="Rectángulo_58407" data-name="Rectángulo 58407" width="34.566" height="24.073" transform="translate(23.198 47.588)" fill="#e5e6eb"/>
        <rect id="Rectángulo_58408" data-name="Rectángulo 58408" width="34.566" height="74.578" transform="translate(66.911 47.588)" fill="#84a9ff"/>
        <rect id="Rectángulo_58409" data-name="Rectángulo 58409" width="34.566" height="24.073" transform="translate(110.623 47.588)" fill="#84a9ff"/>
        <rect id="Rectángulo_58410" data-name="Rectángulo 58410" width="34.566" height="56.711" transform="translate(110.623 77.952)" fill="#373f51"/>
        <rect id="Rectángulo_58411" data-name="Rectángulo 58411" width="34.566" height="24.073" transform="translate(154.336 47.588)" fill="#e5e6eb"/>
        <path id="Trazado_232048" data-name="Trazado 232048" d="M53.75,26.872A26.875,26.875,0,1,1,26.875,0,26.875,26.875,0,0,1,53.75,26.872" transform="translate(0 0.003)" fill="#f4a338"/>
        <path id="Trazado_232049" data-name="Trazado 232049" d="M81.963,60.015A21.945,21.945,0,1,1,60.017,38.07,21.945,21.945,0,0,1,81.963,60.015" transform="translate(-33.142 -33.14)" fill="#fff"/>
        <rect id="Rectángulo_58412" data-name="Rectángulo 58412" width="0.848" height="3.498" transform="translate(26.451 6.149)" fill="#12263f"/>
        <path id="Trazado_232050" data-name="Trazado 232050" d="M210.8,69.522l-5.165,14.111-.689,1.881a1.5,1.5,0,0,0-1.928-.7l.689-1.883,5.165-14.111a1.027,1.027,0,1,1,1.929.706" transform="translate(-176.728 -59.317)" fill="#12263f"/>
        <path id="Trazado_232051" data-name="Trazado 232051" d="M223.08,215.105a1.025,1.025,0,0,1-.85.447,1.014,1.014,0,0,1-.577-.179l-9.923-6.772-1.656-1.132a1.5,1.5,0,0,0,1.159-1.695l1.656,1.13,9.921,6.772a1.028,1.028,0,0,1,.269,1.428" transform="translate(-182.874 -179.13)" fill="#f4a338"/>
        <path id="Trazado_232052" data-name="Trazado 232052" d="M187.615,183.028a3.25,3.25,0,0,0-1.928-.706c-.033,0-.067,0-.1,0a3.266,3.266,0,1,0,3.141,4.167,3.155,3.155,0,0,0,.128-.9,3.261,3.261,0,0,0-1.24-2.56m-1.7,4.024a1.369,1.369,0,0,1-.326.037,1.5,1.5,0,1,1,1.34-2.18,1.436,1.436,0,0,1,.145.447,1.5,1.5,0,0,1-1.159,1.7" transform="translate(-158.711 -158.712)" fill="#f4a338"/>
        <rect id="Rectángulo_58413" data-name="Rectángulo 58413" width="3.498" height="0.848" transform="translate(6.149 26.451)" fill="#12263f"/>
        <rect id="Rectángulo_58414" data-name="Rectángulo 58414" width="0.848" height="3.498" transform="translate(26.451 44.103)" fill="#12263f"/>
        <rect id="Rectángulo_58415" data-name="Rectángulo 58415" width="3.498" height="0.848" transform="translate(44.103 26.451)" fill="#12263f"/>
        <path id="Trazado_232053" data-name="Trazado 232053" d="M842.34,1211.1h12.265a1.888,1.888,0,0,0-.345-1.149,1.942,1.942,0,0,0-1.229-.654,11.749,11.749,0,0,0-1.423-.082,7.538,7.538,0,0,1-3.328-.964,11.242,11.242,0,0,0-1.6-.872l-3.343.088a3.83,3.83,0,0,0-.893,1.8,6.741,6.741,0,0,0-.106,1.832" transform="translate(-733.256 -1051.046)" fill="#4adbd1"/>
        <path id="Trazado_232054" data-name="Trazado 232054" d="M842.927,1177.742l.939,3.614,3.343-.088-.2-3.884Z" transform="translate(-733.782 -1024.933)" fill="#f5bdc8"/>
        <path id="Trazado_232055" data-name="Trazado 232055" d="M672.514,713.715a30.467,30.467,0,0,0-.62-6.946c-1.627-7.874-4.553-23.041-4.553-23.043-.453-3.268-3.17-4.224-6.437-3.771-1.9.264-19.737,3.956-19.722,4.124l3.888,60.447,4.961-.17,5.317-47.617,8.157,14.955.006.018,3.453,32.943,4.766-.326Z" transform="translate(-558.16 -591.82)" fill="#12263f"/>
        <path id="Trazado_232056" data-name="Trazado 232056" d="M669.589,1211.1h12.265a1.889,1.889,0,0,0-.345-1.15,1.942,1.942,0,0,0-1.229-.654,11.8,11.8,0,0,0-1.424-.082,7.535,7.535,0,0,1-3.328-.964,11.272,11.272,0,0,0-1.6-.872l-3.343.088a3.831,3.831,0,0,0-.893,1.8,6.752,6.752,0,0,0-.106,1.832" transform="translate(-582.873 -1051.045)" fill="#4adbd1"/>
        <path id="Trazado_232057" data-name="Trazado 232057" d="M674.342,1178.259l.4,3.731,3.343-.088.519-3.79Z" transform="translate(-587.026 -1025.567)" fill="#f5bdc8"/>
        <path id="Trazado_232058" data-name="Trazado 232058" d="M789.631,364.721a1.225,1.225,0,0,0-1.414.83,29.682,29.682,0,0,1-1.777,4.88,15.971,15.971,0,0,1-2.692,4.072,9.581,9.581,0,0,1-3.652,2.485,10.036,10.036,0,0,1-2.1.522,12.346,12.346,0,0,1-2.231.088,19.772,19.772,0,0,1-4.637-.84,35.312,35.312,0,0,1-4.64-1.772c-1.531-.7-3.045-1.493-4.537-2.349s-2.966-1.767-4.42-2.725a3.822,3.822,0,0,0-3.089-.4,4.579,4.579,0,0,0-2.664,2.044h0a4.329,4.329,0,0,0-.52,3.329,3.956,3.956,0,0,0,2.074,2.567c1.712.808,3.454,1.574,5.235,2.28s3.6,1.353,5.468,1.907a41.792,41.792,0,0,0,5.784,1.3,25.521,25.521,0,0,0,6.161.2,17.611,17.611,0,0,0,3.156-.6,14.977,14.977,0,0,0,3.028-1.248,14.032,14.032,0,0,0,4.726-4.3,19.616,19.616,0,0,0,2.575-5.4,32.537,32.537,0,0,0,1.18-5.572,1.192,1.192,0,0,0-1.013-1.313" transform="translate(-653.868 -317.479)" fill="#ea8096"/>
        <path id="Trazado_232059" data-name="Trazado 232059" d="M763.183,407.7l-10.1-5.207a6.108,6.108,0,0,1-2.875-8.215,6.515,6.515,0,0,1,8.579-2.846l10.1,5.207Z" transform="translate(-652.502 -340.178)" fill="#32d1c6"/>
        <path id="Trazado_232060" data-name="Trazado 232060" d="M654.688,377.4h0a11.484,11.484,0,0,1,12.5,11.391l.153,31.607c-10.7,5.186-16.735,3.453-26.159.354l.675-29.7A14.083,14.083,0,0,1,654.688,377.4" transform="translate(-558.16 -328.496)" fill="#4adbd1"/>
        <path id="Trazado_232061" data-name="Trazado 232061" d="M665.922,387.335a11.716,11.716,0,0,0-11.684-11.653c-.349,0-.7.015-1.053.047-.172.015-.341.034-.511.055q-.021.111-.046.225c.19-.026.383-.047.576-.064q.522-.046,1.034-.046A11.485,11.485,0,0,1,665.7,387.335l.055,11.539h.217Zm-14.53,34.835.015.218q.934.077,1.875.077a22.89,22.89,0,0,0,4.238-.4l-.074-.205a22.543,22.543,0,0,1-6.054.311M640.155,389.6l-.163,7.2h.217l.163-7.2a14.046,14.046,0,0,1,3.993-9.456c-.053-.052-.106-.1-.156-.153a14.27,14.27,0,0,0-4.055,9.6m-.306,23.049-.216-.031-.155,6.839.152.05c1.163.383,2.268.741,3.33,1.065,0-.075,0-.149,0-.224-1.048-.323-2.132-.675-3.265-1.048Zm26.17-4.961H665.8l.054,11.26q-1.086.527-2.111.959l.053.214q1.055-.445,2.152-.977l.123-.06Z" transform="translate(-556.677 -327.037)" fill="#12263f"/>
        <path id="Trazado_232062" data-name="Trazado 232062" d="M733.633,348.8l-.243,8.168a4.531,4.531,0,0,1-5.322-.158l.243-8.168Z" transform="translate(-633.796 -303.502)" fill="#f5bdc8"/>
        <path id="Trazado_232063" data-name="Trazado 232063" d="M734.827,348.8l-.11,3.695a4.313,4.313,0,0,1-1.2.238q-.2.01-.4,0a4.79,4.79,0,0,1-3.675-1.9l.065-2.192Z" transform="translate(-634.99 -303.502)" fill="#ea8096"/>
        <path id="Trazado_232064" data-name="Trazado 232064" d="M726.7,279.276l-.325,4.789A3.794,3.794,0,0,1,722.8,287.6a4.22,4.22,0,0,1-4.085-2.472,32.227,32.227,0,0,1-1.287-3.552,5.774,5.774,0,0,1,1.4-5.82,4.652,4.652,0,0,1,7.877,3.524" transform="translate(-624.297 -238.898)" fill="#f5bdc8"/>
        <path id="Trazado_232065" data-name="Trazado 232065" d="M783.388,287.044a8.964,8.964,0,0,1,.836,4.527,14.428,14.428,0,0,0,.033-5.273Z" transform="translate(-681.953 -249.228)" fill="#727997"/>
        <path id="Trazado_232066" data-name="Trazado 232066" d="M697.986,264.971s-2.658-3.806-.023-6.835c2.839-3.264,4.765-2.967,6.839-2.453,2.623.65,4.047,1.525,5.04,1.288.531-.127.991-.589,1.085-.287a3.839,3.839,0,0,1-1.2,3.468c-1.473,1.374-3.438,1.217-5.387.261s-2.855-.81-3.634.4c-.827,1.281.4,3.551.4,3.551l-.587.229s-2.27-1.255-2.53.38" transform="translate(-606.575 -222.3)" fill="#727997"/>
        <path id="Trazado_232067" data-name="Trazado 232067" d="M708.211,314.4a2.009,2.009,0,1,1-1.941-1.834,1.895,1.895,0,0,1,1.941,1.834" transform="translate(-613.038 -272.089)" fill="#f5bdc8"/>
        <path id="Trazado_232068" data-name="Trazado 232068" d="M573.568,456.108a1.087,1.087,0,0,1-1.359-.837,25.924,25.924,0,0,1-.55-5.483,41.081,41.081,0,0,1,.382-5.438c.067-.448.12-.9.2-1.346l.235-1.34.274-1.331c.089-.445.2-.881.306-1.323l.158-.661.176-.654c.119-.436.233-.875.358-1.31.265-.862.511-1.737.808-2.588a98.2,98.2,0,0,1,9.214-19.512,3.956,3.956,0,0,1,.513-.659,3.725,3.725,0,0,1,.629-.508,3.927,3.927,0,0,1,1.467-.572,3.994,3.994,0,0,1,3.067.749h0a4.248,4.248,0,0,1,1.663,2.691,3.81,3.81,0,0,1-.044,1.518,3.726,3.726,0,0,1-.254.72,3.5,3.5,0,0,1-.4.673,91.706,91.706,0,0,0-11.036,16.859c-.385.748-.717,1.514-1.074,2.275-.17.383-.329.769-.494,1.154l-.245.579-.228.584c-.148.39-.312.778-.449,1.172l-.42,1.182-.384,1.193c-.131.4-.234.8-.353,1.2a37.706,37.706,0,0,0-1.034,4.885,23.379,23.379,0,0,0-.194,4.919,1.217,1.217,0,0,1-.928,1.208" transform="translate(-497.639 -359.078)" fill="#f4bcc7"/>
        <path id="Trazado_232069" data-name="Trazado 232069" d="M606.525,423.491l5.422-9.154a5.72,5.72,0,0,1,7.838-2.237,6.1,6.1,0,0,1,2.19,8.176l-5.422,9.154Z" transform="translate(-527.99 -358.073)" fill="#35c6bc"/>
        <path id="Trazado_232070" data-name="Trazado 232070" d="M617.3,421.308l-2.893,4.884.266.158,2.9-4.9ZM612.522,409.2a6.333,6.333,0,0,0-3.4,2.481l.226.213a5.8,5.8,0,0,1,6.06-2.485l.112-.29a5.71,5.71,0,0,0-3,.081m7.621,5.084a6.593,6.593,0,0,0-1.85-3.6l-.2.236a6.157,6.157,0,0,1,1.466,6.4l.262.174a6.171,6.171,0,0,0,.318-3.211m-12.674.759-.278-.136-3.92,6.62,3.561,2.11.107-.294-3.247-1.924Zm5.67,11.971-3.851-2.28-.065.318,3.753,2.224c.052-.085.108-.172.163-.262" transform="translate(-525.158 -356.003)" fill="#12263f"/>
        <path id="Trazado_232071" data-name="Trazado 232071" d="M1441.372,1212.338a1.467,1.467,0,0,1,.927-.493,8.886,8.886,0,0,1,1.073-.062,5.683,5.683,0,0,0,2.509-.727,8.478,8.478,0,0,1,1.2-.657l2.521.066a2.89,2.89,0,0,1,.674,1.359,5.089,5.089,0,0,1,.079,1.381v.526h-9.245v-.526h0a1.424,1.424,0,0,1,.26-.867" transform="translate(-1254.513 -1053.673)" fill="url(#linear-gradient)"/>
        <path id="Trazado_232072" data-name="Trazado 232072" d="M1488.947,1189.292l-.317,2.8-2.521-.066-.169-2.589Z" transform="translate(-1293.537 -1035.299)" fill="#f5bdc8"/>
        <path id="Trazado_232073" data-name="Trazado 232073" d="M1250.208,1209a1.466,1.466,0,0,1,.977-.386,8.878,8.878,0,0,1,1.073.059,5.683,5.683,0,0,0,2.575-.44,8.464,8.464,0,0,1,1.271-.518l2.5.349a2.884,2.884,0,0,1,.516,1.426,5.088,5.088,0,0,1-.076,1.382l-.059.522-9.187-1.039.059-.522h0a1.427,1.427,0,0,1,.356-.832" transform="translate(-1087.968 -1051.341)" fill="url(#linear-gradient)"/>
        <path id="Trazado_232074" data-name="Trazado 232074" d="M1325.594,664.53c.53-9.753.438-23.57-2.2-31.353-.024-.141-20.44,1.692-20.44,1.694l-4.765,19.6a86.086,86.086,0,0,0-2.437,21.072l.247,29.414,3.445.223,6.382-38.953a151.348,151.348,0,0,0,6.89-15.136l7.428,54.241,3.448-.165s2-40.607,2-40.638Z" transform="translate(-1127.97 -551.185)" fill="#636363"/>
        <path id="Trazado_232075" data-name="Trazado 232075" d="M1301.642,1187.9l-.629,2.746-2.5-.349.123-2.591Z" transform="translate(-1130.38 -1033.919)" fill="#f5bdc8"/>
        <path id="Trazado_232076" data-name="Trazado 232076" d="M1092.314,233.947a1.261,1.261,0,0,1,1.716.025,113.332,113.332,0,0,0,8.464,7.591,84.814,84.814,0,0,0,9.158,6.461,71.255,71.255,0,0,0,9.836,4.973q2.536,1.029,5.129,1.844c.434.131.862.273,1.3.394l1.3.366c.875.223,1.746.452,2.627.64a3.876,3.876,0,0,1,.784.292,3.677,3.677,0,0,1,.692.434,4.461,4.461,0,0,1,1.064,1.252,4.777,4.777,0,0,1,.5,3.434,4.287,4.287,0,0,1-2.072,2.8,4.128,4.128,0,0,1-1.689.525,4.556,4.556,0,0,1-.919-.009,4.366,4.366,0,0,1-.925-.221c-.961-.35-1.907-.742-2.851-1.129l-1.4-.612c-.467-.2-.926-.428-1.388-.641q-2.761-1.308-5.392-2.828a77.8,77.8,0,0,1-9.9-6.851,89.792,89.792,0,0,1-8.664-8.1,116.654,116.654,0,0,1-7.561-8.934,1.252,1.252,0,0,1,.193-1.711" transform="translate(-950.49 -203.372)" fill="#ea8096"/>
        <path id="Trazado_232077" data-name="Trazado 232077" d="M1295.5,379.756l9.555,3.389a5.45,5.45,0,0,0,7.1-3.147,5.813,5.813,0,0,0-3.388-7.319l-9.555-3.389Z" transform="translate(-1127.753 -321.473)" fill="url(#linear-gradient)"/>
        <path id="Trazado_232078" data-name="Trazado 232078" d="M1351.235,378.729h0a12.616,12.616,0,0,0-12.626,14.362l1.547,20.285c8.561,3.1,14.935,1.407,20.44-1.694l.927-21.586a10.438,10.438,0,0,0-10.288-11.367" transform="translate(-1165.175 -329.689)" fill="url(#linear-gradient)"/>
        <path id="Trazado_232079" data-name="Trazado 232079" d="M1359.172,381.479l-.153.17a10.388,10.388,0,0,1,1.723,4.048l.218-.02a10.7,10.7,0,0,0-1.788-4.2m-8.534,31.9v.226a22.01,22.01,0,0,0,5.621-1.413l-.07-.213a22.089,22.089,0,0,1-5.551,1.4m4.421-35.346A10.678,10.678,0,0,0,1350.6,377h-.136a12.84,12.84,0,0,0-12.526,10.027l.215.045a12.623,12.623,0,0,1,12.445-9.848,10.394,10.394,0,0,1,4.422,1.031Zm-15.739,31.274-.216.115.2,2.609.137.049a27.933,27.933,0,0,0,5.656,1.434v-.223a27.709,27.709,0,0,1-5.58-1.422Zm-1.571-17.65.78,10.226h.225l-.78-10.226Z" transform="translate(-1164.534 -328.185)" fill="#84a9ff"/>
        <path id="Trazado_232080" data-name="Trazado 232080" d="M1425.32,269.95s5.332,1.241,4,7.167c-.887,3.957-3.755,5.963-7.905,6.641Z" transform="translate(-1237.37 -234.996)" fill="#727997"/>
        <path id="Trazado_232081" data-name="Trazado 232081" d="M1408.562,345.154l.407,6.114a4.291,4.291,0,0,0,5.036-.265l-.407-6.114Z" transform="translate(-1226.177 -300.231)" fill="#f5bdc8"/>
        <path id="Trazado_232082" data-name="Trazado 232082" d="M1408.843,350.563l.1,1.917a5.5,5.5,0,0,0,2.6.636c.052,0,.1,0,.157,0a3.354,3.354,0,0,0,2.272-1.045l-.093-1.768Z" transform="translate(-1226.422 -304.94)" fill="#ea8096"/>
        <path id="Trazado_232083" data-name="Trazado 232083" d="M1389.474,278.49l.345,4.5.077,1a4.8,4.8,0,0,0,4.8,4.384,2.71,2.71,0,0,0,.749-.11c.094-.028.188-.06.281-.1.019-.007.038-.016.058-.024a2.615,2.615,0,0,0,.933-.685,8.094,8.094,0,0,0,1.244-2.1,13.806,13.806,0,0,0,.71-1.915,6.2,6.2,0,0,0,.213-2.369l-.34-3.943-7.684-.58Z" transform="translate(-1209.561 -240.733)" fill="#f5bdc8"/>
        <path id="Trazado_232084" data-name="Trazado 232084" d="M1394.952,257.394s-8.792.546-7.059,8.262c0,0-2.766-5.591.049-9.335,3.1-4.124,7.237-2.769,8.707-.8s2.572,5.24-1.523,7.578a6.748,6.748,0,0,0-.173-5.706" transform="translate(-1207.127 -220.79)" fill="#727997"/>
        <path id="Trazado_232085" data-name="Trazado 232085" d="M1449.137,306.078a1.835,1.835,0,1,0,1.736-1.929,1.835,1.835,0,0,0-1.736,1.929" transform="translate(-1261.497 -264.765)" fill="#f5bdc8"/>
        <path id="Trazado_232086" data-name="Trazado 232086" d="M1459.312,447.274a1.261,1.261,0,0,1-1.425-.957,113.355,113.355,0,0,0-2.951-10.98,84.762,84.762,0,0,0-4.15-10.411,71.272,71.272,0,0,0-5.53-9.534q-1.564-2.246-3.292-4.343c-.292-.346-.574-.7-.873-1.039l-.893-1.018c-.612-.665-1.217-1.331-1.853-1.969a3.9,3.9,0,0,1-.5-.673,3.706,3.706,0,0,1-.343-.742,4.467,4.467,0,0,1-.208-1.63,4.779,4.779,0,0,1,1.458-3.149,4.289,4.289,0,0,1,3.265-1.216,4.125,4.125,0,0,1,1.7.482,4.55,4.55,0,0,1,.765.509,4.379,4.379,0,0,1,.655.689c.614.818,1.193,1.662,1.773,2.5l.842,1.279c.281.425.542.864.813,1.294q1.6,2.6,2.976,5.312a77.782,77.782,0,0,1,4.558,11.142,89.744,89.744,0,0,1,2.843,11.513,116.67,116.67,0,0,1,1.463,11.613,1.252,1.252,0,0,1-1.1,1.328" transform="translate(-1251.185 -347.862)" fill="#f5bdc8"/>
        <path id="Trazado_232087" data-name="Trazado 232087" d="M1448.927,408.165l-6.158-8.053a5.45,5.45,0,0,0-7.667-1.236,5.813,5.813,0,0,0-1.154,7.982l6.159,8.053Z" transform="translate(-1247.319 -346.295)" fill="url(#linear-gradient)"/>
        <path id="Trazado_232088" data-name="Trazado 232088" d="M1435.1,396.343a5.422,5.422,0,0,0-1.634.86,6.083,6.083,0,0,0-2.274,3.92,6.3,6.3,0,0,0-.067.765l.226-.021a5.873,5.873,0,0,1,2.251-4.487,5.28,5.28,0,0,1,6.04-.238l.076-.213a5.61,5.61,0,0,0-4.618-.587m6.347,2.138c-.021-.027-.042-.053-.064-.081l-.075.267,1.852,2.421.163-.154Zm2.563,3.352-.122.209,1.734,2.268.154-.168Zm2.646,3.459-.154.168.926,1.209-6.766,5.174.121.19,6.959-5.323Zm-13.549,1.3,4.485,5.864.19-.12-4.521-5.911Z" transform="translate(-1245.816 -344.799)" fill="#84a9ff"/>
      </g>
    </g>
    <rect id="Rectángulo_60468" data-name="Rectángulo 60468" width="251" height="190" transform="translate(-7901 -12264)" fill="none"/>
  </g>
</svg>
