<svg xmlns="http://www.w3.org/2000/svg" xmlns:xlink="http://www.w3.org/1999/xlink" width="1010.186" height="325.153" viewBox="0 0 1010.186 325.153">
  <defs>
    <radialGradient id="radial-gradient" cx="0.076" cy="0.019" r="1.465" gradientTransform="translate(0.001)" gradientUnits="objectBoundingBox">
      <stop offset="0" stop-color="#f6f6f7"/>
      <stop offset="0.477" stop-color="#f9f9fa"/>
      <stop offset="0.715" stop-color="#fff"/>
    </radialGradient>
    <clipPath id="clip-path">
      <rect id="Rectángulo_60193" data-name="Rectángulo 60193" width="59.016" height="77.035" fill="#12263f"/>
    </clipPath>
    <clipPath id="clip-path-2">
      <rect id="Rectángulo_60194" data-name="Rectángulo 60194" width="75.585" height="76.504" fill="#12263f"/>
    </clipPath>
    <clipPath id="clip-path-3">
      <rect id="Rectángulo_60195" data-name="Rectángulo 60195" width="63.732" height="73.673" fill="none"/>
    </clipPath>
    <linearGradient id="linear-gradient" x1="0.5" x2="0.5" y2="1" gradientUnits="objectBoundingBox">
      <stop offset="0" stop-color="#f5f5f5"/>
      <stop offset="0.25" stop-color="#f5f5f5"/>
      <stop offset="1" stop-color="#a7b3cf"/>
    </linearGradient>
    <clipPath id="clip-path-4">
      <rect id="Rectángulo_60196" data-name="Rectángulo 60196" width="60.092" height="78.301" fill="#12263f"/>
    </clipPath>
    <clipPath id="clip-path-5">
      <rect id="Rectángulo_60199" data-name="Rectángulo 60199" width="75.65" height="81.971" fill="#12263f"/>
    </clipPath>
  </defs>
  <g id="Grupo_183657" data-name="Grupo 183657" transform="translate(-10463.188 9864.704)">
    <g id="Grupo_183656" data-name="Grupo 183656">
      <g id="Grupo_180605" data-name="Grupo 180605" transform="translate(10463.188 -9864.704)">
        <g id="Grupo_42274" data-name="Grupo 42274" transform="translate(0 0)">
          <g id="Grupo_18423" data-name="Grupo 18423" transform="translate(0 0)">
            <g id="Grupo_18421" data-name="Grupo 18421">
              <g id="Grupo_18420" data-name="Grupo 18420">
                <g id="Grupo_18419" data-name="Grupo 18419">
                  <path id="Trazado_40936" data-name="Trazado 40936" d="M364.808,2230.811a85.093,85.093,0,1,1-85.091-85.09A85.09,85.09,0,0,1,364.808,2230.811Z" transform="translate(-194.623 -2145.721)" fill="#fff"/>
                </g>
              </g>
            </g>
            <path id="Trazado_40937" data-name="Trazado 40937" d="M363.489,2229.375a85.09,85.09,0,1,0-85.091,85.094A84.752,84.752,0,0,0,363.489,2229.375Z" transform="translate(-193.303 -2144.284)" fill="url(#radial-gradient)"/>
            <path id="Trazado_40938" data-name="Trazado 40938" d="M331.532,2217.6a64.951,64.951,0,1,0-64.951,64.952A64.712,64.712,0,0,0,331.532,2217.6Z" transform="translate(-181.231 -2132.224)" fill="none" stroke="#12263f" stroke-miterlimit="10" stroke-width="4"/>
            <g id="Grupo_18422" data-name="Grupo 18422" transform="translate(15.075 47.773)">
              <path id="Trazado_40939" data-name="Trazado 40939" d="M347.051,2164.488a85.1,85.1,0,0,1-146.506,84.738,84.832,84.832,0,0,0,146.506-84.738Z" transform="translate(-200.545 -2164.488)" fill="#eceef0"/>
            </g>
          </g>
        </g>
        <g id="Grupo_183243" data-name="Grupo 183243" transform="translate(52.585 46.575)">
          <g id="Grupo_183229" data-name="Grupo 183229" clip-path="url(#clip-path)">
            <path id="Trazado_238013" data-name="Trazado 238013" d="M34.925,72.228h-.681l-12.333,0c-1.013,0-1.432-.42-1.432-1.449q0-9.51,0-19.019v-.621c-.154.126-.255.195-.34.279C18.548,53,16.966,54.594,15.37,56.173a1.2,1.2,0,0,1-2.046-.408,2.035,2.035,0,0,1-.068-.633q-.006-3.814,0-7.627c0-.162,0-.325,0-.561H1.448C.442,46.945,0,46.5,0,45.5q0-6.983,0-13.967c0-1,.444-1.442,1.452-1.442h11.8v-.611q0-3.789,0-7.578c0-.741.229-1.167.762-1.358a1.307,1.307,0,0,1,1.468.419c1.5,1.516,3.008,3.016,4.515,4.521.126.126.257.246.479.459v-.615q0-9.534,0-19.069c0-1.025.412-1.444,1.435-1.446q6.166-.009,12.333-.005h.645c.012-.207.03-.381.03-.555,0-.991-.008-1.981.005-2.972A1.2,1.2,0,0,1,36.514.045l21.23,4.708c.973.216,1.272.584,1.272,1.573q0,30.435,0,60.871c0,1.189,0,2.377,0,3.566a1.283,1.283,0,0,1-1.181,1.5q-7.211,1.608-14.425,3.205-3.45.766-6.9,1.528a1.2,1.2,0,0,1-1.582-1.241c-.008-.974,0-1.948,0-2.922v-.6M37.358,2.719V74.291c.153-.023.283-.035.409-.063Q46.885,72.205,56,70.192c.467-.1.581-.281.581-.743q-.021-17.233-.01-34.466,0-13.717.007-27.434c0-.4-.072-.593-.524-.691C50.924,5.739,45.8,4.591,40.667,3.452l-3.309-.733M22.887,7.248V7.8q0,10.027-.008,20.054a1.159,1.159,0,0,0,.386.9q4.353,4.33,8.687,8.679a1.294,1.294,0,0,1,0,2.161q-4.341,4.342-8.687,8.679a1.158,1.158,0,0,0-.386.9q.018,10,.009,20v.606h12V7.248Zm6.5,31.3L15.63,24.777v7.74H2.483V44.566H15.665v7.709L29.39,38.548" transform="translate(0 0)" fill="#12263f"/>
            <path id="Trazado_238014" data-name="Trazado 238014" d="M377.136,27.447l3.309.733c5.129,1.139,10.257,2.287,15.391,3.405.452.1.524.289.524.691q-.014,13.717-.007,27.434,0,17.233.01,34.466c0,.463-.114.641-.581.743q-9.123,2-18.237,4.036c-.126.028-.256.04-.409.063Zm7.211,35.867a3.472,3.472,0,0,0-.684-2.166,2.107,2.107,0,0,0-3.431-.058,3.571,3.571,0,0,0,.066,4.39,2.078,2.078,0,0,0,3.171.086,3.3,3.3,0,0,0,.878-2.252" transform="translate(-339.777 -24.728)" fill="#4adbd1"/>
            <path id="Trazado_238015" data-name="Trazado 238015" d="M230.97,73.168h12.006v62.539h-12V135.1q0-10-.009-20a1.158,1.158,0,0,1,.386-.9q4.353-4.33,8.687-8.679a1.294,1.294,0,0,0,0-2.161q-4.341-4.342-8.687-8.679a1.158,1.158,0,0,1-.386-.9q.017-10.027.008-20.054v-.556" transform="translate(-208.083 -65.92)" fill="#5573c6"/>
            <path id="Trazado_238016" data-name="Trazado 238016" d="M51.973,263.9,38.249,277.629V269.92H25.066V257.872H38.214v-7.74l13.76,13.77" transform="translate(-22.583 -225.354)" fill="#f4a338"/>
            <path id="Trazado_238017" data-name="Trazado 238017" d="M405.938,361.513a3.305,3.305,0,0,1-.878,2.252,2.078,2.078,0,0,1-3.171-.086,3.571,3.571,0,0,1-.066-4.39,2.108,2.108,0,0,1,3.431.058,3.472,3.472,0,0,1,.684,2.166" transform="translate(-361.368 -322.927)" fill="#12263f"/>
          </g>
        </g>
      </g>
      <g id="Grupo_183239" data-name="Grupo 183239" transform="translate(10673.188 -9864.704)">
        <g id="Grupo_42274-2" data-name="Grupo 42274" transform="translate(0 0)">
          <g id="Grupo_18423-2" data-name="Grupo 18423" transform="translate(0 0)">
            <g id="Grupo_18421-2" data-name="Grupo 18421">
              <g id="Grupo_18420-2" data-name="Grupo 18420">
                <g id="Grupo_18419-2" data-name="Grupo 18419">
                  <path id="Trazado_40936-2" data-name="Trazado 40936" d="M364.808,2230.811a85.093,85.093,0,1,1-85.091-85.09A85.09,85.09,0,0,1,364.808,2230.811Z" transform="translate(-194.623 -2145.721)" fill="#fff"/>
                </g>
              </g>
            </g>
            <path id="Trazado_40937-2" data-name="Trazado 40937" d="M363.489,2229.375a85.09,85.09,0,1,0-85.091,85.094A84.752,84.752,0,0,0,363.489,2229.375Z" transform="translate(-193.303 -2144.284)" fill="url(#radial-gradient)"/>
            <path id="Trazado_40938-2" data-name="Trazado 40938" d="M331.532,2217.6a64.951,64.951,0,1,0-64.951,64.952A64.712,64.712,0,0,0,331.532,2217.6Z" transform="translate(-181.231 -2132.224)" fill="none" stroke="#12263f" stroke-miterlimit="10" stroke-width="4"/>
            <g id="Grupo_18422-2" data-name="Grupo 18422" transform="translate(15.075 47.773)">
              <path id="Trazado_40939-2" data-name="Trazado 40939" d="M347.051,2164.488a85.1,85.1,0,0,1-146.506,84.738,84.832,84.832,0,0,0,146.506-84.738Z" transform="translate(-200.545 -2164.488)" fill="#eceef0"/>
            </g>
          </g>
        </g>
        <g id="Grupo_183244" data-name="Grupo 183244" transform="translate(48.301 46.84)">
          <g id="Grupo_183231" data-name="Grupo 183231" clip-path="url(#clip-path-2)">
            <path id="Trazado_238018" data-name="Trazado 238018" d="M78.34,27.829H3.962a38.764,38.764,0,0,1,74.378,0M24.542,16.2c-.071-.032-.156-.077-.246-.111-2.527-.955-5.062-1.891-7.575-2.881a.692.692,0,0,0-.885.236,35.591,35.591,0,0,0-6.22,8.33c-.523.974-.982,1.983-1.518,3.073h14.1L24.542,16.2m33.128,0a2.452,2.452,0,0,0,.039.333c.714,2.608,1.451,5.209,2.132,7.826.131.5.388.535.791.534q6.45-.011,12.9-.008c.162,0,.323-.032.53-.054a3.028,3.028,0,0,0-.109-.406,36.265,36.265,0,0,0-7.59-11.055.687.687,0,0,0-.909-.125c-1.619.693-3.241,1.381-4.883,2.017-.94.364-1.92.626-2.9.939M39.6,24.842v-6.38L27.429,17.074l-2.178,7.768Zm3.065,0H57.016l-2.225-7.889c-2.15.322-4.107.671-6.078.9-2,.227-4.006.332-6.052.494ZM39.606,3.214c-4.286.418-8.9,6.042-10.737,10.9a58.14,58.14,0,0,0,10.737,1.161ZM53.385,14.106a.971.971,0,0,0-.019-.281,23.345,23.345,0,0,0-6.235-8.533,9.65,9.65,0,0,0-4.445-2.141V15.283a58.81,58.81,0,0,0,10.7-1.178M25.752,13.5A32.737,32.737,0,0,1,31.56,4.362a34.093,34.093,0,0,0-12.715,6.429q0,.129.008.257l6.9,2.452M63.57,10.979C60.687,8.3,52.991,4.415,50.641,4.41A31.134,31.134,0,0,1,56.523,13.5l7.047-2.523" transform="translate(-3.37 0)" fill="#12263f"/>
            <path id="Trazado_238019" data-name="Trazado 238019" d="M353.621,212.977l-1.885,6.366c-.395,1.334-.8,2.665-1.176,4.006a.622.622,0,0,1-.721.549c-1.069-.031-2.14.014-3.209-.029a.83.83,0,0,1-.628-.419c-1.557-4.848-3.084-9.706-4.614-14.563a1.124,1.124,0,0,1-.018-.237h4.041l2.922,10.972.144.018c.2-.678.395-1.356.586-2.036.78-2.775,1.573-5.547,2.324-8.33.136-.5.333-.686.859-.659a23.485,23.485,0,0,0,2.686,0c.607-.038.846.157,1.006.754.862,3.216,1.779,6.417,2.678,9.623a1.461,1.461,0,0,0,.341.639l2.925-10.978h4.091c-.291.942-.562,1.838-.844,2.731-1.235,3.91-2.487,7.815-3.7,11.732-.187.6-.455.828-1.089.787a19.69,19.69,0,0,0-2.685,0c-.635.046-.832-.217-.994-.78-.9-3.153-1.85-6.294-2.785-9.438-.054-.181-.129-.356-.259-.71" transform="translate(-290.389 -177.454)" fill="#12263f"/>
            <path id="Trazado_238020" data-name="Trazado 238020" d="M17.6,219.8l2.892-10.892H24.6c-.541,1.709-1.073,3.384-1.6,5.059-1,3.173-2.014,6.344-3,9.524-.147.477-.344.682-.869.658-.993-.046-1.99-.042-2.984-.007-.486.017-.683-.149-.819-.618-.914-3.174-1.862-6.339-2.8-9.507-.061-.205-.139-.406-.263-.768-.143.42-.246.689-.328.965-.914,3.1-1.832,6.195-2.729,9.3-.127.44-.3.657-.8.635-1.043-.045-2.09.009-3.133-.035a.837.837,0,0,1-.637-.407c-1.553-4.825-3.076-9.659-4.6-14.493A1.631,1.631,0,0,1,0,208.9H4.028l2.925,10.974.157-.016L10.192,208.9h4.139l3.093,10.978Z" transform="translate(0 -177.7)" fill="#12263f"/>
            <path id="Trazado_238021" data-name="Trazado 238021" d="M180.889,208.721c1.273,0,2.516-.023,3.756.025.184.007.454.323.517.543.917,3.174,1.8,6.357,2.7,9.537a2.067,2.067,0,0,0,.416.861l2.907-10.944h4.07c-.079.3-.136.553-.215.8-1.444,4.569-2.9,9.133-4.323,13.708-.165.531-.373.772-.965.738a27.029,27.029,0,0,0-2.835,0,.783.783,0,0,1-.927-.688c-.889-3.1-1.814-6.2-2.728-9.293a1.8,1.8,0,0,0-.391-.755q-.555,1.867-1.109,3.733c-.627,2.12-1.267,4.235-1.865,6.363a.741.741,0,0,1-.885.639c-1.019-.039-2.041.013-3.059-.031a.831.831,0,0,1-.63-.411c-1.553-4.821-3.077-9.651-4.6-14.48a1.863,1.863,0,0,1-.038-.321h4.036l2.916,10.94.167,0,3.087-10.968" transform="translate(-145.192 -177.545)" fill="#12263f"/>
            <path id="Trazado_238022" data-name="Trazado 238022" d="M48.1,90.975l-2.349,8.647h-14.1c.536-1.091,1-2.1,1.518-3.073a35.592,35.592,0,0,1,6.22-8.33.691.691,0,0,1,.885-.236c2.513.991,5.048,1.926,7.575,2.882.089.034.175.079.246.111" transform="translate(-26.93 -74.78)" fill="#4adbd1"/>
            <path id="Trazado_238023" data-name="Trazado 238023" d="M363.589,90.967c.98-.313,1.96-.575,2.9-.939,1.642-.636,3.264-1.324,4.883-2.017a.687.687,0,0,1,.909.125,36.265,36.265,0,0,1,7.59,11.055,3.042,3.042,0,0,1,.109.406c-.207.022-.368.054-.53.054q-6.45.005-12.9.008c-.4,0-.661-.032-.791-.534-.681-2.616-1.417-5.218-2.132-7.826a2.446,2.446,0,0,1-.039-.333" transform="translate(-309.289 -74.77)" fill="#4adbd1"/>
            <path id="Trazado_238024" data-name="Trazado 238024" d="M160.858,122.089H146.512l2.178-7.768,12.168,1.388Z" transform="translate(-124.631 -97.248)" fill="#4adbd1"/>
            <path id="Trazado_238025" data-name="Trazado 238025" d="M263.092,121.419v-6.5c2.046-.162,4.056-.266,6.052-.493,1.971-.225,3.929-.574,6.078-.9l2.225,7.889Z" transform="translate(-223.801 -96.575)" fill="#4adbd1"/>
            <path id="Trazado_238026" data-name="Trazado 238026" d="M181.475,21.516V33.575a58.14,58.14,0,0,1-10.737-1.161c1.839-4.856,6.451-10.48,10.737-10.9" transform="translate(-145.239 -18.303)" fill="#4adbd1"/>
            <path id="Trazado_238027" data-name="Trazado 238027" d="M273.954,32.05a58.81,58.81,0,0,1-10.7,1.178V21.1a9.651,9.651,0,0,1,4.445,2.141,23.346,23.346,0,0,1,6.235,8.533.977.977,0,0,1,.018.281" transform="translate(-223.94 -17.945)" fill="#4adbd1"/>
            <path id="Trazado_238028" data-name="Trazado 238028" d="M110.526,38.346l-6.9-2.452q0-.129-.008-.257a34.091,34.091,0,0,1,12.715-6.429,32.735,32.735,0,0,0-5.808,9.138" transform="translate(-88.144 -24.846)" fill="#4adbd1"/>
            <path id="Trazado_238029" data-name="Trazado 238029" d="M329.449,36.1,322.4,38.618a31.133,31.133,0,0,0-5.882-9.092c2.35,0,10.046,3.889,12.929,6.569" transform="translate(-269.25 -25.116)" fill="#4adbd1"/>
            <path id="Trazado_238030" data-name="Trazado 238030" d="M3.962,325.928H78.34a38.764,38.764,0,0,1-74.378,0m53.8,11.634c.071.032.156.077.246.111,2.527.955,5.062,1.891,7.575,2.881a.692.692,0,0,0,.885-.236,35.591,35.591,0,0,0,6.22-8.33c.523-.974.982-1.983,1.518-3.073h-14.1l-2.349,8.647m-33.128,0a2.452,2.452,0,0,0-.039-.333c-.714-2.608-1.451-5.209-2.132-7.826-.131-.5-.388-.535-.791-.534q-6.45.011-12.9.008c-.162,0-.323.032-.53.054a3.025,3.025,0,0,0,.109.406,36.265,36.265,0,0,0,7.59,11.055.687.687,0,0,0,.909.125c1.619-.693,3.241-1.381,4.883-2.017.94-.364,1.92-.626,2.9-.939m18.074-8.644v6.38l12.168,1.388,2.178-7.768Zm-3.065,0H25.286L27.51,336.8c2.15-.322,4.107-.671,6.078-.9,2-.227,4.006-.332,6.052-.494ZM42.7,350.544c4.286-.418,8.9-6.042,10.737-10.9A58.137,58.137,0,0,0,42.7,338.484ZM28.917,339.651a.971.971,0,0,0,.019.281,23.346,23.346,0,0,0,6.235,8.533,9.651,9.651,0,0,0,4.445,2.141V338.474a58.812,58.812,0,0,0-10.7,1.178m27.633.606a32.737,32.737,0,0,1-5.808,9.138,34.092,34.092,0,0,0,12.715-6.429q0-.129-.008-.257l-6.9-2.452m-37.818,2.521c2.882,2.68,10.579,6.564,12.929,6.569a31.134,31.134,0,0,1-5.882-9.092l-7.047,2.523" transform="translate(-3.37 -277.253)" fill="#12263f"/>
            <path id="Trazado_238031" data-name="Trazado 238031" d="M364.186,354.578l2.349-8.647h14.1c-.536,1.091-1,2.1-1.518,3.073a35.589,35.589,0,0,1-6.22,8.33.692.692,0,0,1-.885.236c-2.513-.991-5.048-1.926-7.575-2.882-.089-.034-.175-.079-.246-.111" transform="translate(-309.797 -294.268)" fill="#4adbd1"/>
            <path id="Trazado_238032" data-name="Trazado 238032" d="M49,354.3c-.98.313-1.96.575-2.9.939-1.642.636-3.264,1.324-4.883,2.017a.687.687,0,0,1-.909-.125,36.267,36.267,0,0,1-7.59-11.055,3.087,3.087,0,0,1-.109-.406c.207-.022.369-.054.53-.054q6.45-.005,12.9-.008c.4,0,.66.032.791.534.681,2.616,1.417,5.218,2.132,7.826A2.472,2.472,0,0,1,49,354.3" transform="translate(-27.737 -293.993)" fill="#4adbd1"/>
            <path id="Trazado_238033" data-name="Trazado 238033" d="M263.383,345.933h14.346l-2.178,7.768-12.168-1.388Z" transform="translate(-224.048 -294.27)" fill="#4adbd1"/>
            <path id="Trazado_238034" data-name="Trazado 238034" d="M161.1,345.914v6.5c-2.046.162-4.056.266-6.052.493-1.971.225-3.928.574-6.078.9l-2.225-7.889Z" transform="translate(-124.828 -294.254)" fill="#4adbd1"/>
            <path id="Trazado_238035" data-name="Trazado 238035" d="M263.318,422.063V410a58.146,58.146,0,0,1,10.737,1.161c-1.839,4.856-6.451,10.48-10.737,10.9" transform="translate(-223.993 -348.772)" fill="#4adbd1"/>
            <path id="Trazado_238036" data-name="Trazado 238036" d="M171.061,411.112a58.812,58.812,0,0,1,10.7-1.178v12.133a9.651,9.651,0,0,1-4.445-2.141,23.345,23.345,0,0,1-6.235-8.533.978.978,0,0,1-.018-.281" transform="translate(-145.514 -348.713)" fill="#4adbd1"/>
            <path id="Trazado_238037" data-name="Trazado 238037" d="M323.005,421.875l6.9,2.452q0,.129.008.257a34.089,34.089,0,0,1-12.715,6.429,32.736,32.736,0,0,0,5.808-9.138" transform="translate(-269.825 -358.87)" fill="#4adbd1"/>
            <path id="Trazado_238038" data-name="Trazado 238038" d="M102.862,424.388l7.047-2.523a31.134,31.134,0,0,0,5.882,9.092c-2.35,0-10.046-3.889-12.929-6.569" transform="translate(-87.5 -358.862)" fill="#4adbd1"/>
          </g>
        </g>
      </g>
      <g id="Grupo_183240" data-name="Grupo 183240" transform="translate(10883.188 -9864.704)">
        <g id="Grupo_42274-3" data-name="Grupo 42274" transform="translate(0 0)">
          <g id="Grupo_18423-3" data-name="Grupo 18423" transform="translate(0 0)">
            <g id="Grupo_18421-3" data-name="Grupo 18421">
              <g id="Grupo_18420-3" data-name="Grupo 18420">
                <g id="Grupo_18419-3" data-name="Grupo 18419">
                  <path id="Trazado_40936-3" data-name="Trazado 40936" d="M364.808,2230.811a85.093,85.093,0,1,1-85.091-85.09A85.09,85.09,0,0,1,364.808,2230.811Z" transform="translate(-194.623 -2145.721)" fill="#fff"/>
                </g>
              </g>
            </g>
            <path id="Trazado_40937-3" data-name="Trazado 40937" d="M363.489,2229.375a85.09,85.09,0,1,0-85.091,85.094A84.752,84.752,0,0,0,363.489,2229.375Z" transform="translate(-193.303 -2144.284)" fill="url(#radial-gradient)"/>
            <path id="Trazado_40938-3" data-name="Trazado 40938" d="M331.532,2217.6a64.951,64.951,0,1,0-64.951,64.952A64.712,64.712,0,0,0,331.532,2217.6Z" transform="translate(-181.231 -2132.224)" fill="none" stroke="#12263f" stroke-miterlimit="10" stroke-width="4"/>
            <g id="Grupo_18422-3" data-name="Grupo 18422" transform="translate(15.075 47.773)">
              <path id="Trazado_40939-3" data-name="Trazado 40939" d="M347.051,2164.488a85.1,85.1,0,0,1-146.506,84.738,84.832,84.832,0,0,0,146.506-84.738Z" transform="translate(-200.545 -2164.488)" fill="#eceef0"/>
            </g>
          </g>
        </g>
        <g id="Grupo_183245" data-name="Grupo 183245" transform="translate(52.565 51.177)">
          <g id="Grupo_183233" data-name="Grupo 183233" clip-path="url(#clip-path-3)">
            <path id="Trazado_238039" data-name="Trazado 238039" d="M53.9,53.117c0,.538.007,1.006,0,1.475A2.994,2.994,0,0,1,50.87,57.63c-.129,0-.258,0-.388,0-1.563,0-1.575,0-2.135,1.466a.78.78,0,0,0,.11.65c.323.4.724.735,1.078,1.112a2.957,2.957,0,0,1-.037,4.235q-2.106,2.142-4.248,4.249a2.915,2.915,0,0,1-4.126.019c-.109-.1-.213-.213-.32-.319-1.1-1.095-1.089-1.079-2.5-.533a.636.636,0,0,0-.459.719,13.18,13.18,0,0,1-.076,2A2.846,2.846,0,0,1,34.94,73.66q-3.069.025-6.137,0a2.947,2.947,0,0,1-2.928-2.855,2.49,2.49,0,0,1,0-.58,1.586,1.586,0,0,0-1.38-2.1c-.356-.081-.577-.125-.832.167-.325.372-.688.712-1.045,1.056a2.914,2.914,0,0,1-4.127.019q-2.167-2.126-4.293-4.295a2.963,2.963,0,0,1-.039-4.189c.1-.111.209-.217.314-.326,1.109-1.156,1.12-1.161.445-2.634a.784.784,0,0,0-.546-.375c-.533-.052-1.075-.011-1.613-.021a2.909,2.909,0,0,1-2.921-2.971c0-.449,0-.9,0-1.434H9.116c-2.067,0-4.135,0-6.2,0A2.744,2.744,0,0,1,0,50.2Q0,26.591,0,2.978A2.754,2.754,0,0,1,2.979,0Q31.954,0,60.93,0a2.565,2.565,0,0,1,2.8,2.8q0,23.549,0,47.1,0,3.214-3.2,3.215H53.9m6.833-37.561H3.143V49.975H9.838c0-.507,0-.977,0-1.447a2.908,2.908,0,0,1,2.9-2.921c.517-.01,1.035-.023,1.55,0a.585.585,0,0,0,.67-.434c.582-1.453.594-1.449-.513-2.561-.106-.107-.216-.211-.317-.322a2.964,2.964,0,0,1,.044-4.144q2.139-2.2,4.341-4.34a2.91,2.91,0,0,1,4.034,0c.521.481,1.035.97,1.553,1.456.617-.267,1.425-.371,1.735-.819s.112-1.234.136-1.872c0-.043,0-.086,0-.129a2.825,2.825,0,0,1,2.74-2.867q3.228-.085,6.46,0A2.815,2.815,0,0,1,37.893,32.4c.014.56-.022,1.122.02,1.679a.735.735,0,0,0,.311.528c.494.249,1.023.426,1.576.647.437-.441.871-.889,1.315-1.327a2.93,2.93,0,0,1,4.265-.013q2.089,2.069,4.157,4.158a2.982,2.982,0,0,1,.018,4.332c-.436.444-.913.849-1.35,1.252.3.7.408,1.5.857,1.814s1.234.11,1.873.135c.043,0,.086,0,.129,0a2.917,2.917,0,0,1,2.973,2.988c0,.464,0,.928,0,1.39h6.694ZM50.918,48.714c-.995,0-1.937.009-2.879,0a1.657,1.657,0,0,1-1.743-1.32,30.948,30.948,0,0,0-1.224-3.039,1.649,1.649,0,0,1,.327-2.3c.62-.619,1.249-1.229,1.777-1.747l-4.054-4.056c-.544.556-1.14,1.177-1.75,1.785a1.713,1.713,0,0,1-2.275.336c-.951-.443-1.922-.852-2.911-1.2a1.751,1.751,0,0,1-1.456-1.975c0-.856,0-1.712,0-2.579H29.086c0,.963.006,1.886,0,2.808a1.672,1.672,0,0,1-1.342,1.791,28.151,28.151,0,0,0-2.98,1.2,1.685,1.685,0,0,1-2.405-.365c-.6-.6-1.2-1.2-1.757-1.755l-4.036,4.036c.628.617,1.3,1.255,1.943,1.914a1.593,1.593,0,0,1,.284,2.054c-.458.991-.89,2-1.257,3.027a1.752,1.752,0,0,1-1.979,1.45c-.855,0-1.711,0-2.573,0V54.36a.774.774,0,0,0,.161.046c.883,0,1.765,0,2.648.011a1.668,1.668,0,0,1,1.789,1.342,26.912,26.912,0,0,0,1.169,2.922c.563,1.174.541,1.584-.384,2.509L16.662,62.9l4,4a.216.216,0,0,0,.069-.044q.871-.864,1.74-1.731a1.725,1.725,0,0,1,2.325-.353,30.217,30.217,0,0,0,2.852,1.175c1.139.4,1.487.811,1.492,2.015,0,.854,0,1.708,0,2.551h5.647c0-.993-.01-1.939,0-2.884a1.642,1.642,0,0,1,1.291-1.7c1.049-.372,2.092-.775,3.1-1.249a1.678,1.678,0,0,1,2.3.366c.6.584,1.245,1.124,1.9,1.711.012-.011.145-.117.264-.236,1.2-1.2,2.4-2.4,3.653-3.646-.7-.69-1.358-1.333-2.005-1.99a1.545,1.545,0,0,1-.3-2.044,28.861,28.861,0,0,0,1.179-2.781c.507-1.452.806-1.7,2.379-1.705h2.365ZM60.744,3.241H3.163v9.015H60.744Z" transform="translate(0 0)" fill="#161615"/>
            <path id="Trazado_238040" data-name="Trazado 238040" d="M81.913,120.37V154.8H75.219c0-.462,0-.926,0-1.39a2.917,2.917,0,0,0-2.973-2.987c-.043,0-.086,0-.129,0-.639-.024-1.429.172-1.873-.135s-.554-1.117-.857-1.814c.437-.4.914-.808,1.35-1.252a2.982,2.982,0,0,0-.018-4.332q-2.068-2.089-4.157-4.158a2.93,2.93,0,0,0-4.265.013c-.444.438-.878.885-1.315,1.326-.553-.22-1.082-.4-1.576-.647a.735.735,0,0,1-.311-.528c-.041-.557-.005-1.119-.019-1.679a2.815,2.815,0,0,0-2.716-2.822q-3.228-.088-6.46,0a2.825,2.825,0,0,0-2.74,2.867c0,.043,0,.086,0,.129-.025.638.171,1.429-.136,1.872s-1.118.552-1.735.819c-.518-.486-1.032-.975-1.553-1.456a2.909,2.909,0,0,0-4.034,0q-2.2,2.135-4.341,4.34a2.964,2.964,0,0,0-.044,4.144c.1.112.211.216.317.323,1.108,1.112,1.1,1.107.513,2.561a.585.585,0,0,1-.67.434c-.516-.028-1.034-.014-1.55,0a2.908,2.908,0,0,0-2.9,2.921c-.006.47,0,.94,0,1.447H24.325V120.37Z" transform="translate(-21.181 -104.814)" fill="url(#linear-gradient)"/>
            <path id="Trazado_238041" data-name="Trazado 238041" d="M138.4,268.443v5.644h-2.365c-1.573,0-1.872.253-2.379,1.705a28.891,28.891,0,0,1-1.179,2.781,1.545,1.545,0,0,0,.3,2.044c.647.657,1.308,1.3,2.005,1.99-1.249,1.248-2.45,2.448-3.653,3.646-.119.119-.252.225-.264.236-.655-.587-1.3-1.127-1.9-1.711a1.679,1.679,0,0,0-2.3-.366c-1.006.474-2.049.877-3.1,1.249a1.642,1.642,0,0,0-1.291,1.7c-.013.946,0,1.891,0,2.884h-5.647c0-.843,0-1.7,0-2.551-.005-1.2-.353-1.616-1.492-2.015a30.222,30.222,0,0,1-2.852-1.176,1.725,1.725,0,0,0-2.325.353q-.872.864-1.741,1.731a.217.217,0,0,1-.069.044l-4-4,1.706-1.708c.924-.926.947-1.335.384-2.509a26.943,26.943,0,0,1-1.169-2.922,1.668,1.668,0,0,0-1.789-1.342c-.883-.008-1.765-.006-2.648-.011a.772.772,0,0,1-.161-.046V268.5c.862,0,1.717,0,2.573,0a1.752,1.752,0,0,0,1.979-1.45c.367-1.028.8-2.036,1.257-3.027a1.593,1.593,0,0,0-.284-2.054c-.646-.66-1.315-1.3-1.943-1.914l4.036-4.036c.554.554,1.155,1.155,1.757,1.755a1.685,1.685,0,0,0,2.406.365,28.151,28.151,0,0,1,2.98-1.2,1.672,1.672,0,0,0,1.342-1.791c.008-.922,0-1.845,0-2.808h5.644c0,.867,0,1.723,0,2.579a1.751,1.751,0,0,0,1.456,1.975c.989.35,1.96.759,2.911,1.2a1.713,1.713,0,0,0,2.275-.336c.609-.607,1.205-1.228,1.75-1.785l4.054,4.056c-.528.518-1.157,1.128-1.777,1.747a1.648,1.648,0,0,0-.327,2.3,30.926,30.926,0,0,1,1.224,3.039,1.657,1.657,0,0,0,1.743,1.32c.942.011,1.884,0,2.878,0m-18.975-6.21a9.061,9.061,0,1,0,9.055,9.067,9.026,9.026,0,0,0-9.055-9.067" transform="translate(-87.485 -219.73)" fill="#5573c6"/>
            <path id="Trazado_238042" data-name="Trazado 238042" d="M82.055,34.091H24.474V25.076H82.055Zm-47.9-6.2a1.694,1.694,0,1,0,1.74,1.689,1.7,1.7,0,0,0-1.74-1.689M29.29,31.284a1.694,1.694,0,1,0-1.722-1.71,1.706,1.706,0,0,0,1.722,1.71m9.75,0a1.694,1.694,0,1,0-1.687-1.726,1.663,1.663,0,0,0,1.687,1.726" transform="translate(-21.311 -21.835)" fill="#f4a338"/>
            <path id="Trazado_238043" data-name="Trazado 238043" d="M186.085,328.893a9.061,9.061,0,1,1-9.067,9.053,9.028,9.028,0,0,1,9.067-9.053m0,15.012a5.922,5.922,0,1,0-5.9-5.9,5.877,5.877,0,0,0,5.9,5.9" transform="translate(-154.142 -286.389)" fill="#161615"/>
            <path id="Trazado_238044" data-name="Trazado 238044" d="M87.9,46.894a1.695,1.695,0,1,1-1.7,1.73,1.7,1.7,0,0,1,1.7-1.73" transform="translate(-75.063 -40.834)" fill="#161615"/>
            <path id="Trazado_238045" data-name="Trazado 238045" d="M50.134,50.282a1.695,1.695,0,1,1,1.72-1.712,1.708,1.708,0,0,1-1.72,1.712" transform="translate(-42.156 -40.834)" fill="#161615"/>
            <path id="Trazado_238046" data-name="Trazado 238046" d="M125.817,50.282a1.694,1.694,0,1,1,1.713-1.7,1.676,1.676,0,0,1-1.713,1.7" transform="translate(-108.088 -40.833)" fill="#161615"/>
          </g>
        </g>
      </g>
      <g id="Grupo_183241" data-name="Grupo 183241" transform="translate(11093.188 -9864.704)">
        <g id="Grupo_42274-4" data-name="Grupo 42274" transform="translate(0 0)">
          <g id="Grupo_18423-4" data-name="Grupo 18423" transform="translate(0 0)">
            <g id="Grupo_18421-4" data-name="Grupo 18421">
              <g id="Grupo_18420-4" data-name="Grupo 18420">
                <g id="Grupo_18419-4" data-name="Grupo 18419">
                  <path id="Trazado_40936-4" data-name="Trazado 40936" d="M364.808,2230.811a85.093,85.093,0,1,1-85.091-85.09A85.09,85.09,0,0,1,364.808,2230.811Z" transform="translate(-194.623 -2145.721)" fill="#fff"/>
                </g>
              </g>
            </g>
            <path id="Trazado_40937-4" data-name="Trazado 40937" d="M363.489,2229.375a85.09,85.09,0,1,0-85.091,85.094A84.752,84.752,0,0,0,363.489,2229.375Z" transform="translate(-193.303 -2144.284)" fill="url(#radial-gradient)"/>
            <path id="Trazado_40938-4" data-name="Trazado 40938" d="M331.532,2217.6a64.951,64.951,0,1,0-64.951,64.952A64.712,64.712,0,0,0,331.532,2217.6Z" transform="translate(-181.231 -2132.224)" fill="none" stroke="#12263f" stroke-miterlimit="10" stroke-width="4"/>
            <g id="Grupo_18422-4" data-name="Grupo 18422" transform="translate(15.075 47.773)">
              <path id="Trazado_40939-4" data-name="Trazado 40939" d="M347.051,2164.488a85.1,85.1,0,0,1-146.506,84.738,84.832,84.832,0,0,0,146.506-84.738Z" transform="translate(-200.545 -2164.488)" fill="#eceef0"/>
            </g>
          </g>
        </g>
        <g id="Grupo_183246" data-name="Grupo 183246" transform="translate(55.047 45.942)">
          <g id="Grupo_183235" data-name="Grupo 183235" clip-path="url(#clip-path-4)">
            <path id="Trazado_238047" data-name="Trazado 238047" d="M60.026,25.758c.021,3.87.1,7.741.048,11.61a55.845,55.845,0,0,1-1.607,13.308A33.093,33.093,0,0,1,47.558,67.784a65.4,65.4,0,0,1-12.87,8.388c-1.322.679-2.672,1.3-4.007,1.959a1.234,1.234,0,0,1-1.148.05,82.067,82.067,0,0,1-13.6-7.729,41.834,41.834,0,0,1-8.3-7.737,32.351,32.351,0,0,1-6.292-13.27A61.6,61.6,0,0,1,.006,35.074c.067-6.1.26-12.2.386-18.305.043-2.1.051-4.2.075-6.3C.478,9.435.8,9.164,1.828,9.224A37.236,37.236,0,0,0,14.141,7.809,45.744,45.744,0,0,0,29.341.318a.956.956,0,0,1,1.434.011A45.444,45.444,0,0,0,49.15,8.562a35.732,35.732,0,0,0,9.325.655c.813-.051,1.149.278,1.163,1.092q.132,7.725.267,15.449h.122M57.854,11.079c-10.341.2-19.48-3.157-27.8-9-8.333,5.843-17.472,9.2-27.774,9-.009.135-.019.223-.021.31-.1,4.673-.189,9.346-.31,14.018a146,146,0,0,0,.194,17.626A43.818,43.818,0,0,0,3.709,51.4,31.121,31.121,0,0,0,13.239,66,67.8,67.8,0,0,0,29.814,76.319a.661.661,0,0,0,.495-.011A72.845,72.845,0,0,0,44.76,67.766a35.174,35.174,0,0,0,8.6-9.463,35.493,35.493,0,0,0,4.6-15.157,91.1,91.1,0,0,0,.354-10.795c-.132-6.8-.3-13.6-.455-20.4-.006-.279,0-.558,0-.871" transform="translate(0 0)" fill="#12263f"/>
            <path id="Trazado_238048" data-name="Trazado 238048" d="M75.979,32.317c0,.313-.005.592,0,.871.153,6.8.323,13.6.455,20.4a91.105,91.105,0,0,1-.353,10.795,35.494,35.494,0,0,1-4.6,15.157A35.175,35.175,0,0,1,62.885,89a72.843,72.843,0,0,1-14.451,8.542.661.661,0,0,1-.495.011A67.8,67.8,0,0,1,31.364,87.243a31.121,31.121,0,0,1-9.53-14.606,43.818,43.818,0,0,1-1.568-8.364,146.021,146.021,0,0,1-.194-17.626c.121-4.672.208-9.346.31-14.018,0-.087.011-.175.021-.31,10.3.206,19.442-3.155,27.775-9,8.322,5.839,17.46,9.2,27.8,9M73.049,49.4c-.12-4.273-.239-8.41-.35-12.547-.028-1.02-.247-1.216-1.251-1.329-1.713-.193-3.435-.362-5.126-.686a50.688,50.688,0,0,1-17.445-7.028,1.185,1.185,0,0,0-1.4,0,49.438,49.438,0,0,1-22.838,7.742.919.919,0,0,0-.976,1.033c-.125,4.777-.264,9.553-.371,14.33a94.8,94.8,0,0,0,.544,15.157,33.185,33.185,0,0,0,2.211,8.435,29.693,29.693,0,0,0,8.673,11.234,62.877,62.877,0,0,0,12.949,8.013,1.125,1.125,0,0,0,1.069-.021c.807-.414,1.625-.807,2.429-1.225a52.623,52.623,0,0,0,12.73-8.8,27.57,27.57,0,0,0,7.5-12.269,45.452,45.452,0,0,0,1.634-11.593c.078-3.526.016-7.055.016-10.447" transform="translate(-18.125 -21.238)" fill="#4adbd1"/>
            <path id="Trazado_238049" data-name="Trazado 238049" d="M106.912,92.824c0,3.392.061,6.921-.016,10.447a45.457,45.457,0,0,1-1.634,11.593,27.57,27.57,0,0,1-7.5,12.269,52.627,52.627,0,0,1-12.73,8.8c-.8.418-1.622.811-2.429,1.225a1.124,1.124,0,0,1-1.069.02,62.876,62.876,0,0,1-12.95-8.013,29.694,29.694,0,0,1-8.673-11.234A33.183,33.183,0,0,1,57.7,109.5a94.8,94.8,0,0,1-.544-15.157c.107-4.777.246-9.553.371-14.33a.919.919,0,0,1,.976-1.033,49.437,49.437,0,0,0,22.838-7.742,1.185,1.185,0,0,1,1.4,0,50.688,50.688,0,0,0,17.445,7.028c1.691.323,3.413.493,5.126.686,1,.113,1.223.309,1.251,1.329.112,4.137.23,8.274.35,12.547M59.319,80.766c-.008.093-.018.165-.019.238-.121,4.479-.258,8.957-.357,13.436a91.9,91.9,0,0,0,.546,14.931,30.757,30.757,0,0,0,2.179,8.12,28.02,28.02,0,0,0,7.752,10.06,57.835,57.835,0,0,0,12.372,7.75.716.716,0,0,0,.529-.016c.45-.193.882-.429,1.32-.651A55.715,55.715,0,0,0,94.722,127.5a26.917,26.917,0,0,0,9.385-15.352,56.129,56.129,0,0,0,1.066-11.76c-.038-5.358-.195-10.715-.3-16.072-.024-1.188-.063-2.375-.1-3.58-.2-.027-.358-.054-.519-.069a44.767,44.767,0,0,1-6.766-1.152,53.917,53.917,0,0,1-15.062-6.365.638.638,0,0,0-.757-.008c-1.463.826-2.918,1.671-4.419,2.424A49.292,49.292,0,0,1,63.2,80.215c-1.275.212-2.56.365-3.881.55" transform="translate(-51.988 -64.665)" fill="#12263f"/>
            <path id="Trazado_238051" data-name="Trazado 238051" d="M201.271,227.254v-.6c0-2.516-.012-5.033,0-7.549a8.255,8.255,0,0,1,7.96-8.208,12.765,12.765,0,0,1,4.033.306,8.255,8.255,0,0,1,6,7.836c.023,2.5.007,5,.008,7.5,0,.235,0,.47,0,.708.35.066.66.1.955.185a3.325,3.325,0,0,1,2.417,3.227c.006,4.229-.048,8.458.025,12.685a3.543,3.543,0,0,1-3.726,3.7c-4.6-.05-9.2-.014-13.8-.015-1.25,0-2.5.011-3.751-.009a3.344,3.344,0,0,1-3.5-3.563q0-6.3,0-12.6a3.347,3.347,0,0,1,3.192-3.557,1.527,1.527,0,0,0,.185-.053m9.044,1.846q-4.486,0-8.972,0a1.549,1.549,0,0,0-1.657,1.6c-.006,4.316-.014,8.631.018,12.947a2.06,2.06,0,0,0,.457,1.116,1.554,1.554,0,0,0,1.338.474q8.793-.005,17.587,0a1.6,1.6,0,0,0,1.77-1.766q0-6.273,0-12.545a1.6,1.6,0,0,0-1.837-1.826q-4.352,0-8.7,0m3.812-1.82c.008-.163.017-.267.017-.37,0-2.573.005-5.146,0-7.719a3.13,3.13,0,0,0-3.047-3.156c-.475-.019-.952-.012-1.427-.008a3.149,3.149,0,0,0-3.275,3.3c-.007,2.5,0,5,0,7.5,0,.145.013.289.021.46Zm1.808,0h1.5a1.022,1.022,0,0,0,.043-.195c0-2.814.1-5.633-.049-8.439a6.146,6.146,0,0,0-4.057-5.512,8.852,8.852,0,0,0-3.647-.458,6.486,6.486,0,0,0-6.66,6.659q0,3.729,0,7.459c0,.158.014.316.022.479H204.6c0-.214,0-.391,0-.568,0-2.516,0-5.032,0-7.548a4.854,4.854,0,0,1,3.858-4.781,11.533,11.533,0,0,1,2.487-.126,4.9,4.9,0,0,1,4.984,5.11q0,3.707,0,7.414v.507" transform="translate(-180.218 -192.039)" fill="#12263f"/>
            <path id="Trazado_238052" data-name="Trazado 238052" d="M228.546,414.946q4.352,0,8.7,0a1.6,1.6,0,0,1,1.837,1.826q0,6.273,0,12.545a1.6,1.6,0,0,1-1.77,1.766q-8.793,0-17.587,0a1.554,1.554,0,0,1-1.337-.474,2.06,2.06,0,0,1-.457-1.116c-.032-4.315-.024-8.631-.018-12.947a1.549,1.549,0,0,1,1.657-1.6q4.486-.007,8.972,0m-.059,12a3.939,3.939,0,1,0-3.932-3.914,3.931,3.931,0,0,0,3.932,3.914" transform="translate(-198.449 -377.886)" fill="#f4a338"/>
            <path id="Trazado_238053" data-name="Trazado 238053" d="M268.658,245.64v-.507q0-3.707,0-7.414a4.9,4.9,0,0,0-4.984-5.11,11.533,11.533,0,0,0-2.487.126,4.854,4.854,0,0,0-3.858,4.781c-.006,2.516,0,5.032,0,7.548,0,.177,0,.354,0,.568H255.81c-.008-.163-.022-.321-.022-.479q0-3.729,0-7.459a6.486,6.486,0,0,1,6.66-6.659,8.851,8.851,0,0,1,3.647.458,6.146,6.146,0,0,1,4.057,5.512c.15,2.806.045,5.625.049,8.439a1.019,1.019,0,0,1-.043.195Z" transform="translate(-232.942 -210.4)" fill="url(#linear-gradient)"/>
            <path id="Trazado_238054" data-name="Trazado 238054" d="M296.227,468.976a3.939,3.939,0,1,1,3.954-3.887,3.944,3.944,0,0,1-3.954,3.887m.028-1.793a2.147,2.147,0,1,0-2.162-2.138,2.159,2.159,0,0,0,2.162,2.138" transform="translate(-266.189 -419.917)" fill="#12263f"/>
          </g>
        </g>
      </g>
      <g id="Grupo_183242" data-name="Grupo 183242" transform="translate(11303.188 -9864.704)">
        <g id="Grupo_42274-5" data-name="Grupo 42274" transform="translate(0 0)">
          <g id="Grupo_18423-5" data-name="Grupo 18423" transform="translate(0 0)">
            <g id="Grupo_18421-5" data-name="Grupo 18421">
              <g id="Grupo_18420-5" data-name="Grupo 18420">
                <g id="Grupo_18419-5" data-name="Grupo 18419">
                  <path id="Trazado_40936-5" data-name="Trazado 40936" d="M364.808,2230.811a85.093,85.093,0,1,1-85.091-85.09A85.09,85.09,0,0,1,364.808,2230.811Z" transform="translate(-194.623 -2145.721)" fill="#fff"/>
                </g>
              </g>
            </g>
            <path id="Trazado_40937-5" data-name="Trazado 40937" d="M363.489,2229.375a85.09,85.09,0,1,0-85.091,85.094A84.752,84.752,0,0,0,363.489,2229.375Z" transform="translate(-193.303 -2144.284)" fill="url(#radial-gradient)"/>
            <path id="Trazado_40938-5" data-name="Trazado 40938" d="M331.532,2217.6a64.951,64.951,0,1,0-64.951,64.952A64.712,64.712,0,0,0,331.532,2217.6Z" transform="translate(-181.231 -2132.224)" fill="none" stroke="#12263f" stroke-miterlimit="10" stroke-width="4"/>
            <g id="Grupo_18422-5" data-name="Grupo 18422" transform="translate(15.075 47.773)">
              <path id="Trazado_40939-5" data-name="Trazado 40939" d="M347.051,2164.488a85.1,85.1,0,0,1-146.506,84.738,84.832,84.832,0,0,0,146.506-84.738Z" transform="translate(-200.545 -2164.488)" fill="#eceef0"/>
            </g>
          </g>
        </g>
        <g id="Grupo_183247" data-name="Grupo 183247" transform="translate(48.106 46.533)">
          <g id="Grupo_183237" data-name="Grupo 183237" clip-path="url(#clip-path-5)">
            <path id="Trazado_238055" data-name="Trazado 238055" d="M77.6,71.72c-3.389,0-6.778.012-10.167,0a3.276,3.276,0,0,1-3.44-3.354c.111-6.134-2.041-11.443-5.563-16.353-2.3-3.2-4.518-6.481-6.528-9.87C43.84,28.549,49.281,11.867,62.226,4.458A30.475,30.475,0,0,1,77.321,0,30.314,30.314,0,0,1,95.3,6.025a27.193,27.193,0,0,1,11.536,19.338,25.26,25.26,0,0,1-3.495,16.6c-2.145,3.618-4.6,7.051-6.934,10.559-1.894,2.851-3.773,5.731-4.457,9.142a44.668,44.668,0,0,0-.735,6.262c-.14,2.486-1.368,3.8-3.851,3.8q-4.884,0-9.767,0M71.81,69.136V68.051q0-14.888,0-29.776a2.9,2.9,0,0,1,.139-1.173c1.453-3.146,2.921-6.285,4.45-9.394a1.546,1.546,0,0,1,1.152-.764c.426.018.846.485,1.238.795.131.1.17.326.249.495,1.126,2.387,2.2,4.8,3.4,7.15a7.554,7.554,0,0,1,.92,4.213c-.055.608-.008,1.226-.008,1.839q0,13.447,0,26.894c0,.256.021.511.035.818,1.365,0,2.643,0,3.92,0,1.075,0,1.219-.226,1.32-1.319a63.975,63.975,0,0,1,.766-6.583c.744-3.757,2.748-6.961,4.833-10.107,2.384-3.6,4.9-7.123,7.066-10.848A22.573,22.573,0,0,0,104.077,24.4c-2.286-12.279-13.6-21.918-26.121-21.794A27.134,27.134,0,0,0,55.426,14.077a23.608,23.608,0,0,0-4.24,19.192c.833,4.233,2.929,7.924,5.3,11.463,1.929,2.88,3.953,5.7,5.84,8.6a22.43,22.43,0,0,1,3.631,8.812c.292,1.92.412,3.867.58,5.8.049.569.1,1.148.8,1.17,1.459.048,2.92.014,4.476.014m8.9-29.375H74.435V63.989h6.279Zm-.351-2.676L77.575,31.2,74.8,37.085Zm.348,29.572H74.436v2.448h6.275Z" transform="translate(-40.409 0)" fill="#12263f"/>
            <path id="Trazado_238056" data-name="Trazado 238056" d="M427.033,102.506a40.974,40.974,0,0,0-2.607-24.629c-.406-.921-.17-1.64.577-1.954s1.4.033,1.8.962a42.461,42.461,0,0,1,3.53,19.96c-.137,2.09-.439,4.169-.668,6.277.172-.073.4-.266.582-.228a2.956,2.956,0,0,1,1.4.5,1.045,1.045,0,0,1-.062,1.524c-1.341,1.336-2.7,2.66-4.1,3.926a1.2,1.2,0,0,1-1.985-.605c-.43-1.813-.785-3.646-1.129-5.478a1.165,1.165,0,0,1,.811-1.393,1.235,1.235,0,0,1,1.573.594c.081.126.136.268.275.549" transform="translate(-356.303 -63.674)" fill="#12263f"/>
            <path id="Trazado_238057" data-name="Trazado 238057" d="M2.537,53.254c-.224.069-.47.235-.652.182A2.949,2.949,0,0,1,.6,52.851.978.978,0,0,1,.682,51.4c1.473-1.227,2.966-2.437,4.518-3.56a1.194,1.194,0,0,1,1.822.9c.271,1.792.479,3.594.673,5.4A1.179,1.179,0,0,1,6.719,55.5a1.213,1.213,0,0,1-1.487-.779.75.75,0,0,0-.37-.4c-.544,2.134-1.2,4.248-1.61,6.407A38.136,38.136,0,0,0,4.267,79.074c.284.944-.045,1.665-.815,1.871s-1.389-.231-1.671-1.186A41.182,41.182,0,0,1,2.405,53.9c.053-.151.111-.3.156-.453a.618.618,0,0,0-.024-.194" transform="translate(0 -40.014)" fill="#12263f"/>
            <path id="Trazado_238058" data-name="Trazado 238058" d="M181.605,466.413c-2.668,0-5.335-.005-8,0a1.338,1.338,0,0,1-1.48-.957,1.278,1.278,0,0,1,1.359-1.616c1.76-.018,3.521-.006,5.282-.006q5.522,0,11.043,0c.969,0,1.545.559,1.482,1.381-.058.754-.587,1.184-1.52,1.187-2.721.008-5.442,0-8.162,0" transform="translate(-144.516 -389.567)" fill="#12263f"/>
            <path id="Trazado_238059" data-name="Trazado 238059" d="M195.183,495.852c1.84,0,3.681-.006,5.521,0,.962,0,1.509.472,1.52,1.266s-.547,1.3-1.488,1.3q-5.561.012-11.122,0c-.94,0-1.5-.514-1.48-1.307s.562-1.255,1.528-1.259c1.84-.008,3.681,0,5.521,0" transform="translate(-158.01 -416.456)" fill="#12263f"/>
            <rect id="Rectángulo_60197" data-name="Rectángulo 60197" width="6.279" height="24.228" transform="translate(34.026 39.761)" fill="#4adbd1"/>
            <path id="Trazado_238060" data-name="Trazado 238060" d="M220.342,200.729h-5.564l2.776-5.887,2.789,5.887" transform="translate(-180.388 -163.644)" fill="#5573c6"/>
            <rect id="Rectángulo_60198" data-name="Rectángulo 60198" width="6.275" height="2.448" transform="translate(34.027 66.657)" fill="#f4a338"/>
            <path id="Trazado_238061" data-name="Trazado 238061" d="M132.888,88.9c.411.389.646.6.872.827a1.8,1.8,0,0,0,2.636.1c.569-.521,1.122-1.066,1.637-1.64a1.829,1.829,0,0,0-.053-2.65c-.525-.562-1.371-1.057-1.494-1.694-.113-.583.581-1.3.865-1.987a15.654,15.654,0,0,0,.671-1.963.654.654,0,0,1,.778-.583c.585.035,1.174.034,1.76.012a1.863,1.863,0,0,0,1.92-1.848,20.384,20.384,0,0,0,0-2.24,1.873,1.873,0,0,0-1.962-1.89c-.744-.025-1.674.228-2.181-.128s-.536-1.32-.82-2a11.49,11.49,0,0,0-.876-1.792.744.744,0,0,1,.176-1.146c.406-.344.768-.741,1.138-1.125a1.81,1.81,0,0,0,.09-2.647,18.809,18.809,0,0,0-1.574-1.591,1.85,1.85,0,0,0-2.768.078c-.517.5-.982,1.3-1.571,1.408-.572.1-1.262-.537-1.92-.8-.691-.277-1.4-.521-2.112-.731-.392-.115-.579-.284-.554-.716.034-.585.028-1.174.008-1.76a1.861,1.861,0,0,0-1.878-1.97,19.762,19.762,0,0,0-2.24,0,1.851,1.851,0,0,0-1.862,1.9c-.027.612.041,1.232-.026,1.838a.962.962,0,0,1-.472.658q-1.778.806-3.605,1.5a.951.951,0,0,1-.79-.121c-.478-.379-.882-.85-1.325-1.275a1.778,1.778,0,0,0-2.521-.147,15.147,15.147,0,0,0-1.858,1.868,1.789,1.789,0,0,0,.15,2.463c.529.561,1.377,1.051,1.508,1.69.119.579-.565,1.308-.849,1.99a12.51,12.51,0,0,0-.653,1.885c-.121.508-.335.719-.862.682a16.465,16.465,0,0,0-1.68-.011,1.878,1.878,0,0,0-1.945,1.906c-.032.719-.032,1.442,0,2.161a1.87,1.87,0,0,0,1.941,1.911c.613.021,1.232-.045,1.838.024a.963.963,0,0,1,.639.5c.522,1.162.963,2.361,1.489,3.522.169.372.213.6-.115.892-.44.387-.842.818-1.25,1.239a1.879,1.879,0,0,0-.032,2.776c.454.488.932.953,1.416,1.411a1.87,1.87,0,0,0,2.879-.031c.21-.2.425-.4.766-.72,0,1.174.017,2.219-.021,3.263,0,.13-.28.288-.459.367a3.93,3.93,0,0,1-3.557-.074,8.75,8.75,0,0,1-3.729-3.721,4.094,4.094,0,0,1,.725-4.876c.457-.47.288-.817.122-1.276a.906.906,0,0,0-.95-.729,4.414,4.414,0,0,1-4.282-4.411c-.017-.747-.014-1.494,0-2.241a4.414,4.414,0,0,1,4.322-4.453c.608-.023.747-.334.926-.765a.945.945,0,0,0-.118-1.208,4.375,4.375,0,0,1-.1-5.961,19.046,19.046,0,0,1,1.982-1.976,4.33,4.33,0,0,1,5.953.1c.482.46.826.249,1.274.088s.688-.33.708-.881a4.415,4.415,0,0,1,4.515-4.338q1.04-.013,2.081,0a4.416,4.416,0,0,1,4.508,4.345.768.768,0,0,0,.643.84c.43.12.769.473,1.284-.006a4.378,4.378,0,0,1,6.2.014c.589.541,1.161,1.1,1.7,1.7a4.357,4.357,0,0,1-.009,6.077c-.448.482-.241.832-.083,1.283a.85.85,0,0,0,.894.688,4.407,4.407,0,0,1,4.316,4.457,15.8,15.8,0,0,1-.148,3.184,4.185,4.185,0,0,1-4.128,3.464c-.655.016-.784.358-.979.807a.922.922,0,0,0,.145,1.2,4.369,4.369,0,0,1-.023,6.075c-.525.566-1.071,1.114-1.63,1.647a4.461,4.461,0,0,1-4.882.947,1.053,1.053,0,0,1-.5-.745c-.062-.893-.024-1.792-.024-2.913" transform="translate(-87.396 -46.896)" fill="#12263f"/>
          </g>
        </g>
      </g>
      <path id="Trazado_238062" data-name="Trazado 238062" d="M9174.373-9322v52H10024v-52" transform="translate(1373.907 -325.172)" fill="none" stroke="#12263f" stroke-width="3" stroke-dasharray="4"/>
      <path id="Trazado_238063" data-name="Trazado 238063" d="M9384.373-9322v48" transform="translate(1373.907 -325.172)" fill="none" stroke="#12263f" stroke-width="3" stroke-dasharray="4"/>
      <path id="Trazado_238064" data-name="Trazado 238064" d="M9384.373-9322v48" transform="translate(1588.721 -325.172)" fill="none" stroke="#12263f" stroke-width="3" stroke-dasharray="4"/>
      <path id="Trazado_238065" data-name="Trazado 238065" d="M9384.373-9322v48" transform="translate(1800.721 -329.172)" fill="none" stroke="#12263f" stroke-width="3" stroke-dasharray="4"/>
      <path id="Trazado_238536" data-name="Trazado 238536" d="M14.766-6.949a9.474,9.474,0,0,1-2.76,5.285A7.221,7.221,0,0,1,6.938.246,5.364,5.364,0,0,1,2.5-1.869,6.042,6.042,0,0,1,1.441-7.031l.609-3.07A9.737,9.737,0,0,1,4.74-15.393,6.916,6.916,0,0,1,9.7-17.309a5.561,5.561,0,0,1,4.541,2.133,5.959,5.959,0,0,1,1.131,5.156ZM12-10.034a4.474,4.474,0,0,0-.393-3.34,2.687,2.687,0,0,0-2.432-1.262A2.924,2.924,0,0,0,6.8-13.392a7.633,7.633,0,0,0-1.371,3.276L4.8-7.017a4.731,4.731,0,0,0,.316,3.364A2.516,2.516,0,0,0,7.465-2.391,3.122,3.122,0,0,0,9.938-3.653a7.36,7.36,0,0,0,1.453-3.282Zm8.5,3.847L19.266,0H15.891L19.3-17.062h6.422a5.033,5.033,0,0,1,3.943,1.529,4.277,4.277,0,0,1,.9,3.92A6.466,6.466,0,0,1,28.2-7.6a7.4,7.4,0,0,1-4.641,1.412Zm.527-2.637h3.059a2.848,2.848,0,0,0,2.027-.8A3.682,3.682,0,0,0,27.2-11.59a2.783,2.783,0,0,0-.229-2.068,1.936,1.936,0,0,0-1.775-.768H22.148ZM41.977-7.5H35.508l-.973,4.863h7.582L41.59,0H30.633l3.41-17.062H44.977l-.527,2.637H36.891l-.855,4.289H42.5ZM56.508,0H53.133L49.277-11.344h-.07L46.945,0H43.57l3.41-17.062h3.375L54.2-5.73h.07l2.273-11.332h3.375Z" transform="translate(10517.907 -9658.172)" fill="#12263f"/>
      <path id="Trazado_238537" data-name="Trazado 238537" d="M14.133-5.777l.07.012,3.949-11.3h3.281L15.047,0H11.918L10.863-10.863l-.07-.012L6.27,0H3.141L2.2-17.062h3.3L5.859-5.789l.059.012,4.664-11.285h2.473ZM31.7-7.5H25.23l-.973,4.863H31.84L31.313,0H20.355l3.41-17.062H34.7l-.527,2.637H26.613l-.855,4.289h6.469ZM33.293,0,36.7-17.062h5.449a6.213,6.213,0,0,1,4.09,1.2,3.343,3.343,0,0,1,.973,3.48,4.877,4.877,0,0,1-1.008,2.162,4.489,4.489,0,0,1-1.969,1.354,2.561,2.561,0,0,1,1.846,1.412,4.076,4.076,0,0,1,.217,2.49,5.738,5.738,0,0,1-2.244,3.785A7.925,7.925,0,0,1,39.48,0ZM38.18-7.547,37.2-2.637h2.813a3.04,3.04,0,0,0,1.916-.6,2.822,2.822,0,0,0,1.014-1.736,2.784,2.784,0,0,0-.129-1.952,1.715,1.715,0,0,0-1.57-.62Zm.469-2.367h2.285a3.157,3.157,0,0,0,1.863-.6,2.6,2.6,0,0,0,1-1.605A1.9,1.9,0,0,0,43.5-13.9a2.67,2.67,0,0,0-1.875-.521H39.551Z" transform="translate(10727.907 -9658.172)" fill="#12263f"/>
      <path id="Trazado_238538" data-name="Trazado 238538" d="M9.75-3.68H4.406L2.6,0H-.785L8.051-17.062H11.5L13.477,0h-3.4ZM5.719-6.363H9.5l-.574-6.4-.07-.012Zm13.91.176L18.4,0H15.023l3.41-17.062h6.422A5.033,5.033,0,0,1,28.8-15.533a4.277,4.277,0,0,1,.9,3.92A6.466,6.466,0,0,1,27.328-7.6a7.4,7.4,0,0,1-4.641,1.412Zm.527-2.637h3.059a2.848,2.848,0,0,0,2.027-.8,3.682,3.682,0,0,0,1.09-1.969,2.783,2.783,0,0,0-.229-2.068,1.936,1.936,0,0,0-1.775-.768H21.281ZM34.371-6.187,33.141,0H29.766l3.41-17.062H39.6a5.033,5.033,0,0,1,3.943,1.529,4.277,4.277,0,0,1,.9,3.92A6.466,6.466,0,0,1,42.07-7.6,7.4,7.4,0,0,1,37.43-6.187ZM34.9-8.824h3.059a2.848,2.848,0,0,0,2.027-.8,3.682,3.682,0,0,0,1.09-1.969,2.783,2.783,0,0,0-.229-2.068,1.936,1.936,0,0,0-1.775-.768H36.023ZM48.41-2.637h6.984L54.867,0H44.508l3.41-17.062h3.375ZM60.293,0H56.918l3.41-17.062H63.7ZM76.676-5.719l.023.07a8.517,8.517,0,0,1-2.4,4.371A6.421,6.421,0,0,1,69.82.246,5.37,5.37,0,0,1,65.432-1.8a5.828,5.828,0,0,1-1.049-5.068l.68-3.4a9.645,9.645,0,0,1,2.566-5.2,6.5,6.5,0,0,1,4.711-1.84,5.575,5.575,0,0,1,4.313,1.664,5.206,5.206,0,0,1,1.172,4.43l-.023.059H74.5a3.824,3.824,0,0,0-.352-2.607,2.33,2.33,0,0,0-2.121-.908,2.828,2.828,0,0,0-2.232,1.223,7.147,7.147,0,0,0-1.354,3.155l-.691,3.419A4.959,4.959,0,0,0,67.951-3.6a2.182,2.182,0,0,0,2.1,1.212,2.8,2.8,0,0,0,2.1-.812,5.681,5.681,0,0,0,1.248-2.517ZM87.094-3.68H81.75L79.945,0H76.559l8.836-17.062H88.84L90.82,0h-3.4ZM83.063-6.363h3.785l-.574-6.4-.07-.012ZM105.2-14.426H100.8L97.922,0H94.547L97.43-14.426H93.059l.527-2.637h12.141ZM107.684,0h-3.375l3.41-17.062h3.375Zm17.449-6.949a9.474,9.474,0,0,1-2.76,5.285A7.221,7.221,0,0,1,117.3.246a5.364,5.364,0,0,1-4.441-2.115,6.042,6.042,0,0,1-1.055-5.162l.609-3.07a9.737,9.737,0,0,1,2.689-5.291,6.916,6.916,0,0,1,4.963-1.916,5.561,5.561,0,0,1,4.541,2.133,5.959,5.959,0,0,1,1.131,5.156Zm-2.766-3.085a4.474,4.474,0,0,0-.393-3.34,2.687,2.687,0,0,0-2.432-1.262,2.924,2.924,0,0,0-2.379,1.245,7.633,7.633,0,0,0-1.371,3.276l-.621,3.1a4.731,4.731,0,0,0,.316,3.364,2.516,2.516,0,0,0,2.344,1.262A3.122,3.122,0,0,0,120.3-3.653a7.36,7.36,0,0,0,1.453-3.282ZM139.2,0H135.82l-3.855-11.344h-.07L129.633,0h-3.375l3.41-17.062h3.375L136.887-5.73h.07l2.273-11.332h3.375Z" transform="translate(10898.907 -9658.172)" fill="#12263f"/>
      <path id="Trazado_238539" data-name="Trazado 238539" d="M9.773-4.144a1.9,1.9,0,0,0-.334-1.748,6.711,6.711,0,0,0-2.2-1.268A9.6,9.6,0,0,1,3.316-9.416a3.719,3.719,0,0,1-.809-3.475,4.893,4.893,0,0,1,2.168-3.27,7.463,7.463,0,0,1,4.2-1.148A5.668,5.668,0,0,1,12.955-15.9a3.81,3.81,0,0,1,.943,3.82l-.035.07h-3.27a2.189,2.189,0,0,0-.387-1.934,2.316,2.316,0,0,0-1.863-.727,2.672,2.672,0,0,0-1.576.51,2.015,2.015,0,0,0-.873,1.248,1.666,1.666,0,0,0,.352,1.67A9.419,9.419,0,0,0,8.824-9.937a8.454,8.454,0,0,1,3.645,2.221,4.013,4.013,0,0,1,.68,3.557A4.856,4.856,0,0,1,10.975-.85,7.781,7.781,0,0,1,6.727.246,7.185,7.185,0,0,1,2.4-1.031Q.633-2.309,1.23-4.98l.023-.07H4.535q-.3,1.505.545,2.083a3.788,3.788,0,0,0,2.174.578,2.855,2.855,0,0,0,1.605-.5A2,2,0,0,0,9.773-4.144ZM25.7-7.5H19.23l-.973,4.863H25.84L25.313,0H14.355l3.41-17.062H28.7l-.527,2.637H20.613l-.855,4.289h6.469ZM40.5-5.719l.023.07a8.517,8.517,0,0,1-2.4,4.371A6.421,6.421,0,0,1,33.645.246,5.37,5.37,0,0,1,29.256-1.8a5.828,5.828,0,0,1-1.049-5.068l.68-3.4a9.645,9.645,0,0,1,2.566-5.2,6.5,6.5,0,0,1,4.711-1.84,5.575,5.575,0,0,1,4.313,1.664,5.206,5.206,0,0,1,1.172,4.43l-.023.059h-3.3a3.824,3.824,0,0,0-.352-2.607,2.33,2.33,0,0,0-2.121-.908,2.828,2.828,0,0,0-2.232,1.223,7.147,7.147,0,0,0-1.354,3.155L31.57-6.875A4.959,4.959,0,0,0,31.775-3.6a2.182,2.182,0,0,0,2.1,1.212,2.8,2.8,0,0,0,2.1-.812A5.681,5.681,0,0,0,37.23-5.719ZM57.762-17.062,55.5-5.742a7.006,7.006,0,0,1-2.654,4.529,8.348,8.348,0,0,1-5,1.459,5.64,5.64,0,0,1-4.236-1.582,4.649,4.649,0,0,1-.979-4.406l2.262-11.32h3.387L46.02-5.751a3.121,3.121,0,0,0,.27,2.582,2.539,2.539,0,0,0,2.086.779,3.6,3.6,0,0,0,2.379-.849,4.245,4.245,0,0,0,1.359-2.512l2.262-11.311ZM61.887-6.82,60.527,0H57.141l3.41-17.062h6.059a5.326,5.326,0,0,1,3.914,1.348,3.821,3.821,0,0,1,.891,3.691A5.02,5.02,0,0,1,70.3-9.662a5.755,5.755,0,0,1-2.215,1.494,2.853,2.853,0,0,1,1.705,1.523,4.2,4.2,0,0,1,.17,2.5L69.7-2.895a6.245,6.245,0,0,0-.123,1.506,1.683,1.683,0,0,0,.393,1.143L69.926,0h-3.48a1.622,1.622,0,0,1-.322-1.236,10.365,10.365,0,0,1,.217-1.682l.234-1.207a2.646,2.646,0,0,0-.193-2.021,1.8,1.8,0,0,0-1.6-.674Zm.527-2.637h2.625A3.037,3.037,0,0,0,67-10.084a2.988,2.988,0,0,0,1.031-1.787,2.371,2.371,0,0,0-.234-1.9,1.988,1.988,0,0,0-1.711-.656H63.41ZM75.574,0H72.2l3.41-17.062h3.375ZM92.285-14.426H87.891L85.008,0H81.633l2.883-14.426H80.145l.527-2.637H92.813Zm6.621,4.98.07.012,4.852-7.629h3.691L99.9-6.012,98.707,0H95.344l1.242-6.234L93.434-17.062h3.7Z" transform="translate(11129.907 -9658.172)" fill="#12263f"/>
      <path id="Trazado_238540" data-name="Trazado 238540" d="M5.1-6.187,3.867,0H.492L3.9-17.062h6.422a5.033,5.033,0,0,1,3.943,1.529,4.277,4.277,0,0,1,.9,3.92A6.466,6.466,0,0,1,12.8-7.6,7.4,7.4,0,0,1,8.156-6.187Zm.527-2.637H8.684a2.848,2.848,0,0,0,2.027-.8A3.682,3.682,0,0,0,11.8-11.59a2.783,2.783,0,0,0-.229-2.068A1.936,1.936,0,0,0,9.8-14.426H6.75Zm14.355,2L18.621,0H15.234l3.41-17.062H24.7a5.326,5.326,0,0,1,3.914,1.348,3.821,3.821,0,0,1,.891,3.691,5.02,5.02,0,0,1-1.113,2.361A5.755,5.755,0,0,1,26.18-8.168a2.853,2.853,0,0,1,1.705,1.523,4.2,4.2,0,0,1,.17,2.5L27.8-2.895a6.245,6.245,0,0,0-.123,1.506,1.683,1.683,0,0,0,.393,1.143L28.02,0h-3.48a1.622,1.622,0,0,1-.322-1.236,10.365,10.365,0,0,1,.217-1.682l.234-1.207a2.646,2.646,0,0,0-.193-2.021,1.8,1.8,0,0,0-1.6-.674Zm.527-2.637h2.625a3.037,3.037,0,0,0,1.957-.627,2.988,2.988,0,0,0,1.031-1.787,2.371,2.371,0,0,0-.234-1.9,1.988,1.988,0,0,0-1.711-.656H21.5ZM44.391-6.949a9.474,9.474,0,0,1-2.76,5.285A7.221,7.221,0,0,1,36.563.246a5.364,5.364,0,0,1-4.441-2.115,6.042,6.042,0,0,1-1.055-5.162l.609-3.07a9.737,9.737,0,0,1,2.689-5.291,6.916,6.916,0,0,1,4.963-1.916,5.561,5.561,0,0,1,4.541,2.133A5.959,5.959,0,0,1,45-10.02Zm-2.766-3.085a4.474,4.474,0,0,0-.393-3.34A2.687,2.687,0,0,0,38.8-14.637a2.924,2.924,0,0,0-2.379,1.245,7.633,7.633,0,0,0-1.371,3.276l-.621,3.1a4.731,4.731,0,0,0,.316,3.364A2.516,2.516,0,0,0,37.09-2.391a3.122,3.122,0,0,0,2.473-1.262,7.36,7.36,0,0,0,1.453-3.282Zm13.9-7.028h3.363L56.5-5.121a6.446,6.446,0,0,1-2.285,4A6.53,6.53,0,0,1,50.086.246a4.813,4.813,0,0,1-3.633-1.324,3.949,3.949,0,0,1-.715-3.82l.023-.059h3.293a2.537,2.537,0,0,0,.146,2,1.677,1.677,0,0,0,1.412.566,2.168,2.168,0,0,0,1.518-.744,3.835,3.835,0,0,0,1-2ZM69.75-7.5H63.281l-.973,4.863h7.582L69.363,0H58.406l3.41-17.062H72.75l-.527,2.637H64.664l-.855,4.289h6.469Zm14.8,1.781.023.07a8.517,8.517,0,0,1-2.4,4.371A6.421,6.421,0,0,1,77.7.246,5.37,5.37,0,0,1,73.307-1.8a5.828,5.828,0,0,1-1.049-5.068l.68-3.4a9.645,9.645,0,0,1,2.566-5.2,6.5,6.5,0,0,1,4.711-1.84,5.575,5.575,0,0,1,4.313,1.664,5.206,5.206,0,0,1,1.172,4.43l-.023.059h-3.3a3.824,3.824,0,0,0-.352-2.607,2.33,2.33,0,0,0-2.121-.908,2.828,2.828,0,0,0-2.232,1.223,7.147,7.147,0,0,0-1.354,3.155l-.691,3.419A4.959,4.959,0,0,0,75.826-3.6a2.182,2.182,0,0,0,2.1,1.212,2.8,2.8,0,0,0,2.1-.812,5.681,5.681,0,0,0,1.248-2.517Zm14.7-8.707H94.852L91.969,0H88.594l2.883-14.426H87.105l.527-2.637H99.773Z" transform="translate(11346.907 -9658.172)" fill="#12263f"/>
    </g>
    <path id="Trazado_238541" data-name="Trazado 238541" d="M29.783-15.61a19.742,19.742,0,0,1-1.707,8.468,12.856,12.856,0,0,1-4.885,5.615A13.514,13.514,0,0,1,15.9.449,13.605,13.605,0,0,1,8.647-1.5,12.982,12.982,0,0,1,3.706-7.086a19.177,19.177,0,0,1-1.774-8.344v-1.617a19.638,19.638,0,0,1,1.741-8.5,12.961,12.961,0,0,1,4.919-5.638,13.531,13.531,0,0,1,7.266-1.965,13.53,13.53,0,0,1,7.266,1.965,12.961,12.961,0,0,1,4.919,5.638,19.583,19.583,0,0,1,1.741,8.479Zm-6.828-1.482q0-5.144-1.842-7.816a6,6,0,0,0-5.256-2.673,6,6,0,0,0-5.233,2.639Q8.782-22.3,8.76-17.205v1.595q0,5.009,1.842,7.771a5.986,5.986,0,0,0,5.3,2.763,5.933,5.933,0,0,0,5.211-2.662q1.819-2.662,1.842-7.76Zm37.2,7.659,4.4-23.27h6.716L64.014,0H57.23L51.907-21.877,46.584,0H39.8L32.546-32.7h6.716L43.687-9.479,49.077-32.7h5.705ZM92.4-6.738H80.59L78.344,0H71.179L83.353-32.7H89.6L101.838,0H94.673Zm-10-5.458h8.176l-4.11-12.241ZM121.851-8.58a3.458,3.458,0,0,0-1.348-2.931,17.676,17.676,0,0,0-4.852-2.156A34.392,34.392,0,0,1,110.1-15.9q-5.57-3.01-5.57-8.108a7.9,7.9,0,0,1,1.494-4.728,9.743,9.743,0,0,1,4.29-3.246,16.147,16.147,0,0,1,6.278-1.168,14.7,14.7,0,0,1,6.244,1.269A9.943,9.943,0,0,1,127.1-28.3a9.374,9.374,0,0,1,1.516,5.256h-6.738a4.41,4.41,0,0,0-1.415-3.493,5.817,5.817,0,0,0-3.976-1.247,6.215,6.215,0,0,0-3.841,1.044,3.294,3.294,0,0,0-1.37,2.751,3.155,3.155,0,0,0,1.606,2.673,18.144,18.144,0,0,0,4.728,2.021q5.75,1.729,8.378,4.29a8.544,8.544,0,0,1,2.628,6.379,7.87,7.87,0,0,1-3.212,6.66Q122.188.449,116.752.449a16.7,16.7,0,0,1-6.873-1.381,10.876,10.876,0,0,1-4.728-3.785,9.692,9.692,0,0,1-1.628-5.57h6.761q0,5.413,6.469,5.413a6.293,6.293,0,0,0,3.751-.977A3.179,3.179,0,0,0,121.851-8.58Zm18.059-2.942V0h-6.738V-32.7h12.758a14.76,14.76,0,0,1,6.48,1.348,9.931,9.931,0,0,1,4.3,3.83,10.678,10.678,0,0,1,1.5,5.649,9.39,9.39,0,0,1-3.291,7.581q-3.291,2.774-9.108,2.774Zm0-5.458h6.02a5.919,5.919,0,0,0,4.077-1.258,4.575,4.575,0,0,0,1.4-3.594,5.394,5.394,0,0,0-1.415-3.886,5.286,5.286,0,0,0-3.908-1.527h-6.177Z" transform="translate(10889 -9540)" fill="#12263f"/>
  </g>
</svg>
