<svg xmlns="http://www.w3.org/2000/svg" xmlns:xlink="http://www.w3.org/1999/xlink" width="89.349" height="89.35" viewBox="0 0 89.349 89.35">
  <defs>
    <clipPath id="clip-path">
      <rect id="Rectángulo_60297" data-name="Rectángulo 60297" width="70.483" height="42.708" fill="#12263f"/>
    </clipPath>
  </defs>
  <g id="Grupo_183660" data-name="Grupo 183660" transform="translate(-806.429 -4291.513)">
    <ellipse id="Elipse_6019" data-name="Elipse 6019" cx="44.675" cy="44.675" rx="44.675" ry="44.675" transform="translate(806.429 4291.513)" fill="#f4a338"/>
    <g id="Grupo_183433" data-name="Grupo 183433" transform="translate(815.903 4312.17)">
      <g id="Grupo_183432" data-name="Grupo 183432" clip-path="url(#clip-path)">
        <path id="Trazado_238361" data-name="Trazado 238361" d="M52.142,38.507q-13,0-26,0c-2.612,0-3.221-.6-3.221-3.145q0-16.154,0-32.307c0-2.4.658-3.053,3.058-3.053Q52.043,0,78.108,0c2.507,0,3.152.636,3.152,3.086q0,16.218,0,32.436c0,2.31-.674,2.983-2.988,2.984q-13.064,0-26.129,0M79.04,2.288H25.187V36.256H79.04Z" transform="translate(-17.015 0)" fill="#12263f"/>
        <path id="Trazado_238362" data-name="Trazado 238362" d="M35.322,155.368q-16.089,0-32.177.013A2.787,2.787,0,0,1,.3,153.827c-.668-1.384-.218-2.072,1.369-2.059q10.3.079,20.592.176a22.359,22.359,0,0,1,2.7.061,6.754,6.754,0,0,1,1.53.647,3.7,3.7,0,0,0,1.251.436c5.063.03,10.125.022,15.188.01.328,0,.839-.005.954-.2.707-1.169,1.826-.919,2.865-.929,7.336-.074,14.672-.153,22.008-.18.6,0,1.694.324,1.717.573a2.729,2.729,0,0,1-.587,2.059,3.9,3.9,0,0,1-2.386.906c-10.725.057-21.451.038-32.177.038" transform="translate(0 -112.673)" fill="#12263f"/>
        <path id="Trazado_238363" data-name="Trazado 238363" d="M70.031,56.8q-9.916,0-19.832,0c-2.21,0-2.949-.733-2.954-2.91,0-2.447-.013-4.894,0-7.34a2.33,2.33,0,0,1,2.6-2.646q20.283-.017,40.566,0a2.385,2.385,0,0,1,2.658,2.619c.031,2.532.026,5.065,0,7.6a2.363,2.363,0,0,1-2.7,2.677q-10.174.017-20.347,0M70.2,44.627q-10.044,0-20.087,0c-1.666,0-2.138.474-2.146,2.144q-.019,3.605,0,7.211c.008,1.622.464,2.125,2.041,2.126q20.152.018,40.3,0c1.537,0,2.03-.558,2.037-2.154.01-2.232,0-4.464,0-6.7,0-2.267-.36-2.635-2.578-2.636q-9.786,0-19.572,0" transform="translate(-35.071 -32.586)" fill="#12263f"/>
        <path id="Trazado_238364" data-name="Trazado 238364" d="M121.623,110.626l-3.982-3.53,1.493-1.469,2.3,2.5,6.955-5.212,1.258,1.652-8.02,6.058" transform="translate(-87.337 -76.405)" fill="#12263f"/>
        <path id="Trazado_238366" data-name="Trazado 238366" d="M129.567,60.157l2.12,1.024-.664,1.058-1.941-1.247a10.447,10.447,0,0,1,.086,1.675c-.028.248-.321.465-.494.7-.217-.233-.568-.44-.62-.7a8.073,8.073,0,0,1,.051-1.677l-1.9,1.274-.662-1.081,2.147-1.034-2.1-.993.565-1.129,1.9,1.235v-2.2H129.2c-.036.753-.067,1.413-.107,2.25l1.887-1.242.734.978-2.151,1.117" transform="translate(-93.204 -42.357)" fill="#12263f"/>
        <path id="Trazado_238367" data-name="Trazado 238367" d="M161.061,60.761l-1.946,1.244-.623-1.06,2.114-1.033-2.065-1.02.522-1.116L160.989,59V56.8l1.075-.074v2.291l1.847-1.186.759.981-2.163,1.08,2.079,1.045-.6,1.067-1.951-1.246a8.289,8.289,0,0,1,.064,1.667c-.044.262-.4.471-.618.7-.174-.232-.468-.449-.5-.7a10.47,10.47,0,0,1,.073-1.674" transform="translate(-117.665 -42.117)" fill="#12263f"/>
        <path id="Trazado_238368" data-name="Trazado 238368" d="M98.895,59.158,96.746,60.2l2.129,1.028L98.224,62.3l-1.965-1.268A8.269,8.269,0,0,1,96.37,62.7c-.037.266-.385.488-.593.73-.188-.222-.5-.426-.537-.668a10.022,10.022,0,0,1,.067-1.682L93.3,62.338c-.987-1.793,1.014-1.4,1.386-2.239l-1.907-.891.578-1.131,1.821,1.2V57.132H96.43c-.058.727-.108,1.362-.179,2.252l1.961-1.291.682,1.065" transform="translate(-68.88 -42.415)" fill="#12263f"/>
        <path id="Trazado_238370" data-name="Trazado 238370" d="M98.895,59.158,96.746,60.2l2.129,1.028L98.224,62.3l-1.965-1.268A8.269,8.269,0,0,1,96.37,62.7c-.037.266-.385.488-.593.73-.188-.222-.5-.426-.537-.668a10.022,10.022,0,0,1,.067-1.682L93.3,62.338c-.987-1.793,1.014-1.4,1.386-2.239l-1.907-.891.578-1.131,1.821,1.2V57.132H96.43c-.058.727-.108,1.362-.179,2.252l1.961-1.291.682,1.065" transform="translate(-77.32 -42.415)" fill="#12263f"/>
        <path id="Trazado_238369" data-name="Trazado 238369" d="M193.875,59.085c-.058-.88-.1-1.515-.15-2.276l1.15-.09v2.288l1.86-1.2.671,1.016-2.09,1.083,2.029,1-.535,1.151-1.9-1.274a6.815,6.815,0,0,1-.025,1.482c-.078.315-.39.572-.6.854a3.448,3.448,0,0,1-.49-.93,7.4,7.4,0,0,1,.055-1.481l-1.9,1.3-.717-1.058,2.143-1.032L191.3,58.843l.614-1.075,1.963,1.318" transform="translate(-141.979 -42.109)" fill="#12263f"/>
      </g>
    </g>
  </g>
</svg>
