<svg xmlns="http://www.w3.org/2000/svg" xmlns:xlink="http://www.w3.org/1999/xlink" width="89.349" height="89.35" viewBox="0 0 89.349 89.35">
  <defs>
    <clipPath id="clip-path">
      <rect id="Rectángulo_60298" data-name="Rectángulo 60298" width="43.969" height="60.751" transform="translate(0 0)" fill="#12263f"/>
    </clipPath>
  </defs>
  <g id="Grupo_183661" data-name="Grupo 183661" transform="translate(-1121.429 -4291.513)">
    <ellipse id="Elipse_6326" data-name="Elipse 6326" cx="44.675" cy="44.675" rx="44.675" ry="44.675" transform="translate(1121.429 4291.513)" fill="#4adbd1"/>
    <g id="Grupo_183434" data-name="Grupo 183434" transform="translate(1144.075 4309.394)">
      <g id="Grupo_183434-2" data-name="Grupo 183434" transform="translate(0 -0.004)" clip-path="url(#clip-path)">
        <path id="Trazado_238371" data-name="Trazado 238371" d="M.012,27.147Q.012,14.313,0,1.478A1.413,1.413,0,0,1,1.481,0Q21.99.02,42.5.008a1.313,1.313,0,0,1,1.469,1.456q0,25.669,0,51.338a1.326,1.326,0,0,1-1.474,1.479c-2,0-4,0-6-.005-.227,0-.29.056-.288.285.01,1.6.008,3.191,0,4.787a1.308,1.308,0,0,1-2.166,1.067c-1.765-1.415-3.536-2.823-5.294-4.246a.393.393,0,0,0-.606,0c-1.763,1.431-3.541,2.845-5.316,4.262A1.294,1.294,0,0,1,20.7,59.406c0-1.6,0-3.21.008-4.815,0-.251-.062-.317-.315-.317q-9.464.011-18.927.009a1.39,1.39,0,0,1-1.2-.533,1.345,1.345,0,0,1-.25-.852q.006-4.994,0-9.987V27.147M2.6,27.134V44.028q0,3.7,0,7.4c0,.157-.015.264.215.264q8.832-.011,17.663,0c.184,0,.227-.052.226-.23-.007-1.642,0-3.283,0-4.925a.631.631,0,0,0-.089-.336,3.2,3.2,0,0,1-.23-3.024.329.329,0,0,0-.073-.41,3.292,3.292,0,0,1,.926-5.211.291.291,0,0,0,.19-.333,3.286,3.286,0,0,1,4-3.429.334.334,0,0,0,.406-.151,3.266,3.266,0,0,1,5.246.014.309.309,0,0,0,.386.139,2.942,2.942,0,0,1,1.414-.024,3.307,3.307,0,0,1,2.6,3.385.38.38,0,0,0,.23.427,3.29,3.29,0,0,1,.872,5.2.278.278,0,0,0-.071.356,3.2,3.2,0,0,1-.2,3.026.685.685,0,0,0-.09.364c0,1.642.005,3.283,0,4.925,0,.2.062.235.246.234,1.541-.007,3.081-.01,4.622,0,.248,0,.314-.057.314-.311q-.01-24.24,0-48.48c0-.258-.072-.31-.317-.31q-19.08.009-38.16,0c-.274,0-.321.075-.321.331Q2.6,15.028,2.6,27.134M32.89,37.473c0-.174,0-.348,0-.522a.626.626,0,0,0-.81-.642c-.224.045-.444.11-.668.153a1.926,1.926,0,0,1-2.021-.741c-.152-.195-.288-.4-.447-.592a.6.6,0,0,0-.973-.019c-.163.184-.3.395-.448.59a1.927,1.927,0,0,1-1.632.809,6.059,6.059,0,0,1-1.05-.194.636.636,0,0,0-.837.692c0,.266.024.531.027.8a1.889,1.889,0,0,1-1.055,1.764c-.207.117-.427.212-.633.33a.662.662,0,0,0-.182,1.07c.16.188.341.359.5.545a1.911,1.911,0,0,1,.483,1.573,5.048,5.048,0,0,1-.406,1.132.672.672,0,0,0,.576.978c.154.02.309.04.464.055a1.983,1.983,0,0,1,1.854,1.534c.054.184.1.371.16.553a.63.63,0,0,0,1,.362c.233-.145.453-.313.694-.444a1.9,1.9,0,0,1,2.007.051c.188.113.364.245.549.364a.637.637,0,0,0,1.061-.388c.076-.244.134-.5.225-.734a1.879,1.879,0,0,1,1.48-1.248c.251-.048.508-.072.762-.105a.665.665,0,0,0,.579-.955c-.083-.222-.19-.436-.276-.657a1.905,1.905,0,0,1,.336-2.052c.13-.154.272-.3.411-.444a.716.716,0,0,0-.22-1.275c-.065-.034-.129-.07-.2-.1a1.986,1.986,0,0,1-1.321-2.241m.712,10.7-.044,0a.556.556,0,0,0-.033.065A3.289,3.289,0,0,1,28.6,49.817a.257.257,0,0,0-.338.016,3.281,3.281,0,0,1-4.9-1.6c-.013-.033,0-.1-.067-.089v8.577c.07-.049.114-.077.154-.109l4.056-3.242a1.312,1.312,0,0,1,1.863-.013q1.471,1.174,2.939,2.353c.418.334.838.665,1.29,1.024Z" transform="translate(0 0.003)" fill="#12263f"/>
        <path id="Trazado_238372" data-name="Trazado 238372" d="M177.234,307.814q-6.311,0-12.623.006c-.257,0-.315-.071-.309-.316.017-.678.012-1.357,0-2.035,0-.184.034-.249.236-.249q12.706.008,25.411,0c.189,0,.223.061.221.232-.009.706-.014,1.412,0,2.118.005.219-.068.248-.262.248q-6.339-.008-12.678,0" transform="translate(-155.258 -288.422)" fill="#12263f"/>
        <path id="Trazado_238373" data-name="Trazado 238373" d="M175.9,166.873q-5.667,0-11.335.006c-.242,0-.305-.056-.3-.3.019-.669.021-1.339,0-2.008-.009-.258.078-.294.308-.294,2.6.008,5.191,0,7.786,0q7.442,0,14.884-.006c.255,0,.321.067.314.317-.018.66-.017,1.321,0,1.981.006.234-.043.3-.294.3q-5.681-.015-11.362-.007" transform="translate(-155.228 -155.236)" fill="#12263f"/>
        <path id="Trazado_238374" data-name="Trazado 238374" d="M173.993,448.674c-3.127,0-6.253,0-9.38.007-.261,0-.311-.077-.306-.317.016-.678.012-1.357,0-2.035,0-.184.034-.25.237-.25q9.462.009,18.925,0c.215,0,.257.068.254.265-.011.688-.013,1.376,0,2.063,0,.214-.05.273-.27.272q-4.731-.011-9.463-.005" transform="translate(-155.264 -421.526)" fill="#12263f"/>
        <path id="Trazado_238375" data-name="Trazado 238375" d="M168.15,589.7c-1.191,0-2.382,0-3.573,0-.2,0-.285-.033-.279-.264.017-.705.012-1.411,0-2.116,0-.167.036-.215.21-.214q3.669.009,7.338,0c.182,0,.227.051.224.228-.01.705-.014,1.411,0,2.116,0,.22-.075.251-.268.25-1.218-.008-2.437,0-3.655,0" transform="translate(-155.254 -554.796)" fill="#12263f"/>
      </g>
    </g>
  </g>
</svg>
