<svg xmlns="http://www.w3.org/2000/svg" xmlns:xlink="http://www.w3.org/1999/xlink" width="126" height="126" viewBox="0 0 126 126">
  <defs>
    <filter id="Elipse_6216" x="0" y="0" width="126" height="126" filterUnits="userSpaceOnUse">
      <feOffset dy="3" input="SourceAlpha"/>
      <feGaussianBlur stdDeviation="3" result="blur"/>
      <feFlood flood-opacity="0.161"/>
      <feComposite operator="in" in2="blur"/>
      <feComposite in="SourceGraphic"/>
    </filter>
    <clipPath id="clip-path">
      <rect id="Rectángulo_58342" data-name="Rectángulo 58342" width="67" height="73" transform="translate(0.174 -0.392)" fill="#12263f"/>
    </clipPath>
  </defs>
  <g id="Grupo_183598" data-name="Grupo 183598" transform="translate(-190 -3898.332)">
    <g transform="matrix(1, 0, 0, 1, 190, 3898.33)" filter="url(#Elipse_6216)">
      <circle id="Elipse_6216-2" data-name="Elipse 6216" cx="54" cy="54" r="54" transform="translate(9 6)" fill="#fff"/>
    </g>
    <g id="Grupo_180445" data-name="Grupo 180445" transform="translate(221.826 3919.1)">
      <g id="Grupo_180444" data-name="Grupo 180444" clip-path="url(#clip-path)">
        <path id="Trazado_231953" data-name="Trazado 231953" d="M258.9,13.337q-1.254,1.135-2.507,2.27a2.414,2.414,0,0,0-.058,2.859c.6.579,1.194,1.163,1.807,1.726a1.336,1.336,0,0,1,.357,1.7q-.768,1.684-1.5,3.384a1.286,1.286,0,0,1-1.367.856,17.162,17.162,0,0,1-2.035-.171,2,2,0,0,0-1.951.637,1.9,1.9,0,0,0-.707,1.767c.094.645.035,1.311.072,1.966a1.415,1.415,0,0,1-1.025,1.565q-1.7.622-3.384,1.3a1.332,1.332,0,0,1-1.675-.456q-.8-.959-1.624-1.9a2.4,2.4,0,0,0-2.857-.068c-.579.6-1.162,1.194-1.726,1.808a1.34,1.34,0,0,1-1.7.363q-1.685-.766-3.384-1.5a1.288,1.288,0,0,1-.862-1.364,16.015,16.015,0,0,1,.16-1.96,2.089,2.089,0,0,0-.672-2.085,1.822,1.822,0,0,0-1.638-.657,21.031,21.031,0,0,1-2.193.073,1.281,1.281,0,0,1-1.351-.88c-.459-1.2-.91-2.4-1.383-3.595a1.261,1.261,0,0,1,.414-1.552c.65-.56,1.311-1.108,1.956-1.674a2.41,2.41,0,0,0,.077-2.857c-.617-.6-1.232-1.2-1.86-1.781a1.3,1.3,0,0,1-.321-1.641q.78-1.721,1.539-3.451a1.266,1.266,0,0,1,1.4-.8c.855.072,1.709.152,2.565.207a2.415,2.415,0,0,0,2.075-2.047c-.03-.833-.051-1.666-.076-2.5a1.318,1.318,0,0,1,.937-1.386c1.206-.474,2.4-.99,3.593-1.488h.909q1.133,1.254,2.267,2.508a2.424,2.424,0,0,0,2.858.06c.6-.617,1.193-1.233,1.779-1.86a1.274,1.274,0,0,1,1.574-.34c1.174.519,2.343,1.049,3.517,1.568a1.251,1.251,0,0,1,.8,1.326,12.571,12.571,0,0,1-.148,1.884,2.183,2.183,0,0,0,.709,2.216,1.766,1.766,0,0,0,1.583.6,17.919,17.919,0,0,1,1.89-.065c1.129-.018,1.381.166,1.8,1.215.446,1.109.914,2.208,1.373,3.312ZM231.025,22.9c1.146-.357,2.094.3,2.879,1.339a.537.537,0,0,0,.1.11,3.635,3.635,0,0,1,1.407,3.848c-.2,1.278-.083,1.251,1.128,1.861.627.316,1.07.32,1.46-.286,1.083-1.684,2.633-2.105,4.556-1.891a2.919,2.919,0,0,1,2.457,1.17,10.492,10.492,0,0,0,1.082,1.265c.109.119.311.291.409.258a7.06,7.06,0,0,0,1.864-.787c.215-.155.157-.807.092-1.212A3.97,3.97,0,0,1,250.04,24.7a3.978,3.978,0,0,1,3.413-1.235c1.658.212,1.653.089,2.316-1.451a.674.674,0,0,0-.212-.907,16.746,16.746,0,0,1-1.578-1.525,2.058,2.058,0,0,1-.5-1.115,14.377,14.377,0,0,1,.057-2.8,2.906,2.906,0,0,1,.7-1.412,17.27,17.27,0,0,1,1.585-1.4c.139-.125.348-.35.312-.459a6.781,6.781,0,0,0-.784-1.865c-.155-.215-.8-.153-1.211-.1a4.072,4.072,0,0,1-3.829-1.514,4.182,4.182,0,0,1-1.256-3.779c.182-1.29.077-1.259-1.125-1.871-.63-.321-1.078-.313-1.463.288-1.1,1.724-2.694,2.113-4.632,1.887A2.789,2.789,0,0,1,239.5,4.346a11.579,11.579,0,0,0-1.079-1.267c-.114-.128-.3-.349-.387-.321a8.621,8.621,0,0,0-1.882.752c-.195.12-.165.673-.165,1.029,0,2.991.309,2.087-1.689,4.187a3.628,3.628,0,0,1-3.367,1.136c-1.55-.17-1.54-.08-2.185,1.325-.211.46-.233.807.217,1.1a4.487,4.487,0,0,1,2.011,5.014c-.022.123.026.269-.023.375a5.851,5.851,0,0,1-.727,1.412,11.155,11.155,0,0,1-1.6,1.39.617.617,0,0,0-.2.836c.606,1.621.595,1.625,2.592,1.592" transform="translate(-191.323 -0.001)" fill="#12263f"/>
        <path id="Trazado_231954" data-name="Trazado 231954" d="M21.086,111.583H19.927q-6.856,0-13.711,0A6.015,6.015,0,0,1,0,105.375Q0,86.737,0,68.1a6.009,6.009,0,0,1,6.2-6.214q12.84-.006,25.68,0h.79V64.3H6.606c-2.751,0-4.186,1.445-4.186,4.213q0,15,0,30v.888H60.588V84.96h2.439v.786q0,9.774,0,19.547a6.023,6.023,0,0,1-6.284,6.289q-6.969.005-13.939,0h-.94c.424,1,.809,1.926,1.2,2.845.376.88.8,1.744,1.124,2.642a.774.774,0,0,0,.879.59c1.54-.026,3.08-.017,4.621-.008a3.632,3.632,0,1,1-.031,7.264q-18.143.008-36.286,0a3.633,3.633,0,1,1,.04-7.265c1.54-.006,3.081.015,4.621-.018a.9.9,0,0,0,.689-.363c.8-1.767,1.548-3.556,2.308-5.34a1.673,1.673,0,0,0,.055-.348M2.42,101.912c0,1.063,0,2.045,0,3.027,0,2.8,1.429,4.224,4.252,4.224h49.69c.2,0,.4,0,.606,0a3.489,3.489,0,0,0,3.527-3.026,34.443,34.443,0,0,0,.034-4.222Zm39.355,15.714c-.859-2-1.662-3.894-2.5-5.772-.067-.15-.4-.259-.6-.26-4.767-.014-9.533,0-14.3-.023a.7.7,0,0,0-.758.538c-.385.957-.8,1.9-1.209,2.849l-1.141,2.668ZM31.432,122.5q8.969,0,17.939,0c.94,0,1.526-.476,1.53-1.208s-.581-1.205-1.518-1.22c-.1,0-.2,0-.3,0H13.96c-.2,0-.4-.012-.605.006a1.208,1.208,0,1,0-.012,2.416c.225.021.454.007.681.007H31.432" transform="translate(0 -52.485)" fill="#12263f"/>
        <rect id="Rectángulo_58329" data-name="Rectángulo 58329" width="36.251" height="2.334" transform="translate(10.971 42.18)" fill="#12263f"/>
        <rect id="Rectángulo_58330" data-name="Rectángulo 58330" width="30.226" height="2.325" transform="translate(10.944 37.322)" fill="#12263f"/>
        <rect id="Rectángulo_58331" data-name="Rectángulo 58331" width="26.563" height="2.33" transform="translate(10.973 32.484)" fill="#12263f"/>
        <rect id="Rectángulo_58332" data-name="Rectángulo 58332" width="22.915" height="2.331" transform="translate(10.959 27.621)" fill="#12263f"/>
        <path id="Trazado_231955" data-name="Trazado 231955" d="M42.462,108.919l2.926,2.732-1.837,1.633c-1.154-1.132-2.43-2.341-3.649-3.606a1.047,1.047,0,0,1,.031-1.516c1.21-1.244,2.464-2.447,3.69-3.657l1.718,1.679-2.88,2.736" transform="translate(-33.58 -88.635)" fill="#12263f"/>
        <path id="Trazado_231956" data-name="Trazado 231956" d="M132.982,108.877l-2.852-2.721,1.7-1.675c1.236,1.217,2.5,2.413,3.7,3.664a1.107,1.107,0,0,1-.061,1.637c-1.174,1.212-2.379,2.393-3.574,3.591l-1.714-1.877,2.8-2.619" transform="translate(-110.369 -88.615)" fill="#12263f"/>
        <path id="Trazado_231957" data-name="Trazado 231957" d="M90.426,99.821l2.374.6-2.436,9.71-2.37-.593,2.432-9.72" transform="translate(-74.631 -84.662)" fill="#12263f"/>
        <rect id="Rectángulo_58333" data-name="Rectángulo 58333" width="2.327" height="2.325" transform="translate(6.101 27.643)" fill="#12263f"/>
        <rect id="Rectángulo_58334" data-name="Rectángulo 58334" width="2.325" height="2.323" transform="translate(6.123 32.487)" fill="#12263f"/>
        <rect id="Rectángulo_58335" data-name="Rectángulo 58335" width="2.316" height="2.33" transform="translate(6.12 37.333)" fill="#12263f"/>
        <rect id="Rectángulo_58336" data-name="Rectángulo 58336" width="2.351" height="2.298" transform="translate(43.689 37.345)" fill="#12263f"/>
        <rect id="Rectángulo_58337" data-name="Rectángulo 58337" width="2.329" height="2.343" transform="translate(48.539 37.327)" fill="#12263f"/>
        <rect id="Rectángulo_58338" data-name="Rectángulo 58338" width="2.329" height="2.343" transform="translate(6.1 42.163)" fill="#12263f"/>
        <rect id="Rectángulo_58339" data-name="Rectángulo 58339" width="2.298" height="2.352" transform="translate(49.757 42.182)" fill="#12263f"/>
        <rect id="Rectángulo_58340" data-name="Rectángulo 58340" width="2.339" height="2.326" transform="translate(54.594 42.171)" fill="#12263f"/>
        <path id="Trazado_231958" data-name="Trazado 231958" d="M278.407,61.544a8.63,8.63,0,1,1,8.641,8.657,8.614,8.614,0,0,1-8.641-8.657m14.83.056a6.2,6.2,0,1,0-6.2,6.175,6.251,6.251,0,0,0,6.2-6.175" transform="translate(-236.129 -44.9)" fill="#12263f"/>
        <rect id="Rectángulo_58341" data-name="Rectángulo 58341" width="2.339" height="2.326" transform="translate(30.351 51.87)" fill="#12263f"/>
      </g>
    </g>
  </g>
</svg>
