<svg xmlns="http://www.w3.org/2000/svg" xmlns:xlink="http://www.w3.org/1999/xlink" width="89.35" height="89.35" viewBox="0 0 89.35 89.35">
  <defs>
    <clipPath id="clip-path">
      <rect id="Rectángulo_60144" data-name="Rectángulo 60144" width="59.356" height="59.466" fill="#12263f"/>
    </clipPath>
  </defs>
  <g id="Grupo_183670" data-name="Grupo 183670" transform="translate(-5424.271 8985.364)">
    <g id="Grupo_183668" data-name="Grupo 183668">
      <ellipse id="Elipse_6353" data-name="Elipse 6353" cx="44.675" cy="44.675" rx="44.675" ry="44.675" transform="translate(5424.271 -8985.364)" fill="#f4a338"/>
      <g id="Grupo_183667" data-name="Grupo 183667" transform="translate(5438.962 -8970.294)">
        <g id="Grupo_183167" data-name="Grupo 183167" clip-path="url(#clip-path)">
          <path id="Trazado_237937" data-name="Trazado 237937" d="M29.258,59.465c-2.054-1.369-4.106-2.742-6.169-4.1a1.06,1.06,0,0,0-.6-.119c-2.146.11-4.293.205-6.435.367a1.785,1.785,0,0,1-1.97-1.145c-.9-1.883-1.86-3.739-2.83-5.588a1.863,1.863,0,0,0-.746-.739q-2.826-1.477-5.688-2.882A1.584,1.584,0,0,1,3.8,43.569c.147-2.183.257-4.368.35-6.554a1.661,1.661,0,0,0-.254-.909C2.739,34.3,1.566,32.5.363,30.721A1.606,1.606,0,0,1,.354,28.7c1.219-1.792,2.4-3.607,3.581-5.426a1.453,1.453,0,0,0,.229-.8c-.1-2.185-.207-4.371-.356-6.553a1.657,1.657,0,0,1,1.062-1.786c1.929-.937,3.838-1.917,5.742-2.905a1.555,1.555,0,0,0,.625-.627q1.492-2.884,2.929-5.8A1.6,1.6,0,0,1,15.87,3.8q3.245.217,6.494.351a1.852,1.852,0,0,0,1.011-.286c1.775-1.139,3.543-2.29,5.279-3.486a1.654,1.654,0,0,1,2.119.015c1.738,1.194,3.5,2.348,5.277,3.489a1.754,1.754,0,0,0,.958.271c2.127-.086,4.255-.188,6.379-.34a1.728,1.728,0,0,1,1.9,1.073c.9,1.862,1.868,3.691,2.78,5.547a1.936,1.936,0,0,0,.952.939c1.873.921,3.721,1.893,5.6,2.811a1.625,1.625,0,0,1,1,1.765c-.154,2.2-.266,4.406-.385,6.61a.87.87,0,0,0,.091.5c1.337,2.031,2.688,4.053,4.035,6.077v1.162q-2.041,3.056-4.076,6.116a.766.766,0,0,0-.088.437c.117,2.2.234,4.405.373,6.607a1.5,1.5,0,0,1-1.006,1.8c-1.912.97-3.832,1.927-5.732,2.919a1.754,1.754,0,0,0-.7.7c-.973,1.868-1.935,3.741-2.847,5.639a1.751,1.751,0,0,1-1.935,1.1c-2.141-.161-4.287-.261-6.431-.362a1.342,1.342,0,0,0-.749.2c-2.039,1.326-4.064,2.674-6.093,4.016ZM19.7,6.551c-.837-.052-1.843-.091-2.845-.186a.794.794,0,0,0-.94.5c-.875,1.808-1.776,3.605-2.72,5.379a2.436,2.436,0,0,1-.952.949q-2.608,1.392-5.275,2.671a.933.933,0,0,0-.608,1.063c.138,1.989.263,3.98.331,5.972a2.415,2.415,0,0,1-.369,1.29c-1.083,1.718-2.21,3.408-3.349,5.091a.653.653,0,0,0,.006.87c1.1,1.635,2.167,3.3,3.273,4.932a2.486,2.486,0,0,1,.461,1.63c-.13,2.009-.228,4.02-.355,6.029a.635.635,0,0,0,.418.71c1.822.893,3.643,1.79,5.433,2.745a2.645,2.645,0,0,1,1.025,1.029c.958,1.789,1.858,3.609,2.757,5.428a.627.627,0,0,0,.713.406c2.047-.131,4.1-.261,6.145-.327a2.527,2.527,0,0,1,1.346.372c1.67,1.049,3.312,2.145,4.942,3.257a.826.826,0,0,0,1.112.018q2.462-1.693,4.991-3.288a2.314,2.314,0,0,1,1.238-.354c2.05.071,4.1.2,6.145.329a.738.738,0,0,0,.849-.475c.853-1.755,1.767-3.481,2.623-5.235a2.632,2.632,0,0,1,1.282-1.268c1.771-.866,3.523-1.772,5.286-2.654.259-.129.428-.246.4-.6-.134-2.067-.226-4.136-.358-6.2a2.251,2.251,0,0,1,.395-1.472c1.112-1.653,2.188-3.331,3.311-4.977a.718.718,0,0,0-.014-.96c-1.128-1.666-2.239-3.344-3.317-5.042A2.219,2.219,0,0,1,52.718,23c.073-2.089.194-4.177.336-6.262a.69.69,0,0,0-.468-.788c-1.77-.869-3.519-1.78-5.287-2.65a2.5,2.5,0,0,1-1.192-1.2c-.861-1.752-1.77-3.479-2.622-5.235a.767.767,0,0,0-.886-.5c-2.027.138-4.057.259-6.087.326a2.419,2.419,0,0,1-1.292-.362C33.5,5.24,31.814,4.11,30.131,2.973a.652.652,0,0,0-.866.007c-1.65,1.116-3.325,2.2-4.979,3.308a2.231,2.231,0,0,1-1.465.421c-.984-.07-1.971-.1-3.125-.158" transform="translate(0 0)" fill="#12263f"/>
          <path id="Trazado_237938" data-name="Trazado 237938" d="M114.58,133.195a18.532,18.532,0,1,1,18.507-18.574,18.511,18.511,0,0,1-18.507,18.574M98.537,114.626a16.026,16.026,0,1,0,16.057-15.995,16.083,16.083,0,0,0-16.057,15.995" transform="translate(-84.86 -84.938)" fill="#12263f"/>
          <path id="Trazado_237939" data-name="Trazado 237939" d="M186.794,213.6c.308-.289.618-.576.925-.866q3.844-3.631,7.693-7.256a2.344,2.344,0,0,1,.869-.533,1.093,1.093,0,0,1,1.3.506,1.139,1.139,0,0,1-.047,1.4,3.479,3.479,0,0,1-.436.465q-4.582,4.331-9.167,8.657c-.941.887-1.528.878-2.418-.033-1.529-1.566-3.067-3.123-4.571-4.714a2.447,2.447,0,0,1-.57-1.089,1.012,1.012,0,0,1,.6-1.094,1.108,1.108,0,0,1,1.258.043,5.616,5.616,0,0,1,.566.5q2.05,1.892,4.1,3.787l-.1.229" transform="translate(-159.352 -181.033)" fill="#12263f"/>
        </g>
      </g>
    </g>
  </g>
</svg>
