<svg xmlns="http://www.w3.org/2000/svg" xmlns:xlink="http://www.w3.org/1999/xlink" width="251" height="190" viewBox="0 0 251 190">
  <defs>
    <clipPath id="clip-path">
      <rect id="Rectángulo_58424" data-name="Rectángulo 58424" width="208.22" height="157.412" fill="none"/>
    </clipPath>
    <linearGradient id="linear-gradient" x1="0.5" x2="0.5" y2="1" gradientUnits="objectBoundingBox">
      <stop offset="0" stop-color="#f5f5f5"/>
      <stop offset="0.25" stop-color="#f5f5f5"/>
      <stop offset="1" stop-color="#a7b3cf"/>
    </linearGradient>
    <clipPath id="clip-path-3">
      <rect id="Rectángulo_58418" data-name="Rectángulo 58418" width="0.003" height="0.002" fill="none"/>
    </clipPath>
    <clipPath id="clip-path-4">
      <rect id="Rectángulo_58419" data-name="Rectángulo 58419" width="0.001" height="0.002" fill="none"/>
    </clipPath>
  </defs>
  <g id="Grupo_183586" data-name="Grupo 183586" transform="translate(7632 12264)">
    <g id="Grupo_183585" data-name="Grupo 183585" transform="translate(-7611 -12248)">
      <g id="Grupo_180483" data-name="Grupo 180483" transform="translate(0 0)" clip-path="url(#clip-path)">
        <g id="Grupo_180482" data-name="Grupo 180482" transform="translate(0 0.001)">
          <g id="Grupo_180481" data-name="Grupo 180481" clip-path="url(#clip-path)">
            <path id="Trazado_232089" data-name="Trazado 232089" d="M286.14,323.983l4.44,16.838c-5.038-4.49-9.76-9.31-14.278-13.833l-.053-.053-12.592-12.9c-11.853-10.941-24.317-26.747-41.944-26.747-.329,0-.658.005-.985.02l-16.052-3.978,10.4-13.8a49.758,49.758,0,0,1,6.938-.482c22.492,0,39.21,17.934,53.8,32.523l12.157,12.461c4.453,4.111,8.991,8.908,13.856,13.293Z" transform="translate(-175.815 -231.113)" fill="#4abfe7"/>
            <path id="Trazado_232090" data-name="Trazado 232090" d="M535.778,600.52c-5.8,5.8-11.689,11.816-18.074,17.071l4.865-17.416-15.26,3.425a190.669,190.669,0,0,0,16.306-15.539Z" transform="translate(-435.771 -505.136)" fill="#148cc6"/>
            <path id="Trazado_232091" data-name="Trazado 232091" d="M741.952,386.591l-6.664,14.833,0,0c-5.021,4.33-9.657,9.162-13.959,13.574L709.17,402.54c5.116-5.116,10.3-10.4,15.828-15.175Z" transform="translate(-609.167 -332.077)" fill="#148cc6"/>
            <path id="Trazado_232092" data-name="Trazado 232092" d="M123.887,697.883l-4.661,16.687c-9.855,7.448-20.995,12.813-34.815,12.813-16.276,0-29.589-7.659-37.1-19.982l17.235,3.568V698.436a25.045,25.045,0,0,0,21.08,10.71c7.858,0,15.032-3.066,21.6-7.521Z" transform="translate(-40.639 -599.472)" fill="#148cc6"/>
            <path id="Trazado_232093" data-name="Trazado 232093" d="M19.15,320.986a29.2,29.2,0,0,0,2.244,11.453v14.034L5.053,343.091A48.558,48.558,0,0,1,0,320.986a45.075,45.075,0,0,1,35.624-43.844L24.565,291.807l13.954,3.455A26.873,26.873,0,0,0,19.15,320.986" transform="translate(0 -238.062)" fill="#148cc6"/>
            <path id="Trazado_232094" data-name="Trazado 232094" d="M925,314.036c0,.674-.015,1.342-.048,2.01L911.956,327.4l-6.164-15.268c-.857-14.509-11.5-24.842-25.779-24.842-9.059,0-17.2,4.071-24.563,9.652l6.294-14.012-17.733.809c10.446-8.408,22.261-14.687,37.217-14.687,25.837,0,43.768,18.846,43.768,44.985" transform="translate(-724.995 -231.112)" fill="#4abfe7"/>
            <path id="Trazado_232095" data-name="Trazado 232095" d="M892.848,618.889c-2.759,21.573-21.206,39.368-45.844,39.368-13.778,0-25.387-6.729-35.67-15.3L807,626.525l16.208,3.458c7.051,5.7,14.868,10.036,24.1,10.036a26.769,26.769,0,0,0,26.422-22.611l5.425,13.444Z" transform="translate(-693.202 -530.346)" fill="#4abfe7"/>
            <path id="Trazado_232096" data-name="Trazado 232096" d="M492.415,673.969l-4.865,17.416c-1.1.9-2.214,1.789-3.347,2.644l4.661-16.688-16.66,3.742,4.948-3.686,0,0Z" transform="translate(-405.617 -578.93)" fill="#fff"/>
            <path id="Trazado_232097" data-name="Trazado 232097" d="M54.69,673.868V686.4l-17.235-3.568q-.863-1.41-1.618-2.9l16.341,3.382V669.282a25.485,25.485,0,0,0,2.513,4.586" transform="translate(-30.783 -574.905)" fill="#fff"/>
            <path id="Trazado_232098" data-name="Trazado 232098" d="M785.846,661.9l4.335,16.437q-1.707-1.421-3.367-2.907l-4.44-16.839,15.69,3.347,3.99,3.42Z" transform="translate(-672.048 -565.72)" fill="#fff"/>
            <path id="Trazado_232099" data-name="Trazado 232099" d="M842.335,367.47l-6.295,14.012c-1.478,1.116-2.92,2.3-4.335,3.518l6.664-14.833-16.954.774q1.572-1.361,3.186-2.661Z" transform="translate(-705.585 -315.652)" fill="#fff"/>
            <path id="Trazado_232100" data-name="Trazado 232100" d="M1299.646,578.468c-.053,1.214-.158,2.417-.309,3.608l-13.692,11.964L1280.22,580.6a26.277,26.277,0,0,0,.327-4.139c0-.643-.017-1.279-.058-1.9l6.164,15.268Z" transform="translate(-1099.691 -493.534)" fill="#fff"/>
            <path id="Trazado_232101" data-name="Trazado 232101" d="M194.554,290.249l-6.393,1h0L174.2,287.8l11.059-14.665q1.79-.4,3.641-.658l-10.4,13.8Z" transform="translate(-149.64 -234.051)" fill="#fff"/>
            <path id="Trazado_232102" data-name="Trazado 232102" d="M416.055,309.254a1.285,1.285,0,0,1-.144,1.755c-1.484,1.237-3,2.455-4.6,3.6a33.236,33.236,0,0,1-5.2,3.151,15.4,15.4,0,0,1-3.137,1.108,9.986,9.986,0,0,1-3.747.178,9.2,9.2,0,0,1-3.719-1.462,13.245,13.245,0,0,1-2.718-2.462,22.778,22.778,0,0,1-1.953-2.684c-.57-.9-1.081-1.809-1.559-2.714-.952-1.81-1.783-3.615-2.573-5.414-1.573-3.6-2.994-7.168-4.424-10.713a4.654,4.654,0,0,1,8.854-2.838c.9,3.707,1.783,7.4,2.764,10.98.492,1.787,1.013,3.547,1.6,5.22.3.835.61,1.647.951,2.417a17.063,17.063,0,0,0,1.106,2.135,7.871,7.871,0,0,0,1.268,1.6,3.867,3.867,0,0,0,1.438.886,7.355,7.355,0,0,0,4.278-.267,29.4,29.4,0,0,0,4.934-2.1c1.642-.848,3.262-1.8,4.87-2.789a1.3,1.3,0,0,1,1.706.4" transform="translate(-328.162 -247.138)" fill="#ea8096"/>
            <path id="Trazado_232103" data-name="Trazado 232103" d="M385.97,303.111l-3.61-10.2c-1.092-3.084-.074-6.356,2.535-7.28s5.822.851,6.914,3.934l3.61,10.2Z" transform="translate(-328.07 -245.147)" fill="#47b5ae"/>
            <path id="Trazado_232104" data-name="Trazado 232104" d="M269.069,174.469s-1.933,7.425-8.341,6.542c-4.855-.669-9.373-6.971-4.146-12.782,0,0-1.68-4.623.866-6.3a6.883,6.883,0,0,1,2.886-7.6c4.358-2.916,4.516-4.677,10.335-4.11s8.766,4.175,7.7,7.47c-1.839,5.688-3.044,4.3-.906,7.174,1.257,1.688-.148,5.014-1.573,6.326-2.311,2.126-3.259.389-2.52,2.71s-.292,4.149-2.577,3.322,1.588-4.663-1.725-2.749" transform="translate(-218.397 -128.944)" fill="#727997"/>
            <path id="Trazado_232105" data-name="Trazado 232105" d="M359.1,1057.423a10.987,10.987,0,0,0,2.446,4.414l-6.451-2.665.055-.732a8.078,8.078,0,0,0,1.163-2.062Z" transform="translate(-305.024 -907.415)" fill="#f5bdc8"/>
            <path id="Trazado_232106" data-name="Trazado 232106" d="M351.148,1071.133l8.349,3.128a.316.316,0,0,0,.349-.5l-2.294-2.642a.391.391,0,0,0-.6.175.436.436,0,0,1-.533.191l-3.345-1.242a2.642,2.642,0,0,1-1.089-.761l-.36-.422a.187.187,0,0,0-.317.056l-.485,1.295a.562.562,0,0,0,.329.724" transform="translate(-301.317 -918.251)" fill="#050f64"/>
            <path id="Trazado_232107" data-name="Trazado 232107" d="M349.8,529.717h0l-.01-.034q-.056-.239-.133-.471l-8.357-29.5c-1.068-3.773-4.455-5.47-8.279-4.6a7.1,7.1,0,0,0-5.357,8.493h0c1.743,12.059,5.109,22.083,11.173,28.723l-6.279,41.754,3,1.1,14.051-42.4h0l.014-.038c.057-.162.108-.325.15-.488l0-.008a5.387,5.387,0,0,0,.03-2.528" transform="translate(-281.312 -425.098)" fill="#12263f"/>
            <path id="Trazado_232108" data-name="Trazado 232108" d="M337.97,1086.624a10.987,10.987,0,0,0,3.84,3.274l-6.976-.229-.206-.7a8.076,8.076,0,0,0,.365-2.339Z" transform="translate(-287.441 -933.396)" fill="#f5bdc8"/>
            <path id="Trazado_232109" data-name="Trazado 232109" d="M333.842,1102.4l8.915,0a.316.316,0,0,0,.15-.593l-3.076-1.668c-.3-.074-.465.118-.5.376a.436.436,0,0,1-.432.366l-3.568.012a2.639,2.639,0,0,1-1.287-.33l-.486-.269a.187.187,0,0,0-.277.164v1.382a.562.562,0,0,0,.563.563" transform="translate(-286.282 -944.99)" fill="#050f64"/>
            <path id="Trazado_232110" data-name="Trazado 232110" d="M281.8,495.108c-3.913-.257-6.919.852-7.176,4.764-.3,1.549-.338,1.738-.427,2.321-1.926,12.517-1.3,22.99,3.076,31.194h0l5.044,45.1,3.178.292,2.924-76.111v-.008a7.1,7.1,0,0,0-6.619-7.55" transform="translate(-234.644 -425.261)" fill="#12263f"/>
            <path id="Trazado_232111" data-name="Trazado 232111" d="M275.408,590.221c-2.836-5.3-4.049-11.743-4.06-19.023,0-2.531.137-5.164.4-7.885l-.335-.2c-1.151,11.525.051,20.46,3.647,27.216l.973,8.592.348-.08Zm11.073-28.911s-1.151,28.361-1.154,28.464l.352.08,1.158-28.638Zm-1.949,48.1-.867,25.377.357-.006.862-25.342Zm-5.286,14.675-.346.082,1.308,11.47,2.981.27v-.355l-2.661-.24Z" transform="translate(-232.782 -482.078)" fill="#84a9ff"/>
            <path id="Trazado_232112" data-name="Trazado 232112" d="M288.641,270.657h0a13.189,13.189,0,0,1,13.043,15.151L298.558,307.1c-5.769,2.157-13.336,1.862-20.014,0l-.781-24.674a10.912,10.912,0,0,1,10.878-11.771" transform="translate(-238.565 -232.491)" fill="#4adbd1"/>
            <path id="Trazado_232113" data-name="Trazado 232113" d="M296.75,281.167a13.518,13.518,0,0,0-4.332-3.343l-.091.35a13.206,13.206,0,0,1,7.353,11.806,13.367,13.367,0,0,1-.148,1.985l-.544,3.693.3.39.591-4.033a13.511,13.511,0,0,0-3.129-10.848m-19.223.33-.234-.277a11.269,11.269,0,0,0-2.038,7.374l.606,19.167.357.045-.609-19.223a10.854,10.854,0,0,1,1.917-7.087m19.746,25.849-.868,5.912c-4.382,1.638-9.8,1.864-15.084,1.059l-.018.355a39.078,39.078,0,0,0,5.811.45,26.9,26.9,0,0,0,9.414-1.532l.2-.073.9-6.171Z" transform="translate(-236.411 -238.648)" fill="#12263f"/>
            <path id="Trazado_232114" data-name="Trazado 232114" d="M345.129,255.462l-1.048,8.023a4.486,4.486,0,0,1-5.228-.683l1.049-8.023Z" transform="translate(-291.07 -218.852)" fill="#f5bdc8"/>
            <path id="Trazado_232115" data-name="Trazado 232115" d="M349.385,260.618l-.26,1.99a5.755,5.755,0,0,1-2.76.453c-.055-.005-.109-.011-.164-.018a3.506,3.506,0,0,1-2.284-1.273l.24-1.835Z" transform="translate(-295.421 -223.281)" fill="#ea8096"/>
            <path id="Trazado_232116" data-name="Trazado 232116" d="M344.064,195.011l-.883,5.691a5.013,5.013,0,0,1-5.359,4.182,2.823,2.823,0,0,1-2.031-1.119,11.116,11.116,0,0,1-1.743-6.829l.486-1.716,8.243-2.352Z" transform="translate(-286.851 -165.671)" fill="#f5bdc8"/>
            <path id="Trazado_232117" data-name="Trazado 232117" d="M327.321,195.584s1.33-3.412,3.429-4.234c0,0-1.286-2.309-3.549.462-1.1,1.347-2.241,3.951-1.745,4.8s1.638,1.165,1.865-1.026" transform="translate(-279.459 -163.593)" fill="#727997"/>
            <path id="Trazado_232118" data-name="Trazado 232118" d="M353.177,184.052c-.021.031-.043.062-.067.093a4.772,4.772,0,0,0-3.375-4.2,7.762,7.762,0,0,0-1.385-.313c-3.19-.439-3.141-2.017-3.141-2.017l-.678-2.53c8.7-3.536,9.144,3.628,8.854,7.27-.061.767-.154,1.377-.209,1.7" transform="translate(-295.948 -149.574)" fill="#727997"/>
            <path id="Trazado_232119" data-name="Trazado 232119" d="M323.3,216.737a1.918,1.918,0,1,1-1.653-2.151,1.918,1.918,0,0,1,1.653,2.151" transform="translate(-274.432 -184.313)" fill="#f5bdc8"/>
            <path id="Trazado_232120" data-name="Trazado 232120" d="M339.4,355.841c-.9,0-1.82-.031-2.706-.059l-.649-.02c-.36-.012-.72-.031-1.079-.051l-.59-.03-.832-.043-.83-.063c-.2-.016-.393-.031-.589-.045-.35-.025-.712-.051-1.066-.091l-1.644-.171-1.631-.222c-.346-.046-.695-.108-1.032-.167-.193-.034-.386-.069-.577-.1a35.532,35.532,0,0,1-6.162-1.651,24.008,24.008,0,0,1-5.42-2.827,30.652,30.652,0,0,1-8.151-9.15c-1.018-1.622-2.062-3.464-3.193-5.632-.9-1.736-1.824-3.624-2.921-5.944a4.9,4.9,0,0,0-2.833-2.516,4.1,4.1,0,0,0-3.207.231,4.021,4.021,0,0,0-2,2.5,4.927,4.927,0,0,0,.54,3.838c1.407,2.286,2.593,4.148,3.731,5.859,1.5,2.238,2.823,4.063,4.156,5.744a46.985,46.985,0,0,0,4.928,5.378,31.183,31.183,0,0,0,6.042,4.406,29.1,29.1,0,0,0,6.911,2.691,40.055,40.055,0,0,0,7.087,1.089c.2.011.405.024.608.037.377.024.766.049,1.148.058l1.748.043,1.736-.011h.026c.368,0,.739-.014,1.1-.028.2-.008.4-.015.608-.021l.865-.029.86-.05.6-.036c.372-.021.743-.042,1.114-.071l.633-.05c.913-.073,1.858-.147,2.782-.246a1.328,1.328,0,0,0,1.257-1.337,1.346,1.346,0,0,0-1.369-1.219" transform="translate(-250.923 -280.751)" fill="#f4bcc7"/>
            <path id="Trazado_232121" data-name="Trazado 232121" d="M292.731,342.115l-5.828-9.787a6.123,6.123,0,0,1,1.912-8.513l.256-.038a6.238,6.238,0,0,1,8.552,2.168l5.828,9.787Z" transform="translate(-245.629 -277.365)" fill="#47b5ae"/>
            <path id="Trazado_232122" data-name="Trazado 232122" d="M295.738,323.583a6.63,6.63,0,0,0-5.673-3.222,6.547,6.547,0,0,0-1.659.213l.152.332a6.238,6.238,0,0,1,6.872,2.86l1.529,2.568.317-.168Zm4.618,7.753-.317.169,1.22,2.048-6.514,3.878.174.314,6.831-4.068Zm-14.317-9.3-.176-.315a6.128,6.128,0,0,0-2.317,3.652,6.873,6.873,0,0,0,.856,4.964l4.587,7.7.342-.124-4.621-7.761a6.165,6.165,0,0,1,1.328-8.117" transform="translate(-243.436 -275.186)" fill="#12263f"/>
            <rect id="Rectángulo_58417" data-name="Rectángulo 58417" width="1.136" height="33.83" transform="translate(57.863 71.14) rotate(-80.742)" fill="#12263f"/>
            <path id="Trazado_232123" data-name="Trazado 232123" d="M522.088,417.5l-20.738-3.38,9.173-15.931,20.738,3.381Z" transform="translate(-430.653 -342.043)" fill="url(#linear-gradient)"/>
            <path id="Trazado_232124" data-name="Trazado 232124" d="M596.791,456.954c-.705,1.672-1.779,2.815-2.4,2.554s-.549-1.828.156-3.5,1.779-2.815,2.4-2.554.549,1.828-.156,3.5" transform="translate(-510.212 -389.479)" fill="#fff"/>
            <path id="Trazado_232125" data-name="Trazado 232125" d="M379.771,462c.388.391.779.765,1.17,1.126a31.125,31.125,0,0,0,6.042,4.406,29.056,29.056,0,0,0,6.911,2.69,39.719,39.719,0,0,0,6.918,1.077l1.325-3.894c-.029,0-.057-.01-.084-.015l-.578-.1a35.663,35.663,0,0,1-6.161-1.653,23.948,23.948,0,0,1-5.42-2.827,25.768,25.768,0,0,1-5.216-4.992c-.242.338-.491.668-.746,1a11.8,11.8,0,0,1-1.165,1.359,6.128,6.128,0,0,1-1.168,1.042l-.808.462a4.334,4.334,0,0,1-1.018.319" transform="translate(-326.218 -393.263)" fill="#f4bcc7"/>
            <path id="Trazado_232126" data-name="Trazado 232126" d="M954.762,233.053a1.3,1.3,0,0,1,1.12,1.369c-.131,1.964-.2,3.924-.14,5.849.027.962.091,1.915.2,2.846a21.66,21.66,0,0,0,.474,2.706,12.013,12.013,0,0,0,.844,2.391c.085.181.185.343.275.513l.151.236.074.117.08.108a4.923,4.923,0,0,0,.67.766,4.379,4.379,0,0,0,.747.543,4.81,4.81,0,0,0,.835.351,6.1,6.1,0,0,0,.955.187,7.6,7.6,0,0,0,1.072.036,12.483,12.483,0,0,0,2.372-.323,23.207,23.207,0,0,0,2.511-.731,44.538,44.538,0,0,0,5.087-2.2c1.69-.846,3.369-1.771,5.034-2.748s3.319-2,4.963-3.052a4.345,4.345,0,0,1,3.423-.465,4.667,4.667,0,0,1,2.823,2.185,4.532,4.532,0,0,1,.433,3.551,4.421,4.421,0,0,1-2.306,2.727c-1.86.863-3.74,1.7-5.655,2.5s-3.861,1.55-5.861,2.231a51.184,51.184,0,0,1-6.226,1.724,29.384,29.384,0,0,1-3.351.487,18.249,18.249,0,0,1-3.6-.032,13.108,13.108,0,0,1-1.9-.352,11.38,11.38,0,0,1-1.9-.7,10.049,10.049,0,0,1-1.774-1.109,9.579,9.579,0,0,1-1.467-1.465,9.973,9.973,0,0,1-1.071-1.664l-.112-.214-.1-.215-.192-.43c-.11-.288-.227-.575-.317-.862a16.547,16.547,0,0,1-.7-3.385,25.67,25.67,0,0,1-.123-3.25c.021-1.064.094-2.11.205-3.142.214-2.067.568-4.083.975-6.076a1.29,1.29,0,0,1,1.468-1.009" transform="translate(-817.847 -200.177)" fill="#ea8096"/>
            <path id="Trazado_232127" data-name="Trazado 232127" d="M1076.627,301.578l10.611-5.71a6.478,6.478,0,0,0,2.9-8.765,6.909,6.909,0,0,0-9.15-2.858l-10.611,5.71Z" transform="translate(-919.435 -243.517)" fill="#b9cadd"/>
            <path id="Trazado_232128" data-name="Trazado 232128" d="M1088.91,283.83c.056.1.115.2.171.3l1.054-.566a6.234,6.234,0,0,1,1.146-.475l-.081-.337a6.5,6.5,0,0,0-1.228.506Zm-4.838,14.631,1.564,2.908,3.222-1.733-.1-.339-2.977,1.6-1.414-2.627Zm10.516-2.3-3.875,2.085.19.293,3.991-2.147Zm.421-13.455.09.39a6.947,6.947,0,0,1,4.186,3.331,6.1,6.1,0,0,1,.589,4.28h.356a6.448,6.448,0,0,0-.64-4.444,7.008,7.008,0,0,0-1.973-2.288,7.462,7.462,0,0,0-2.608-1.268m-13.029,4.855.07.357,2.689-1.447-.144-.317Zm-.954,5.242,1.437,2.672.283-.208-1.4-2.6Z" transform="translate(-928.587 -242.838)" fill="#84a9ff"/>
            <path id="Trazado_232129" data-name="Trazado 232129" d="M1166.158,1056.664l-11.613,5.862a2,2,0,0,1-.223-1.253,2.062,2.062,0,0,1,.851-1.207,12.607,12.607,0,0,1,1.309-.759,7.988,7.988,0,0,0,2.69-2.5,11.9,11.9,0,0,1,1.1-1.589l3.207-1.515a4.064,4.064,0,0,1,1.707,1.28,7.159,7.159,0,0,1,.976,1.684" transform="translate(-991.522 -905.115)" fill="#050f64"/>
            <path id="Trazado_232130" data-name="Trazado 232130" d="M1236.522,1092.243h-13.009a2,2,0,0,1,.366-1.219,2.062,2.062,0,0,1,1.3-.694,12.579,12.579,0,0,1,1.51-.087,8,8,0,0,0,3.529-1.022,11.925,11.925,0,0,1,1.7-.925l3.546.093a4.062,4.062,0,0,1,.947,1.911,7.166,7.166,0,0,1,.112,1.943" transform="translate(-1050.981 -934.831)" fill="#050f64"/>
            <path id="Trazado_232131" data-name="Trazado 232131" d="M1279.837,799.669v0a0,0,0,0,0,0,0Z" transform="translate(-1099.362 -686.905)" fill="#050f64"/>
            <g id="Grupo_180477" data-name="Grupo 180477" transform="translate(178.736 85.565)" opacity="0">
              <g id="Grupo_180476" data-name="Grupo 180476">
                <g id="Grupo_180475" data-name="Grupo 180475" clip-path="url(#clip-path-3)">
                  <path id="Trazado_232132" data-name="Trazado 232132" d="M1267.512,606.792h0" transform="translate(-1267.511 -606.791)" fill="#050f64"/>
                </g>
              </g>
            </g>
            <path id="Trazado_232133" data-name="Trazado 232133" d="M1279.837,799.669v0a0,0,0,0,0,0,0Z" transform="translate(-1099.362 -686.905)" fill="#050f64"/>
            <path id="Trazado_232134" data-name="Trazado 232134" d="M1279.837,799.669v0a0,0,0,0,0,0,0Z" transform="translate(-1099.362 -686.905)" fill="#050f64"/>
            <path id="Trazado_232135" data-name="Trazado 232135" d="M1071.647,626.9l16.853,36.227,4.251-1.723L1082,627.625l8.685-13.708,10.031,52.371,4.534.171V599.327c.1-.651-27.779-2.318-27.779-2.317l-6.089,27.349h0a4.814,4.814,0,0,0,.257,2.54m29.079-1.311h0a0,0,0,0,1,0,0Z" transform="translate(-920.252 -512.824)" fill="#12263f"/>
            <g id="Grupo_180480" data-name="Grupo 180480" transform="translate(180.475 112.764)" opacity="0">
              <g id="Grupo_180479" data-name="Grupo 180479">
                <g id="Grupo_180478" data-name="Grupo 180478" clip-path="url(#clip-path-4)">
                  <path id="Trazado_232136" data-name="Trazado 232136" d="M1279.837,799.669v0a0,0,0,0,0,0,0Z" transform="translate(-1279.838 -799.669)" fill="#050f64"/>
                </g>
              </g>
            </g>
            <path id="Trazado_232137" data-name="Trazado 232137" d="M1131.824,276h0a12.18,12.18,0,0,0-14.089,11.1l-2.778,34.029c10.924,6.3,17.755,4.867,27.959,2.3l1.446-32.015A14.937,14.937,0,0,0,1131.824,276" transform="translate(-957.733 -236.942)" fill="#d2e1f1"/>
            <path id="Trazado_232138" data-name="Trazado 232138" d="M1139.676,280.511a14.868,14.868,0,0,1,1.844,4.34l.361-.116a15.276,15.276,0,0,0-1.866-4.4Zm-1.7,41.237.083.372c.814-.2,1.655-.4,2.53-.625l.273-.069.378-8.365-.378-.054-.366,8.12q-1.295.326-2.519.622m-25.838-2.715.208.12a39.4,39.4,0,0,0,5.955,2.852l.067-.385a38.976,38.976,0,0,1-5.833-2.8l1.632-19.983-.378-.026Zm18.368,4.108a28.987,28.987,0,0,1-2.946.165v.38a29.678,29.678,0,0,0,3.108-.179Zm10.839-20.827h.378l.347-7.7-.38.045Zm-26.9-11.511.374.083.5-6.092a12.182,12.182,0,0,1,12.125-11.259c.311,0,.623.012.938.035v-.378c-.274-.021-.549-.033-.822-.035a12.579,12.579,0,0,0-12.618,11.61Z" transform="translate(-955.309 -234.638)" fill="#12263f"/>
            <path id="Trazado_232139" data-name="Trazado 232139" d="M1074.869,610.787a.686.686,0,0,0,.474-1.117l-6.587-8.11a5.465,5.465,0,0,1,.8-7.687l4.2-3.411a5.465,5.465,0,0,1,7.688.8l6.546,8.06a.687.687,0,0,0,1.194-.245,16.164,16.164,0,1,0-14.311,11.714" transform="translate(-908.353 -496.926)" fill="#373f51"/>
            <path id="Trazado_232140" data-name="Trazado 232140" d="M870.9,9.706a.686.686,0,0,0-.474,1.117l6.587,8.11a5.465,5.465,0,0,1-.8,7.687l-4.2,3.411a5.466,5.466,0,0,1-7.688-.8l-6.546-8.06a.687.687,0,0,0-1.194.245A16.164,16.164,0,1,0,870.9,9.706" transform="translate(-735.276 -8.296)" fill="#373f51"/>
            <path id="Trazado_232141" data-name="Trazado 232141" d="M947.956,184.052l15.953-4.783,18.84,59.931L966.8,243.982Z" transform="translate(-814.281 -153.99)" fill="#373f51"/>
            <path id="Trazado_232142" data-name="Trazado 232142" d="M1043.615,343.128a1.3,1.3,0,0,1,1.719.418c1.079,1.646,2.2,3.255,3.411,4.753.6.752,1.226,1.474,1.874,2.151a21.557,21.557,0,0,0,2.009,1.875,12.025,12.025,0,0,0,2.114,1.4c.177.093.355.163.529.243l.262.1.13.049.129.038a4.91,4.91,0,0,0,1,.208,4.381,4.381,0,0,0,.923-.017,4.81,4.81,0,0,0,.878-.223,6.06,6.06,0,0,0,.875-.426,7.593,7.593,0,0,0,.877-.617,12.5,12.5,0,0,0,1.7-1.687,23.291,23.291,0,0,0,1.564-2.1,44.566,44.566,0,0,0,2.737-4.818c.839-1.694,1.622-3.443,2.363-5.226s1.445-3.6,2.123-5.426a4.345,4.345,0,0,1,2.452-2.434,4.667,4.667,0,0,1,3.569.043,4.533,4.533,0,0,1,2.484,2.574,4.42,4.42,0,0,1-.2,3.566c-.965,1.809-1.96,3.611-3.01,5.4s-2.148,3.563-3.334,5.311a51.162,51.162,0,0,1-3.93,5.127,29.406,29.406,0,0,1-2.381,2.408,18.243,18.243,0,0,1-2.894,2.144,13.136,13.136,0,0,1-1.725.861,11.38,11.38,0,0,1-1.938.59,10.047,10.047,0,0,1-2.084.184,9.6,9.6,0,0,1-2.054-.286,9.98,9.98,0,0,1-1.857-.683l-.218-.1-.208-.113-.412-.228c-.26-.163-.527-.323-.772-.5a16.518,16.518,0,0,1-2.6-2.28,25.663,25.663,0,0,1-2.056-2.52c-.624-.862-1.2-1.741-1.729-2.632-1.075-1.779-2.007-3.6-2.882-5.437a1.29,1.29,0,0,1,.564-1.689" transform="translate(-895.861 -284.374)" fill="#f5bdc8"/>
            <path id="Trazado_232143" data-name="Trazado 232143" d="M1197.094,348.944l5.03-10.95a6.478,6.478,0,0,0-2.969-8.741,6.909,6.909,0,0,0-9.025,3.231l-5.03,10.95Z" transform="translate(-1017.984 -282.304)" fill="#b9cadd"/>
            <path id="Trazado_232144" data-name="Trazado 232144" d="M1194.955,331.321c.1.045.212.09.318.137l.5-1.087a6.236,6.236,0,0,1,.629-1.069l-.268-.221a6.507,6.507,0,0,0-.675,1.144Zm4.953,14.592,3,1.379,1.528-3.325-.287-.208-1.411,3.071-2.712-1.245Zm7.005-8.174-1.837,4,.328.12,1.892-4.118Zm-7.769-10.993.307.257a6.947,6.947,0,0,1,5.347.137,6.1,6.1,0,0,1,3.048,3.061l.283-.215a6.45,6.45,0,0,0-3.187-3.162,7.008,7.008,0,0,0-2.953-.637,7.462,7.462,0,0,0-2.846.559m-7.474,11.724.271.243,1.274-2.774-.306-.167Zm2.4,4.759,2.757,1.267.1-.337-2.682-1.231Z" transform="translate(-1023.628 -280.191)" fill="#12263f"/>
            <path id="Trazado_232145" data-name="Trazado 232145" d="M1197.872,249.412l1.02,8.665a4.838,4.838,0,0,0,5.646-.664l-1.02-8.665Z" transform="translate(-1028.955 -213.672)" fill="#f5bdc8"/>
            <path id="Trazado_232146" data-name="Trazado 232146" d="M1197.872,249.412l.461,3.919a4.6,4.6,0,0,0,1.3.141q.215-.008.428-.033a5.114,5.114,0,0,0,3.732-2.366l-.274-2.326Z" transform="translate(-1028.955 -213.672)" fill="#ea8096"/>
            <path id="Trazado_232147" data-name="Trazado 232147" d="M1174.9,183.795l.564,3.6.228,1.459a4.049,4.049,0,0,0,4.137,3.424,4.539,4.539,0,0,0,1.906-.489c.134-.068.265-.144.391-.224.078-.05.156-.1.23-.156a4.448,4.448,0,0,0,1.588-2.142c.257-.741.485-1.551.694-2.4.121-.487.235-.987.344-1.5a6.16,6.16,0,0,0-2.033-6.059,4.967,4.967,0,0,0-8.049,4.482" transform="translate(-1009.175 -153.052)" fill="#f5bdc8"/>
            <path id="Trazado_232148" data-name="Trazado 232148" d="M1177.945,161.121l-.647-.313s1.1-2.633.647-3.483c-.647-1.21-3.814-1.362-5.39-.911a1.34,1.34,0,0,0-1.044.824,11.45,11.45,0,0,0-.476,5.147s-2.338-6.085-.443-9.383c1.241-2.161,2.378-3.681,5.23-2.454,4.529,1.949,7.025,5.545,6.308,10.871l-2.973-1.092Z" transform="translate(-1004.887 -128.943)" fill="#727997"/>
            <path id="Trazado_232149" data-name="Trazado 232149" d="M1226.873,217.789a2.145,2.145,0,1,0,1.894-2.132,2.023,2.023,0,0,0-1.894,2.132" transform="translate(-1053.857 -185.233)" fill="#f5bdc8"/>
            <rect id="Rectángulo_58420" data-name="Rectángulo 58420" width="24.465" height="17.793" transform="translate(8.195)" fill="#f4a338"/>
            <path id="Trazado_232150" data-name="Trazado 232150" d="M172.9,126.181v6.8l-9.638-6.8Z" transform="translate(-140.24 -108.389)" fill="#12263f"/>
            <path id="Trazado_232151" data-name="Trazado 232151" d="M85.522,46.934V45.551l4.841-2.075v1.383L86.9,46.242l3.458,1.383v1.383Z" transform="translate(-73.462 -37.346)" fill="#fff"/>
            <path id="Trazado_232152" data-name="Trazado 232152" d="M131.042,31.4h-1.383l2.9-12.448h1.383Z" transform="translate(-111.375 -16.283)" fill="#fff"/>
            <path id="Trazado_232153" data-name="Trazado 232153" d="M169.873,49.009V47.626l3.458-1.383-3.458-1.383V43.477l4.841,2.075v1.383Z" transform="translate(-145.919 -37.346)" fill="#fff"/>
            <rect id="Rectángulo_58421" data-name="Rectángulo 58421" width="24.465" height="17.793" transform="translate(183.755 1.394)" fill="#e8e8e8"/>
            <path id="Trazado_232154" data-name="Trazado 232154" d="M1303.1,136.07v6.8l9.638-6.8Z" transform="translate(-1119.344 -116.883)" fill="#12263f"/>
            <path id="Trazado_232155" data-name="Trazado 232155" d="M1346.479,35.05q1.359,0,1.359-1.019v-1.7a2.4,2.4,0,0,1,2.718-2.718v1.359a1.2,1.2,0,0,0-1.359,1.359v1.7a1.5,1.5,0,0,1-1.359,1.7,1.5,1.5,0,0,1,1.359,1.7v1.7a1.2,1.2,0,0,0,1.359,1.359v1.359a2.4,2.4,0,0,1-2.718-2.718v-1.7q0-1.019-1.359-1.019Z" transform="translate(-1156.607 -25.439)" fill="#12263f"/>
            <path id="Trazado_232156" data-name="Trazado 232156" d="M1408.379,36.409q-1.36,0-1.359,1.019v1.7a2.4,2.4,0,0,1-2.718,2.718V40.486a1.2,1.2,0,0,0,1.359-1.359v-1.7a1.5,1.5,0,0,1,1.359-1.7,1.5,1.5,0,0,1-1.359-1.7v-1.7a1.2,1.2,0,0,0-1.359-1.359V29.614a2.4,2.4,0,0,1,2.718,2.718v1.7q0,1.019,1.359,1.019Z" transform="translate(-1206.276 -25.439)" fill="#12263f"/>
            <rect id="Rectángulo_58422" data-name="Rectángulo 58422" width="24.465" height="17.793" transform="translate(77.619 14.561)" fill="#4adbd1"/>
            <path id="Trazado_232157" data-name="Trazado 232157" d="M550.435,229.441v6.8l9.638-6.8Z" transform="translate(-472.816 -197.087)" fill="#12263f"/>
            <path id="Trazado_232158" data-name="Trazado 232158" d="M593.814,128.421q1.359,0,1.359-1.019v-1.7a2.4,2.4,0,0,1,2.718-2.718v1.359a1.2,1.2,0,0,0-1.359,1.359v1.7a1.5,1.5,0,0,1-1.359,1.7,1.5,1.5,0,0,1,1.359,1.7v1.7a1.2,1.2,0,0,0,1.359,1.359v1.359a2.4,2.4,0,0,1-2.718-2.718v-1.7q0-1.019-1.359-1.019Z" transform="translate(-510.078 -105.643)" fill="#fff"/>
            <path id="Trazado_232159" data-name="Trazado 232159" d="M655.714,129.78q-1.359,0-1.359,1.019v1.7a2.4,2.4,0,0,1-2.718,2.718v-1.359A1.2,1.2,0,0,0,653,132.5v-1.7a1.5,1.5,0,0,1,1.359-1.7A1.5,1.5,0,0,1,653,127.4v-1.7a1.2,1.2,0,0,0-1.359-1.359v-1.359a2.4,2.4,0,0,1,2.718,2.718v1.7q0,1.019,1.359,1.019Z" transform="translate(-559.747 -105.643)" fill="#fff"/>
          </g>
        </g>
      </g>
    </g>
    <rect id="Rectángulo_60469" data-name="Rectángulo 60469" width="251" height="190" transform="translate(-7632 -12264)" fill="none"/>
  </g>
</svg>
