<svg xmlns="http://www.w3.org/2000/svg" xmlns:xlink="http://www.w3.org/1999/xlink" width="251" height="190" viewBox="0 0 251 190">
  <defs>
    <clipPath id="clip-path">
      <path id="Trazado_232046" data-name="Trazado 232046" d="M0,0H221.926V161.476H0Z" transform="translate(0 0)" fill="none"/>
    </clipPath>
    <linearGradient id="linear-gradient" x1="0.5" x2="0.5" y2="1" gradientUnits="objectBoundingBox">
      <stop offset="0" stop-color="#f5f5f5"/>
      <stop offset="0.25" stop-color="#f5f5f5"/>
      <stop offset="1" stop-color="#a7b3cf"/>
    </linearGradient>
  </defs>
  <g id="Grupo_183588" data-name="Grupo 183588" transform="translate(8192 12264)">
    <g id="Grupo_183583" data-name="Grupo 183583" transform="translate(-8177 -12249.999)">
      <g id="Enmascarar_grupo_175867" data-name="Enmascarar grupo 175867" transform="translate(0 0)" clip-path="url(#clip-path)">
        <path id="Trazado_232018" data-name="Trazado 232018" d="M564.576,177.154A66.445,66.445,0,0,1,502,221.084H443.774V208.869H502a54.494,54.494,0,0,0,39.87-17.424,53.106,53.106,0,0,0,14.163-40.575,54.009,54.009,0,0,0-53.628-49.581V89.074a65.928,65.928,0,0,1,62.168,88.08" transform="translate(-383.168 -76.909)" fill="#1464c0"/>
        <path id="Trazado_232019" data-name="Trazado 232019" d="M712.191,36.546,680.548,18.274,712.191,0Z" transform="translate(-587.606 -0.002)" fill="#155bcd"/>
        <path id="Trazado_232020" data-name="Trazado 232020" d="M395.439,202.064A53.109,53.109,0,0,0,409.6,242.639a54.359,54.359,0,0,0,17.39,12.538H404.93q-2.23-2.014-4.291-4.241a65.941,65.941,0,0,1,16.726-102.571l13,7.507a54.028,54.028,0,0,0-34.924,46.192" transform="translate(-330.746 -128.103)" fill="#4abfe7"/>
        <path id="Trazado_232021" data-name="Trazado 232021" d="M1101.945,966.247v12.215h-41.35q1.57-.616,3.117-1.307a70.971,70.971,0,0,0,17.256-10.908Z" transform="translate(-915.75 -834.287)" fill="#4dd0e1"/>
        <path id="Trazado_232022" data-name="Trazado 232022" d="M1324.229,913.714l31.643-18.272-31.643-18.272Z" transform="translate(-1143.379 -757.375)" fill="#4dd0e1"/>
        <path id="Trazado_232023" data-name="Trazado 232023" d="M643.733,327.135,654,321.274,649.219,309.7l-11.4,3.079a29.979,29.979,0,0,0-5.533-5.562l3.108-11.394-11.567-4.812-5.88,10.249a29.732,29.732,0,0,0-7.843-.019l-5.861-10.258-11.576,4.783,3.08,11.4a29.976,29.976,0,0,0-5.563,5.533l-11.394-3.108-4.812,11.567,10.249,5.88a29.3,29.3,0,0,0-.009,7.843l-10.268,5.86,4.783,11.577,11.4-3.079a29.645,29.645,0,0,0,5.533,5.553l-3.108,11.4,11.567,4.8L610,360.758a29.723,29.723,0,0,0,7.843.01l5.861,10.268,11.577-4.783-3.08-11.4a29.632,29.632,0,0,0,5.553-5.533l11.4,3.108,4.812-11.567-10.249-5.88a29.3,29.3,0,0,0,.009-7.843m-29.766,23.8A19.926,19.926,0,1,1,633.9,331a19.922,19.922,0,0,1-19.932,19.932" transform="translate(-495.562 -251.241)" fill="#12263f"/>
        <path id="Trazado_232024" data-name="Trazado 232024" d="M833.776,496.644l-10.935,13.544a.78.78,0,0,1-1.258-.059l-2.658-4.013c-.472-.713-1.724-.648-2.75.142s-1.407,1.984-.838,2.622l5.965,6.911a.894.894,0,0,0,1.441-.122l11.358-18.8c.085-.143-.221-.356-.326-.226" transform="translate(-703.759 -428.783)" fill="#12263f"/>
        <path id="Trazado_232025" data-name="Trazado 232025" d="M786.268,516.08a12.776,12.776,0,1,1,5.49-24.315.83.83,0,1,1-.714,1.5,11.016,11.016,0,0,0-4.776-1.075,11.1,11.1,0,1,0,10.817,8.543.83.83,0,1,1,1.615-.383,12.836,12.836,0,0,1,.344,2.956,12.776,12.776,0,0,1-12.776,12.776" transform="translate(-667.857 -423.538)" fill="#4dd0e1"/>
        <path id="Trazado_232026" data-name="Trazado 232026" d="M173.517,362.978c-1.925-.476-3.842-.966-5.732-1.495s-3.757-1.091-5.553-1.739a32.531,32.531,0,0,1-5.068-2.276,19.805,19.805,0,0,1-4.153-3.118,23.749,23.749,0,0,1-3.209-4.1,47.274,47.274,0,0,1-2.624-4.845c-.2-.43-.407-.846-.6-1.284l-.584-1.3c-.378-.885-.759-1.761-1.124-2.663-.739-1.787-1.45-3.612-2.156-5.444a4.851,4.851,0,0,0-8.769,4.128c.99,1.758,1.988,3.517,3.035,5.276.514.879,1.06,1.758,1.6,2.635l.835,1.315c.274.438.576.874.862,1.31a54.347,54.347,0,0,0,3.853,5.141A30.268,30.268,0,0,0,149,359.123a25.683,25.683,0,0,0,5.895,3.212,37.518,37.518,0,0,0,6.128,1.75c2.031.415,4.042.711,6.044.969s3.993.468,5.981.662a1.4,1.4,0,0,0,.471-2.738" transform="translate(-115.236 -286.735)" fill="#ea8096"/>
        <path id="Trazado_232027" data-name="Trazado 232027" d="M134.741,349.753l-5.2-10.517a6.308,6.308,0,0,1,2.644-8.592,6.729,6.729,0,0,1,8.877,2.891l5.2,10.517Z" transform="translate(-111.219 -284.908)" fill="#3f5db2"/>
        <path id="Trazado_232028" data-name="Trazado 232028" d="M141.8,331.023a7.091,7.091,0,0,0-8.551-3.4,6.766,6.766,0,0,0-.82.34,6.312,6.312,0,0,0-3.14,3.461l.461-.157a5.942,5.942,0,0,1,2.842-2.971,6.728,6.728,0,0,1,8.877,2.89l.137.275.351-.12Zm2.3,4.647-.351.119,2.927,5.915-4.649,2.3.12.353,5.022-2.485Zm-13.494,2.546-.351.119,4.732,9.564,1.991-.986-.12-.351-1.7.843Z" transform="translate(-111.633 -282.56)" fill="#12263f"/>
        <path id="Trazado_232029" data-name="Trazado 232029" d="M235.513,1138.065h12.668a1.951,1.951,0,0,0-.356-1.187,2.006,2.006,0,0,0-1.27-.676,12.152,12.152,0,0,0-1.47-.085,7.781,7.781,0,0,1-3.437-1,11.617,11.617,0,0,0-1.651-.9l-3.453.091a3.957,3.957,0,0,0-.922,1.862,6.963,6.963,0,0,0-.109,1.892" transform="translate(-203.333 -979.321)" fill="#5573c6"/>
        <path id="Trazado_232030" data-name="Trazado 232030" d="M54.889,1138.065H67.557a1.949,1.949,0,0,0-.356-1.187,2,2,0,0,0-1.27-.676,12.153,12.153,0,0,0-1.47-.085,7.782,7.782,0,0,1-3.437-1,11.6,11.6,0,0,0-1.651-.9l-3.453.091a3.957,3.957,0,0,0-.923,1.862,6.97,6.97,0,0,0-.109,1.892" transform="translate(-47.376 -979.321)" fill="#5573c6"/>
        <path id="Trazado_232031" data-name="Trazado 232031" d="M70.689,704.1l-1.376-39.04s-.047-.7-.065-.807l-3.375-27.1c-.231-3.4-27.247,1.992-27.247,1.992l3.027,65.063,4.467-.143,6.3-53.129,7.569,14.987,6.125,38.285Z" transform="translate(-33.352 -549.169)" fill="#12263f"/>
        <path id="Trazado_232032" data-name="Trazado 232032" d="M42.7,320.5h0a11.861,11.861,0,0,1,13.62,10.937l2.4,33.162c-10.693,6.035-17.333,4.581-27.247,1.992L30.357,335.4A14.546,14.546,0,0,1,42.7,320.5" transform="translate(-26.203 -276.608)" fill="#5573c6"/>
        <path id="Trazado_232033" data-name="Trazado 232033" d="M28.914,336.2h-.369l.543,15.149h.371ZM56.77,351.636l-.369.028.768,10.6c-10.131,5.717-16.624,4.713-25.712,2.389l.013.384a45.546,45.546,0,0,0,11.383,1.829c4.781,0,9.252-1.32,14.5-4.281l.2-.114ZM42.952,318.028A11.864,11.864,0,0,1,54.768,329.1l.735,10.153h.369l-.737-10.177A12.222,12.222,0,0,0,41.093,317.8l-.131.02-.028.38c.07-.013.142-.024.214-.035a11.985,11.985,0,0,1,1.8-.137" transform="translate(-24.647 -274.277)" fill="#12263f"/>
        <path id="Trazado_232034" data-name="Trazado 232034" d="M113.161,291.635l-1.063,8.373a4.68,4.68,0,0,1-5.456-.693l1.064-8.373Z" transform="translate(-92.078 -251.208)" fill="#f5bdc8"/>
        <path id="Trazado_232035" data-name="Trazado 232035" d="M118.081,291.635l-.481,3.787a4.449,4.449,0,0,1-1.257.125q-.208-.01-.414-.036a4.946,4.946,0,0,1-3.589-2.322l.285-2.247Z" transform="translate(-96.998 -251.208)" fill="#ea8096"/>
        <path id="Trazado_232036" data-name="Trazado 232036" d="M114.74,226.182l-.578,3.481-.234,1.409a3.917,3.917,0,0,1-4.032,3.275,4.39,4.39,0,0,1-1.839-.49c-.129-.067-.255-.141-.376-.22-.076-.049-.15-.1-.222-.153a4.3,4.3,0,0,1-1.517-2.086c-.242-.719-.455-1.5-.65-2.331-.113-.472-.218-.957-.319-1.449a5.959,5.959,0,0,1,2.02-5.843,4.8,4.8,0,0,1,7.746,4.407" transform="translate(-90.527 -190.562)" fill="#f5bdc8"/>
        <path id="Trazado_232037" data-name="Trazado 232037" d="M92.386,195.6a1.918,1.918,0,0,0,.485-1.527,3.559,3.559,0,0,1,.175-1.646c.312-.635,1.043-.936,1.229-1.628a1.922,1.922,0,0,0-.676-1.727L90.314,185.5a5.2,5.2,0,0,0-1.478-1.256,1.69,1.69,0,0,0-1.823.164c-.284.234-.5.576-.8.793a2.4,2.4,0,0,1-2.18.018,3.739,3.739,0,0,0-2.728.063,2.71,2.71,0,0,0-1.451,2.647,5.587,5.587,0,0,0,.535,1.372,2.03,2.03,0,0,1,.145,1.492c-.247.664-.919.908-1.442,1.287a3.644,3.644,0,0,0-1.384,2.481,3.272,3.272,0,0,0,.8,2.617,1.281,1.281,0,0,0,1.941.062c.588-.746.382-2.177,1.144-2.625.916-.539,1.82,1.2,2.728.639.486-.3.616-1.088,1.045-1.5.566-.545,1.312-.234,1.878-.017a10.18,10.18,0,0,0,1.84.482,3.105,3.105,0,0,1,1.5.777c.484.412,1.136,1.1,1.8.605" transform="translate(-67.077 -158.922)" fill="#727997"/>
        <path id="Trazado_232038" data-name="Trazado 232038" d="M99.618,259.932a2.074,2.074,0,1,1-1.813-2.079,1.957,1.957,0,0,1,1.813,2.079" transform="translate(-82.472 -222.622)" fill="#f5bdc8"/>
        <path id="Trazado_232039" data-name="Trazado 232039" d="M107.211,402.929c-.9,0-1.8-.031-2.682-.058l-.643-.02c-.357-.012-.714-.031-1.069-.05l-.585-.03-.825-.043-.823-.063c-.194-.016-.389-.03-.584-.044-.347-.025-.706-.051-1.057-.09l-1.629-.17-1.616-.22c-.343-.045-.689-.107-1.023-.166-.191-.034-.382-.068-.572-.1a35.231,35.231,0,0,1-6.109-1.637,23.8,23.8,0,0,1-5.374-2.8,30.388,30.388,0,0,1-8.081-9.071c-1.009-1.608-2.044-3.434-3.166-5.583-.888-1.721-1.808-3.593-2.9-5.892A4.855,4.855,0,0,0,65.67,374.4a4.066,4.066,0,0,0-3.18.229,3.986,3.986,0,0,0-1.984,2.483,4.885,4.885,0,0,0,.535,3.8c1.4,2.266,2.57,4.112,3.7,5.808,1.489,2.218,2.8,4.027,4.12,5.694a46.575,46.575,0,0,0,4.886,5.331,30.906,30.906,0,0,0,5.99,4.368,28.858,28.858,0,0,0,6.851,2.668,39.706,39.706,0,0,0,7.026,1.08c.2.011.4.024.6.037.373.024.759.049,1.139.058l1.733.043,1.721-.01h.026c.365,0,.733-.014,1.089-.028.2-.008.4-.015.6-.021l.857-.029.852-.05.6-.035c.368-.021.737-.042,1.1-.07l.627-.05c.905-.072,1.842-.146,2.758-.244a1.317,1.317,0,0,0,1.246-1.325,1.334,1.334,0,0,0-1.357-1.209" transform="translate(-52.093 -323.077)" fill="#f4bcc7"/>
        <path id="Trazado_232040" data-name="Trazado 232040" d="M60.744,389.2l-5.777-9.7a6.07,6.07,0,0,1,1.9-8.44l.254-.038a6.184,6.184,0,0,1,8.477,2.149l5.777,9.7Z" transform="translate(-46.646 -319.594)" fill="#3f5db2"/>
        <path id="Trazado_232041" data-name="Trazado 232041" d="M63.643,370.742a6.572,6.572,0,0,0-5.624-3.194,6.486,6.486,0,0,0-1.645.211l.151.329a6.184,6.184,0,0,1,6.812,2.835l1.515,2.546.314-.167Zm4.578,7.686-.315.167,1.21,2.03-6.457,3.844.172.311,6.772-4.032Zm-14.193-9.223-.174-.313a6.074,6.074,0,0,0-2.3,3.62,6.813,6.813,0,0,0,.849,4.921l4.548,7.635.339-.123-4.581-7.693a6.112,6.112,0,0,1,1.316-8.047" transform="translate(-44.39 -317.352)" fill="#12263f"/>
        <rect id="Rectángulo_58392" data-name="Rectángulo 58392" width="1.126" height="33.537" transform="matrix(0.161, -0.987, 0.987, 0.161, 24.766, 75.935)" fill="#12263f"/>
        <path id="Trazado_232042" data-name="Trazado 232042" d="M295.06,466.36,274.5,463.009l9.093-15.793,20.558,3.351Z" transform="translate(-237.013 -386.14)" fill="#12263f"/>
        <path id="Trazado_232043" data-name="Trazado 232043" d="M372.1,507.249c-.7,1.657-1.764,2.791-2.378,2.532s-.544-1.812.155-3.47,1.764-2.791,2.378-2.532.544,1.813-.155,3.47" transform="translate(-318.872 -434.947)" fill="#fff"/>
        <path id="Trazado_232044" data-name="Trazado 232044" d="M150.056,512.394c.385.387.772.758,1.16,1.116a30.868,30.868,0,0,0,5.989,4.368,28.8,28.8,0,0,0,6.851,2.667,39.37,39.37,0,0,0,6.858,1.068l1.314-3.86-.083-.015c-.192-.033-.383-.067-.573-.1A35.341,35.341,0,0,1,165.464,516a23.738,23.738,0,0,1-5.373-2.8,25.547,25.547,0,0,1-5.171-4.948c-.24.335-.487.662-.739.989a11.691,11.691,0,0,1-1.155,1.347,6.073,6.073,0,0,1-1.158,1.033l-.8.458a4.3,4.3,0,0,1-1.01.316" transform="translate(-129.563 -438.84)" fill="#f4bcc7"/>
        <rect id="Rectángulo_58393" data-name="Rectángulo 58393" width="23.694" height="17.232" transform="translate(40.274 0.441)" fill="url(#linear-gradient)"/>
        <path id="Trazado_232045" data-name="Trazado 232045" d="M294.9,129.408v6.582l9.334-6.582Z" transform="translate(-254.624 -111.735)" fill="#12263f"/>
        <rect id="Rectángulo_58394" data-name="Rectángulo 58394" width="1.994" height="1.994" transform="translate(57.765 8.06)" fill="#4dd0e1"/>
        <rect id="Rectángulo_58395" data-name="Rectángulo 58395" width="1.994" height="1.994" transform="translate(53.338 8.06)" fill="#4dd0e1"/>
        <rect id="Rectángulo_58396" data-name="Rectángulo 58396" width="1.994" height="1.994" transform="translate(48.91 8.06)" fill="#4dd0e1"/>
        <rect id="Rectángulo_58397" data-name="Rectángulo 58397" width="1.994" height="1.994" transform="translate(44.482 8.06)" fill="#4dd0e1"/>
      </g>
    </g>
    <rect id="Rectángulo_60467" data-name="Rectángulo 60467" width="251" height="190" transform="translate(-8192 -12264)" fill="none"/>
  </g>
</svg>
