<svg xmlns="http://www.w3.org/2000/svg" xmlns:xlink="http://www.w3.org/1999/xlink" width="93" height="94" viewBox="0 0 93 94">
  <defs>
    <clipPath id="clip-path">
      <rect id="Rectángulo_58529" data-name="Rectángulo 58529" width="61.498" height="61.474" fill="#12263f"/>
    </clipPath>
  </defs>
  <g id="Grupo_183595" data-name="Grupo 183595" transform="translate(2846.994 11273.27)">
    <ellipse id="Elipse_4870" data-name="Elipse 4870" cx="46.5" cy="47" rx="46.5" ry="47" transform="translate(-2846.994 -11273.27)" fill="#4adbd1"/>
    <g id="Grupo_180637" data-name="Grupo 180637" transform="translate(-2831.156 -11257.758)">
      <g id="Grupo_180636" data-name="Grupo 180636" clip-path="url(#clip-path)">
        <path id="Trazado_232628" data-name="Trazado 232628" d="M54.556,61.474H52.2a5.363,5.363,0,0,0-.552-.239c-4-1.235-8-2.461-12-3.708A2.235,2.235,0,0,1,38.776,57q-4.991-4.958-9.956-9.942c-.171-.171-.35-.333-.424-.4L26.757,48.2c.71.689,1.463,1.368,2.155,2.1a3.086,3.086,0,0,1-3.976,4.674c-.13-.085-.267-.16-.418-.25a3.157,3.157,0,0,1-2.389,1.752,3.283,3.283,0,0,1-2.823-1.046c-.27.289-.491.533-.722.769-.245.251-.487.507-.751.738C14.791,59.6,11.344,60.293,7.65,58.669A9.392,9.392,0,0,1,4.783,43.4c.414-.419.832-.835,1.255-1.259a3.2,3.2,0,0,1-1.03-2.823A3.292,3.292,0,0,1,6.77,36.926c-.109-.156-.182-.256-.25-.359a3.075,3.075,0,0,1,1.947-4.784,3.025,3.025,0,0,1,2.874.935c.68.681,1.357,1.365,1.959,1.971l1.585-1.548c-.128-.134-.28-.3-.438-.457Q8.16,26.393,1.873,20.1a5.768,5.768,0,0,1-.008-8.5c.886-.9,1.78-1.784,2.673-2.674,2.709-2.7,6.1-2.7,8.809.007q4.954,4.951,9.906,9.9c.153.153.317.3.566.526a6.943,6.943,0,0,1,0-.719,35.674,35.674,0,0,1,.567-4.348A18.684,18.684,0,0,1,45.5.247c7.811,1.278,12.888,5.918,15.259,13.467a34.5,34.5,0,0,1,.739,3.623v2.976c-.161.909-.283,1.828-.489,2.726A18.9,18.9,0,0,1,44.4,37.571c-.726.067-1.455.093-2.183.138l-.1.152a4.541,4.541,0,0,1,.543.4q3.707,3.695,7.4,7.408a2.362,2.362,0,0,1,.556.927c1.127,3.643,2.2,7.3,3.353,10.936a10.094,10.094,0,0,1,.585,3.939M46.625,19.819c.751,0,1.428-.016,2.1,0a3.962,3.962,0,1,1-3.9,5.156c-.091-.289-.149-.588-.24-.957L22.384,43.583l2.993,3c.12-.114.285-.265.443-.422,2.586-2.585,5.162-5.181,7.759-7.755a9.336,9.336,0,0,1,7.663-2.77A16.872,16.872,0,1,0,25.843,20.1a9.651,9.651,0,0,1-2.927,7.974q-3.827,3.8-7.627,7.624c-.154.155-.3.318-.4.419l2.993,2.995,19.432-22.2a13.794,13.794,0,0,1-1.725-.247,3.963,3.963,0,1,1,5.071-3.946c.023.695,0,1.391,0,2.152h5.957Zm-1.987-2.978c-1.5,0-2.9-.013-4.306.015a.942.942,0,0,0-.592.327q-7.2,8.192-14.376,16.4-3.059,3.493-6.1,6.971l1.623,1.66a1.011,1.011,0,0,0,.154-.094Q32.712,31.844,44.377,21.56a.72.72,0,0,0,.25-.454c.019-1.4.011-2.8.011-4.266M7.409,43.636C4.732,45.861,3.274,48.59,4.291,52.13a7.042,7.042,0,0,0,5.716,5.226c3.325.659,5.824-.831,7.838-3.28L7.409,43.636M6.4,21.769l8.489-8.483c-.994-.993-2.025-2.027-3.061-3.057a5.864,5.864,0,0,0-.6-.539,3.831,3.831,0,0,0-4.849.224c-1.17,1.1-2.312,2.241-3.412,3.415a3.678,3.678,0,0,0-.019,5.013c1.11,1.19,2.307,2.3,3.447,3.427M43.1,51.626l-9.841-9.851L29.94,45.091l9.849,9.848,3.31-3.313m4.992-5.089c.008.024.006-.025-.02-.05q-4.305-4.315-8.619-8.621a.567.567,0,0,0-.425-.155,7.2,7.2,0,0,0-4.244,2.316l9.916,9.92,3.392-3.409M9.013,33.519a4.913,4.913,0,0,0-.95.882c-.3.492-.044.944.336,1.325Q17.077,44.4,25.753,53.078a1.12,1.12,0,1,0,1.572-1.56c-.767-.781-1.546-1.551-2.32-2.325Q17.556,41.743,10.1,34.3a8.938,8.938,0,0,0-1.088-.78m43.49,25.9L49.2,48.685,41.772,56.12l10.731,3.3M21.775,54.687a4.643,4.643,0,0,0,.926-.846c.3-.489.056-.945-.325-1.326q-6.705-6.7-13.41-13.406a1.116,1.116,0,1,0-1.585,1.546Q14.1,47.386,20.837,54.1a5.475,5.475,0,0,0,.939.585M14.467,22.864l-3.409,3.408,5.313,5.312,3.4-3.4-5.3-5.315m6.9,3.916A7.509,7.509,0,0,0,23.7,22.866a.963.963,0,0,0-.3-1.083c-.831-.772-1.622-1.587-2.413-2.4-.528-.542-1.027-1.112-1.463-1.587l-3.569,3.562L21.37,26.78m-4.924-11.9-8.387,8.4,1.347,1.359,8.412-8.4-1.372-1.36m22.234-.032c0-.774.039-1.474-.009-2.167a1.97,1.97,0,0,0-2.01-1.79,2,2,0,0,0-1.935,1.877,1.971,1.971,0,0,0,1.789,2.07c.693.049,1.392.009,2.165.009m7.951,8.38c0,.248-.019.5,0,.743a1.976,1.976,0,0,0,3.75.675,1.956,1.956,0,0,0-.492-2.362,2.454,2.454,0,0,0-1.8-.488c-1.276.021-1.47.2-1.461,1.431" transform="translate(0 0)" fill="#12263f"/>
        <path id="Trazado_232629" data-name="Trazado 232629" d="M343.7,34.049V32.184a14.8,14.8,0,0,1,14.2,10.561l-1.813.563c-2.14-5.761-6.255-8.834-12.39-9.258" transform="translate(-301.019 -28.178)" fill="#12263f"/>
        <path id="Trazado_232630" data-name="Trazado 232630" d="M446.493,136.555l-.14-1.786,1.954-.293.173,2.079Z" transform="translate(-390.918 -117.775)" fill="#12263f"/>
      </g>
    </g>
  </g>
</svg>
