<svg xmlns="http://www.w3.org/2000/svg" xmlns:xlink="http://www.w3.org/1999/xlink" width="93" height="94" viewBox="0 0 93 94">
  <defs>
    <clipPath id="clip-path">
      <rect id="Rectángulo_58530" data-name="Rectángulo 58530" width="62.467" height="60.943" fill="#12263f"/>
    </clipPath>
  </defs>
  <g id="Grupo_183596" data-name="Grupo 183596" transform="translate(2678.526 11273.27)">
    <ellipse id="Elipse_4870" data-name="Elipse 4870" cx="46.5" cy="47" rx="46.5" ry="47" transform="translate(-2678.526 -11273.27)" fill="#f4a338"/>
    <g id="Grupo_180639" data-name="Grupo 180639" transform="translate(-2663.184 -11253.622)">
      <g id="Grupo_180638" data-name="Grupo 180638" clip-path="url(#clip-path)">
        <path id="Trazado_232631" data-name="Trazado 232631" d="M157.822,0c.025.03.043.074.076.088a.883.883,0,0,1,.6,1.064c-.126.541-.53.715-1.059.711-1.525-.01-3.049,0-4.574,0H144.9V15.251l1.654.2c0-.8-.006-1.548,0-2.295.01-.862.316-1.172,1.183-1.176q2.44-.012,4.879,0c.818.005,1.15.338,1.154,1.155.009,1.707-.014,3.415.02,5.122a1.345,1.345,0,0,0,.369.816c.6.625,1.25,1.2,1.931,1.842v-.645q0-6.738,0-13.476c0-1.076.242-1.312,1.333-1.312,1.586,0,3.172,0,4.757,0,.786,0,1.119.326,1.119,1.109q.007,9.817,0,19.635c0,.821-.319,1.128-1.153,1.134-.973.007-1.947,0-3.017,0l.259,1.787H174.5V1.86h-.7c-3.924,0-7.848-.017-11.771.013-.932.007-1.334-.627-1.114-1.168.115-.282.454-.472.692-.7h14.761V30.37a1.241,1.241,0,0,1-1.264.648c-4.96-.013-9.919,0-14.879-.021-.59,0-.791.122-.826.754a20.46,20.46,0,0,1-.429,2.884c-.165.821-.584,1.13-1.177,1s-.779-.606-.588-1.419a13.709,13.709,0,0,0-25.439-9.748c-.083.162-.161.328-.252.486a.912.912,0,0,1-1.275.458.9.9,0,0,1-.329-1.313,19.232,19.232,0,0,1,1.36-2.3,15.3,15.3,0,0,1,11.075-6.449q.212-.024.423-.059a2.486,2.486,0,0,0,.255-.08v-.686c0-4.39.008-8.779-.009-13.169A1.223,1.223,0,0,1,143.793,0h14.029m3.62,7.361h-3.485a1.162,1.162,0,0,0-.031.166c0,5.4-.021,10.805.02,16.208a5.054,5.054,0,0,0,.571,1.645.379.379,0,0,0,.295.155c.867.012,1.734.007,2.631.007Zm-13.059,6.481c0,.618-.029,1.2.02,1.781.012.148.245.328.415.4.7.316,1.418.59,2.122.9.322.14.628.318.949.483V13.841Z" transform="translate(-113.898)" fill="#12263f"/>
        <path id="Trazado_232632" data-name="Trazado 232632" d="M12.327,0c.936.162,1.881.28,2.805.494a11.714,11.714,0,0,1,4.633,2.211c4.5,3.526,4.449,9.3-.1,12.765a13.007,13.007,0,0,1-3.888,1.976,1.675,1.675,0,0,0-.758.532c-.872,1.122-1.7,2.276-2.558,3.412-.612.813-1.2.808-1.807,0-.815-1.089-1.6-2.2-2.45-3.264a2.282,2.282,0,0,0-.987-.709,11.364,11.364,0,0,1-5.611-3.8,7.319,7.319,0,0,1,.152-9.332A11.727,11.727,0,0,1,9.123.248C9.7.145,10.283.082,10.864,0ZM11.56,19.542c.751-1.007,1.49-1.97,2.2-2.957a1.961,1.961,0,0,1,1.159-.808,9.729,9.729,0,0,0,4.34-2.36,5.777,5.777,0,0,0-.287-9,10.911,10.911,0,0,0-6.841-2.523A11.152,11.152,0,0,0,4,4.553,5.734,5.734,0,0,0,3.746,13.3a9.463,9.463,0,0,0,4.3,2.421,2.319,2.319,0,0,1,1.4.969c.661.949,1.374,1.862,2.108,2.848" transform="translate(0)" fill="#12263f"/>
        <path id="Trazado_232633" data-name="Trazado 232633" d="M135.116,246.029h4.266a16.337,16.337,0,0,0-.016-2.168,2.673,2.673,0,0,1,1.761-3.184,11.178,11.178,0,0,0,4.425-4.1c.08-.118.156-.238.242-.351a.927.927,0,0,1,1.323-.294.862.862,0,0,1,.185,1.29,38.751,38.751,0,0,1-2.992,3.432,15.86,15.86,0,0,1-2.636,1.846.833.833,0,0,0-.471.811c.017,2.866.025,5.732,0,8.6a7,7,0,0,1-13.98.559c-.1-3.046-.04-6.1-.031-9.145a.789.789,0,0,0-.463-.812,15.432,15.432,0,0,1-7.936-15.633q.147-1.161,1.038-1.073c.587.059.872.527.781,1.277a13.514,13.514,0,0,0,3,10.531,13.015,13.015,0,0,0,4.61,3.624,1.245,1.245,0,0,1,.8,1.289c-.023,1.152-.007,2.306-.007,3.491H133.3c-.175-1.8.283-3.575-.694-5.341-2.032-3.675-3.862-7.462-5.775-11.2-.092-.179-.189-.355-.287-.537a.807.807,0,0,0-.189.023c-.67.272-1.116.17-1.369-.316s-.07-.954.523-1.307c.785-.467,1.586-.909,2.362-1.391a1.2,1.2,0,0,1,1.417-.01c.564.361,1.169.658,1.729,1.025a.61.61,0,0,0,.766-.009,13.458,13.458,0,0,1,1.848-1.057,1.588,1.588,0,0,1,1.126,0,12,12,0,0,1,1.793,1.029.691.691,0,0,0,.875.011c.505-.338,1.065-.6,1.568-.937a1.313,1.313,0,0,1,1.629.012c.678.446,1.4.827,2.1,1.238.725.426.945.884.676,1.4-.256.494-.717.581-1.53.263-.092.167-.192.337-.282.512q-3.121,6.1-6.231,12.2a2.217,2.217,0,0,0-.228.923c-.027,1.136-.011,2.273-.011,3.474m-6.935-18.258-.049.246,6.06,11.857,6.083-11.9-.057-.2a2.537,2.537,0,0,0-.805.111c-.615.309-1.2.674-1.792,1.034a1.11,1.11,0,0,1-1.257,0c-.589-.359-1.2-.684-1.782-1.053a.615.615,0,0,0-.767-.008c-.526.344-1.1.62-1.62.966a1.294,1.294,0,0,1-1.579.018,15.364,15.364,0,0,0-1.631-.947,2.706,2.706,0,0,0-.8-.127m11.172,20.149h-10.3v3.186h10.3Zm-.122,5.112H129.158a5.116,5.116,0,0,0,10.073,0" transform="translate(-104.166 -198.133)" fill="#12263f"/>
        <path id="Trazado_232634" data-name="Trazado 232634" d="M43.032,189.971c-.381-.358-.776-.7-1.141-1.076a.916.916,0,1,1,1.289-1.281q1.349,1.323,2.673,2.672a.932.932,0,0,1-.02,1.529q-1.3,1.326-2.63,2.629a.944.944,0,0,1-1.4.1c-.395-.4-.359-.907.116-1.395.35-.359.715-.7,1.167-1.147-.311-.02-.482-.04-.652-.04-1.992,0-3.984,0-5.975,0a5.676,5.676,0,0,1-6.009-6q-.014-12.8,0-25.6c0-.222-.049-.514.068-.651.228-.266.557-.613.844-.612s.643.336.838.616c.138.2.075.55.075.833q0,12.679,0,25.359a4.172,4.172,0,0,0,.82,2.741,3.628,3.628,0,0,0,2.831,1.466c2.334.041,4.669.012,7,.012l.1-.154" transform="translate(-26.719 -139.656)" fill="#12263f"/>
        <path id="Trazado_232635" data-name="Trazado 232635" d="M344.964,293.148c-.358.376-.7.766-1.077,1.126a.918.918,0,1,1-1.294-1.283q1.345-1.371,2.719-2.714a.906.906,0,0,1,1.4-.018q1.421,1.381,2.8,2.8a.894.894,0,0,1,.015,1.309.907.907,0,0,1-1.311-.037,8.339,8.339,0,0,1-.605-.6c-.176-.191-.334-.4-.5-.6l-.14.084c-.01.191-.03.382-.03.573,0,2.378,0,4.757,0,7.135a5.649,5.649,0,0,1-5.887,5.925c-2.887.01-5.774,0-8.661,0a2.723,2.723,0,0,1-.487-.021.828.828,0,0,1-.73-.781.806.806,0,0,1,.537-.922,2.331,2.331,0,0,1,.776-.1c2.846-.007,5.693,0,8.539-.006a3.829,3.829,0,0,0,4.083-4.08q.006-3.6,0-7.2v-.519l-.148-.08" transform="translate(-290.7 -254.507)" fill="#12263f"/>
        <path id="Trazado_232636" data-name="Trazado 232636" d="M423.259,82.994q0-3.932,0-7.864c0-1,.272-1.279,1.249-1.281q2.378,0,4.756,0c.9,0,1.2.307,1.2,1.211q0,7.956,0,15.912c0,.915-.287,1.207-1.194,1.21q-2.439.008-4.878,0c-.839,0-1.133-.3-1.134-1.14q-.006-4.024,0-8.047m5.34-7.275H425.14v14.63H428.6Z" transform="translate(-371.537 -64.823)" fill="#12263f"/>
        <path id="Trazado_232637" data-name="Trazado 232637" d="M59.3,40.709c-1.24,0-2.48,0-3.721,0-.749,0-1.183-.358-1.167-.941.016-.563.425-.881,1.154-.881q3.751,0,7.5,0c.75,0,1.183.351,1.167.931-.016.56-.432.889-1.154.891-1.261,0-2.521,0-3.782,0" transform="translate(-47.76 -34.132)" fill="#12263f"/>
        <path id="Trazado_232638" data-name="Trazado 232638" d="M59.361,66.682c1.26,0,2.52,0,3.78,0,.682,0,1.081.331,1.1.874.015.565-.4.947-1.1.949q-3.811.014-7.622,0c-.692,0-1.116-.4-1.095-.959.02-.544.415-.861,1.1-.864,1.28-.006,2.561,0,3.841,0" transform="translate(-47.765 -58.532)" fill="#12263f"/>
        <path id="Trazado_232639" data-name="Trazado 232639" d="M58.266,96.191c-.915,0-1.83.011-2.744,0-.708-.011-1.122-.379-1.107-.941.015-.541.413-.877,1.1-.88q2.805-.013,5.611,0c.7,0,1.062.328,1.064.9s-.362.907-1.053.92c-.955.018-1.911,0-2.866,0" transform="translate(-47.764 -82.829)" fill="#12263f"/>
      </g>
    </g>
  </g>
</svg>
