<svg xmlns="http://www.w3.org/2000/svg" xmlns:xlink="http://www.w3.org/1999/xlink" width="364.822" height="227.637" viewBox="0 0 364.822 227.637">
  <defs>
    <clipPath id="clip-path">
      <rect id="Rectángulo_59232" data-name="Rectángulo 59232" width="364.822" height="227.638" fill="none"/>
    </clipPath>
    <clipPath id="clip-path-9">
      <rect id="Rectángulo_59224" data-name="Rectángulo 59224" width="71.712" height="71.712" fill="none"/>
    </clipPath>
    <clipPath id="clip-path-10">
      <rect id="Rectángulo_59225" data-name="Rectángulo 59225" width="29.436" height="25.701" fill="none"/>
    </clipPath>
    <clipPath id="clip-path-12">
      <rect id="Rectángulo_59227" data-name="Rectángulo 59227" width="2.087" height="2.062" fill="none"/>
    </clipPath>
    <clipPath id="clip-path-13">
      <rect id="Rectángulo_59228" data-name="Rectángulo 59228" width="1.929" height="1.901" fill="none"/>
    </clipPath>
    <clipPath id="clip-path-14">
      <rect id="Rectángulo_59229" data-name="Rectángulo 59229" width="7.09" height="10.865" fill="none"/>
    </clipPath>
    <clipPath id="clip-path-15">
      <rect id="Rectángulo_59230" data-name="Rectángulo 59230" width="39.165" height="23.706" fill="none"/>
    </clipPath>
  </defs>
  <g id="Grupo_182392" data-name="Grupo 182392" transform="translate(0 0)">
    <g id="Grupo_181932" data-name="Grupo 181932" transform="translate(0 0)" clip-path="url(#clip-path)">
      <g id="Grupo_181899" data-name="Grupo 181899" transform="translate(0 -0.001)">
        <g id="Grupo_181898" data-name="Grupo 181898" clip-path="url(#clip-path)">
          <path id="Trazado_235395" data-name="Trazado 235395" d="M53.188,170.288a18.825,18.825,0,0,1,4.357-2.466l.464-4.619,7.623-.939,1.572,4.368a18.789,18.789,0,0,1,4.825,1.334l3.593-2.937,6.055,4.726-1.977,4.2a18.778,18.778,0,0,1,2.466,4.358l4.619.463.939,7.623-4.368,1.572a18.818,18.818,0,0,1-1.334,4.825l2.936,3.594-4.725,6.054-4.2-1.977a18.814,18.814,0,0,1-4.358,2.466l-.464,4.619-7.622.939-1.572-4.368a18.8,18.8,0,0,1-4.825-1.334L53.6,205.725,47.547,201l1.976-4.2a18.8,18.8,0,0,1-2.466-4.358l-4.619-.464-.939-7.623,4.368-1.572a18.841,18.841,0,0,1,1.334-4.825l-2.937-3.593,4.726-6.055Zm5.144,9.744A8.239,8.239,0,1,0,69.9,178.606a8.239,8.239,0,0,0-11.564,1.426" transform="translate(-20.155 -78.805)" fill="#ebebeb"/>
          <path id="Trazado_235396" data-name="Trazado 235396" d="M482.413,4.832a13.629,13.629,0,0,1,3.324-1.445L486.421.1l5.558-.1.8,3.263a13.628,13.628,0,0,1,3.373,1.327l2.809-1.841,4,3.862-1.741,2.872a13.624,13.624,0,0,1,1.444,3.324l3.289.685.1,5.558-3.263.8a13.625,13.625,0,0,1-1.326,3.372L503.3,26.03l-3.861,4-2.872-1.741a13.611,13.611,0,0,1-3.324,1.444l-.685,3.29-5.558.1-.8-3.263a13.621,13.621,0,0,1-3.372-1.327l-2.809,1.842-4-3.862,1.742-2.872a13.615,13.615,0,0,1-1.445-3.324l-3.29-.685-.1-5.558,3.264-.8A13.639,13.639,0,0,1,477.52,9.9L475.68,7.09l3.861-4Zm2.963,7.4a5.964,5.964,0,1,0,8.433-.148,5.963,5.963,0,0,0-8.433.148" transform="translate(-229.687 0.001)" fill="#f5f5f5"/>
          <path id="Trazado_235397" data-name="Trazado 235397" d="M619.217,102.534a8.6,8.6,0,0,1,2.1-.911l.432-2.074,3.505-.061.5,2.058a8.579,8.579,0,0,1,2.127.836l1.771-1.161,2.522,2.435-1.1,1.81a8.567,8.567,0,0,1,.911,2.1l2.074.432.062,3.5-2.058.5a8.582,8.582,0,0,1-.837,2.126l1.161,1.772-2.434,2.522-1.811-1.1a8.585,8.585,0,0,1-2.1.911l-.432,2.074-3.5.061-.5-2.058a8.609,8.609,0,0,1-2.126-.836l-1.771,1.161-2.522-2.435,1.1-1.81a8.568,8.568,0,0,1-.911-2.1l-2.074-.432-.062-3.5,2.058-.5a8.586,8.586,0,0,1,.837-2.126l-1.161-1.772,2.434-2.522Zm1.868,4.669a3.76,3.76,0,1,0,5.317-.094,3.76,3.76,0,0,0-5.317.094" transform="translate(-297.829 -48.318)" fill="#f5f5f5"/>
          <path id="Trazado_235398" data-name="Trazado 235398" d="M42.981,69.018a16.709,16.709,0,0,1,4.076-1.771l.839-4.034,6.816-.12.981,4a16.7,16.7,0,0,1,4.136,1.627l3.445-2.258,4.9,4.735-2.135,3.521A16.711,16.711,0,0,1,67.813,78.8l4.034.839.12,6.816-4,.981a16.708,16.708,0,0,1-1.627,4.135L68.6,95.014l-4.734,4.9-3.522-2.135a16.693,16.693,0,0,1-4.077,1.771l-.839,4.034-6.816.119-.981-4a16.7,16.7,0,0,1-4.136-1.627l-3.444,2.258-4.9-4.735,2.136-3.521A16.7,16.7,0,0,1,35.506,88l-4.034-.839-.12-6.816,4-.981a16.729,16.729,0,0,1,1.627-4.135l-2.258-3.444,4.734-4.9Zm3.633,9.08a7.313,7.313,0,1,0,10.34-.182,7.313,7.313,0,0,0-10.34.182" transform="translate(-15.227 -30.642)" fill="#f5f5f5"/>
          <path id="Trazado_235399" data-name="Trazado 235399" d="M620.841,161.474a13.621,13.621,0,0,1,3.324-1.445l.685-3.29,5.558-.1.8,3.263a13.615,13.615,0,0,1,3.372,1.327l2.809-1.841,4,3.862-1.741,2.871a13.615,13.615,0,0,1,1.444,3.324l3.289.685.1,5.558-3.263.8a13.626,13.626,0,0,1-1.326,3.372l1.841,2.809-3.861,4L635,184.931a13.636,13.636,0,0,1-3.324,1.444l-.685,3.29-5.558.1-.8-3.264a13.623,13.623,0,0,1-3.372-1.327l-2.809,1.842-4-3.862,1.741-2.872a13.632,13.632,0,0,1-1.444-3.324l-3.29-.685-.1-5.558,3.264-.8a13.641,13.641,0,0,1,1.326-3.372l-1.841-2.809,3.861-4Zm2.963,7.4a5.964,5.964,0,1,0,8.432-.148,5.963,5.963,0,0,0-8.432.148" transform="translate(-296.917 -76.075)" fill="#ebebeb"/>
          <path id="Trazado_235400" data-name="Trazado 235400" d="M380.9,31.232a20.98,20.98,0,0,1,5.12-2.225l1.054-5.068,8.562-.15,1.232,5.027a20.969,20.969,0,0,1,5.195,2.044l4.328-2.837,6.16,5.948L409.87,38.4a20.965,20.965,0,0,1,2.225,5.121l5.067,1.054.15,8.562-5.027,1.232a20.977,20.977,0,0,1-2.043,5.195l2.836,4.328-5.948,6.16-4.423-2.682a20.982,20.982,0,0,1-5.121,2.225l-1.055,5.067-8.562.151-1.232-5.028a21,21,0,0,1-5.195-2.044l-4.327,2.837-6.161-5.948,2.682-4.424a20.971,20.971,0,0,1-2.225-5.12l-5.067-1.055-.15-8.562,5.027-1.233a20.993,20.993,0,0,1,2.043-5.194l-2.836-4.327,5.947-6.161Zm4.564,11.406a9.186,9.186,0,1,0,12.989-.228,9.186,9.186,0,0,0-12.989.228" transform="translate(-177.898 -11.554)" fill="#ebebeb"/>
        </g>
      </g>
      <g id="Grupo_181901" data-name="Grupo 181901" transform="translate(0 -0.001)">
        <g id="Grupo_181900" data-name="Grupo 181900" clip-path="url(#clip-path)">
          <path id="Trazado_235401" data-name="Trazado 235401" d="M364.822,387.217c0,.074-81.675.134-182.4.134C81.657,387.35,0,387.291,0,387.217s81.657-.134,182.42-.134c100.727,0,182.4.06,182.4.134" transform="translate(0 -187.993)" fill="#263238"/>
        </g>
      </g>
      <g id="Grupo_181903" data-name="Grupo 181903" transform="translate(0 -0.001)">
        <g id="Grupo_181902" data-name="Grupo 181902" clip-path="url(#clip-path)">
          <path id="Trazado_235402" data-name="Trazado 235402" d="M371.856,79.5H192.782a5.589,5.589,0,0,0-5.589,5.589V211.577a5.589,5.589,0,0,0,5.589,5.59H261.51s4.372,13.518-9.181,20.514h64.265s-15.3-5.246-11.367-20.514h66.629a5.59,5.59,0,0,0,5.59-5.59V85.094a5.59,5.59,0,0,0-5.59-5.59" transform="translate(-90.914 -38.612)" fill="#455a64"/>
          <path id="Trazado_235403" data-name="Trazado 235403" d="M371.2,320.286a3.45,3.45,0,0,1-4.859,4.858,1.244,1.244,0,0,1-.3-.3,3.45,3.45,0,0,1,4.859-4.858,1.225,1.225,0,0,1,.3.3" transform="translate(-177.4 -155.033)" fill="#263238"/>
          <path id="Trazado_235404" data-name="Trazado 235404" d="M377.273,196.216H193.187V89a4.988,4.988,0,0,1,4.988-4.988H372.286A4.988,4.988,0,0,1,377.273,89Z" transform="translate(-93.825 -40.8)" fill="#fff"/>
          <path id="Trazado_235405" data-name="Trazado 235405" d="M377.273,93.332H193.187V88.716a4.708,4.708,0,0,1,4.708-4.708H373.407a3.866,3.866,0,0,1,3.866,3.866Z" transform="translate(-93.825 -40.799)" fill="#ebebeb"/>
          <path id="Trazado_235406" data-name="Trazado 235406" d="M204.657,92.232a1.293,1.293,0,1,1-1.293-1.293,1.293,1.293,0,0,1,1.293,1.293" transform="translate(-98.139 -44.166)" fill="#e0e0e0"/>
          <path id="Trazado_235407" data-name="Trazado 235407" d="M212.152,92.232a1.293,1.293,0,1,1-1.293-1.293,1.293,1.293,0,0,1,1.293,1.293" transform="translate(-101.779 -44.166)" fill="#e0e0e0"/>
          <path id="Trazado_235408" data-name="Trazado 235408" d="M219.28,92.232a1.293,1.293,0,1,1-1.293-1.293,1.293,1.293,0,0,1,1.293,1.293" transform="translate(-105.241 -44.166)" fill="#e0e0e0"/>
          <path id="Trazado_235409" data-name="Trazado 235409" d="M376.5,347.09c0,.059-25.482.107-56.909.107s-56.914-.048-56.914-.107,25.477-.108,56.914-.108,56.909.048,56.909.108" transform="translate(-127.573 -168.518)" fill="#263238"/>
          <rect id="Rectángulo_59185" data-name="Rectángulo 59185" width="183.604" height="40.986" transform="translate(99.425 67.62)" fill="#f5f5f5"/>
          <rect id="Rectángulo_59186" data-name="Rectángulo 59186" width="26.497" height="6.936" transform="translate(103.931 56.827)" fill="#f5f5f5"/>
          <rect id="Rectángulo_59187" data-name="Rectángulo 59187" width="14.508" height="6.936" transform="translate(264.163 56.827)" fill="#f5f5f5"/>
          <rect id="Rectángulo_59188" data-name="Rectángulo 59188" width="23.742" height="6.936" transform="translate(236.062 56.827)" fill="#f5f5f5"/>
          <rect id="Rectángulo_59189" data-name="Rectángulo 59189" width="23.742" height="6.936" transform="translate(207.383 56.827)" fill="#f5f5f5"/>
          <rect id="Rectángulo_59190" data-name="Rectángulo 59190" width="161.821" height="7.265" transform="translate(108.363 120.154)" fill="#f5f5f5"/>
          <rect id="Rectángulo_59191" data-name="Rectángulo 59191" width="161.821" height="7.265" transform="translate(108.363 133.674)" fill="#f5f5f5"/>
          <path id="Trazado_235410" data-name="Trazado 235410" d="M334.571,168.946l4.46-4.46,7.779,7.09,13.708-13.693,4.142,4.46-18.487,17.835Z" transform="translate(-162.49 -76.678)" fill="#5573c6"/>
          <path id="Trazado_235411" data-name="Trazado 235411" d="M344.236,155.749a19.727,19.727,0,0,1-2.966-3.5,19.733,19.733,0,0,1,2.966,3.5" transform="translate(-165.742 -73.939)" fill="#263238"/>
          <path id="Trazado_235412" data-name="Trazado 235412" d="M358.207,148.37a46.657,46.657,0,0,1-.363-4.982,46.668,46.668,0,0,1-.095-5,46.756,46.756,0,0,1,.362,4.983,46.586,46.586,0,0,1,.1,4.995" transform="translate(-173.73 -67.212)" fill="#263238"/>
          <path id="Trazado_235413" data-name="Trazado 235413" d="M373.716,151.85a23.287,23.287,0,0,1-3.1,3.909,23.339,23.339,0,0,1,3.1-3.909" transform="translate(-179.995 -73.747)" fill="#263238"/>
        </g>
      </g>
      <g id="Grupo_181905" data-name="Grupo 181905" transform="translate(0 -0.001)">
        <g id="Grupo_181904" data-name="Grupo 181904" clip-path="url(#clip-path)">
          <path id="Trazado_235414" data-name="Trazado 235414" d="M540.415,273.743H464.153a3.737,3.737,0,0,1-3.737-3.737V157.312a3.737,3.737,0,0,1,3.737-3.737h76.262a3.737,3.737,0,0,1,3.737,3.737V270.006a3.737,3.737,0,0,1-3.737,3.737" transform="translate(-223.609 -74.586)" fill="#e0e0e0"/>
          <path id="Trazado_235415" data-name="Trazado 235415" d="M540.288,273.616s.087-.009.26-.02a3.582,3.582,0,0,0,.758-.138,3.742,3.742,0,0,0,2.271-1.868,3.864,3.864,0,0,0,.346-.992,5.887,5.887,0,0,0,.068-1.169q0-1.237-.006-2.7c0-1.956-.008-4.21-.012-6.749-.01-10.159-.025-24.854-.043-43.011-.005-9.08-.01-19.025-.016-29.7q0-8.007-.007-16.547,0-4.265,0-8.653,0-2.193,0-4.416a5.816,5.816,0,0,0-.058-1.088,3.5,3.5,0,0,0-.341-1.019,3.665,3.665,0,0,0-1.491-1.532,3.955,3.955,0,0,0-1.022-.368,5.6,5.6,0,0,0-1.1-.069h-6.855l-9.324,0-19.231,0-40.441,0a3.6,3.6,0,0,0-3.548,2.935,6.478,6.478,0,0,0-.065,1.261v3.859q0,5.132,0,10.194,0,10.122,0,19.93c0,13.067-.005,25.67-.008,37.676s-.008,23.415-.012,34.093q0,2,0,3.97,0,.984,0,1.959a4.228,4.228,0,0,0,.295,1.857,3.642,3.642,0,0,0,2.828,2.158,6.281,6.281,0,0,0,.928.04h2.809l14.252.009,43.009.043,11.693.025,3.041.013c.685,0,1.036.014,1.036.014s-.351.009-1.036.014l-3.041.013-11.693.025-43.009.043-14.252.009h-2.809a6.5,6.5,0,0,1-.958-.041,3.855,3.855,0,0,1-3-2.282,4.451,4.451,0,0,1-.314-1.942q0-.975,0-1.959,0-1.967,0-3.97c0-10.678-.008-22.086-.012-34.093s-.005-24.61-.008-37.676q0-9.8,0-19.93,0-5.061,0-10.194v-3.859a6.706,6.706,0,0,1,.069-1.311,3.868,3.868,0,0,1,3.812-3.153l40.441,0,19.231,0,9.324,0h6.855a5.86,5.86,0,0,1,1.151.075,4.217,4.217,0,0,1,1.091.393,3.916,3.916,0,0,1,1.592,1.637,3.753,3.753,0,0,1,.364,1.089,6.018,6.018,0,0,1,.061,1.13q0,2.223,0,4.416,0,4.386,0,8.653,0,8.53-.007,16.547c-.006,10.677-.011,20.622-.016,29.7-.018,18.157-.032,32.852-.042,43.011,0,2.539-.009,4.794-.012,6.749q0,1.466-.007,2.7a5.949,5.949,0,0,1-.075,1.181,3.912,3.912,0,0,1-.357,1,3.755,3.755,0,0,1-2.312,1.87,3.41,3.41,0,0,1-.765.126c-.174.006-.261.006-.261.006" transform="translate(-223.483 -74.459)" fill="#263238"/>
          <path id="Trazado_235416" data-name="Trazado 235416" d="M540.335,273.663s.087-.007.26-.017a2.218,2.218,0,0,0,.321-.039,3.172,3.172,0,0,0,.439-.1,3.743,3.743,0,0,0,2.279-1.869,3.893,3.893,0,0,0,.348-.994,5.9,5.9,0,0,0,.069-1.171q0-1.238,0-2.7c0-1.955-.005-4.21-.008-6.749-.007-10.157-.016-24.853-.027-43.011,0-9.08-.006-19.025-.01-29.7q0-8.007,0-16.547,0-4.265,0-8.653,0-2.193,0-4.416a5.82,5.82,0,0,0-.059-1.1,3.554,3.554,0,0,0-.346-1.033,3.709,3.709,0,0,0-1.51-1.551,3.984,3.984,0,0,0-1.034-.372,5.6,5.6,0,0,0-1.111-.07H523.756l-19.231,0-40.441,0a3.65,3.65,0,0,0-3.6,2.975,6.542,6.542,0,0,0-.065,1.27v3.859q0,5.132,0,10.194,0,10.122,0,19.93c0,13.067,0,25.67-.005,37.676s-.005,23.415-.008,34.093q0,2,0,3.97,0,.984,0,1.958a6.063,6.063,0,0,0,.043.961,3.643,3.643,0,0,0,3.114,3.093,6.328,6.328,0,0,0,.934.04H467.3l14.252.005,43.008.027,11.693.016,3.041.008c.685,0,1.036.009,1.036.009s-.351.006-1.036.009l-3.041.008-11.693.016-43.008.027-14.252.006H464.5a6.4,6.4,0,0,1-.952-.041,3.778,3.778,0,0,1-3.229-3.2,6.213,6.213,0,0,1-.045-.98q0-.974,0-1.958,0-1.967,0-3.97c0-10.678,0-22.087-.008-34.093s0-24.61,0-37.676q0-9.8,0-19.93,0-5.06,0-10.194v-3.859a6.708,6.708,0,0,1,.068-1.3,3.818,3.818,0,0,1,3.763-3.112l40.441,0,19.231,0,9.324,0h6.855a5.73,5.73,0,0,1,1.141.074,4.165,4.165,0,0,1,1.079.388,3.871,3.871,0,0,1,1.573,1.617,3.7,3.7,0,0,1,.36,1.077,5.98,5.98,0,0,1,.06,1.123q0,2.223,0,4.416,0,4.387,0,8.653,0,8.531,0,16.547c0,10.677-.007,20.622-.01,29.7-.011,18.158-.021,32.854-.027,43.011,0,2.539-.006,4.794-.008,6.749q0,1.466,0,2.7a5.941,5.941,0,0,1-.074,1.179,3.911,3.911,0,0,1-.355,1,3.746,3.746,0,0,1-2.3,1.87,3.061,3.061,0,0,1-.442.094,2.142,2.142,0,0,1-.322.034c-.174.007-.261.009-.261.009" transform="translate(-223.53 -74.506)" fill="#263238"/>
          <path id="Trazado_235417" data-name="Trazado 235417" d="M542,372.439a3.213,3.213,0,1,1-3.213-3.213A3.213,3.213,0,0,1,542,372.439" transform="translate(-260.11 -179.32)" fill="#fff"/>
          <path id="Trazado_235418" data-name="Trazado 235418" d="M544.884,162.553h-17.1a1.193,1.193,0,0,1,0-2.385h17.1a1.193,1.193,0,0,1,0,2.385" transform="translate(-255.748 -77.788)" fill="#ebebeb"/>
          <path id="Trazado_235419" data-name="Trazado 235419" d="M542.612,270.6H466.659a1.251,1.251,0,0,1-1.251-1.251V171.494a1.251,1.251,0,0,1,1.251-1.251h75.953a1.251,1.251,0,0,1,1.251,1.251v97.853a1.251,1.251,0,0,1-1.251,1.251" transform="translate(-226.034 -82.681)" fill="#fff"/>
          <path id="Trazado_235420" data-name="Trazado 235420" d="M542.486,270.472c0-.007.079,0,.229-.029a1.239,1.239,0,0,0,.6-.3,1.254,1.254,0,0,0,.4-1q0-.675-.007-1.563c-.006-2.371-.014-5.862-.025-10.357-.01-9-.025-22.011-.043-38.091-.005-8.041-.011-16.849-.016-26.3q0-7.092-.007-14.654,0-1.889,0-3.8,0-.958,0-1.923v-.966a1.166,1.166,0,0,0-.258-.827,1.13,1.13,0,0,0-.755-.405c-.3-.012-.643,0-.963-.006h-1.962l-3.961,0-69.175.01a1.121,1.121,0,0,0-.891.435,1.135,1.135,0,0,0-.212.461,3.14,3.14,0,0,0-.022.546v6.85q0,4.545,0,9.028,0,8.963,0,17.65c0,11.571-.006,22.733-.008,33.366s-.008,20.736-.012,30.193v.442a1.168,1.168,0,0,0,.072.394,1.138,1.138,0,0,0,.51.6,1.41,1.41,0,0,0,.8.148h.873l3.453,0,6.714,0,12.622.009,38.088.043,10.356.025,2.693.013c.607,0,.918.014.918.014s-.311.009-.918.014l-2.693.013-10.356.025-38.088.043-12.622.009-6.714,0-3.453,0h-.873a1.634,1.634,0,0,1-.9-.174,1.362,1.362,0,0,1-.609-.714,1.388,1.388,0,0,1-.086-.471v-.442c0-9.456-.008-19.56-.012-30.193s-.005-21.795-.008-33.366q0-8.679,0-17.65,0-4.482,0-9.028v-6.85a3.361,3.361,0,0,1,.027-.6,1.39,1.39,0,0,1,1.366-1.111l69.175.01,3.961,0h1.962c.331,0,.639-.007.988.008a1.374,1.374,0,0,1,.917.493,1.411,1.411,0,0,1,.313.98v.966q0,.964,0,1.923,0,1.916,0,3.8,0,7.554-.007,14.654c-.006,9.455-.011,18.262-.016,26.3-.018,16.08-.032,29.093-.043,38.091-.011,4.495-.019,7.986-.025,10.357q0,.887-.007,1.563a1.283,1.283,0,0,1-.425,1.022,1.229,1.229,0,0,1-.615.3.847.847,0,0,1-.231.015" transform="translate(-225.907 -82.555)" fill="#263238"/>
          <rect id="Rectángulo_59193" data-name="Rectángulo 59193" width="77.663" height="28.433" transform="translate(239.843 101.856)" fill="#f5f5f5"/>
          <rect id="Rectángulo_59194" data-name="Rectángulo 59194" width="18.381" height="4.812" transform="translate(241.572 92.233)" fill="#f5f5f5"/>
          <rect id="Rectángulo_59195" data-name="Rectángulo 59195" width="16.47" height="4.812" transform="translate(299.504 92.233)" fill="#f5f5f5"/>
          <rect id="Rectángulo_59196" data-name="Rectángulo 59196" width="16.47" height="4.812" transform="translate(279.903 92.233)" fill="#f5f5f5"/>
          <rect id="Rectángulo_59197" data-name="Rectángulo 59197" width="66.308" height="5.04" transform="translate(244.668 144.931)" fill="#f5f5f5"/>
          <rect id="Rectángulo_59198" data-name="Rectángulo 59198" width="66.308" height="5.04" transform="translate(244.668 135.398)" fill="#f5f5f5"/>
          <rect id="Rectángulo_59199" data-name="Rectángulo 59199" width="66.308" height="5.04" transform="translate(244.668 164.451)" fill="#f5f5f5"/>
          <rect id="Rectángulo_59200" data-name="Rectángulo 59200" width="66.308" height="5.04" transform="translate(244.668 154.918)" fill="#f5f5f5"/>
          <path id="Trazado_235421" data-name="Trazado 235421" d="M512.568,236.245l4.46-4.46,7.779,7.09,13.708-13.693,4.142,4.46L524.17,247.476Z" transform="translate(-248.938 -109.363)" fill="#f4a338"/>
        </g>
      </g>
      <g id="Grupo_181907" data-name="Grupo 181907" transform="translate(0 -0.001)">
        <g id="Grupo_181906" data-name="Grupo 181906" clip-path="url(#clip-path)">
          <path id="Trazado_235422" data-name="Trazado 235422" d="M627.751,297.592l-32.44-.019a7.056,7.056,0,0,1-7.062-7.048l.016-81.1a7.056,7.056,0,0,1,7.07-7.045l32.44.019a7.056,7.056,0,0,1,7.062,7.047l-.016,81.1a7.056,7.056,0,0,1-7.07,7.045" transform="translate(-285.693 -98.29)" fill="#263238"/>
          <path id="Trazado_235423" data-name="Trazado 235423" d="M629.788,206.978l-6.311-.029a1.568,1.568,0,0,0-1.54,1.6l-.005,1.144a1.567,1.567,0,0,1-1.539,1.6l-12.3-.057a1.569,1.569,0,0,1-1.526-1.609l.005-1.144a1.569,1.569,0,0,0-1.526-1.609l-2.22-.01-5.524-.026a4.967,4.967,0,0,0-4.989,4.945l-.337,79.658a4.966,4.966,0,0,0,4.943,4.987l32.488.15a4.966,4.966,0,0,0,4.989-4.945l.337-79.658a4.967,4.967,0,0,0-4.943-4.987" transform="translate(-287.503 -100.449)" fill="#fff"/>
          <rect id="Rectángulo_59202" data-name="Rectángulo 59202" width="42.276" height="15.478" transform="translate(304.711 120.709)" fill="#f5f5f5"/>
          <rect id="Rectángulo_59203" data-name="Rectángulo 59203" width="10.006" height="2.619" transform="translate(305.653 115.471)" fill="#f5f5f5"/>
          <rect id="Rectángulo_59204" data-name="Rectángulo 59204" width="8.966" height="2.619" transform="translate(337.188 115.471)" fill="#f5f5f5"/>
          <rect id="Rectángulo_59205" data-name="Rectángulo 59205" width="8.966" height="2.619" transform="translate(326.519 115.471)" fill="#f5f5f5"/>
          <rect id="Rectángulo_59206" data-name="Rectángulo 59206" width="36.095" height="2.743" transform="translate(307.338 144.158)" fill="#f5f5f5"/>
          <rect id="Rectángulo_59207" data-name="Rectángulo 59207" width="36.095" height="2.743" transform="translate(307.338 138.968)" fill="#f5f5f5"/>
          <rect id="Rectángulo_59208" data-name="Rectángulo 59208" width="36.095" height="2.743" transform="translate(307.338 154.783)" fill="#f5f5f5"/>
          <rect id="Rectángulo_59209" data-name="Rectángulo 59209" width="36.095" height="2.743" transform="translate(307.338 159.637)" fill="#f5f5f5"/>
          <rect id="Rectángulo_59210" data-name="Rectángulo 59210" width="36.095" height="2.743" transform="translate(307.338 165.184)" fill="#f5f5f5"/>
          <rect id="Rectángulo_59211" data-name="Rectángulo 59211" width="36.095" height="2.743" transform="translate(307.338 170.731)" fill="#f5f5f5"/>
          <rect id="Rectángulo_59212" data-name="Rectángulo 59212" width="36.095" height="2.743" transform="translate(307.338 176.278)" fill="#f5f5f5"/>
          <rect id="Rectángulo_59213" data-name="Rectángulo 59213" width="36.095" height="2.743" transform="translate(307.338 149.594)" fill="#f5f5f5"/>
          <path id="Trazado_235424" data-name="Trazado 235424" d="M611.282,290.712l3.491-3.491,6.732,5.984L634.72,280.49l3.241,3.491-16.955,15.958Z" transform="translate(-296.88 -136.224)" fill="#12263f"/>
        </g>
      </g>
      <g id="Grupo_181909" data-name="Grupo 181909" transform="translate(0 -0.001)">
        <g id="Grupo_181908" data-name="Grupo 181908" clip-path="url(#clip-path)">
          <path id="Trazado_235425" data-name="Trazado 235425" d="M151.8,295.474H26.29a7.492,7.492,0,0,1-7.492-7.492V210.058a7.492,7.492,0,0,1,7.492-7.492H151.8a7.492,7.492,0,0,1,7.492,7.492v77.923a7.492,7.492,0,0,1-7.492,7.492" transform="translate(-9.13 -98.379)" fill="#263238"/>
          <path id="Trazado_235426" data-name="Trazado 235426" d="M152.57,379.667H15.89A7.767,7.767,0,0,1,8.123,371.9v-.362H160.338v.362a7.767,7.767,0,0,1-7.767,7.767" transform="translate(-3.945 -180.443)" fill="#263238"/>
          <rect id="Rectángulo_59215" data-name="Rectángulo 59215" width="132.559" height="78.459" transform="translate(13.44 107.879)" fill="#263238"/>
          <path id="Trazado_235427" data-name="Trazado 235427" d="M128.45,369.843l1.889,3h26.579l1.754-3Z" transform="translate(-62.384 -179.62)" fill="#455a64"/>
          <path id="Trazado_235428" data-name="Trazado 235428" d="M157.127,290.459h-124a1.684,1.684,0,0,1-1.684-1.683V216.59a1.684,1.684,0,0,1,1.683-1.683h124a1.683,1.683,0,0,1,1.682,1.683v72.185a1.683,1.683,0,0,1-1.682,1.683" transform="translate(-15.269 -104.373)" fill="#ebebeb"/>
          <path id="Trazado_235429" data-name="Trazado 235429" d="M158.545,295.9H31.174l.136-70.016H158.545Z" transform="translate(-15.14 -109.705)" fill="#fff"/>
          <path id="Trazado_235430" data-name="Trazado 235430" d="M49.829,219.619a1.017,1.017,0,1,1-1.018-1.017,1.018,1.018,0,0,1,1.018,1.017" transform="translate(-23.212 -106.167)" fill="#263238"/>
          <path id="Trazado_235431" data-name="Trazado 235431" d="M37.842,219.619a1.017,1.017,0,1,1-1.017-1.017,1.017,1.017,0,0,1,1.017,1.017" transform="translate(-17.39 -106.167)" fill="#263238"/>
          <path id="Trazado_235432" data-name="Trazado 235432" d="M43.595,219.619a1.017,1.017,0,1,1-1.017-1.017,1.017,1.017,0,0,1,1.017,1.017" transform="translate(-20.184 -106.167)" fill="#263238"/>
          <path id="Trazado_235433" data-name="Trazado 235433" d="M158.085,369.757c0,.05-31.183.091-69.64.091s-69.647-.041-69.647-.091,31.176-.091,69.647-.091,69.64.041,69.64.091" transform="translate(-9.13 -179.534)" fill="#455a64"/>
          <rect id="Rectángulo_59216" data-name="Rectángulo 59216" width="127.371" height="28.433" transform="translate(16.17 127.468)" fill="#f5f5f5"/>
          <rect id="Rectángulo_59217" data-name="Rectángulo 59217" width="18.381" height="4.812" transform="translate(19.297 119.98)" fill="#f5f5f5"/>
          <rect id="Rectángulo_59218" data-name="Rectángulo 59218" width="10.065" height="4.812" transform="translate(130.453 119.98)" fill="#f5f5f5"/>
          <rect id="Rectángulo_59219" data-name="Rectángulo 59219" width="16.47" height="4.812" transform="translate(110.958 119.98)" fill="#f5f5f5"/>
          <rect id="Rectángulo_59220" data-name="Rectángulo 59220" width="16.47" height="4.812" transform="translate(91.064 119.98)" fill="#f5f5f5"/>
          <rect id="Rectángulo_59221" data-name="Rectángulo 59221" width="112.259" height="5.04" transform="translate(22.393 172.679)" fill="#f5f5f5"/>
          <rect id="Rectángulo_59222" data-name="Rectángulo 59222" width="112.259" height="5.04" transform="translate(22.393 163.145)" fill="#f5f5f5"/>
          <path id="Trazado_235434" data-name="Trazado 235434" d="M123.869,272.276l4.46-4.46,8.6,7.647,16.886-16.249,4.141,4.46-21.664,20.39Z" transform="translate(-60.159 -125.891)" fill="#4adbd1"/>
        </g>
      </g>
      <g id="Grupo_181917" data-name="Grupo 181917" transform="translate(0 -0.001)">
        <g id="Grupo_181916" data-name="Grupo 181916" clip-path="url(#clip-path)">
          <path id="Trazado_235435" data-name="Trazado 235435" d="M227.263,64.117a35.856,35.856,0,1,1-35.856-35.856,35.856,35.856,0,0,1,35.856,35.856" transform="translate(-75.546 -13.725)" fill="#2344a0"/>
          <path id="Trazado_235437" data-name="Trazado 235437" d="M225.385,59.66A35.856,35.856,0,1,1,189.529,23.8,35.856,35.856,0,0,1,225.385,59.66" transform="translate(-74.634 -11.56)" fill="#5573c6"/>
          <path id="Trazado_235438" data-name="Trazado 235438" d="M224.942,67.179a27.893,27.893,0,1,1-27.893-27.893,27.893,27.893,0,0,1,27.893,27.893" transform="translate(-82.153 -19.079)" fill="#fff"/>
          <path id="Trazado_235439" data-name="Trazado 235439" d="M224.482,74.986a19.625,19.625,0,1,1-19.625-19.625,19.625,19.625,0,0,1,19.625,19.625" transform="translate(-89.961 -26.887)" fill="#5573c6"/>
          <path id="Trazado_235440" data-name="Trazado 235440" d="M223.965,83.74A10.355,10.355,0,1,1,213.61,73.385,10.355,10.355,0,0,1,223.965,83.74" transform="translate(-98.714 -35.64)" fill="#fff"/>
          <path id="Trazado_235441" data-name="Trazado 235441" d="M276.4,21.962l-.974-7.65,7.786-8.334.561,8.255Z" transform="translate(-133.766 -2.903)" fill="#455a64"/>
          <path id="Trazado_235442" data-name="Trazado 235442" d="M294.88,24.612l-7.9-.643-7.918,7.617,7.92.847Z" transform="translate(-135.531 -11.641)" fill="#455a64"/>
          <g id="Grupo_181915" data-name="Grupo 181915" transform="translate(114.896 23.001)" opacity="0.3">
            <g id="Grupo_181914" data-name="Grupo 181914">
              <g id="Grupo_181913" data-name="Grupo 181913" clip-path="url(#clip-path-10)">
                <path id="Trazado_235443" data-name="Trazado 235443" d="M223.388,70.421l29.436-21.08a39.974,39.974,0,0,0-3.738-4.62L223.871,69.1Z" transform="translate(-223.388 -44.72)"/>
              </g>
            </g>
          </g>
          <path id="Trazado_235444" data-name="Trazado 235444" d="M258.613,18.658,254.918,22.4l-8.871,8.988L235.362,42.218l-9.283,9.406c-1.5,1.523-3.074,3-4.519,4.58-.021.023-.043.044-.065.065-.873.885.49,2.249,1.363,1.364l3.694-3.743,8.871-8.988,10.686-10.828,9.283-9.406c1.5-1.522,3.074-3,4.519-4.58.021-.023.043-.044.065-.065.872-.885-.49-2.249-1.364-1.364" transform="translate(-107.437 -8.922)" fill="#263238"/>
        </g>
      </g>
      <g id="Grupo_181931" data-name="Grupo 181931" transform="translate(0 -0.001)">
        <g id="Grupo_181930" data-name="Grupo 181930" clip-path="url(#clip-path)">
          <path id="Trazado_235445" data-name="Trazado 235445" d="M415.164,189.172a2.483,2.483,0,0,1-.819-4.872,2.583,2.583,0,0,1,2.457-4.242,3.091,3.091,0,0,1,4.777-2.307,3.476,3.476,0,0,1,4.278.119,2.472,2.472,0,0,1,1.979,4.293" transform="translate(-200.348 -85.998)" fill="#263238"/>
          <path id="Trazado_235446" data-name="Trazado 235446" d="M415.608,192.556a10.533,10.533,0,0,1,10.941-9.186l.545.026c5.859.618,8.608,5.939,7.828,11.779L433.157,214.7l-.463,4.6-13.317-1.572.252-4.985s-5.607-1.142-5.413-6.793c.094-2.729.744-8.332,1.392-13.4" transform="translate(-201.169 -89.051)" fill="#99655c"/>
          <path id="Trazado_235447" data-name="Trazado 235447" d="M424.617,238.756a13.715,13.715,0,0,0,7.5-1.82s-1.93,3.982-7.541,3.21Z" transform="translate(-206.203 -115.072)" fill="#744a45"/>
          <path id="Trazado_235448" data-name="Trazado 235448" d="M419.338,210.707a.807.807,0,0,0,.74.85.773.773,0,0,0,.865-.689.808.808,0,0,0-.739-.85.773.773,0,0,0-.866.689" transform="translate(-203.658 -101.996)" fill="#263238"/>
          <path id="Trazado_235449" data-name="Trazado 235449" d="M419.025,205.99c.1.11.727-.314,1.595-.271s1.483.507,1.582.4c.048-.045-.044-.24-.312-.454a2.216,2.216,0,0,0-1.261-.454,2.129,2.129,0,0,0-1.276.347c-.277.192-.376.379-.329.428" transform="translate(-203.502 -99.665)" fill="#263238"/>
          <path id="Trazado_235450" data-name="Trazado 235450" d="M434.707,211.48a.807.807,0,0,0,.74.85.772.772,0,0,0,.865-.688.807.807,0,0,0-.739-.85.773.773,0,0,0-.866.689" transform="translate(-211.122 -102.372)" fill="#263238"/>
          <path id="Trazado_235451" data-name="Trazado 235451" d="M435.6,207.079c.1.11.728-.314,1.595-.271s1.483.507,1.583.4c.048-.045-.044-.239-.313-.454a2.213,2.213,0,0,0-1.261-.454,2.13,2.13,0,0,0-1.275.347c-.276.192-.375.378-.329.427" transform="translate(-211.549 -100.194)" fill="#263238"/>
          <path id="Trazado_235452" data-name="Trazado 235452" d="M426.837,213.228a5.737,5.737,0,0,0-1.4-.32c-.221-.033-.428-.087-.459-.24a1.131,1.131,0,0,1,.179-.65q.35-.79.734-1.657a28.933,28.933,0,0,0,1.678-4.345,29.127,29.127,0,0,0-2.023,4.2q-.37.873-.707,1.668a1.283,1.283,0,0,0-.155.864.556.556,0,0,0,.349.341,1.52,1.52,0,0,0,.374.07,5.676,5.676,0,0,0,1.429.069" transform="translate(-206.241 -100.055)" fill="#263238"/>
          <path id="Trazado_235453" data-name="Trazado 235453" d="M435.237,201.676c.1.225.859.022,1.776.035.917-.008,1.681.2,1.775-.024.041-.107-.112-.313-.434-.5a2.747,2.747,0,0,0-1.36-.353,2.657,2.657,0,0,0-1.345.345c-.313.19-.458.394-.412.5" transform="translate(-211.376 -97.536)" fill="#263238"/>
          <path id="Trazado_235454" data-name="Trazado 235454" d="M419.257,198.989c.173.206.9.034,1.761.065.863.006,1.585.207,1.762.009.079-.1-.027-.3-.337-.5a2.808,2.808,0,0,0-1.416-.39,2.764,2.764,0,0,0-1.423.331c-.313.188-.423.387-.347.487" transform="translate(-203.608 -96.245)" fill="#263238"/>
          <path id="Trazado_235455" data-name="Trazado 235455" d="M418.218,189.31s1.655-3.467,3.4-4.212c2.111-.9,2.894,1.4,4.887.947s4.009-1.324,5.948.29c2.123,1.767,1.037,2.887,1.056,5.4.077,10.184,1.8,13.144,2.548,8.384.082-.522,1.557-.871,1.876-3.075.414-2.859.687-6.341.141-8.409a8.047,8.047,0,0,0-3.079-4.367c-2.676-2.2-6.482-2.417-9.081-2.278s-7.724,2.882-7.695,7.322" transform="translate(-203.115 -88.37)" fill="#263238"/>
          <path id="Trazado_235456" data-name="Trazado 235456" d="M451.872,215.6a1.534,1.534,0,0,1,1.723-1.4c1.048.15,2.193.8,2.021,2.975-.3,3.855-4.111,2.755-4.108,2.644,0-.076.222-2.607.364-4.219" transform="translate(-219.283 -104.022)" fill="#99655c"/>
          <path id="Trazado_235457" data-name="Trazado 235457" d="M453.356,219.619c.018-.011.063.052.173.113a.67.67,0,0,0,.5.05,1.666,1.666,0,0,0,.887-1.43,2.215,2.215,0,0,0-.113-.976.777.777,0,0,0-.464-.555.343.343,0,0,0-.411.153c-.06.1-.042.183-.063.188s-.078-.071-.034-.228A.43.43,0,0,1,454,216.7a.507.507,0,0,1,.379-.069.947.947,0,0,1,.655.653,2.3,2.3,0,0,1,.148,1.093,1.748,1.748,0,0,1-1.111,1.587.72.72,0,0,1-.606-.15c-.112-.1-.125-.192-.112-.2" transform="translate(-220.178 -105.207)" fill="#744a45"/>
          <path id="Trazado_235458" data-name="Trazado 235458" d="M438.668,191.218A3.668,3.668,0,0,1,437,191.9a1.26,1.26,0,0,1-1.355-.951c-.033-.271.047-.579-.12-.8-.2-.258-.591-.2-.917-.179a2.468,2.468,0,0,1-2.475-1.887,1.035,1.035,0,0,1-1.394.066,5.522,5.522,0,0,1-1-1.174,1.591,1.591,0,0,0-1.295-.725,3.8,3.8,0,0,1-.848.146c-.505-.068-.725-.674-.778-1.18s-.086-1.1-.5-1.39a2.023,2.023,0,0,0-1.378-.1c-.47.047-1.067-.091-1.165-.553a.919.919,0,0,1,.205-.692,2.5,2.5,0,0,1,3-.809,3.393,3.393,0,0,1,6.257-.366,3.443,3.443,0,0,1,5.439,1.511,2.5,2.5,0,0,1,2.642,3.758,2.371,2.371,0,0,1,1.214,1.946,1.357,1.357,0,0,1-1.6,1.313,1.382,1.382,0,0,1-2.452,1.266" transform="translate(-205.806 -87.125)" fill="#263238"/>
          <path id="Trazado_235459" data-name="Trazado 235459" d="M429.343,186a.2.2,0,0,0,0,.071c0,.046,0,.117.015.207a2.439,2.439,0,0,0,.246.757,2.768,2.768,0,0,0,.813.953,2.576,2.576,0,0,0,1.56.525l-.061-.088a1.4,1.4,0,0,0,.028,1.07,4,4,0,0,0,.616.98,2.843,2.843,0,0,0,.411.463,1.345,1.345,0,0,0,.6.256,1.409,1.409,0,0,0,1.263-.387l-.142-.048a2.9,2.9,0,0,0,1.135,2.061,2.118,2.118,0,0,0,1.248.475,3.81,3.81,0,0,0,1.262-.216l-.1-.05a3.044,3.044,0,0,0,.858,1.234,1.621,1.621,0,0,0,1.328.429,2.129,2.129,0,0,0,1.715-1.588l-.089.037a1.993,1.993,0,0,0,1.318.257,2.158,2.158,0,0,0,.944-.369,1.882,1.882,0,0,0,.454-.452.93.93,0,0,0,.107-.195,2.315,2.315,0,0,1-.6.592,2.144,2.144,0,0,1-.92.331,1.908,1.908,0,0,1-1.242-.264l-.07-.044-.019.081a2.007,2.007,0,0,1-1.621,1.469,1.474,1.474,0,0,1-1.205-.4,2.908,2.908,0,0,1-.805-1.171l-.027-.073-.074.022a3.683,3.683,0,0,1-1.207.205,1.948,1.948,0,0,1-1.153-.441,2.745,2.745,0,0,1-1.073-1.942l-.015-.184-.127.136a1.254,1.254,0,0,1-1.116.342,1.2,1.2,0,0,1-.533-.222,2.816,2.816,0,0,1-.388-.434,3.911,3.911,0,0,1-.6-.939,1.268,1.268,0,0,1-.039-.969l.036-.091-.1,0a2.49,2.49,0,0,1-1.5-.479,2.757,2.757,0,0,1-.81-.9,3,3,0,0,1-.322-1" transform="translate(-208.516 -90.336)" fill="#455a64"/>
          <path id="Trazado_235460" data-name="Trazado 235460" d="M426.976,224.491c-.014.037.2.169.59.255a3.263,3.263,0,0,0,2.89-.855c.282-.285.388-.512.356-.535a4.636,4.636,0,0,1-3.836,1.136" transform="translate(-207.368 -108.474)" fill="#263238"/>
          <path id="Trazado_235461" data-name="Trazado 235461" d="M399.131,344.993l34.2.466s9.565-4,12.193-4.11,7.844.226,10.257,4.11c2.494,4.014,2.842,11.1-4.843,16.243-7.484,5.011-41.709,9.643-46.4,9.216l-8.648-11.608s-.091-9.514,0-9.967,1.54-4.53,1.54-4.53Z" transform="translate(-192.251 -165.774)" fill="#263238"/>
          <path id="Trazado_235462" data-name="Trazado 235462" d="M434.792,378.352l20.42,7.585L445.9,411.391c-2.377-1.038-2.444-15.991-2.444-15.991l-13.283-4.323Z" transform="translate(-208.924 -183.753)" fill="#afafaf"/>
          <g id="Grupo_181920" data-name="Grupo 181920" transform="translate(236.132 202.931)" opacity="0.6">
            <g id="Grupo_181919" data-name="Grupo 181919">
              <g id="Grupo_181918" data-name="Grupo 181918" clip-path="url(#clip-path-12)">
                <path id="Trazado_235463" data-name="Trazado 235463" d="M459.284,394.993a1.107,1.107,0,0,1,1.449-.285,1.065,1.065,0,0,1,.3,1.434,1.169,1.169,0,0,1-1.536.294,1.1,1.1,0,0,1-.141-1.526" transform="translate(-459.104 -394.551)" fill="#fff"/>
              </g>
            </g>
          </g>
          <path id="Trazado_235464" data-name="Trazado 235464" d="M469.19,392.377l-2.061-.765-8.17,24.741s.079,1.314.924,1.477Z" transform="translate(-222.902 -190.193)" fill="#263238"/>
          <path id="Trazado_235465" data-name="Trazado 235465" d="M455.42,410.462c.125.041.409-.56,1.033-1.025.611-.482,1.265-.6,1.257-.732.018-.123-.793-.21-1.538.367s-.876,1.375-.752,1.39" transform="translate(-221.163 -198.45)" fill="#263238"/>
          <path id="Trazado_235466" data-name="Trazado 235466" d="M455.686,417.076c.11.072.518-.388,1.2-.618.673-.25,1.281-.149,1.32-.275.062-.109-.634-.462-1.475-.159s-1.162,1.007-1.044,1.052" transform="translate(-221.3 -201.99)" fill="#263238"/>
          <path id="Trazado_235467" data-name="Trazado 235467" d="M458.488,422.985c.068-.1-.49-.5-1.287-.433s-1.281.552-1.2.643c.077.108.58-.136,1.235-.184s1.191.093,1.248-.026" transform="translate(-221.462 -205.215)" fill="#263238"/>
          <path id="Trazado_235468" data-name="Trazado 235468" d="M449.638,407.182c.132-.011.169-.643.474-1.328s.727-1.152.644-1.256c-.064-.1-.719.261-1.067,1.073s-.171,1.537-.051,1.511" transform="translate(-218.299 -196.491)" fill="#263238"/>
          <path id="Trazado_235469" data-name="Trazado 235469" d="M443.4,402.113a2.538,2.538,0,0,0,.459-1.277,6.087,6.087,0,0,0,.078-1.483,6.3,6.3,0,0,0-.121-.874,1.658,1.658,0,0,0-.159-.494.576.576,0,0,0-.64-.3.726.726,0,0,0-.483.44,1.759,1.759,0,0,0-.109.5,4.872,4.872,0,0,0-.018.892,4.765,4.765,0,0,0,.342,1.458c.331.79.721,1.162.761,1.128.062-.042-.222-.471-.454-1.237a5.432,5.432,0,0,1-.225-1.371,5.028,5.028,0,0,1,.042-.815c.027-.3.11-.526.255-.551.055-.008.075-.005.133.08a1.348,1.348,0,0,1,.115.363,7.058,7.058,0,0,1,.139.814,7.541,7.541,0,0,1,.022,1.405,9.237,9.237,0,0,0-.136,1.318" transform="translate(-214.855 -193.132)" fill="#263238"/>
          <path id="Trazado_235470" data-name="Trazado 235470" d="M440.615,405.059c.035-.037-.32-.446-1.108-.786a4.392,4.392,0,0,0-2.352-.295,1.122,1.122,0,0,0-.941.578.634.634,0,0,0,.161.662,1.841,1.841,0,0,0,.419.3,3.037,3.037,0,0,0,.858.315,3.117,3.117,0,0,0,1.516-.063c.842-.256,1.18-.721,1.141-.747a11.066,11.066,0,0,1-1.219.43,3.125,3.125,0,0,1-1.345-.035,2.8,2.8,0,0,1-.728-.293c-.256-.139-.437-.32-.372-.411.044-.127.327-.268.581-.293a4.455,4.455,0,0,1,.807-.063,4.856,4.856,0,0,1,1.362.218c.76.238,1.176.541,1.22.48" transform="translate(-211.837 -196.175)" fill="#263238"/>
          <path id="Trazado_235471" data-name="Trazado 235471" d="M399.959,377.324l-18.3,8.488,10.443,22.82c2.119-1.131,1.092-14.94,1.092-14.94l11.947-4.957Z" transform="translate(-185.36 -183.253)" fill="#afafaf"/>
          <g id="Grupo_181923" data-name="Grupo 181923" transform="translate(203.877 202.583)" opacity="0.6">
            <g id="Grupo_181922" data-name="Grupo 181922">
              <g id="Grupo_181921" data-name="Grupo 181921" clip-path="url(#clip-path-13)">
                <path id="Trazado_235472" data-name="Trazado 235472" d="M398.111,394.221a1.026,1.026,0,0,0-1.359-.157.985.985,0,0,0-.168,1.345,1.081,1.081,0,0,0,1.439.159,1.022,1.022,0,0,0,.02-1.419" transform="translate(-396.392 -393.875)" fill="#fff"/>
              </g>
            </g>
          </g>
          <path id="Trazado_235473" data-name="Trazado 235473" d="M381.661,393.017l1.847-.857,9.342,22.245s.023,1.218-.745,1.431Z" transform="translate(-185.36 -190.459)" fill="#263238"/>
          <path id="Trazado_235474" data-name="Trazado 235474" d="M402.528,408.285c-.113.047-.419-.487-1.028-.871-.6-.4-1.211-.462-1.214-.585-.026-.113.716-.251,1.446.227s.909,1.206.8,1.229" transform="translate(-194.406 -197.53)" fill="#263238"/>
          <path id="Trazado_235475" data-name="Trazado 235475" d="M402.589,414.388c-.1.075-.507-.321-1.151-.483-.64-.182-1.193-.044-1.239-.157-.065-.1.552-.473,1.35-.255s1.146.845,1.04.9" transform="translate(-194.361 -200.787)" fill="#263238"/>
          <path id="Trazado_235476" data-name="Trazado 235476" d="M400.484,420.023c-.07-.091.416-.5,1.157-.493s1.223.417,1.152.506c-.063.1-.545-.083-1.154-.08s-1.092.172-1.154.067" transform="translate(-194.499 -203.751)" fill="#263238"/>
          <path id="Trazado_235477" data-name="Trazado 235477" d="M408.537,404.785c-.123,0-.2-.582-.534-1.192s-.754-1.01-.685-1.112c.051-.1.683.188,1.062.913s.27,1.406.157,1.391" transform="translate(-197.817 -195.462)" fill="#263238"/>
          <path id="Trazado_235478" data-name="Trazado 235478" d="M413.818,399.618a2.355,2.355,0,0,1-.517-1.145,5.625,5.625,0,0,1-.18-1.364,5.9,5.9,0,0,1,.048-.816,1.535,1.535,0,0,1,.111-.468.534.534,0,0,1,.569-.322.67.67,0,0,1,.478.372,1.632,1.632,0,0,1,.137.456,4.529,4.529,0,0,1,.081.822,4.442,4.442,0,0,1-.209,1.371c-.248.754-.582,1.125-.621,1.1-.06-.034.171-.451.329-1.175a5,5,0,0,0,.108-1.282,4.633,4.633,0,0,0-.1-.749c-.047-.271-.139-.477-.275-.49-.051,0-.069,0-.116.083a1.24,1.24,0,0,0-.08.344,6.455,6.455,0,0,0-.069.762,6.946,6.946,0,0,0,.082,1.3,8.643,8.643,0,0,1,.222,1.207" transform="translate(-200.639 -192.077)" fill="#263238"/>
          <path id="Trazado_235479" data-name="Trazado 235479" d="M414.033,402.185c-.036-.032.263-.436.966-.806a4.075,4.075,0,0,1,2.15-.443,1.039,1.039,0,0,1,.91.465.586.586,0,0,1-.1.623,1.709,1.709,0,0,1-.365.309,2.805,2.805,0,0,1-.769.353,2.889,2.889,0,0,1-1.4.052c-.8-.175-1.141-.58-1.108-.606a10.3,10.3,0,0,0,1.156.309,2.889,2.889,0,0,0,1.24-.13,2.58,2.58,0,0,0,.651-.323c.226-.147.38-.327.314-.407a.718.718,0,0,0-.557-.228,4.147,4.147,0,0,0-.749,0,4.532,4.532,0,0,0-1.242.3c-.684.275-1.047.585-1.091.532" transform="translate(-201.081 -194.716)" fill="#263238"/>
          <path id="Trazado_235480" data-name="Trazado 235480" d="M372.078,343.5s-14.77-5.516-20.206-4.8c-3.04.4-7.792,2.718-8.155,6.614s.588,9.108,5.844,11.646,26.23,11.95,31.214,13.4,17.409,4.845,17.409,4.845l4.72-13.452s-25.752-8.916-27.111-9.913a30.565,30.565,0,0,0-4.8-2.356Z" transform="translate(-166.899 -164.464)" fill="#263238"/>
          <path id="Trazado_235481" data-name="Trazado 235481" d="M461.854,350.8a.552.552,0,0,1-.1-.027l-.3-.09c-.261-.078-.646-.191-1.149-.311a12.593,12.593,0,0,0-4.336-.319,14.4,14.4,0,0,0-2.955.563,10.24,10.24,0,0,0-1.559.609l-1.608.784c-2.21,1.056-4.677,2.138-7.306,3.175a87.453,87.453,0,0,1-13.916,3.928c-1.807.4-3.268.729-4.275.968l-1.16.275-.3.068a.053.053,0,1,1,0-.016l.3-.083c.263-.07.651-.178,1.153-.3,1-.258,2.461-.6,4.265-1.018a91.371,91.371,0,0,0,13.883-3.966c2.625-1.037,5.09-2.112,7.3-3.16l1.609-.778a10.34,10.34,0,0,1,1.583-.609,14.361,14.361,0,0,1,2.985-.549,13.468,13.468,0,0,1,2.5.021,13.18,13.18,0,0,1,1.857.351c.5.129.886.252,1.144.34l.292.1a.5.5,0,0,1,.1.042" transform="translate(-205.332 -169.93)" fill="#455a64"/>
          <path id="Trazado_235482" data-name="Trazado 235482" d="M489.708,347.5c-.005.026-.449-.055-1.173-.133a17.674,17.674,0,0,0-5.647.29c-.711.152-1.145.277-1.153.253a1.2,1.2,0,0,1,.3-.119c.193-.068.477-.153.832-.243a14.821,14.821,0,0,1,5.686-.292c.362.053.654.107.853.156a1.235,1.235,0,0,1,.306.088" transform="translate(-233.963 -168.577)" fill="#455a64"/>
          <path id="Trazado_235483" data-name="Trazado 235483" d="M378.763,352.822c-.017.022-.426-.295-1.134-.733a15.038,15.038,0,0,0-6.079-2.145c-.826-.1-1.343-.113-1.343-.141a1.566,1.566,0,0,1,.364-.02,9.886,9.886,0,0,1,.992.048,13.432,13.432,0,0,1,6.128,2.162,9.824,9.824,0,0,1,.8.585,1.6,1.6,0,0,1,.271.243" transform="translate(-179.798 -169.877)" fill="#455a64"/>
          <path id="Trazado_235484" data-name="Trazado 235484" d="M385.395,368.927s.04.013.115.044l.335.14c.3.12.727.325,1.3.546,1.15.457,2.85,1.082,5.031,1.8,4.363,1.426,10.634,3.242,18.138,5.132l-.085.045L414.8,363.96l.044.1-5.655-2.321L377.9,348.862l-.011,0-.008-.008c-1.273-1.348-2.445-2.536-3.544-3.495a24.023,24.023,0,0,0-2.971-2.238,21.873,21.873,0,0,0-2.038-1.137l-.547-.256c-.122-.058-.184-.092-.184-.092s.065.024.19.078l.554.242a20.292,20.292,0,0,1,2.056,1.115,23.465,23.465,0,0,1,2.995,2.225c1.107.955,2.287,2.141,3.566,3.484l-.018-.012,31.308,12.828,5.654,2.323.07.029-.026.071c-1.629,4.506-3.177,8.788-4.579,12.669l-.023.062-.063-.016c-7.5-1.9-13.772-3.74-18.131-5.19-2.178-.729-3.874-1.368-5.02-1.838-.576-.229-1-.44-1.3-.567l-.331-.151c-.074-.034-.11-.055-.11-.055" transform="translate(-179.017 -165.919)" fill="#455a64"/>
          <path id="Trazado_235485" data-name="Trazado 235485" d="M462.561,256.58s4.253,2.45,5.115,5.328c.523,1.748,4.49,24.105,5.118,28.514.634,4.451-.7,7.674-2.576,9.137s-7.579,3.411-7.579,3.411l-8.018,2.6-2.3-5.848,7.632-10.964-.739-7.386Z" transform="translate(-219.678 -124.612)" fill="#afafaf"/>
          <path id="Trazado_235486" data-name="Trazado 235486" d="M407.765,246.9l-3.2-1.824s-2.91,3.4-6.879,2.986a9.976,9.976,0,0,1-6.319-3.455l-11.836,2.41a5.81,5.81,0,0,0-3.628,2.64c-1.545,2.207-8.869,12-8.869,12h-5.129a3.8,3.8,0,0,0-3.37,2.033c-.875,1.666-1.927,3.9-1.824,4.82.174,1.562-.128,5.85,1.967,7.188a10.275,10.275,0,0,0,4.885,1.611,16.428,16.428,0,0,0,7.7-2.818,70.916,70.916,0,0,0,6.508-6.26l0,.023.886,31.05,31.033-.884,6.431-47.655s-8.046-3.863-8.359-3.863" transform="translate(-173.241 -118.799)" fill="#afafaf"/>
          <path id="Trazado_235487" data-name="Trazado 235487" d="M397.43,265.246c.044,0,.124,3.848.181,8.6s.065,8.6.021,8.6-.125-3.847-.181-8.6-.066-8.6-.022-8.6" transform="translate(-193.006 -128.821)" fill="#263238"/>
          <path id="Trazado_235488" data-name="Trazado 235488" d="M465.651,314.044c0,.016-.263.042-.732.132a9.014,9.014,0,0,0-1.921.612,12.5,12.5,0,0,0-2.559,1.546,22.326,22.326,0,0,0-2.7,2.492c-.888.958-1.7,1.907-2.46,2.748a29.808,29.808,0,0,1-2.114,2.154A15.059,15.059,0,0,1,451.581,325c-.195.14-.358.232-.464.3a.883.883,0,0,1-.169.094.9.9,0,0,1,.151-.12c.1-.077.257-.176.446-.324a17.791,17.791,0,0,0,1.549-1.3c.627-.582,1.328-1.322,2.081-2.168s1.561-1.8,2.452-2.758a21.579,21.579,0,0,1,2.723-2.5,12.152,12.152,0,0,1,2.6-1.532,8.308,8.308,0,0,1,1.955-.569,5.235,5.235,0,0,1,.55-.063.879.879,0,0,1,.193-.007" transform="translate(-219.011 -152.519)" fill="#263238"/>
          <path id="Trazado_235489" data-name="Trazado 235489" d="M474.166,309.954c0,.029-.47.094-1.209.3a11.233,11.233,0,0,0-5.083,3.028c-.532.552-.815.938-.838.921a1.341,1.341,0,0,1,.18-.284,7.469,7.469,0,0,1,.577-.713,10.213,10.213,0,0,1,5.137-3.06,7.461,7.461,0,0,1,.9-.167,1.36,1.36,0,0,1,.336-.023" transform="translate(-226.824 -150.532)" fill="#263238"/>
          <g id="Grupo_181926" data-name="Grupo 181926" transform="translate(189.585 143.162)" opacity="0.3">
            <g id="Grupo_181925" data-name="Grupo 181925">
              <g id="Grupo_181924" data-name="Grupo 181924" clip-path="url(#clip-path-14)">
                <path id="Trazado_235490" data-name="Trazado 235490" d="M368.6,289.154c1.643.447,3.616-1.916,5.107-3.4a6.294,6.294,0,0,0,1.869-2.645,4.2,4.2,0,0,0-.258-2.648,9.743,9.743,0,0,0-1.092-2.122,13.783,13.783,0,0,1,.022,4.833,8.582,8.582,0,0,1-2.1,3.409,7.574,7.574,0,0,1-3.545,2.568" transform="translate(-368.604 -278.344)"/>
              </g>
            </g>
          </g>
          <path id="Trazado_235491" data-name="Trazado 235491" d="M380.835,287.723c-.031-.01.159-.542.313-1.432a10.857,10.857,0,0,0,.151-1.577,10.861,10.861,0,0,0-.6-3.812,10.875,10.875,0,0,0-.63-1.453c-.421-.8-.765-1.247-.74-1.266a1.822,1.822,0,0,1,.253.3,3.959,3.959,0,0,1,.266.381c.1.154.215.323.32.527a9.8,9.8,0,0,1,.669,1.458,10.264,10.264,0,0,1,.611,3.865,9.84,9.84,0,0,1-.187,1.593c-.037.226-.1.424-.142.6a4.131,4.131,0,0,1-.136.444,1.886,1.886,0,0,1-.146.368" transform="translate(-184.227 -135.104)" fill="#263238"/>
          <path id="Trazado_235492" data-name="Trazado 235492" d="M425.291,246.939c.021.042-.343.253-.723.595s-.635.675-.674.65a2.33,2.33,0,0,1,1.4-1.244" transform="translate(-205.869 -119.927)" fill="#263238"/>
          <path id="Trazado_235493" data-name="Trazado 235493" d="M432.006,250.59c.034.033-.279.369-.53.864s-.347.942-.395.934a2.285,2.285,0,0,1,.924-1.8" transform="translate(-209.355 -121.702)" fill="#263238"/>
          <path id="Trazado_235494" data-name="Trazado 235494" d="M443,252.615a23.973,23.973,0,0,1-.672-1.865,3.615,3.615,0,0,1,.672,1.865" transform="translate(-214.823 -121.78)" fill="#263238"/>
          <path id="Trazado_235495" data-name="Trazado 235495" d="M449.373,249.146c-.047.011-.168-.531-.519-1.1s-.767-.935-.736-.971a2.71,2.71,0,0,1,1.255,2.074" transform="translate(-217.636 -119.993)" fill="#263238"/>
          <path id="Trazado_235496" data-name="Trazado 235496" d="M468.058,270.657c.044.006-.482,4.247-1.173,9.472s-1.288,9.457-1.332,9.451.482-4.246,1.174-9.472,1.287-9.457,1.331-9.451" transform="translate(-226.103 -131.449)" fill="#263238"/>
          <path id="Trazado_235497" data-name="Trazado 235497" d="M373.785,284.008a2.291,2.291,0,0,1-.009.438,3.336,3.336,0,0,1-.064.511l-.054.317c-.024.112-.057.227-.088.35a9.457,9.457,0,0,1-.612,1.666,11.4,11.4,0,0,1-1.14,1.852A9.78,9.78,0,0,1,370.3,290.7a6.522,6.522,0,0,1-1.522.918c-.117.048-.227.1-.334.138l-.312.086-.271.074c-.084.019-.164.022-.233.032a2.319,2.319,0,0,1-.437.035,7.873,7.873,0,0,0,1.542-.469,6.809,6.809,0,0,0,1.475-.929,10.121,10.121,0,0,0,1.482-1.544,11.957,11.957,0,0,0,1.135-1.819,10.176,10.176,0,0,0,.635-1.632,15.168,15.168,0,0,0,.324-1.586" transform="translate(-178.334 -137.933)" fill="#263238"/>
          <g id="Grupo_181929" data-name="Grupo 181929" transform="translate(204.824 157.863)" opacity="0.3">
            <g id="Grupo_181928" data-name="Grupo 181928">
              <g id="Grupo_181927" data-name="Grupo 181927" clip-path="url(#clip-path-15)">
                <path id="Trazado_235498" data-name="Trazado 235498" d="M434.365,330.632c1.316-.636,1.615-2.343,1.749-3.8l1.18-12.8c.185-2.005.275-4.295-1.14-5.728-1.292-1.309-3.344-1.388-5.183-1.382-11.356.033-21.384.364-32.74.4l.579,19.865Z" transform="translate(-398.232 -306.926)"/>
              </g>
            </g>
          </g>
          <path id="Trazado_235499" data-name="Trazado 235499" d="M388.714,312.019l1.209,23.04a1.682,1.682,0,0,0,1.689,1.584l36.7.064a1.683,1.683,0,0,0,1.689-1.59l1.4-22.648c.046-.941-.623-2.192-1.575-2.211l-39.389,0a1.681,1.681,0,0,0-1.722,1.758" transform="translate(-188.785 -150.681)" fill="#e0e0e0"/>
          <path id="Trazado_235500" data-name="Trazado 235500" d="M388.711,311.947s0-.029,0-.086a1.536,1.536,0,0,1,.014-.257,1.657,1.657,0,0,1,.435-.9,1.682,1.682,0,0,1,.614-.418,2.154,2.154,0,0,1,.887-.124l2.231-.008,14.22-.026,21.09-.019h1.5a1.327,1.327,0,0,1,.759.193,1.89,1.89,0,0,1,.56.55,2.649,2.649,0,0,1,.461,1.486q-.046.77-.092,1.549-.191,3.11-.391,6.346c-.266,4.311-.541,8.773-.823,13.345l-.053.856c-.024.288-.02.563-.07.863a1.757,1.757,0,0,1-1.107,1.3,2.148,2.148,0,0,1-.861.115l-.844,0-1.679,0-6.589-.012-12.456-.027-11.271-.027-2.6-.007-.636,0a5.422,5.422,0,0,1-.637-.02,1.752,1.752,0,0,1-1.1-.608,1.779,1.779,0,0,1-.41-1.16q-.031-.6-.061-1.189-.06-1.177-.118-2.3c-.3-5.993-.55-10.844-.72-14.2-.081-1.675-.145-2.975-.188-3.861l-.045-1c-.009-.226-.01-.343-.01-.343s.011.116.026.342.034.565.061,1c.05.886.123,2.186.218,3.86.182,3.356.445,8.206.77,14.2q.06,1.124.123,2.3.032.588.064,1.189a1.655,1.655,0,0,0,.383,1.087,1.633,1.633,0,0,0,1.024.563,5.342,5.342,0,0,0,.62.017h.636l2.6,0,11.271.012,12.456.017,6.589.01,1.679,0,.844,0a1.99,1.99,0,0,0,.805-.1,1.6,1.6,0,0,0,1.007-1.181c.046-.261.045-.56.068-.84l.053-.856c.283-4.571.56-9.034.827-13.344q.2-3.233.395-6.346.047-.776.093-1.545a2.506,2.506,0,0,0-.434-1.4,1.366,1.366,0,0,0-1.2-.68h-1.5l-21.089-.015-14.219-.024-2.231-.007a2.124,2.124,0,0,0-.872.113,1.675,1.675,0,0,0-1.047,1.281c-.034.223-.017.341-.026.341" transform="translate(-188.782 -150.61)" fill="#263238"/>
          <path id="Trazado_235501" data-name="Trazado 235501" d="M430.862,333.489a2.162,2.162,0,1,1-2.162-2.162,2.162,2.162,0,0,1,2.162,2.162" transform="translate(-207.156 -160.914)" fill="#fff"/>
          <path id="Trazado_235502" data-name="Trazado 235502" d="M430.787,333.426c-.018,0-.01-.192-.1-.521a2.158,2.158,0,0,0-.79-1.153,2.1,2.1,0,0,0-1.985-.288,2.065,2.065,0,0,0-.966.73,2.078,2.078,0,0,0,0,2.463,2.066,2.066,0,0,0,.967.73,2.1,2.1,0,0,0,1.985-.288,2.153,2.153,0,0,0,.79-1.153c.088-.328.08-.521.1-.52a.461.461,0,0,1,.009.139,1.735,1.735,0,0,1-.047.4,2.152,2.152,0,0,1-.782,1.228,2.195,2.195,0,0,1-.931.425,2.226,2.226,0,0,1-1.172-.089,2.2,2.2,0,0,1-1.043-.776,2.221,2.221,0,0,1,0-2.648,2.212,2.212,0,0,1,3.146-.439,2.152,2.152,0,0,1,.782,1.228,1.732,1.732,0,0,1,.047.4.462.462,0,0,1-.009.139" transform="translate(-207.081 -160.851)" fill="#263238"/>
          <path id="Trazado_235503" data-name="Trazado 235503" d="M391.111,318.641c.044,0,.225,3.87.4,8.646s.289,8.652.244,8.654-.225-3.869-.4-8.648-.289-8.651-.245-8.653" transform="translate(-189.945 -154.753)" fill="#263238"/>
          <path id="Trazado_235504" data-name="Trazado 235504" d="M367.942,246.027c-.214-.182.725-3.8.725-3.8s-2.489-4.062-2.555-5.372a14.294,14.294,0,0,1,.983-4l7.142-1.835a55.827,55.827,0,0,1,2.753,5.766c.458,1.507-.787,6.617-.787,6.617l-1.21,2.621s-3.648,2.883-7.051,0" transform="translate(-177.807 -112.2)" fill="#99655c"/>
          <path id="Trazado_235505" data-name="Trazado 235505" d="M364.9,229.37a15.859,15.859,0,0,1-.752-1.586c-.452-1.072-1.007-2.124,0-2.724a1.315,1.315,0,0,1,1.076-.17s-.155-.9.385-1.241a1.161,1.161,0,0,1,1.059-.092s-.17-1.273.606-1.814a1.885,1.885,0,0,1,1.978-.056s-.615-5.573-.668-5.869c-.2-1.084.205-2.042,1.283-1.775.395.1.615.514,1.078,2.329s1.208,4.912,1.208,4.912,1.255,2.18,1.847,3.362a28.752,28.752,0,0,1,1.861,4.586,9.783,9.783,0,0,1-.828,4.285l-7.592.441s-2.252-4.061-2.541-4.589" transform="translate(-176.579 -103.932)" fill="#99655c"/>
          <path id="Trazado_235506" data-name="Trazado 235506" d="M365.905,235.643a6.315,6.315,0,0,1,.587.82l.6.913a3.873,3.873,0,0,1,.326.571,1.158,1.158,0,0,1,.09.724.728.728,0,0,1-.479.562.946.946,0,0,1-.68-.084,3.014,3.014,0,0,1-.507-.313c-.15-.108-.286-.21-.409-.307-.246-.192-.438-.357-.566-.475s-.195-.189-.188-.2.316.223.821.582a6.766,6.766,0,0,0,.909.577.814.814,0,0,0,.572.069.575.575,0,0,0,.372-.448,1.017,1.017,0,0,0-.078-.628,4.006,4.006,0,0,0-.306-.553l-.572-.931a6.341,6.341,0,0,1-.492-.88" transform="translate(-177.113 -114.443)" fill="#744a45"/>
          <path id="Trazado_235507" data-name="Trazado 235507" d="M379.134,234.766a3.53,3.53,0,0,1,.553-2.291c.042.021-.169.506-.318,1.135s-.188,1.157-.235,1.156" transform="translate(-184.116 -112.905)" fill="#744a45"/>
          <path id="Trazado_235508" data-name="Trazado 235508" d="M377.873,238.686a5.033,5.033,0,0,0-2.539-1.325,9.546,9.546,0,0,0-2.892-.111,2.36,2.36,0,0,0-2.006.961,1.652,1.652,0,0,0,.759,2.037,3.841,3.841,0,0,0,2.327.353,9.776,9.776,0,0,1,2.385-.1" transform="translate(-179.845 -115.195)" fill="#99655c"/>
          <path id="Trazado_235509" data-name="Trazado 235509" d="M375.833,240.434c0,.013-.214-.02-.6-.016a15.943,15.943,0,0,0-1.627.155,6.885,6.885,0,0,1-1.14.048,3.087,3.087,0,0,1-1.279-.321,1.967,1.967,0,0,1-.95-1.105,1.5,1.5,0,0,1-.053-.79,1.346,1.346,0,0,1,.419-.7,2.722,2.722,0,0,1,1.459-.567,12.3,12.3,0,0,1,1.443-.087,7.3,7.3,0,0,1,2.413.365,4.837,4.837,0,0,1,1.448.782,3.432,3.432,0,0,1,.332.3c.07.075.1.116.1.12s-.158-.146-.47-.371a5.145,5.145,0,0,0-1.447-.724,7.428,7.428,0,0,0-2.377-.326,12.756,12.756,0,0,0-1.422.1,2.594,2.594,0,0,0-1.374.53,1.193,1.193,0,0,0-.371.618,1.341,1.341,0,0,0,.047.707,1.825,1.825,0,0,0,.87,1.025,3,3,0,0,0,1.218.319,7.085,7.085,0,0,0,1.12-.028,12.711,12.711,0,0,1,1.639-.1,3.789,3.789,0,0,1,.446.041.581.581,0,0,1,.152.037" transform="translate(-179.772 -115.126)" fill="#744a45"/>
          <path id="Trazado_235510" data-name="Trazado 235510" d="M367.17,235.416c.8,1.213,1.5,2.546,2.177,3.833a2.377,2.377,0,0,0,.763.992c.288.177,1-.145,1.322-.254L369.239,235" transform="translate(-178.323 -114.129)" fill="#99655c"/>
          <path id="Trazado_235511" data-name="Trazado 235511" d="M369.238,235a2.3,2.3,0,0,1,.195.372l.486,1.045c.406.889.963,2.133,1.585,3.542l.034.078-.081.029c-.237.084-.491.191-.765.26a1.57,1.57,0,0,1-.335.05.593.593,0,0,1-.18-.019.49.49,0,0,1-.165-.081,1.7,1.7,0,0,1-.442-.473c-.225-.353-.384-.709-.563-1.038-.345-.663-.66-1.258-.934-1.752s-.5-.889-.664-1.162a3.307,3.307,0,0,1-.24-.43,2.656,2.656,0,0,1,.292.4c.176.263.423.65.709,1.139s.614,1.079.966,1.739c.181.326.349.689.563,1.02a1.575,1.575,0,0,0,.4.429.662.662,0,0,0,.552.026c.26-.065.506-.168.753-.255l-.046.106c-.617-1.41-1.157-2.662-1.537-3.563l-.442-1.064a2.326,2.326,0,0,1-.142-.4" transform="translate(-178.322 -114.129)" fill="#744a45"/>
          <path id="Trazado_235512" data-name="Trazado 235512" d="M370.043,231.2l2.115,5.3a3.633,3.633,0,0,0,.568,1.064,1.23,1.23,0,0,0,1.065.464,1.258,1.258,0,0,0,.939-1.223,3.96,3.96,0,0,0-.4-1.609,33.517,33.517,0,0,1-1.516-4.963" transform="translate(-179.718 -111.819)" fill="#99655c"/>
          <path id="Trazado_235513" data-name="Trazado 235513" d="M372.818,230.237a.7.7,0,0,1,.053.161c.033.124.075.279.125.469.109.407.269,1,.492,1.714s.511,1.568.875,2.493a5.128,5.128,0,0,1,.443,1.517,1.64,1.64,0,0,1-.159.843,1.235,1.235,0,0,1-.636.622,1.066,1.066,0,0,1-.888-.072,1.664,1.664,0,0,1-.624-.588,9.347,9.347,0,0,1-.64-1.441l-.965-2.466-.638-1.667c-.067-.185-.122-.335-.166-.456a.743.743,0,0,1-.048-.164.68.68,0,0,1,.078.151l.194.445.685,1.649,1,2.453a9.543,9.543,0,0,0,.634,1.41,1.516,1.516,0,0,0,.566.533.913.913,0,0,0,.758.064,1.081,1.081,0,0,0,.551-.544,1.482,1.482,0,0,0,.146-.764,5.077,5.077,0,0,0-.424-1.473c-.358-.932-.636-1.788-.847-2.514s-.353-1.319-.444-1.731c-.044-.206-.077-.367-.1-.476a.707.707,0,0,1-.022-.169" transform="translate(-179.717 -111.818)" fill="#744a45"/>
          <path id="Trazado_235514" data-name="Trazado 235514" d="M365.6,255.387s-4.843,14.274-5.034,14.975.956,5.8,3.059,7.01,6.181-3.824,6.691-5.672a15.013,15.013,0,0,0,0-4.971l3.264-12.3" transform="translate(-175.105 -123.568)" fill="#99655c"/>
          <path id="Trazado_235515" data-name="Trazado 235515" d="M377.5,250.111a.918.918,0,0,1-.456-.06,2.543,2.543,0,0,1-1.6-1.466.924.924,0,0,1-.1-.449,3.247,3.247,0,0,0,2.154,1.975" transform="translate(-182.292 -120.511)" fill="#744a45"/>
        </g>
      </g>
    </g>
  </g>
</svg>
