<svg id="Grupo_182281" data-name="Grupo 182281" xmlns="http://www.w3.org/2000/svg" xmlns:xlink="http://www.w3.org/1999/xlink" width="349.799" height="254.255" viewBox="0 0 349.799 254.255">
  <defs>
    <clipPath id="clip-path">
      <rect id="Rectángulo_59599" data-name="Rectángulo 59599" width="349.799" height="254.255" fill="none"/>
    </clipPath>
    <clipPath id="clip-path-4">
      <rect id="Rectángulo_59528" data-name="Rectángulo 59528" width="132.937" height="144.652" fill="#afafaf"/>
    </clipPath>
    <clipPath id="clip-path-5">
      <rect id="Rectángulo_59530" data-name="Rectángulo 59530" width="69.973" height="123.664" fill="#afafaf"/>
    </clipPath>
    <clipPath id="clip-path-6">
      <rect id="Rectángulo_59531" data-name="Rectángulo 59531" width="6.28" height="6.348" fill="none"/>
    </clipPath>
    <clipPath id="clip-path-9">
      <rect id="Rectángulo_59535" data-name="Rectángulo 59535" width="8.073" height="8.162" fill="none"/>
    </clipPath>
    <clipPath id="clip-path-12">
      <rect id="Rectángulo_59552" data-name="Rectángulo 59552" width="6.059" height="7.109" fill="none"/>
    </clipPath>
    <clipPath id="clip-path-15">
      <rect id="Rectángulo_59564" data-name="Rectángulo 59564" width="30.223" height="24.835" fill="#f4a338"/>
    </clipPath>
    <clipPath id="clip-path-17">
      <rect id="Rectángulo_59573" data-name="Rectángulo 59573" width="49.802" height="41.15" fill="none"/>
    </clipPath>
    <clipPath id="clip-path-18">
      <rect id="Rectángulo_59574" data-name="Rectángulo 59574" width="46.553" height="21.604" fill="none"/>
    </clipPath>
    <clipPath id="clip-path-19">
      <rect id="Rectángulo_59575" data-name="Rectángulo 59575" width="6.82" height="6.82" fill="none"/>
    </clipPath>
    <clipPath id="clip-path-21">
      <path id="Trazado_236867" data-name="Trazado 236867" d="M179.387,167.139c-.693.84-10.1,7.724-10.1,7.724l1.664,3.631s10.236-4.792,12.453-7.584c.567-.721,1.35-1.868,2.2-3.176,1.392-2.162,2.966-4.764,4.058-6.59.812-1.364,1.357-2.295,1.357-2.295l-5.793-9.137c-1.266.972-5.142,16.587-5.835,17.427" transform="translate(-169.285 -149.712)" fill="none"/>
    </clipPath>
    <clipPath id="clip-path-22">
      <rect id="Rectángulo_59586" data-name="Rectángulo 59586" width="4.062" height="13.236" fill="none"/>
    </clipPath>
    <clipPath id="clip-path-24">
      <rect id="Rectángulo_59587" data-name="Rectángulo 59587" width="6.548" height="7.355" fill="none"/>
    </clipPath>
    <clipPath id="clip-path-25">
      <rect id="Rectángulo_59588" data-name="Rectángulo 59588" width="5.594" height="6.867" fill="none"/>
    </clipPath>
    <clipPath id="clip-path-26">
      <rect id="Rectángulo_59589" data-name="Rectángulo 59589" width="8.956" height="6.171" fill="none"/>
    </clipPath>
    <clipPath id="clip-path-27">
      <rect id="Rectángulo_59590" data-name="Rectángulo 59590" width="9.335" height="4.768" fill="none"/>
    </clipPath>
    <clipPath id="clip-path-28">
      <rect id="Rectángulo_59591" data-name="Rectángulo 59591" width="6.121" height="46.284" fill="none"/>
    </clipPath>
    <clipPath id="clip-path-29">
      <rect id="Rectángulo_59592" data-name="Rectángulo 59592" width="8.894" height="2.013" fill="none"/>
    </clipPath>
    <clipPath id="clip-path-30">
      <path id="Trazado_236892" data-name="Trazado 236892" d="M192.065,147.629s4.061,11.042,4.666,31.114h22.06s4.07-24.8-2.926-35.919c0,0-.768-.048-2.071-.048-4.253,0-14.205.509-21.73,4.852" transform="translate(-192.065 -142.777)" fill="none"/>
    </clipPath>
    <clipPath id="clip-path-31">
      <rect id="Rectángulo_59594" data-name="Rectángulo 59594" width="5.593" height="14.702" fill="none"/>
    </clipPath>
  </defs>
  <g id="Grupo_182280" data-name="Grupo 182280" clip-path="url(#clip-path)">
    <rect id="Rectángulo_59470" data-name="Rectángulo 59470" width="349.799" height="0.175" transform="translate(0 229.081)" fill="#ebebeb"/>
    <rect id="Rectángulo_59471" data-name="Rectángulo 59471" width="23.172" height="0.175" transform="translate(291.578 240.342)" fill="#ebebeb"/>
    <rect id="Rectángulo_59472" data-name="Rectángulo 59472" width="6.082" height="0.174" transform="translate(225.639 242.241)" fill="#ebebeb"/>
    <rect id="Rectángulo_59473" data-name="Rectángulo 59473" width="13.427" height="0.174" transform="translate(277.451 233.846)" fill="#ebebeb"/>
    <rect id="Rectángulo_59474" data-name="Rectángulo 59474" width="30.218" height="0.175" transform="translate(36.7 235.02)" fill="#ebebeb"/>
    <rect id="Rectángulo_59475" data-name="Rectángulo 59475" width="4.431" height="0.175" transform="translate(73.147 235.02)" fill="#ebebeb"/>
    <rect id="Rectángulo_59476" data-name="Rectángulo 59476" width="65.536" height="0.175" transform="translate(91.977 237.975)" fill="#ebebeb"/>
    <g id="Grupo_182179" data-name="Grupo 182179">
      <g id="Grupo_182178" data-name="Grupo 182178" clip-path="url(#clip-path)">
        <path id="Trazado_236831" data-name="Trazado 236831" d="M177.292,197.879H42.2a4,4,0,0,1-3.993-3.993V3.993A4,4,0,0,1,42.2,0H177.292a4,4,0,0,1,3.993,3.993V193.886a4,4,0,0,1-3.993,3.993M42.2.175a3.822,3.822,0,0,0-3.818,3.818V193.886A3.822,3.822,0,0,0,42.2,197.7H177.292a3.823,3.823,0,0,0,3.818-3.818V3.993A3.823,3.823,0,0,0,177.292.175Z" transform="translate(-11.477)" fill="#ebebeb"/>
        <path id="Trazado_236832" data-name="Trazado 236832" d="M393.589,197.879H258.5a4,4,0,0,1-3.993-3.993V3.993A4,4,0,0,1,258.5,0H393.589a4,4,0,0,1,3.993,3.993V193.886a4,4,0,0,1-3.993,3.993M258.5.175a3.822,3.822,0,0,0-3.818,3.818V193.886A3.822,3.822,0,0,0,258.5,197.7H393.589a3.823,3.823,0,0,0,3.818-3.818V3.993A3.823,3.823,0,0,0,393.589.175Z" transform="translate(-76.454)" fill="#ebebeb"/>
        <rect id="Rectángulo_59477" data-name="Rectángulo 59477" width="71.165" height="143.093" transform="translate(95.16 50.942)" fill="#fafafa"/>
        <rect id="Rectángulo_59478" data-name="Rectángulo 59478" width="74.45" height="7.022" transform="translate(93.518 49)" fill="#f0f0f0"/>
        <rect id="Rectángulo_59479" data-name="Rectángulo 59479" width="74.45" height="3.511" transform="translate(93.518 56.799)" fill="#f0f0f0"/>
        <rect id="Rectángulo_59480" data-name="Rectángulo 59480" width="74.45" height="3.511" transform="translate(93.518 62.01)" fill="#f0f0f0"/>
        <rect id="Rectángulo_59481" data-name="Rectángulo 59481" width="74.45" height="3.511" transform="translate(93.518 67.222)" fill="#f0f0f0"/>
        <rect id="Rectángulo_59482" data-name="Rectángulo 59482" width="74.45" height="3.511" transform="translate(93.518 72.432)" fill="#f0f0f0"/>
        <rect id="Rectángulo_59483" data-name="Rectángulo 59483" width="74.45" height="3.511" transform="translate(93.518 77.642)" fill="#f0f0f0"/>
        <rect id="Rectángulo_59484" data-name="Rectángulo 59484" width="74.45" height="3.511" transform="translate(93.518 82.853)" fill="#f0f0f0"/>
        <rect id="Rectángulo_59485" data-name="Rectángulo 59485" width="74.45" height="3.511" transform="translate(93.518 88.065)" fill="#f0f0f0"/>
        <rect id="Rectángulo_59486" data-name="Rectángulo 59486" width="74.45" height="3.511" transform="translate(93.518 93.275)" fill="#f0f0f0"/>
        <rect id="Rectángulo_59487" data-name="Rectángulo 59487" width="74.45" height="3.511" transform="translate(93.518 98.485)" fill="#f0f0f0"/>
        <rect id="Rectángulo_59488" data-name="Rectángulo 59488" width="74.45" height="3.511" transform="translate(93.518 103.697)" fill="#f0f0f0"/>
        <rect id="Rectángulo_59489" data-name="Rectángulo 59489" width="74.45" height="3.511" transform="translate(93.518 108.907)" fill="#f0f0f0"/>
        <rect id="Rectángulo_59490" data-name="Rectángulo 59490" width="74.45" height="3.511" transform="translate(93.518 114.118)" fill="#f0f0f0"/>
        <rect id="Rectángulo_59491" data-name="Rectángulo 59491" width="74.45" height="3.511" transform="translate(93.518 119.328)" fill="#f0f0f0"/>
        <rect id="Rectángulo_59492" data-name="Rectángulo 59492" width="74.45" height="3.511" transform="translate(93.518 124.539)" fill="#f0f0f0"/>
        <rect id="Rectángulo_59493" data-name="Rectángulo 59493" width="74.45" height="3.511" transform="translate(93.518 129.75)" fill="#f0f0f0"/>
        <rect id="Rectángulo_59494" data-name="Rectángulo 59494" width="74.45" height="3.511" transform="translate(93.518 134.961)" fill="#f0f0f0"/>
        <rect id="Rectángulo_59495" data-name="Rectángulo 59495" width="74.45" height="3.511" transform="translate(93.518 140.172)" fill="#f0f0f0"/>
        <rect id="Rectángulo_59496" data-name="Rectángulo 59496" width="74.45" height="3.511" transform="translate(93.518 145.382)" fill="#f0f0f0"/>
        <rect id="Rectángulo_59497" data-name="Rectángulo 59497" width="74.45" height="3.511" transform="translate(93.518 150.593)" fill="#f0f0f0"/>
        <rect id="Rectángulo_59498" data-name="Rectángulo 59498" width="74.45" height="3.511" transform="translate(93.518 155.805)" fill="#f0f0f0"/>
        <rect id="Rectángulo_59499" data-name="Rectángulo 59499" width="74.45" height="3.511" transform="translate(93.518 161.015)" fill="#f0f0f0"/>
        <rect id="Rectángulo_59500" data-name="Rectángulo 59500" width="74.45" height="3.511" transform="translate(93.518 166.225)" fill="#f0f0f0"/>
        <rect id="Rectángulo_59501" data-name="Rectángulo 59501" width="74.45" height="3.511" transform="translate(93.518 171.436)" fill="#f0f0f0"/>
        <rect id="Rectángulo_59502" data-name="Rectángulo 59502" width="74.45" height="3.511" transform="translate(93.518 176.647)" fill="#f0f0f0"/>
        <rect id="Rectángulo_59503" data-name="Rectángulo 59503" width="74.45" height="3.511" transform="translate(93.518 181.858)" fill="#f0f0f0"/>
        <rect id="Rectángulo_59504" data-name="Rectángulo 59504" width="74.45" height="3.511" transform="translate(93.518 187.068)" fill="#f0f0f0"/>
        <rect id="Rectángulo_59505" data-name="Rectángulo 59505" width="74.45" height="3.511" transform="translate(93.518 192.279)" fill="#f0f0f0"/>
        <rect id="Rectángulo_59506" data-name="Rectángulo 59506" width="71.165" height="143.093" transform="translate(183.474 50.942)" fill="#fafafa"/>
        <rect id="Rectángulo_59507" data-name="Rectángulo 59507" width="74.45" height="7.022" transform="translate(181.831 49)" fill="#f0f0f0"/>
        <rect id="Rectángulo_59508" data-name="Rectángulo 59508" width="74.45" height="0.646" transform="translate(181.831 56.8)" fill="#f0f0f0"/>
        <rect id="Rectángulo_59509" data-name="Rectángulo 59509" width="74.45" height="0.646" transform="translate(181.831 58.266)" fill="#f0f0f0"/>
        <rect id="Rectángulo_59510" data-name="Rectángulo 59510" width="74.45" height="0.646" transform="translate(181.831 59.732)" fill="#f0f0f0"/>
        <rect id="Rectángulo_59511" data-name="Rectángulo 59511" width="74.45" height="0.646" transform="translate(181.831 61.198)" fill="#f0f0f0"/>
        <rect id="Rectángulo_59512" data-name="Rectángulo 59512" width="74.45" height="0.646" transform="translate(181.831 62.664)" fill="#f0f0f0"/>
        <rect id="Rectángulo_59513" data-name="Rectángulo 59513" width="74.45" height="0.646" transform="translate(181.831 64.13)" fill="#f0f0f0"/>
        <rect id="Rectángulo_59514" data-name="Rectángulo 59514" width="74.45" height="0.646" transform="translate(181.831 65.596)" fill="#f0f0f0"/>
        <rect id="Rectángulo_59515" data-name="Rectángulo 59515" width="74.45" height="0.646" transform="translate(181.831 67.062)" fill="#f0f0f0"/>
        <rect id="Rectángulo_59516" data-name="Rectángulo 59516" width="74.45" height="0.646" transform="translate(181.831 68.528)" fill="#f0f0f0"/>
        <rect id="Rectángulo_59517" data-name="Rectángulo 59517" width="74.45" height="0.646" transform="translate(181.831 69.995)" fill="#f0f0f0"/>
        <rect id="Rectángulo_59518" data-name="Rectángulo 59518" width="74.45" height="0.646" transform="translate(181.831 71.46)" fill="#f0f0f0"/>
        <rect id="Rectángulo_59519" data-name="Rectángulo 59519" width="74.45" height="0.646" transform="translate(181.831 72.927)" fill="#f0f0f0"/>
        <rect id="Rectángulo_59520" data-name="Rectángulo 59520" width="74.45" height="0.646" transform="translate(181.831 74.393)" fill="#f0f0f0"/>
        <rect id="Rectángulo_59521" data-name="Rectángulo 59521" width="74.45" height="0.646" transform="translate(181.831 75.859)" fill="#f0f0f0"/>
        <rect id="Rectángulo_59522" data-name="Rectángulo 59522" width="74.45" height="0.646" transform="translate(181.831 77.325)" fill="#f0f0f0"/>
        <rect id="Rectángulo_59523" data-name="Rectángulo 59523" width="74.45" height="0.646" transform="translate(181.831 78.791)" fill="#f0f0f0"/>
        <rect id="Rectángulo_59524" data-name="Rectángulo 59524" width="74.45" height="0.646" transform="translate(181.831 80.257)" fill="#f0f0f0"/>
        <rect id="Rectángulo_59525" data-name="Rectángulo 59525" width="74.45" height="0.646" transform="translate(181.831 81.723)" fill="#f0f0f0"/>
        <path id="Trazado_236833" data-name="Trazado 236833" d="M256.055,36.772A10.613,10.613,0,1,1,245.443,26.16a10.612,10.612,0,0,1,10.612,10.612" transform="translate(-70.543 -7.858)" fill="#f0f0f0"/>
        <path id="Trazado_236834" data-name="Trazado 236834" d="M255.149,37.454a9.023,9.023,0,1,1-9.023-9.023,9.024,9.024,0,0,1,9.023,9.023" transform="translate(-71.226 -8.541)" fill="#fafafa"/>
        <path id="Trazado_236835" data-name="Trazado 236835" d="M247.6,32.481v6.308l-4.18-2.365" transform="translate(-73.123 -9.757)" fill="#f0f0f0"/>
        <path id="Trazado_236836" data-name="Trazado 236836" d="M247.6,32.481v6.308l-4.18-2.365" transform="translate(-73.123 -9.757)" fill="none" stroke="#e0e0e0" stroke-linecap="round" stroke-linejoin="round" stroke-width="2"/>
      </g>
    </g>
    <g id="Grupo_182205" data-name="Grupo 182205">
      <g id="Grupo_182204" data-name="Grupo 182204" clip-path="url(#clip-path)">
        <g id="Grupo_182182" data-name="Grupo 182182" transform="translate(176.375 69.124)" opacity="0.5">
          <g id="Grupo_182181" data-name="Grupo 182181">
            <g id="Grupo_182283" data-name="Grupo 182283">
              <path id="Trazado_236837" data-name="Trazado 236837" d="M382.49,243.457H254.665a2.556,2.556,0,0,1-2.556-2.556V101.361a2.556,2.556,0,0,1,2.556-2.556H382.49a2.556,2.556,0,0,1,2.556,2.556V240.9a2.556,2.556,0,0,1-2.556,2.556" transform="translate(-252.109 -98.805)" fill="#afafaf"/>
            </g>
          </g>
        </g>
        <path id="Trazado_236838" data-name="Trazado 236838" d="M376.49,239.457H248.665a2.556,2.556,0,0,1-2.556-2.556V97.361a2.556,2.556,0,0,1,2.556-2.556H376.49a2.556,2.556,0,0,1,2.556,2.556V236.9a2.556,2.556,0,0,1-2.556,2.556" transform="translate(-73.931 -28.48)" fill="#407bff"/>
        <g id="Grupo_182185" data-name="Grupo 182185" transform="translate(172.178 66.325)" opacity="0.8" style="isolation: isolate">
          <g id="Grupo_182184" data-name="Grupo 182184">
            <g id="Grupo_182183" data-name="Grupo 182183" clip-path="url(#clip-path-4)">
              <path id="Trazado_236839" data-name="Trazado 236839" d="M376.49,239.457H248.665a2.556,2.556,0,0,1-2.556-2.556V97.361a2.556,2.556,0,0,1,2.556-2.556H376.49a2.556,2.556,0,0,1,2.556,2.556V236.9a2.556,2.556,0,0,1-2.556,2.556" transform="translate(-246.109 -94.805)" fill="#afafaf"/>
            </g>
          </g>
        </g>
        <g id="Grupo_182188" data-name="Grupo 182188" transform="translate(64.873 65.704)" opacity="0.5">
          <g id="Grupo_182187" data-name="Grupo 182187">
            <g id="Grupo_182282" data-name="Grupo 182282">
              <path id="Trazado_236840" data-name="Trazado 236840" d="M160.145,217.58H95.284a2.556,2.556,0,0,1-2.556-2.556V96.473a2.556,2.556,0,0,1,2.556-2.556h64.86a2.556,2.556,0,0,1,2.556,2.556V215.024a2.556,2.556,0,0,1-2.556,2.556" transform="translate(-92.728 -93.917)" fill="#12263f"/>
            </g>
          </g>
        </g>
        <path id="Trazado_236841" data-name="Trazado 236841" d="M154.145,211.58H89.284a2.556,2.556,0,0,1-2.556-2.556V90.473a2.556,2.556,0,0,1,2.556-2.556h64.86a2.556,2.556,0,0,1,2.556,2.556V209.024a2.556,2.556,0,0,1-2.556,2.556" transform="translate(-26.053 -26.41)" fill="#407bff"/>
        <g id="Grupo_182191" data-name="Grupo 182191" transform="translate(60.675 61.507)" opacity="0.8" style="isolation: isolate">
          <g id="Grupo_182190" data-name="Grupo 182190">
            <g id="Grupo_182189" data-name="Grupo 182189" clip-path="url(#clip-path-5)">
              <path id="Trazado_236842" data-name="Trazado 236842" d="M154.145,211.58H89.284a2.556,2.556,0,0,1-2.556-2.556V90.473a2.556,2.556,0,0,1,2.556-2.556h64.86a2.556,2.556,0,0,1,2.556,2.556V209.024a2.556,2.556,0,0,1-2.556,2.556" transform="translate(-86.728 -87.917)" fill="#afafaf"/>
            </g>
          </g>
        </g>
        <path id="Trazado_236843" data-name="Trazado 236843" d="M329.03,52.626H89.423a2.7,2.7,0,0,1-2.695-2.695V39.051a2.7,2.7,0,0,1,2.695-2.695H329.03a2.7,2.7,0,0,1,2.695,2.695v10.88a2.7,2.7,0,0,1-2.695,2.695" transform="translate(-26.053 -10.921)" fill="#373f51"/>
        <g id="Grupo_182194" data-name="Grupo 182194" transform="translate(274.531 30.395)" opacity="0.6" style="isolation: isolate">
          <g id="Grupo_182193" data-name="Grupo 182193">
            <g id="Grupo_182192" data-name="Grupo 182192" clip-path="url(#clip-path-6)">
              <path id="Trazado_236844" data-name="Trazado 236844" d="M398.692,46.621a3.14,3.14,0,1,1-3.14-3.174,3.157,3.157,0,0,1,3.14,3.174" transform="translate(-392.412 -43.447)" fill="#fff"/>
            </g>
          </g>
        </g>
        <g id="Grupo_182197" data-name="Grupo 182197" transform="translate(284.351 30.395)" opacity="0.6" style="isolation: isolate">
          <g id="Grupo_182196" data-name="Grupo 182196">
            <g id="Grupo_182195" data-name="Grupo 182195" clip-path="url(#clip-path-6)">
              <path id="Trazado_236845" data-name="Trazado 236845" d="M412.729,46.621a3.14,3.14,0,1,1-3.14-3.174,3.157,3.157,0,0,1,3.14,3.174" transform="translate(-406.449 -43.447)" fill="#fff"/>
            </g>
          </g>
        </g>
        <g id="Grupo_182200" data-name="Grupo 182200" transform="translate(294.171 30.395)" opacity="0.6" style="isolation: isolate">
          <g id="Grupo_182199" data-name="Grupo 182199">
            <g id="Grupo_182198" data-name="Grupo 182198" clip-path="url(#clip-path-6)">
              <path id="Trazado_236846" data-name="Trazado 236846" d="M426.766,46.621a3.14,3.14,0,1,1-3.14-3.174,3.157,3.157,0,0,1,3.14,3.174" transform="translate(-420.486 -43.447)" fill="#fff"/>
            </g>
          </g>
        </g>
        <g id="Grupo_182203" data-name="Grupo 182203" transform="translate(66.387 29.489)" opacity="0.6" style="isolation: isolate">
          <g id="Grupo_182202" data-name="Grupo 182202">
            <g id="Grupo_182201" data-name="Grupo 182201" clip-path="url(#clip-path-9)">
              <rect id="Rectángulo_59534" data-name="Rectángulo 59534" width="8.073" height="8.162" transform="translate(0)" fill="#fff"/>
            </g>
          </g>
        </g>
      </g>
    </g>
    <rect id="Rectángulo_59537" data-name="Rectángulo 59537" width="75.442" height="14.432" transform="translate(50.84 81.218)" fill="#373f51"/>
    <rect id="Rectángulo_59541" data-name="Rectángulo 59541" width="6.026" height="6.026" transform="translate(55.674 85.421)" fill="#fff"/>
    <path id="Trazado_236847" data-name="Trazado 236847" d="M81.464,125.793l1.123,1.447,2.266-2.919" transform="translate(-24.472 -37.346)" fill="none" stroke="#12263f" stroke-linecap="round" stroke-linejoin="round" stroke-width="1.5"/>
    <g id="Grupo_182221" data-name="Grupo 182221">
      <g id="Grupo_182220" data-name="Grupo 182220" clip-path="url(#clip-path)">
        <path id="Trazado_236848" data-name="Trazado 236848" d="M172.226,128.185h-6.059v-4.1h6.059Zm-3.029-7.109a2.572,2.572,0,0,0-2.57,2.57h.7a1.87,1.87,0,1,1,3.74,0h.7a2.572,2.572,0,0,0-2.57-2.57" transform="translate(-49.917 -36.371)" fill="#fff"/>
        <rect id="Rectángulo_59542" data-name="Rectángulo 59542" width="75.442" height="14.432" transform="translate(39.754 107.894)" fill="#f4a338"/>
        <rect id="Rectángulo_59545" data-name="Rectángulo 59545" width="6.026" height="6.026" transform="translate(44.588 112.097)" fill="#fff"/>
        <rect id="Rectángulo_59546" data-name="Rectángulo 59546" width="6.059" height="4.096" transform="translate(105.164 114.393)" fill="#fff"/>
        <path id="Trazado_236849" data-name="Trazado 236849" d="M156.117,161.777h-.7a1.87,1.87,0,0,0-3.741,0h-.7a2.57,2.57,0,0,1,5.14,0" transform="translate(-45.354 -47.826)" fill="#fff"/>
        <rect id="Rectángulo_59547" data-name="Rectángulo 59547" width="75.442" height="14.432" transform="translate(51.231 135.824)" fill="#4adbd1"/>
        <rect id="Rectángulo_59550" data-name="Rectángulo 59550" width="6.026" height="6.026" transform="translate(56.065 140.027)" fill="#fff"/>
        <path id="Trazado_236850" data-name="Trazado 236850" d="M82.023,203.847l1.123,1.446,2.266-2.919" transform="translate(-24.64 -60.794)" fill="none" stroke="#4adbd1" stroke-linecap="round" stroke-linejoin="round" stroke-width="1.5"/>
        <g id="Grupo_182219" data-name="Grupo 182219" transform="translate(116.641 139.311)" opacity="0.6" style="isolation: isolate">
          <g id="Grupo_182218" data-name="Grupo 182218">
            <g id="Grupo_182217" data-name="Grupo 182217" clip-path="url(#clip-path-12)">
              <rect id="Rectángulo_59551" data-name="Rectángulo 59551" width="6.059" height="4.095" transform="translate(0 3.013)" fill="#fff"/>
              <path id="Trazado_236851" data-name="Trazado 236851" d="M172.522,201.7h-.7a1.87,1.87,0,1,0-3.741,0h-.7a2.57,2.57,0,1,1,5.14,0" transform="translate(-166.922 -199.13)" fill="#fff"/>
            </g>
          </g>
        </g>
      </g>
    </g>
    <rect id="Rectángulo_59554" data-name="Rectángulo 59554" width="58.911" height="38.316" transform="translate(228.746 120.095)" fill="#afafaf"/>
    <rect id="Rectángulo_59558" data-name="Rectángulo 59558" width="54.601" height="29.216" transform="translate(230.9 127.28)" fill="#f6f6f6"/>
    <rect id="Rectángulo_59559" data-name="Rectángulo 59559" width="40.389" height="1.257" transform="translate(235.35 131.645)" fill="#fff"/>
    <rect id="Rectángulo_59560" data-name="Rectángulo 59560" width="19.379" height="1.256" transform="translate(235.35 135.495)" fill="#fff"/>
    <rect id="Rectángulo_59561" data-name="Rectángulo 59561" width="24.408" height="1.256" transform="translate(235.35 139.344)" fill="#fff"/>
    <rect id="Rectángulo_59562" data-name="Rectángulo 59562" width="8.602" height="1.256" transform="translate(235.35 143.193)" fill="#fff"/>
    <rect id="Rectángulo_59563" data-name="Rectángulo 59563" width="5.571" height="1.257" transform="translate(235.35 147.042)" fill="#fff"/>
    <g id="Grupo_182234" data-name="Grupo 182234">
      <g id="Grupo_182233" data-name="Grupo 182233" clip-path="url(#clip-path)">
        <path id="Trazado_236852" data-name="Trazado 236852" d="M399.727,277.2V298.56a2.407,2.407,0,0,1-2.055,2.386,1.862,1.862,0,0,1-.362.031H369.865a2.417,2.417,0,0,1-2.417-2.417V277.2a2.317,2.317,0,0,1,.246-1.055,2.409,2.409,0,0,1,2.171-1.37h10.754a2.439,2.439,0,0,0,1.424-.462,2.366,2.366,0,0,0,.878-1.2,2.422,2.422,0,0,1,2.3-1.671h5.728a2.415,2.415,0,0,1,2.3,1.671,2.418,2.418,0,0,0,2.3,1.663h1.755a2.422,2.422,0,0,1,2.417,2.425" transform="translate(-110.382 -81.541)" fill="#c17d23"/>
        <g id="Grupo_182229" data-name="Grupo 182229" transform="translate(257.066 194.602)" style="isolation: isolate">
          <g id="Grupo_182228" data-name="Grupo 182228">
            <g id="Grupo_182227" data-name="Grupo 182227" clip-path="url(#clip-path-15)">
              <path id="Trazado_236853" data-name="Trazado 236853" d="M397.67,280.226v22.74l-.031.031H369.864a2.417,2.417,0,0,1-2.417-2.418V279.217a2.314,2.314,0,0,1,.246-1.055h27.913a2.064,2.064,0,0,1,2.064,2.064" transform="translate(-367.448 -278.162)" fill="#f4a338"/>
            </g>
          </g>
        </g>
        <path id="Trazado_236854" data-name="Trazado 236854" d="M309.51,234.718v26.718l-5.219,5.219H285.15V234.718Z" transform="translate(-85.659 -70.51)" fill="#afafaf"/>
        <path id="Trazado_236856" data-name="Trazado 236856" d="M317.729,272.908H312.51v5.219Z" transform="translate(-93.878 -81.982)" fill="#e8e8e8"/>
        <rect id="Rectángulo_59566" data-name="Rectángulo 59566" width="18.369" height="1.003" transform="translate(202.528 169.628)" fill="#e8e8e8"/>
        <rect id="Rectángulo_59567" data-name="Rectángulo 59567" width="15.453" height="1.003" transform="translate(202.528 172.697)" fill="#e8e8e8"/>
        <rect id="Rectángulo_59568" data-name="Rectángulo 59568" width="18.369" height="1.002" transform="translate(202.528 175.767)" fill="#e8e8e8"/>
        <rect id="Rectángulo_59569" data-name="Rectángulo 59569" width="6.86" height="1.003" transform="translate(202.528 178.836)" fill="#e8e8e8"/>
        <rect id="Rectángulo_59570" data-name="Rectángulo 59570" width="4.442" height="1.003" transform="translate(202.528 181.906)" fill="#e8e8e8"/>
      </g>
    </g>
    <rect id="Rectángulo_59572" data-name="Rectángulo 59572" width="49.802" height="41.151" transform="translate(190.468 62.228)" fill="#afafaf"/>
    <g id="Grupo_182245" data-name="Grupo 182245">
      <g id="Grupo_182244" data-name="Grupo 182244" clip-path="url(#clip-path)">
        <g id="Grupo_182237" data-name="Grupo 182237" transform="translate(190.469 62.229)" opacity="0.6" style="isolation: isolate">
          <g id="Grupo_182236" data-name="Grupo 182236">
            <g id="Grupo_182235" data-name="Grupo 182235" clip-path="url(#clip-path-17)">
              <path id="Trazado_236857" data-name="Trazado 236857" d="M272.254,130.1h49.8V88.948h-49.8Zm48.177-1.624H273.878v-37.9h46.553Z" transform="translate(-272.254 -88.949)" fill="#fff"/>
            </g>
          </g>
        </g>
        <g id="Grupo_182240" data-name="Grupo 182240" transform="translate(192.093 80.151)" opacity="0.3" style="isolation: isolate">
          <g id="Grupo_182239" data-name="Grupo 182239">
            <g id="Grupo_182238" data-name="Grupo 182238" clip-path="url(#clip-path-18)">
              <path id="Trazado_236858" data-name="Trazado 236858" d="M274.576,124.939l14.277-10.372,10.6,10.372,10.6-6.065,11.068,6.815v10.481H274.576Z" transform="translate(-274.576 -114.567)" fill="#fff"/>
            </g>
          </g>
        </g>
        <g id="Grupo_182243" data-name="Grupo 182243" transform="translate(218.902 69.791)" opacity="0.6" style="isolation: isolate">
          <g id="Grupo_182242" data-name="Grupo 182242">
            <g id="Grupo_182241" data-name="Grupo 182241" clip-path="url(#clip-path-19)">
              <path id="Trazado_236859" data-name="Trazado 236859" d="M319.716,103.17a3.41,3.41,0,1,1-3.411-3.41,3.41,3.41,0,0,1,3.411,3.41" transform="translate(-312.896 -99.759)" fill="#fff"/>
            </g>
          </g>
        </g>
      </g>
    </g>
    <path id="Trazado_236860" data-name="Trazado 236860" d="M347.486,150.213v1.4h-1.4" transform="translate(-103.965 -45.124)" fill="none" stroke="#263238" stroke-miterlimit="10" stroke-width="1"/>
    <line id="Línea_1952" data-name="Línea 1952" x1="50.094" transform="translate(189.834 106.488)" fill="none" stroke="#263238" stroke-miterlimit="10" stroke-width="1" stroke-dasharray="4.181 3.136"/>
    <path id="Trazado_236861" data-name="Trazado 236861" d="M269.179,151.612h-1.4v-1.4" transform="translate(-80.441 -45.124)" fill="none" stroke="#263238" stroke-miterlimit="10" stroke-width="1"/>
    <line id="Línea_1953" data-name="Línea 1953" y1="41.464" transform="translate(187.338 61.602)" fill="none" stroke="#263238" stroke-miterlimit="10" stroke-width="1" stroke-dasharray="3.855 2.891"/>
    <path id="Trazado_236862" data-name="Trazado 236862" d="M267.78,86.007v-1.4h1.4" transform="translate(-80.441 -25.416)" fill="none" stroke="#263238" stroke-miterlimit="10" stroke-width="1"/>
    <line id="Línea_1954" data-name="Línea 1954" x2="50.094" transform="translate(190.931 59.192)" fill="none" stroke="#263238" stroke-miterlimit="10" stroke-width="1" stroke-dasharray="4.181 3.136"/>
    <path id="Trazado_236863" data-name="Trazado 236863" d="M346.087,84.608h1.4v1.4" transform="translate(-103.965 -25.416)" fill="none" stroke="#263238" stroke-miterlimit="10" stroke-width="1"/>
    <line id="Línea_1955" data-name="Línea 1955" y2="41.464" transform="translate(243.521 62.614)" fill="none" stroke="#263238" stroke-miterlimit="10" stroke-width="1" stroke-dasharray="3.855 2.891"/>
    <rect id="Rectángulo_59577" data-name="Rectángulo 59577" width="2.207" height="2.207" transform="translate(242.418 58.088)" fill="#263238"/>
    <rect id="Rectángulo_59578" data-name="Rectángulo 59578" width="2.207" height="2.207" transform="translate(242.418 105.385)" fill="#263238"/>
    <rect id="Rectángulo_59579" data-name="Rectángulo 59579" width="2.207" height="2.207" transform="translate(186.235 105.385)" fill="#263238"/>
    <rect id="Rectángulo_59580" data-name="Rectángulo 59580" width="2.207" height="2.207" transform="translate(186.235 58.088)" fill="#263238"/>
    <rect id="Rectángulo_59581" data-name="Rectángulo 59581" width="2.207" height="2.207" transform="translate(214.266 58.088)" fill="#263238"/>
    <rect id="Rectángulo_59582" data-name="Rectángulo 59582" width="2.207" height="2.207" transform="translate(214.326 105.385)" fill="#263238"/>
    <rect id="Rectángulo_59583" data-name="Rectángulo 59583" width="2.207" height="2.207" transform="translate(242.418 81.736)" fill="#263238"/>
    <rect id="Rectángulo_59584" data-name="Rectángulo 59584" width="2.207" height="2.207" transform="translate(186.235 81.736)" fill="#263238"/>
    <g id="Grupo_182247" data-name="Grupo 182247">
      <g id="Grupo_182246" data-name="Grupo 182246" clip-path="url(#clip-path)">
        <path id="Trazado_236864" data-name="Trazado 236864" d="M169.7,181.667l-7.442,6.045s-1.82.038-2.392.639-2.769,5.068-2.457,5.677,3.985,1.813,4.759,1.093,2.119-4.853,2.093-5.295l9.511-6.38Z" transform="translate(-47.275 -54.573)" fill="#ebb376"/>
        <path id="Trazado_236865" data-name="Trazado 236865" d="M169.284,174.863l1.665,3.631s10.235-4.792,12.453-7.584c.567-.721,1.35-1.868,2.2-3.176,1.392-2.162,2.966-4.764,4.058-6.59.812-1.364,1.357-2.295,1.357-2.295l-5.793-9.137c-1.266.972-5.142,16.587-5.835,17.427s-10.1,7.724-10.1,7.724" transform="translate(-50.853 -44.974)" fill="#e8e8e8"/>
      </g>
    </g>
    <g id="Grupo_182252" data-name="Grupo 182252" transform="translate(118.432 104.738)">
      <g id="Grupo_182251" data-name="Grupo 182251" clip-path="url(#clip-path-21)">
        <g id="Grupo_182250" data-name="Grupo 182250" transform="translate(16.31 4.785)" opacity="0.1" style="isolation: isolate">
          <g id="Grupo_182249" data-name="Grupo 182249">
            <g id="Grupo_182248" data-name="Grupo 182248" clip-path="url(#clip-path-22)">
              <path id="Trazado_236866" data-name="Trazado 236866" d="M192.6,169.788c1.392-2.162,2.966-4.764,4.058-6.59l-2.693-6.646a79.244,79.244,0,0,0-1.364,13.236" transform="translate(-192.598 -156.552)"/>
            </g>
          </g>
        </g>
      </g>
    </g>
    <g id="Grupo_182272" data-name="Grupo 182272">
      <g id="Grupo_182271" data-name="Grupo 182271" clip-path="url(#clip-path)">
        <path id="Trazado_236868" data-name="Trazado 236868" d="M260.048,128.636l7.336-5.694s.593-1.721,1.34-2.081,5.672-1.084,6.157-.6.506,4.349-.417,4.865-5.269.531-5.681.371l-8.012,5.854Z" transform="translate(-78.119 -36.078)" fill="#ebb376"/>
        <path id="Trazado_236869" data-name="Trazado 236869" d="M171.525,350.687l4.391.775,1.8-5.988,1.643-5.5L174.3,338.21l-1.471,6.606Z" transform="translate(-51.526 -101.599)" fill="#ebb376"/>
        <g id="Grupo_182255" data-name="Grupo 182255" transform="translate(121.276 236.641)" opacity="0.2" style="isolation: isolate">
          <g id="Grupo_182254" data-name="Grupo 182254">
            <g id="Grupo_182253" data-name="Grupo 182253" clip-path="url(#clip-path-24)">
              <path id="Trazado_236870" data-name="Trazado 236870" d="M173.351,344.964l4.894.644,1.654-5.556-5.059-1.8Z" transform="translate(-173.351 -338.253)"/>
            </g>
          </g>
        </g>
        <path id="Trazado_236871" data-name="Trazado 236871" d="M213.433,350.89h4.459l.732-5.984.663-5.585-5.294-.8-.3,6.562Z" transform="translate(-64.116 -101.691)" fill="#ebb376"/>
        <g id="Grupo_182258" data-name="Grupo 182258" transform="translate(149.578 236.913)" opacity="0.2" style="isolation: isolate">
          <g id="Grupo_182257" data-name="Grupo 182257">
            <g id="Grupo_182256" data-name="Grupo 182256" clip-path="url(#clip-path-25)">
              <path id="Trazado_236872" data-name="Trazado 236872" d="M213.806,345.509l4.931-.217.663-5.759-5.294-.891Z" transform="translate(-213.806 -338.642)"/>
            </g>
          </g>
        </g>
        <path id="Trazado_236873" data-name="Trazado 236873" d="M172.76,295.317l7.22,1.273c7.285-18.151,12.468-33.3,16.126-45.875,1.971-6.785,3.534-12.817,4.714-18.171l-.3,19.759v44.57H207.8c17.834-84.651,5.2-104.331,5.2-104.331l-21.336-3.567a97.115,97.115,0,0,0-1.787,11.98l-.963,7.075-8.341,43.076Z" transform="translate(-51.897 -56.768)" fill="#263238"/>
        <path id="Trazado_236874" data-name="Trazado 236874" d="M180.853,340.249l-8.956-2.969.122,3.809,7.406,2.362Z" transform="translate(-51.638 -101.319)" fill="#407bff"/>
        <g id="Grupo_182261" data-name="Grupo 182261" transform="translate(120.259 235.96)" opacity="0.6" style="isolation: isolate">
          <g id="Grupo_182260" data-name="Grupo 182260">
            <g id="Grupo_182259" data-name="Grupo 182259" clip-path="url(#clip-path-26)">
              <path id="Trazado_236875" data-name="Trazado 236875" d="M180.853,340.249l-8.956-2.969.122,3.809,7.406,2.362Z" transform="translate(-171.897 -337.28)" fill="#fff"/>
            </g>
          </g>
        </g>
        <path id="Trazado_236876" data-name="Trazado 236876" d="M220.2,341.529l-9.335-1.366.782,3.73,7.7,1.039Z" transform="translate(-63.344 -102.185)" fill="#407bff"/>
        <g id="Grupo_182264" data-name="Grupo 182264" transform="translate(147.521 237.977)" opacity="0.6" style="isolation: isolate">
          <g id="Grupo_182263" data-name="Grupo 182263">
            <g id="Grupo_182262" data-name="Grupo 182262" clip-path="url(#clip-path-27)">
              <path id="Trazado_236877" data-name="Trazado 236877" d="M220.2,341.529l-9.335-1.366.782,3.73,7.7,1.039Z" transform="translate(-210.865 -340.162)" fill="#fff"/>
            </g>
          </g>
        </g>
        <g id="Grupo_182267" data-name="Grupo 182267" transform="translate(143.227 150.985)" opacity="0.2" style="isolation: isolate">
          <g id="Grupo_182266" data-name="Grupo 182266">
            <g id="Grupo_182265" data-name="Grupo 182265" clip-path="url(#clip-path-28)">
              <path id="Trazado_236878" data-name="Trazado 236878" d="M204.727,262.1c.337-1.127.695-2.235,1.012-3.323,1.787-6.158,2.981-11.7,4.38-16.667V242.1l.73-9.151s-4.564-10.055-2.856-17.129c-.158.4-3.178,8.11-1.992,15.81a224.292,224.292,0,0,1-1.273,30.474" transform="translate(-204.727 -215.816)"/>
            </g>
          </g>
        </g>
        <path id="Trazado_236879" data-name="Trazado 236879" d="M201.644,128.574a1.03,1.03,0,0,0,.186.1,7.873,7.873,0,0,0,2.907.982c2.977.29,4.9-.362,6.018-1.837h.006c1.549-2.2,1.548-5.73.748-9.888a15.852,15.852,0,0,0-1.553-4.776c-.008-.012-.014-.06-.022-.073-.033-.049-.062-.12-.1-.168a5.771,5.771,0,0,0-4.659-2.945,11.7,11.7,0,0,0-2.514.045c-8.184.979-7.893,14.707-1.022,18.56" transform="translate(-59.031 -33.021)" fill="#ebb376"/>
        <g id="Grupo_182270" data-name="Grupo 182270" transform="translate(142.8 94.57)" opacity="0.2" style="isolation: isolate">
          <g id="Grupo_182269" data-name="Grupo 182269">
            <g id="Grupo_182268" data-name="Grupo 182268" clip-path="url(#clip-path-29)">
              <path id="Trazado_236880" data-name="Trazado 236880" d="M204.117,136.262a7.645,7.645,0,0,0,2.891.867c2.977.291,4.887-.456,6-1.951a8.217,8.217,0,0,1-5.24.25,4.284,4.284,0,0,0-3.654.835" transform="translate(-204.117 -135.178)"/>
            </g>
          </g>
        </g>
        <path id="Trazado_236881" data-name="Trazado 236881" d="M203.034,142.36c-.735,2.286,2.2,3.534,2.2,3.534,5.155-1.627,6.332-4.168,6.332-4.168-3.916-2.557-2.124-8.529-2.124-8.529l-.881.331-6.007.574s1.327,3.3,1.473,4.035c0,.006.006.013,0,.02.742,3.849-1,4.2-1,4.2" transform="translate(-60.847 -40.013)" fill="#ebb376"/>
        <path id="Trazado_236882" data-name="Trazado 236882" d="M208.046,112.292a8.665,8.665,0,0,1-3.914,8.841s-1.557,6.257-4.98,6.788c-4.666.724-9.658-5.4-8.919-12.394.958-9.07,14.191-11.52,17.813-3.235" transform="translate(-57.124 -32.212)" fill="#263238"/>
        <path id="Trazado_236883" data-name="Trazado 236883" d="M212.3,123.388c-.118-.894-1.033-2.3-2.4-1.917-1.411.4-1.747,4.047,1.891,4.379.522.048.751-.6.5-2.463" transform="translate(-62.757 -36.47)" fill="#ebb376"/>
        <path id="Trazado_236884" data-name="Trazado 236884" d="M217.709,354.995h-4.978a.454.454,0,0,0-.441.356l-1.022,4.615a.765.765,0,0,0,.59.907.809.809,0,0,0,.169.016c2.037-.033,2.2-.158,4.76-.158,1.576,0,6.329.165,8.505.165s2.459-2.15,1.569-2.347c-4-.87-7-2.077-8.282-3.224a1.249,1.249,0,0,0-.87-.33" transform="translate(-63.46 -106.641)" fill="#263238"/>
        <path id="Trazado_236885" data-name="Trazado 236885" d="M220.95,355.538a.126.126,0,0,1-.092-.106.112.112,0,0,1,.059-.118c.185-.119,1.86-1.147,2.433-.851a.369.369,0,0,1,.211.343.725.725,0,0,1-.257.659,1.545,1.545,0,0,1-1,.264,6.182,6.182,0,0,1-1.358-.191m.356-.171a2.519,2.519,0,0,0,1.846-.092.508.508,0,0,0,.164-.442c-.006-.1-.046-.145-.079-.145a.289.289,0,0,0-.158-.033,5.03,5.03,0,0,0-1.773.712" transform="translate(-66.345 -106.465)" fill="#407bff"/>
        <path id="Trazado_236886" data-name="Trazado 236886" d="M220.918,355.061a.132.132,0,0,1-.059-.113c.006-.072.132-1.562.732-2.05a.658.658,0,0,1,.521-.159.4.4,0,0,1,.4.323c.106.547-.93,1.688-1.464,1.978h-.059a.112.112,0,0,1-.066.02m.83-2.018a2.905,2.905,0,0,0-.613,1.622c.534-.4,1.193-1.266,1.127-1.6-.006-.033-.02-.125-.178-.125h-.059a.424.424,0,0,0-.277.106" transform="translate(-66.346 -105.962)" fill="#407bff"/>
        <path id="Trazado_236887" data-name="Trazado 236887" d="M175.273,354.995H170.3a.454.454,0,0,0-.441.356l-1.022,4.615a.765.765,0,0,0,.59.907.8.8,0,0,0,.169.016c2.037-.033,2.2-.158,4.759-.158,1.575,0,6.329.165,8.505.165s2.459-2.15,1.569-2.347c-4-.87-7-2.077-8.281-3.224a1.251,1.251,0,0,0-.87-.33" transform="translate(-50.713 -106.641)" fill="#263238"/>
        <path id="Trazado_236888" data-name="Trazado 236888" d="M178.514,355.538a.126.126,0,0,1-.092-.106.112.112,0,0,1,.059-.118c.185-.119,1.86-1.147,2.433-.851a.369.369,0,0,1,.211.343.725.725,0,0,1-.257.659,1.545,1.545,0,0,1-1,.264,6.182,6.182,0,0,1-1.358-.191m.356-.171a2.518,2.518,0,0,0,1.846-.092.508.508,0,0,0,.164-.442c-.006-.1-.045-.145-.079-.145a.287.287,0,0,0-.158-.033,5.03,5.03,0,0,0-1.773.712" transform="translate(-53.598 -106.465)" fill="#407bff"/>
        <path id="Trazado_236889" data-name="Trazado 236889" d="M178.482,355.061a.132.132,0,0,1-.059-.113c.006-.072.132-1.562.732-2.05a.658.658,0,0,1,.52-.159.4.4,0,0,1,.4.323c.1.547-.93,1.688-1.464,1.978h-.059a.112.112,0,0,1-.066.02m.83-2.018a2.9,2.9,0,0,0-.613,1.622c.534-.4,1.193-1.266,1.127-1.6-.006-.033-.02-.125-.178-.125h-.059a.424.424,0,0,0-.277.106" transform="translate(-53.599 -105.962)" fill="#407bff"/>
        <path id="Trazado_236890" data-name="Trazado 236890" d="M218.791,178.743s4.07-24.8-2.925-35.919c0,0-13.972-.868-23.8,4.806,0,0,4.062,11.041,4.666,31.113Z" transform="translate(-57.697 -42.89)" fill="#afafaf"/>
      </g>
    </g>
    <g id="Grupo_182277" data-name="Grupo 182277" transform="translate(134.368 99.887)">
      <g id="Grupo_182276" data-name="Grupo 182276" clip-path="url(#clip-path-30)">
        <g id="Grupo_182275" data-name="Grupo 182275" transform="translate(22.466 2.285)" opacity="0.1" style="isolation: isolate">
          <g id="Grupo_182274" data-name="Grupo 182274">
            <g id="Grupo_182273" data-name="Grupo 182273" clip-path="url(#clip-path-31)">
              <path id="Trazado_236891" data-name="Trazado 236891" d="M229.712,160.745c.3-3.365-.672-6.6-.84-9.459a27.45,27.45,0,0,1-4.6-5.243s-1.273,10.046,5.439,14.7" transform="translate(-224.177 -146.043)"/>
            </g>
          </g>
        </g>
      </g>
    </g>
    <g id="Grupo_182279" data-name="Grupo 182279">
      <g id="Grupo_182278" data-name="Grupo 182278" clip-path="url(#clip-path)">
        <path id="Trazado_236893" data-name="Trazado 236893" d="M223.518,138.615s13.846-1.623,15.928-2.5c1.3-.547,11.481-7.2,11.481-7.2l2.386,3.553s-10.413,8.409-12.173,9.375c-4.129,2.268-13.406,5.466-13.406,5.466s-5.606-3.9-4.216-8.7" transform="translate(-67.079 -38.728)" fill="#f6f6f6"/>
        <path id="Trazado_236894" data-name="Trazado 236894" d="M204.192,115.072s5.755-5.755.328-9.629-10.883,1.18-10.883,1.18-12.991,3.138-10.225,11.772,4.572,9.371.459,13.8-8.317,10.991-4.112,15.183,18.9-.12,23.361-6.452-3.422-19.915,1.072-25.854" transform="translate(-53.476 -31.236)" fill="#263238"/>
        <path id="Trazado_236895" data-name="Trazado 236895" d="M198.7,193.177l-.088-2.352,22.4.569v2.175Z" transform="translate(-59.662 -57.324)"/>
        <rect id="Rectángulo_59595" data-name="Rectángulo 59595" width="0.902" height="2.317" transform="translate(145.235 133.66)" fill="#263238"/>
        <rect id="Rectángulo_59596" data-name="Rectángulo 59596" width="0.797" height="2.529" transform="translate(155.682 133.926)" fill="#263238"/>
        <rect id="Rectángulo_59597" data-name="Rectángulo 59597" width="0.762" height="2.709" transform="translate(139.562 133.536)" fill="#263238"/>
      </g>
    </g>
  </g>
</svg>
