<svg id="Grupo_181952" data-name="Grupo 181952" xmlns="http://www.w3.org/2000/svg" xmlns:xlink="http://www.w3.org/1999/xlink" width="231.119" height="230.856" viewBox="0 0 231.119 230.856">
  <defs>
    <clipPath id="clip-path">
      <rect id="Rectángulo_59257" data-name="Rectángulo 59257" width="231.119" height="230.856" fill="none"/>
    </clipPath>
    <clipPath id="clip-path-5">
      <rect id="Rectángulo_59249" data-name="Rectángulo 59249" width="75.696" height="27.335" fill="none"/>
    </clipPath>
    <clipPath id="clip-path-6">
      <rect id="Rectángulo_59251" data-name="Rectángulo 59251" width="23.482" height="7.792" fill="none"/>
    </clipPath>
  </defs>
  <g id="Grupo_181950" data-name="Grupo 181950" clip-path="url(#clip-path)">
    <g id="Grupo_181935" data-name="Grupo 181935">
      <g id="Grupo_181934" data-name="Grupo 181934" clip-path="url(#clip-path)">
        <path id="Trazado_235516" data-name="Trazado 235516" d="M114.773,47.154H100.908a5.4,5.4,0,0,1-5.4-5.4V27.89a5.4,5.4,0,0,1,5.4-5.4h13.864a5.4,5.4,0,0,1,5.4,5.4V41.755a5.4,5.4,0,0,1-5.4,5.4" transform="translate(-44.739 -10.535)" fill="#e0e0e0"/>
        <path id="Trazado_235517" data-name="Trazado 235517" d="M107.89,45.9l.9-3.353A6.2,6.2,0,1,1,111.26,45Zm3.537-2.159.212.127a5.037,5.037,0,1,0-1.723-1.707l.13.214-.5,1.872Z" transform="translate(-50.539 -15.632)" fill="#fff"/>
        <path id="Trazado_235518" data-name="Trazado 235518" d="M119.295,43.451a1.044,1.044,0,0,0-.887-.2c-.23.094-.377.454-.526.639a.22.22,0,0,1-.285.062,4.019,4.019,0,0,1-2-1.716.246.246,0,0,1,.031-.336,1.363,1.363,0,0,0,.365-.591,1.307,1.307,0,0,0-.163-.7,1.671,1.671,0,0,0-.517-.779.708.708,0,0,0-.769.114A1.562,1.562,0,0,0,114,41.181a1.8,1.8,0,0,0,.049.392,3.228,3.228,0,0,0,.376.867,6.722,6.722,0,0,0,.392.6,6.073,6.073,0,0,0,1.7,1.581,5.122,5.122,0,0,0,1.062.506,2.355,2.355,0,0,0,1.236.2,1.5,1.5,0,0,0,1.121-.834.726.726,0,0,0,.052-.426c-.064-.293-.46-.467-.7-.609" transform="translate(-53.401 -18.626)" fill="#fff" fill-rule="evenodd"/>
        <path id="Trazado_235519" data-name="Trazado 235519" d="M357.478,345.8a15.649,15.649,0,0,1,3.816-1.658l.786-3.777,6.381-.112.918,3.746a15.64,15.64,0,0,1,3.872,1.523l3.224-2.114,4.591,4.433-2,3.3a15.614,15.614,0,0,1,1.658,3.816l3.776.786.112,6.381-3.746.919a15.623,15.623,0,0,1-1.523,3.871l2.113,3.225-4.432,4.591-3.3-2a15.633,15.633,0,0,1-3.816,1.658l-.786,3.777-6.38.112-.919-3.746a15.643,15.643,0,0,1-3.871-1.523l-3.224,2.114-4.591-4.433,2-3.3a15.633,15.633,0,0,1-1.658-3.816l-3.776-.786-.112-6.381,3.747-.919a15.641,15.641,0,0,1,1.523-3.871l-2.114-3.225,4.432-4.591Zm3.4,8.5a6.846,6.846,0,1,0,9.68-.17,6.846,6.846,0,0,0-9.68.17" transform="translate(-162.355 -159.386)" fill="#ebebeb"/>
        <path id="Trazado_235520" data-name="Trazado 235520" d="M371.671,364.729a5.167,5.167,0,0,1,1.275-1.118,6.816,6.816,0,0,1,4.466-1.056,6.9,6.9,0,0,1,3.035,1.079A7,7,0,0,1,382.9,366.4a7.014,7.014,0,0,1,.661,4.029,6.985,6.985,0,0,1-5.779,5.986,7.021,7.021,0,0,1-4.051-.519,7.011,7.011,0,0,1-2.851-2.356,6.9,6.9,0,0,1-1.184-3,6.814,6.814,0,0,1,.9-4.5,5.183,5.183,0,0,1,1.073-1.313c.037.031-.414.449-.941,1.389a6.828,6.828,0,0,0-.757,4.383,6.692,6.692,0,0,0,3.908,5.064,6.691,6.691,0,0,0,3.838.47,6.634,6.634,0,0,0,5.463-5.659,6.7,6.7,0,0,0-.605-3.819,6.689,6.689,0,0,0-5.2-3.727,6.822,6.822,0,0,0-4.353.91c-.921.56-1.323,1.025-1.355.989" transform="translate(-173.146 -169.813)" fill="#ebebeb"/>
        <path id="Trazado_235521" data-name="Trazado 235521" d="M357.354,345.7a1.529,1.529,0,0,1-.213-.112l-.633-.366-2.485-1.468.078-.01-4.406,4.617.012-.123,2.126,3.216.038.058-.034.062a15.609,15.609,0,0,0-1.5,3.846l-.019.075-.076.019-3.744.929.106-.138c.04,2.009.082,4.141.127,6.38l-.123-.148,3.778.778.1.02.027.094a15.561,15.561,0,0,0,1.647,3.773l.054.087-.053.088-1.994,3.3-.028-.216,4.6,4.427-.227-.021,3.222-2.117.095-.062.1.055a15.541,15.541,0,0,0,3.826,1.5l.112.027.027.112.921,3.746-.19-.147,6.38-.114-.187.155c.248-1.193.515-2.48.785-3.777l.024-.116.114-.032a15.493,15.493,0,0,0,3.765-1.635l0,0,.1-.061.1.061,3.3,2-.242.031,4.433-4.59-.022.242-2.112-3.226-.064-.1.057-.1a15.451,15.451,0,0,0,1.506-3.823l.028-.112.112-.027,3.747-.916-.142.185q-.054-3.268-.106-6.38l.144.173-3.775-.79-.1-.022-.029-.1a15.5,15.5,0,0,0-1.634-3.776l-.053-.088.053-.088,2-3.293.026.2-4.582-4.442.187.018-3.23,2.106-.072.047-.074-.041a15.545,15.545,0,0,0-3.834-1.521l-.077-.019-.018-.076-.906-3.749.115.088-6.381.084.085-.07c-.323,1.506-.589,2.742-.81,3.771l-.008.038-.037.01a16.149,16.149,0,0,0-2.917,1.123l-.686.358a1.592,1.592,0,0,1-.229.116,2.033,2.033,0,0,1,.213-.145c.146-.09.367-.225.672-.388a15.1,15.1,0,0,1,2.914-1.186l-.045.047c.208-1.032.457-2.271.762-3.782l.013-.069.071,0,6.38-.14.092,0,.022.091c.288,1.157.593,2.382.931,3.743l-.094-.094a15.754,15.754,0,0,1,3.909,1.525l-.146.005,3.22-2.121.1-.066.087.083,4.6,4.423.094.09-.068.112-1.993,3.3v-.175a15.824,15.824,0,0,1,1.682,3.855l-.133-.124,3.777.781.141.029,0,.145q.058,3.111.119,6.38l0,.149-.146.036-3.745.921.139-.139a15.827,15.827,0,0,1-1.539,3.919l-.007-.2,2.115,3.224.085.13-.107.112-4.432,4.592-.108.113-.134-.081-3.3-2h.2l0,0a15.845,15.845,0,0,1-3.86,1.676l.138-.148-.787,3.776-.032.153-.156,0-6.381.109-.154,0-.036-.149c-.316-1.293-.629-2.573-.916-3.747l.139.139a15.9,15.9,0,0,1-3.917-1.545l.193-.007-3.227,2.111-.122.08-.1-.1-4.586-4.439-.1-.1.073-.119,2-3.294v.175a15.81,15.81,0,0,1-1.669-3.859l.123.114-3.775-.793-.121-.026,0-.123c-.034-2.239-.067-4.371-.1-6.38l0-.112.108-.027,3.749-.908-.094.095a15.767,15.767,0,0,1,1.547-3.9l0,.119-2.1-3.234-.044-.067.055-.057,4.459-4.565.036-.037.042.027,2.429,1.511.625.4a1.889,1.889,0,0,1,.212.145" transform="translate(-162.23 -159.282)" fill="#ebebeb"/>
        <path id="Trazado_235522" data-name="Trazado 235522" d="M11.152,45.018a15.65,15.65,0,0,1,3.816-1.658l.786-3.777,6.381-.112.918,3.746a15.639,15.639,0,0,1,3.872,1.523l3.225-2.114L34.74,47.06l-2,3.3A15.613,15.613,0,0,1,34.4,54.173l3.776.786.112,6.381-3.746.919a15.621,15.621,0,0,1-1.523,3.871l2.114,3.225L30.7,73.945l-3.3-2A15.633,15.633,0,0,1,23.587,73.6L22.8,77.381l-6.38.112L15.5,73.746a15.642,15.642,0,0,1-3.871-1.523L8.406,74.338,3.815,69.9l2-3.3a15.647,15.647,0,0,1-1.658-3.816L.379,62.006l-.112-6.38,3.746-.919a15.642,15.642,0,0,1,1.523-3.871L3.423,47.611,7.855,43.02Zm3.4,8.5a6.846,6.846,0,1,0,9.68-.17,6.845,6.845,0,0,0-9.68.17" transform="translate(-0.125 -18.49)" fill="#ebebeb"/>
        <path id="Trazado_235523" data-name="Trazado 235523" d="M25.345,63.946a5.168,5.168,0,0,1,1.275-1.118,6.813,6.813,0,0,1,4.466-1.056,6.9,6.9,0,0,1,3.035,1.079,7,7,0,0,1,2.455,2.766,7.014,7.014,0,0,1,.661,4.029,6.985,6.985,0,0,1-5.779,5.986,7.019,7.019,0,0,1-4.051-.519,7.011,7.011,0,0,1-2.851-2.356,6.9,6.9,0,0,1-1.184-3,6.814,6.814,0,0,1,.9-4.5,5.17,5.17,0,0,1,1.073-1.313c.037.031-.413.449-.941,1.389a6.825,6.825,0,0,0-.756,4.383,6.69,6.69,0,0,0,3.908,5.064,6.691,6.691,0,0,0,3.838.47,6.634,6.634,0,0,0,5.463-5.659,6.7,6.7,0,0,0-.605-3.819,6.691,6.691,0,0,0-5.2-3.728,6.825,6.825,0,0,0-4.353.911c-.921.56-1.323,1.025-1.355.989" transform="translate(-10.916 -28.917)" fill="#ebebeb"/>
        <path id="Trazado_235524" data-name="Trazado 235524" d="M11.027,44.914a1.535,1.535,0,0,1-.213-.112l-.633-.366L7.7,42.969l.078-.011L3.369,47.575l.012-.123,2.126,3.216.038.058-.034.062a15.61,15.61,0,0,0-1.5,3.846l-.019.075-.076.019-3.744.929.106-.138c.04,2.009.082,4.141.127,6.38L.285,61.75l3.778.778.1.02.027.094a15.52,15.52,0,0,0,1.647,3.773l.053.087-.053.088-1.994,3.3-.028-.216,4.6,4.427L8.18,74.08,11.4,71.963,11.5,71.9l.1.055a15.54,15.54,0,0,0,3.826,1.5l.112.027.027.112.921,3.746-.19-.147,6.38-.114-.187.155c.248-1.193.516-2.48.785-3.777l.024-.116.114-.032a15.484,15.484,0,0,0,3.765-1.635l0,0,.1-.061.1.061,3.3,2-.242.031,4.433-4.59-.022.242L32.732,66.13l-.064-.1.057-.1a15.451,15.451,0,0,0,1.506-3.823L34.26,62l.112-.027,3.747-.916-.142.185q-.054-3.268-.106-6.38l.144.173-3.775-.79-.1-.022-.029-.1a15.519,15.519,0,0,0-1.635-3.776l-.053-.088.053-.088,2-3.293.026.2-4.582-4.442.187.018-3.23,2.106L26.8,44.8l-.074-.041A15.545,15.545,0,0,0,22.9,43.239l-.076-.019-.018-.075L21.9,39.4l.115.088-6.381.084.084-.07c-.323,1.506-.589,2.742-.81,3.771l-.009.038-.036.01a16.141,16.141,0,0,0-2.918,1.123l-.686.358a1.6,1.6,0,0,1-.229.116,2.03,2.03,0,0,1,.213-.145c.146-.09.367-.225.673-.388A15.118,15.118,0,0,1,14.825,43.2l-.045.047c.208-1.032.457-2.271.762-3.782l.013-.069.071,0,6.38-.14.092,0,.023.091c.288,1.157.592,2.382.931,3.743l-.095-.094a15.774,15.774,0,0,1,3.909,1.525l-.146.005,3.22-2.121.1-.066.087.083,4.6,4.423.094.09-.068.112-1.993,3.3v-.175a15.824,15.824,0,0,1,1.682,3.855L34.31,53.9l3.777.781.141.029,0,.145q.058,3.111.119,6.38l0,.149-.146.036-3.745.921L34.6,62.2a15.825,15.825,0,0,1-1.539,3.919l-.007-.2,2.115,3.224.085.13-.107.112-4.431,4.592-.109.113-.134-.081-3.3-2h.2l0,0a15.836,15.836,0,0,1-3.86,1.676l.138-.148-.787,3.776-.032.153-.156,0-6.381.11-.153,0-.037-.149c-.316-1.293-.629-2.573-.916-3.747l.139.139a15.887,15.887,0,0,1-3.916-1.545l.192-.007L8.38,74.386l-.122.08-.1-.1L3.568,69.926l-.1-.1.073-.119,2-3.294v.175a15.811,15.811,0,0,1-1.669-3.859L4,62.846.222,62.053.1,62.027l0-.123c-.034-2.239-.067-4.371-.1-6.38l0-.112.108-.027,3.749-.908-.094.095a15.788,15.788,0,0,1,1.547-3.9l0,.119-2.1-3.234-.044-.067.055-.057,4.459-4.565.036-.037.042.027,2.429,1.511.625.4a1.883,1.883,0,0,1,.212.145" transform="translate(0 -18.385)" fill="#ebebeb"/>
        <path id="Trazado_235525" data-name="Trazado 235525" d="M400.732,309.683a8.264,8.264,0,0,1,2.022-.879l.416-2,3.381-.06.486,1.985a8.269,8.269,0,0,1,2.051.807l1.708-1.12,2.432,2.349-1.059,1.746a8.288,8.288,0,0,1,.879,2.022l2,.417.059,3.38-1.985.487a8.274,8.274,0,0,1-.807,2.051l1.12,1.709-2.348,2.432-1.747-1.059a8.3,8.3,0,0,1-2.022.878l-.416,2-3.381.06-.486-1.985a8.3,8.3,0,0,1-2.051-.807l-1.708,1.121-2.432-2.349,1.059-1.747a8.275,8.275,0,0,1-.879-2.022l-2-.416-.06-3.381,1.985-.487a8.272,8.272,0,0,1,.807-2.051l-1.12-1.709,2.349-2.432Zm1.8,4.5a3.627,3.627,0,1,0,5.129-.09,3.627,3.627,0,0,0-5.129.09" transform="translate(-185.014 -143.689)" fill="#ebebeb"/>
        <path id="Trazado_235526" data-name="Trazado 235526" d="M44.518,2.938a8.265,8.265,0,0,1,2.022-.879l.416-2L50.336,0l.486,1.985a8.27,8.27,0,0,1,2.051.807l1.708-1.12L57.015,4.02,55.956,5.766a8.286,8.286,0,0,1,.879,2.022l2,.417.059,3.38-1.985.487a8.274,8.274,0,0,1-.807,2.051l1.12,1.709-2.348,2.432-1.747-1.059a8.3,8.3,0,0,1-2.022.878l-.416,2-3.381.06-.486-1.985a8.3,8.3,0,0,1-2.051-.807l-1.708,1.121L40.63,16.123l1.059-1.747a8.274,8.274,0,0,1-.879-2.022l-2-.417-.059-3.38,1.985-.487a8.274,8.274,0,0,1,.807-2.051l-1.12-1.709L42.77,1.879Zm1.8,4.5a3.627,3.627,0,1,0,5.129-.09,3.626,3.626,0,0,0-5.129.09" transform="translate(-18.152 0)" fill="#ebebeb"/>
        <path id="Trazado_235527" data-name="Trazado 235527" d="M408.252,319.711a2.746,2.746,0,0,1,.675-.593,3.615,3.615,0,0,1,2.367-.56,3.664,3.664,0,0,1,1.609.571,3.713,3.713,0,0,1,1.3,1.466,3.714,3.714,0,0,1,.35,2.135,3.7,3.7,0,0,1-3.061,3.172,3.723,3.723,0,0,1-2.146-.275,3.71,3.71,0,0,1-1.51-1.249,3.65,3.65,0,0,1-.627-1.587,3.609,3.609,0,0,1,.476-2.384,2.742,2.742,0,0,1,.569-.7c.02.016-.219.238-.5.736a3.617,3.617,0,0,0-.4,2.322,3.544,3.544,0,0,0,2.07,2.683,3.544,3.544,0,0,0,2.034.249,3.516,3.516,0,0,0,2.894-3,3.54,3.54,0,0,0-.321-2.024,3.544,3.544,0,0,0-2.754-1.975,3.616,3.616,0,0,0-2.306.482c-.488.3-.7.543-.718.524" transform="translate(-190.731 -149.213)" fill="#ebebeb"/>
        <path id="Trazado_235528" data-name="Trazado 235528" d="M400.666,309.628a.809.809,0,0,1-.113-.06l-.335-.194L398.9,308.6l.041-.005-2.334,2.446.006-.065,1.126,1.7.02.031-.018.032a8.253,8.253,0,0,0-.794,2.037l-.01.04-.04.01-1.984.492.056-.073c.021,1.064.044,2.194.068,3.38l-.065-.079,2,.413.051.011.014.05a8.24,8.24,0,0,0,.873,2l.028.046-.028.047-1.057,1.748-.015-.115,2.436,2.346-.121-.011,1.708-1.122.05-.032.052.029a8.217,8.217,0,0,0,2.027.8l.06.014.014.06.488,1.985-.1-.078,3.381-.061-.1.082.416-2,.013-.062.061-.017a8.232,8.232,0,0,0,1.994-.866h0l.055-.032.053.032,1.747,1.059-.129.017,2.349-2.432-.012.128-1.119-1.709-.034-.052.03-.054a8.172,8.172,0,0,0,.8-2.025l.015-.06.059-.014,1.985-.485-.075.1q-.029-1.731-.056-3.381l.076.092-2-.419-.056-.012-.015-.054a8.2,8.2,0,0,0-.866-2l-.028-.047.028-.046,1.062-1.745.014.107-2.428-2.353.1.009-1.711,1.116-.038.024-.039-.022a8.263,8.263,0,0,0-2.031-.806l-.04-.01-.01-.04-.48-1.986.061.047-3.381.045.045-.037-.429,2,0,.02-.02.005a8.6,8.6,0,0,0-1.546.594l-.364.19a.844.844,0,0,1-.121.062,1.048,1.048,0,0,1,.113-.077c.078-.048.195-.119.356-.206a8.064,8.064,0,0,1,1.544-.628l-.023.025c.11-.546.242-1.2.4-2l.007-.036h.038l3.38-.074h.049l.012.048c.153.613.314,1.262.493,1.983l-.05-.05a8.359,8.359,0,0,1,2.071.808l-.077,0,1.706-1.124.053-.035.046.044,2.437,2.344.049.048-.036.059-1.056,1.748v-.093a8.392,8.392,0,0,1,.891,2.043l-.071-.066,2,.414.075.015v.077q.031,1.649.063,3.38l0,.079-.077.019-1.984.488.074-.073a8.381,8.381,0,0,1-.816,2.076l0-.105,1.121,1.708.045.069-.057.06-2.348,2.433-.057.06-.071-.043-1.747-1.059h.106a8.385,8.385,0,0,1-2.045.888l.073-.079c-.143.687-.285,1.369-.417,2l-.017.081-.082,0-3.381.058-.081,0-.019-.079c-.168-.685-.333-1.363-.485-1.985l.073.074a8.407,8.407,0,0,1-2.075-.819l.1,0-1.71,1.118-.065.043-.055-.054-2.43-2.352-.053-.052.038-.063,1.062-1.745v.092a8.414,8.414,0,0,1-.885-2.045l.065.061-2-.42-.064-.014v-.065c-.018-1.186-.036-2.316-.052-3.38v-.06l.057-.014,1.986-.481-.05.05a8.363,8.363,0,0,1,.82-2.065l0,.063-1.113-1.713-.023-.036.029-.03,2.363-2.419.019-.019.022.014,1.287.8.331.211a1.024,1.024,0,0,1,.112.077" transform="translate(-184.948 -143.634)" fill="#ebebeb"/>
        <path id="Trazado_235529" data-name="Trazado 235529" d="M207.876,267.011H192.9a5.111,5.111,0,0,1-5.111-5.111V246.924a5.111,5.111,0,0,1,5.111-5.111h14.977a5.111,5.111,0,0,1,5.111,5.111V261.9a5.111,5.111,0,0,1-5.111,5.111" transform="translate(-87.966 -113.273)" fill="#e0e0e0"/>
        <path id="Trazado_235530" data-name="Trazado 235530" d="M200.508,266.244a.56.56,0,0,1-.4-.955l2.994-2.995a5.158,5.158,0,0,1,.373-6.823,5.122,5.122,0,1,1,.418,7.615L200.9,266.08a.555.555,0,0,1-.4.164M207.1,255.09a4,4,0,1,0,2.83,1.172,3.974,3.974,0,0,0-2.83-1.172" transform="translate(-93.662 -118.968)" fill="#fff"/>
        <path id="Trazado_235531" data-name="Trazado 235531" d="M404.714,57.335H391.841a5.52,5.52,0,0,1-5.52-5.52V38.942a5.52,5.52,0,0,1,5.52-5.52h12.873a5.52,5.52,0,0,1,5.52,5.52V51.815a5.52,5.52,0,0,1-5.52,5.52" transform="translate(-180.965 -15.656)" fill="#e0e0e0"/>
        <path id="Trazado_235532" data-name="Trazado 235532" d="M408.885,62.812a1.008,1.008,0,1,1-1-1.013,1.008,1.008,0,0,1,1,1.013" transform="translate(-190.59 -28.949)" fill="#fff"/>
        <path id="Trazado_235533" data-name="Trazado 235533" d="M404.132,59.488a2.792,2.792,0,0,1,4.04-.053.567.567,0,0,0,.805-.8,3.938,3.938,0,0,0-5.644.046c-.5.528.293,1.335.8.805" transform="translate(-188.859 -26.92)" fill="#fff"/>
        <path id="Trazado_235534" data-name="Trazado 235534" d="M397.669,49.536a8.252,8.252,0,0,1,5.41-2.163,8.027,8.027,0,0,1,5.52,2.112c.532.5,1.339-.3.805-.8a9.2,9.2,0,0,0-6.32-2.448,9.473,9.473,0,0,0-6.214,2.492c-.553.478.248,1.281.8.805" transform="translate(-185.819 -21.66)" fill="#fff"/>
        <path id="Trazado_235535" data-name="Trazado 235535" d="M400.237,54.71a5.546,5.546,0,0,1,8.148-.116c.509.524,1.315-.274.805-.8a6.676,6.676,0,0,0-9.751.109c-.494.535.3,1.342.8.8" transform="translate(-187.037 -24.234)" fill="#fff"/>
      </g>
    </g>
    <g id="Grupo_181937" data-name="Grupo 181937">
      <g id="Grupo_181936" data-name="Grupo 181936" clip-path="url(#clip-path)">
        <path id="Trazado_235536" data-name="Trazado 235536" d="M348.885,229.577c.077,0,.138,2.68.138,5.984s-.062,5.985-.138,5.985-.138-2.679-.138-5.985.062-5.984.138-5.984" transform="translate(-163.364 -107.541)" fill="#263238"/>
        <path id="Trazado_235537" data-name="Trazado 235537" d="M264.169,91.857c-.077,0-.138-4.465-.138-9.972s.062-9.973.138-9.973.138,4.464.138,9.973-.062,9.972-.138,9.972" transform="translate(-123.68 -33.685)" fill="#263238"/>
        <path id="Trazado_235538" data-name="Trazado 235538" d="M213.964,141.72a1.827,1.827,0,0,1-.368.028l-1.055.026-3.882.044-12.8.04H194a6.963,6.963,0,0,1-.923-.035,3.235,3.235,0,0,1-.89-.258,4.15,4.15,0,0,1-2.2-2.6,5.262,5.262,0,0,1-.231-1.6c.006-.512.012-1.011.017-1.493.013-.961.024-1.858.035-2.68.029-1.614.053-2.932.071-3.88.014-.436.024-.786.033-1.055a1.767,1.767,0,0,1,.031-.368,1.935,1.935,0,0,1,.025.368c0,.269.011.619.019,1.055,0,.949.01,2.267.018,3.881,0,.822,0,1.719,0,2.68a9.9,9.9,0,0,0,.228,3.013,3.9,3.9,0,0,0,2.064,2.431,2.977,2.977,0,0,0,.818.234,6.78,6.78,0,0,0,.886.03h1.852l12.8.04,3.882.044,1.055.026a1.859,1.859,0,0,1,.368.028" transform="translate(-88.89 -59.907)" fill="#263238"/>
        <path id="Trazado_235539" data-name="Trazado 235539" d="M258.963,43.155H237.606a5.52,5.52,0,0,1-5.52-5.52V16.279a5.52,5.52,0,0,1,5.52-5.52h21.357a5.52,5.52,0,0,1,5.52,5.52V37.636a5.52,5.52,0,0,1-5.52,5.52" transform="translate(-108.716 -5.04)" fill="#fff"/>
        <path id="Trazado_235540" data-name="Trazado 235540" d="M258.842,43.033a9.785,9.785,0,0,0,1.2-.164,5.5,5.5,0,0,0,2.918-1.773,5.311,5.311,0,0,0,1.147-2.2,11.676,11.676,0,0,0,.174-2.975c-.006-2.16-.013-4.617-.021-7.332s-.011-5.694-.017-8.887q0-1.2,0-2.436a9.353,9.353,0,0,0-.182-2.468,5.389,5.389,0,0,0-3.293-3.676,5.222,5.222,0,0,0-1.281-.317,11.708,11.708,0,0,0-1.354-.041l-2.79,0-5.754,0-12.1,0a5.426,5.426,0,0,0-2.857.825,5.122,5.122,0,0,0-1.138.956,5.04,5.04,0,0,0-.83,1.22,5.273,5.273,0,0,0-.466,1.389,7.537,7.537,0,0,0-.1,1.466q0,1.491,0,2.958c0,3.91-.005,7.681-.008,11.274q0,2.693-.006,5.249a13.738,13.738,0,0,0,.106,2.485,5.44,5.44,0,0,0,.973,2.156A5.381,5.381,0,0,0,237,42.9c1.463.052,2.9.019,4.254.033l12.869.044,3.5.026.91.013c.2,0,.31.014.31.014s-.105.01-.31.014l-.91.013-3.5.026-12.869.044c-1.362-.008-2.773.031-4.273-.016a5.6,5.6,0,0,1-4-2.225,5.669,5.669,0,0,1-1.022-2.246,13.9,13.9,0,0,1-.117-2.531q0-2.552-.006-5.249c0-3.593-.005-7.364-.008-11.274q0-1.466,0-2.958a7.841,7.841,0,0,1,.1-1.516,5.522,5.522,0,0,1,.489-1.461,5.312,5.312,0,0,1,.872-1.283,5.42,5.42,0,0,1,1.2-1.006,5.7,5.7,0,0,1,3-.868l12.1,0,5.754,0,2.79,0a11.892,11.892,0,0,1,1.385.046,5.515,5.515,0,0,1,1.342.334A5.638,5.638,0,0,1,264.3,14.74a9.584,9.584,0,0,1,.183,2.529q0,1.238,0,2.436c-.006,3.194-.012,6.169-.017,8.887s-.014,5.173-.02,7.332a11.714,11.714,0,0,1-.2,3.008,5.4,5.4,0,0,1-1.194,2.233,5.489,5.489,0,0,1-2.986,1.756,4.908,4.908,0,0,1-.906.108c-.206.006-.31,0-.31,0" transform="translate(-108.596 -4.918)" fill="#263238"/>
        <path id="Trazado_235541" data-name="Trazado 235541" d="M334.21,64.074H312.853a5.52,5.52,0,0,1-5.52-5.52V37.2a5.52,5.52,0,0,1,5.52-5.52H334.21a5.52,5.52,0,0,1,5.52,5.52V58.555a5.52,5.52,0,0,1-5.52,5.52" transform="translate(-143.964 -14.839)" fill="#fff"/>
        <path id="Trazado_235542" data-name="Trazado 235542" d="M334.089,63.952a9.8,9.8,0,0,0,1.2-.164,5.5,5.5,0,0,0,2.918-1.773,5.311,5.311,0,0,0,1.147-2.2,11.673,11.673,0,0,0,.174-2.975c-.006-2.16-.013-4.617-.021-7.332s-.011-5.694-.017-8.887q0-1.2,0-2.436a9.354,9.354,0,0,0-.182-2.468,5.389,5.389,0,0,0-3.293-3.676,5.222,5.222,0,0,0-1.281-.317,11.706,11.706,0,0,0-1.354-.041l-2.79,0-5.754,0-12.1,0a5.426,5.426,0,0,0-2.857.825,5.121,5.121,0,0,0-1.138.956,5.054,5.054,0,0,0-.83,1.22,5.274,5.274,0,0,0-.466,1.389,7.537,7.537,0,0,0-.1,1.466q0,1.491,0,2.958c0,3.91-.005,7.681-.008,11.274q0,2.693-.006,5.249a13.739,13.739,0,0,0,.106,2.485,5.44,5.44,0,0,0,.973,2.156,5.381,5.381,0,0,0,3.835,2.15c1.463.052,2.9.019,4.254.033l12.869.044,3.5.026.91.013c.2,0,.31.014.31.014s-.105.01-.31.014l-.91.013-3.5.026L316.5,64.05c-1.362-.008-2.773.031-4.273-.016a5.6,5.6,0,0,1-4-2.225,5.669,5.669,0,0,1-1.022-2.246,13.892,13.892,0,0,1-.117-2.531q0-2.552-.006-5.249c0-3.593-.005-7.364-.008-11.274q0-1.466,0-2.958a7.843,7.843,0,0,1,.1-1.516,5.522,5.522,0,0,1,.489-1.461,5.312,5.312,0,0,1,.872-1.283,5.419,5.419,0,0,1,1.2-1.006,5.7,5.7,0,0,1,3-.868l12.1,0,5.754,0,2.79,0a11.892,11.892,0,0,1,1.385.046,5.515,5.515,0,0,1,1.342.334,5.639,5.639,0,0,1,3.438,3.854,9.583,9.583,0,0,1,.183,2.529q0,1.238,0,2.436c-.006,3.194-.012,6.169-.017,8.887s-.014,5.173-.02,7.332a11.715,11.715,0,0,1-.2,3.008,5.4,5.4,0,0,1-1.194,2.233,5.489,5.489,0,0,1-2.986,1.756,4.909,4.909,0,0,1-.906.108c-.206.006-.31,0-.31,0" transform="translate(-143.844 -14.717)" fill="#263238"/>
        <path id="Trazado_235543" data-name="Trazado 235543" d="M400.493,137.667H379.136a5.52,5.52,0,0,1-5.52-5.52V110.791a5.52,5.52,0,0,1,5.52-5.52h21.357a5.52,5.52,0,0,1,5.52,5.52v21.357a5.52,5.52,0,0,1-5.52,5.52" transform="translate(-175.013 -49.312)" fill="#fff"/>
        <path id="Trazado_235544" data-name="Trazado 235544" d="M400.372,137.546a9.8,9.8,0,0,0,1.2-.164,5.5,5.5,0,0,0,2.918-1.773,5.311,5.311,0,0,0,1.147-2.2,11.673,11.673,0,0,0,.174-2.975c-.006-2.16-.013-4.617-.021-7.332s-.011-5.694-.017-8.887q0-1.2,0-2.436a9.354,9.354,0,0,0-.182-2.468,5.389,5.389,0,0,0-3.293-3.676,5.222,5.222,0,0,0-1.281-.317,11.7,11.7,0,0,0-1.354-.041l-2.79,0-5.754,0-12.1,0a5.426,5.426,0,0,0-2.857.825,5.134,5.134,0,0,0-1.138.956,5.023,5.023,0,0,0-.83,1.22,5.256,5.256,0,0,0-.466,1.389,7.54,7.54,0,0,0-.1,1.466q0,1.491,0,2.958c0,3.91-.005,7.681-.008,11.273q0,2.694-.006,5.249a13.737,13.737,0,0,0,.106,2.485,5.44,5.44,0,0,0,.973,2.156,5.381,5.381,0,0,0,3.835,2.15c1.463.052,2.9.019,4.254.034l12.869.044,3.5.026.91.013c.2,0,.31.014.31.014s-.105.01-.31.014l-.91.014-3.5.026-12.869.044c-1.362-.008-2.773.031-4.273-.016a5.6,5.6,0,0,1-4-2.225,5.671,5.671,0,0,1-1.022-2.246,13.9,13.9,0,0,1-.117-2.532q0-2.552-.006-5.249c0-3.593-.005-7.364-.008-11.273q0-1.466,0-2.958a7.84,7.84,0,0,1,.1-1.516,5.521,5.521,0,0,1,.489-1.461,5.311,5.311,0,0,1,.872-1.283,5.419,5.419,0,0,1,1.2-1.006,5.693,5.693,0,0,1,3-.867l12.1,0,5.754,0,2.79,0a11.888,11.888,0,0,1,1.385.046,5.515,5.515,0,0,1,1.342.334,5.639,5.639,0,0,1,3.438,3.854,9.584,9.584,0,0,1,.183,2.529q0,1.238,0,2.436c-.006,3.194-.012,6.169-.017,8.887s-.014,5.173-.02,7.332a11.715,11.715,0,0,1-.2,3.008,5.4,5.4,0,0,1-1.194,2.233,5.488,5.488,0,0,1-2.987,1.756,4.9,4.9,0,0,1-.905.108c-.206.006-.31,0-.31,0" transform="translate(-174.893 -49.19)" fill="#263238"/>
        <path id="Trazado_235545" data-name="Trazado 235545" d="M175.773,94.546H154.416a5.52,5.52,0,0,1-5.52-5.52V67.67a5.52,5.52,0,0,1,5.52-5.52h21.357a5.52,5.52,0,0,1,5.52,5.52V89.027a5.52,5.52,0,0,1-5.52,5.52" transform="translate(-69.748 -29.113)" fill="#fff"/>
        <path id="Trazado_235546" data-name="Trazado 235546" d="M175.652,94.424a9.8,9.8,0,0,0,1.2-.164,5.5,5.5,0,0,0,2.918-1.773,5.311,5.311,0,0,0,1.147-2.2,11.677,11.677,0,0,0,.174-2.975c-.006-2.16-.013-4.617-.021-7.332s-.011-5.694-.017-8.887q0-1.2,0-2.436a9.4,9.4,0,0,0-.182-2.468,5.393,5.393,0,0,0-3.294-3.677A5.245,5.245,0,0,0,176.3,62.2a11.7,11.7,0,0,0-1.354-.041l-2.79,0-5.754,0-12.1,0a5.426,5.426,0,0,0-2.857.825,5.134,5.134,0,0,0-1.138.956,5.023,5.023,0,0,0-.83,1.22,5.256,5.256,0,0,0-.466,1.389,7.537,7.537,0,0,0-.1,1.466q0,1.491,0,2.958c0,3.91-.005,7.681-.008,11.274q0,2.693-.006,5.249A13.739,13.739,0,0,0,149,89.988a5.44,5.44,0,0,0,.973,2.156,5.381,5.381,0,0,0,3.835,2.15c1.463.052,2.9.019,4.254.033l12.869.044,3.5.026.91.013c.2,0,.31.014.31.014s-.105.01-.31.014l-.91.013-3.5.026-12.869.044c-1.362-.008-2.773.031-4.273-.016a5.6,5.6,0,0,1-4-2.225,5.669,5.669,0,0,1-1.022-2.246,13.893,13.893,0,0,1-.117-2.531q0-2.552-.006-5.249c0-3.593-.005-7.364-.008-11.274q0-1.466,0-2.958a7.839,7.839,0,0,1,.1-1.516,5.522,5.522,0,0,1,.489-1.461,5.327,5.327,0,0,1,.872-1.283,5.42,5.42,0,0,1,1.2-1.006,5.7,5.7,0,0,1,3-.868l12.1,0,5.754,0,2.79,0a11.886,11.886,0,0,1,1.385.046,5.514,5.514,0,0,1,1.342.334,5.639,5.639,0,0,1,3.438,3.854,9.584,9.584,0,0,1,.183,2.529q0,1.237,0,2.436c-.006,3.194-.012,6.169-.017,8.887s-.014,5.173-.02,7.332a11.713,11.713,0,0,1-.2,3.008,5.4,5.4,0,0,1-1.194,2.233,5.489,5.489,0,0,1-2.987,1.756,4.9,4.9,0,0,1-.905.108c-.206.006-.31,0-.31,0" transform="translate(-69.627 -28.991)" fill="#263238"/>
        <path id="Trazado_235547" data-name="Trazado 235547" d="M360.558,136.858c0,.077-3.677.138-8.213.138s-8.214-.062-8.214-.138,3.676-.138,8.214-.138,8.213.062,8.213.138" transform="translate(-161.202 -64.044)" fill="#263238"/>
        <rect id="Rectángulo_59234" data-name="Rectángulo 59234" width="4.088" height="3.13" transform="translate(84.312 55.687)" fill="#12263f"/>
        <rect id="Rectángulo_59235" data-name="Rectángulo 59235" width="4.088" height="10.347" transform="translate(89.486 48.47)" fill="#4adbd1"/>
        <rect id="Rectángulo_59236" data-name="Rectángulo 59236" width="4.088" height="5.892" transform="translate(95.17 52.925)" fill="#f4a338"/>
        <rect id="Rectángulo_59237" data-name="Rectángulo 59237" width="4.088" height="13.349" transform="translate(100.599 45.468)" fill="#5573c6"/>
        <path id="Trazado_235548" data-name="Trazado 235548" d="M160.145,95.111a2.035,2.035,0,1,1,2.035-2.035,2.038,2.038,0,0,1-2.035,2.035m0-3.538a1.5,1.5,0,1,0,1.5,1.5,1.5,1.5,0,0,0-1.5-1.5" transform="translate(-74.064 -42.646)" fill="#12263f"/>
        <path id="Trazado_235549" data-name="Trazado 235549" d="M171.145,80.546a2.035,2.035,0,1,1,2.035-2.035,2.038,2.038,0,0,1-2.035,2.035m0-3.538a1.5,1.5,0,1,0,1.5,1.5,1.505,1.505,0,0,0-1.5-1.5" transform="translate(-79.216 -35.824)" fill="#12263f"/>
        <path id="Trazado_235550" data-name="Trazado 235550" d="M181.095,89.769a2.035,2.035,0,1,1,2.035-2.034,2.037,2.037,0,0,1-2.035,2.034m0-3.538a1.5,1.5,0,1,0,1.5,1.5,1.505,1.505,0,0,0-1.5-1.5" transform="translate(-83.877 -40.145)" fill="#12263f"/>
        <path id="Trazado_235551" data-name="Trazado 235551" d="M191.727,76.4a2.035,2.035,0,1,1,2.035-2.035,2.038,2.038,0,0,1-2.035,2.035m0-3.538a1.5,1.5,0,1,0,1.5,1.5,1.5,1.5,0,0,0-1.5-1.5" transform="translate(-88.858 -33.881)" fill="#12263f"/>
        <rect id="Rectángulo_59238" data-name="Rectángulo 59238" width="5.71" height="0.532" transform="translate(98.166 46.292) rotate(-54.896)" fill="#12263f"/>
        <rect id="Rectángulo_59239" data-name="Rectángulo 59239" width="0.531" height="3.617" transform="translate(93.096 44.293) rotate(-43.72)" fill="#12263f"/>
        <rect id="Rectángulo_59240" data-name="Rectángulo 59240" width="6.009" height="0.532" transform="matrix(0.613, -0.79, 0.79, 0.613, 86.851, 48.794)" fill="#12263f"/>
        <path id="Trazado_235552" data-name="Trazado 235552" d="M191.442,122.449a1.549,1.549,0,1,1-1.549-1.549,1.549,1.549,0,0,1,1.549,1.549" transform="translate(-88.226 -56.633)" fill="#263238"/>
        <path id="Trazado_235553" data-name="Trazado 235553" d="M264.425,70.339a1.549,1.549,0,1,1-1.549-1.549,1.55,1.55,0,0,1,1.549,1.549" transform="translate(-122.414 -32.223)" fill="#263238"/>
        <path id="Trazado_235554" data-name="Trazado 235554" d="M373.583,135.615a1.549,1.549,0,1,1-1.549-1.549,1.549,1.549,0,0,1,1.549,1.549" transform="translate(-173.547 -62.801)" fill="#263238"/>
        <path id="Trazado_235555" data-name="Trazado 235555" d="M338.749,91.691a1.549,1.549,0,1,1-1.549-1.549,1.549,1.549,0,0,1,1.549,1.549" transform="translate(-157.23 -42.225)" fill="#263238"/>
        <path id="Trazado_235556" data-name="Trazado 235556" d="M189.247,27.179h-9.965a5.52,5.52,0,0,1-5.52-5.52V11.694a5.52,5.52,0,0,1,5.52-5.52h9.965a5.52,5.52,0,0,1,5.52,5.52v9.965a5.52,5.52,0,0,1-5.52,5.52" transform="translate(-81.396 -2.892)" fill="#fff"/>
        <path id="Trazado_235557" data-name="Trazado 235557" d="M189.128,27.057c0-.018.262-.013.751-.085a5.281,5.281,0,0,0,2.014-.725,5.442,5.442,0,0,0,2.66-4.554c.012-.754,0-1.561,0-2.4-.005-1.688-.011-3.534-.017-5.516q0-.743,0-1.512a9.041,9.041,0,0,0-.076-1.537,4.987,4.987,0,0,0-.469-1.492,5.074,5.074,0,0,0-.907-1.325,5.427,5.427,0,0,0-2.865-1.615,8.659,8.659,0,0,0-1.735-.107l-1.8,0-7.509,0a5.385,5.385,0,0,0-5.267,4.26,8.318,8.318,0,0,0-.121,1.766q0,.894,0,1.769,0,1.75,0,3.424t-.006,3.258a13.269,13.269,0,0,0,.044,1.544,5.689,5.689,0,0,0,.374,1.427,5.448,5.448,0,0,0,4.053,3.235,16.479,16.479,0,0,0,2.384.095l2.145.011L186.2,27l2.171.026.565.013a1,1,0,0,1,.192.014,1,1,0,0,1-.192.014l-.565.014-2.171.026-3.436.024-2.145.011a16.452,16.452,0,0,1-2.417-.078,5.649,5.649,0,0,1-4.231-3.339,5.887,5.887,0,0,1-.4-1.487,13.405,13.405,0,0,1-.052-1.573q0-1.584-.006-3.258t0-3.424q0-.875,0-1.769a8.54,8.54,0,0,1,.123-1.823,5.654,5.654,0,0,1,5.533-4.48l7.509,0,1.8,0a8.9,8.9,0,0,1,1.788.116,5.681,5.681,0,0,1,3,1.7,5.308,5.308,0,0,1,.945,1.39,5.218,5.218,0,0,1,.485,1.562,9.281,9.281,0,0,1,.073,1.576q0,.768,0,1.512c-.006,1.981-.012,3.828-.017,5.516-.006.844,0,1.643-.018,2.407a5.548,5.548,0,0,1-2.782,4.642,5.149,5.149,0,0,1-2.06.687,4.135,4.135,0,0,1-.758.03" transform="translate(-81.276 -2.77)" fill="#263238"/>
        <path id="Trazado_235558" data-name="Trazado 235558" d="M190.551,21.34a2.58,2.58,0,0,0,1.537-2.387,2.424,2.424,0,1,0-4.839-.022,2.577,2.577,0,0,0,1.542,2.409c-3.723.561-3.554,4.608-3.554,4.608l8.8.04s.2-4.091-3.49-4.648" transform="translate(-86.77 -7.664)" fill="#455a64"/>
        <path id="Trazado_235559" data-name="Trazado 235559" d="M194.042,25.99h-.012l-8.817-.04v-.013a5.8,5.8,0,0,1,.382-2.1,4.072,4.072,0,0,1,1.051-1.563,3.988,3.988,0,0,1,2.087-.953,2.58,2.58,0,0,1-1.507-2.4,2.662,2.662,0,0,1,.72-1.83,2.341,2.341,0,0,1,1.712-.752h.011a2.522,2.522,0,0,1,2.422,2.6,2.588,2.588,0,0,1-1.5,2.38,3.885,3.885,0,0,1,2.064.957,4.069,4.069,0,0,1,1.03,1.577,5.961,5.961,0,0,1,.362,2.12Zm-8.8-.067,8.779.04a5.946,5.946,0,0,0-.361-2.1,4.019,4.019,0,0,0-1.023-1.566,3.87,3.87,0,0,0-2.095-.958l-.047-.007.044-.019a2.557,2.557,0,0,0,1.529-2.374,2.5,2.5,0,0,0-2.4-2.578h-.011a2.315,2.315,0,0,0-1.693.744,2.635,2.635,0,0,0-.712,1.812,2.549,2.549,0,0,0,1.534,2.4l.044.019-.047.007a3.975,3.975,0,0,0-2.119.953,4.047,4.047,0,0,0-1.044,1.552,5.805,5.805,0,0,0-.381,2.076" transform="translate(-86.759 -7.653)" fill="#263238"/>
        <path id="Trazado_235560" data-name="Trazado 235560" d="M396.047,208.5H383.174a5.52,5.52,0,0,1-5.52-5.52V190.112a5.52,5.52,0,0,1,5.52-5.52h12.873a5.52,5.52,0,0,1,5.52,5.52v12.873a5.52,5.52,0,0,1-5.52,5.52" transform="translate(-176.905 -86.469)" fill="#fff"/>
        <path id="Trazado_235561" data-name="Trazado 235561" d="M395.927,208.383c0-.023.3,0,.866-.1a5.551,5.551,0,0,0,2.278-.951,5.484,5.484,0,0,0,2.14-3.187,10.06,10.06,0,0,0,.147-2.449q0-1.318-.01-2.781c-.005-1.95-.011-4.085-.017-6.376q0-.859,0-1.748a9.215,9.215,0,0,0-.1-1.776,5.389,5.389,0,0,0-1.808-3.122,5.456,5.456,0,0,0-3.558-1.287l-4.128,0-8.682,0a5.392,5.392,0,0,0-5.386,5.4c0,2.8-.005,5.51-.008,8.088q0,1.933-.006,3.766a12.773,12.773,0,0,0,.06,1.784,5.046,5.046,0,0,0,.5,1.626,5.448,5.448,0,0,0,2.2,2.323,5.607,5.607,0,0,0,2.888.694l9.233.044,2.51.026.653.013a1.324,1.324,0,0,1,.222.014,1.324,1.324,0,0,1-.222.014l-.653.013-2.51.026-9.233.044a5.8,5.8,0,0,1-2.992-.7,5.656,5.656,0,0,1-2.3-2.406,5.268,5.268,0,0,1-.533-1.695,12.978,12.978,0,0,1-.069-1.818q0-1.832-.006-3.766c0-2.578-.005-5.283-.008-8.088a5.661,5.661,0,0,1,5.657-5.672l8.682,0,4.128,0a5.715,5.715,0,0,1,3.724,1.358,5.633,5.633,0,0,1,1.882,3.272,9.458,9.458,0,0,1,.094,1.82q0,.888,0,1.748c-.006,2.291-.012,4.426-.017,6.376q0,1.462-.01,2.781a10.118,10.118,0,0,1-.173,2.485,5.572,5.572,0,0,1-2.228,3.239,5.447,5.447,0,0,1-2.331.918,3.994,3.994,0,0,1-.653.051,1.309,1.309,0,0,1-.223,0" transform="translate(-176.786 -86.347)" fill="#263238"/>
        <path id="Trazado_235562" data-name="Trazado 235562" d="M190.708,198.42H177.835a5.52,5.52,0,0,1-5.52-5.52V180.027a5.52,5.52,0,0,1,5.52-5.52h12.873a5.52,5.52,0,0,1,5.52,5.52V192.9a5.52,5.52,0,0,1-5.52,5.52" transform="translate(-80.718 -81.745)" fill="#fff"/>
        <path id="Trazado_235563" data-name="Trazado 235563" d="M190.588,198.3c0-.023.3,0,.866-.1a5.552,5.552,0,0,0,2.278-.951,5.485,5.485,0,0,0,2.14-3.187,10.06,10.06,0,0,0,.147-2.449q0-1.318-.01-2.781c-.005-1.95-.011-4.085-.017-6.376q0-.859,0-1.748a9.216,9.216,0,0,0-.1-1.776,5.392,5.392,0,0,0-1.808-3.122,5.456,5.456,0,0,0-3.558-1.287l-4.128,0-8.682,0a5.392,5.392,0,0,0-5.386,5.4c0,2.8-.005,5.51-.008,8.088q0,1.933-.006,3.766a12.766,12.766,0,0,0,.06,1.784,5.046,5.046,0,0,0,.5,1.626,5.448,5.448,0,0,0,2.2,2.323,5.607,5.607,0,0,0,2.888.694l9.233.044,2.51.026.653.013a1.327,1.327,0,0,1,.222.014,1.325,1.325,0,0,1-.222.014l-.653.014-2.51.026-9.233.044a5.8,5.8,0,0,1-2.992-.7,5.656,5.656,0,0,1-2.3-2.406,5.269,5.269,0,0,1-.533-1.695,12.9,12.9,0,0,1-.069-1.818q0-1.832-.006-3.766c0-2.578-.005-5.283-.008-8.088a5.661,5.661,0,0,1,5.657-5.672l8.682,0,4.128,0a5.715,5.715,0,0,1,3.724,1.358,5.633,5.633,0,0,1,1.882,3.272,9.455,9.455,0,0,1,.094,1.82q0,.888,0,1.748c-.006,2.291-.012,4.426-.017,6.376q0,1.462-.01,2.781a10.118,10.118,0,0,1-.173,2.485,5.572,5.572,0,0,1-2.228,3.239,5.448,5.448,0,0,1-2.331.918,4,4,0,0,1-.653.051,1.305,1.305,0,0,1-.223,0" transform="translate(-80.598 -81.623)" fill="#263238"/>
        <path id="Trazado_235564" data-name="Trazado 235564" d="M191.427,191.773a2.936,2.936,0,0,0,1.75-2.717,2.76,2.76,0,1,0-5.509-.026,2.932,2.932,0,0,0,1.755,2.742c-4.239.638-4.047,5.246-4.047,5.246l10.023.046s.229-4.657-3.973-5.291" transform="translate(-86.836 -87.178)" fill="#5573c6"/>
        <path id="Trazado_235565" data-name="Trazado 235565" d="M255.056,38.6a5.907,5.907,0,1,1,5.626-4.094,5.875,5.875,0,0,1-5.626,4.094m.008-10.751a4.844,4.844,0,1,0,1.484.234,4.852,4.852,0,0,0-1.484-.234" transform="translate(-116.711 -12.546)" fill="#263238"/>
        <path id="Trazado_235566" data-name="Trazado 235566" d="M270.629,50.532a.53.53,0,0,1-.392-.172l-4.39-4.78a.532.532,0,1,1,.784-.719l4.39,4.78a.532.532,0,0,1-.391.891" transform="translate(-124.465 -20.934)" fill="#263238"/>
        <path id="Trazado_235567" data-name="Trazado 235567" d="M396.188,136.89a9.852,9.852,0,1,1,9.852-9.852,9.863,9.863,0,0,1-9.852,9.852m0-19.173a9.321,9.321,0,1,0,9.321,9.321,9.331,9.331,0,0,0-9.321-9.321" transform="translate(-180.972 -54.894)" fill="#12263f"/>
        <path id="Trazado_235568" data-name="Trazado 235568" d="M400.045,136.881a9.214,9.214,0,0,1-2.526-2.325,11.643,11.643,0,0,1-2.306-7.694,12.077,12.077,0,0,1,2.7-7.493,8.7,8.7,0,0,1,2.529-2.131l.235.477c-.046.023-4.682,2.4-4.931,9.167a10.47,10.47,0,0,0,4.559,9.535Z" transform="translate(-185.126 -54.918)" fill="#12263f"/>
        <path id="Trazado_235569" data-name="Trazado 235569" d="M404.6,136.872l-.28-.452a11.072,11.072,0,0,0,4.407-9.744c-.248-6.765-4.686-8.94-4.731-8.962l.226-.481c.2.091,4.776,2.319,5.037,9.423a11.6,11.6,0,0,1-4.659,10.216" transform="translate(-189.244 -54.916)" fill="#12263f"/>
        <path id="Trazado_235570" data-name="Trazado 235570" d="M398.051,127.278a12.7,12.7,0,0,1-8.017-2.491l.327-.419a12.183,12.183,0,0,0,7.69,2.379,11.363,11.363,0,0,0,7.39-2.367l.336.412a11.887,11.887,0,0,1-7.727,2.486" transform="translate(-182.704 -58.258)" fill="#12263f"/>
        <path id="Trazado_235571" data-name="Trazado 235571" d="M405.479,144.019a12.438,12.438,0,0,0-7.693-2.308,11.6,11.6,0,0,0-7.394,2.3l-.33-.417a12.12,12.12,0,0,1,7.724-2.411,12.958,12.958,0,0,1,8.014,2.416Z" transform="translate(-182.717 -66.133)" fill="#12263f"/>
        <rect id="Rectángulo_59241" data-name="Rectángulo 59241" width="18.948" height="0.532" transform="translate(205.868 71.907)" fill="#12263f"/>
        <rect id="Rectángulo_59242" data-name="Rectángulo 59242" width="13.48" height="13.48" transform="translate(170.192 146.916)" fill="#e0e0e0"/>
        <rect id="Rectángulo_59243" data-name="Rectángulo 59243" width="13.883" height="1.154" transform="translate(187.07 147.735)" fill="#e0e0e0"/>
        <rect id="Rectángulo_59244" data-name="Rectángulo 59244" width="13.883" height="1.154" transform="translate(187.07 150.401)" fill="#e0e0e0"/>
        <rect id="Rectángulo_59245" data-name="Rectángulo 59245" width="13.883" height="1.154" transform="translate(187.07 153.067)" fill="#e0e0e0"/>
        <rect id="Rectángulo_59246" data-name="Rectángulo 59246" width="13.883" height="1.154" transform="translate(187.07 155.734)" fill="#e0e0e0"/>
        <rect id="Rectángulo_59247" data-name="Rectángulo 59247" width="13.883" height="1.154" transform="translate(187.07 158.399)" fill="#e0e0e0"/>
        <path id="Trazado_235572" data-name="Trazado 235572" d="M350.32,261.561H313.5v-5.32a3.7,3.7,0,0,1,3.695-3.694h29.373a3.748,3.748,0,0,1,3.748,3.748Z" transform="translate(-146.855 -118.301)" fill="#e0e0e0"/>
        <path id="Trazado_235573" data-name="Trazado 235573" d="M346.763,284.821a3.989,3.989,0,0,0,1.3-.287,3.448,3.448,0,0,0,1.285-.955,3.358,3.358,0,0,0,.785-2.009c-.008-3.361-.02-8.208-.035-14.194,0-3-.011-6.28-.017-9.8q0-.661,0-1.333a3.933,3.933,0,0,0-.147-1.306,3.361,3.361,0,0,0-2.976-2.373c-.457-.025-.95-.006-1.428-.011l-2.934,0-25.783.011a3.36,3.36,0,0,0-1.578.387,3.324,3.324,0,0,0-1.186,1.093,3.222,3.222,0,0,0-.515,1.517c-.026.539-.007,1.114-.013,1.665q0,3.342,0,6.579c0,4.313-.005,8.473-.008,12.436q0,1.486,0,2.935,0,.724,0,1.438a6.97,6.97,0,0,0,.066,1.39,3.386,3.386,0,0,0,2.678,2.641,7,7,0,0,0,1.308.063l9.8.017,14.2.044,3.86.026,1,.014c.226,0,.342.014.342.014s-.116.01-.342.014l-1,.013-3.86.026-14.2.044-9.8.017a7.2,7.2,0,0,1-1.351-.063,3.62,3.62,0,0,1-2.873-2.821,7.148,7.148,0,0,1-.075-1.438q0-.714,0-1.438,0-1.448,0-2.935c0-3.963-.005-8.123-.008-12.436q0-3.236,0-6.579c.006-.561-.014-1.1.013-1.686a3.5,3.5,0,0,1,.558-1.646,3.524,3.524,0,0,1,3-1.606l25.783.011,2.934,0c.486.006.953-.012,1.446.015a3.6,3.6,0,0,1,3.184,2.55,4.168,4.168,0,0,1,.154,1.375q0,.671,0,1.333c-.006,3.523-.012,6.806-.016,9.8-.017,6-.018,10.843-.054,14.2a3.459,3.459,0,0,1-2.157,3.01,3.5,3.5,0,0,1-.98.232c-.227.007-.343,0-.343,0" transform="translate(-146.733 -118.179)" fill="#263238"/>
        <path id="Trazado_235574" data-name="Trazado 235574" d="M349.192,251.181a1.549,1.549,0,1,1-1.549-1.549,1.55,1.55,0,0,1,1.549,1.549" transform="translate(-162.121 -116.935)" fill="#263238"/>
        <path id="Trazado_235575" data-name="Trazado 235575" d="M389.118,206.5a7.7,7.7,0,0,0,11.843-6.835,5.494,5.494,0,0,0,1.35-1.4,5.412,5.412,0,0,1-1.554.426,2.708,2.708,0,0,0,1.19-1.5,5.41,5.41,0,0,1-1.718.657,2.709,2.709,0,0,0-4.613,2.469,7.683,7.683,0,0,1-5.579-2.828,2.71,2.71,0,0,0,.838,3.614,2.7,2.7,0,0,1-1.226-.339,2.71,2.71,0,0,0,2.171,2.689,2.707,2.707,0,0,1-1.222.046,2.709,2.709,0,0,0,2.529,1.88,5.442,5.442,0,0,1-4.008,1.121" transform="translate(-182.275 -92.281)" fill="#455a64"/>
        <path id="Trazado_235576" data-name="Trazado 235576" d="M340.422,57.43a4.247,4.247,0,0,1-3.958,5.635H321.111a3.768,3.768,0,0,1-3.59-5.2,4.061,4.061,0,0,1,4.4-2.392,6.97,6.97,0,0,1,13.493-1.484s3.956-.215,5,3.438" transform="translate(-148.606 -23.114)" fill="#f4a338"/>
        <path id="Trazado_235577" data-name="Trazado 235577" d="M334.095,69.77V63.876h-2.309a.334.334,0,0,1-.272-.527l3.8-5.363a.333.333,0,0,1,.544,0l3.8,5.32a.334.334,0,0,1-.272.527h-2.247V69.77Z" transform="translate(-155.263 -27.097)" fill="#fff"/>
      </g>
    </g>
    <g id="Grupo_181945" data-name="Grupo 181945">
      <g id="Grupo_181944" data-name="Grupo 181944" clip-path="url(#clip-path)">
        <path id="Trazado_235578" data-name="Trazado 235578" d="M295.566,205.6l-6.939-24.423H227.976l-7.9,24.341a2.278,2.278,0,0,0,2.142,2.994h27.7l1.122-1.122h13.085l1.122,1.122H293.4a2.276,2.276,0,0,0,2.167-2.912" transform="translate(-103.036 -84.87)" fill="#e0e0e0"/>
        <g id="Grupo_181940" data-name="Grupo 181940" transform="translate(116.923 96.309)" opacity="0.3">
          <g id="Grupo_181939" data-name="Grupo 181939">
            <g id="Grupo_181938" data-name="Grupo 181938" clip-path="url(#clip-path-5)">
              <path id="Trazado_235579" data-name="Trazado 235579" d="M295.566,205.6l-6.939-24.423H227.976l-7.9,24.341a2.278,2.278,0,0,0,2.142,2.994h27.7l1.122-1.122h13.085l1.122,1.122H293.4a2.276,2.276,0,0,0,2.167-2.912" transform="translate(-219.959 -181.179)"/>
            </g>
          </g>
        </g>
        <path id="Trazado_235580" data-name="Trazado 235580" d="M234.991,146.152V110.317a2.565,2.565,0,0,1,2.557-2.572h55.734a2.565,2.565,0,0,1,2.557,2.572v35.835Z" transform="translate(-110.077 -50.471)" fill="#636363"/>
        <rect id="Rectángulo_59250" data-name="Rectángulo 59250" width="53.49" height="31.865" transform="translate(128.593 60.819)" fill="#fff"/>
        <path id="Trazado_235581" data-name="Trazado 235581" d="M295.281,146.158s-.007-.2-.012-.579-.006-.945-.012-1.674c-.006-1.471-.015-3.624-.027-6.386-.014-5.524-.033-13.476-.057-23.226l.107.107-53.486.031h0l.138-.138c0,11.286-.007,22.059-.01,31.865l-.128-.129,38.472.063,11.046.035,2.947.015.762.008c.172,0,.264.007.264.007s-.081.005-.248.007l-.748.008-2.92.015-11.017.035-38.557.062h-.129v-.129c0-9.806-.006-20.58-.01-31.865v-.138h.142l53.486.031h.108v.107c-.024,9.779-.043,17.753-.057,23.293-.012,2.751-.021,4.9-.027,6.362q-.008,1.081-.012,1.654c0,.372-.012.557-.012.557" transform="translate(-113.197 -53.473)" fill="#263238"/>
        <path id="Trazado_235582" data-name="Trazado 235582" d="M292.343,110.4a.986.986,0,1,1-.986-.967.977.977,0,0,1,.986.967" transform="translate(-136.019 -51.262)" fill="#263238"/>
        <path id="Trazado_235583" data-name="Trazado 235583" d="M295.566,203.9l-6.939-24.423H227.976l-7.9,24.341a2.278,2.278,0,0,0,2.142,2.994h27.7l1.122-1.122h13.085l1.122,1.122H293.4a2.276,2.276,0,0,0,2.167-2.912" transform="translate(-103.036 -84.074)" fill="#636363"/>
        <path id="Trazado_235584" data-name="Trazado 235584" d="M289.635,182.27l-52.86-.178a1.228,1.228,0,0,0-1.193.736l-4.238,12.02c-.23.654.364,1.307,1.189,1.307H293.7c.821,0,1.415-.649,1.191-1.3l-4.071-11.843a1.227,1.227,0,0,0-1.185-.743" transform="translate(-108.346 -85.298)" fill="#ebebeb"/>
        <g id="Grupo_181943" data-name="Grupo 181943" transform="translate(142.699 112.245)" opacity="0.1">
          <g id="Grupo_181942" data-name="Grupo 181942">
            <g id="Grupo_181941" data-name="Grupo 181941" clip-path="url(#clip-path-6)">
              <path id="Trazado_235585" data-name="Trazado 235585" d="M290.622,218.951H269.758a1.406,1.406,0,0,1-1.266-1.79l1.178-4.933a1.334,1.334,0,0,1,1.266-1.068h18.637a1.338,1.338,0,0,1,1.274,1.106L291.9,217.2a1.4,1.4,0,0,1-1.274,1.752" transform="translate(-268.448 -211.159)"/>
            </g>
          </g>
        </g>
        <path id="Trazado_235586" data-name="Trazado 235586" d="M306.028,187.1l-.543-2.515a.375.375,0,0,0-.367-.3h-3.254a.375.375,0,0,0-.371.428l.359,2.52a.375.375,0,0,0,.372.322l3.438,0a.376.376,0,0,0,.366-.454" transform="translate(-141.227 -86.327)" fill="#263238"/>
        <path id="Trazado_235587" data-name="Trazado 235587" d="M287.786,187.16l-.232-2.529a.376.376,0,0,0-.374-.341h-3.326a.375.375,0,0,0-.375.389l.093,2.533a.375.375,0,0,0,.376.361l3.464,0a.376.376,0,0,0,.374-.409" transform="translate(-132.791 -86.327)" fill="#263238"/>
        <path id="Trazado_235588" data-name="Trazado 235588" d="M296.939,187.134l-.36-2.522a.375.375,0,0,0-.372-.322h-3.826a.375.375,0,0,0-.374.409l.232,2.527a.375.375,0,0,0,.374.341l3.954-.005a.375.375,0,0,0,.371-.428" transform="translate(-136.785 -86.327)" fill="#263238"/>
        <path id="Trazado_235589" data-name="Trazado 235589" d="M251.848,187.2l.514-2.3a.5.5,0,0,0-.492-.615h-3.152a.5.5,0,0,0-.485.366l-.658,2.3a.505.505,0,0,0,.486.644l3.3,0a.5.5,0,0,0,.492-.394" transform="translate(-115.963 -86.327)" fill="#263238"/>
        <path id="Trazado_235590" data-name="Trazado 235590" d="M335.08,187.022l-.957-2.491a.375.375,0,0,0-.35-.241h-6.185a.375.375,0,0,0-.352.506l.93,2.5a.375.375,0,0,0,.352.244l6.212-.008a.375.375,0,0,0,.35-.51" transform="translate(-153.276 -86.327)" fill="#263238"/>
        <path id="Trazado_235591" data-name="Trazado 235591" d="M278.316,184.29h-3.6a.375.375,0,0,0-.375.357l-.123,2.54a.375.375,0,0,0,.375.393l3.812,0a.376.376,0,0,0,.375-.389l-.094-2.536a.375.375,0,0,0-.375-.361" transform="translate(-128.454 -86.327)" fill="#263238"/>
        <path id="Trazado_235592" data-name="Trazado 235592" d="M243.5,184.29h-2.508a.5.5,0,0,0-.475.334l-.828,2.307a.5.5,0,0,0,.476.675l2.677,0a.5.5,0,0,0,.485-.366l.659-2.3a.5.5,0,0,0-.485-.643" transform="translate(-112.264 -86.327)" fill="#263238"/>
        <path id="Trazado_235593" data-name="Trazado 235593" d="M260.7,187.263l.333-2.549a.375.375,0,0,0-.372-.424h-3.2a.376.376,0,0,0-.366.293l-.571,2.554a.376.376,0,0,0,.367.458l3.438-.005a.375.375,0,0,0,.372-.326" transform="translate(-120.158 -86.327)" fill="#263238"/>
        <path id="Trazado_235594" data-name="Trazado 235594" d="M265.595,184.617l-.333,2.547a.375.375,0,0,0,.373.424l3.56,0a.375.375,0,0,0,.374-.357l.123-2.542a.376.376,0,0,0-.375-.393h-3.35a.375.375,0,0,0-.372.327" transform="translate(-124.256 -86.327)" fill="#263238"/>
        <path id="Trazado_235595" data-name="Trazado 235595" d="M314.871,187.067l-.744-2.508a.375.375,0,0,0-.36-.268H310.3a.375.375,0,0,0-.367.454l.543,2.513a.375.375,0,0,0,.367.3l3.67,0a.375.375,0,0,0,.359-.482" transform="translate(-145.178 -86.327)" fill="#263238"/>
        <path id="Trazado_235596" data-name="Trazado 235596" d="M323.65,187.037l-.931-2.5a.374.374,0,0,0-.351-.244h-3.186a.375.375,0,0,0-.36.482l.743,2.507a.376.376,0,0,0,.36.268l3.373,0a.375.375,0,0,0,.351-.506" transform="translate(-149.339 -86.328)" fill="#263238"/>
        <path id="Trazado_235597" data-name="Trazado 235597" d="M278.29,191.547h-3.925a.375.375,0,0,0-.375.357l-.127,2.622a.375.375,0,0,0,.375.393l4.147-.005a.376.376,0,0,0,.374-.389l-.1-2.616a.375.375,0,0,0-.375-.361" transform="translate(-128.287 -89.726)" fill="#263238"/>
        <path id="Trazado_235598" data-name="Trazado 235598" d="M326.125,194.377l-.961-2.579a.375.375,0,0,0-.351-.245h-3.478a.375.375,0,0,0-.36.482l.766,2.584a.376.376,0,0,0,.36.268l3.672,0a.375.375,0,0,0,.351-.506" transform="translate(-150.348 -89.729)" fill="#263238"/>
        <path id="Trazado_235599" data-name="Trazado 235599" d="M316.773,194.407l-.767-2.587a.376.376,0,0,0-.36-.268h-3.78a.375.375,0,0,0-.367.454l.56,2.592a.375.375,0,0,0,.367.3l3.987,0a.375.375,0,0,0,.359-.482" transform="translate(-145.912 -89.729)" fill="#263238"/>
        <path id="Trazado_235600" data-name="Trazado 235600" d="M264.667,194.925l3.885-.005a.375.375,0,0,0,.374-.357l.126-2.624a.376.376,0,0,0-.375-.393H265.01a.375.375,0,0,0-.372.326l-.343,2.629a.375.375,0,0,0,.373.424" transform="translate(-123.802 -89.726)" fill="#263238"/>
        <path id="Trazado_235601" data-name="Trazado 235601" d="M284.218,194.912l3.68,0a.375.375,0,0,0,.373-.409l-.239-2.609a.376.376,0,0,0-.374-.341h-3.537a.375.375,0,0,0-.375.389l.1,2.614a.375.375,0,0,0,.375.361" transform="translate(-132.916 -89.727)" fill="#263238"/>
        <path id="Trazado_235602" data-name="Trazado 235602" d="M292.673,191.958l.239,2.607a.375.375,0,0,0,.374.341l4.155-.006a.375.375,0,0,0,.371-.428l-.371-2.6a.375.375,0,0,0-.372-.322h-4.023a.375.375,0,0,0-.374.409" transform="translate(-137.096 -89.728)" fill="#263238"/>
        <path id="Trazado_235603" data-name="Trazado 235603" d="M307.363,194.441l-.56-2.594a.375.375,0,0,0-.367-.3H302.9a.375.375,0,0,0-.372.428l.371,2.6a.375.375,0,0,0,.372.322l3.726,0a.376.376,0,0,0,.366-.454" transform="translate(-141.712 -89.729)" fill="#263238"/>
        <path id="Trazado_235604" data-name="Trazado 235604" d="M246.217,191.543h-7.836a.376.376,0,0,0-.35.24l-1.02,2.65a.375.375,0,0,0,.35.51l8.266-.011a.375.375,0,0,0,.366-.293l.591-2.638a.375.375,0,0,0-.366-.457" transform="translate(-111.011 -89.724)" fill="#263238"/>
        <path id="Trazado_235605" data-name="Trazado 235605" d="M255.229,194.931l3.8,0a.375.375,0,0,0,.372-.327l.344-2.631a.375.375,0,0,0-.372-.424h-3.559a.375.375,0,0,0-.366.293l-.59,2.636a.375.375,0,0,0,.367.457" transform="translate(-119.381 -89.725)" fill="#263238"/>
        <path id="Trazado_235606" data-name="Trazado 235606" d="M338.41,194.877l2.449,0a.376.376,0,0,0,.348-.515l-1.032-2.569a.375.375,0,0,0-.348-.235h-2.252a.375.375,0,0,0-.357.491l.834,2.572a.375.375,0,0,0,.357.259" transform="translate(-157.955 -89.73)" fill="#263238"/>
        <path id="Trazado_235607" data-name="Trazado 235607" d="M334.091,194.388l-.835-2.574a.375.375,0,0,0-.357-.259h-2.609a.376.376,0,0,0-.352.507l.96,2.577a.375.375,0,0,0,.352.245l2.484,0a.375.375,0,0,0,.357-.491" transform="translate(-154.543 -89.73)" fill="#263238"/>
        <path id="Trazado_235608" data-name="Trazado 235608" d="M263.819,202.812l3.852.006a.565.565,0,0,0,.565-.538l.132-2.738a.565.565,0,0,0-.565-.592h-3.627a.565.565,0,0,0-.56.492l-.357,2.731a.565.565,0,0,0,.559.638" transform="translate(-123.317 -93.194)" fill="#263238"/>
        <path id="Trazado_235609" data-name="Trazado 235609" d="M339.3,198.95H333.39a.565.565,0,0,0-.529.762l1.04,2.793a.565.565,0,0,0,.528.368l5.967.01a.565.565,0,0,0,.528-.77l-1.093-2.8a.565.565,0,0,0-.526-.36" transform="translate(-155.905 -93.194)" fill="#263238"/>
        <path id="Trazado_235610" data-name="Trazado 235610" d="M253.711,199.392l-.609,2.723a.565.565,0,0,0,.55.688l3.81.006a.565.565,0,0,0,.561-.492l.357-2.729a.565.565,0,0,0-.56-.638h-3.558a.565.565,0,0,0-.551.442" transform="translate(-118.554 -93.194)" fill="#263238"/>
        <path id="Trazado_235611" data-name="Trazado 235611" d="M243.806,199.368l-.8,2.812a.488.488,0,0,0,.468.621l3.891.006a.488.488,0,0,0,.477-.381l.642-2.867a.487.487,0,0,0-.482-.594l-3.729.049a.487.487,0,0,0-.462.353" transform="translate(-113.821 -93.202)" fill="#263238"/>
        <path id="Trazado_235612" data-name="Trazado 235612" d="M313.187,199.634l.6,2.776a.565.565,0,0,0,.551.445l3.945.006a.565.565,0,0,0,.543-.726L318,199.354a.565.565,0,0,0-.542-.4h-3.72a.565.565,0,0,0-.552.684" transform="translate(-146.7 -93.194)" fill="#263238"/>
        <path id="Trazado_235613" data-name="Trazado 235613" d="M273.612,199.488l-.132,2.74a.565.565,0,0,0,.563.592l20.082.033a.565.565,0,0,0,.553-.685l-.6-2.773a.565.565,0,0,0-.552-.446H274.176a.565.565,0,0,0-.565.538" transform="translate(-128.106 -93.194)" fill="#263238"/>
        <path id="Trazado_235614" data-name="Trazado 235614" d="M235.3,199.243l-1.082,2.94a.448.448,0,0,0,.42.6l3.263.005a.448.448,0,0,0,.432-.325l.841-2.945a.448.448,0,0,0-.431-.571h-3.023a.448.448,0,0,0-.42.293" transform="translate(-109.7 -93.194)" fill="#263238"/>
        <path id="Trazado_235615" data-name="Trazado 235615" d="M323.3,199.676l.826,2.785a.564.564,0,0,0,.541.4l3.6.006a.565.565,0,0,0,.531-.762l-1.038-2.791a.566.566,0,0,0-.53-.368H323.84a.565.565,0,0,0-.542.726" transform="translate(-151.432 -93.194)" fill="#263238"/>
        <path id="Trazado_235616" data-name="Trazado 235616" d="M296.026,179.53c0,.077-13.6.138-30.366.138s-30.368-.062-30.368-.138,13.594-.138,30.368-.138,30.366.062,30.366.138" transform="translate(-110.218 -84.033)" fill="#263238"/>
        <path id="Trazado_235617" data-name="Trazado 235617" d="M265.891,128.38a8.12,8.12,0,0,1,1.833-1.145l.114-2,3.269-.548.759,1.854a8.121,8.121,0,0,1,2.106.485l1.494-1.333,2.7,1.925-.773,1.847a8.1,8.1,0,0,1,1.144,1.833l2,.114.548,3.269-1.854.76a8.145,8.145,0,0,1-.485,2.106l1.333,1.494-1.924,2.7-1.847-.773a8.119,8.119,0,0,1-1.833,1.144l-.114,2-3.269.548-.76-1.855a8.125,8.125,0,0,1-2.106-.485l-1.494,1.333-2.7-1.924.774-1.847a8.121,8.121,0,0,1-1.145-1.833l-2-.114-.548-3.269,1.854-.76a8.119,8.119,0,0,1,.485-2.106l-1.334-1.495,1.925-2.7Zm2.4,4.105a3.556,3.556,0,1,0,4.96-.831,3.556,3.556,0,0,0-4.96.831" transform="translate(-122.314 -58.407)" fill="#f5f5f5"/>
        <path id="Trazado_235618" data-name="Trazado 235618" d="M301.139,145.094a5.511,5.511,0,0,1,1.241-.775l.077-1.354,2.213-.37.514,1.255a5.519,5.519,0,0,1,1.426.329l1.012-.9,1.827,1.3-.524,1.251a5.5,5.5,0,0,1,.775,1.241l1.354.077.371,2.213-1.256.514a5.471,5.471,0,0,1-.329,1.426l.9,1.012-1.3,1.827-1.251-.524a5.5,5.5,0,0,1-1.241.775l-.077,1.354-2.213.371-.515-1.256a5.494,5.494,0,0,1-1.426-.329l-1.012.9-1.827-1.3.524-1.25a5.5,5.5,0,0,1-.775-1.241l-1.354-.077-.371-2.213,1.256-.515a5.493,5.493,0,0,1,.328-1.426l-.9-1.012,1.3-1.827Zm1.625,2.78a2.407,2.407,0,1,0,3.358-.562,2.407,2.407,0,0,0-3.358.562" transform="translate(-139.548 -66.796)" fill="#f5f5f5"/>
        <path id="Trazado_235619" data-name="Trazado 235619" d="M299.513,121a4.877,4.877,0,0,1,1.1-.686l.069-1.2,1.959-.328.456,1.112a4.862,4.862,0,0,1,1.262.291l.9-.8,1.617,1.154-.464,1.107a4.872,4.872,0,0,1,.686,1.1l1.2.068.328,1.959-1.111.455a4.857,4.857,0,0,1-.291,1.262l.8.9L306.862,129l-1.107-.464a4.868,4.868,0,0,1-1.1.686l-.068,1.2-1.959.329-.455-1.112a4.863,4.863,0,0,1-1.262-.291l-.9.8L298.4,129l.464-1.107a4.856,4.856,0,0,1-.686-1.1l-1.2-.068-.328-1.959,1.111-.456a4.858,4.858,0,0,1,.291-1.261l-.8-.9,1.153-1.618Zm1.438,2.461a2.131,2.131,0,1,0,2.973-.5,2.131,2.131,0,0,0-2.973.5" transform="translate(-138.96 -55.642)" fill="#f5f5f5"/>
      </g>
    </g>
    <g id="Grupo_181947" data-name="Grupo 181947">
      <g id="Grupo_181946" data-name="Grupo 181946" clip-path="url(#clip-path)">
        <path id="Trazado_235620" data-name="Trazado 235620" d="M258.107,142.052l.382-.858a2.6,2.6,0,0,0,1.358.406c.483,0,.67-.135.67-.335,0-.653-2.34-.176-2.34-1.706,0-.735.6-1.335,1.823-1.335a3.082,3.082,0,0,1,1.493.359l-.359.864a2.432,2.432,0,0,0-1.141-.317c-.488,0-.664.165-.664.37,0,.629,2.334.159,2.334,1.676,0,.717-.6,1.329-1.822,1.329a3.241,3.241,0,0,1-1.735-.453" transform="translate(-120.905 -64.748)" fill="#263238"/>
        <path id="Trazado_235621" data-name="Trazado 235621" d="M265.409,140.365a2.293,2.293,0,1,1,2.288,2.141,2.153,2.153,0,0,1-2.288-2.141m3.4,0a1.113,1.113,0,1,0-1.111,1.176,1.1,1.1,0,0,0,1.111-1.176" transform="translate(-124.326 -64.748)" fill="#263238"/>
        <path id="Trazado_235622" data-name="Trazado 235622" d="M276.333,139.279v.906h1.817v.9h-1.817V142.5h-1.165V138.38H278.4v.9Z" transform="translate(-128.897 -64.821)" fill="#263238"/>
        <path id="Trazado_235623" data-name="Trazado 235623" d="M282.862,139.3H281.6v-.923h3.688v.923h-1.259V142.5h-1.164Z" transform="translate(-131.909 -64.821)" fill="#263238"/>
        <path id="Trazado_235624" data-name="Trazado 235624" d="M295.342,138.379l-1.335,4.116h-1.247l-.788-2.505-.823,2.505H289.9l-1.335-4.116h1.2l.829,2.629.871-2.629h1.071l.829,2.652.864-2.652Z" transform="translate(-135.174 -64.821)" fill="#263238"/>
        <path id="Trazado_235625" data-name="Trazado 235625" d="M304.158,141.7h-1.741l-.323.8H300.9l1.817-4.116h1.147l1.823,4.116h-1.211Zm-.341-.858-.529-1.317-.529,1.317Z" transform="translate(-140.953 -64.821)" fill="#263238"/>
        <path id="Trazado_235626" data-name="Trazado 235626" d="M312.331,141.4H311.7V142.5h-1.164v-4.116h1.882c1.123,0,1.829.583,1.829,1.523a1.366,1.366,0,0,1-.805,1.3l.888,1.293h-1.247Zm.012-2.106H311.7V140.5h.647c.482,0,.723-.223.723-.6s-.241-.606-.723-.606" transform="translate(-145.463 -64.821)" fill="#263238"/>
        <path id="Trazado_235627" data-name="Trazado 235627" d="M322.025,141.6v.9h-3.3v-4.116h3.228v.9h-2.076v.694H321.7v.871h-1.829v.753Z" transform="translate(-149.299 -64.821)" fill="#263238"/>
        <rect id="Rectángulo_59253" data-name="Rectángulo 59253" width="0.562" height="3.929" transform="translate(136.335 78.694)" fill="#263238"/>
        <path id="Trazado_235628" data-name="Trazado 235628" d="M263.127,148.041v3.929h-.46l-2.358-2.93v2.93h-.562v-3.929h.461l2.357,2.93v-2.93Z" transform="translate(-121.674 -69.347)" fill="#263238"/>
        <path id="Trazado_235629" data-name="Trazado 235629" d="M268.6,148.53h-1.347v-.488h3.25v.488h-1.347v3.441H268.6Z" transform="translate(-125.189 -69.347)" fill="#263238"/>
        <path id="Trazado_235630" data-name="Trazado 235630" d="M277.363,151.482v.488h-2.851v-3.929h2.773v.489h-2.211v1.207h1.97v.477h-1.97v1.269Z" transform="translate(-128.59 -69.347)" fill="#263238"/>
        <path id="Trazado_235631" data-name="Trazado 235631" d="M283.99,149.944h.539v1.532a2.323,2.323,0,0,1-1.487.5,2.011,2.011,0,1,1,.011-4.019,1.97,1.97,0,0,1,1.51.606l-.348.348a1.559,1.559,0,0,0-1.14-.454,1.511,1.511,0,1,0-.006,3.019,1.66,1.66,0,0,0,.921-.253Z" transform="translate(-131.605 -69.308)" fill="#263238"/>
        <path id="Trazado_235632" data-name="Trazado 235632" d="M292.323,151.97l-.847-1.207c-.079.005-.163.011-.247.011h-.971v1.2H289.7v-3.929h1.533c1.022,0,1.639.516,1.639,1.369a1.239,1.239,0,0,1-.864,1.24l.932,1.319Zm-.017-2.56c0-.561-.376-.881-1.095-.881h-.954V150.3h.954c.719,0,1.095-.325,1.095-.887" transform="translate(-135.703 -69.347)" fill="#263238"/>
        <path id="Trazado_235633" data-name="Trazado 235633" d="M299.347,150.988h-2.089l-.432.982h-.578l1.78-3.929h.555l1.785,3.929h-.59Zm-.2-.449-.847-1.925-.848,1.925Z" transform="translate(-138.772 -69.347)" fill="#263238"/>
        <path id="Trazado_235634" data-name="Trazado 235634" d="M305,148.53h-1.347v-.488h3.25v.488h-1.347v3.441H305Z" transform="translate(-142.242 -69.347)" fill="#263238"/>
        <rect id="Rectángulo_59254" data-name="Rectángulo 59254" width="0.562" height="3.929" transform="translate(165.274 78.694)" fill="#263238"/>
        <path id="Trazado_235635" data-name="Trazado 235635" d="M313.586,149.966a2.09,2.09,0,1,1,2.094,2.009,2,2,0,0,1-2.094-2.009m3.615,0a1.527,1.527,0,1,0-1.521,1.51,1.475,1.475,0,0,0,1.521-1.51" transform="translate(-146.894 -69.308)" fill="#263238"/>
        <path id="Trazado_235636" data-name="Trazado 235636" d="M326.432,148.041v3.929h-.46l-2.358-2.93v2.93h-.561v-3.929h.46l2.357,2.93v-2.93Z" transform="translate(-151.328 -69.347)" fill="#263238"/>
      </g>
    </g>
    <g id="Grupo_181949" data-name="Grupo 181949">
      <g id="Grupo_181948" data-name="Grupo 181948" clip-path="url(#clip-path)">
        <path id="Trazado_235637" data-name="Trazado 235637" d="M68.266,117.409c-2.43-1.493-3.063-5.03-1.8-7.584a9.3,9.3,0,0,1,6.822-4.63,13.127,13.127,0,0,1,11.362,3.582c1.578,1.577,2.867,3.646,4.984,4.348,1.861.618,3.9.006,5.849.229a8.821,8.821,0,0,1,6.242,4.364,19.042,19.042,0,0,1,2.306,7.48c.318,2.391.544,5.017,2.232,6.741,1.645,1.681,4.211,2,6.244,3.188a8.481,8.481,0,0,1,2.689,11.547c-.781,1.175-1.91,2.26-1.982,3.669-.066,1.286.781,2.419,1.189,3.641a5.726,5.726,0,0,1-4.794,7.18c-1.67.121-3.471-.5-4.958.264s-2.006,2.567-2.937,3.945a7.16,7.16,0,0,1-8.7,2.382c-1.238-.585-2.414-1.563-3.779-1.452s-2.419,1.292-3.757,1.571c-1.752.365-3.439-.9-4.5-2.342s-1.818-3.138-3.173-4.307c-1.773-1.531-4.238-1.88-6.464-2.611A18.124,18.124,0,0,1,60.74,133.379" transform="translate(-27.589 -49.189)" fill="#263238"/>
        <path id="Trazado_235638" data-name="Trazado 235638" d="M124.5,185.553a4.918,4.918,0,0,1,1.935-1.314l-.149-.007a2.871,2.871,0,0,1,.418-.077,1.942,1.942,0,0,1,1.529.166h-.014a3.615,3.615,0,0,1,2,1.691,4.279,4.279,0,0,1-.44,4.415,3.27,3.27,0,0,1-6.016-1.035,4.059,4.059,0,0,1,.735-3.839" transform="translate(-57.885 -86.226)" fill="#455a64"/>
        <path id="Trazado_235639" data-name="Trazado 235639" d="M63.508,186.707l-3.245-46.925a3.988,3.988,0,0,1,3.39-4.194l20.909-6.253c6.739-1.008,11.6,7.135,12.32,13.91.8,7.529,1.481,16.75.829,22.421-1.311,11.4-10.61,13.262-10.61,13.262,0-.039.1,11.59.23,15.707l2.774,12.728Z" transform="translate(-28.225 -60.545)" fill="#ffc09d"/>
        <path id="Trazado_235640" data-name="Trazado 235640" d="M118.875,172.818a1.454,1.454,0,0,1-1.337,1.526,1.391,1.391,0,0,1-1.554-1.245,1.455,1.455,0,0,1,1.336-1.526,1.391,1.391,0,0,1,1.555,1.246" transform="translate(-54.328 -80.366)" fill="#263238"/>
        <path id="Trazado_235641" data-name="Trazado 235641" d="M120.593,162.1c-.172.2-1.307-.57-2.87-.5-1.562.049-2.674.9-2.852.718-.087-.081.082-.431.566-.816a3.988,3.988,0,0,1,2.274-.81,3.837,3.837,0,0,1,2.294.633c.5.348.674.684.589.772" transform="translate(-53.799 -75.271)" fill="#263238"/>
        <path id="Trazado_235642" data-name="Trazado 235642" d="M92.4,173.717a1.454,1.454,0,0,1-1.337,1.526A1.39,1.39,0,0,1,89.511,174a1.455,1.455,0,0,1,1.336-1.527,1.391,1.391,0,0,1,1.555,1.246" transform="translate(-41.928 -80.787)" fill="#263238"/>
        <path id="Trazado_235643" data-name="Trazado 235643" d="M91.717,163.889c-.172.2-1.309-.569-2.871-.5-1.562.049-2.674.9-2.852.718-.087-.081.08-.431.566-.816a3.988,3.988,0,0,1,2.273-.81,3.834,3.834,0,0,1,2.295.633c.5.348.674.684.59.772" transform="translate(-40.272 -76.111)" fill="#263238"/>
        <path id="Trazado_235644" data-name="Trazado 235644" d="M107.25,175.026a10.337,10.337,0,0,1,2.519-.567c.4-.058.772-.154.827-.43a2.032,2.032,0,0,0-.317-1.171q-.626-1.425-1.311-2.988c-1.825-4.256-3.165-7.762-2.993-7.835s1.791,3.32,3.616,7.576q.66,1.575,1.262,3.008a2.311,2.311,0,0,1,.274,1.557,1,1,0,0,1-.631.612,2.7,2.7,0,0,1-.674.123,10.155,10.155,0,0,1-2.573.114" transform="translate(-49.635 -75.902)" fill="#263238"/>
        <path id="Trazado_235645" data-name="Trazado 235645" d="M97.716,218.235a27.212,27.212,0,0,1-14.66-3.438s3.4,8.379,14.692,6.832Z" transform="translate(-38.906 -100.618)" fill="#ff9b6c"/>
        <path id="Trazado_235646" data-name="Trazado 235646" d="M103.377,192.116a3.848,3.848,0,0,0-3.238-1.543,2.507,2.507,0,0,0-2.008,1.207,2.3,2.3,0,0,0,2.722,3.328,5.707,5.707,0,0,0,2.24-1.522,1.776,1.776,0,0,0,.469-.606.8.8,0,0,0-.1-.79" transform="translate(-45.833 -89.266)" fill="#ff9b6c"/>
        <path id="Trazado_235647" data-name="Trazado 235647" d="M99.628,188.882c.254-.026.33,1.671,1.834,2.812s3.3.878,3.325,1.114c.028.106-.389.347-1.151.4a4.228,4.228,0,0,1-2.772-.834,3.682,3.682,0,0,1-1.429-2.362c-.1-.706.076-1.135.192-1.13" transform="translate(-46.566 -88.478)" fill="#263238"/>
        <path id="Trazado_235648" data-name="Trazado 235648" d="M91.3,152.046c-.136.432-1.7.3-3.529.6-1.831.263-3.286.863-3.546.493-.116-.178.124-.588.7-1.026a6.221,6.221,0,0,1,5.39-.83c.685.242,1.038.561.98.766" transform="translate(-39.439 -70.732)" fill="#263238"/>
        <path id="Trazado_235649" data-name="Trazado 235649" d="M119.483,151.936c-.259.367-1.352.045-2.647.083-1.3-.007-2.381.342-2.649-.019-.119-.176.039-.538.5-.9a3.834,3.834,0,0,1,4.268-.052c.473.345.639.7.525.882" transform="translate(-53.471 -70.466)" fill="#263238"/>
        <path id="Trazado_235650" data-name="Trazado 235650" d="M112.37,134.362a7.781,7.781,0,0,0-3.051-4.244,28.9,28.9,0,0,1-2.544-1.43c-1.657-1.3-2.069-3.593-3.108-5.424a8.558,8.558,0,0,0-6.582-4.229c-2.249-.2-4.552.511-6.749-.009-1.623-.384-3.052-1.413-4.7-1.7-3.2-.56-6.134,1.774-8.414,4.088.025,2.285,1.867,3.786,3.641,5.226a7.923,7.923,0,0,0,6.44,1.6c1.739-.344,3.637-1.253,5.16-.347,1.6.954,1.7,3.346,3.128,4.548,2.037,1.716,5.213.031,7.777.752,1.981.556,3.241,2.423,4.575,3.99s3.318,3.046,5.282,2.432a23.163,23.163,0,0,0-.86-5.251" transform="translate(-36.176 -54.919)" fill="#263238"/>
        <path id="Trazado_235651" data-name="Trazado 235651" d="M64.721,125.971c-1.437-.389-4.378-1.272-5.164-2.5a8.746,8.746,0,0,0-7.671-4.261,7.218,7.218,0,0,0-6.415,5.8,10.38,10.38,0,0,0-8.837,5.873,10.885,10.885,0,0,0-.547,1.34,7.9,7.9,0,0,0-.431,6.637c.514,1.285,1.378,2.71.731,3.934-.659,1.245-2.368,1.309-3.693,1.787a5.243,5.243,0,0,0-3.217,5.9,6.4,6.4,0,0,1,.454,2.573,5.622,5.622,0,0,1-1.51,2.252A6.526,6.526,0,0,0,32.4,165.873a8.414,8.414,0,0,1,3.012.641c1.02.607,1.479,1.816,2.206,2.754a5.629,5.629,0,0,0,6.127,1.821,5.138,5.138,0,0,0,1.217-.634,4.041,4.041,0,0,0,3.6,1.533L47.8,148.1a1.978,1.978,0,0,0,1.464,1.114c3.846.811,4.292-7.1,3.4-9.227a22.286,22.286,0,0,0,3.788-4.1,16.081,16.081,0,0,0,1.652-7.777c1.383.061,7.242-1.969,6.611-2.14" transform="translate(-12.632 -55.833)" fill="#263238"/>
        <path id="Trazado_235652" data-name="Trazado 235652" d="M61.939,175.161c-.157-2.427-3.136-2.9-5.223-1.655-1.146.685-2.01,2.041-1.866,4.617.384,6.871,7.2,5.068,7.2,4.871,0-.123.069-4.991-.114-7.833" transform="translate(-25.686 -80.963)" fill="#ffc09d"/>
        <path id="Trazado_235653" data-name="Trazado 235653" d="M61.359,182.538c-.031-.02-.115.09-.312.195a1.2,1.2,0,0,1-.894.069,2.965,2.965,0,0,1-1.519-2.581,3.953,3.953,0,0,1,.239-1.732,1.384,1.384,0,0,1,.849-.969.609.609,0,0,1,.725.288c.1.187.067.327.1.336.02.016.141-.123.07-.4a.763.763,0,0,0-.294-.415.905.905,0,0,0-.671-.138,1.685,1.685,0,0,0-1.191,1.135,4.067,4.067,0,0,0-.308,1.938,3.112,3.112,0,0,0,1.912,2.869,1.284,1.284,0,0,0,1.084-.242c.2-.182.231-.338.207-.349" transform="translate(-27.235 -82.994)" fill="#ff9b6c"/>
        <path id="Trazado_235654" data-name="Trazado 235654" d="M66.062,128.709a4.1,4.1,0,0,0-1.354,1.168,6.341,6.341,0,0,0-.436,4.761l.039.173-.169.045a6.646,6.646,0,0,0-4.372,3.967,5.166,5.166,0,0,0-.332,1.682,10.109,10.109,0,0,0,.242,1.813,13.642,13.642,0,0,1,.29,1.952,3.231,3.231,0,0,1-.515,2.036,8.334,8.334,0,0,1-3.373,2.612,11.561,11.561,0,0,0-3.161,2.137,8.594,8.594,0,0,0-2.483,5.8,8.97,8.97,0,0,0,.968,4.235c.47.932.861,1.374.822,1.4-.013.011-.115-.094-.3-.3a7.324,7.324,0,0,1-.689-1.009,8.727,8.727,0,0,1-1.145-4.329,8.844,8.844,0,0,1,2.506-6.106,11.843,11.843,0,0,1,3.259-2.245,7.993,7.993,0,0,0,3.185-2.451c.746-1.054.386-2.412.167-3.641a10.447,10.447,0,0,1-.24-1.9,5.588,5.588,0,0,1,.375-1.84,6.966,6.966,0,0,1,4.7-4.155l-.129.217a6.388,6.388,0,0,1,.621-4.964,2.894,2.894,0,0,1,1.063-.893,1.686,1.686,0,0,1,.456-.161" transform="translate(-23.466 -60.29)" fill="#455a64"/>
        <path id="Trazado_235655" data-name="Trazado 235655" d="M58.621,190.874a4.917,4.917,0,0,1,1.935-1.314l-.15-.007a2.873,2.873,0,0,1,.418-.077,1.94,1.94,0,0,1,1.529.166h-.014a3.613,3.613,0,0,1,2,1.691,4.279,4.279,0,0,1-.44,4.415,3.27,3.27,0,0,1-6.016-1.036,4.059,4.059,0,0,1,.735-3.839" transform="translate(-27.028 -88.719)" fill="#455a64"/>
        <path id="Trazado_235656" data-name="Trazado 235656" d="M246.864,273.289l4.684-1.8a30.652,30.652,0,0,1,2.127-5.284,42.591,42.591,0,0,1,5.637-4.971c.265-.1,3.236-6.762,4.59-6.546a2.224,2.224,0,0,1,1.909,2.976c-.378,1.808-3.378,5.414-2.547,6.014a6.076,6.076,0,0,0,2.184.816s.368-2.077,1.508-2.749,2.439.443,2.439.443l.035.9,1.126-1.03s1.184-4.171,2.978-4.151a7.3,7.3,0,0,1,1.771-2.38,1.544,1.544,0,0,1,2.379.695l-3.221,9.452-8.86,9.76s-4.153,1.6-5.21,2.085-5.861,3.814-7.986,4.524-4.594,1.792-4.594,1.792Z" transform="translate(-115.639 -119.304)" fill="#ffc09d"/>
        <path id="Trazado_235657" data-name="Trazado 235657" d="M262.71,284.056a5.379,5.379,0,0,0-1.681-.172,7.779,7.779,0,0,0-4.011.881,4.874,4.874,0,0,0-1.662,1.6,7.626,7.626,0,0,0-.793,1.681,5.011,5.011,0,0,0-.385,1.647,8.274,8.274,0,0,0,.685-1.531,6,6,0,0,1,2.384-3.005,8.607,8.607,0,0,1,3.79-.953,7.465,7.465,0,0,0,1.673-.149" transform="translate(-119.059 -132.98)" fill="#ff9b6c"/>
        <path id="Trazado_235658" data-name="Trazado 235658" d="M275.681,271.267c.07-.1-.414-.538-1.167-.762s-1.4-.127-1.393-.005.582.233,1.263.441,1.227.435,1.3.326" transform="translate(-127.938 -126.649)" fill="#ff9b6c"/>
        <path id="Trazado_235659" data-name="Trazado 235659" d="M293.645,268.418a9.628,9.628,0,0,1,.207-2.05c.185-1.275.473-3.058.827-5.105l.133.267c-.312-.143-.69-.368-.97-.457a1.239,1.239,0,0,0-.945.121,2.728,2.728,0,0,0-1.1,1.324,9.826,9.826,0,0,0-.58,1.635c-.256,1.092-.427,2.108-.584,2.951a16.9,16.9,0,0,1-.574,2.732,13.637,13.637,0,0,1,.214-2.788c.113-.856.245-1.872.482-3a9.633,9.633,0,0,1,.585-1.738,3.165,3.165,0,0,1,1.316-1.569,1.745,1.745,0,0,1,1.323-.154,9.423,9.423,0,0,1,1.053.5l.168.079-.035.189c-.382,2.042-.733,3.814-1,5.073a9.611,9.611,0,0,1-.521,1.994" transform="translate(-135.863 -122.033)" fill="#ff9b6c"/>
        <path id="Trazado_235660" data-name="Trazado 235660" d="M274.922,279.679c-.022,0-.007-.144.04-.406a5.6,5.6,0,0,1,.381-1.084,13.835,13.835,0,0,1,2.325-3.389l-.05.085c.613-1.815.056-4.441,1.7-6.788a2.153,2.153,0,0,1,1.707-.759,3.159,3.159,0,0,1,1.654.579l.119.08-.018.147c-.33,2.655-.635,4.949-.871,6.575a4.271,4.271,0,0,1-.6,1.85c-.23.393-.4.579-.419.563a3.4,3.4,0,0,1,.269-.639,4.648,4.648,0,0,0,.437-1.828c.15-1.637.389-3.93.687-6.576l.1.226a2.711,2.711,0,0,0-1.376-.47,1.645,1.645,0,0,0-1.309.592,3.892,3.892,0,0,0-.765,1.589,15.031,15.031,0,0,0-.37,1.737c-.1.577-.125,1.109-.192,1.68a10.088,10.088,0,0,1-.346,1.566l-.015.048-.036.038a15.852,15.852,0,0,0-2.412,3.2c-.477.844-.584,1.394-.642,1.38" transform="translate(-128.778 -125.228)" fill="#ff9b6c"/>
        <path id="Trazado_235661" data-name="Trazado 235661" d="M60.7,231.619c.282-.407,2.162-4.037,2.162-4.037l10.662,9.19s10.451,8.753,10.451,8.187l1.668-8.42,2.054-7.661,3.835,5.794s12.047,23.619,12.047,23.9,7.456,24.729,7.456,24.729l-1.6,9.911-.189,35.111-22.464-.944L82.338,320.3l-7.646-45.022Z" transform="translate(-28.432 -106.607)" fill="#fff"/>
        <path id="Trazado_235662" data-name="Trazado 235662" d="M105.408,404.034h23.933l3.792,16.085h-36.8Z" transform="translate(-45.123 -189.262)" fill="#263238"/>
        <path id="Trazado_235663" data-name="Trazado 235663" d="M74.331,317.353c-.753-11.532-.438-33.286-4.852-44.636s-22.133-39.236-22.133-39.236L43,240.244l-11.4,4.28,15.471,62.716s-5.959,14.031-8.8,22.228c-.848,2.45-1.992,6.61-3.246,10.759H74.172c.346-9.121.514-17.426.158-22.873" transform="translate(-14.798 -109.37)" fill="#f4a338"/>
        <path id="Trazado_235664" data-name="Trazado 235664" d="M199.779,264.75,169.6,281.527l-20.916-29.846q-.085-.116-.18-.242c-2.379-3.15-4.719-6.617-8.57-7.484l-.583-.131,1.119,35.726s14.872,16.393,23.21,23.172c2.482,2.018,8.776.758,11.774-.9C187.464,295.2,207.98,278.2,207.98,278.2Z" transform="translate(-65.275 -114.215)" fill="#f4a338"/>
        <path id="Trazado_235665" data-name="Trazado 235665" d="M136.806,306.474s2.2-17.054,2.919-21.336c3.774-22.414-12.852-47.194-12.852-47.194l-7.6-1.257-6.557-5.416,2.9,8.091s9.524,26.645,11.416,35.158,2.838,34.681,3.133,34.05c.173-.372,1.319,15.8,2.758,30.621h16.134Z" transform="translate(-52.799 -108.335)" fill="#f4a338"/>
        <path id="Trazado_235666" data-name="Trazado 235666" d="M141.175,292.257a3.112,3.112,0,0,1,.005-.555q.032-.595.086-1.583.033-.52.071-1.142,0-.631,0-1.361c0-.977.023-2.089-.072-3.315a69.067,69.067,0,0,0-3.734-18.771,64.8,64.8,0,0,0-3.028-7.452l0-.008,0-.006a64.007,64.007,0,0,0-3.5-6.812c-1.154-2.006-2.218-3.752-3.11-5.2l-2.107-3.372-.561-.9a1.749,1.749,0,0,1-.178-.322,1.631,1.631,0,0,1,.229.288l.609.871c.524.764,1.275,1.889,2.194,3.319s2.007,3.165,3.183,5.165a61.382,61.382,0,0,1,3.561,6.829l-.006-.014a62.954,62.954,0,0,1,3.064,7.495,66.362,66.362,0,0,1,3.645,18.879c.079,1.233.039,2.35.018,3.33-.012.487-.023.944-.033,1.366q-.057.623-.1,1.144c-.065.659-.116,1.185-.155,1.581a3.117,3.117,0,0,1-.079.548" transform="translate(-58.577 -113.106)" fill="#263238"/>
        <path id="Trazado_235667" data-name="Trazado 235667" d="M91.4,257.482a1.654,1.654,0,0,1-.424-.186l-1.151-.608-4.059-2.246.238-.12c-.2,1.824-.533,3.955-.869,6.226-.136.925-.263,1.826-.367,2.689l-.04.333-.255-.216c-2.171-1.847-4.059-3.473-5.4-4.645l-1.561-1.39a3.4,3.4,0,0,1-.536-.535,3.473,3.473,0,0,1,.617.44l1.63,1.308c1.378,1.124,3.3,2.714,5.479,4.548l-.3.116c.1-.869.224-1.774.36-2.7.336-2.275.688-4.4.916-6.21l.031-.242.207.123,3.993,2.361,1.107.684a1.64,1.64,0,0,1,.375.272" transform="translate(-36.061 -119.002)" fill="#263238"/>
        <path id="Trazado_235668" data-name="Trazado 235668" d="M110.482,240.92a4.829,4.829,0,0,1,.033.961c-.012.689-.028,1.567-.047,2.615-.055,2.208-.158,5.257-.294,8.623,0,.083-.006.165-.01.246l-.024.588-.315-.5-4.035-6.36.252-.031c-.445,1.225-.817,2.247-1.1,3.038a6.622,6.622,0,0,1-.461,1.1,6.739,6.739,0,0,1,.311-1.154l.988-3.078.09-.281.163.25,4.107,6.315-.339.092c0-.08.007-.163.01-.246.136-3.366.28-6.413.4-8.619.066-1.046.121-1.922.164-2.611a4.805,4.805,0,0,1,.11-.955" transform="translate(-48.938 -112.854)" fill="#263238"/>
        <path id="Trazado_235669" data-name="Trazado 235669" d="M20.166,254.255a17.049,17.049,0,0,0-2.648,2.037,18.031,18.031,0,0,0-4.612,7.265c-1.076,3.075-2.144,6.859-2.763,9.242L7.257,316.574A25.76,25.76,0,0,0,9.1,327.968l8.939,21.99H37.309l-10.4-29.421,3.563-32.457Z" transform="translate(-3.373 -119.101)" fill="#f4a338"/>
        <path id="Trazado_235670" data-name="Trazado 235670" d="M53.926,244.833l4.239,12.715h4.517l-2.931,1.866,23.178,44.3" transform="translate(-25.261 -114.687)" fill="#d58721"/>
        <path id="Trazado_235671" data-name="Trazado 235671" d="M82.928,303.711a.665.665,0,0,1-.1-.155l-.267-.47-1-1.827-3.6-6.75L66.216,272.172c-2.359-4.519-4.6-8.817-6.617-12.68l-.072-.138.132-.083,2.936-1.858.086.3-4.517-.016h-.1l-.032-.1-3.034-9.3-.811-2.556-.2-.67a1.03,1.03,0,0,1-.055-.234,1.044,1.044,0,0,1,.1.22c.062.171.142.387.241.658l.885,2.532L58.3,257.5l-.137-.1,4.517-.016.552,0-.466.3-2.926,1.873.06-.222L66.544,272,78.2,294.387l3.495,6.805c.395.787.706,1.408.933,1.859l.234.488a.7.7,0,0,1,.069.172" transform="translate(-25.259 -114.687)" fill="#263238"/>
        <path id="Trazado_235672" data-name="Trazado 235672" d="M37.841,265.914A28.269,28.269,0,0,1,44.1,289.97" transform="translate(-17.726 -124.562)" fill="#d58721"/>
        <path id="Trazado_235673" data-name="Trazado 235673" d="M44.093,289.969c-.075-.014.242-1.426.376-3.741a29.423,29.423,0,0,0-.06-4.064,29.2,29.2,0,0,0-2.493-9.589A29.437,29.437,0,0,0,39.989,269c-1.244-1.957-2.209-3.035-2.15-3.084a5.265,5.265,0,0,1,.7.737,10.985,10.985,0,0,1,.752.923c.276.373.611.785.921,1.282a26.613,26.613,0,0,1,2.018,3.579,27.709,27.709,0,0,1,2.523,9.7,26.621,26.621,0,0,1-.019,4.108c-.028.585-.12,1.107-.18,1.568a11,11,0,0,1-.207,1.172,5.312,5.312,0,0,1-.25.983" transform="translate(-17.724 -124.562)" fill="#263238"/>
        <path id="Trazado_235674" data-name="Trazado 235674" d="M54.548,379.765a.692.692,0,0,1-.066-.147l-.17-.439c-.15-.406-.36-.975-.628-1.7l-2.264-6.275c-1.9-5.327-4.507-12.67-7.4-20.816L44,350.36l0-.031c.025-.226.052-.471.079-.717.978-8.756,1.862-16.681,2.5-22.44.332-2.856.6-5.173.79-6.8.1-.787.174-1.405.229-1.846l.066-.479a.758.758,0,0,1,.032-.163.736.736,0,0,1,0,.165c-.01.124-.023.283-.039.483-.043.442-.1,1.063-.178,1.852-.168,1.626-.407,3.947-.7,6.806l-2.423,22.449c-.027.246-.054.491-.079.717l-.007-.061c2.866,8.156,5.451,15.508,7.326,20.843l2.183,6.3.579,1.716.144.448a.7.7,0,0,1,.04.156" transform="translate(-20.613 -148.908)" fill="#263238"/>
        <path id="Trazado_235675" data-name="Trazado 235675" d="M148.88,265.208a42.808,42.808,0,0,1,3.129,5.951c.449.94.821,2.018,1.277,3.154.383,1.161.843,2.388,1.189,3.72.4,1.317.706,2.729,1.038,4.189l.411,2.246c.141.76.222,1.542.337,2.327a75.126,75.126,0,0,1,.215,16.221l-.313,2.788c-.087.821-.219,1.52-.3,2.1q-.133.832-.212,1.321a2.913,2.913,0,0,1-.092.457,2.943,2.943,0,0,1,.037-.466q.059-.491.16-1.327c.065-.577.181-1.278.254-2.1s.171-1.757.271-2.786a79.048,79.048,0,0,0-.294-16.169c-.115-.781-.195-1.56-.334-2.317l-.405-2.237c-.327-1.454-.627-2.86-1.018-4.174-.338-1.328-.788-2.552-1.16-3.711-.444-1.134-.8-2.212-1.24-3.154l-.587-1.357c-.189-.427-.394-.817-.572-1.189-.36-.74-.665-1.382-.954-1.885l-.632-1.178a2.99,2.99,0,0,1-.2-.42" transform="translate(-69.74 -124.232)" fill="#263238"/>
        <path id="Trazado_235676" data-name="Trazado 235676" d="M195.779,323.93a5,5,0,0,1-.555-1.31,13.116,13.116,0,0,1-.3-6.807,4.989,4.989,0,0,1,.437-1.354,13.107,13.107,0,0,1-.245,1.392,15.706,15.706,0,0,0,.3,6.714,13.034,13.034,0,0,1,.367,1.365" transform="translate(-91.162 -147.303)" fill="#263238"/>
      </g>
    </g>
  </g>
</svg>
