<svg xmlns="http://www.w3.org/2000/svg" xmlns:xlink="http://www.w3.org/1999/xlink" width="240.361" height="226.399" viewBox="0 0 240.361 226.399">
  <defs>
    <clipPath id="clip-path">
      <rect id="Rectángulo_33977" data-name="Rectángulo 33977" width="213.084" height="217.796" fill="none"/>
    </clipPath>
    <clipPath id="clip-path-2">
      <rect id="Rectángulo_33770" data-name="Rectángulo 33770" width="223.941" height="221.203" fill="none"/>
    </clipPath>
    <clipPath id="clip-path-3">
      <path id="Trazado_228552" data-name="Trazado 228552" d="M374.265,84.006l36.463,120.351c11.957,39.477,44.887,47.17,73.172,17.1l86.233-91.68C598.421,99.7,588.635,67.4,548.388,58L425.695,29.329a71.733,71.733,0,0,0-16.279-2c-29.908,0-45.387,22.895-35.151,56.681" transform="translate(-371.113 -27.325)" fill="none"/>
    </clipPath>
  </defs>
  <g id="Grupo_183685" data-name="Grupo 183685" transform="translate(-196.72 -3561.684)">
    <g id="Grupo_180355" data-name="Grupo 180355" transform="translate(196.72 3556.76)" opacity="0.308">
      <g id="Grupo_175327" data-name="Grupo 175327" transform="translate(0 4.924)">
        <g id="Grupo_175306" data-name="Grupo 175306" transform="translate(0 0)" opacity="0.3" style="mix-blend-mode: multiply;isolation: isolate">
          <g id="Grupo_80130" data-name="Grupo 80130">
            <g id="Grupo_80129" data-name="Grupo 80129" clip-path="url(#clip-path)">
              <path id="Trazado_113552" data-name="Trazado 113552" d="M549.206,150.083l-2.537,2.661-8.21,43.2c-3.663,19.253-12.9,32.373-26.006,36.943s-28.525.044-43.405-12.744l-95.481-82.055c-13.7-11.774-20.616-25.272-19.474-38.008.985-10.966,8.047-20.883,19.9-27.966a10.966,10.966,0,0,0-.382-2.015l-.217.19c-12.6,7.41-20.121,17.931-21.17,29.623-1.2,13.354,5.948,27.416,20.12,39.6l95.478,82.055c15.413,13.244,31.483,17.894,45.252,13.093S536.513,216.233,540.3,196.3l8.376-44.073Z" transform="translate(-352.092 -18.704)" fill="#f4a338"/>
              <path id="Trazado_113553" data-name="Trazado 113553" d="M459.752,39.608l3.4.722,33.167-11.563c17.123-5.969,32.327-5.175,42.816,2.24,9.108,6.439,14.162,17.7,14.245,31.719,0,.077,1.884.783,1.884.861l0-.63c-.027-14.754-5.368-26.644-15.039-33.48-11-7.773-26.808-8.654-44.523-2.479L461.156,39.039Z" transform="translate(-342.177 -22.931)" fill="#f4a338"/>
            </g>
          </g>
        </g>
        <path id="Trazado_228551" data-name="Trazado 228551" d="M448.77,244.528c-18.9,0-34.545-14.413-41.857-38.553L370.45,85.626c-5.654-18.66-4.052-35.273,4.51-46.779,7.448-10.01,19.816-15.523,34.824-15.523a76.34,76.34,0,0,1,17.274,2.119L549.752,54.114c21.049,4.917,35.169,15.97,39.758,31.12s-1.03,32.154-15.824,47.882L487.453,224.8c-12.142,12.908-25.518,19.732-38.683,19.732" transform="translate(-350.707 -22.896)" fill="#fff"/>
        <g id="Grupo_175307" data-name="Grupo 175307" transform="translate(14.237 5.197)" opacity="0.1" style="mix-blend-mode: multiply;isolation: isolate">
          <g id="Grupo_80119" data-name="Grupo 80119">
            <g id="Grupo_80118" data-name="Grupo 80118" clip-path="url(#clip-path-2)">
              <path id="Trazado_113550" data-name="Trazado 113550" d="M446.77,248.9c-18.9,0-34.545-14.413-41.857-38.553L368.45,90c-5.654-18.66-4.052-35.273,4.51-46.779,7.448-10.01,19.816-15.523,34.824-15.523a76.341,76.341,0,0,1,17.274,2.119L547.752,58.489c21.049,4.917,35.169,15.97,39.758,31.12s-1.03,32.154-15.824,47.882l-86.233,91.68C473.311,242.079,459.935,248.9,446.77,248.9" transform="translate(-365.128 -27.7)"/>
            </g>
          </g>
        </g>
        <g id="Grupo_175311" data-name="Grupo 175311" transform="translate(20.773 4.788)" clip-path="url(#clip-path-3)">
          <rect id="Rectángulo_54221" data-name="Rectángulo 54221" width="11.933" height="11.902" transform="translate(-12.226 -21.065)" fill="#fff"/>
          <rect id="Rectángulo_54222" data-name="Rectángulo 54222" width="11.932" height="11.902" transform="translate(11.637 -21.065)" fill="#fff"/>
          <rect id="Rectángulo_54223" data-name="Rectángulo 54223" width="11.939" height="11.902" transform="translate(35.494 -21.065)" fill="#fff"/>
          <rect id="Rectángulo_54224" data-name="Rectángulo 54224" width="11.929" height="11.902" transform="translate(59.361 -21.065)" fill="#fff"/>
          <rect id="Rectángulo_54225" data-name="Rectángulo 54225" width="11.931" height="11.902" transform="translate(83.224 -21.065)" fill="#fff"/>
          <rect id="Rectángulo_54226" data-name="Rectángulo 54226" width="11.937" height="11.902" transform="translate(107.081 -21.065)" fill="#fff"/>
          <rect id="Rectángulo_54227" data-name="Rectángulo 54227" width="11.933" height="11.902" transform="translate(130.945 -21.065)" fill="#fff"/>
          <rect id="Rectángulo_54228" data-name="Rectángulo 54228" width="11.939" height="11.902" transform="translate(154.802 -21.065)" fill="#fff"/>
          <rect id="Rectángulo_54229" data-name="Rectángulo 54229" width="11.929" height="11.902" transform="translate(178.669 -21.065)" fill="#fff"/>
          <rect id="Rectángulo_54230" data-name="Rectángulo 54230" width="11.924" height="11.902" transform="translate(202.532 -21.065)" fill="#fff"/>
          <rect id="Rectángulo_54231" data-name="Rectángulo 54231" width="11.933" height="11.901" transform="translate(214.457 -9.164)" fill="#fff"/>
          <rect id="Rectángulo_54232" data-name="Rectángulo 54232" width="11.933" height="11.901" transform="translate(190.599 -9.164)" fill="#fff"/>
          <rect id="Rectángulo_54233" data-name="Rectángulo 54233" width="11.929" height="11.901" transform="translate(166.74 -9.164)" fill="#fff"/>
          <rect id="Rectángulo_54234" data-name="Rectángulo 54234" width="11.923" height="11.901" transform="translate(142.878 -9.164)" fill="#fff"/>
          <rect id="Rectángulo_54235" data-name="Rectángulo 54235" width="11.927" height="11.901" transform="translate(119.018 -9.164)" fill="#fff"/>
          <rect id="Rectángulo_54236" data-name="Rectángulo 54236" width="11.927" height="11.901" transform="translate(95.155 -9.164)" fill="#fff"/>
          <rect id="Rectángulo_54237" data-name="Rectángulo 54237" width="11.934" height="11.901" transform="translate(71.289 -9.164)" fill="#fff"/>
          <rect id="Rectángulo_54238" data-name="Rectángulo 54238" width="11.929" height="11.901" transform="translate(47.432 -9.164)" fill="#fff"/>
          <rect id="Rectángulo_54239" data-name="Rectángulo 54239" width="11.925" height="11.901" transform="translate(23.569 -9.164)" fill="#fff"/>
          <rect id="Rectángulo_54240" data-name="Rectángulo 54240" width="11.929" height="11.901" transform="translate(-0.293 -9.164)" fill="#fff"/>
          <rect id="Rectángulo_54241" data-name="Rectángulo 54241" width="11.933" height="11.906" transform="translate(-12.226 2.737)" fill="#fff"/>
          <rect id="Rectángulo_54242" data-name="Rectángulo 54242" width="11.932" height="11.906" transform="translate(11.637 2.737)" fill="#fff"/>
          <rect id="Rectángulo_54243" data-name="Rectángulo 54243" width="11.939" height="11.906" transform="translate(35.494 2.737)" fill="#fff"/>
          <rect id="Rectángulo_54244" data-name="Rectángulo 54244" width="11.929" height="11.906" transform="translate(59.361 2.737)" fill="#fff"/>
          <rect id="Rectángulo_54245" data-name="Rectángulo 54245" width="11.931" height="11.906" transform="translate(83.224 2.737)" fill="#fff"/>
          <rect id="Rectángulo_54246" data-name="Rectángulo 54246" width="11.937" height="11.906" transform="translate(107.081 2.737)" fill="#fff"/>
          <rect id="Rectángulo_54247" data-name="Rectángulo 54247" width="11.933" height="11.906" transform="translate(130.945 2.737)" fill="#fff"/>
          <rect id="Rectángulo_54248" data-name="Rectángulo 54248" width="11.939" height="11.906" transform="translate(154.802 2.737)" fill="#fff"/>
          <rect id="Rectángulo_54249" data-name="Rectángulo 54249" width="11.929" height="11.906" transform="translate(178.669 2.737)" fill="#fff"/>
          <rect id="Rectángulo_54250" data-name="Rectángulo 54250" width="11.924" height="11.906" transform="translate(202.532 2.737)" fill="#fff"/>
          <rect id="Rectángulo_54251" data-name="Rectángulo 54251" width="11.933" height="11.901" transform="translate(214.457 14.643)" fill="#fff"/>
          <rect id="Rectángulo_54252" data-name="Rectángulo 54252" width="11.933" height="11.901" transform="translate(190.599 14.643)" fill="#fff"/>
          <rect id="Rectángulo_54253" data-name="Rectángulo 54253" width="11.929" height="11.901" transform="translate(166.74 14.643)" fill="#fff"/>
          <rect id="Rectángulo_54254" data-name="Rectángulo 54254" width="11.923" height="11.901" transform="translate(142.878 14.643)" fill="#fff"/>
          <rect id="Rectángulo_54255" data-name="Rectángulo 54255" width="11.927" height="11.901" transform="translate(119.018 14.643)" fill="#fff"/>
          <rect id="Rectángulo_54256" data-name="Rectángulo 54256" width="11.927" height="11.901" transform="translate(95.155 14.643)" fill="#fff"/>
          <rect id="Rectángulo_54257" data-name="Rectángulo 54257" width="11.934" height="11.901" transform="translate(71.289 14.643)" fill="#fff"/>
          <rect id="Rectángulo_54258" data-name="Rectángulo 54258" width="11.929" height="11.901" transform="translate(47.432 14.643)" fill="#fff"/>
          <rect id="Rectángulo_54259" data-name="Rectángulo 54259" width="11.925" height="11.901" transform="translate(23.569 14.643)" fill="#fff"/>
          <rect id="Rectángulo_54260" data-name="Rectángulo 54260" width="11.929" height="11.901" transform="translate(-0.293 14.643)" fill="#fff"/>
          <rect id="Rectángulo_54261" data-name="Rectángulo 54261" width="11.933" height="11.909" transform="translate(-12.226 26.544)" fill="#fff"/>
          <rect id="Rectángulo_54262" data-name="Rectángulo 54262" width="11.932" height="11.909" transform="translate(11.637 26.544)" fill="#fff"/>
          <rect id="Rectángulo_54263" data-name="Rectángulo 54263" width="11.939" height="11.909" transform="translate(35.494 26.544)" fill="#fff"/>
          <rect id="Rectángulo_54264" data-name="Rectángulo 54264" width="11.929" height="11.909" transform="translate(59.361 26.544)" fill="#fff"/>
          <rect id="Rectángulo_54265" data-name="Rectángulo 54265" width="11.931" height="11.909" transform="translate(83.224 26.544)" fill="#fff"/>
          <rect id="Rectángulo_54266" data-name="Rectángulo 54266" width="11.937" height="11.909" transform="translate(107.081 26.544)" fill="#fff"/>
          <rect id="Rectángulo_54267" data-name="Rectángulo 54267" width="11.933" height="11.909" transform="translate(130.945 26.544)" fill="#fff"/>
          <rect id="Rectángulo_54268" data-name="Rectángulo 54268" width="11.939" height="11.909" transform="translate(154.802 26.544)" fill="#fff"/>
          <rect id="Rectángulo_54269" data-name="Rectángulo 54269" width="11.929" height="11.909" transform="translate(178.669 26.544)" fill="#fff"/>
          <rect id="Rectángulo_54270" data-name="Rectángulo 54270" width="11.924" height="11.909" transform="translate(202.532 26.544)" fill="#fff"/>
          <rect id="Rectángulo_54271" data-name="Rectángulo 54271" width="11.933" height="11.905" transform="translate(214.457 38.453)" fill="#fff"/>
          <rect id="Rectángulo_54272" data-name="Rectángulo 54272" width="11.933" height="11.905" transform="translate(190.599 38.453)" fill="#fff"/>
          <rect id="Rectángulo_54273" data-name="Rectángulo 54273" width="11.929" height="11.905" transform="translate(166.74 38.453)" fill="#fff"/>
          <rect id="Rectángulo_54274" data-name="Rectángulo 54274" width="11.923" height="11.905" transform="translate(142.878 38.453)" fill="#fff"/>
          <rect id="Rectángulo_54275" data-name="Rectángulo 54275" width="11.927" height="11.905" transform="translate(119.018 38.453)" fill="#fff"/>
          <rect id="Rectángulo_54276" data-name="Rectángulo 54276" width="11.927" height="11.905" transform="translate(95.155 38.453)" fill="#fff"/>
          <rect id="Rectángulo_54277" data-name="Rectángulo 54277" width="11.934" height="11.905" transform="translate(71.289 38.453)" fill="#fff"/>
          <rect id="Rectángulo_54278" data-name="Rectángulo 54278" width="11.929" height="11.905" transform="translate(47.432 38.453)" fill="#fff"/>
          <rect id="Rectángulo_54279" data-name="Rectángulo 54279" width="11.925" height="11.905" transform="translate(23.569 38.453)" fill="#fff"/>
          <rect id="Rectángulo_54280" data-name="Rectángulo 54280" width="11.929" height="11.905" transform="translate(-0.293 38.453)" fill="#fff"/>
          <rect id="Rectángulo_54281" data-name="Rectángulo 54281" width="11.933" height="11.902" transform="translate(-12.226 50.358)" fill="#fff"/>
          <rect id="Rectángulo_54282" data-name="Rectángulo 54282" width="11.932" height="11.902" transform="translate(11.637 50.358)" fill="#fff"/>
          <rect id="Rectángulo_54283" data-name="Rectángulo 54283" width="11.939" height="11.902" transform="translate(35.494 50.358)" fill="#fff"/>
          <rect id="Rectángulo_54284" data-name="Rectángulo 54284" width="11.929" height="11.902" transform="translate(59.361 50.358)" fill="#fff"/>
          <rect id="Rectángulo_54285" data-name="Rectángulo 54285" width="11.931" height="11.902" transform="translate(83.224 50.358)" fill="#fff"/>
          <rect id="Rectángulo_54286" data-name="Rectángulo 54286" width="11.937" height="11.902" transform="translate(107.081 50.358)" fill="#fff"/>
          <rect id="Rectángulo_54287" data-name="Rectángulo 54287" width="11.933" height="11.902" transform="translate(130.945 50.358)" fill="#fff"/>
          <rect id="Rectángulo_54288" data-name="Rectángulo 54288" width="11.939" height="11.902" transform="translate(154.802 50.358)" fill="#fff"/>
          <rect id="Rectángulo_54289" data-name="Rectángulo 54289" width="11.929" height="11.902" transform="translate(178.669 50.358)" fill="#fff"/>
          <rect id="Rectángulo_54290" data-name="Rectángulo 54290" width="11.924" height="11.902" transform="translate(202.532 50.358)" fill="#fff"/>
          <rect id="Rectángulo_54291" data-name="Rectángulo 54291" width="11.933" height="11.902" transform="translate(214.457 62.26)" fill="#fff"/>
          <rect id="Rectángulo_54292" data-name="Rectángulo 54292" width="11.933" height="11.902" transform="translate(190.599 62.26)" fill="#fff"/>
          <rect id="Rectángulo_54293" data-name="Rectángulo 54293" width="11.929" height="11.902" transform="translate(166.74 62.26)" fill="#fff"/>
          <rect id="Rectángulo_54294" data-name="Rectángulo 54294" width="11.923" height="11.902" transform="translate(142.878 62.26)" fill="#fff"/>
          <rect id="Rectángulo_54295" data-name="Rectángulo 54295" width="11.927" height="11.902" transform="translate(119.018 62.26)" fill="#fff"/>
          <rect id="Rectángulo_54296" data-name="Rectángulo 54296" width="11.927" height="11.902" transform="translate(95.155 62.26)" fill="#fff"/>
          <rect id="Rectángulo_54297" data-name="Rectángulo 54297" width="11.934" height="11.902" transform="translate(71.289 62.26)" fill="#fff"/>
          <rect id="Rectángulo_54298" data-name="Rectángulo 54298" width="11.929" height="11.902" transform="translate(47.432 62.26)" fill="#fff"/>
          <rect id="Rectángulo_54299" data-name="Rectángulo 54299" width="11.925" height="11.902" transform="translate(23.569 62.26)" fill="#fff"/>
          <rect id="Rectángulo_54300" data-name="Rectángulo 54300" width="11.929" height="11.902" transform="translate(-0.293 62.26)" fill="#fff"/>
          <rect id="Rectángulo_54301" data-name="Rectángulo 54301" width="11.933" height="11.903" transform="translate(-12.226 74.162)" fill="#fff"/>
          <rect id="Rectángulo_54302" data-name="Rectángulo 54302" width="11.932" height="11.903" transform="translate(11.637 74.162)" fill="#fff"/>
          <rect id="Rectángulo_54303" data-name="Rectángulo 54303" width="11.939" height="11.903" transform="translate(35.494 74.162)" fill="#fff"/>
          <rect id="Rectángulo_54304" data-name="Rectángulo 54304" width="11.929" height="11.903" transform="translate(59.361 74.162)" fill="#fff"/>
          <rect id="Rectángulo_54305" data-name="Rectángulo 54305" width="11.931" height="11.903" transform="translate(83.224 74.162)" fill="#fff"/>
          <rect id="Rectángulo_54306" data-name="Rectángulo 54306" width="11.937" height="11.903" transform="translate(107.081 74.162)" fill="#fff"/>
          <rect id="Rectángulo_54307" data-name="Rectángulo 54307" width="11.933" height="11.903" transform="translate(130.945 74.162)" fill="#fff"/>
          <rect id="Rectángulo_54308" data-name="Rectángulo 54308" width="11.939" height="11.903" transform="translate(154.802 74.162)" fill="#fff"/>
          <rect id="Rectángulo_54309" data-name="Rectángulo 54309" width="11.929" height="11.903" transform="translate(178.669 74.162)" fill="#fff"/>
          <rect id="Rectángulo_54310" data-name="Rectángulo 54310" width="11.924" height="11.903" transform="translate(202.532 74.162)" fill="#fff"/>
          <rect id="Rectángulo_54311" data-name="Rectángulo 54311" width="11.933" height="11.907" transform="translate(214.457 86.065)" fill="#fff"/>
          <rect id="Rectángulo_54312" data-name="Rectángulo 54312" width="11.933" height="11.907" transform="translate(190.599 86.065)" fill="#fff"/>
          <rect id="Rectángulo_54313" data-name="Rectángulo 54313" width="11.929" height="11.907" transform="translate(166.74 86.065)" fill="#fff"/>
          <rect id="Rectángulo_54314" data-name="Rectángulo 54314" width="11.923" height="11.907" transform="translate(142.878 86.065)" fill="#fff"/>
          <rect id="Rectángulo_54315" data-name="Rectángulo 54315" width="11.927" height="11.907" transform="translate(119.018 86.065)" fill="#fff"/>
          <rect id="Rectángulo_54316" data-name="Rectángulo 54316" width="11.927" height="11.907" transform="translate(95.155 86.065)" fill="#fff"/>
          <rect id="Rectángulo_54317" data-name="Rectángulo 54317" width="11.934" height="11.907" transform="translate(71.289 86.065)" fill="#fff"/>
          <rect id="Rectángulo_54318" data-name="Rectángulo 54318" width="11.929" height="11.907" transform="translate(47.432 86.065)" fill="#fff"/>
          <rect id="Rectángulo_54319" data-name="Rectángulo 54319" width="11.925" height="11.907" transform="translate(23.569 86.065)" fill="#fff"/>
          <rect id="Rectángulo_54320" data-name="Rectángulo 54320" width="11.929" height="11.907" transform="translate(-0.293 86.065)" fill="#fff"/>
          <rect id="Rectángulo_54321" data-name="Rectángulo 54321" width="11.933" height="11.902" transform="translate(-12.226 97.971)" fill="#fff"/>
          <rect id="Rectángulo_54322" data-name="Rectángulo 54322" width="11.932" height="11.902" transform="translate(11.637 97.971)" fill="#fff"/>
          <rect id="Rectángulo_54323" data-name="Rectángulo 54323" width="11.939" height="11.902" transform="translate(35.494 97.971)" fill="#fff"/>
          <rect id="Rectángulo_54324" data-name="Rectángulo 54324" width="11.929" height="11.902" transform="translate(59.361 97.971)" fill="#fff"/>
          <rect id="Rectángulo_54325" data-name="Rectángulo 54325" width="11.931" height="11.902" transform="translate(83.224 97.971)" fill="#fff"/>
          <rect id="Rectángulo_54326" data-name="Rectángulo 54326" width="11.937" height="11.902" transform="translate(107.081 97.971)" fill="#fff"/>
          <rect id="Rectángulo_54327" data-name="Rectángulo 54327" width="11.933" height="11.902" transform="translate(130.945 97.971)" fill="#fff"/>
          <rect id="Rectángulo_54328" data-name="Rectángulo 54328" width="11.939" height="11.902" transform="translate(154.802 97.971)" fill="#fff"/>
          <rect id="Rectángulo_54329" data-name="Rectángulo 54329" width="11.929" height="11.902" transform="translate(178.669 97.971)" fill="#fff"/>
          <rect id="Rectángulo_54330" data-name="Rectángulo 54330" width="11.924" height="11.902" transform="translate(202.532 97.971)" fill="#fff"/>
          <rect id="Rectángulo_54331" data-name="Rectángulo 54331" width="11.933" height="11.902" transform="translate(214.457 109.873)" fill="#fff"/>
          <rect id="Rectángulo_54332" data-name="Rectángulo 54332" width="11.933" height="11.902" transform="translate(190.599 109.873)" fill="#fff"/>
          <rect id="Rectángulo_54333" data-name="Rectángulo 54333" width="11.929" height="11.902" transform="translate(166.74 109.873)" fill="#fff"/>
          <rect id="Rectángulo_54334" data-name="Rectángulo 54334" width="11.923" height="11.902" transform="translate(142.878 109.873)" fill="#fff"/>
          <rect id="Rectángulo_54335" data-name="Rectángulo 54335" width="11.927" height="11.902" transform="translate(119.018 109.873)" fill="#fff"/>
          <rect id="Rectángulo_54336" data-name="Rectángulo 54336" width="11.927" height="11.902" transform="translate(95.155 109.873)" fill="#fff"/>
          <rect id="Rectángulo_54337" data-name="Rectángulo 54337" width="11.934" height="11.902" transform="translate(71.289 109.873)" fill="#fff"/>
          <rect id="Rectángulo_54338" data-name="Rectángulo 54338" width="11.929" height="11.902" transform="translate(47.432 109.873)" fill="#fff"/>
          <rect id="Rectángulo_54339" data-name="Rectángulo 54339" width="11.925" height="11.902" transform="translate(23.569 109.873)" fill="#fff"/>
          <rect id="Rectángulo_54340" data-name="Rectángulo 54340" width="11.929" height="11.902" transform="translate(-0.293 109.873)" fill="#fff"/>
          <rect id="Rectángulo_54341" data-name="Rectángulo 54341" width="11.933" height="11.907" transform="translate(-12.226 121.775)" fill="#fff"/>
          <rect id="Rectángulo_54342" data-name="Rectángulo 54342" width="11.932" height="11.907" transform="translate(11.637 121.775)" fill="#fff"/>
          <rect id="Rectángulo_54343" data-name="Rectángulo 54343" width="11.939" height="11.907" transform="translate(35.494 121.775)" fill="#fff"/>
          <rect id="Rectángulo_54344" data-name="Rectángulo 54344" width="11.929" height="11.907" transform="translate(59.361 121.775)" fill="#fff"/>
          <rect id="Rectángulo_54345" data-name="Rectángulo 54345" width="11.931" height="11.907" transform="translate(83.224 121.775)" fill="#fff"/>
          <rect id="Rectángulo_54346" data-name="Rectángulo 54346" width="11.937" height="11.907" transform="translate(107.081 121.775)" fill="#fff"/>
          <rect id="Rectángulo_54347" data-name="Rectángulo 54347" width="11.933" height="11.907" transform="translate(130.945 121.775)" fill="#fff"/>
          <rect id="Rectángulo_54348" data-name="Rectángulo 54348" width="11.939" height="11.907" transform="translate(154.802 121.775)" fill="#fff"/>
          <rect id="Rectángulo_54349" data-name="Rectángulo 54349" width="11.929" height="11.907" transform="translate(178.669 121.775)" fill="#fff"/>
          <rect id="Rectángulo_54350" data-name="Rectángulo 54350" width="11.924" height="11.907" transform="translate(202.532 121.775)" fill="#fff"/>
          <rect id="Rectángulo_54351" data-name="Rectángulo 54351" width="11.933" height="11.894" transform="translate(214.457 133.682)" fill="#fff"/>
          <rect id="Rectángulo_54352" data-name="Rectángulo 54352" width="11.933" height="11.894" transform="translate(190.599 133.682)" fill="#fff"/>
          <rect id="Rectángulo_54353" data-name="Rectángulo 54353" width="11.929" height="11.894" transform="translate(166.74 133.682)" fill="#fff"/>
          <rect id="Rectángulo_54354" data-name="Rectángulo 54354" width="11.923" height="11.894" transform="translate(142.878 133.682)" fill="#fff"/>
          <rect id="Rectángulo_54355" data-name="Rectángulo 54355" width="11.927" height="11.894" transform="translate(119.018 133.682)" fill="#fff"/>
          <rect id="Rectángulo_54356" data-name="Rectángulo 54356" width="11.927" height="11.894" transform="translate(95.155 133.682)" fill="#fff"/>
          <rect id="Rectángulo_54357" data-name="Rectángulo 54357" width="11.934" height="11.894" transform="translate(71.289 133.682)" fill="#fff"/>
          <rect id="Rectángulo_54358" data-name="Rectángulo 54358" width="11.929" height="11.894" transform="translate(47.432 133.682)" fill="#fff"/>
          <rect id="Rectángulo_54359" data-name="Rectángulo 54359" width="11.925" height="11.894" transform="translate(23.569 133.682)" fill="#fff"/>
          <rect id="Rectángulo_54360" data-name="Rectángulo 54360" width="11.929" height="11.894" transform="translate(-0.293 133.682)" fill="#fff"/>
          <rect id="Rectángulo_54361" data-name="Rectángulo 54361" width="11.933" height="11.914" transform="translate(-12.226 145.576)" fill="#fff"/>
          <rect id="Rectángulo_54362" data-name="Rectángulo 54362" width="11.932" height="11.914" transform="translate(11.637 145.576)" fill="#fff"/>
          <rect id="Rectángulo_54363" data-name="Rectángulo 54363" width="11.939" height="11.914" transform="translate(35.494 145.576)" fill="#fff"/>
          <rect id="Rectángulo_54364" data-name="Rectángulo 54364" width="11.929" height="11.914" transform="translate(59.361 145.576)" fill="#fff"/>
          <rect id="Rectángulo_54365" data-name="Rectángulo 54365" width="11.931" height="11.914" transform="translate(83.224 145.576)" fill="#fff"/>
          <rect id="Rectángulo_54366" data-name="Rectángulo 54366" width="11.937" height="11.914" transform="translate(107.081 145.576)" fill="#fff"/>
          <rect id="Rectángulo_54367" data-name="Rectángulo 54367" width="11.933" height="11.914" transform="translate(130.945 145.576)" fill="#fff"/>
          <rect id="Rectángulo_54368" data-name="Rectángulo 54368" width="11.939" height="11.914" transform="translate(154.802 145.576)" fill="#fff"/>
          <rect id="Rectángulo_54369" data-name="Rectángulo 54369" width="11.929" height="11.914" transform="translate(178.669 145.576)" fill="#fff"/>
          <rect id="Rectángulo_54370" data-name="Rectángulo 54370" width="11.924" height="11.914" transform="translate(202.532 145.576)" fill="#fff"/>
          <rect id="Rectángulo_54371" data-name="Rectángulo 54371" width="11.933" height="11.902" transform="translate(214.457 157.49)" fill="#fff"/>
          <rect id="Rectángulo_54372" data-name="Rectángulo 54372" width="11.933" height="11.902" transform="translate(190.599 157.49)" fill="#fff"/>
          <rect id="Rectángulo_54373" data-name="Rectángulo 54373" width="11.929" height="11.902" transform="translate(166.74 157.49)" fill="#fff"/>
          <rect id="Rectángulo_54374" data-name="Rectángulo 54374" width="11.923" height="11.902" transform="translate(142.878 157.49)" fill="#fff"/>
          <rect id="Rectángulo_54375" data-name="Rectángulo 54375" width="11.927" height="11.902" transform="translate(119.018 157.49)" fill="#fff"/>
          <rect id="Rectángulo_54376" data-name="Rectángulo 54376" width="11.927" height="11.902" transform="translate(95.155 157.49)" fill="#fff"/>
          <rect id="Rectángulo_54377" data-name="Rectángulo 54377" width="11.934" height="11.902" transform="translate(71.289 157.49)" fill="#fff"/>
          <rect id="Rectángulo_54378" data-name="Rectángulo 54378" width="11.929" height="11.902" transform="translate(47.432 157.49)" fill="#fff"/>
          <rect id="Rectángulo_54379" data-name="Rectángulo 54379" width="11.925" height="11.902" transform="translate(23.569 157.49)" fill="#fff"/>
          <rect id="Rectángulo_54380" data-name="Rectángulo 54380" width="11.929" height="11.902" transform="translate(-0.293 157.49)" fill="#fff"/>
          <rect id="Rectángulo_54381" data-name="Rectángulo 54381" width="11.933" height="11.906" transform="translate(-12.226 169.392)" fill="#fff"/>
          <rect id="Rectángulo_54382" data-name="Rectángulo 54382" width="11.932" height="11.906" transform="translate(11.637 169.392)" fill="#fff"/>
          <rect id="Rectángulo_54383" data-name="Rectángulo 54383" width="11.939" height="11.906" transform="translate(35.494 169.392)" fill="#fff"/>
          <rect id="Rectángulo_54384" data-name="Rectángulo 54384" width="11.929" height="11.906" transform="translate(59.361 169.392)" fill="#fff"/>
          <rect id="Rectángulo_54385" data-name="Rectángulo 54385" width="11.931" height="11.906" transform="translate(83.224 169.392)" fill="#fff"/>
          <rect id="Rectángulo_54386" data-name="Rectángulo 54386" width="11.937" height="11.906" transform="translate(107.081 169.392)" fill="#fff"/>
          <rect id="Rectángulo_54387" data-name="Rectángulo 54387" width="11.933" height="11.906" transform="translate(130.945 169.392)" fill="#fff"/>
          <rect id="Rectángulo_54388" data-name="Rectángulo 54388" width="11.939" height="11.906" transform="translate(154.802 169.392)" fill="#fff"/>
          <rect id="Rectángulo_54389" data-name="Rectángulo 54389" width="11.929" height="11.906" transform="translate(178.669 169.392)" fill="#fff"/>
          <rect id="Rectángulo_54390" data-name="Rectángulo 54390" width="11.924" height="11.906" transform="translate(202.532 169.392)" fill="#fff"/>
          <rect id="Rectángulo_54391" data-name="Rectángulo 54391" width="11.933" height="11.894" transform="translate(214.457 181.299)" fill="#fff"/>
          <rect id="Rectángulo_54392" data-name="Rectángulo 54392" width="11.933" height="11.894" transform="translate(190.599 181.299)" fill="#fff"/>
          <rect id="Rectángulo_54393" data-name="Rectángulo 54393" width="11.929" height="11.894" transform="translate(166.74 181.299)" fill="#fff"/>
          <rect id="Rectángulo_54394" data-name="Rectángulo 54394" width="11.923" height="11.894" transform="translate(142.878 181.299)" fill="#fff"/>
          <rect id="Rectángulo_54395" data-name="Rectángulo 54395" width="11.927" height="11.894" transform="translate(119.018 181.299)" fill="#fff"/>
          <rect id="Rectángulo_54396" data-name="Rectángulo 54396" width="11.927" height="11.894" transform="translate(95.155 181.299)" fill="#fff"/>
          <rect id="Rectángulo_54397" data-name="Rectángulo 54397" width="11.934" height="11.894" transform="translate(71.289 181.299)" fill="#fff"/>
          <rect id="Rectángulo_54398" data-name="Rectángulo 54398" width="11.929" height="11.894" transform="translate(47.432 181.299)" fill="#fff"/>
          <rect id="Rectángulo_54399" data-name="Rectángulo 54399" width="11.925" height="11.894" transform="translate(23.569 181.299)" fill="#fff"/>
          <rect id="Rectángulo_54400" data-name="Rectángulo 54400" width="11.929" height="11.894" transform="translate(-0.293 181.299)" fill="#fff"/>
          <rect id="Rectángulo_54401" data-name="Rectángulo 54401" width="11.933" height="11.912" transform="translate(-12.226 193.193)" fill="#fff"/>
          <rect id="Rectángulo_54402" data-name="Rectángulo 54402" width="11.932" height="11.912" transform="translate(11.637 193.193)" fill="#fff"/>
          <rect id="Rectángulo_54403" data-name="Rectángulo 54403" width="11.939" height="11.912" transform="translate(35.494 193.193)" fill="#fff"/>
          <rect id="Rectángulo_54404" data-name="Rectángulo 54404" width="11.929" height="11.912" transform="translate(59.361 193.193)" fill="#fff"/>
          <rect id="Rectángulo_54405" data-name="Rectángulo 54405" width="11.931" height="11.912" transform="translate(83.224 193.193)" fill="#fff"/>
          <rect id="Rectángulo_54406" data-name="Rectángulo 54406" width="11.937" height="11.912" transform="translate(107.081 193.193)" fill="#fff"/>
          <rect id="Rectángulo_54407" data-name="Rectángulo 54407" width="11.933" height="11.912" transform="translate(130.945 193.193)" fill="#fff"/>
          <rect id="Rectángulo_54408" data-name="Rectángulo 54408" width="11.939" height="11.912" transform="translate(154.802 193.193)" fill="#fff"/>
          <rect id="Rectángulo_54409" data-name="Rectángulo 54409" width="11.929" height="11.912" transform="translate(178.669 193.193)" fill="#fff"/>
          <rect id="Rectángulo_54410" data-name="Rectángulo 54410" width="11.924" height="11.912" transform="translate(202.532 193.193)" fill="#fff"/>
          <rect id="Rectángulo_54411" data-name="Rectángulo 54411" width="11.933" height="11.904" transform="translate(214.457 205.105)" fill="#fff"/>
          <rect id="Rectángulo_54412" data-name="Rectángulo 54412" width="11.933" height="11.904" transform="translate(190.599 205.105)" fill="#fff"/>
          <rect id="Rectángulo_54413" data-name="Rectángulo 54413" width="11.929" height="11.904" transform="translate(166.74 205.105)" fill="#fff"/>
          <rect id="Rectángulo_54414" data-name="Rectángulo 54414" width="11.923" height="11.904" transform="translate(142.878 205.105)" fill="#fff"/>
          <rect id="Rectángulo_54415" data-name="Rectángulo 54415" width="11.927" height="11.904" transform="translate(119.018 205.105)" fill="#fff"/>
          <rect id="Rectángulo_54416" data-name="Rectángulo 54416" width="11.927" height="11.904" transform="translate(95.155 205.105)" fill="#fff"/>
          <rect id="Rectángulo_54417" data-name="Rectángulo 54417" width="11.934" height="11.904" transform="translate(71.289 205.105)" fill="#fff"/>
          <rect id="Rectángulo_54418" data-name="Rectángulo 54418" width="11.929" height="11.904" transform="translate(47.432 205.105)" fill="#fff"/>
          <rect id="Rectángulo_54419" data-name="Rectángulo 54419" width="11.925" height="11.904" transform="translate(23.569 205.105)" fill="#fff"/>
          <rect id="Rectángulo_54420" data-name="Rectángulo 54420" width="11.929" height="11.904" transform="translate(-0.293 205.105)" fill="#fff"/>
          <g id="Grupo_175310" data-name="Grupo 175310" transform="translate(-16.737 -0.78)">
            <g id="Grupo_175309" data-name="Grupo 175309" transform="translate(0)">
              <g id="Grupo_175308" data-name="Grupo 175308">
                <g id="Rectángulo_54421" data-name="Rectángulo 54421" fill="#f6f6f6" stroke="#707070" stroke-width="1">
                  <rect width="233.42" height="216.557" stroke="none"/>
                  <rect x="0.5" y="0.5" width="232.42" height="215.557" fill="none"/>
                </g>
              </g>
            </g>
          </g>
        </g>
      </g>
    </g>
    <path id="Trazado_237790" data-name="Trazado 237790" d="M1011.609,244.285l64.573,20.889V251.4h96V237.171h-96V223.4Z" transform="translate(-769.737 3384.604)" fill="#12263f"/>
    <path id="Trazado_238532" data-name="Trazado 238532" d="M1076.183,265.174V251.4h147.392V237.171H1076.183v28Z" transform="translate(1478.628 3930.174) rotate(180)" fill="#12263f"/>
  </g>
</svg>
