<svg xmlns="http://www.w3.org/2000/svg" width="93" height="94" viewBox="0 0 93 94">
  <g id="Grupo_183604" data-name="Grupo 183604" transform="translate(-754.514 -1477.537)">
    <g id="Grupo_183603" data-name="Grupo 183603">
      <g id="Grupo_179497" data-name="Grupo 179497" transform="translate(754.789 1477.203)">
        <ellipse id="Elipse_4870" data-name="Elipse 4870" cx="46.5" cy="47" rx="46.5" ry="47" transform="translate(-0.275 0.334)" fill="#4adbd1"/>
      </g>
      <g id="sj1zhn.tif" transform="translate(777.595 1498.07)">
        <g id="Grupo_155560" data-name="Grupo 155560" transform="translate(0 -0.001)">
          <path id="Trazado_197563" data-name="Trazado 197563" d="M-941.767-.78q5.151,0,10.3.01c.246,0,.324-.078.318-.32-.014-.58,0-1.16,0-1.769h14.789V-.788h10.576c.012.141.028.251.028.361q0,7.681,0,15.363a1.044,1.044,0,0,1-1.445,1.11.873.873,0,0,1-.61-.7,3.362,3.362,0,0,1-.045-.59q0-6.494,0-12.989V1.33h-8.464V3.439H-910v.39q0,12.954,0,25.907c0,.905-.634,1.4-1.433,1.122a.9.9,0,0,1-.638-.8,4.316,4.316,0,0,1-.013-.523q0-11.732,0-23.463c0-.589.059-.531-.516-.531h-18.551V1.325h-8.487V45.732h25.421V45.3c0-2.432-.006-4.865,0-7.3a5.309,5.309,0,0,1,3.595-5.1q1.787-.643,3.577-1.281c.361-.129.728-.245,1.077-.4.105-.047.16-.207.237-.316.005-.008,0-.023,0-.034a1.568,1.568,0,0,0-.581-1.51,4.444,4.444,0,0,1-1.5-3.239,19.674,19.674,0,0,1,.086-3.618,5.106,5.106,0,0,1,5.341-4.245,5.206,5.206,0,0,1,5.093,5.308c0,.93.02,1.865-.065,2.788a4.807,4.807,0,0,1-1.769,3.3.674.674,0,0,0-.28.623c.027.323-.082.721.072.949.143.211.552.245.848.348q2.008.7,4.017,1.393a5.258,5.258,0,0,1,3.534,4.953q.007,4.4,0,8.8a.976.976,0,0,1-.879,1.1.985.985,0,0,1-1.2-1.083c0-2.386,0-4.772,0-7.158a16.525,16.525,0,0,0-.059-2.125,3.027,3.027,0,0,0-2.132-2.605q-2.93-1.017-5.879-1.981c-.314-.1-.451-.234-.426-.581.034-.471.008-.947.008-1.412h-2.139c0,.455-.02.94.007,1.422a.476.476,0,0,1-.386.568c-1.988.684-3.968,1.393-5.95,2.1a3.089,3.089,0,0,0-2.136,2.965q-.015,4.364.013,8.729a1.175,1.175,0,0,1-.895,1.235h-.419a4.9,4.9,0,0,0-.511-.052q-13.662,0-27.324,0c-.174,0-.348-.01-.523-.015Zm35.986,25.353h.034c0,.442-.018.885,0,1.326a3.12,3.12,0,0,0,3,2.937,3.092,3.092,0,0,0,3.311-2.7,19.128,19.128,0,0,0,.048-2.752,3.1,3.1,0,0,0-2.835-3.022,3.106,3.106,0,0,0-3.472,2.537A12.054,12.054,0,0,0-905.781,24.573Zm-23.27-21.149c.1.009.155.019.212.019q5.041,0,10.081.007c.279,0,.325-.112.321-.352-.015-1.2-.017-2.394-.026-3.591,0-.091-.017-.181-.027-.278h-10.562Z" transform="translate(941.767 2.86)" fill="#12263f"/>
          <path id="Trazado_197564" data-name="Trazado 197564" d="M-941.767,721.933c.174.005.348.015.523.015q13.662,0,27.324,0a4.874,4.874,0,0,1,.511.052q-14.022,0-28.044,0A1.512,1.512,0,0,1-941.767,721.933Z" transform="translate(941.767 -671.246)" fill="#12263f"/>
          <path id="Trazado_197565" data-name="Trazado 197565" d="M-880.521,87.651h4.141V89.71h-2.058v36h19.025v2.073h-21.109Z" transform="translate(884.804 -81.321)" fill="#12263f"/>
          <path id="Trazado_197566" data-name="Trazado 197566" d="M-775.422,184.191a6.374,6.374,0,0,1,7.093-6.277c.184.026.37.042.551.082a1.054,1.054,0,0,1,.832,1.224.936.936,0,0,1-1.076.855,5.939,5.939,0,0,0-2.077.061,4.207,4.207,0,0,0-3.168,4.166,4.25,4.25,0,0,0,3.544,4.082,4.277,4.277,0,0,0,4.811-3.252,1.086,1.086,0,0,1,.928-.911,1.029,1.029,0,0,1,1.138,1.313,7.8,7.8,0,0,1-.813,1.985,6.392,6.392,0,0,1-6.531,2.951,6.357,6.357,0,0,1-5.089-5.034C-775.362,185.028-775.376,184.606-775.422,184.191Z" transform="translate(787.055 -165.224)" fill="#12263f"/>
          <path id="Trazado_197567" data-name="Trazado 197567" d="M-775.3,396.576a6.366,6.366,0,0,1,5.82-6.273,9.182,9.182,0,0,1,1.8.075,1.011,1.011,0,0,1,.848,1.171,1,1,0,0,1-1.062.9,6.474,6.474,0,0,0-2.079.064,4.171,4.171,0,0,0-3.185,4.145,4.263,4.263,0,0,0,3.558,4.108,4.282,4.282,0,0,0,4.789-3.24,1.134,1.134,0,0,1,.59-.816.99.99,0,0,1,1.059.058.921.921,0,0,1,.452.988,7.782,7.782,0,0,1-.6,1.808,6.4,6.4,0,0,1-6.76,3.28,6.316,6.316,0,0,1-5.142-5.3C-775.256,397.226-775.271,396.9-775.3,396.576Z" transform="translate(786.943 -362.791)" fill="#12263f"/>
          <path id="Trazado_197568" data-name="Trazado 197568" d="M-720.829,188.613l5.614-5.643,1.438,1.441-6.953,6.971-2.77-2.793,1.377-1.387Z" transform="translate(738.765 -169.974)" fill="#12263f"/>
          <path id="Trazado_197569" data-name="Trazado 197569" d="M-715.3,394.431l1.421,1.42-7.009,7.032-2.737-2.765,1.418-1.422,1.284,1.387Z" transform="translate(738.882 -366.647)" fill="#12263f"/>
          <path id="Trazado_197570" data-name="Trazado 197570" d="M-485.084,605.838c0,1.047.007,2.094,0,3.141a1.02,1.02,0,0,1-1.406,1.01.943.943,0,0,1-.669-.925q-.013-3.228,0-6.456a.973.973,0,0,1,1.032-1,.97.97,0,0,1,1.041,1.017c.011,1.07,0,2.14,0,3.21Z" transform="translate(518.96 -559.338)" fill="#12263f"/>
          <path id="Trazado_197571" data-name="Trazado 197571" d="M-303.313,605.835c0,1.035,0,2.07,0,3.106a.992.992,0,0,1-1.234,1.081.944.944,0,0,1-.843-.99q-.012-3.21,0-6.421a.973.973,0,0,1,1.03-1,.969.969,0,0,1,1.044,1.015c.011,1.07,0,2.14,0,3.21Z" transform="translate(349.901 -559.338)" fill="#12263f"/>
        </g>
      </g>
    </g>
  </g>
</svg>
