<svg xmlns="http://www.w3.org/2000/svg" width="93" height="94" viewBox="0 0 93 94">
  <g id="Grupo_179495" data-name="Grupo 179495" transform="translate(0.275 -0.334)">
    <ellipse id="Elipse_4870" data-name="Elipse 4870" cx="46.5" cy="47" rx="46.5" ry="47" transform="translate(-0.275 0.334)" fill="#4adbd1"/>
    <g id="_5lj7Yp" data-name="5lj7Yp" transform="translate(20.623 19.723)">
      <g id="Grupo_155566" data-name="Grupo 155566" transform="translate(0 0.001)">
        <path id="Trazado_197620" data-name="Trazado 197620" d="M-1437.236-4285.965v12.849h8.509v-9.62c-.64,0-1.267.033-1.889-.008-.712-.047-1.274-.355-1.22-1.174.048-.735.544-.986,1.247-.985q11.679.011,23.357,0c.725,0,1.325.189,1.341,1.015.017.879-.617,1.133-1.376,1.151-.557.013-1.115,0-1.772,0v9.7c.918,0,1.823,0,2.728,0,.8,0,1.5.187,1.468,1.161-.029.921-.717,1.012-1.463,1.011q-16.013-.012-32.026-.005c-5.257,0-10.515.011-15.772-.021a2.1,2.1,0,0,1-1.383-.471c-.6-.624-.054-1.584.943-1.65s2-.014,3.085-.014v-12.859c-.1-.053-.169-.114-.24-.119-3.294-.228-4.008-.992-4.008-4.3q0-7.585,0-15.17a5.07,5.07,0,0,1,5.4-5.43c3.933-.021,7.866-.012,11.8-.007,3.452,0,5.52,2.043,5.555,5.529.031,3.049.007,6.1.007,9.149,0,1.887,0,3.773,0,5.659C-1432.959-4286.973-1433.591-4286.273-1437.236-4285.965Zm-2.214-2.28c0-1.63,0-3.149,0-4.667q0-3.492,0-6.984c0-.749.37-1.373,1.113-1.229.406.078.738.754,1.012,1.217.124.208.026.55.026.831q0,4.756.005,9.513c0,.425.04.849.06,1.252,1.943.211,2.1.079,2.1-1.685,0-5.137.012-10.275,0-15.413-.007-2.23-1.1-3.319-3.331-3.329-3.854-.016-7.707-.01-11.56-.006-2.426,0-3.519,1.093-3.521,3.51q-.006,7.647,0,15.293c0,1.7.364,1.968,2.176,1.538,0-3.709.007-7.437-.006-11.165,0-.787.1-1.566,1.044-1.585,1.023-.021,1.13.789,1.126,1.621-.014,3.331-.006,6.663-.006,9.995v1.292Zm13.073,5.579v9.556h15.011v-9.556Zm-13.147-3.283h-9.615v12.837h3.751v-1.363q0-4.393,0-8.786c0-.78-.046-1.642,1.087-1.605,1.086.035,1.076.886,1.078,1.666.007,2.407,0,4.813,0,7.221v2.847h3.7Z" transform="translate(1455.739 4323.909)" fill="#12263f"/>
        <path id="Trazado_197621" data-name="Trazado 197621" d="M-1342.211-4321.347c0-.779,0-1.41,0-2.04a1.139,1.139,0,0,1,1.276-1.262c2.406-.018,4.813-.023,7.219,0a1.123,1.123,0,0,1,1.237,1.283c-.016.6,0,1.2,0,2.014,1.324,0,2.589.05,3.85-.015,1.165-.059,1.567.458,1.559,1.564q-.043,6.078-.006,12.154c.007,1.04-.464,1.462-1.443,1.462q-8.844,0-17.688,0c-.974,0-1.45-.446-1.443-1.477q.038-6.136,0-12.273c0-1.026.448-1.451,1.46-1.422C-1344.919-4321.32-1343.646-4321.347-1342.211-4321.347Zm-3.21,12.934h16.055v-5.382c-.968.018-1.819-.293-2.418.758-.333.584-1.016.369-1.563-.092a2.487,2.487,0,0,0-1.333-.653c-1.8-.076-3.61-.073-5.412-.011a2.109,2.109,0,0,0-1.228.59c-.559.52-1.2.791-1.629.113-.674-1.062-1.545-.661-2.471-.679Zm16.113-10.675H-1345.4v3h2.07c.018-.934-.1-2,1.085-2.006,1.261-.007,1.054,1.154,1.15,2.043h6.968c.66-.876,1.049-1.917,1.578-1.993,1.374-.2,1,1.193,1.257,2h1.984Zm-5.532-2.271.33-.415c-.289-.239-.567-.667-.869-.684-1.31-.077-2.627-.061-3.939-.008-.253.01-.494.335-.741.515.231.2.457.557.694.565C-1337.857-4321.334-1336.348-4321.36-1334.839-4321.36Z" transform="translate(1373.685 4334.345)" fill="#12263f"/>
        <path id="Trazado_197622" data-name="Trazado 197622" d="M-1345.5-4239.237a34.336,34.336,0,0,0,3.609-.022,17.529,17.529,0,0,1,9.952,2.075c.444.225,1.071.773,1.032,1.1a1.944,1.944,0,0,1-1.048,1.223c-1.485.695-3.028,1.269-4.561,1.855a3.7,3.7,0,0,1-1.282.256q-7.764.024-15.529,0a3.3,3.3,0,0,1-3.156-1.827,2.759,2.759,0,0,1,.365-3.365,4.467,4.467,0,0,1,2.557-1.244C-1350.882-4239.338-1348.188-4239.235-1345.5-4239.237Zm10.369,3.545q0-.279.008-.557a14.1,14.1,0,0,0-3.148-.788c-4.931-.084-9.865-.038-14.8-.037-.2,0-.469-.072-.589.029-.361.3-.865.646-.927,1.034-.047.294.435.79.8,1a2.548,2.548,0,0,0,1.177.1c4.532.006,9.065.063,13.594-.028A22.5,22.5,0,0,0-1335.13-4235.692Z" transform="translate(1380.692 4269.578)" fill="#12263f"/>
        <path id="Trazado_197623" data-name="Trazado 197623" d="M-1340.484-4344.831h-1.58l-25.645,0c-.321,0-.723.105-.945-.046-.408-.279-.97-.708-.978-1.085-.007-.334.624-.72,1.027-1.007.161-.115.469-.027.709-.027q13.846,0,27.691,0c1.739,0,1.877.14,1.878,1.838q0,7.885,0,15.772c0,.321.11.732-.046.942-.277.373-.7.825-1.1.862-.3.027-.768-.479-.961-.853a2.811,2.811,0,0,1-.054-1.186C-1340.485-4334.632-1340.484-4339.644-1340.484-4344.831Z" transform="translate(1390.371 4351.325)" fill="#12263f"/>
        <path id="Trazado_197624" data-name="Trazado 197624" d="M-1427.219-4364.859a5.907,5.907,0,0,1,6.024,5.855,5.906,5.906,0,0,1-5.891,5.994,5.9,5.9,0,0,1-6.02-5.86A5.881,5.881,0,0,1-1427.219-4364.859Zm.111,2.165a3.722,3.722,0,0,0-3.819,3.778,3.711,3.711,0,0,0,3.738,3.737,3.765,3.765,0,0,0,3.835-3.66A3.745,3.745,0,0,0-1427.108-4362.695Z" transform="translate(1438.557 4364.859)" fill="#12263f"/>
        <path id="Trazado_197625" data-name="Trazado 197625" d="M-1413.335-4295.487c-.778.064-1.544-.026-1.577-1-.035-1.027.742-1.171,1.575-1.161s1.614.138,1.584,1.169C-1411.78-4295.486-1412.577-4295.454-1413.335-4295.487Z" transform="translate(1424.746 4313.834)" fill="#12263f"/>
        <path id="Trazado_197626" data-name="Trazado 197626" d="M-1413.183-4283.926c.71-.036,1.47.1,1.437,1.069-.033,1-.835,1.118-1.653,1.106-.786-.012-1.506-.167-1.5-1.127C-1414.9-4283.989-1414.029-4283.921-1413.183-4283.926Z" transform="translate(1424.738 4303.423)" fill="#12263f"/>
      </g>
    </g>
  </g>
</svg>
