<svg xmlns="http://www.w3.org/2000/svg" width="93" height="94" viewBox="0 0 93 94">
  <g id="Grupo_179494" data-name="Grupo 179494" transform="translate(0.275 -0.334)">
    <ellipse id="Elipse_4870" data-name="Elipse 4870" cx="46.5" cy="47" rx="46.5" ry="47" transform="translate(-0.275 0.334)" fill="#4adbd1"/>
    <g id="SnLQDX.tif" transform="translate(15.724 20.344)">
      <g id="Grupo_155565" data-name="Grupo 155565" transform="translate(0 -0.001)">
        <path id="Trazado_197608" data-name="Trazado 197608" d="M-1559.808-3901.849h-19.738c-.422-.259-.766-.563-.612-1.129.164-.6.634-.674,1.156-.655.156.005.313,0,.47,0h17.965v-9.212h-26.184v9.214c1.11,0,2.182-.01,3.253,0,.591.008,1.052.391.941.871-.077.333-.411.606-.631.907h-4.347a1.919,1.919,0,0,1-1.057-2.012c.056-1.009.013-2.024.013-3.106h-.686c-1.662,0-3.324.008-4.986,0a5.662,5.662,0,0,1-1.279-.115,3.571,3.571,0,0,1-2.737-3.566c-.018-.7,0-1.392,0-2.12-.638,0-1.184-.011-1.73,0a1.007,1.007,0,0,1-1.048-.479.986.986,0,0,1,.2-1.132c.769-1.06,1.544-2.115,2.285-3.193a1.73,1.73,0,0,0,.276-.854c.038-.741,0-1.485.019-2.227.01-.368-.085-.514-.486-.618a6.188,6.188,0,0,1-4.754-4.808,2.335,2.335,0,0,0-.124-.312v-1.878a2.45,2.45,0,0,0,.117-.323,6,6,0,0,1,2.934-4.122,20.081,20.081,0,0,1,2.307-.982v-.62q0-5.547,0-11.094a3.611,3.611,0,0,1,3.9-3.927c1.7-.011,3.406,0,5.109,0h.683c0-1.125,0-2.178,0-3.231,0-1.367.507-1.877,1.867-1.877h26.016c1.464,0,1.939.469,1.939,1.914,0,1.049,0,2.1,0,3.164h2.868c1.167-3.387,3.773-5.288,6.705-4.915a6.32,6.32,0,0,1,5.692,5.632,6.354,6.354,0,0,1-5.3,6.833v10.617c.594,0,1.141.01,1.688,0a1,1,0,0,1,1.048.481.989.989,0,0,1-.208,1.133c-.757,1.045-1.525,2.084-2.25,3.151a1.833,1.833,0,0,0-.312.959c-.022,3.4-.014,6.809-.014,10.213v.593c.233.059.421.108.609.154a6.3,6.3,0,0,1,4.732,6.787,6.282,6.282,0,0,1-6.144,5.533,6.274,6.274,0,0,1-6.037-4.283c-.061-.176-.217-.448-.338-.454-.894-.038-1.791-.021-2.735-.021,0,1.08-.046,2.1.013,3.107A1.868,1.868,0,0,1-1559.808-3901.849Zm1.051-45.664c0,1.452.005,2.858,0,4.264a1.447,1.447,0,0,1-1.56,1.582c-.881.009-1.762,0-2.643,0-.719,0-1.147-.337-1.149-.889s.408-.874,1.147-.878c.8,0,1.591,0,2.392,0v-9.2h-26.176v9.2h18.887c.2,0,.392,0,.587.008a.834.834,0,0,1,.829.827.868.868,0,0,1-.8.919c-.428.035-.861.013-1.292.013h-4.168v5.437h12.087c1.363,0,1.862.507,1.862,1.882q0,6.311,0,12.622c0,1.512-.443,1.956-1.955,1.957q-5.667,0-11.335,0c-.225,0-.449.019-.676.03v5.093h.664q5.814,0,11.628,0a1.473,1.473,0,0,1,1.673,1.647c0,.763,0,1.527,0,2.289v1.9h2.745a6.412,6.412,0,0,1,5.347-5.871,1.86,1.86,0,0,0,.03-.237c0-3.6.006-7.2-.008-10.8a1.193,1.193,0,0,0-.229-.631c-.785-1.121-1.616-2.212-2.37-3.353a1.2,1.2,0,0,1-.117-1.013,1.287,1.287,0,0,1,.9-.47,14.6,14.6,0,0,1,1.8-.021v-10.625a6.4,6.4,0,0,1-5.338-5.683Zm-29.822,38.74c0-1.431,0-2.78,0-4.128,0-1.207.545-1.741,1.765-1.742h12.195v-5.123h-.75q-5.7,0-11.4,0c-1.307,0-1.814-.515-1.814-1.814q0-6.371,0-12.741c0-1.4.509-1.9,1.911-1.9h12.075v-5.437h-.715q-5.815,0-11.63,0a1.479,1.479,0,0,1-1.64-1.631c-.005-.411,0-.822,0-1.233v-3.016c-1.992,0-3.907,0-5.822,0a1.838,1.838,0,0,0-2.078,2.094q0,5.636,0,11.273v.585c.4.108.763.179,1.109.3a6.171,6.171,0,0,1,3.877,3.817.884.884,0,0,1-.472,1.171.9.9,0,0,1-1.168-.5c-.086-.175-.148-.361-.234-.536a4.471,4.471,0,0,0-5.569-2.219,4.488,4.488,0,0,0-2.779,5.312,4.5,4.5,0,0,0,3.892,3.335,4.477,4.477,0,0,0,4.365-2.289c.387-.664.814-.855,1.314-.589.522.278.613.8.236,1.464a6.062,6.062,0,0,1-4.1,3.058c-.42.094-.483.264-.474.622.019.762-.014,1.527.017,2.289a1.479,1.479,0,0,0,.243.746c.78,1.124,1.616,2.212,2.369,3.354a1.208,1.208,0,0,1,.09,1.015,1.2,1.2,0,0,1-.855.449,16.19,16.19,0,0,1-1.841.02c0,.878-.045,1.7.013,2.51a1.682,1.682,0,0,0,1.529,1.477C-1592.831-3908.749-1590.74-3908.773-1588.578-3908.773Zm1.825-25.613v12.78h26.193v-12.78Zm32.563-13.669a4.472,4.472,0,0,0,4.457,4.487,4.529,4.529,0,0,0,4.494-4.476,4.487,4.487,0,0,0-4.484-4.468A4.428,4.428,0,0,0-1554.19-3948.054Zm0,39.572a4.487,4.487,0,0,0,4.43,4.519,4.537,4.537,0,0,0,4.519-4.454,4.482,4.482,0,0,0-4.454-4.491A4.422,4.422,0,0,0-1554.19-3908.482Zm4.46-19.357,1.136-1.575h-2.269Zm-48.777,13.266h2.253l-1.125-1.566Z" transform="translate(1603.63 3954.45)" fill="#12263f"/>
        <path id="Trazado_197609" data-name="Trazado 197609" d="M-1435.644-3586.831c0,.646.007,1.292,0,1.938a1.256,1.256,0,0,1-1.325,1.391q-2.055.042-4.111,0a1.209,1.209,0,0,1-1.29-1.3q-.039-2.083,0-4.168a1.22,1.22,0,0,1,1.315-1.274q2.026-.027,4.053,0a1.264,1.264,0,0,1,1.355,1.362C-1435.636-3588.2-1435.645-3587.516-1435.644-3586.831Zm-4.909-1.6v3.085h3.1v-3.085Z" transform="translate(1461.367 3633.118)" fill="#12263f"/>
        <path id="Trazado_197610" data-name="Trazado 197610" d="M-1363.524-3581.268h-5.4a3.576,3.576,0,0,1-.469-.009.862.862,0,0,1-.862-.865.879.879,0,0,1,.864-.925,3.8,3.8,0,0,1,.469-.011h10.806c.1,0,.2,0,.293,0,.652.032,1.077.409,1.056.937a.941.941,0,0,1-1.058.868C-1359.726-3581.262-1361.625-3581.268-1363.524-3581.268Z" transform="translate(1397.723 3626.784)" fill="#12263f"/>
        <path id="Trazado_197611" data-name="Trazado 197611" d="M-1363.583-3555.53c-1.859,0-3.719,0-5.578,0-.746,0-1.128-.312-1.121-.889s.409-.882,1.143-.883q5.608,0,11.215,0c.9,0,1.443.712.977,1.333a1.345,1.345,0,0,1-.941.421C-1359.785-3555.51-1361.684-3555.53-1363.583-3555.53Z" transform="translate(1397.743 3604.043)" fill="#12263f"/>
        <path id="Trazado_197612" data-name="Trazado 197612" d="M-1429.358-3922.562h9.393a4.291,4.291,0,0,1,.469.007.873.873,0,0,1,.82.9.829.829,0,0,1-.808.845c-.195.017-.391.012-.587.012h-18.668c-.078,0-.157,0-.235,0-.79-.007-1.18-.31-1.166-.9.014-.568.4-.863,1.155-.864Q-1434.172-3922.564-1429.358-3922.562Z" transform="translate(1459.38 3926.317)" fill="#12263f"/>
        <path id="Trazado_197613" data-name="Trazado 197613" d="M-1395.268-3892.777q-2.61,0-5.219,0a.818.818,0,0,1-.907-.584,1.149,1.149,0,0,1,.16-.853,1.066,1.066,0,0,1,.759-.33c3.479-.021,6.959-.018,10.438-.011a.89.89,0,0,1,1,.9c0,.54-.362.872-1.017.875C-1391.789-3892.77-1393.529-3892.777-1395.268-3892.777Z" transform="translate(1425.215 3901.608)" fill="#12263f"/>
        <path id="Trazado_197614" data-name="Trazado 197614" d="M-1573.536-3750.856a3.545,3.545,0,0,1-3.536,3.548,3.557,3.557,0,0,1-3.543-3.544,3.549,3.549,0,0,1,3.541-3.545A3.534,3.534,0,0,1-1573.536-3750.856Zm-3.55-1.745a1.765,1.765,0,0,0-1.759,1.745,1.819,1.819,0,0,0,1.757,1.77,1.772,1.772,0,0,0,1.767-1.8A1.725,1.725,0,0,0-1577.086-3752.6Z" transform="translate(1583.323 3777.94)" fill="#12263f"/>
        <path id="Trazado_197615" data-name="Trazado 197615" d="M-1429.4-3765.219h9.334c.2,0,.392,0,.586.015a.831.831,0,0,1,.825.83.892.892,0,0,1-.8.928,2.412,2.412,0,0,1-.352.009q-9.569,0-19.138,0a1.8,1.8,0,0,1-.629-.09.8.8,0,0,1-.528-.937.782.782,0,0,1,.725-.725,4.8,4.8,0,0,1,.644-.026Q-1434.065-3765.22-1429.4-3765.219Z" transform="translate(1459.356 3787.488)" fill="#12263f"/>
        <path id="Trazado_197616" data-name="Trazado 197616" d="M-1429.383-3735.336h-9.451a2.455,2.455,0,0,1-.527-.015.833.833,0,0,1-.731-.914.8.8,0,0,1,.757-.821,4.549,4.549,0,0,1,.586-.017h18.786c.911,0,1.324.269,1.335.865.011.611-.429.9-1.362.9Z" transform="translate(1459.339 3762.683)" fill="#12263f"/>
        <path id="Trazado_197617" data-name="Trazado 197617" d="M-1397.641-3707.277q-2.7,0-5.394,0c-.739,0-1.117-.312-1.1-.9.013-.558.386-.856,1.092-.856q5.394,0,10.789,0c.721,0,1.128.337,1.112.9-.016.547-.4.851-1.1.852Q-1394.944-3707.274-1397.641-3707.277Z" transform="translate(1427.616 3737.916)" fill="#12263f"/>
        <path id="Trazado_197618" data-name="Trazado 197618" d="M-1175.653-3926.645a3.552,3.552,0,0,1,3.45-3.639,3.581,3.581,0,0,1,3.626,3.41,3.573,3.573,0,0,1-3.456,3.7A3.556,3.556,0,0,1-1175.653-3926.645Zm1.784-.092a1.752,1.752,0,0,0,1.73,1.763,1.79,1.79,0,0,0,1.794-1.779,1.761,1.761,0,0,0-1.78-1.722A1.727,1.727,0,0,0-1173.869-3926.737Z" transform="translate(1226.019 3933.13)" fill="#12263f"/>
        <path id="Trazado_197619" data-name="Trazado 197619" d="M-1175.661-3590.066a3.52,3.52,0,0,1,3.53-3.542,3.534,3.534,0,0,1,3.55,3.528,3.547,3.547,0,0,1-3.535,3.547A3.534,3.534,0,0,1-1175.661-3590.066Zm3.561-1.757a1.73,1.73,0,0,0-1.776,1.709,1.777,1.777,0,0,0,1.755,1.812,1.827,1.827,0,0,0,1.768-1.761A1.776,1.776,0,0,0-1172.1-3591.823Z" transform="translate(1226.026 3636.073)" fill="#12263f"/>
      </g>
    </g>
  </g>
</svg>
