<svg xmlns="http://www.w3.org/2000/svg" xmlns:xlink="http://www.w3.org/1999/xlink" width="94.1" height="94.101" viewBox="0 0 94.1 94.101">
  <defs>
    <filter id="Base" x="0" y="0" width="94.1" height="94.101" filterUnits="userSpaceOnUse">
      <feOffset dy="3" input="SourceAlpha"/>
      <feGaussianBlur stdDeviation="3" result="blur"/>
      <feFlood flood-opacity="0.161"/>
      <feComposite operator="in" in2="blur"/>
      <feComposite in="SourceGraphic"/>
    </filter>
    <clipPath id="clip-path">
      <rect id="Rectángulo_52815" data-name="Rectángulo 52815" width="38.372" height="46.049" fill="#12263f"/>
    </clipPath>
  </defs>
  <g id="Grupo_183703" data-name="Grupo 183703" transform="translate(-152.416 6078.493)">
    <g id="Icon" transform="translate(161.416 -6072.493)">
      <g transform="matrix(1, 0, 0, 1, -9, -6)" filter="url(#Base)">
        <path id="Base-2" data-name="Base" d="M38.05,0A38.05,38.05,0,1,1,0,38.05,38.05,38.05,0,0,1,38.05,0Z" transform="translate(9 6)" fill="#fff"/>
      </g>
      <g id="Grupo_180439" data-name="Grupo 180439" transform="translate(20.902 12.575)">
        <g id="Grupo_173668" data-name="Grupo 173668" clip-path="url(#clip-path)">
          <path id="Trazado_214794" data-name="Trazado 214794" d="M0,57.451V36.537A2.568,2.568,0,0,1,2.829,34.7c2.556.058,5.114.017,7.671.017h.512a9.13,9.13,0,0,1,3.5-9.734,8.694,8.694,0,0,1,9.709-.693c4.088,2.241,5.513,5.846,4.668,10.409h2.142c-.584-1.927-.292-3.15.951-4.029a3.055,3.055,0,0,1,3.622.056,3.015,3.015,0,0,1,1.085,1.542,3.066,3.066,0,0,1-.261,2.4,2.569,2.569,0,0,1,1.94,2.876c-.033,6.427-.014,12.854-.015,19.282a2.28,2.28,0,0,1-2.452,2.45q-4.267,0-8.534,0h-.606c.373.56.694,1.047,1.02,1.532.338.5.576,1.2,1.05,1.453s1.181.077,1.785.088h.048a2.275,2.275,0,0,1,2.319,2.343c0,.368,0,.735,0,1.1,0,.968-.183,1.155-1.132,1.155H6.492c-.112,0-.224,0-.336,0a.738.738,0,0,1-.781-.782c-.013-.511-.007-1.023,0-1.535a2.2,2.2,0,0,1,1.673-2.183,4.6,4.6,0,0,1,1.566-.084,1.335,1.335,0,0,0,1.477-.8c.433-.77.97-1.482,1.508-2.288H10.98q-4.267,0-8.534,0a3.061,3.061,0,0,1-.71-.07A2.429,2.429,0,0,1,0,57.451M1.588,56.2c-.186,1.049.037,1.554,1.232,1.552q16.466-.034,32.932-.014c.808,0,1.073-.258,1.073-1.051q0-9.687,0-19.374c0-.806-.259-1.066-1.057-1.067-2.3,0-4.6.009-6.9-.01a.753.753,0,0,0-.8.471,9.189,9.189,0,0,1-16.3-.122c-.109-.205-.2-.35-.489-.349-2.94.014-5.88.006-8.82.011a.808.808,0,0,0-.915.917c-.009.831,0,1.662,0,2.494,0,.392,0,.784,0,1.2,1.366,0,2.659,0,3.953,0a.768.768,0,0,1,.878.839c.012.219,0,.438,0,.694.668,0,1.273,0,1.878,0a11.088,11.088,0,0,1,1.626.04c2.235.354,4.461.77,6.7,1.119A3.285,3.285,0,0,1,19.5,45.729a8.9,8.9,0,0,1,.209.871c.329.037.649.056.962.112a1.659,1.659,0,0,0,1.538-.542c1.326-1.272,2.7-2.494,4.055-3.735a3,3,0,0,1,2.8-.746,2.893,2.893,0,0,1,2.273,2.163A2.962,2.962,0,0,1,30.455,47q-3.374,3.13-6.777,6.228a5.449,5.449,0,0,1-3.843,1.446c-4.314-.016-8.629-.006-12.943-.006H6.328c0,.173,0,.269,0,.364-.008,1-.175,1.171-1.164,1.171H1.588M12.274,32.4a7.671,7.671,0,1,0,7.611-7.663A7.707,7.707,0,0,0,12.274,32.4M6.35,53.136h.506c4.283,0,8.567-.008,12.85.005a4.359,4.359,0,0,0,3.161-1.247c1.041-.992,2.116-1.95,3.175-2.923,1.106-1.017,2.218-2.028,3.316-3.054a1.56,1.56,0,0,0,.433-1.793,1.386,1.386,0,0,0-1.285-.922,1.6,1.6,0,0,0-1.249.5c-1.419,1.314-2.849,2.617-4.268,3.931a2.374,2.374,0,0,1-1.865.705c-.477-.038-.957-.055-1.432-.111a.606.606,0,0,0-.625.305,2.875,2.875,0,0,1-2.875,1.248c-1.765-.269-3.522-.591-5.28-.9a.8.8,0,0,1-.74-.978.816.816,0,0,1,1.046-.577q2.518.453,5.038.9A1.529,1.529,0,0,0,18.072,47a1.492,1.492,0,0,0-1.253-1.742c-1.992-.363-4-.66-5.978-1.072a21.819,21.819,0,0,0-4.49-.253Zm5.087,9.182H26.92c-.668-1-1.3-1.959-1.943-2.9a.5.5,0,0,0-.366-.139q-5.436-.011-10.872,0a.459.459,0,0,0-.334.11c-.655.954-1.293,1.919-1.969,2.931M4.763,42.426H1.558V54.648H4.763ZM6.907,65.382H31.431c.1-1.292-.1-1.505-1.344-1.505H8.127a3.841,3.841,0,0,0-.479.008.772.772,0,0,0-.737.748c-.023.236,0,.477,0,.749m28.38-32.228a1.532,1.532,0,1,0-1.508,1.557,1.571,1.571,0,0,0,1.508-1.557" transform="translate(0 -20.899)" fill="#12263f"/>
          <path id="Trazado_214795" data-name="Trazado 214795" d="M344.145,0a1.112,1.112,0,0,1,.486,1.058c-.02,1.914-.012,3.829-.005,5.744,0,.372-.108.705-.472.792a1.078,1.078,0,0,1-.784-.129A.912.912,0,0,1,343.1,6.8c-.02-1.978,0-3.957-.019-5.935A1.039,1.039,0,0,1,343.57,0Z" transform="translate(-310.102)" fill="#12263f"/>
          <path id="Trazado_214796" data-name="Trazado 214796" d="M296.248,0a1.1,1.1,0,0,1,.486,1.057c-.025,1.131-.006,2.264-.009,3.4,0,.6-.293.931-.789.917-.476-.013-.739-.334-.74-.917,0-1.132.016-2.264-.009-3.4A1.1,1.1,0,0,1,295.673,0Z" transform="translate(-266.808)" fill="#12263f"/>
          <path id="Trazado_214797" data-name="Trazado 214797" d="M112.7,0a1.093,1.093,0,0,1,.486,1.057c-.028.891,0,1.785-.01,2.677,0,.557-.306.882-.788.868-.459-.013-.736-.331-.739-.869,0-.892.018-1.786-.01-2.677A1.088,1.088,0,0,1,112.129,0Z" transform="translate(-100.909)" fill="#12263f"/>
          <path id="Trazado_214798" data-name="Trazado 214798" d="M56.736,0a1.056,1.056,0,0,1,.484,1.055c-.03.412,0,.827-.01,1.241a.762.762,0,1,1-1.524,0A8.861,8.861,0,0,1,55.7.771C55.746.5,56,.256,56.161,0Z" transform="translate(-50.311)" fill="#12263f"/>
          <path id="Trazado_214799" data-name="Trazado 214799" d="M38.074,51.007a3.067,3.067,0,1,1-3.046-3.089,3.047,3.047,0,0,1,3.046,3.089m-1.535-.023a1.532,1.532,0,1,0-1.53,1.534,1.568,1.568,0,0,0,1.53-1.534" transform="translate(-28.87 -43.312)" fill="#12263f"/>
          <path id="Trazado_231950" data-name="Trazado 231950" d="M44.863,68.7l1.65,1.975L51.1,65.837l2.047,1.984-6.488,6.486-3.669-3.685L44.863,68.7" transform="translate(-28.157 -58.812)" fill="#12263f"/>
        </g>
      </g>
    </g>
  </g>
</svg>
