<svg xmlns="http://www.w3.org/2000/svg" xmlns:xlink="http://www.w3.org/1999/xlink" width="644.395" height="217.521" viewBox="0 0 644.395 217.521">
  <defs>
    <clipPath id="clip-path">
      <rect id="Rectángulo_52809" data-name="Rectángulo 52809" width="61.284" height="61.299" fill="#12263f"/>
    </clipPath>
    <linearGradient id="linear-gradient" x1="0.5" x2="0.5" y2="1" gradientUnits="objectBoundingBox">
      <stop offset="0" stop-color="#5573c6"/>
      <stop offset="1" stop-color="#2c4a9b"/>
    </linearGradient>
    <linearGradient id="linear-gradient-2" x1="0.5" x2="0.5" y2="1" gradientUnits="objectBoundingBox">
      <stop offset="0" stop-color="#f5f5f5"/>
      <stop offset="0.25" stop-color="#f5f5f5"/>
      <stop offset="1" stop-color="#a7b3cf"/>
    </linearGradient>
  </defs>
  <g id="Grupo_183705" data-name="Grupo 183705" transform="translate(100.72 5377.757)">
    <path id="Trazado_238570" data-name="Trazado 238570" d="M0,0H394.853" transform="translate(70.97 -5284.282)" fill="none" stroke="#000" stroke-linecap="round" stroke-width="1" stroke-dasharray="0 4"/>
    <path id="Trazado_238571" data-name="Trazado 238571" d="M0,0H33.649V2.183H0Z" transform="translate(206.728 -5189.111) rotate(-90)" fill="#d2d2d2"/>
    <path id="Trazado_195627" data-name="Trazado 195627" d="M187.352-249.311a74.28,74.28,0,0,1-74.234,71.923,74.279,74.279,0,0,1-74.233-71.923H36.76a76.4,76.4,0,0,0,76.358,74.048,76.405,76.405,0,0,0,76.359-74.048Z" transform="translate(-101.562 -5045.519)" fill="#d2d2d2"/>
    <path id="Trazado_195628" data-name="Trazado 195628" d="M323.589-249.311a74.279,74.279,0,0,1-74.233,71.923,74.279,74.279,0,0,1-74.233-71.923H173a76.4,76.4,0,0,0,76.358,74.048,76.4,76.4,0,0,0,76.358-74.048Z" transform="translate(-41.108 -5045.519)" fill="#d2d2d2"/>
    <path id="Trazado_195629" data-name="Trazado 195629" d="M459.827-249.311a74.279,74.279,0,0,1-74.233,71.923,74.28,74.28,0,0,1-74.234-71.923h-2.125a76.4,76.4,0,0,0,76.359,74.048,76.4,76.4,0,0,0,76.358-74.048Z" transform="translate(19.346 -5045.519)" fill="#d2d2d2"/>
    <path id="Trazado_195632" data-name="Trazado 195632" d="M143.19-241.9a21.986,21.986,0,0,1,21.987-21.987A21.987,21.987,0,0,1,187.165-241.9h2.117a24.1,24.1,0,0,0-24.1-24.1,24.1,24.1,0,0,0-24.1,24.1Z" transform="translate(-55.275 -5052.927)" fill="#d2d2d2"/>
    <path id="Trazado_195633" data-name="Trazado 195633" d="M279.427-241.9a21.987,21.987,0,0,1,21.988-21.987A21.986,21.986,0,0,1,323.4-241.9h2.118a24.1,24.1,0,0,0-24.1-24.1,24.1,24.1,0,0,0-24.1,24.1Z" transform="translate(5.18 -5052.927)" fill="#d2d2d2"/>
    <path id="Trazado_238572" data-name="Trazado 238572" d="M2.536,0A2.536,2.536,0,1,1,0,2.536,2.536,2.536,0,0,1,2.536,0Z" transform="translate(477.483 -5296.302)" fill="#d2d2d2"/>
    <path id="Trazado_238573" data-name="Trazado 238573" d="M0,0H33.649V2.183H0Z" transform="translate(10.443 -5189.111) rotate(-90)" fill="#d2d2d2"/>
    <path id="Trazado_238574" data-name="Trazado 238574" d="M0,0H33.649V2.183H0Z" transform="translate(403.848 -5189.111) rotate(-90)" fill="#d2d2d2"/>
    <path id="Trazado_238575" data-name="Trazado 238575" d="M2.536,0A2.536,2.536,0,1,1,0,2.536,2.536,2.536,0,0,1,2.536,0Z" transform="translate(-66.293 -5297.365)" fill="#d2d2d2"/>
    <path id="Trazado_238576" data-name="Trazado 238576" d="M67.2,0A67.2,67.2,0,1,1,0,67.2,67.2,67.2,0,0,1,67.2,0Z" transform="matrix(0.162, -0.987, 0.987, 0.162, -65.638, -5241.772)" fill="#f6f6f4"/>
    <path id="Trazado_238577" data-name="Trazado 238577" d="M56.028,0A56.028,56.028,0,1,1,0,56.028,56.028,56.028,0,0,1,56.028,0Z" transform="translate(-67.679 -5297.2) rotate(-45)" fill="#e5e5e5"/>
    <g id="Grupo_155275" data-name="Grupo 155275" transform="translate(-16.616 -5325.553)">
      <g id="Grupo_155274" data-name="Grupo 155274">
        <path id="Trazado_195645" data-name="Trazado 195645" d="M110.906-265.236l-6.6,3.3-1.476-2.951,6.6-3.3Z" transform="translate(-55.627 271.659)" fill="#12263f"/>
        <path id="Trazado_195646" data-name="Trazado 195646" d="M109.431-245.941l-6.6-3.3,1.476-2.951,6.6,3.3Z" transform="translate(-55.627 278.757)" fill="#12263f"/>
        <path id="Trazado_195647" data-name="Trazado 195647" d="M104.486-259.167h6.708v3.3h-6.708Z" transform="translate(-54.894 275.662)" fill="#12263f"/>
        <path id="Trazado_195648" data-name="Trazado 195648" d="M72.32-268.186l6.6,3.3-1.475,2.95-6.6-3.3Z" transform="translate(-69.822 271.66)" fill="#12263f"/>
        <path id="Trazado_195649" data-name="Trazado 195649" d="M72.319-245.942l-1.476-2.951,6.6-3.3,1.475,2.951Z" transform="translate(-69.822 278.757)" fill="#12263f"/>
        <path id="Trazado_195650" data-name="Trazado 195650" d="M70.136-259.167h6.708v3.3H70.136Z" transform="translate(-70.136 275.662)" fill="#12263f"/>
        <path id="Trazado_195651" data-name="Trazado 195651" d="M86.206-233.881h9.9v3.3h-9.9Z" transform="translate(-63.005 286.882)" fill="#12263f"/>
        <path id="Trazado_195652" data-name="Trazado 195652" d="M113.354-252.449A18.165,18.165,0,0,0,95.21-270.592a18.164,18.164,0,0,0-18.143,18.143,18.149,18.149,0,0,0,9.9,16.138v5.3h-3.3v3.3h3.3v6.817h16.493v-6.817h3.3v-3.3h-3.3v-5.3A18.152,18.152,0,0,0,113.354-252.449Zm-13.2,28.26h-9.9v-3.518h9.9Zm-6.6-24.961a1.651,1.651,0,0,1,1.65-1.649,1.65,1.65,0,0,1,1.649,1.649,1.651,1.651,0,0,1-1.649,1.65A1.653,1.653,0,0,1,93.56-249.15Zm3.3,18.143v-13.479a4.957,4.957,0,0,0,3.3-4.665A4.953,4.953,0,0,0,95.21-254.1a4.954,4.954,0,0,0-4.949,4.948,4.959,4.959,0,0,0,3.3,4.665v13.479h-3.3v-7.424l-.986-.433a14.857,14.857,0,0,1-8.909-13.586A14.861,14.861,0,0,1,95.21-267.293a14.862,14.862,0,0,1,14.845,14.845,14.86,14.86,0,0,1-8.909,13.586l-.988.433v7.424Z" transform="translate(-67.06 270.592)" fill="#12263f"/>
      </g>
    </g>
    <path id="Trazado_238578" data-name="Trazado 238578" d="M11.591-6.467A7.923,7.923,0,0,1,10.248-1.5,4.687,4.687,0,0,1,6.316.215a4.72,4.72,0,0,1-3.91-1.687A7.691,7.691,0,0,1,1.021-6.306V-9.185a7.819,7.819,0,0,1,1.359-4.974,4.722,4.722,0,0,1,3.916-1.7,4.726,4.726,0,0,1,3.91,1.681,7.668,7.668,0,0,1,1.386,4.829Zm-3.1-3.165a5.727,5.727,0,0,0-.532-2.833,1.8,1.8,0,0,0-1.66-.887,1.765,1.765,0,0,0-1.617.844,5.36,5.36,0,0,0-.553,2.64v3.806a6.012,6.012,0,0,0,.521,2.844,1.773,1.773,0,0,0,1.67.93A1.743,1.743,0,0,0,7.96-3.181a5.868,5.868,0,0,0,.526-2.731ZM21.227,0h-3.1V-11.983l-3.706,1.144v-2.5l6.478-2.32h.333ZM26.6-1.525a1.563,1.563,0,0,1,.5-1.2,1.772,1.772,0,0,1,1.251-.462,1.787,1.787,0,0,1,1.262.462,1.563,1.563,0,0,1,.5,1.2,1.542,1.542,0,0,1-.494,1.187,1.794,1.794,0,0,1-1.268.457,1.78,1.78,0,0,1-1.257-.457A1.542,1.542,0,0,1,26.6-1.525Z" transform="translate(-43.888 -5343.474)" fill="#00334e"/>
    <g id="Grupo_155277" data-name="Grupo 155277" transform="translate(131.022 -5374.426)">
      <circle id="Elipse_5986" data-name="Elipse 5986" cx="67.198" cy="67.198" r="67.198" transform="matrix(0.163, -0.987, 0.987, 0.163, 0, 132.609)" fill="#f6f6f4"/>
      <circle id="Elipse_5987" data-name="Elipse 5987" cx="56.028" cy="56.028" r="56.028" transform="translate(9.659 118.614) rotate(-76.489)" fill="#e5e5e5"/>
    </g>
    <path id="Trazado_238579" data-name="Trazado 238579" d="M11.591-6.467A7.923,7.923,0,0,1,10.248-1.5,4.687,4.687,0,0,1,6.316.215a4.72,4.72,0,0,1-3.91-1.687A7.691,7.691,0,0,1,1.021-6.306V-9.185a7.819,7.819,0,0,1,1.359-4.974,4.722,4.722,0,0,1,3.916-1.7,4.726,4.726,0,0,1,3.91,1.681,7.668,7.668,0,0,1,1.386,4.829Zm-3.1-3.165a5.727,5.727,0,0,0-.532-2.833,1.8,1.8,0,0,0-1.66-.887,1.765,1.765,0,0,0-1.617.844,5.36,5.36,0,0,0-.553,2.64v3.806a6.012,6.012,0,0,0,.521,2.844,1.773,1.773,0,0,0,1.67.93A1.743,1.743,0,0,0,7.96-3.181a5.868,5.868,0,0,0,.526-2.731ZM24.406,0H13.686V-2.127l5.06-5.393a12.482,12.482,0,0,0,1.542-1.987,3.193,3.193,0,0,0,.5-1.611,2.389,2.389,0,0,0-.526-1.638,1.9,1.9,0,0,0-1.5-.6,2.049,2.049,0,0,0-1.66.725,2.872,2.872,0,0,0-.607,1.907H13.374a5.128,5.128,0,0,1,.682-2.61,4.808,4.808,0,0,1,1.928-1.853,5.861,5.861,0,0,1,2.825-.671,5.549,5.549,0,0,1,3.754,1.16A4.1,4.1,0,0,1,23.9-11.419a5.259,5.259,0,0,1-.6,2.363,13.133,13.133,0,0,1-2.062,2.8L17.682-2.5h6.725ZM26.6-1.525a1.563,1.563,0,0,1,.5-1.2,1.772,1.772,0,0,1,1.251-.462,1.787,1.787,0,0,1,1.262.462,1.563,1.563,0,0,1,.5,1.2,1.542,1.542,0,0,1-.494,1.187,1.794,1.794,0,0,1-1.268.457,1.78,1.78,0,0,1-1.257-.457A1.542,1.542,0,0,1,26.6-1.525Z" transform="translate(147.342 -5343.474)" fill="#00334e"/>
    <g id="_5IECN8" data-name="5IECN8" transform="translate(172.902 -5336.816)">
      <g id="Grupo_155309" data-name="Grupo 155309" transform="translate(0 0)">
        <path id="Trazado_195678" data-name="Trazado 195678" d="M-487.143,534.434a6.094,6.094,0,0,1-2.452-3.819,20.921,20.921,0,0,1-.132-3.33,2.238,2.238,0,0,0-.647-1.652,4.562,4.562,0,0,1-.936-2.409,12.288,12.288,0,0,1,.822-5.732c.977-2.573,3.733-3.81,6.709-3.077.861.212,1.724.423,2.594.592a7.335,7.335,0,0,1,5.526,9.436,2.8,2.8,0,0,1-.626,1.252,2.525,2.525,0,0,0-.707,2.34,7.216,7.216,0,0,1-.842,4.352c-.478.738-1.094,1.388-1.709,2.155.289.5.6,1.12.986,1.686a.985.985,0,0,0,.666.338,5.376,5.376,0,0,1,5.3,5.7c0,1.448.01,2.9,0,4.344-.009.907-.3,1.2-1.211,1.2q-9.566.013-19.131,0c-.928,0-1.243-.337-1.25-1.272q-.017-2.214,0-4.428a5.317,5.317,0,0,1,4.811-5.465,1.744,1.744,0,0,0,1.619-1.114C-487.607,535.181-487.383,534.857-487.143,534.434ZM-474.6,545.77c0-1.336.027-2.611-.007-3.884a3.369,3.369,0,0,0-2.9-3.277.727.727,0,0,0-.9.482,5.254,5.254,0,0,1-4.989,3.165,5.245,5.245,0,0,1-4.972-3.19.719.719,0,0,0-.912-.451,3.287,3.287,0,0,0-2.83,2.8c-.139,1.425-.03,2.875-.03,4.36Zm-13.312-18.042.178.035c0,.528-.014,1.057,0,1.585a4.217,4.217,0,0,0,4.431,4.21,4.273,4.273,0,0,0,4.3-4.281c.013-.807.026-1.614,0-2.42a5.341,5.341,0,0,0-1.637-3.521.891.891,0,0,0-.785-.177,15.582,15.582,0,0,1-5.195,1.076.863.863,0,0,0-.662.449C-487.536,525.688-487.708,526.712-487.91,527.728Zm10.2-3.685a5.236,5.236,0,0,0-3.691-7.03q-1.369-.324-2.738-.65c-2.478-.592-4.219.435-4.832,2.906a9.124,9.124,0,0,0-.177,4.476c.5-1.339,1.514-1.479,2.749-1.59a21.368,21.368,0,0,0,4.5-1.047,1.978,1.978,0,0,1,1.645.05A5.814,5.814,0,0,1-477.713,524.044Zm-5.831,16.424.108-.224a3.772,3.772,0,0,0,.5,0,3.519,3.519,0,0,0,2.69-1.875c.506-.883-.351-1.349-.573-2.009-.009-.026-.031-.047-.041-.072a1.107,1.107,0,0,0-1.591-.776,2.6,2.6,0,0,1-1.483.024c-1.231-.4-1.764.2-2.253,1.208-.568,1.172-.6,1.769.427,2.57A13.366,13.366,0,0,0-483.544,540.467Z" transform="translate(494.198 -474.451)" fill="#12263f"/>
        <path id="Trazado_195679" data-name="Trazado 195679" d="M-216.459,296.64a6.827,6.827,0,0,1-2.637-6.284c.05-.992.172-1.97-.831-2.754a2.528,2.528,0,0,1-.648-1.819,22.549,22.549,0,0,1,.373-4.712c.852-3.781,3.784-5.392,7.52-4.327.664.189,1.342.335,2.022.457a7.338,7.338,0,0,1,5.59,9.712,2.6,2.6,0,0,1-.591,1.087,2.367,2.367,0,0,0-.692,2.1,15.893,15.893,0,0,1-.151,2.825,6.1,6.1,0,0,1-2.437,3.73c.361.628.675,1.246,1.064,1.812a.968.968,0,0,0,.683.334,5.512,5.512,0,0,1,5.321,5.961c-.075,1.333-.005,2.673-.017,4.009-.009.938-.376,1.307-1.327,1.308q-9.482.009-18.964,0c-.974,0-1.295-.334-1.3-1.31-.01-1.559-.028-3.119.005-4.678a5.2,5.2,0,0,1,4.865-5.2,1.529,1.529,0,0,0,1.445-.979C-216.966,297.486-216.712,297.089-216.459,296.64Zm12.538,11.387c0-1.477.086-2.9-.025-4.3a3.271,3.271,0,0,0-2.522-2.8,1.006,1.006,0,0,0-1.378.6,5.122,5.122,0,0,1-4.773,2.965,5.3,5.3,0,0,1-4.844-2.741c-.606-1-.944-1.128-2.031-.627a2.955,2.955,0,0,0-1.9,2.376c-.134,1.483-.033,2.987-.033,4.531Zm-13.34-18.082.182.036c0,.584-.025,1.169,0,1.751a4.272,4.272,0,0,0,4.441,4.05,4.187,4.187,0,0,0,4.278-4.1c.03-.889.039-1.78.006-2.668a5.085,5.085,0,0,0-1.609-3.447.889.889,0,0,0-.776-.187,14.653,14.653,0,0,1-5.107,1.065c-.464.017-.737.171-.83.621Q-216.971,288.507-217.262,289.945Zm10.241-3.6a5.313,5.313,0,0,0-3.91-7.153c-.868-.163-1.727-.381-2.584-.6a3.566,3.566,0,0,0-4.189,1.425,9.215,9.215,0,0,0-.772,5.982c.461-1.516,1.634-1.435,2.822-1.589a26,26,0,0,0,4.42-1.067,2,2,0,0,1,1.659.044A5.72,5.72,0,0,1-207.022,286.344Zm-5.784,16.347a3.98,3.98,0,0,0,3.236-2.153,1.151,1.151,0,0,0,.038-.843,13.244,13.244,0,0,0-1.034-1.8.8.8,0,0,0-.6-.243,9.007,9.007,0,0,1-2.146.077c-1.2-.3-1.7.252-2.172,1.214-.625,1.272-.641,1.815.5,2.676A12.529,12.529,0,0,0-212.805,302.691Z" transform="translate(268.754 -276.422)" fill="#12263f"/>
        <path id="Trazado_195680" data-name="Trazado 195680" d="M-362.154,423.777q0-6.393,0-12.786c0-1.32.257-1.585,1.541-1.586,4.345,0,8.691-.023,13.036.025a2.565,2.565,0,0,1,1.532.624c1.666,1.478,3.282,3.014,4.869,4.577a1.914,1.914,0,0,1,.545,1.216c.033,7.048.026,14.1.022,21.143,0,.977-.333,1.327-1.291,1.328q-9.485.012-18.97,0c-.959,0-1.281-.352-1.282-1.338Q-362.16,430.379-362.154,423.777Zm2.034,12.494h17.447V416.53c-1.389,0-2.72.005-4.051,0-1.083-.006-1.373-.3-1.38-1.394-.009-1.216,0-2.432,0-3.665H-360.12Zm14.089-23.483v1.669h1.8Z" transform="translate(384.232 -387.166)" fill="#12263f"/>
        <path id="Trazado_195681" data-name="Trazado 195681" d="M-448.02,338.769v17.878c.612-.605,1.1-1.076,1.574-1.559s1.016-.634,1.537-.136.369,1.063-.1,1.537q-1.614,1.635-3.251,3.248a1.024,1.024,0,0,1-1.61-.022c-1.085-1.081-2.164-2.168-3.249-3.249a.974.974,0,0,1-.121-1.478.969.969,0,0,1,1.536.07c.48.486.934,1,1.4,1.5l.228-.124v-.875q0-8.565,0-17.131c0-1.433.227-1.664,1.627-1.664H-420.2c1.193,0,1.687.3,1.668,1.014s-.515,1-1.714,1H-448.02Z" transform="translate(460.326 -326.672)" fill="#12263f"/>
        <path id="Trazado_195682" data-name="Trazado 195682" d="M-300.411,518.89c-.459.518-.907,1.046-1.381,1.55a.962.962,0,0,1-1.533.074.963.963,0,0,1,.112-1.476c1.076-1.091,2.161-2.172,3.246-3.254a1.023,1.023,0,0,1,1.61-.024c1.111,1.095,2.207,2.205,3.306,3.312a.953.953,0,0,1,.056,1.475.952.952,0,0,1-1.476-.081c-.481-.493-.926-1.021-1.387-1.534l-.229.118c-.013.288-.036.576-.036.863q0,8.568,0,17.136c0,1.47-.219,1.686-1.691,1.686h-25.328c-.251,0-.567.089-.738-.029-.35-.243-.816-.57-.868-.917-.044-.291.38-.729.7-.97.2-.154.589-.088.892-.089q11.954-.006,23.907,0h1.06V519.088Z" transform="translate(354.748 -475.428)" fill="#12263f"/>
        <path id="Trazado_195683" data-name="Trazado 195683" d="M-332.317,491.915c-1.867,0-3.733,0-5.6,0-.915,0-1.347-.333-1.349-1s.439-1,1.343-1.005q5.6-.005,11.2,0c.908,0,1.346.335,1.347,1s-.441,1-1.342,1C-328.584,491.918-330.451,491.914-332.317,491.915Z" transform="translate(365.17 -454.214)" fill="#12263f"/>
        <path id="Trazado_195684" data-name="Trazado 195684" d="M-332.375,467.754q-2.841,0-5.683,0c-.616,0-1.108-.2-1.212-.887s.361-1.11,1.208-1.113c2.7-.009,5.4,0,8.107,0,1.142,0,2.284.006,3.426,0,.651,0,1.1.263,1.13.948.03.742-.464,1.047-1.126,1.054-1.95.02-3.9.007-5.85.007Z" transform="translate(365.184 -434.093)" fill="#12263f"/>
        <path id="Trazado_195685" data-name="Trazado 195685" d="M-332.352,516.068c-1.867,0-3.734-.009-5.6,0-.695.005-1.232-.167-1.278-.97-.038-.667.424-1.035,1.313-1.037q5.642-.013,11.284-.007c.677,0,1.235.191,1.28.992.039.682-.395,1.009-1.315,1.011-1.895.005-3.789,0-5.684,0Z" transform="translate(365.141 -474.327)" fill="#12263f"/>
        <path id="Trazado_195686" data-name="Trazado 195686" d="M-332.293,540.452c-1.866,0-3.732.006-5.6,0-.928,0-1.343-.32-1.347-.992s.41-1,1.342-1q5.64-.013,11.279-.005c.844,0,1.283.353,1.263,1-.026.811-.574,1-1.258,1Z" transform="translate(365.146 -494.642)" fill="#12263f"/>
        <path id="Trazado_195687" data-name="Trazado 195687" d="M-335.033,441.377c1,0,2,0,3,0,.67,0,1.147.244,1.194.977.042.645-.4,1.017-1.229,1.022-2,.011-4,0-6,0-.653,0-1.161-.211-1.191-.971-.026-.658.391-1.01,1.227-1.022,1-.015,2,0,3,0Z" transform="translate(365.164 -413.792)" fill="#12263f"/>
      </g>
    </g>
    <g id="Grupo_155281" data-name="Grupo 155281" transform="translate(324.383 -5377.757)">
      <circle id="Elipse_5988" data-name="Elipse 5988" cx="67.198" cy="67.198" r="67.198" transform="translate(0 130.972) rotate(-77.04)" fill="#f6f6f4"/>
      <circle id="Elipse_5989" data-name="Elipse 5989" cx="56.028" cy="56.028" r="56.028" transform="translate(12.99 121.945) rotate(-76.489)" fill="#e5e5e5"/>
    </g>
    <path id="Trazado_238580" data-name="Trazado 238580" d="M12.645-7.055A8.644,8.644,0,0,1,11.18-1.641,5.113,5.113,0,0,1,6.891.234a5.149,5.149,0,0,1-4.266-1.84A8.391,8.391,0,0,1,1.113-6.879V-10.02A8.53,8.53,0,0,1,2.6-15.445,5.151,5.151,0,0,1,6.867-17.3a5.156,5.156,0,0,1,4.266,1.834A8.365,8.365,0,0,1,12.645-10.2ZM9.258-10.508a6.248,6.248,0,0,0-.58-3.091,1.96,1.96,0,0,0-1.811-.968,1.926,1.926,0,0,0-1.764.921,5.847,5.847,0,0,0-.6,2.88v4.152a6.559,6.559,0,0,0,.568,3.1A1.934,1.934,0,0,0,6.891-2.5,1.9,1.9,0,0,0,8.684-3.47a6.4,6.4,0,0,0,.574-2.979Zm9.117.476h1.8a2.543,2.543,0,0,0,1.91-.645,2.362,2.362,0,0,0,.621-1.711,2.088,2.088,0,0,0-.615-1.605,2.384,2.384,0,0,0-1.693-.574,2.5,2.5,0,0,0-1.629.533,1.7,1.7,0,0,0-.656,1.389H14.73a4.165,4.165,0,0,1,.721-2.4A4.8,4.8,0,0,1,17.467-16.7a6.727,6.727,0,0,1,2.854-.6A6.38,6.38,0,0,1,24.563-16,4.418,4.418,0,0,1,26.1-12.434a3.59,3.59,0,0,1-.715,2.156,4.644,4.644,0,0,1-1.875,1.512,4.24,4.24,0,0,1,2.15,1.547,4.2,4.2,0,0,1,.709,2.438,4.491,4.491,0,0,1-1.658,3.645A6.667,6.667,0,0,1,20.32.234a6.322,6.322,0,0,1-4.178-1.348A4.4,4.4,0,0,1,14.52-4.676h3.387a1.962,1.962,0,0,0,.721,1.57A2.656,2.656,0,0,0,20.4-2.5a2.668,2.668,0,0,0,1.893-.639,2.2,2.2,0,0,0,.686-1.693q0-2.555-2.812-2.555H18.375ZM29.016-1.664a1.7,1.7,0,0,1,.545-1.312,1.934,1.934,0,0,1,1.365-.5,1.949,1.949,0,0,1,1.377.5,1.7,1.7,0,0,1,.545,1.313,1.682,1.682,0,0,1-.539,1.295,1.958,1.958,0,0,1-1.383.5,1.941,1.941,0,0,1-1.371-.5A1.682,1.682,0,0,1,29.016-1.664Z" transform="translate(344.829 -5341.474)" fill="#00334e"/>
    <g id="Grupo_173663" data-name="Grupo 173663" transform="translate(374.544 -5326.306)">
      <g id="Grupo_173662" data-name="Grupo 173662" clip-path="url(#clip-path)">
        <path id="Trazado_214755" data-name="Trazado 214755" d="M28.495,0H32.8c.964.132,1.932.233,2.89.4A29.827,29.827,0,0,1,51.865,8.572a30.013,30.013,0,0,1,9.141,26.3,29.416,29.416,0,0,1-5.75,14.054c-.942,1.272-2.137,2.364-2.735,3.884a2.936,2.936,0,0,1-.5.67c-.572.718-1.132,1.445-1.724,2.145a3.512,3.512,0,0,0-.866,2.472c.031,1.049.007,2.1.007,3.2H48.9c-6.344,0-12.688.012-19.032-.014a24.772,24.772,0,0,1-3.455-.266A30.185,30.185,0,0,1,9.069,52.388,30.037,30.037,0,0,1,.479,36.047C.286,34.972.158,33.886,0,32.8v-4.31A2.085,2.085,0,0,0,.109,28.1,30.5,30.5,0,0,1,3.733,15.956a1.882,1.882,0,0,0,.211-.842c.018-2.053,0-4.107.011-6.16a4.917,4.917,0,0,1,5-5c1.993-.009,3.987.014,5.981-.015a2.7,2.7,0,0,0,1.178-.293,30.672,30.672,0,0,1,9.975-3.3L28.495,0m6.942,45.91c.088-.116.127-.143.127-.17q.007-8.408-.007-16.816a.6.6,0,0,0-.35-.426,5.045,5.045,0,0,1-3.473-3.779.769.769,0,0,0-.377-.442,5.9,5.9,0,0,1-1.4-10.148,1.936,1.936,0,0,0,.187-.219H5.958v.813c0,9.515.027,19.03-.029,28.545a5.423,5.423,0,0,0,1.16,3.689,1.061,1.061,0,0,0,.922.487q10.173-.021,20.347-.01h.613c-.263-1.585-.532-3.093-.758-4.608a40.422,40.422,0,0,1-.519-4.138,2.929,2.929,0,0,1,2.483-3,25.793,25.793,0,0,1,2.8-.12c.368-.019.5.091.571.478.53,3.018,1.089,6.031,1.647,9.044.048.258.148.507.242.823m12-2.433c0-.436,0-.793,0-1.149,0-2.533,0-5.067,0-7.6,0-.695-.389-1.106-.986-1.092s-.951.434-.952,1.138q-.007,4.01,0,8.019v.678H43.479v-.679q0-3.351,0-6.7c0-1.157.01-2.314-.008-3.471a.938.938,0,0,0-.938-.962.979.979,0,0,0-.99.922c-.015.158-.005.319-.005.479q0,4.877,0,9.755v.653H39.526v-.749q0-8.737,0-17.475c0-.2.009-.4-.008-.6a.963.963,0,0,0-.944-.9.982.982,0,0,0-.979.872,5.116,5.116,0,0,0-.01.6q0,11.251,0,22.5V48.4a3.5,3.5,0,0,1-4.34-2.874C33,44.316,32.8,43.1,32.574,41.885c-.26-1.422-.519-2.845-.784-4.3-.329,0-.606-.006-.883,0a1.138,1.138,0,0,0-1.224,1.236,5.365,5.365,0,0,0,.036.955c.508,3.1,1.066,6.2,1.527,9.309a6.172,6.172,0,0,0,1.578,3.461c.556.6,1.024,1.274,1.544,1.905A5.148,5.148,0,0,1,35.6,57.922c-.008.434,0,.868,0,1.319H47.432c0-.331.012-.61,0-.887A5.61,5.61,0,0,1,48.86,54.23c.577-.66,1.081-1.383,1.653-2.048A3.61,3.61,0,0,0,51.4,49.66c-.031-2.673-.011-5.346-.011-8.019,0-1.656,0-3.311,0-4.967a.925.925,0,0,0-.73-1.02c-.681-.17-1.209.292-1.212,1.08-.008,2.035,0,4.069,0,6.1v.64Zm1.952-9.709a3.085,3.085,0,0,1,4.038,3.168c-.1,3.448-.029,6.9-.029,10.354v.725A28.566,28.566,0,0,0,20.513,3.953h.733c3.472,0,6.943-.007,10.415,0A4.875,4.875,0,0,1,36.4,7.618c.107.4.162.81.247,1.245a5.3,5.3,0,0,1,3.922,2.015,2.178,2.178,0,0,1,.169-.262,4.766,4.766,0,0,1,4.913-1.576,4.842,4.842,0,0,1,3.688,3.766,1.044,1.044,0,0,0,.53.541,5.777,5.777,0,0,1,3.5,5.468,5.683,5.683,0,0,1-3.525,5.376.877.877,0,0,0-.569.663,4.9,4.9,0,0,1-7.3,3.121c-.124-.071-.257-.129-.4-.2V29.79a2.715,2.715,0,0,1,2.345.255,16.217,16.217,0,0,1,1.688,1.717c1.7-.413,2.635.051,3.771,2.008M5.975,11.822c.134.016.21.032.287.032q12.713,0,25.426-.011a.743.743,0,0,0,.529-.328,4.6,4.6,0,0,1,1.908-1.927c.509-.244.517-.583.458-1.008a2.963,2.963,0,0,0-3.167-2.621q-11.128-.006-22.255,0c-.2,0-.4,0-.6.018A2.869,2.869,0,0,0,5.985,8.541c-.052,1.073-.011,2.151-.011,3.28M49.251,22.238a3.844,3.844,0,0,0,2.114-3.989,3.969,3.969,0,0,0-2.982-3.293c-.957-.231-.957-.231-.951-1.072a2.945,2.945,0,1,0-5.89-.054q-.02,4.965,0,9.931a2.944,2.944,0,0,0,5.881.19A2.9,2.9,0,0,0,44.688,20.8c-.391-.027-.783-.038-1.174-.056V18.857c2.543-.394,4.184.581,5.737,3.382M29.374,49.5H9.167l-.116.187c1.5,1.309,2.941,2.686,4.5,3.911,2.287,1.794,2.324,1.747,5.209,1.747H30.373a2.567,2.567,0,0,0,1.765-.472c-1.286-1.625-2.827-3.089-2.764-5.373m10.1-27.629a.975.975,0,0,0,.047-.2c0-2.693.026-5.387-.013-8.079a2.9,2.9,0,0,0-2.781-2.7,2.941,2.941,0,0,0-3.081,3.129c.008.479,0,.778-.627.88A3.874,3.874,0,0,0,31.86,22.21a5.012,5.012,0,0,1,3.5-3.276l.47,1.9a3.055,3.055,0,0,0-2.189,3.155,2.752,2.752,0,0,0,1.924,2.42c.061-1.2-.209-2.462.644-3.507a3.024,3.024,0,0,1,3.267-1.031m-35.534-1.4c-2.508,4.927-2.477,16.8,0,20.251ZM33.475,56.454a6.522,6.522,0,0,1-4.1.9c-2.751-.018-5.5-.006-8.253,0-.179,0-.359.02-.538.03a29.316,29.316,0,0,0,13.074,1.861l-.187-2.785" fill="#12263f"/>
        <path id="Trazado_214756" data-name="Trazado 214756" d="M66.056,134.219V132.21h17.8c0,.569.014,1.14-.013,1.71,0,.1-.168.233-.286.282a1.142,1.142,0,0,1-.414.016H66.056Z" transform="translate(-58.132 -116.35)" fill="#12263f"/>
        <path id="Trazado_214757" data-name="Trazado 214757" d="M83.995,164.764c0,.593.021,1.148-.016,1.7-.009.125-.207.263-.347.344-.09.052-.234.012-.353.012H66.207v-2.056Z" transform="translate(-58.265 -144.999)" fill="#12263f"/>
        <path id="Trazado_214758" data-name="Trazado 214758" d="M80.093,199.275H66.216v-2c.214-.012.407-.032.6-.032,4.207,0,8.414.008,12.621-.013.533,0,.715.149.664.674-.041.431-.008.87-.008,1.37" transform="translate(-58.273 -173.571)" fill="#12263f"/>
        <path id="Trazado_214759" data-name="Trazado 214759" d="M66.056,277.272v-2.009h17.8c0,.569.014,1.14-.013,1.71,0,.1-.168.233-.286.282a1.142,1.142,0,0,1-.414.016H66.056Z" transform="translate(-58.132 -242.243)" fill="#12263f"/>
        <path id="Trazado_214760" data-name="Trazado 214760" d="M83.995,307.817c0,.593.021,1.148-.016,1.7-.009.125-.207.263-.347.344-.09.052-.234.012-.353.012H66.207v-2.056Z" transform="translate(-58.265 -270.892)" fill="#12263f"/>
        <path id="Trazado_214761" data-name="Trazado 214761" d="M80.093,342.328H66.216v-2c.214-.012.407-.032.6-.032,4.207,0,8.414.008,12.621-.013.533,0,.715.149.664.674-.041.432-.008.87-.008,1.37" transform="translate(-58.273 -299.464)" fill="#12263f"/>
        <path id="Trazado_214762" data-name="Trazado 214762" d="M199.4,197.332v2h-2.033c0-.575-.014-1.162.015-1.746,0-.091.2-.241.31-.246.55-.026,1.1-.012,1.708-.012" transform="translate(-173.692 -173.657)" fill="#12263f"/>
        <rect id="Rectángulo_52805" data-name="Rectángulo 52805" width="6.866" height="1.912" transform="translate(16.818 7.957)" fill="#12263f"/>
        <rect id="Rectángulo_52806" data-name="Rectángulo 52806" width="1.913" height="1.933" transform="translate(12.881 7.93)" fill="#12263f"/>
        <rect id="Rectángulo_52807" data-name="Rectángulo 52807" width="1.887" height="1.938" transform="translate(25.745 7.942)" fill="#12263f"/>
        <rect id="Rectángulo_52808" data-name="Rectángulo 52808" width="6.863" height="1.916" transform="translate(16.811 51.431)" fill="#12263f"/>
      </g>
    </g>
    <path id="Trazado_195676" data-name="Trazado 195676" d="M244.429-176.086v28.875H50.792c-9.379,0-16.99-6.468-16.99-14.437a13.405,13.405,0,0,1,4.978-10.207,18.553,18.553,0,0,1,12.012-4.23Z" transform="translate(-134.522 -5013.025)" fill="url(#linear-gradient)"/>
    <path id="Trazado_238581" data-name="Trazado 238581" d="M2.747,0H1.34V-10.664H2.747Zm3.64-7.925.044,1A2.888,2.888,0,0,1,8.8-8.071q2.512,0,2.534,2.834V0H9.983V-5.244a1.824,1.824,0,0,0-.392-1.267,1.57,1.57,0,0,0-1.2-.41,1.956,1.956,0,0,0-1.157.352,2.387,2.387,0,0,0-.776.923V0H5.1V-7.925ZM16.56-.959A1.952,1.952,0,0,0,17.827-1.4a1.546,1.546,0,0,0,.6-1.1h1.282a2.457,2.457,0,0,1-.469,1.3,3.087,3.087,0,0,1-1.154.981A3.329,3.329,0,0,1,16.56.146a3.265,3.265,0,0,1-2.574-1.08,4.3,4.3,0,0,1-.956-2.955v-.227a4.771,4.771,0,0,1,.425-2.058,3.236,3.236,0,0,1,1.219-1.4,3.464,3.464,0,0,1,1.879-.5,3.178,3.178,0,0,1,2.216.8A2.853,2.853,0,0,1,19.709-5.2H18.428a1.867,1.867,0,0,0-.582-1.263,1.811,1.811,0,0,0-1.293-.494,1.9,1.9,0,0,0-1.6.743,3.491,3.491,0,0,0-.568,2.15v.256A3.422,3.422,0,0,0,14.949-1.7,1.906,1.906,0,0,0,16.56-.959ZM22.705,0H21.35V-11.25h1.355Zm7.061-.784a2.878,2.878,0,0,1-2.322.93,2.464,2.464,0,0,1-1.93-.736,3.186,3.186,0,0,1-.67-2.179V-7.925H26.2v5.12Q26.2-1,27.664-1a2.028,2.028,0,0,0,2.065-1.157V-7.925h1.355V0H29.795ZM37.756-2.1a1,1,0,0,0-.414-.853A3.983,3.983,0,0,0,35.9-3.479a6.822,6.822,0,0,1-1.633-.527,2.324,2.324,0,0,1-.894-.732,1.752,1.752,0,0,1-.289-1.011A2.056,2.056,0,0,1,33.907-7.4a3.218,3.218,0,0,1,2.106-.674,3.311,3.311,0,0,1,2.186.7,2.21,2.21,0,0,1,.839,1.78H37.676a1.223,1.223,0,0,0-.472-.959,1.77,1.77,0,0,0-1.19-.4,1.852,1.852,0,0,0-1.157.322,1.014,1.014,0,0,0-.417.842.822.822,0,0,0,.388.74,4.776,4.776,0,0,0,1.4.476,7.308,7.308,0,0,1,1.644.542,2.4,2.4,0,0,1,.934.758,1.864,1.864,0,0,1,.3,1.08,2.028,2.028,0,0,1-.85,1.7,3.564,3.564,0,0,1-2.2.641A3.991,3.991,0,0,1,34.373-.19a2.74,2.74,0,0,1-1.146-.941,2.268,2.268,0,0,1-.414-1.307h1.355a1.4,1.4,0,0,0,.546,1.08,2.117,2.117,0,0,0,1.344.4,2.185,2.185,0,0,0,1.234-.311A.956.956,0,0,0,37.756-2.1ZM42.349,0H40.994V-7.925h1.355ZM40.884-10.027a.809.809,0,0,1,.2-.557.756.756,0,0,1,.6-.227.768.768,0,0,1,.6.227.8.8,0,0,1,.205.557.774.774,0,0,1-.205.549.782.782,0,0,1-.6.22.77.77,0,0,1-.6-.22A.782.782,0,0,1,40.884-10.027Zm3.274,5.991a4.681,4.681,0,0,1,.458-2.095A3.415,3.415,0,0,1,45.89-7.566a3.469,3.469,0,0,1,1.864-.505,3.342,3.342,0,0,1,2.618,1.121,4.311,4.311,0,0,1,1,2.981v.1A4.722,4.722,0,0,1,50.929-1.8,3.365,3.365,0,0,1,49.662-.366a3.509,3.509,0,0,1-1.893.513A3.334,3.334,0,0,1,45.157-.974a4.29,4.29,0,0,1-1-2.966Zm1.362.161a3.39,3.39,0,0,0,.612,2.117,1.957,1.957,0,0,0,1.637.8,1.945,1.945,0,0,0,1.641-.809,3.707,3.707,0,0,0,.608-2.267A3.384,3.384,0,0,0,49.4-6.149a1.968,1.968,0,0,0-1.644-.809,1.946,1.946,0,0,0-1.619.8A3.68,3.68,0,0,0,45.52-3.875Zm2.849-7.361H50.01L48.047-9.082l-1.091,0Zm5.984,3.311.044,1A2.888,2.888,0,0,1,56.77-8.071q2.512,0,2.534,2.834V0H57.949V-5.244a1.824,1.824,0,0,0-.392-1.267,1.57,1.57,0,0,0-1.2-.41A1.956,1.956,0,0,0,55.2-6.57a2.387,2.387,0,0,0-.776.923V0H53.071V-7.925Zm10.8,3.6A11.616,11.616,0,0,1,67.024-9.3a8.447,8.447,0,0,1,2.739-2.673l.044.007.132.842a7.98,7.98,0,0,0-2.01,2.52,12.894,12.894,0,0,0-1.366,4.263l-.015.1A11.1,11.1,0,0,0,66.522.059,5.671,5.671,0,0,0,67.742,2.6l-.388.791-.044-.007A5.321,5.321,0,0,1,65.442.663a9.508,9.508,0,0,1-.308-4.926ZM70.671,0H69.258L70.84-7.925h1.414Zm1.992-9.954H71.25l.293-1.472h1.414Zm2.842,3.12A3.459,3.459,0,0,1,76.6-7.753a2.8,2.8,0,0,1,1.315-.319,1.9,1.9,0,0,1,1.663.762A2.964,2.964,0,0,1,79.812-5l-1,5H77.4l1-4.973a2.163,2.163,0,0,0-.059-1.52A1.231,1.231,0,0,0,77.249-6.9a1.925,1.925,0,0,0-1.018.311,3.138,3.138,0,0,0-.886.831L74.194,0H72.781l1.582-7.925H75.63ZM84.1-.981a1.942,1.942,0,0,0,1.2-.445A1.681,1.681,0,0,0,85.986-2.5h1.267l.015.044A2.779,2.779,0,0,1,86.125-.619a3.5,3.5,0,0,1-2.2.773A2.467,2.467,0,0,1,81.665-.989a3.986,3.986,0,0,1-.439-2.82l.051-.308a5.237,5.237,0,0,1,1.3-2.853,3.477,3.477,0,0,1,2.662-1.1,2.474,2.474,0,0,1,1.974.824,2.291,2.291,0,0,1,.494,2.018l-.015.037H86.411a1.568,1.568,0,0,0-.249-1.252,1.3,1.3,0,0,0-1.1-.491,1.861,1.861,0,0,0-1.589.827A4.578,4.578,0,0,0,82.7-4.12l-.051.307a4.041,4.041,0,0,0,.1,2.045A1.285,1.285,0,0,0,84.1-.981ZM89.832,0H88.418L90.7-11.426h1.414Zm6.863,0,.125-1.084a3.288,3.288,0,0,1-1.066.923,2.758,2.758,0,0,1-1.307.315,1.862,1.862,0,0,1-1.681-.842,3.5,3.5,0,0,1-.2-2.563l.93-4.673h1.414L93.97-3.237a3.055,3.055,0,0,0-.029,1.783,1.014,1.014,0,0,0,.974.436A2.235,2.235,0,0,0,96.1-1.34a2.774,2.774,0,0,0,.9-.894L98.13-7.925h1.414L97.961,0Zm3.757-3.962a6.648,6.648,0,0,1,1.293-3.076,2.883,2.883,0,0,1,2.289-1.033,2.386,2.386,0,0,1,1.1.253,2.151,2.151,0,0,1,.809.714l.864-4.321h1.414L105.938,0h-1.216l.051-.762a3.026,3.026,0,0,1-.97.685,2.845,2.845,0,0,1-1.146.231,2.083,2.083,0,0,1-1.923-1.143,3.987,3.987,0,0,1-.311-2.82Zm1.392.154a3.3,3.3,0,0,0,.1,2.025,1.316,1.316,0,0,0,1.318.765,1.591,1.591,0,0,0,.934-.289,2.9,2.9,0,0,0,.758-.824l.747-3.743a1.679,1.679,0,0,0-.575-.747,1.587,1.587,0,0,0-.956-.278,1.732,1.732,0,0,0-1.454.795,5.407,5.407,0,0,0-.839,2.142ZM111.182.154a2.568,2.568,0,0,1-2.26-1.11,3.81,3.81,0,0,1-.487-2.853l.051-.322a4.956,4.956,0,0,1,1.388-2.849,3.377,3.377,0,0,1,2.4-1.091,2.3,2.3,0,0,1,2.087.976,3.618,3.618,0,0,1,.381,2.575l-.146.9h-4.775a3.166,3.166,0,0,0,.223,1.923,1.369,1.369,0,0,0,1.315.714,3.366,3.366,0,0,0,1.208-.215,3.4,3.4,0,0,0,.981-.564l.4.939a3.624,3.624,0,0,1-1.143.7A4.355,4.355,0,0,1,111.182.154Zm.916-7.09a1.647,1.647,0,0,0-1.19.615,3.571,3.571,0,0,0-.824,1.523l.022.044h3.259l.029-.19a2.217,2.217,0,0,0-.168-1.439A1.176,1.176,0,0,0,112.1-6.936Zm6.951,2.673A11.624,11.624,0,0,1,117.162.707a8.7,8.7,0,0,1-2.736,2.684l-.044-.007-.146-.784A7.948,7.948,0,0,0,116.243.062a13.337,13.337,0,0,0,1.392-4.31l.015-.1a10.938,10.938,0,0,0-.022-4.307,6.016,6.016,0,0,0-1.187-2.542l.4-.791.044.007a5.461,5.461,0,0,1,1.849,2.732,9.539,9.539,0,0,1,.326,4.915Z" transform="translate(-55.749 -5169.957)" fill="#fff"/>
    <path id="Trazado_238582" data-name="Trazado 238582" d="M0,0H196.681V28.875H0Z" transform="translate(109.908 -5189.111)" fill="url(#linear-gradient-2)"/>
    <path id="Trazado_238583" data-name="Trazado 238583" d="M7.266-4.929H2.644V-1.15H8.013V0H1.238V-10.664h6.7v1.15h-5.3v3.435H7.266Zm4.944-.1,1.758-2.893h1.582L12.957-4.006,15.63,0H14.063L12.231-2.966,10.4,0H8.826L11.5-4.006,8.906-7.925h1.567Zm6.614-4.812v1.919H20.3v1.047H18.823v4.921a1.1,1.1,0,0,0,.2.715A.832.832,0,0,0,19.695-1a3.281,3.281,0,0,0,.645-.088V0A3.951,3.951,0,0,1,19.3.146,1.687,1.687,0,0,1,17.93-.4a2.36,2.36,0,0,1-.461-1.56V-6.877H16.025V-7.925h1.443V-9.844Zm6.35,9.99A3.463,3.463,0,0,1,22.551-.912a3.928,3.928,0,0,1-1.011-2.831v-.249a4.756,4.756,0,0,1,.45-2.106,3.514,3.514,0,0,1,1.26-1.45A3.167,3.167,0,0,1,25-8.071a2.968,2.968,0,0,1,2.4,1.018,4.408,4.408,0,0,1,.857,2.915v.564H22.9a2.817,2.817,0,0,0,.685,1.893,2.153,2.153,0,0,0,1.666.721,2.36,2.36,0,0,0,1.216-.293,3.055,3.055,0,0,0,.872-.776l.828.645A3.328,3.328,0,0,1,25.173.146ZM25-6.958a1.807,1.807,0,0,0-1.377.6,2.9,2.9,0,0,0-.688,1.674h3.97v-.1a2.581,2.581,0,0,0-.557-1.6A1.7,1.7,0,0,0,25-6.958Zm6.108-.967.044,1A2.888,2.888,0,0,1,33.53-8.071q2.512,0,2.534,2.834V0H34.709V-5.244a1.824,1.824,0,0,0-.392-1.267,1.57,1.57,0,0,0-1.2-.41,1.956,1.956,0,0,0-1.157.352,2.387,2.387,0,0,0-.776.923V0H29.832V-7.925ZM42.722-2.1a1,1,0,0,0-.414-.853,3.983,3.983,0,0,0-1.443-.524,6.822,6.822,0,0,1-1.633-.527,2.324,2.324,0,0,1-.894-.732,1.752,1.752,0,0,1-.289-1.011A2.056,2.056,0,0,1,38.873-7.4a3.218,3.218,0,0,1,2.106-.674,3.311,3.311,0,0,1,2.186.7A2.21,2.21,0,0,1,44-5.6H42.642a1.223,1.223,0,0,0-.472-.959,1.77,1.77,0,0,0-1.19-.4,1.852,1.852,0,0,0-1.157.322,1.014,1.014,0,0,0-.417.842.822.822,0,0,0,.388.74,4.776,4.776,0,0,0,1.4.476,7.308,7.308,0,0,1,1.644.542,2.4,2.4,0,0,1,.934.758,1.864,1.864,0,0,1,.3,1.08,2.028,2.028,0,0,1-.85,1.7,3.564,3.564,0,0,1-2.2.641A3.991,3.991,0,0,1,39.338-.19a2.74,2.74,0,0,1-1.146-.941,2.268,2.268,0,0,1-.414-1.307h1.355a1.4,1.4,0,0,0,.546,1.08,2.117,2.117,0,0,0,1.344.4,2.185,2.185,0,0,0,1.234-.311A.956.956,0,0,0,42.722-2.1ZM47.314,0H45.959V-7.925h1.355ZM45.85-10.027a.809.809,0,0,1,.2-.557.756.756,0,0,1,.6-.227.768.768,0,0,1,.6.227.8.8,0,0,1,.205.557.774.774,0,0,1-.205.549.782.782,0,0,1-.6.22.77.77,0,0,1-.6-.22A.782.782,0,0,1,45.85-10.027Zm3.274,5.991a4.681,4.681,0,0,1,.458-2.095,3.415,3.415,0,0,1,1.274-1.436,3.469,3.469,0,0,1,1.864-.505,3.342,3.342,0,0,1,2.618,1.121,4.311,4.311,0,0,1,1,2.981v.1A4.722,4.722,0,0,1,55.895-1.8,3.365,3.365,0,0,1,54.628-.366a3.509,3.509,0,0,1-1.893.513A3.334,3.334,0,0,1,50.123-.974a4.29,4.29,0,0,1-1-2.966Zm1.362.161A3.39,3.39,0,0,0,51.1-1.758a1.957,1.957,0,0,0,1.637.8,1.945,1.945,0,0,0,1.641-.809,3.707,3.707,0,0,0,.608-2.267,3.384,3.384,0,0,0-.619-2.113,1.968,1.968,0,0,0-1.644-.809,1.946,1.946,0,0,0-1.619.8A3.68,3.68,0,0,0,50.486-3.875Zm2.849-7.361h1.641L53.013-9.082l-1.091,0Zm5.984,3.311.044,1a2.888,2.888,0,0,1,2.373-1.143q2.512,0,2.534,2.834V0H62.915V-5.244a1.824,1.824,0,0,0-.392-1.267,1.57,1.57,0,0,0-1.2-.41,1.956,1.956,0,0,0-1.157.352,2.387,2.387,0,0,0-.776.923V0H58.037V-7.925Zm10.8,3.6A11.616,11.616,0,0,1,71.99-9.3a8.447,8.447,0,0,1,2.739-2.673l.044.007.132.842a7.98,7.98,0,0,0-2.01,2.52,12.894,12.894,0,0,0-1.366,4.263l-.015.1A11.1,11.1,0,0,0,71.488.059,5.671,5.671,0,0,0,72.708,2.6l-.388.791-.044-.007A5.321,5.321,0,0,1,70.408.663,9.508,9.508,0,0,1,70.1-4.263ZM77.3.154a2.568,2.568,0,0,1-2.26-1.11,3.81,3.81,0,0,1-.487-2.853l.051-.322A4.956,4.956,0,0,1,75.992-6.98a3.377,3.377,0,0,1,2.4-1.091,2.3,2.3,0,0,1,2.087.976,3.618,3.618,0,0,1,.381,2.575l-.146.9H75.938A3.166,3.166,0,0,0,76.161-1.7a1.369,1.369,0,0,0,1.315.714A3.366,3.366,0,0,0,78.684-1.2a3.4,3.4,0,0,0,.981-.564l.4.939a3.624,3.624,0,0,1-1.143.7A4.355,4.355,0,0,1,77.3.154Zm.916-7.09a1.647,1.647,0,0,0-1.19.615A3.571,3.571,0,0,0,76.2-4.8l.022.044h3.259l.029-.19a2.217,2.217,0,0,0-.168-1.439A1.176,1.176,0,0,0,78.215-6.936ZM85.027-5,87-7.925h1.648l-3,3.918L87.444,0H85.825L84.734-3,82.683,0H81.05l3.083-4.006-1.75-3.918h1.626Zm7.529-4.834-.388,1.912h1.37l-.212,1.069h-1.37L91-2.043a1.049,1.049,0,0,0,.037.8.616.616,0,0,0,.52.209,3.034,3.034,0,0,0,.406-.033,3.364,3.364,0,0,0,.377-.07l-.007.989a1.942,1.942,0,0,1-.6.216,3.669,3.669,0,0,1-.773.084,1.4,1.4,0,0,1-1.183-.542,2.027,2.027,0,0,1-.187-1.655l.959-4.812H89.385L89.6-7.925h1.157l.388-1.912ZM96.907.154a2.568,2.568,0,0,1-2.26-1.11,3.81,3.81,0,0,1-.487-2.853l.051-.322A4.956,4.956,0,0,1,95.6-6.98,3.377,3.377,0,0,1,98-8.071a2.3,2.3,0,0,1,2.087.976,3.618,3.618,0,0,1,.381,2.575l-.146.9H95.544A3.166,3.166,0,0,0,95.768-1.7a1.369,1.369,0,0,0,1.315.714A3.366,3.366,0,0,0,98.291-1.2a3.4,3.4,0,0,0,.981-.564l.4.939a3.624,3.624,0,0,1-1.143.7A4.355,4.355,0,0,1,96.907.154Zm.916-7.09a1.647,1.647,0,0,0-1.19.615A3.571,3.571,0,0,0,95.808-4.8l.022.044h3.259l.029-.19a2.217,2.217,0,0,0-.168-1.439A1.176,1.176,0,0,0,97.822-6.936Zm6.1.1a3.459,3.459,0,0,1,1.095-.919,2.8,2.8,0,0,1,1.315-.319A1.9,1.9,0,0,1,108-7.31,2.964,2.964,0,0,1,108.23-5l-1,5h-1.414l1-4.973a2.163,2.163,0,0,0-.059-1.52,1.231,1.231,0,0,0-1.084-.406,1.925,1.925,0,0,0-1.018.311,3.138,3.138,0,0,0-.886.831L102.612,0H101.2l1.582-7.925h1.267Zm5.786,2.871A6.648,6.648,0,0,1,111-7.039a2.883,2.883,0,0,1,2.289-1.033,2.386,2.386,0,0,1,1.1.253,2.151,2.151,0,0,1,.809.714l.864-4.321h1.414L115.2,0h-1.216l.051-.762a3.026,3.026,0,0,1-.97.685,2.845,2.845,0,0,1-1.146.231,2.083,2.083,0,0,1-1.923-1.143,3.987,3.987,0,0,1-.311-2.82Zm1.392.154a3.3,3.3,0,0,0,.1,2.025,1.316,1.316,0,0,0,1.318.765,1.591,1.591,0,0,0,.934-.289,2.9,2.9,0,0,0,.758-.824l.747-3.743a1.679,1.679,0,0,0-.575-.747,1.587,1.587,0,0,0-.956-.278,1.732,1.732,0,0,0-1.454.795,5.407,5.407,0,0,0-.839,2.142Zm9.727-.454A11.624,11.624,0,0,1,118.942.707a8.7,8.7,0,0,1-2.736,2.684l-.044-.007-.146-.784A7.948,7.948,0,0,0,118.022.062a13.337,13.337,0,0,0,1.392-4.31l.015-.1a10.938,10.938,0,0,0-.022-4.307,6.016,6.016,0,0,0-1.187-2.542l.4-.791.044.007a5.461,5.461,0,0,1,1.849,2.732,9.539,9.539,0,0,1,.326,4.915Z" transform="translate(147.926 -5169.238)" fill="#12263f"/>
    <path id="Trazado_195677" data-name="Trazado 195677" d="M939.808-161.649a13.388,13.388,0,0,1-5,10.207,18.658,18.658,0,0,1-12.054,4.23H702.271v-28.875H922.758C932.17-176.086,939.808-169.618,939.808-161.649Z" transform="translate(-396.132 -5013.026)" fill="url(#linear-gradient)"/>
    <path id="Trazado_238584" data-name="Trazado 238584" d="M9.111-1.4A3.248,3.248,0,0,1,7.6-.238a6.109,6.109,0,0,1-2.26.385A4.382,4.382,0,0,1,3.025-.465,4.074,4.074,0,0,1,1.461-2.2,6.008,6.008,0,0,1,.894-4.819v-.93A5.608,5.608,0,0,1,2.018-9.485a3.917,3.917,0,0,1,3.16-1.326,4.046,4.046,0,0,1,2.688.853A3.717,3.717,0,0,1,9.111-7.537H7.705a2.325,2.325,0,0,0-2.52-2.124,2.489,2.489,0,0,0-2.142.993A4.85,4.85,0,0,0,2.307-5.79v.872a4.545,4.545,0,0,0,.82,2.855A2.659,2.659,0,0,0,5.347-1a4.9,4.9,0,0,0,1.384-.175,2.141,2.141,0,0,0,.981-.592V-4.16H5.244V-5.31H9.111ZM14.531.146A3.463,3.463,0,0,1,11.909-.912,3.928,3.928,0,0,1,10.9-3.743v-.249a4.756,4.756,0,0,1,.45-2.106,3.514,3.514,0,0,1,1.26-1.45,3.167,3.167,0,0,1,1.754-.524,2.968,2.968,0,0,1,2.4,1.018,4.408,4.408,0,0,1,.857,2.915v.564H12.253a2.817,2.817,0,0,0,.685,1.893A2.153,2.153,0,0,0,14.6-.959a2.36,2.36,0,0,0,1.216-.293,3.055,3.055,0,0,0,.872-.776l.828.645A3.328,3.328,0,0,1,14.531.146Zm-.168-7.1a1.807,1.807,0,0,0-1.377.6A2.9,2.9,0,0,0,12.3-4.687h3.97v-.1a2.581,2.581,0,0,0-.557-1.6A1.7,1.7,0,0,0,14.363-6.958Zm6.108-.967.044,1a2.888,2.888,0,0,1,2.373-1.143q2.512,0,2.534,2.834V0H24.067V-5.244a1.824,1.824,0,0,0-.392-1.267,1.57,1.57,0,0,0-1.2-.41,1.956,1.956,0,0,0-1.157.352,2.387,2.387,0,0,0-.776.923V0H19.189V-7.925ZM30.754.146A3.463,3.463,0,0,1,28.132-.912a3.928,3.928,0,0,1-1.011-2.831v-.249a4.756,4.756,0,0,1,.45-2.106,3.514,3.514,0,0,1,1.26-1.45,3.167,3.167,0,0,1,1.754-.524,2.968,2.968,0,0,1,2.4,1.018,4.408,4.408,0,0,1,.857,2.915v.564H28.477a2.817,2.817,0,0,0,.685,1.893,2.153,2.153,0,0,0,1.666.721,2.36,2.36,0,0,0,1.216-.293,3.055,3.055,0,0,0,.872-.776l.828.645A3.328,3.328,0,0,1,30.754.146Zm-.168-7.1a1.807,1.807,0,0,0-1.377.6,2.9,2.9,0,0,0-.688,1.674h3.97v-.1a2.581,2.581,0,0,0-.557-1.6A1.7,1.7,0,0,0,30.586-6.958Zm8.657.249a4.061,4.061,0,0,0-.667-.051,1.786,1.786,0,0,0-1.809,1.135V0H35.413V-7.925h1.318l.022.916a2.11,2.11,0,0,1,1.89-1.062,1.384,1.384,0,0,1,.6.1ZM45.088,0a2.846,2.846,0,0,1-.19-.835,3.023,3.023,0,0,1-2.256.981,2.8,2.8,0,0,1-1.923-.663A2.145,2.145,0,0,1,39.968-2.2a2.24,2.24,0,0,1,.941-1.923A4.437,4.437,0,0,1,43.557-4.8h1.318v-.623a1.522,1.522,0,0,0-.425-1.132A1.707,1.707,0,0,0,43.2-6.98a1.976,1.976,0,0,0-1.216.366,1.079,1.079,0,0,0-.491.886H40.129a1.87,1.87,0,0,1,.421-1.146,2.874,2.874,0,0,1,1.143-.875,3.844,3.844,0,0,1,1.586-.322,3.133,3.133,0,0,1,2.146.685A2.47,2.47,0,0,1,46.23-5.5v3.647a4.459,4.459,0,0,0,.278,1.736V0ZM42.839-1.033a2.381,2.381,0,0,0,1.208-.33,1.994,1.994,0,0,0,.828-.857V-3.845H43.813q-2.49,0-2.49,1.458a1.234,1.234,0,0,0,.425,1A1.633,1.633,0,0,0,42.839-1.033ZM49.827,0H48.472V-11.25h1.355Zm3.64,0H52.112V-7.925h1.355ZM52-10.027a.809.809,0,0,1,.2-.557.756.756,0,0,1,.6-.227.768.768,0,0,1,.6.227.8.8,0,0,1,.205.557.774.774,0,0,1-.205.549.782.782,0,0,1-.6.22.77.77,0,0,1-.6-.22A.782.782,0,0,1,52-10.027Zm4.907,8.921h4.636V0H55.254V-1L59.626-6.8H55.32V-7.925h6.006v.959ZM67.961,0a2.846,2.846,0,0,1-.19-.835,3.023,3.023,0,0,1-2.256.981,2.8,2.8,0,0,1-1.923-.663A2.145,2.145,0,0,1,62.842-2.2a2.24,2.24,0,0,1,.941-1.923A4.437,4.437,0,0,1,66.431-4.8h1.318v-.623a1.522,1.522,0,0,0-.425-1.132,1.707,1.707,0,0,0-1.252-.421,1.976,1.976,0,0,0-1.216.366,1.079,1.079,0,0,0-.491.886H63a1.87,1.87,0,0,1,.421-1.146,2.874,2.874,0,0,1,1.143-.875,3.844,3.844,0,0,1,1.586-.322,3.133,3.133,0,0,1,2.146.685A2.47,2.47,0,0,1,69.1-5.5v3.647a4.459,4.459,0,0,0,.278,1.736V0ZM65.713-1.033a2.381,2.381,0,0,0,1.208-.33,1.994,1.994,0,0,0,.828-.857V-3.845H66.687q-2.49,0-2.49,1.458a1.234,1.234,0,0,0,.425,1A1.633,1.633,0,0,0,65.713-1.033Zm8.694.073A1.952,1.952,0,0,0,75.674-1.4a1.546,1.546,0,0,0,.6-1.1h1.282a2.457,2.457,0,0,1-.469,1.3,3.087,3.087,0,0,1-1.154.981,3.329,3.329,0,0,1-1.527.366,3.265,3.265,0,0,1-2.574-1.08,4.3,4.3,0,0,1-.956-2.955v-.227A4.771,4.771,0,0,1,71.3-6.174a3.236,3.236,0,0,1,1.219-1.4,3.464,3.464,0,0,1,1.879-.5,3.178,3.178,0,0,1,2.216.8A2.853,2.853,0,0,1,77.556-5.2H76.274a1.867,1.867,0,0,0-.582-1.263A1.811,1.811,0,0,0,74.4-6.958a1.9,1.9,0,0,0-1.6.743,3.491,3.491,0,0,0-.568,2.15v.256A3.422,3.422,0,0,0,72.8-1.7,1.906,1.906,0,0,0,74.407-.959ZM80.552,0H79.2V-7.925h1.355ZM79.087-10.027a.809.809,0,0,1,.2-.557.756.756,0,0,1,.6-.227.768.768,0,0,1,.6.227.8.8,0,0,1,.205.557.774.774,0,0,1-.205.549.782.782,0,0,1-.6.22.77.77,0,0,1-.6-.22A.782.782,0,0,1,79.087-10.027Zm3.274,5.991a4.681,4.681,0,0,1,.458-2.095,3.415,3.415,0,0,1,1.274-1.436,3.469,3.469,0,0,1,1.864-.505,3.342,3.342,0,0,1,2.618,1.121,4.311,4.311,0,0,1,1,2.981v.1A4.722,4.722,0,0,1,89.132-1.8,3.365,3.365,0,0,1,87.865-.366a3.509,3.509,0,0,1-1.893.513A3.334,3.334,0,0,1,83.361-.974a4.29,4.29,0,0,1-1-2.966Zm1.362.161a3.39,3.39,0,0,0,.612,2.117,1.957,1.957,0,0,0,1.637.8,1.945,1.945,0,0,0,1.641-.809,3.707,3.707,0,0,0,.608-2.267A3.384,3.384,0,0,0,87.6-6.149a1.968,1.968,0,0,0-1.644-.809,1.946,1.946,0,0,0-1.619.8A3.68,3.68,0,0,0,83.723-3.875Zm2.849-7.361h1.641L86.25-9.082l-1.091,0Zm5.984,3.311.044,1a2.888,2.888,0,0,1,2.373-1.143q2.512,0,2.534,2.834V0H96.152V-5.244a1.824,1.824,0,0,0-.392-1.267,1.57,1.57,0,0,0-1.2-.41,1.956,1.956,0,0,0-1.157.352,2.387,2.387,0,0,0-.776.923V0H91.274V-7.925Zm10.8,3.6A11.616,11.616,0,0,1,105.227-9.3a8.447,8.447,0,0,1,2.739-2.673l.044.007.132.842a7.98,7.98,0,0,0-2.01,2.52,12.894,12.894,0,0,0-1.366,4.263l-.015.1a11.1,11.1,0,0,0-.026,4.307A5.671,5.671,0,0,0,105.945,2.6l-.388.791-.044-.007A5.321,5.321,0,0,1,103.645.663a9.508,9.508,0,0,1-.308-4.926Zm4.5.366a6.567,6.567,0,0,1,1.307-3.073,2.922,2.922,0,0,1,2.3-1.036,2.352,2.352,0,0,1,1.165.286,2.2,2.2,0,0,1,.828.813l.308-.952h1.2L113.408-.1a4.168,4.168,0,0,1-1.322,2.472,3.874,3.874,0,0,1-2.574.831,4.393,4.393,0,0,1-1.11-.161,3.457,3.457,0,0,1-1.014-.425l.579-1.121a2.432,2.432,0,0,0,.791.355,3.673,3.673,0,0,0,.981.135,2.048,2.048,0,0,0,1.469-.553,2.817,2.817,0,0,0,.78-1.534l.11-.542a2.892,2.892,0,0,1-.923.6,2.9,2.9,0,0,1-1.084.2,2.114,2.114,0,0,1-1.937-1.146,3.929,3.929,0,0,1-.326-2.816Zm1.384.154a3.207,3.207,0,0,0,.11,2.021,1.344,1.344,0,0,0,1.333.769,1.6,1.6,0,0,0,.941-.3,2.976,2.976,0,0,0,.773-.846l.74-3.691a1.762,1.762,0,0,0-.586-.762,1.575,1.575,0,0,0-.959-.286,1.765,1.765,0,0,0-1.469.8,5.318,5.318,0,0,0-.853,2.135ZM118.557.154a2.568,2.568,0,0,1-2.26-1.11,3.81,3.81,0,0,1-.487-2.853l.051-.322A4.956,4.956,0,0,1,117.25-6.98a3.377,3.377,0,0,1,2.4-1.091,2.3,2.3,0,0,1,2.087.976,3.618,3.618,0,0,1,.381,2.575l-.146.9h-4.775a3.166,3.166,0,0,0,.223,1.923,1.369,1.369,0,0,0,1.315.714,3.366,3.366,0,0,0,1.208-.215,3.4,3.4,0,0,0,.981-.564l.4.939a3.624,3.624,0,0,1-1.143.7A4.355,4.355,0,0,1,118.557.154Zm.916-7.09a1.647,1.647,0,0,0-1.19.615,3.571,3.571,0,0,0-.824,1.523l.022.044h3.259l.029-.19a2.217,2.217,0,0,0-.168-1.439A1.176,1.176,0,0,0,119.473-6.936Zm6.1.1a3.459,3.459,0,0,1,1.095-.919,2.8,2.8,0,0,1,1.315-.319,1.9,1.9,0,0,1,1.663.762A2.964,2.964,0,0,1,129.88-5l-1,5h-1.414l1-4.973a2.163,2.163,0,0,0-.059-1.52,1.231,1.231,0,0,0-1.084-.406,1.925,1.925,0,0,0-1.018.311,3.138,3.138,0,0,0-.886.831L124.263,0h-1.414l1.582-7.925H125.7ZM134.063.154a2.568,2.568,0,0,1-2.26-1.11,3.81,3.81,0,0,1-.487-2.853l.051-.322a4.956,4.956,0,0,1,1.388-2.849,3.377,3.377,0,0,1,2.4-1.091,2.3,2.3,0,0,1,2.087.976,3.618,3.618,0,0,1,.381,2.575l-.146.9H132.7a3.166,3.166,0,0,0,.223,1.923,1.369,1.369,0,0,0,1.315.714,3.366,3.366,0,0,0,1.208-.215,3.4,3.4,0,0,0,.981-.564l.4.939a3.624,3.624,0,0,1-1.143.7A4.355,4.355,0,0,1,134.063.154Zm.916-7.09a1.647,1.647,0,0,0-1.19.615,3.571,3.571,0,0,0-.824,1.523l.022.044h3.259l.029-.19a2.217,2.217,0,0,0-.168-1.439A1.176,1.176,0,0,0,134.978-6.936Zm8.291.286-.776-.044a1.557,1.557,0,0,0-.89.275,2.417,2.417,0,0,0-.707.773L139.768,0h-1.414l1.582-7.925H141.2l-.088,1.062a3.171,3.171,0,0,1,.927-.894,2.094,2.094,0,0,1,1.11-.315,2.173,2.173,0,0,1,.319.026,1.412,1.412,0,0,1,.253.055ZM147.839,0q0-.359.015-.59t.051-.472a4.54,4.54,0,0,1-1.124.868,2.618,2.618,0,0,1-1.271.348,1.922,1.922,0,0,1-1.6-.648,2,2,0,0,1-.289-1.732,2.631,2.631,0,0,1,1.19-1.813,4.515,4.515,0,0,1,2.45-.6h1.355l.154-.784a1.334,1.334,0,0,0-.161-1.124,1.239,1.239,0,0,0-1.025-.385,1.847,1.847,0,0,0-1.113.363,1.382,1.382,0,0,0-.593.846h-1.34l-.015-.044a2.484,2.484,0,0,1,1.1-1.608,3.757,3.757,0,0,1,2.271-.692,2.489,2.489,0,0,1,1.864.7,2.066,2.066,0,0,1,.436,1.959L149.429-1.6a7.386,7.386,0,0,0-.132.828,4.047,4.047,0,0,0,0,.769Zm-1.875-1.055a2.464,2.464,0,0,0,1.208-.344,2.873,2.873,0,0,0,.952-.813l.293-1.458h-1.4a2.079,2.079,0,0,0-1.3.447,1.7,1.7,0,0,0-.688,1.025,1.014,1.014,0,0,0,.11.853A1,1,0,0,0,145.964-1.055ZM152.615,0H151.2l2.285-11.426H154.9Zm3.633,0h-1.414l1.582-7.925h1.414Zm1.992-9.954h-1.414l.293-1.472h1.414Zm1.714,8.782.015.037h4.167L163.909,0h-5.867l.205-1.011,5.076-5.742-.015-.037h-3.875l.227-1.135h5.61l-.19.981ZM169.988,0q0-.359.015-.59t.051-.472a4.54,4.54,0,0,1-1.124.868,2.618,2.618,0,0,1-1.271.348,1.922,1.922,0,0,1-1.6-.648,2,2,0,0,1-.289-1.732,2.631,2.631,0,0,1,1.19-1.813,4.515,4.515,0,0,1,2.45-.6h1.355l.154-.784a1.334,1.334,0,0,0-.161-1.124,1.239,1.239,0,0,0-1.025-.385,1.847,1.847,0,0,0-1.113.363,1.382,1.382,0,0,0-.593.846h-1.34l-.015-.044a2.484,2.484,0,0,1,1.1-1.608,3.757,3.757,0,0,1,2.271-.692,2.489,2.489,0,0,1,1.864.7,2.066,2.066,0,0,1,.436,1.959L171.577-1.6a7.386,7.386,0,0,0-.132.828,4.047,4.047,0,0,0,0,.769Zm-1.875-1.055a2.464,2.464,0,0,0,1.208-.344,2.873,2.873,0,0,0,.952-.813l.293-1.458h-1.4a2.079,2.079,0,0,0-1.3.447,1.7,1.7,0,0,0-.688,1.025,1.014,1.014,0,0,0,.11.853A1,1,0,0,0,168.113-1.055Zm8.972-8.782L176.7-7.925h1.37l-.212,1.069h-1.37l-.959,4.812a1.049,1.049,0,0,0,.037.8.616.616,0,0,0,.52.209,3.034,3.034,0,0,0,.406-.033,3.364,3.364,0,0,0,.377-.07l-.007.989a1.942,1.942,0,0,1-.6.216,3.669,3.669,0,0,1-.773.084A1.4,1.4,0,0,1,174.3-.388a2.027,2.027,0,0,1-.187-1.655l.959-4.812h-1.157l.212-1.069h1.157l.388-1.912ZM179.773,0h-1.414l1.582-7.925h1.414Zm1.992-9.954h-1.414l.293-1.472h1.414Zm.579,5.918a5.353,5.353,0,0,1,1.344-2.933,3.445,3.445,0,0,1,2.6-1.1A2.457,2.457,0,0,1,188.5-6.925a4.024,4.024,0,0,1,.458,2.889l-.022.161a5.361,5.361,0,0,1-1.351,2.933,3.456,3.456,0,0,1-2.6,1.095,2.459,2.459,0,0,1-2.216-1.143,3.988,3.988,0,0,1-.45-2.886Zm1.392.157a3.831,3.831,0,0,0,.128,2.1,1.284,1.284,0,0,0,1.3.794,1.863,1.863,0,0,0,1.523-.83,4.547,4.547,0,0,0,.828-2.067l.022-.161a3.821,3.821,0,0,0-.139-2.092,1.278,1.278,0,0,0-1.289-.8,1.858,1.858,0,0,0-1.527.834,4.59,4.59,0,0,0-.824,2.063Zm8.9-2.955a3.459,3.459,0,0,1,1.095-.919,2.8,2.8,0,0,1,1.315-.319,1.9,1.9,0,0,1,1.663.762A2.964,2.964,0,0,1,196.941-5l-1,5h-1.414l1-4.973a2.163,2.163,0,0,0-.059-1.52,1.231,1.231,0,0,0-1.084-.406,1.925,1.925,0,0,0-1.018.311,3.138,3.138,0,0,0-.886.831L191.323,0H189.91l1.582-7.925h1.267Zm8.877,2.571A11.624,11.624,0,0,1,199.625.707a8.7,8.7,0,0,1-2.736,2.684l-.044-.007L196.7,2.6A7.948,7.948,0,0,0,198.706.062a13.337,13.337,0,0,0,1.392-4.31l.015-.1a10.938,10.938,0,0,0-.022-4.307,6.016,6.016,0,0,0-1.187-2.542l.4-.791.044.007A5.461,5.461,0,0,1,201.2-9.243a9.539,9.539,0,0,1,.326,4.915Z" transform="translate(321.671 -5169.238)" fill="#fff"/>
  </g>
</svg>
