<svg xmlns="http://www.w3.org/2000/svg" xmlns:xlink="http://www.w3.org/1999/xlink" width="358.466" height="250.973" viewBox="0 0 358.466 250.973">
  <defs>
    <clipPath id="clip-path">
      <rect id="Rectángulo_33977" data-name="Rectángulo 33977" width="236.212" height="241.436" fill="none"/>
    </clipPath>
    <clipPath id="clip-path-2">
      <rect id="Rectángulo_33770" data-name="Rectángulo 33770" width="248.248" height="245.212" fill="none"/>
    </clipPath>
    <clipPath id="clip-path-3">
      <path id="Trazado_228552" data-name="Trazado 228552" d="M374.607,90.159l40.42,133.413c13.255,43.761,49.759,52.29,81.114,18.954L591.734,140.9c31.359-33.336,20.51-69.142-24.1-79.568L431.619,29.546a79.519,79.519,0,0,0-18.046-2.221c-33.154,0-50.314,25.38-38.966,62.834" transform="translate(-371.113 -27.325)" fill="none"/>
    </clipPath>
  </defs>
  <g id="Grupo_183688" data-name="Grupo 183688" transform="translate(-241.872 -4345.384)">
    <g id="Grupo_182856" data-name="Grupo 182856" transform="translate(272.769 4340.459)" opacity="0.308">
      <g id="Grupo_175327" data-name="Grupo 175327" transform="translate(0 4.924)">
        <g id="Grupo_175306" data-name="Grupo 175306" transform="translate(0 0)" opacity="0.3" style="mix-blend-mode: multiply;isolation: isolate">
          <g id="Grupo_80130" data-name="Grupo 80130">
            <g id="Grupo_80129" data-name="Grupo 80129" clip-path="url(#clip-path)">
              <path id="Trazado_113552" data-name="Trazado 113552" d="M570.6,158.764l-2.812,2.95-9.1,47.89c-4.06,21.343-14.3,35.887-28.829,40.953s-31.622.048-48.116-14.127L375.9,145.468c-15.187-13.052-22.854-28.015-21.588-42.133,1.092-12.156,8.92-23.15,22.059-31a12.158,12.158,0,0,0-.424-2.233l-.241.21c-13.971,8.215-22.3,19.877-23.468,32.838-1.328,14.8,6.593,30.391,22.3,43.894L480.381,238c17.086,14.682,34.9,19.836,50.164,14.514s25.986-20.424,30.187-42.524l9.285-48.856Z" transform="translate(-352.092 -13.126)" fill="#f4a338"/>
              <path id="Trazado_113553" data-name="Trazado 113553" d="M459.752,41.418l3.766.8L500.285,29.4c18.981-6.617,35.836-5.736,47.463,2.483,10.1,7.137,15.7,19.618,15.792,35.161,0,.086,2.088.868,2.088.954l0-.7c-.03-16.356-5.95-29.536-16.672-37.114-12.19-8.617-29.717-9.593-49.355-2.748L461.309,40.787Z" transform="translate(-329.416 -22.931)" fill="#f4a338"/>
            </g>
          </g>
        </g>
        <path id="Trazado_228551" data-name="Trazado 228551" d="M457.631,268.537c-20.949,0-38.295-15.978-46.4-42.737L370.811,92.388c-6.267-20.685-4.491-39.1,5-51.856,8.256-11.1,21.967-17.207,38.6-17.207a84.626,84.626,0,0,1,19.149,2.349L569.574,57.456c23.333,5.451,38.986,17.7,44.073,34.5S612.505,127.6,596.1,145.033L500.512,246.664c-13.46,14.309-28.288,21.873-42.882,21.873" transform="translate(-348.925 -22.849)" fill="#fff"/>
        <g id="Grupo_175307" data-name="Grupo 175307" transform="translate(15.782 5.761)" opacity="0.1" style="mix-blend-mode: multiply;isolation: isolate">
          <g id="Grupo_80119" data-name="Grupo 80119">
            <g id="Grupo_80118" data-name="Grupo 80118" clip-path="url(#clip-path-2)">
              <path id="Trazado_113550" data-name="Trazado 113550" d="M455.631,272.912c-20.949,0-38.295-15.978-46.4-42.737L368.811,96.763c-6.267-20.685-4.491-39.1,5-51.856,8.256-11.1,21.967-17.207,38.6-17.207a84.627,84.627,0,0,1,19.149,2.349L567.574,61.831c23.334,5.451,38.986,17.7,44.073,34.5s-1.142,35.644-17.542,53.079L498.512,251.039c-13.46,14.309-28.287,21.873-42.882,21.873" transform="translate(-365.128 -27.7)"/>
            </g>
          </g>
        </g>
        <g id="Grupo_175311" data-name="Grupo 175311" transform="translate(23.028 5.308)" clip-path="url(#clip-path-3)">
          <rect id="Rectángulo_54221" data-name="Rectángulo 54221" width="13.229" height="13.194" transform="translate(-13.554 -23.352)" fill="#fff"/>
          <rect id="Rectángulo_54222" data-name="Rectángulo 54222" width="13.227" height="13.194" transform="translate(12.9 -23.352)" fill="#fff"/>
          <rect id="Rectángulo_54223" data-name="Rectángulo 54223" width="13.235" height="13.194" transform="translate(39.346 -23.352)" fill="#fff"/>
          <rect id="Rectángulo_54224" data-name="Rectángulo 54224" width="13.224" height="13.194" transform="translate(65.804 -23.352)" fill="#fff"/>
          <rect id="Rectángulo_54225" data-name="Rectángulo 54225" width="13.226" height="13.194" transform="translate(92.257 -23.352)" fill="#fff"/>
          <rect id="Rectángulo_54226" data-name="Rectángulo 54226" width="13.232" height="13.194" transform="translate(118.704 -23.352)" fill="#fff"/>
          <rect id="Rectángulo_54227" data-name="Rectángulo 54227" width="13.229" height="13.194" transform="translate(145.157 -23.352)" fill="#fff"/>
          <rect id="Rectángulo_54228" data-name="Rectángulo 54228" width="13.235" height="13.194" transform="translate(171.604 -23.352)" fill="#fff"/>
          <rect id="Rectángulo_54229" data-name="Rectángulo 54229" width="13.224" height="13.194" transform="translate(198.062 -23.352)" fill="#fff"/>
          <rect id="Rectángulo_54230" data-name="Rectángulo 54230" width="13.218" height="13.194" transform="translate(224.515 -23.352)" fill="#fff"/>
          <rect id="Rectángulo_54231" data-name="Rectángulo 54231" width="13.229" height="13.192" transform="translate(237.734 -10.158)" fill="#fff"/>
          <rect id="Rectángulo_54232" data-name="Rectángulo 54232" width="13.229" height="13.192" transform="translate(211.287 -10.158)" fill="#fff"/>
          <rect id="Rectángulo_54233" data-name="Rectángulo 54233" width="13.224" height="13.192" transform="translate(184.838 -10.158)" fill="#fff"/>
          <rect id="Rectángulo_54234" data-name="Rectángulo 54234" width="13.218" height="13.192" transform="translate(158.386 -10.158)" fill="#fff"/>
          <rect id="Rectángulo_54235" data-name="Rectángulo 54235" width="13.221" height="13.192" transform="translate(131.936 -10.158)" fill="#fff"/>
          <rect id="Rectángulo_54236" data-name="Rectángulo 54236" width="13.221" height="13.192" transform="translate(105.483 -10.158)" fill="#fff"/>
          <rect id="Rectángulo_54237" data-name="Rectángulo 54237" width="13.23" height="13.192" transform="translate(79.027 -10.158)" fill="#fff"/>
          <rect id="Rectángulo_54238" data-name="Rectángulo 54238" width="13.224" height="13.192" transform="translate(52.581 -10.158)" fill="#fff"/>
          <rect id="Rectángulo_54239" data-name="Rectángulo 54239" width="13.219" height="13.192" transform="translate(26.127 -10.158)" fill="#fff"/>
          <rect id="Rectángulo_54240" data-name="Rectángulo 54240" width="13.224" height="13.192" transform="translate(-0.325 -10.158)" fill="#fff"/>
          <rect id="Rectángulo_54241" data-name="Rectángulo 54241" width="13.229" height="13.198" transform="translate(-13.554 3.034)" fill="#fff"/>
          <rect id="Rectángulo_54242" data-name="Rectángulo 54242" width="13.227" height="13.198" transform="translate(12.9 3.034)" fill="#fff"/>
          <rect id="Rectángulo_54243" data-name="Rectángulo 54243" width="13.235" height="13.198" transform="translate(39.346 3.034)" fill="#fff"/>
          <rect id="Rectángulo_54244" data-name="Rectángulo 54244" width="13.224" height="13.198" transform="translate(65.804 3.034)" fill="#fff"/>
          <rect id="Rectángulo_54245" data-name="Rectángulo 54245" width="13.226" height="13.198" transform="translate(92.257 3.034)" fill="#fff"/>
          <rect id="Rectángulo_54246" data-name="Rectángulo 54246" width="13.232" height="13.198" transform="translate(118.704 3.034)" fill="#fff"/>
          <rect id="Rectángulo_54247" data-name="Rectángulo 54247" width="13.229" height="13.198" transform="translate(145.157 3.034)" fill="#fff"/>
          <rect id="Rectángulo_54248" data-name="Rectángulo 54248" width="13.235" height="13.198" transform="translate(171.604 3.034)" fill="#fff"/>
          <rect id="Rectángulo_54249" data-name="Rectángulo 54249" width="13.224" height="13.198" transform="translate(198.062 3.034)" fill="#fff"/>
          <rect id="Rectángulo_54250" data-name="Rectángulo 54250" width="13.218" height="13.198" transform="translate(224.515 3.034)" fill="#fff"/>
          <rect id="Rectángulo_54251" data-name="Rectángulo 54251" width="13.229" height="13.192" transform="translate(237.734 16.233)" fill="#fff"/>
          <rect id="Rectángulo_54252" data-name="Rectángulo 54252" width="13.229" height="13.192" transform="translate(211.287 16.233)" fill="#fff"/>
          <rect id="Rectángulo_54253" data-name="Rectángulo 54253" width="13.224" height="13.192" transform="translate(184.838 16.233)" fill="#fff"/>
          <rect id="Rectángulo_54254" data-name="Rectángulo 54254" width="13.218" height="13.192" transform="translate(158.386 16.233)" fill="#fff"/>
          <rect id="Rectángulo_54255" data-name="Rectángulo 54255" width="13.221" height="13.192" transform="translate(131.936 16.233)" fill="#fff"/>
          <rect id="Rectángulo_54256" data-name="Rectángulo 54256" width="13.221" height="13.192" transform="translate(105.483 16.233)" fill="#fff"/>
          <rect id="Rectángulo_54257" data-name="Rectángulo 54257" width="13.23" height="13.192" transform="translate(79.027 16.233)" fill="#fff"/>
          <rect id="Rectángulo_54258" data-name="Rectángulo 54258" width="13.224" height="13.192" transform="translate(52.581 16.233)" fill="#fff"/>
          <rect id="Rectángulo_54259" data-name="Rectángulo 54259" width="13.219" height="13.192" transform="translate(26.127 16.233)" fill="#fff"/>
          <rect id="Rectángulo_54260" data-name="Rectángulo 54260" width="13.224" height="13.192" transform="translate(-0.325 16.233)" fill="#fff"/>
          <rect id="Rectángulo_54261" data-name="Rectángulo 54261" width="13.229" height="13.202" transform="translate(-13.554 29.425)" fill="#fff"/>
          <rect id="Rectángulo_54262" data-name="Rectángulo 54262" width="13.227" height="13.202" transform="translate(12.9 29.425)" fill="#fff"/>
          <rect id="Rectángulo_54263" data-name="Rectángulo 54263" width="13.235" height="13.202" transform="translate(39.346 29.425)" fill="#fff"/>
          <rect id="Rectángulo_54264" data-name="Rectángulo 54264" width="13.224" height="13.202" transform="translate(65.804 29.425)" fill="#fff"/>
          <rect id="Rectángulo_54265" data-name="Rectángulo 54265" width="13.226" height="13.202" transform="translate(92.257 29.425)" fill="#fff"/>
          <rect id="Rectángulo_54266" data-name="Rectángulo 54266" width="13.232" height="13.202" transform="translate(118.704 29.425)" fill="#fff"/>
          <rect id="Rectángulo_54267" data-name="Rectángulo 54267" width="13.229" height="13.202" transform="translate(145.157 29.425)" fill="#fff"/>
          <rect id="Rectángulo_54268" data-name="Rectángulo 54268" width="13.235" height="13.202" transform="translate(171.604 29.425)" fill="#fff"/>
          <rect id="Rectángulo_54269" data-name="Rectángulo 54269" width="13.224" height="13.202" transform="translate(198.062 29.425)" fill="#fff"/>
          <rect id="Rectángulo_54270" data-name="Rectángulo 54270" width="13.218" height="13.202" transform="translate(224.515 29.425)" fill="#fff"/>
          <rect id="Rectángulo_54271" data-name="Rectángulo 54271" width="13.229" height="13.197" transform="translate(237.734 42.627)" fill="#fff"/>
          <rect id="Rectángulo_54272" data-name="Rectángulo 54272" width="13.229" height="13.197" transform="translate(211.287 42.627)" fill="#fff"/>
          <rect id="Rectángulo_54273" data-name="Rectángulo 54273" width="13.224" height="13.197" transform="translate(184.838 42.627)" fill="#fff"/>
          <rect id="Rectángulo_54274" data-name="Rectángulo 54274" width="13.218" height="13.197" transform="translate(158.386 42.627)" fill="#fff"/>
          <rect id="Rectángulo_54275" data-name="Rectángulo 54275" width="13.221" height="13.197" transform="translate(131.936 42.627)" fill="#fff"/>
          <rect id="Rectángulo_54276" data-name="Rectángulo 54276" width="13.221" height="13.197" transform="translate(105.483 42.627)" fill="#fff"/>
          <rect id="Rectángulo_54277" data-name="Rectángulo 54277" width="13.23" height="13.197" transform="translate(79.027 42.627)" fill="#fff"/>
          <rect id="Rectángulo_54278" data-name="Rectángulo 54278" width="13.224" height="13.197" transform="translate(52.581 42.627)" fill="#fff"/>
          <rect id="Rectángulo_54279" data-name="Rectángulo 54279" width="13.219" height="13.197" transform="translate(26.127 42.627)" fill="#fff"/>
          <rect id="Rectángulo_54280" data-name="Rectángulo 54280" width="13.224" height="13.197" transform="translate(-0.325 42.627)" fill="#fff"/>
          <rect id="Rectángulo_54281" data-name="Rectángulo 54281" width="13.229" height="13.194" transform="translate(-13.554 55.824)" fill="#fff"/>
          <rect id="Rectángulo_54282" data-name="Rectángulo 54282" width="13.227" height="13.194" transform="translate(12.9 55.824)" fill="#fff"/>
          <rect id="Rectángulo_54283" data-name="Rectángulo 54283" width="13.235" height="13.194" transform="translate(39.346 55.824)" fill="#fff"/>
          <rect id="Rectángulo_54284" data-name="Rectángulo 54284" width="13.224" height="13.194" transform="translate(65.804 55.824)" fill="#fff"/>
          <rect id="Rectángulo_54285" data-name="Rectángulo 54285" width="13.226" height="13.194" transform="translate(92.257 55.824)" fill="#fff"/>
          <rect id="Rectángulo_54286" data-name="Rectángulo 54286" width="13.232" height="13.194" transform="translate(118.704 55.824)" fill="#fff"/>
          <rect id="Rectángulo_54287" data-name="Rectángulo 54287" width="13.229" height="13.194" transform="translate(145.157 55.824)" fill="#fff"/>
          <rect id="Rectángulo_54288" data-name="Rectángulo 54288" width="13.235" height="13.194" transform="translate(171.604 55.824)" fill="#fff"/>
          <rect id="Rectángulo_54289" data-name="Rectángulo 54289" width="13.224" height="13.194" transform="translate(198.062 55.824)" fill="#fff"/>
          <rect id="Rectángulo_54290" data-name="Rectángulo 54290" width="13.218" height="13.194" transform="translate(224.515 55.824)" fill="#fff"/>
          <rect id="Rectángulo_54291" data-name="Rectángulo 54291" width="13.229" height="13.194" transform="translate(237.734 69.018)" fill="#fff"/>
          <rect id="Rectángulo_54292" data-name="Rectángulo 54292" width="13.229" height="13.194" transform="translate(211.287 69.018)" fill="#fff"/>
          <rect id="Rectángulo_54293" data-name="Rectángulo 54293" width="13.224" height="13.194" transform="translate(184.838 69.018)" fill="#fff"/>
          <rect id="Rectángulo_54294" data-name="Rectángulo 54294" width="13.218" height="13.194" transform="translate(158.386 69.018)" fill="#fff"/>
          <rect id="Rectángulo_54295" data-name="Rectángulo 54295" width="13.221" height="13.194" transform="translate(131.936 69.018)" fill="#fff"/>
          <rect id="Rectángulo_54296" data-name="Rectángulo 54296" width="13.221" height="13.194" transform="translate(105.483 69.018)" fill="#fff"/>
          <rect id="Rectángulo_54297" data-name="Rectángulo 54297" width="13.23" height="13.194" transform="translate(79.027 69.018)" fill="#fff"/>
          <rect id="Rectángulo_54298" data-name="Rectángulo 54298" width="13.224" height="13.194" transform="translate(52.581 69.018)" fill="#fff"/>
          <rect id="Rectángulo_54299" data-name="Rectángulo 54299" width="13.219" height="13.194" transform="translate(26.127 69.018)" fill="#fff"/>
          <rect id="Rectángulo_54300" data-name="Rectángulo 54300" width="13.224" height="13.194" transform="translate(-0.325 69.018)" fill="#fff"/>
          <rect id="Rectángulo_54301" data-name="Rectángulo 54301" width="13.229" height="13.195" transform="translate(-13.554 82.212)" fill="#fff"/>
          <rect id="Rectángulo_54302" data-name="Rectángulo 54302" width="13.227" height="13.195" transform="translate(12.9 82.212)" fill="#fff"/>
          <rect id="Rectángulo_54303" data-name="Rectángulo 54303" width="13.235" height="13.195" transform="translate(39.346 82.212)" fill="#fff"/>
          <rect id="Rectángulo_54304" data-name="Rectángulo 54304" width="13.224" height="13.195" transform="translate(65.804 82.212)" fill="#fff"/>
          <rect id="Rectángulo_54305" data-name="Rectángulo 54305" width="13.226" height="13.195" transform="translate(92.257 82.212)" fill="#fff"/>
          <rect id="Rectángulo_54306" data-name="Rectángulo 54306" width="13.232" height="13.195" transform="translate(118.704 82.212)" fill="#fff"/>
          <rect id="Rectángulo_54307" data-name="Rectángulo 54307" width="13.229" height="13.195" transform="translate(145.157 82.212)" fill="#fff"/>
          <rect id="Rectángulo_54308" data-name="Rectángulo 54308" width="13.235" height="13.195" transform="translate(171.604 82.212)" fill="#fff"/>
          <rect id="Rectángulo_54309" data-name="Rectángulo 54309" width="13.224" height="13.195" transform="translate(198.062 82.212)" fill="#fff"/>
          <rect id="Rectángulo_54310" data-name="Rectángulo 54310" width="13.218" height="13.195" transform="translate(224.515 82.212)" fill="#fff"/>
          <rect id="Rectángulo_54311" data-name="Rectángulo 54311" width="13.229" height="13.2" transform="translate(237.734 95.406)" fill="#fff"/>
          <rect id="Rectángulo_54312" data-name="Rectángulo 54312" width="13.229" height="13.2" transform="translate(211.287 95.406)" fill="#fff"/>
          <rect id="Rectángulo_54313" data-name="Rectángulo 54313" width="13.224" height="13.2" transform="translate(184.838 95.406)" fill="#fff"/>
          <rect id="Rectángulo_54314" data-name="Rectángulo 54314" width="13.218" height="13.2" transform="translate(158.386 95.406)" fill="#fff"/>
          <rect id="Rectángulo_54315" data-name="Rectángulo 54315" width="13.221" height="13.2" transform="translate(131.936 95.406)" fill="#fff"/>
          <rect id="Rectángulo_54316" data-name="Rectángulo 54316" width="13.221" height="13.2" transform="translate(105.483 95.406)" fill="#fff"/>
          <rect id="Rectángulo_54317" data-name="Rectángulo 54317" width="13.23" height="13.2" transform="translate(79.027 95.406)" fill="#fff"/>
          <rect id="Rectángulo_54318" data-name="Rectángulo 54318" width="13.224" height="13.2" transform="translate(52.581 95.406)" fill="#fff"/>
          <rect id="Rectángulo_54319" data-name="Rectángulo 54319" width="13.219" height="13.2" transform="translate(26.127 95.406)" fill="#fff"/>
          <rect id="Rectángulo_54320" data-name="Rectángulo 54320" width="13.224" height="13.2" transform="translate(-0.325 95.406)" fill="#fff"/>
          <rect id="Rectángulo_54321" data-name="Rectángulo 54321" width="13.229" height="13.194" transform="translate(-13.554 108.605)" fill="#fff"/>
          <rect id="Rectángulo_54322" data-name="Rectángulo 54322" width="13.227" height="13.194" transform="translate(12.9 108.605)" fill="#fff"/>
          <rect id="Rectángulo_54323" data-name="Rectángulo 54323" width="13.235" height="13.194" transform="translate(39.346 108.605)" fill="#fff"/>
          <rect id="Rectángulo_54324" data-name="Rectángulo 54324" width="13.224" height="13.194" transform="translate(65.804 108.605)" fill="#fff"/>
          <rect id="Rectángulo_54325" data-name="Rectángulo 54325" width="13.226" height="13.194" transform="translate(92.257 108.605)" fill="#fff"/>
          <rect id="Rectángulo_54326" data-name="Rectángulo 54326" width="13.232" height="13.194" transform="translate(118.704 108.605)" fill="#fff"/>
          <rect id="Rectángulo_54327" data-name="Rectángulo 54327" width="13.229" height="13.194" transform="translate(145.157 108.605)" fill="#fff"/>
          <rect id="Rectángulo_54328" data-name="Rectángulo 54328" width="13.235" height="13.194" transform="translate(171.604 108.605)" fill="#fff"/>
          <rect id="Rectángulo_54329" data-name="Rectángulo 54329" width="13.224" height="13.194" transform="translate(198.062 108.605)" fill="#fff"/>
          <rect id="Rectángulo_54330" data-name="Rectángulo 54330" width="13.218" height="13.194" transform="translate(224.515 108.605)" fill="#fff"/>
          <rect id="Rectángulo_54331" data-name="Rectángulo 54331" width="13.229" height="13.194" transform="translate(237.734 121.798)" fill="#fff"/>
          <rect id="Rectángulo_54332" data-name="Rectángulo 54332" width="13.229" height="13.194" transform="translate(211.287 121.798)" fill="#fff"/>
          <rect id="Rectángulo_54333" data-name="Rectángulo 54333" width="13.224" height="13.194" transform="translate(184.838 121.798)" fill="#fff"/>
          <rect id="Rectángulo_54334" data-name="Rectángulo 54334" width="13.218" height="13.194" transform="translate(158.386 121.798)" fill="#fff"/>
          <rect id="Rectángulo_54335" data-name="Rectángulo 54335" width="13.221" height="13.194" transform="translate(131.936 121.798)" fill="#fff"/>
          <rect id="Rectángulo_54336" data-name="Rectángulo 54336" width="13.221" height="13.194" transform="translate(105.483 121.798)" fill="#fff"/>
          <rect id="Rectángulo_54337" data-name="Rectángulo 54337" width="13.23" height="13.194" transform="translate(79.027 121.798)" fill="#fff"/>
          <rect id="Rectángulo_54338" data-name="Rectángulo 54338" width="13.224" height="13.194" transform="translate(52.581 121.798)" fill="#fff"/>
          <rect id="Rectángulo_54339" data-name="Rectángulo 54339" width="13.219" height="13.194" transform="translate(26.127 121.798)" fill="#fff"/>
          <rect id="Rectángulo_54340" data-name="Rectángulo 54340" width="13.224" height="13.194" transform="translate(-0.325 121.798)" fill="#fff"/>
          <rect id="Rectángulo_54341" data-name="Rectángulo 54341" width="13.229" height="13.2" transform="translate(-13.554 134.992)" fill="#fff"/>
          <rect id="Rectángulo_54342" data-name="Rectángulo 54342" width="13.227" height="13.2" transform="translate(12.9 134.992)" fill="#fff"/>
          <rect id="Rectángulo_54343" data-name="Rectángulo 54343" width="13.235" height="13.2" transform="translate(39.346 134.992)" fill="#fff"/>
          <rect id="Rectángulo_54344" data-name="Rectángulo 54344" width="13.224" height="13.2" transform="translate(65.804 134.992)" fill="#fff"/>
          <rect id="Rectángulo_54345" data-name="Rectángulo 54345" width="13.226" height="13.2" transform="translate(92.257 134.992)" fill="#fff"/>
          <rect id="Rectángulo_54346" data-name="Rectángulo 54346" width="13.232" height="13.2" transform="translate(118.704 134.992)" fill="#fff"/>
          <rect id="Rectángulo_54347" data-name="Rectángulo 54347" width="13.229" height="13.2" transform="translate(145.157 134.992)" fill="#fff"/>
          <rect id="Rectángulo_54348" data-name="Rectángulo 54348" width="13.235" height="13.2" transform="translate(171.604 134.992)" fill="#fff"/>
          <rect id="Rectángulo_54349" data-name="Rectángulo 54349" width="13.224" height="13.2" transform="translate(198.062 134.992)" fill="#fff"/>
          <rect id="Rectángulo_54350" data-name="Rectángulo 54350" width="13.218" height="13.2" transform="translate(224.515 134.992)" fill="#fff"/>
          <rect id="Rectángulo_54351" data-name="Rectángulo 54351" width="13.229" height="13.185" transform="translate(237.734 148.192)" fill="#fff"/>
          <rect id="Rectángulo_54352" data-name="Rectángulo 54352" width="13.229" height="13.185" transform="translate(211.287 148.192)" fill="#fff"/>
          <rect id="Rectángulo_54353" data-name="Rectángulo 54353" width="13.224" height="13.185" transform="translate(184.838 148.192)" fill="#fff"/>
          <rect id="Rectángulo_54354" data-name="Rectángulo 54354" width="13.218" height="13.185" transform="translate(158.386 148.192)" fill="#fff"/>
          <rect id="Rectángulo_54355" data-name="Rectángulo 54355" width="13.221" height="13.185" transform="translate(131.936 148.192)" fill="#fff"/>
          <rect id="Rectángulo_54356" data-name="Rectángulo 54356" width="13.221" height="13.185" transform="translate(105.483 148.192)" fill="#fff"/>
          <rect id="Rectángulo_54357" data-name="Rectángulo 54357" width="13.23" height="13.185" transform="translate(79.027 148.192)" fill="#fff"/>
          <rect id="Rectángulo_54358" data-name="Rectángulo 54358" width="13.224" height="13.185" transform="translate(52.581 148.192)" fill="#fff"/>
          <rect id="Rectángulo_54359" data-name="Rectángulo 54359" width="13.219" height="13.185" transform="translate(26.127 148.192)" fill="#fff"/>
          <rect id="Rectángulo_54360" data-name="Rectángulo 54360" width="13.224" height="13.185" transform="translate(-0.325 148.192)" fill="#fff"/>
          <rect id="Rectángulo_54361" data-name="Rectángulo 54361" width="13.229" height="13.207" transform="translate(-13.554 161.377)" fill="#fff"/>
          <rect id="Rectángulo_54362" data-name="Rectángulo 54362" width="13.227" height="13.207" transform="translate(12.9 161.377)" fill="#fff"/>
          <rect id="Rectángulo_54363" data-name="Rectángulo 54363" width="13.235" height="13.207" transform="translate(39.346 161.377)" fill="#fff"/>
          <rect id="Rectángulo_54364" data-name="Rectángulo 54364" width="13.224" height="13.207" transform="translate(65.804 161.377)" fill="#fff"/>
          <rect id="Rectángulo_54365" data-name="Rectángulo 54365" width="13.226" height="13.207" transform="translate(92.257 161.377)" fill="#fff"/>
          <rect id="Rectángulo_54366" data-name="Rectángulo 54366" width="13.232" height="13.207" transform="translate(118.704 161.377)" fill="#fff"/>
          <rect id="Rectángulo_54367" data-name="Rectángulo 54367" width="13.229" height="13.207" transform="translate(145.157 161.377)" fill="#fff"/>
          <rect id="Rectángulo_54368" data-name="Rectángulo 54368" width="13.235" height="13.207" transform="translate(171.604 161.377)" fill="#fff"/>
          <rect id="Rectángulo_54369" data-name="Rectángulo 54369" width="13.224" height="13.207" transform="translate(198.062 161.377)" fill="#fff"/>
          <rect id="Rectángulo_54370" data-name="Rectángulo 54370" width="13.218" height="13.207" transform="translate(224.515 161.377)" fill="#fff"/>
          <rect id="Rectángulo_54371" data-name="Rectángulo 54371" width="13.229" height="13.194" transform="translate(237.734 174.584)" fill="#fff"/>
          <rect id="Rectángulo_54372" data-name="Rectángulo 54372" width="13.229" height="13.194" transform="translate(211.287 174.584)" fill="#fff"/>
          <rect id="Rectángulo_54373" data-name="Rectángulo 54373" width="13.224" height="13.194" transform="translate(184.838 174.584)" fill="#fff"/>
          <rect id="Rectángulo_54374" data-name="Rectángulo 54374" width="13.218" height="13.194" transform="translate(158.386 174.584)" fill="#fff"/>
          <rect id="Rectángulo_54375" data-name="Rectángulo 54375" width="13.221" height="13.194" transform="translate(131.936 174.584)" fill="#fff"/>
          <rect id="Rectángulo_54376" data-name="Rectángulo 54376" width="13.221" height="13.194" transform="translate(105.483 174.584)" fill="#fff"/>
          <rect id="Rectángulo_54377" data-name="Rectángulo 54377" width="13.23" height="13.194" transform="translate(79.027 174.584)" fill="#fff"/>
          <rect id="Rectángulo_54378" data-name="Rectángulo 54378" width="13.224" height="13.194" transform="translate(52.581 174.584)" fill="#fff"/>
          <rect id="Rectángulo_54379" data-name="Rectángulo 54379" width="13.219" height="13.194" transform="translate(26.127 174.584)" fill="#fff"/>
          <rect id="Rectángulo_54380" data-name="Rectángulo 54380" width="13.224" height="13.194" transform="translate(-0.325 174.584)" fill="#fff"/>
          <rect id="Rectángulo_54381" data-name="Rectángulo 54381" width="13.229" height="13.198" transform="translate(-13.554 187.777)" fill="#fff"/>
          <rect id="Rectángulo_54382" data-name="Rectángulo 54382" width="13.227" height="13.198" transform="translate(12.9 187.777)" fill="#fff"/>
          <rect id="Rectángulo_54383" data-name="Rectángulo 54383" width="13.235" height="13.198" transform="translate(39.346 187.777)" fill="#fff"/>
          <rect id="Rectángulo_54384" data-name="Rectángulo 54384" width="13.224" height="13.198" transform="translate(65.804 187.777)" fill="#fff"/>
          <rect id="Rectángulo_54385" data-name="Rectángulo 54385" width="13.226" height="13.198" transform="translate(92.257 187.777)" fill="#fff"/>
          <rect id="Rectángulo_54386" data-name="Rectángulo 54386" width="13.232" height="13.198" transform="translate(118.704 187.777)" fill="#fff"/>
          <rect id="Rectángulo_54387" data-name="Rectángulo 54387" width="13.229" height="13.198" transform="translate(145.157 187.777)" fill="#fff"/>
          <rect id="Rectángulo_54388" data-name="Rectángulo 54388" width="13.235" height="13.198" transform="translate(171.604 187.777)" fill="#fff"/>
          <rect id="Rectángulo_54389" data-name="Rectángulo 54389" width="13.224" height="13.198" transform="translate(198.062 187.777)" fill="#fff"/>
          <rect id="Rectángulo_54390" data-name="Rectángulo 54390" width="13.218" height="13.198" transform="translate(224.515 187.777)" fill="#fff"/>
          <rect id="Rectángulo_54391" data-name="Rectángulo 54391" width="13.229" height="13.185" transform="translate(237.734 200.977)" fill="#fff"/>
          <rect id="Rectángulo_54392" data-name="Rectángulo 54392" width="13.229" height="13.185" transform="translate(211.287 200.977)" fill="#fff"/>
          <rect id="Rectángulo_54393" data-name="Rectángulo 54393" width="13.224" height="13.185" transform="translate(184.838 200.977)" fill="#fff"/>
          <rect id="Rectángulo_54394" data-name="Rectángulo 54394" width="13.218" height="13.185" transform="translate(158.386 200.977)" fill="#fff"/>
          <rect id="Rectángulo_54395" data-name="Rectángulo 54395" width="13.221" height="13.185" transform="translate(131.936 200.977)" fill="#fff"/>
          <rect id="Rectángulo_54396" data-name="Rectángulo 54396" width="13.221" height="13.185" transform="translate(105.483 200.977)" fill="#fff"/>
          <rect id="Rectángulo_54397" data-name="Rectángulo 54397" width="13.23" height="13.185" transform="translate(79.027 200.977)" fill="#fff"/>
          <rect id="Rectángulo_54398" data-name="Rectángulo 54398" width="13.224" height="13.185" transform="translate(52.581 200.977)" fill="#fff"/>
          <rect id="Rectángulo_54399" data-name="Rectángulo 54399" width="13.219" height="13.185" transform="translate(26.127 200.977)" fill="#fff"/>
          <rect id="Rectángulo_54400" data-name="Rectángulo 54400" width="13.224" height="13.185" transform="translate(-0.325 200.977)" fill="#fff"/>
          <rect id="Rectángulo_54401" data-name="Rectángulo 54401" width="13.229" height="13.204" transform="translate(-13.554 214.162)" fill="#fff"/>
          <rect id="Rectángulo_54402" data-name="Rectángulo 54402" width="13.227" height="13.204" transform="translate(12.9 214.162)" fill="#fff"/>
          <rect id="Rectángulo_54403" data-name="Rectángulo 54403" width="13.235" height="13.204" transform="translate(39.346 214.162)" fill="#fff"/>
          <rect id="Rectángulo_54404" data-name="Rectángulo 54404" width="13.224" height="13.204" transform="translate(65.804 214.162)" fill="#fff"/>
          <rect id="Rectángulo_54405" data-name="Rectángulo 54405" width="13.226" height="13.204" transform="translate(92.257 214.162)" fill="#fff"/>
          <rect id="Rectángulo_54406" data-name="Rectángulo 54406" width="13.232" height="13.204" transform="translate(118.704 214.162)" fill="#fff"/>
          <rect id="Rectángulo_54407" data-name="Rectángulo 54407" width="13.229" height="13.204" transform="translate(145.157 214.162)" fill="#fff"/>
          <rect id="Rectángulo_54408" data-name="Rectángulo 54408" width="13.235" height="13.204" transform="translate(171.604 214.162)" fill="#fff"/>
          <rect id="Rectángulo_54409" data-name="Rectángulo 54409" width="13.224" height="13.204" transform="translate(198.062 214.162)" fill="#fff"/>
          <rect id="Rectángulo_54410" data-name="Rectángulo 54410" width="13.218" height="13.204" transform="translate(224.515 214.162)" fill="#fff"/>
          <rect id="Rectángulo_54411" data-name="Rectángulo 54411" width="13.229" height="13.196" transform="translate(237.734 227.367)" fill="#fff"/>
          <rect id="Rectángulo_54412" data-name="Rectángulo 54412" width="13.229" height="13.196" transform="translate(211.287 227.367)" fill="#fff"/>
          <rect id="Rectángulo_54413" data-name="Rectángulo 54413" width="13.224" height="13.196" transform="translate(184.838 227.367)" fill="#fff"/>
          <rect id="Rectángulo_54414" data-name="Rectángulo 54414" width="13.218" height="13.196" transform="translate(158.386 227.367)" fill="#fff"/>
          <rect id="Rectángulo_54415" data-name="Rectángulo 54415" width="13.221" height="13.196" transform="translate(131.936 227.367)" fill="#fff"/>
          <rect id="Rectángulo_54416" data-name="Rectángulo 54416" width="13.221" height="13.196" transform="translate(105.483 227.367)" fill="#fff"/>
          <rect id="Rectángulo_54417" data-name="Rectángulo 54417" width="13.23" height="13.196" transform="translate(79.027 227.367)" fill="#fff"/>
          <rect id="Rectángulo_54418" data-name="Rectángulo 54418" width="13.224" height="13.196" transform="translate(52.581 227.367)" fill="#fff"/>
          <rect id="Rectángulo_54419" data-name="Rectángulo 54419" width="13.219" height="13.196" transform="translate(26.127 227.367)" fill="#fff"/>
          <rect id="Rectángulo_54420" data-name="Rectángulo 54420" width="13.224" height="13.196" transform="translate(-0.325 227.367)" fill="#fff"/>
          <g id="Grupo_175310" data-name="Grupo 175310" transform="translate(-18.553 -0.865)">
            <g id="Grupo_175309" data-name="Grupo 175309" transform="translate(0)">
              <g id="Grupo_175308" data-name="Grupo 175308">
                <g id="Rectángulo_54421" data-name="Rectángulo 54421" fill="#f6f6f6" stroke="#707070" stroke-width="1">
                  <rect width="258.755" height="240.062" stroke="none"/>
                  <rect x="0.5" y="0.5" width="257.755" height="239.062" fill="none"/>
                </g>
              </g>
            </g>
          </g>
        </g>
      </g>
    </g>
    <g id="Grupo_182853" data-name="Grupo 182853" transform="translate(241.872 4363.982)">
      <g id="Grupo_50301" data-name="Grupo 50301" transform="translate(0 0)">
        <g id="Grupo_50275" data-name="Grupo 50275" transform="translate(13.176 113.593)">
          <path id="Trazado_100403" data-name="Trazado 100403" d="M2711.221,1779.924v78.521a7.013,7.013,0,0,1-.068.97,6.914,6.914,0,0,1-6.857,5.954H2590.384a6.912,6.912,0,0,1-2.291-.388,6.837,6.837,0,0,1-1.467-.719,6.922,6.922,0,0,1-3.166-5.817v-78.521a6.924,6.924,0,0,1,6.924-6.923H2704.3A6.924,6.924,0,0,1,2711.221,1779.924Z" transform="translate(-2567.156 -1773)" fill="#12263f"/>
          <path id="Trazado_100500" data-name="Trazado 100500" d="M10.183.008H95.8a23.009,23.009,0,0,1,23.009,23.01V66.1A23.009,23.009,0,0,1,95.8,89.109H9.254c-12.708,0-9.229,1.344-9.229-11.364V10.552C.025-2.156-2.525.008,10.183.008Z" transform="translate(20.767 4.479)" fill="#fff"/>
          <path id="Trazado_100404" data-name="Trazado 100404" d="M2691.1,1905.276c-1.177,0-2.135-.675-2.135-1.5v-40.137c0-.829.958-1.5,2.135-1.5h99.8c1.177,0,2.134.675,2.134,1.5v40.137c0,.83-.957,1.5-2.134,1.5Z" transform="translate(-2660.82 -1852.124)" fill="#edf4f9"/>
          <path id="Trazado_100405" data-name="Trazado 100405" d="M2711.221,2514.305v3.334a6.915,6.915,0,0,1-3.166,5.815H2586.626a6.917,6.917,0,0,1-3.166-5.815v-3.334Z" transform="translate(-2567.156 -2431.086)" opacity="0.2" style="mix-blend-mode: multiply;isolation: isolate"/>
          <rect id="Rectángulo_29036" data-name="Rectángulo 29036" width="24.906" height="3.804" transform="translate(67.731 86.415)" fill="#172735"/>
          <path id="Trazado_100406" data-name="Trazado 100406" d="M2598.6,2544.292v1.893a6.278,6.278,0,0,1-6.278,6.278H2444.505a6.278,6.278,0,0,1-6.278-6.278v-1.893a1.523,1.523,0,0,1,1.524-1.523h67.3l1.282,2.222a2.755,2.755,0,0,0,2.386,1.378H2526.1a2.754,2.754,0,0,0,2.386-1.378l1.282-2.222h67.3A1.523,1.523,0,0,1,2598.6,2544.292Z" transform="translate(-2438.227 -2456.353)" fill="#12263f"/>
          <g id="Grupo_50274" data-name="Grupo 50274" transform="translate(28.149 58.951)">
            <rect id="Rectángulo_29037" data-name="Rectángulo 29037" width="14.536" height="14.536" rx="2" fill="#edf4f9"/>
            <rect id="Rectángulo_29038" data-name="Rectángulo 29038" width="27.221" height="1.203" transform="translate(17.877 0.468)" fill="#edf4f9"/>
            <rect id="Rectángulo_29039" data-name="Rectángulo 29039" width="27.221" height="1.203" transform="translate(17.877 3.141)" fill="#edf4f9"/>
            <rect id="Rectángulo_29040" data-name="Rectángulo 29040" width="12.464" height="1.203" transform="translate(17.877 5.814)" fill="#edf4f9"/>
            <rect id="Rectángulo_29041" data-name="Rectángulo 29041" width="24.46" height="1.203" transform="translate(17.877 9.69)" fill="#edf4f9"/>
          </g>
          <rect id="Rectángulo_29042" data-name="Rectángulo 29042" width="14.536" height="14.536" rx="2" transform="translate(83.709 58.951)" fill="#edf4f9"/>
          <rect id="Rectángulo_29043" data-name="Rectángulo 29043" width="27.221" height="1.203" transform="translate(101.587 59.345)" fill="#edf4f9"/>
          <rect id="Rectángulo_29044" data-name="Rectángulo 29044" width="27.221" height="1.203" transform="translate(101.587 62.018)" fill="#edf4f9"/>
          <rect id="Rectángulo_29045" data-name="Rectángulo 29045" width="12.464" height="1.203" transform="translate(101.587 64.692)" fill="#edf4f9"/>
          <rect id="Rectángulo_29046" data-name="Rectángulo 29046" width="24.46" height="1.203" transform="translate(101.587 68.568)" fill="#edf4f9"/>
        </g>
        <g id="Grupo_50282" data-name="Grupo 50282" transform="translate(0 115.855)">
          <path id="Trazado_100407" data-name="Trazado 100407" d="M2486.875,2541.082s-5,2.9-13.535-1a14.03,14.03,0,0,1,8.36-2.3C2486.344,2538.141,2486.875,2541.082,2486.875,2541.082Z" transform="translate(-2456.222 -2454.165)"/>
          <path id="Trazado_100408" data-name="Trazado 100408" d="M2334.8,2515.594s-6.1,2.589-13.933-3.184c0,0,4.113-4.114,8.028-4.114S2334.8,2515.594,2334.8,2515.594Z" transform="translate(-2320.862 -2428.013)"/>
          <g id="Grupo_50277" data-name="Grupo 50277" transform="translate(5.647 82.716)">
            <g id="Grupo_50276" data-name="Grupo 50276" transform="translate(0.168)">
              <path id="Trazado_100409" data-name="Trazado 100409" d="M2380.344,2537.244s1.459-4.578,1.681-5.22-4.821-2.057-4.821-2.057.928,4.557.552,6.547-.111,2.5-.111,2.5Z" transform="translate(-2376.694 -2529.967)" fill="#ebc4a1"/>
              <path id="Trazado_100410" data-name="Trazado 100410" d="M2372.888,2589.6a1.3,1.3,0,0,0,.63.42c.286.068,8.482-.214,8.791-.5.034-.031.2.015.238-.023a2.376,2.376,0,0,0,.669-1.109c-.021-.265-6.169-2.08-6.59-2.632a2.558,2.558,0,0,0-2.9-.266,13.887,13.887,0,0,1-.981,3.058c-.049.1.051.424,0,.514C2372.589,2589.314,2372.679,2589.387,2372.888,2589.6Z" transform="translate(-2372.666 -2578.941)" fill="#12263f"/>
            </g>
            <path id="Trazado_100411" data-name="Trazado 100411" d="M2371.351,2616.6a3.013,3.013,0,0,0,.8.666c.287.067,8.646-.4,8.956-.687.033-.031.07-.067.106-.105-2.155-.152-7.31-.55-9.8-.95-.049.1-.1.191-.155.281A.651.651,0,0,0,2371.351,2616.6Z" transform="translate(-2371.166 -2605.916)" fill="#e1f0ff"/>
          </g>
          <g id="Grupo_50279" data-name="Grupo 50279" transform="translate(22.552 81.903)">
            <g id="Grupo_50278" data-name="Grupo 50278" transform="translate(0.076)">
              <path id="Trazado_100412" data-name="Trazado 100412" d="M2535.478,2530.308s1.962-4.386,2.254-5-4.561-2.582-4.561-2.582.413,4.632-.183,6.568-.389,2.471-.389,2.471Z" transform="translate(-2531.425 -2522.726)" fill="#ebc4a1"/>
              <path id="Trazado_100413" data-name="Trazado 100413" d="M2522.751,2583.373a2,2,0,0,0,.674.608c.277.1,8.164.607,8.5.354.037-.027.331.074.371.04.338-.284.781-.79.787-1.028.01-.266-5.9-2.756-6.254-3.352a2.558,2.558,0,0,0-2.849-.588,13.887,13.887,0,0,1-1.316,2.929c-.06.092-.121.178-.185.261C2522.3,2582.835,2522.567,2583.137,2522.751,2583.373Z" transform="translate(-2522.422 -2572.84)" fill="#12263f"/>
            </g>
            <path id="Trazado_100414" data-name="Trazado 100414" d="M2521.885,2608.38a2.989,2.989,0,0,0,.723.751c.277.1,8.637.572,8.977.319.037-.027.077-.059.117-.094-2.124-.392-7.2-1.363-9.633-2.039-.059.093-.121.179-.185.262A.65.65,0,0,0,2521.885,2608.38Z" transform="translate(-2521.747 -2597.821)" fill="#e1f0ff"/>
          </g>
          <path id="Trazado_100415" data-name="Trazado 100415" d="M2738.367,1997.847s2.788,5.308-.707,9.864c0,0-2.258-3.406-1.417-6.015S2737.351,1998.334,2738.367,1997.847Z" transform="translate(-2689.446 -1974.868)" fill="#002c3d"/>
          <path id="Trazado_100416" data-name="Trazado 100416" d="M2320.862,2166.414c9.554-1,13.933,3.184,13.933,3.184,1.1-1.814,2.374-7.222,3.442-12.643.957-4.846,1.752-9.7,2.116-12,.139-.867.214-1.37.214-1.37l1.664,2.219,1.919,2.559c-.134,5.308-6.171,19.571-6.171,19.571,9.82-2.454,13.536,1,13.536,1,1.092-1.122,2.769-5,4.255-8.956a78.43,78.43,0,0,0,3.22-9.952c-.243-2.821-11.279-18.578-12.473-21.674a33.729,33.729,0,0,1-1.638-5.573c-.095-.124-.194-.242-.289-.359-6.352-7.6-15.192-1.677-15.192-1.677s-.353,16.188-1.061,22.472S2320.862,2166.414,2320.862,2166.414Z" transform="translate(-2320.862 -2082.016)" fill="#12263f"/>
          <path id="Trazado_100417" data-name="Trazado 100417" d="M2457.793,1843.984a3.819,3.819,0,0,1-.784,2.652c-.958,1.1-.392,1.958-.245,2.074s4.479.214,4.479.214l.219-.518.294-.692-.547-.615a1.28,1.28,0,0,1-.211-.544,5.508,5.508,0,0,1-.081-1.483.007.007,0,0,0,0,0c.026.021.462.4,1.11.97.583.511,1.546-1.69,1.5-2.727a13.684,13.684,0,0,0-.111-1.44,1.227,1.227,0,0,0,.888-.116.293.293,0,0,0,.146-.374,3.553,3.553,0,0,1-.534-2.464,2.718,2.718,0,0,1,.142-.418c.392-.911-3.166-1.912-5.594-1.551-1.272.191-2.232.754-2.152,1.9A10.9,10.9,0,0,0,2457.793,1843.984Z" transform="translate(-2441.107 -1831.973)" fill="#ebc4a1"/>
          <path id="Trazado_100418" data-name="Trazado 100418" d="M2320.862,2166.414c9.554-1,13.933,3.184,13.933,3.184,1.1-1.814,2.374-7.222,3.442-12.643a2.229,2.229,0,0,0-.627.544,28.95,28.95,0,0,0-1.385,2.838,4.125,4.125,0,0,1-7.127-.132c-1.337-2.394-.054-5.323.968-7.864a39.094,39.094,0,0,0,2.8-14.385c.007-2.706-.264-5.447.273-8.1s2.085-5.3,4.617-6.265c1.8-.686,3.764-.423,5.621-.8a7.566,7.566,0,0,0,1.21-.366c-6.352-7.6-15.192-1.677-15.192-1.677s-.353,16.188-1.061,22.472S2320.862,2166.414,2320.862,2166.414Z" transform="translate(-2320.862 -2082.016)" fill="#12263f" opacity="0.3" style="mix-blend-mode: multiply;isolation: isolate"/>
          <path id="Trazado_100419" data-name="Trazado 100419" d="M2392.739,2185.541a10.969,10.969,0,0,1-9.521,4.614s.663-3.254,4.942-4.614S2392.739,2185.541,2392.739,2185.541Z" transform="translate(-2376.218 -2140.954)" fill="#002c3d"/>
          <path id="Trazado_100420" data-name="Trazado 100420" d="M2733.124,2015.507c.018.555.14,1.119.212,1.669a1.743,1.743,0,0,0,.229.774,1.282,1.282,0,0,0,.984.469c.376.023.753-.041,1.128-.039a4.7,4.7,0,0,1,2.3.743c.126.075.252.153.376.232.561.362,1.095.759,1.665,1.1a9.726,9.726,0,0,0,2.991,1.167.269.269,0,0,0,.291-.392.231.231,0,0,0-.071-.08,7.419,7.419,0,0,0-1.608-.9c.044.016.085.031.128.044q1.379.48,2.758.957c.2.07.459.119.581-.052a.337.337,0,0,0-.049-.395.97.97,0,0,0-.353-.23q-1.189-.546-2.38-1.094l2.885,1.029c.255.091.609.145.73-.1a.376.376,0,0,0-.093-.423,1.111,1.111,0,0,0-.394-.232l-2.776-1.154c.815.276,1.631.555,2.446.831.261.09.6.16.774-.057a.469.469,0,0,0-.085-.6,1.38,1.38,0,0,0-.588-.289l-4.051-1.233a9.551,9.551,0,0,0,1.554.2.964.964,0,0,0,.4-.044.341.341,0,0,0,.225-.314c-.011-.189-.214-.3-.387-.369a5.292,5.292,0,0,0-3.068-.581c-.449.1-.864.313-1.311.424a4.279,4.279,0,0,1-2.8-.643c-.124-.065-.242-.119-.354-.168a3.964,3.964,0,0,1-.866-.478,1.423,1.423,0,0,0-.95-.379C2733.241,2014.931,2733.114,2015.176,2733.124,2015.507Z" transform="translate(-2686.843 -1990.004)" fill="#ebc4a1"/>
          <path id="Trazado_100421" data-name="Trazado 100421" d="M2733.124,2015.507c.018.555.14,1.119.212,1.669a1.743,1.743,0,0,0,.229.774,1.282,1.282,0,0,0,.984.469c.376.023.753-.041,1.128-.039a4.7,4.7,0,0,1,2.3.743c.126.075.252.153.376.232a4.422,4.422,0,0,0-1.532-1.3,2.718,2.718,0,0,1-1.393-1.633,2.922,2.922,0,0,1-.013-.668,3.964,3.964,0,0,1-.866-.478,1.423,1.423,0,0,0-.95-.379C2733.241,2014.931,2733.114,2015.176,2733.124,2015.507Z" transform="translate(-2686.843 -1990.004)" fill="#1a1a1a" opacity="0.3" style="mix-blend-mode: multiply;isolation: isolate"/>
          <g id="Grupo_50281" data-name="Grupo 50281" transform="translate(10.316 43.162)">
            <g id="Grupo_50280" data-name="Grupo 50280">
              <path id="Trazado_100422" data-name="Trazado 100422" d="M2455.533,2258.731a1.867,1.867,0,0,0,1.648-.412.292.292,0,0,0-.3-.31c-.32-.022-1.205.332-1.858,0v.52Z" transform="translate(-2450.278 -2248.985)" fill="#ebc4a1"/>
              <path id="Trazado_100423" data-name="Trazado 100423" d="M2456.955,2257.521s1.147,1.6,1.728,1.762.945.249,1.062.448a1.515,1.515,0,0,1,.125.475.189.189,0,0,1-.211.213,3.947,3.947,0,0,1-1.279-.356s-1.266-.723-1.424-1.08A4.4,4.4,0,0,1,2456.955,2257.521Z" transform="translate(-2451.93 -2248.552)" fill="#ebc4a1"/>
              <path id="Trazado_100424" data-name="Trazado 100424" d="M2462.524,2264.721a1.864,1.864,0,0,0,1.647-.412.291.291,0,0,0-.3-.31c-.32-.022-1.205.332-1.857,0v.52Z" transform="translate(-2456.485 -2254.302)" fill="#ebc4a1"/>
              <path id="Trazado_100425" data-name="Trazado 100425" d="M2412.753,2179.453s1.909,3.045,2.5,4.4a2.6,2.6,0,0,1,.157.444,44.443,44.443,0,0,0,3.3,6.665c.232.067.25-.647.25-.962a10.9,10.9,0,0,0-.457-1.3c-.157-.41-.328-.875-.482-1.326-.07-.209-.135-.416-.194-.612-.015-.054-.031-.108-.047-.16v0c-.181-.647-.26-1.177-.1-1.345.5-.516,1.311.762,1.375.829a1.829,1.829,0,0,0,.914.232,9.464,9.464,0,0,0-1.412-2.323,15.426,15.426,0,0,1-1.69-1.228,16.185,16.185,0,0,1-.789-3.331c-.176-.988-.308-1.809-.308-1.809Z" transform="translate(-2412.753 -2177.629)" fill="#ebc4a1"/>
            </g>
            <path id="Trazado_100426" data-name="Trazado 100426" d="M2412.753,2179.453s1.909,3.045,2.5,4.4a1.679,1.679,0,0,0,.046-.351,6.491,6.491,0,0,0-.238-1.52,2.493,2.493,0,0,1,.06-1.518,2.9,2.9,0,0,1,.96-1.03c-.176-.988-.308-1.809-.308-1.809Z" transform="translate(-2412.753 -2177.629)" fill="#1a1a1a" opacity="0.3" style="mix-blend-mode: multiply;isolation: isolate"/>
          </g>
          <path id="Trazado_100427" data-name="Trazado 100427" d="M2356.338,1944.795c.333,1.724,3.352,7.132,2.888,13.5,0,0,3.981-5.011,9.521-4.613l-1.466-3.659-.813-2.023a17.229,17.229,0,0,1,9.774,1.858,5.363,5.363,0,0,1-.5-2.849,9.833,9.833,0,0,1,.144-1.267c.206-1.164.485-3.081.736-4.979.335-2.572.619-5.114.593-5.723v-.01c0-.307.7-.033,1.69.5,2.276,1.233,6.051,3.85,6.051,3.85s15.525,2.7,15.481,2.565-1.238-7.653.707-9.864c0,0-1.8-.243-4.288-.5a95.082,95.082,0,0,0-9.513-.565s-9.42-4.513-11.5-5.22-2.831-1.572-3.517-1.572c0,0-.155.908-.684.818s-3.143-1.259-3.518-1.282a.25.25,0,0,0-.2.046,2.622,2.622,0,0,1-.931.795c-1.04.6-2.013.532-3.1,1.46s-4.159,5.839-7.565,17.78C2356.338,1943.842,2356.008,1943.068,2356.338,1944.795Z" transform="translate(-2352.225 -1909.097)" fill="#dee7f3"/>
          <path id="Trazado_100428" data-name="Trazado 100428" d="M2433.16,2005.549a39.965,39.965,0,0,0,1.635,4.469,17.228,17.228,0,0,1,9.774,1.858,5.373,5.373,0,0,1-.5-2.849,26.716,26.716,0,0,0-6.179-1.385c-2.875-.382-2.333.031-2.566-2.534-.229-2.516,1.352-11.167,1.412-11.49C2436.616,1993.995,2433.113,2004.9,2433.16,2005.549Z" transform="translate(-2420.553 -1971.113)" fill="#1a1a1a" opacity="0.3" style="mix-blend-mode: multiply;isolation: isolate"/>
          <path id="Trazado_100429" data-name="Trazado 100429" d="M2489.58,1904.816a5.52,5.52,0,0,1-.08-1.484l-.991-.823A5.613,5.613,0,0,0,2489.58,1904.816Z" transform="translate(-2469.688 -1890.232)" fill="#1a1a1a" opacity="0.3" style="mix-blend-mode: multiply;isolation: isolate"/>
          <path id="Trazado_100430" data-name="Trazado 100430" d="M2454.428,1839.446a1.882,1.882,0,0,1,1.206.12c-.224-.31-.4-.542-.4-.542s1-1.69,1.29-2.067c2.428-.361,5.986.64,5.594,1.551a2.722,2.722,0,0,0-.142.418,3.106,3.106,0,0,1-1.749.23c-2.505-.266-3.184-.7-3.251.348a5.35,5.35,0,0,0,.612,2.436l.036.07a4,4,0,0,1-.858-.712c-.457-.345-.961-.661-1.139-.533-.354.254.232,1.327.464,1.449s-.1,1.769-.1,1.769-.962-1.205-.984-1.26S2453.5,1839.742,2454.428,1839.446Z" transform="translate(-2439.165 -1831.973)" fill="#1a1a1a" opacity="0.3" style="mix-blend-mode: multiply;isolation: isolate"/>
          <path id="Trazado_100431" data-name="Trazado 100431" d="M2443,1799.787c-.043,3.362,3.12,5.374,3.12,5.374l-.232-1.275-.034-.186c-.753-.286-1.151-1.881-.444-2.211.632-.3,1.185.516,1.3.7-.124-.238-.818-1.646.01-2.577.908-1.017,2.057.333,5.269.312s1.257-5.2,1.257-5.2c-.73,1.151-2.346.552-2.346.552a3.147,3.147,0,0,0,.664-2.124,3.345,3.345,0,0,1-.194.289,4.8,4.8,0,0,1-3.742,2.1C2445.033,1795.563,2443.04,1796.425,2443,1799.787Z" transform="translate(-2429.285 -1793.15)" fill="#1a1a1a"/>
          <path id="Trazado_100432" data-name="Trazado 100432" d="M2356.338,1945.171c.333,1.723,3.352,7.132,2.888,13.5,0,0,3.981-5.011,9.521-4.613l-1.466-3.659a.424.424,0,0,0-.26.209c-.929,1.726-5.9,1.561-6.071.2s-1.825-4.611-2.155-6.634,1.858-6.569,2.454-9.124,2.389-7.031,4.611-8.492,2.071-2.376,2.071-2.376a2.624,2.624,0,0,1-.931.794c-1.04.6-2.013.531-3.1,1.46s-4.159,5.839-7.565,17.78C2356.338,1944.219,2356.008,1943.445,2356.338,1945.171Z" transform="translate(-2352.225 -1909.473)" fill="#1a1a1a" opacity="0.3" style="mix-blend-mode: multiply;isolation: isolate"/>
          <path id="Trazado_100433" data-name="Trazado 100433" d="M2533.846,1961.626c1.584,1.866,4.758,5.426,6.936,6.74a10.473,10.473,0,0,0,6.474,1.946c2.415.126,7.707-.859,6.445-6.157,2.49.253,4.289.5,4.289.5-1.946,2.211-.754,9.733-.707,9.864s-15.481-2.564-15.481-2.564-3.775-2.617-6.051-3.85c-.986-.529-1.69-.8-1.69-.5-.005-.247-.125-4.776-1.19-7.147a.008.008,0,0,1,0-.005A4.221,4.221,0,0,1,2533.846,1961.626Z" transform="translate(-2509.068 -1941.67)" fill="#1a1a1a" opacity="0.3" style="mix-blend-mode: multiply;isolation: isolate"/>
          <path id="Trazado_100434" data-name="Trazado 100434" d="M2460.767,1923.807s4.464,3.161,4.818,2.242a2.021,2.021,0,0,0-.42-1.824s-.155.908-.684.818-3.143-1.259-3.517-1.282A.251.251,0,0,0,2460.767,1923.807Z" transform="translate(-2445.061 -1909.097)" fill="#1a1a1a" opacity="0.3" style="mix-blend-mode: multiply;isolation: isolate"/>
          <path id="Trazado_100435" data-name="Trazado 100435" d="M2473.34,2265.828c9.82-2.453,13.535,1,13.535,1,1.092-1.123,2.769-5,4.256-8.956a.782.782,0,0,0-.093-.052c-1.086-.534-2.378.1-3.347.821s-1.966,1.613-3.175,1.62a7.72,7.72,0,0,1-2.313-.62,2.334,2.334,0,0,0-2.278.243,42.02,42.02,0,0,0,3.122-6.35,14.022,14.022,0,0,0,.824-6.959,22.391,22.391,0,0,0-3.409-8.874,26.939,26.939,0,0,1-4.335-8.883c-.158,3.93.586,7.839-.194,11.722a11.732,11.732,0,0,0-.219,2.312c.139-.867.214-1.371.214-1.371l1.664,2.219,1.92,2.56C2479.377,2251.565,2473.34,2265.828,2473.34,2265.828Z" transform="translate(-2456.222 -2179.907)" fill="#1a1a1a" opacity="0.3" style="mix-blend-mode: multiply;isolation: isolate"/>
          <path id="Trazado_100436" data-name="Trazado 100436" d="M2443,1802.072c-.043,3.362,3.12,5.375,3.12,5.375l-.232-1.275c-.122-.067-.24-.139-.354-.214a3.756,3.756,0,0,1-1.452-3.809,4.829,4.829,0,0,1,2.619-3.253,30.843,30.843,0,0,0,3.1-1.305,4.244,4.244,0,0,0,1.272-1.3,4.168,4.168,0,0,0,.289-.568,4.8,4.8,0,0,1-3.742,2.1C2445.033,1797.848,2443.04,1798.71,2443,1802.072Z" transform="translate(-2429.285 -1795.435)" fill="#1a1a1a" opacity="0.3" style="mix-blend-mode: multiply;isolation: isolate"/>
        </g>
        <g id="Grupo_50284" data-name="Grupo 50284" transform="translate(16.182 41.159)">
          <path id="Trazado_100437" data-name="Trazado 100437" d="M2520.807,1127.775h-51.4c-2.431,0-4.4,2.369-4.4,5.292v38.251c0,2.923,1.971,5.292,4.4,5.292h51.4c2.431,0,4.4-2.37,4.4-5.292v-38.251C2525.209,1130.144,2523.238,1127.775,2520.807,1127.775Z" transform="translate(-2465.01 -1127.775)" fill="#d7e9f9"/>
          <path id="Trazado_100438" data-name="Trazado 100438" d="M2525.2,1133.07v2.1h-60.2v-2.1c0-2.923,1.971-5.292,4.4-5.292h51.4C2523.234,1127.778,2525.2,1130.147,2525.2,1133.07Z" transform="translate(-2465.006 -1127.778)" fill="#26aab7"/>
          <g id="Grupo_50283" data-name="Grupo 50283" transform="translate(9.103 16.415)">
            <rect id="Rectángulo_29047" data-name="Rectángulo 29047" width="7.399" height="14.414" rx="2" transform="translate(0 10.93)" fill="#f5ca56"/>
            <rect id="Rectángulo_29048" data-name="Rectángulo 29048" width="7.399" height="17.944" rx="2" transform="translate(11.531 7.399)" fill="#f5ca56"/>
            <rect id="Rectángulo_29049" data-name="Rectángulo 29049" width="7.399" height="21.5" rx="2" transform="translate(23.062 3.844)" fill="#dbdada"/>
            <rect id="Rectángulo_29050" data-name="Rectángulo 29050" width="7.399" height="25.343" rx="2" transform="translate(34.593)" fill="#dbdada"/>
          </g>
          <circle id="Elipse_4018" data-name="Elipse 4018" cx="1.44" cy="1.44" r="1.44" transform="translate(2.96 2.579)" fill="#d8e5ed"/>
          <circle id="Elipse_4019" data-name="Elipse 4019" cx="1.44" cy="1.44" r="1.44" transform="translate(6.882 2.579)" fill="#d8e5ed"/>
          <circle id="Elipse_4020" data-name="Elipse 4020" cx="1.44" cy="1.44" r="1.44" transform="translate(10.804 2.579)" fill="#d8e5ed"/>
        </g>
        <path id="Trazado_100439" data-name="Trazado 100439" d="M3363.078,1860.938v1.893a6.278,6.278,0,0,1-6.278,6.278h-54.171a17.605,17.605,0,0,1-1.492-2.521q-.29-.6-.534-1.219a17.493,17.493,0,0,1-1.212-5.954c0-.161-.007-.323-.007-.485V1773h40.466a6.924,6.924,0,0,1,6.924,6.923v79.491h14.78A1.524,1.524,0,0,1,3363.078,1860.938Z" transform="translate(-3189.534 -1659.407)" opacity="0.05" style="mix-blend-mode: multiply;isolation: isolate"/>
        <g id="Grupo_50287" data-name="Grupo 50287" transform="translate(117.298 15.473)">
          <g id="Grupo_50285" data-name="Grupo 50285">
            <path id="Trazado_100440" data-name="Trazado 100440" d="M3820.178,939.882q-.2-.523-.388-1.051a31.961,31.961,0,0,1,.513-22.4,12.054,12.054,0,1,0-21.536,0,31.919,31.919,0,0,1,2.285,12.553,31.938,31.938,0,0,1-1.773,9.846q-.183.527-.387,1.051-.313.807-.673,1.6l-.733,1.622h24.1l-.736-1.622Q3820.493,940.689,3820.178,939.882Zm-10.643-34.051a5.36,5.36,0,1,1-5.359,5.361A5.361,5.361,0,0,1,3809.535,905.831Z" transform="translate(-3749.016 -898.965)" fill="#12263f"/>
            <path id="Trazado_100441" data-name="Trazado 100441" d="M3821.584,1180.489h-24.1l.734-1.622a31.9,31.9,0,0,0,2.834-12.5h16.964a31.89,31.89,0,0,0,2.834,12.5Z" transform="translate(-3749.015 -1136.349)" fill="#1a1a1a" opacity="0.2" style="mix-blend-mode: multiply;isolation: isolate"/>
            <path id="Trazado_100442" data-name="Trazado 100442" d="M3486.77,1225.085v138.4a10.19,10.19,0,0,1-10.178,10.179H3375.91a10.19,10.19,0,0,1-10.179-10.179v-138.4a10.19,10.19,0,0,1,10.179-10.178h100.682A10.19,10.19,0,0,1,3486.77,1225.085Z" transform="translate(-3365.732 -1179.439)" fill="#12263f"/>
            <rect id="Rectángulo_29051" data-name="Rectángulo 29051" width="110.14" height="147.863" rx="2" transform="translate(5.45 40.917)" fill="#fff"/>
            <path id="Trazado_100443" data-name="Trazado 100443" d="M3706.481,1262.016l-3.773-6.333a3.284,3.284,0,0,0-2.817-1.6h-43.177a3.272,3.272,0,0,0-2.4,1.051,3.167,3.167,0,0,0-.413.55l-3.773,6.333a3.279,3.279,0,0,0,2.817,4.958h50.723A3.279,3.279,0,0,0,3706.481,1262.016Zm-14.184.894h-27.99a1.191,1.191,0,0,1,0-2.383h27.99a1.191,1.191,0,1,1,0,2.383Z" transform="translate(-3617.783 -1214.216)" fill="#12263f"/>
          </g>
          <g id="Grupo_50286" data-name="Grupo 50286" transform="translate(16.135 63.482)">
            <rect id="Rectángulo_29052" data-name="Rectángulo 29052" width="19.669" height="19.669" rx="2" fill="#dee7f3"/>
            <rect id="Rectángulo_29053" data-name="Rectángulo 29053" width="19.669" height="19.669" rx="2" transform="translate(0 38.978)" fill="#dee7f3"/>
            <rect id="Rectángulo_29054" data-name="Rectángulo 29054" width="19.669" height="19.669" rx="2" transform="translate(0 77.956)" fill="#dee7f3"/>
          </g>
          <rect id="Rectángulo_29055" data-name="Rectángulo 29055" width="61.278" height="1.593" transform="translate(42.745 66.933)" fill="#edf4f9"/>
          <rect id="Rectángulo_29056" data-name="Rectángulo 29056" width="61.278" height="1.593" transform="translate(42.745 72.52)" fill="#edf4f9"/>
          <rect id="Rectángulo_29057" data-name="Rectángulo 29057" width="61.278" height="1.593" transform="translate(42.745 78.107)" fill="#edf4f9"/>
          <rect id="Rectángulo_29058" data-name="Rectángulo 29058" width="61.278" height="1.593" transform="translate(42.745 105.911)" fill="#edf4f9"/>
          <rect id="Rectángulo_29059" data-name="Rectángulo 29059" width="61.278" height="1.593" transform="translate(42.745 111.498)" fill="#edf4f9"/>
          <rect id="Rectángulo_29060" data-name="Rectángulo 29060" width="61.278" height="1.593" transform="translate(42.745 117.085)" fill="#edf4f9"/>
          <rect id="Rectángulo_29061" data-name="Rectángulo 29061" width="61.278" height="1.593" transform="translate(42.745 144.888)" fill="#edf4f9"/>
          <rect id="Rectángulo_29062" data-name="Rectángulo 29062" width="61.278" height="1.593" transform="translate(42.745 150.475)" fill="#edf4f9"/>
          <rect id="Rectángulo_29063" data-name="Rectángulo 29063" width="61.278" height="1.593" transform="translate(42.745 156.062)" fill="#edf4f9"/>
        </g>
        <g id="Grupo_50292" data-name="Grupo 50292" transform="translate(98.755 0)">
          <g id="Grupo_50288" data-name="Grupo 50288" transform="translate(31.294)">
            <path id="Trazado_100444" data-name="Trazado 100444" d="M3510.647,814.036c-.142.164-5.007,1.269-5.007,1.269l-.366-.535-.492-.713.478-.819a1.5,1.5,0,0,0,.113-.662,4.344,4.344,0,0,0-.021-.476,7.742,7.742,0,0,0-.229-1.215s0,0,0,0c-.025.03-.429.561-1.029,1.351-.542.709-2.134-1.553-2.322-2.735a15.477,15.477,0,0,1-.206-1.651,1.413,1.413,0,0,1-1.028.073.341.341,0,0,1-.253-.389,4.094,4.094,0,0,0,.038-2.9,3.256,3.256,0,0,0-.256-.439c-.651-.938,3.134-2.884,5.958-3.034,1.479-.077,2.693.338,2.865,1.649a12.547,12.547,0,0,1-.49,6.127,4.4,4.4,0,0,0,1.5,2.813C3511.226,812.767,3510.787,813.87,3510.647,814.036Z" transform="translate(-3497.671 -796.66)" fill="#ebc4a1"/>
            <path id="Trazado_100445" data-name="Trazado 100445" d="M3508.962,803.553a2.166,2.166,0,0,0-1.334.413c.182-.4.324-.7.324-.7s-1.521-1.677-1.931-2.037c-2.824.15-6.61,2.1-5.958,3.035a3.149,3.149,0,0,1,.256.439,3.579,3.579,0,0,0,2.027-.142c2.768-.875,3.434-1.517,3.75-.353a6.147,6.147,0,0,1-.131,2.89l-.024.087a4.609,4.609,0,0,0,.805-1c.437-.495.932-.966,1.163-.863.457.206.042,1.551-.192,1.742s.518,1.974.518,1.974.81-1.581.822-1.649S3510.074,803.674,3508.962,803.553Z" transform="translate(-3497.667 -796.726)" fill="#1a1a1a" opacity="0.3" style="mix-blend-mode: multiply;isolation: isolate"/>
            <path id="Trazado_100446" data-name="Trazado 100446" d="M3492.166,766.664c.821,3.785-2.288,6.783-2.288,6.783l-.031-1.492,0-.217c.785-.5.867-2.387-.007-2.6-.781-.19-1.218.854-1.3,1.084.086-.3.545-2.046-.6-2.907-1.259-.939-2.245.848-5.875,1.562s-2.612-5.581-2.612-5.581c1.089,1.131,2.774.085,2.774.085a3.618,3.618,0,0,1-1.236-2.245,3.805,3.805,0,0,0,.285.281,5.528,5.528,0,0,0,4.705,1.512C3488.9,762.364,3491.345,762.879,3492.166,766.664Z" transform="translate(-3479.312 -761.138)" fill="#1a1a1a"/>
            <path id="Trazado_100447" data-name="Trazado 100447" d="M3507.622,768.892c.822,3.785-2.288,6.783-2.288,6.783l-.03-1.492c.121-.1.238-.212.349-.323a4.327,4.327,0,0,0,.766-4.632,5.567,5.567,0,0,0-3.7-3.072,35.458,35.458,0,0,1-3.8-.761,4.883,4.883,0,0,1-1.733-1.173,4.783,4.783,0,0,1-.457-.574,5.532,5.532,0,0,0,4.706,1.512C3504.354,764.591,3506.8,765.107,3507.622,768.892Z" transform="translate(-3494.768 -763.365)" fill="#1a1a1a" opacity="0.3" style="mix-blend-mode: multiply;isolation: isolate"/>
            <path id="Trazado_100448" data-name="Trazado 100448" d="M3546.655,874.079a6.772,6.772,0,0,1-.731,2.761,7.78,7.78,0,0,0-.23-1.215v0Z" transform="translate(-3538.241 -861.4)" fill="#1a1a1a" opacity="0.3" style="mix-blend-mode: multiply;isolation: isolate"/>
          </g>
          <path id="Trazado_100449" data-name="Trazado 100449" d="M3355.618,1069.341s-.882,2.049-.338,2.049,1.635-2.4,2.155-2.6l.156-.069-.065-.609-.87-.1Z" transform="translate(-3337.752 -1033.556)" fill="#ebc4a1"/>
          <path id="Trazado_100450" data-name="Trazado 100450" d="M3333.668,1029.674l-1.323.874s-.327.061-.751.163a5.149,5.149,0,0,0-1.858.692,3.492,3.492,0,0,1-2.238,1.071c-.738-.079-.214-1.014-.039-.969s1.538-.977,1.4-1.7-2.431-.273-2.413,1.343c.156,2.4-.7,1.964-.7,1.964-.585-.057-.331-3.291-.331-3.542s1.635-1.383,1.732-1.44a8.775,8.775,0,0,1,2.415.337,5.021,5.021,0,0,0,1.659.088c.46-.033.817-.088.817-.088l.733-.024Z" transform="translate(-3311.351 -998.149)" fill="#ebc4a1"/>
          <path id="Trazado_100451" data-name="Trazado 100451" d="M3380.013,1032.262l-1.324.874s-.326.061-.75.163a2.8,2.8,0,0,0-.371-2.153c.459-.033.817-.087.817-.087l.733-.024Z" transform="translate(-3357.695 -1000.737)" fill="#1a1a1a" opacity="0.2"/>
          <path id="Trazado_100452" data-name="Trazado 100452" d="M3403.089,926.287l-1.873,5.72a48.6,48.6,0,0,1-8.522.423c-3.421-.262-7.8-.845-8.185-.9l-.027,0a2.12,2.12,0,0,0-.39-2.179,28.245,28.245,0,0,1,6.16-.4h0c3.018.007,5.942.133,5.942.133a49.79,49.79,0,0,1,1.592-6.253,51.7,51.7,0,0,1,2.434-6.25h1.2Z" transform="translate(-3363.489 -899.131)" fill="#5b7393"/>
          <path id="Trazado_100453" data-name="Trazado 100453" d="M3386.157,1369.249l.8,3.76,2.982-.127-.507-4.713Z" transform="translate(-3365.32 -1300.023)" fill="#ebc4a1"/>
          <g id="Grupo_50289" data-name="Grupo 50289" transform="translate(12.91 71.83)">
            <path id="Trazado_100454" data-name="Trazado 100454" d="M3328.512,1427.528a1.616,1.616,0,0,1-.524,1.3c-1.272,1.01-12.477.24-12.441-.46a1.127,1.127,0,0,1,.53-.932C3319.053,1428.014,3324.214,1428.68,3328.512,1427.528Z" transform="translate(-3315.548 -1424.469)" fill="#e1e1e1"/>
            <path id="Trazado_100455" data-name="Trazado 100455" d="M3332.706,1404.048c-4.3,1.152-9.46.486-12.435-.09l.03-.015a29.885,29.885,0,0,1,7.469-2.954s1.2,1.221,4.259.286A7.532,7.532,0,0,1,3332.706,1404.048Z" transform="translate(-3319.741 -1400.989)" fill="#5b7393"/>
          </g>
          <path id="Trazado_100456" data-name="Trazado 100456" d="M3352.76,1218.909a2.787,2.787,0,0,0-.723-.369,3.863,3.863,0,0,0-.974-.225,5.371,5.371,0,0,0-2.228.244,8.181,8.181,0,0,0-.9.348s-.891-2.688-1.862-6.061a67.69,67.69,0,0,1-2.384-10.65,9.358,9.358,0,0,1,2.95-3.822,9.7,9.7,0,0,1,5.2-1.96s.259,2.794.524,6.494C3352.737,1208.245,3353.128,1215.465,3352.76,1218.909Z" transform="translate(-3327.618 -1147.55)" fill="#12263f"/>
          <path id="Trazado_100457" data-name="Trazado 100457" d="M3376.088,1218.909a2.787,2.787,0,0,0-.723-.369,3.861,3.861,0,0,0-.975-.225c-.11-4.919-2.72-14.295-4.425-19.94a9.7,9.7,0,0,1,5.2-1.96s.259,2.794.524,6.494C3376.065,1208.245,3376.456,1215.465,3376.088,1218.909Z" transform="translate(-3350.946 -1147.55)" fill="#12263f" opacity="0.2" style="mix-blend-mode: multiply;isolation: isolate"/>
          <g id="Grupo_50290" data-name="Grupo 50290" transform="translate(0 40.078)">
            <path id="Trazado_100458" data-name="Trazado 100458" d="M3264.051,1360.952l-2.123,3.206,2.179,2.04,3.01-3.661Z" transform="translate(-3255.037 -1333.694)" fill="#ebc4a1"/>
            <path id="Trazado_100459" data-name="Trazado 100459" d="M3209.227,1364.012a1.393,1.393,0,0,1-1.1.51c-1.4-.113-7.995-7.2-7.56-7.616a.972.972,0,0,1,.883-.274C3202.987,1358.748,3205.843,1362.205,3209.227,1364.012Z" transform="translate(-3200.55 -1329.843)" fill="#e1e1e1"/>
            <path id="Trazado_100460" data-name="Trazado 100460" d="M3216.369,1364.164c-3.384-1.807-6.24-5.266-7.773-7.381l.028.009a25.756,25.756,0,0,1,6.441,2.539s.036,1.474,2.512,2.689A6.506,6.506,0,0,1,3216.369,1364.164Z" transform="translate(-3207.692 -1329.994)" fill="#5b7393"/>
            <path id="Trazado_100461" data-name="Trazado 100461" d="M3303.023,1129.434c-11.988,2.25-18.447,1.626-18.447,1.626s-3.9,10.35-11.374,17.818a1.67,1.67,0,0,0-.048-.2,2.454,2.454,0,0,0-2.627-1.839,2.178,2.178,0,0,0-.236.015s3.156-16.656,8.761-21.79c0,0,12.142-3.888,19.3-4.9,3.49-.495,6.3-.987,8.255-1.359,2.061-.4,3.188-.662,3.188-.662S3315.01,1127.181,3303.023,1129.434Z" transform="translate(-3262.461 -1118.149)" fill="#12263f"/>
          </g>
          <path id="Trazado_100462" data-name="Trazado 100462" d="M3406.169,926.287l-1.873,5.72a48.592,48.592,0,0,1-8.521.423c-3.58-.274-8.211-.9-8.211-.9,2.634-1.455,12.064-1.453,12.064-1.453s.156-.967.546-2.528a32.131,32.131,0,0,0,.7-4.718,51.922,51.922,0,0,1,2.434-6.25h1.2Z" transform="translate(-3366.569 -899.131)" fill="#1a1a1a" opacity="0.2"/>
          <path id="Trazado_100463" data-name="Trazado 100463" d="M3326.043,1129.434c-11.988,2.25-18.448,1.626-18.448,1.626s-3.9,10.35-11.374,17.818c.3-.436.584-.872.863-1.311.133-.209.263-.414.39-.623a60.922,60.922,0,0,0,7.409-17.962s20.484-.146,24.221-3.259c2.256-1.878,1.489-4.851.527-6.913,2.061-.4,3.188-.662,3.188-.662S3338.031,1127.181,3326.043,1129.434Z" transform="translate(-3285.481 -1078.07)" fill="#1a1a1a" opacity="0.2" style="mix-blend-mode: multiply;isolation: isolate"/>
          <path id="Trazado_100464" data-name="Trazado 100464" d="M3516.781,913.119a14.834,14.834,0,0,1-9.133,1.682c-.971.063-1.829.205-2.612.323a7.416,7.416,0,0,1-2.994.038c-1.555-.415-1.658-.261-1.348-2.492.194-1.38.647-4.613,1.014-7.821.225-1.974.416-3.938.5-5.461.208-4,.937-9.5,1.4-10.067s1.623-2.076,2.213-2.075c0,0,.989,2.6,3.678-1.372,0,0,2.06.845,2.474,1.829s1.6,3.127,1.6,4.371S3512.581,904.866,3516.781,913.119Z" transform="translate(-3466.875 -871.871)" fill="#5b7393"/>
          <path id="Trazado_100465" data-name="Trazado 100465" d="M3335.741,1110.4l-11.864-3.868a.813.813,0,0,0-1.035.993l1.842,6.543a.812.812,0,0,0,.991.565l10.024-2.675A.812.812,0,0,0,3335.741,1110.4Z" transform="translate(-3309.086 -1067.723)" fill="#1a1a1a"/>
          <path id="Trazado_100466" data-name="Trazado 100466" d="M3335.7,1111.962l-10.023,2.675a.813.813,0,0,1-.992-.565l-1.841-6.542a.812.812,0,0,1,.924-1.02A6.227,6.227,0,0,0,3334.5,1110l1.246.406A.812.812,0,0,1,3335.7,1111.962Z" transform="translate(-3309.088 -1067.726)" fill="#1a1a1a" opacity="0.2"/>
          <g id="Grupo_50291" data-name="Grupo 50291" transform="translate(8.809 22.75)">
            <path id="Trazado_100467" data-name="Trazado 100467" d="M3280.325,963.954a.218.218,0,0,0-.263-.153l-.883.224a.216.216,0,0,0-.155.266l4.03,14.855,1.3-.33Z" transform="translate(-3279.015 -963.795)" fill="#1a1a1a"/>
            <path id="Trazado_100468" data-name="Trazado 100468" d="M3323.885,1095.1l-17.913-5.825a.193.193,0,0,1-.125-.245l.312-.962a.2.2,0,0,1,.245-.125l17.914,5.825a.194.194,0,0,1,.125.245l-.312.962A.2.2,0,0,1,3323.885,1095.1Z" transform="translate(-3302.827 -1074.001)" fill="#1a1a1a"/>
            <rect id="Rectángulo_29064" data-name="Rectángulo 29064" width="9.522" height="0.343" transform="translate(4.693 14.881) rotate(18.013)" fill="#e1e1e1"/>
            <rect id="Rectángulo_29065" data-name="Rectángulo 29065" width="0.96" height="0.343" transform="translate(14.859 18.187) rotate(18.013)" fill="#e1e1e1"/>
            <rect id="Rectángulo_29066" data-name="Rectángulo 29066" width="0.96" height="0.343" transform="matrix(0.951, 0.309, -0.309, 0.951, 16.167, 18.612)" fill="#e1e1e1"/>
            <path id="Trazado_100469" data-name="Trazado 100469" d="M3312.4,1094.392a.155.155,0,1,1-.1-.2A.155.155,0,0,1,3312.4,1094.392Z" transform="translate(-3308.381 -1079.55)" fill="#e1e1e1"/>
          </g>
          <path id="Trazado_100470" data-name="Trazado 100470" d="M3335.854,1052.533s-1.31.868-1.38.983a2.391,2.391,0,0,1-.584.23c-.366.115-.856.248-1.344.359-.027.006-.051.015-.072.018s-.045.009-.067.015l-.021,0a10.081,10.081,0,0,1-1,.178c-1.05.118-1.889,1.15-2.276,1.352a1.247,1.247,0,0,1-1.09.072c-.209-.079.785-.892,1.623-1.543a8.968,8.968,0,0,1-2.564,1.422.7.7,0,0,1-.33,0c-.854-.279,1.115-1.573,2.4-2.563a21.532,21.532,0,0,1,4.369-2.059c.33-.124.536-.2.536-.2l1.6.506Z" transform="translate(-3312.391 -1018.283)" fill="#ebc4a1"/>
          <path id="Trazado_100471" data-name="Trazado 100471" d="M3383.39,1052.533s-1.311.868-1.381.983a2.371,2.371,0,0,1-.584.23c-.366.115-.856.248-1.344.359a2.08,2.08,0,0,0,1.281-1.477,1.666,1.666,0,0,0-.317-1.631c.33-.124.536-.2.536-.2l1.6.506Z" transform="translate(-3359.927 -1018.283)" fill="#1a1a1a" opacity="0.2"/>
          <path id="Trazado_100472" data-name="Trazado 100472" d="M3511.727,931.633c-2.155,7.575-5.823,10.253-6.429,12.65a17.2,17.2,0,0,0-.262,4.017,7.418,7.418,0,0,1-2.994.038c-1.555-.415-1.658-.261-1.348-2.492.194-1.38.647-4.613,1.014-7.821a4.127,4.127,0,0,0,.39-.484c.728-1.138,4.287-8.5,4.378-9.388s.713-3.32.713-3.32l4.293-1.587S3513.885,924.057,3511.727,931.633Z" transform="translate(-3466.875 -905.047)" fill="#1a1a1a" opacity="0.2"/>
          <path id="Trazado_100473" data-name="Trazado 100473" d="M3416.98,918.995a16.68,16.68,0,0,1-.615,1.958c-2.152,5.759-7.707,13.854-7.707,13.854-4.943.113-14.789-2.235-14.789-2.235a1.928,1.928,0,0,0-.277-2.582,1.775,1.775,0,0,0-.152-.133,6.258,6.258,0,0,1,1.811-.487,65.6,65.6,0,0,1,10.219-.156s3.775-9.5,4.749-12.505S3418.331,913.341,3416.98,918.995Z" transform="translate(-3371.787 -897.339)" fill="#5b7393"/>
        </g>
        <path id="Trazado_100474" data-name="Trazado 100474" d="M4076.494,1666.587v97.876a10.191,10.191,0,0,1-10.179,10.179h-34.3a14.836,14.836,0,0,1-1.988-7.418v-85.77a14.884,14.884,0,0,1,14.867-14.866Z" transform="translate(-3838.156 -1564.94)" opacity="0.05" style="mix-blend-mode: multiply;isolation: isolate"/>
        <g id="Grupo_50293" data-name="Grupo 50293" transform="translate(215.606 38.339)">
          <path id="Trazado_100475" data-name="Trazado 100475" d="M5054.094,1904.575l34.3,34.3c3.9,3.9,3.353,10.779-1.226,15.359h0c-4.581,4.58-11.457,5.13-15.36,1.227l-34.3-34.3Z" transform="translate(-4948.14 -1814.55)" fill="#00223d"/>
          <rect id="Rectángulo_29067" data-name="Rectángulo 29067" width="16.732" height="18.229" transform="translate(75.898 88.387) rotate(-45)" fill="#12263f"/>
          <path id="Trazado_100476" data-name="Trazado 100476" d="M4929.351,1784.588l5.95,5.95a55.439,55.439,0,0,1-11.933,11.73l-5.848-5.849Z" transform="translate(-4841.623 -1708.033)" fill="#1a1a1a" opacity="0.2" style="mix-blend-mode: multiply;isolation: isolate"/>
          <circle id="Elipse_4021" data-name="Elipse 4021" cx="49.731" cy="49.731" r="49.731" fill="#12263f"/>
          <circle id="Elipse_4022" data-name="Elipse 4022" cx="41.091" cy="41.091" r="41.091" transform="translate(8.64 8.64)" fill="#fff" style="mix-blend-mode: screen;isolation: isolate"/>
          <path id="Trazado_100477" data-name="Trazado 100477" d="M4430.045,1250.167a41.1,41.1,0,0,1-78.457,17.12,41.111,41.111,0,0,0,54.486-54.486A41.1,41.1,0,0,1,4430.045,1250.167Z" transform="translate(-4339.223 -1200.435)" fill="#1a1a1a" opacity="0.2" style="mix-blend-mode: multiply;isolation: isolate"/>
          <rect id="Rectángulo_29068" data-name="Rectángulo 29068" width="23.458" height="6.217" transform="translate(89.368 106.612) rotate(-45)" fill="#1a1a1a" opacity="0.2" style="mix-blend-mode: multiply;isolation: isolate"/>
          <path id="Trazado_100478" data-name="Trazado 100478" d="M5008.471,1857.778l-17.759,17.76a1.967,1.967,0,0,1-2.781,0l-3.382-3.381a1.969,1.969,0,0,1,0-2.781l17.759-17.759a1.966,1.966,0,0,1,2.782,0l3.381,3.381A1.966,1.966,0,0,1,5008.471,1857.778Z" transform="translate(-4900.615 -1767.024)" fill="#d8e5ed"/>
        </g>
        <g id="Grupo_50294" data-name="Grupo 50294" transform="translate(199.321 109.095)">
          <rect id="Rectángulo_29069" data-name="Rectángulo 29069" width="60.04" height="100.607" rx="2" fill="#12263f"/>
          <rect id="Rectángulo_29070" data-name="Rectángulo 29070" width="54.842" height="95.409" rx="2" transform="translate(2.599 2.599)" fill="#fff"/>
          <path id="Trazado_100479" data-name="Trazado 100479" d="M4228.231,1745.256h-17.142l4.642,4.641a2.122,2.122,0,0,0,1.5.622h22a2.12,2.12,0,0,0,1.5-.622l4.642-4.641Z" transform="translate(-4198.211 -1743.873)" fill="#12263f"/>
          <rect id="Rectángulo_29071" data-name="Rectángulo 29071" width="50.629" height="34.184" rx="2" transform="translate(4.705 11.307)" fill="#edf4f9"/>
          <rect id="Rectángulo_29072" data-name="Rectángulo 29072" width="14.536" height="14.536" rx="2" transform="translate(6.216 57.788)" fill="#edf4f9"/>
          <rect id="Rectángulo_29073" data-name="Rectángulo 29073" width="14.536" height="14.536" rx="2" transform="translate(6.216 76.308)" fill="#edf4f9"/>
          <rect id="Rectángulo_29074" data-name="Rectángulo 29074" width="27.221" height="1.203" transform="translate(24.093 58.256)" fill="#edf4f9"/>
          <rect id="Rectángulo_29075" data-name="Rectángulo 29075" width="27.221" height="1.203" transform="translate(24.093 60.929)" fill="#edf4f9"/>
          <rect id="Rectángulo_29076" data-name="Rectángulo 29076" width="50.629" height="1.203" transform="translate(4.705 48.011)" fill="#edf4f9"/>
          <rect id="Rectángulo_29077" data-name="Rectángulo 29077" width="27.221" height="1.203" transform="translate(4.705 50.684)" fill="#edf4f9"/>
          <rect id="Rectángulo_29078" data-name="Rectángulo 29078" width="12.464" height="1.203" transform="translate(24.093 63.603)" fill="#edf4f9"/>
          <rect id="Rectángulo_29079" data-name="Rectángulo 29079" width="24.46" height="1.203" transform="translate(24.093 67.479)" fill="#edf4f9"/>
          <rect id="Rectángulo_29080" data-name="Rectángulo 29080" width="27.221" height="1.203" transform="translate(24.093 76.702)" fill="#edf4f9"/>
          <rect id="Rectángulo_29081" data-name="Rectángulo 29081" width="27.221" height="1.203" transform="translate(24.093 79.375)" fill="#edf4f9"/>
          <rect id="Rectángulo_29082" data-name="Rectángulo 29082" width="12.464" height="1.203" transform="translate(24.093 82.048)" fill="#edf4f9"/>
          <rect id="Rectángulo_29083" data-name="Rectángulo 29083" width="24.46" height="1.203" transform="translate(24.093 85.924)" fill="#edf4f9"/>
        </g>
        <g id="Grupo_50300" data-name="Grupo 50300" transform="translate(70.236 97.927)">
          <rect id="Rectángulo_29086" data-name="Rectángulo 29086" width="48.866" height="12.652" rx="2" fill="#26aab7"/>
          <g id="Grupo_50298" data-name="Grupo 50298" transform="translate(3.343 3.308)">
            <path id="Trazado_100490" data-name="Trazado 100490" d="M2979.466,1662.915l.75,2.305h2.423l-1.961,1.425.749,2.305-1.961-1.425-1.961,1.425.749-2.305-1.961-1.425h2.424Z" transform="translate(-2976.292 -1662.915)" fill="#f5ca56"/>
            <path id="Trazado_100491" data-name="Trazado 100491" d="M3059.264,1662.915l.749,2.305h2.424l-1.961,1.425.75,2.305-1.961-1.425-1.961,1.425.75-2.305-1.962-1.425h2.424Z" transform="translate(-3047.132 -1662.915)" fill="#f5ca56"/>
            <path id="Trazado_100492" data-name="Trazado 100492" d="M3139.063,1662.915l.749,2.305h2.424l-1.961,1.425.749,2.305-1.961-1.425-1.961,1.425.749-2.305-1.961-1.425h2.425Z" transform="translate(-3117.973 -1662.915)" fill="#f5ca56"/>
            <path id="Trazado_100493" data-name="Trazado 100493" d="M3218.862,1662.915l.749,2.305h2.424l-1.961,1.425.749,2.305-1.961-1.425-1.961,1.425.749-2.305-1.961-1.425h2.424Z" transform="translate(-3188.813 -1662.915)" fill="#f5ca56"/>
            <path id="Trazado_100494" data-name="Trazado 100494" d="M3298.661,1662.915l.749,2.305h2.425l-1.962,1.425.749,2.305-1.961-1.425-1.962,1.425.749-2.305-1.961-1.425h2.424Z" transform="translate(-3259.654 -1662.915)" fill="#d8e5ed"/>
          </g>
          <rect id="Rectángulo_29087" data-name="Rectángulo 29087" width="48.866" height="12.652" rx="2" transform="translate(8.782 15.564)" fill="#26aab7"/>
          <g id="Grupo_50299" data-name="Grupo 50299" transform="translate(12.125 18.872)">
            <path id="Trazado_100495" data-name="Trazado 100495" d="M3057.692,1801.557l.748,2.306h2.425l-1.961,1.425.75,2.305-1.961-1.425-1.961,1.425.749-2.305-1.962-1.425h2.425Z" transform="translate(-3054.518 -1801.557)" fill="#f5ca56"/>
            <path id="Trazado_100496" data-name="Trazado 100496" d="M3137.49,1801.557l.749,2.306h2.424l-1.961,1.425.749,2.305-1.961-1.425-1.961,1.425.749-2.305-1.961-1.425h2.425Z" transform="translate(-3125.358 -1801.557)" fill="#f5ca56"/>
            <path id="Trazado_100497" data-name="Trazado 100497" d="M3217.29,1801.557l.749,2.306h2.425l-1.961,1.425.749,2.305-1.961-1.425-1.962,1.425.75-2.305-1.961-1.425h2.424Z" transform="translate(-3196.199 -1801.557)" fill="#f5ca56"/>
            <path id="Trazado_100498" data-name="Trazado 100498" d="M3297.087,1801.557l.749,2.306h2.424l-1.961,1.425.749,2.305-1.961-1.425-1.961,1.425.749-2.305-1.961-1.425h2.424Z" transform="translate(-3267.039 -1801.557)" fill="#f5ca56"/>
            <path id="Trazado_100499" data-name="Trazado 100499" d="M3376.886,1801.557l.749,2.306h2.424l-1.961,1.425.749,2.305-1.961-1.425-1.961,1.425.749-2.305-1.961-1.425h2.424Z" transform="translate(-3337.88 -1801.557)" fill="#f5ca56"/>
          </g>
        </g>
        <g id="Grupo_50457" data-name="Grupo 50457" transform="translate(238.927 143.819)">
          <rect id="Rectángulo_29086-2" data-name="Rectángulo 29086" width="48.866" height="12.652" rx="2" fill="#7d6eb2"/>
          <g id="Grupo_50298-2" data-name="Grupo 50298" transform="translate(3.343 3.308)">
            <path id="Trazado_100490-2" data-name="Trazado 100490" d="M2979.466,1662.915l.75,2.305h2.423l-1.961,1.425.749,2.305-1.961-1.425-1.961,1.425.749-2.305-1.961-1.425h2.424Z" transform="translate(-2976.292 -1662.915)" fill="#f5ca56"/>
            <path id="Trazado_100491-2" data-name="Trazado 100491" d="M3059.264,1662.915l.749,2.305h2.424l-1.961,1.425.75,2.305-1.961-1.425-1.961,1.425.75-2.305-1.962-1.425h2.424Z" transform="translate(-3047.132 -1662.915)" fill="#f5ca56"/>
            <path id="Trazado_100492-2" data-name="Trazado 100492" d="M3139.063,1662.915l.749,2.305h2.424l-1.961,1.425.749,2.305-1.961-1.425-1.961,1.425.749-2.305-1.961-1.425h2.425Z" transform="translate(-3117.973 -1662.915)" fill="#f5ca56"/>
            <path id="Trazado_100493-2" data-name="Trazado 100493" d="M3218.862,1662.915l.749,2.305h2.424l-1.961,1.425.749,2.305-1.961-1.425-1.961,1.425.749-2.305-1.961-1.425h2.424Z" transform="translate(-3188.813 -1662.915)" fill="#f5ca56"/>
            <path id="Trazado_100494-2" data-name="Trazado 100494" d="M3298.661,1662.915l.749,2.305h2.425l-1.962,1.425.749,2.305-1.961-1.425-1.962,1.425.749-2.305-1.961-1.425h2.424Z" transform="translate(-3259.654 -1662.915)" fill="#d8e5ed"/>
          </g>
          <rect id="Rectángulo_29087-2" data-name="Rectángulo 29087" width="48.866" height="12.652" rx="2" transform="translate(8.782 15.564)" fill="#7d6eb2"/>
          <g id="Grupo_50299-2" data-name="Grupo 50299" transform="translate(12.125 18.872)">
            <path id="Trazado_100495-2" data-name="Trazado 100495" d="M3057.692,1801.557l.748,2.306h2.425l-1.961,1.425.75,2.305-1.961-1.425-1.961,1.425.749-2.305-1.962-1.425h2.425Z" transform="translate(-3054.518 -1801.557)" fill="#f5ca56"/>
            <path id="Trazado_100496-2" data-name="Trazado 100496" d="M3137.49,1801.557l.749,2.306h2.424l-1.961,1.425.749,2.305-1.961-1.425-1.961,1.425.749-2.305-1.961-1.425h2.425Z" transform="translate(-3125.358 -1801.557)" fill="#f5ca56"/>
            <path id="Trazado_100497-2" data-name="Trazado 100497" d="M3217.29,1801.557l.749,2.306h2.425l-1.961,1.425.749,2.305-1.961-1.425-1.962,1.425.75-2.305-1.961-1.425h2.424Z" transform="translate(-3196.199 -1801.557)" fill="#f5ca56"/>
            <path id="Trazado_100498-2" data-name="Trazado 100498" d="M3297.087,1801.557l.749,2.306h2.424l-1.961,1.425.749,2.305-1.961-1.425-1.961,1.425.749-2.305-1.961-1.425h2.424Z" transform="translate(-3267.039 -1801.557)" fill="#f5ca56"/>
            <path id="Trazado_100499-2" data-name="Trazado 100499" d="M3376.886,1801.557l.749,2.306h2.424l-1.961,1.425.749,2.305-1.961-1.425-1.961,1.425.749-2.305-1.961-1.425h2.424Z" transform="translate(-3337.88 -1801.557)" fill="#f5ca56"/>
          </g>
        </g>
      </g>
    </g>
  </g>
</svg>
