<svg xmlns="http://www.w3.org/2000/svg" width="812.132" height="271.399" viewBox="0 0 812.132 271.399">
  <g id="Grupo_183701" data-name="Grupo 183701" transform="translate(242.964 6548.299)">
    <g id="Trazado_238561" data-name="Trazado 238561" transform="translate(-87.581 -6548.299)" fill="none">
      <path d="M0,0H459.9V271.4H0Z" stroke="none"/>
      <path d="M 2.999969482421875 3 L 2.999969482421875 268.3995361328125 L 456.900146484375 268.3995361328125 L 456.900146484375 3 L 2.999969482421875 3 M -3.0517578125e-05 0 L 459.900146484375 0 L 459.900146484375 271.3995361328125 L -3.0517578125e-05 271.3995361328125 L -3.0517578125e-05 0 Z" stroke="none" fill="#12263f"/>
    </g>
    <g id="Grupo_183695" data-name="Grupo 183695" transform="translate(21.244 -6510.447)">
      <path id="Trazado_238567" data-name="Trazado 238567" d="M10.642-1.527a4.322,4.322,0,0,1-1.9,1.249A7.961,7.961,0,0,1,6.018.166,5.393,5.393,0,0,1,3.266-.519,4.568,4.568,0,0,1,1.44-2.507,7,7,0,0,1,.78-5.57v-.822a7.431,7.431,0,0,1,.61-3.134,4.513,4.513,0,0,1,1.76-2.025,5.069,5.069,0,0,1,2.694-.7,5.048,5.048,0,0,1,3.362,1.025,4.381,4.381,0,0,1,1.436,2.984H8.218a2.41,2.41,0,0,0-.735-1.519,2.346,2.346,0,0,0-1.565-.481,2.208,2.208,0,0,0-1.934.955A5.02,5.02,0,0,0,3.312-6.45v.772a4.778,4.778,0,0,0,.722,2.872,2.473,2.473,0,0,0,2.117.971,2.762,2.762,0,0,0,2-.6V-4.516H5.885V-6.35h4.756ZM16.635.166a4.409,4.409,0,0,1-3.217-1.212,4.308,4.308,0,0,1-1.241-3.229v-.232a5.426,5.426,0,0,1,.523-2.42,3.838,3.838,0,0,1,1.482-1.644,4.159,4.159,0,0,1,2.187-.577,3.727,3.727,0,0,1,2.9,1.162,4.722,4.722,0,0,1,1.058,3.3v.979H14.609a2.229,2.229,0,0,0,.7,1.411,2.12,2.12,0,0,0,1.482.531,2.589,2.589,0,0,0,2.167-1l1.179,1.32A3.6,3.6,0,0,1,18.677-.261,4.793,4.793,0,0,1,16.635.166Zm-.274-7.379A1.5,1.5,0,0,0,15.2-6.73a2.5,2.5,0,0,0-.569,1.384h3.337v-.192a1.786,1.786,0,0,0-.432-1.238A1.547,1.547,0,0,0,16.361-7.213ZM23.9-8.981l.075,1.038a3.136,3.136,0,0,1,2.582-1.2,2.606,2.606,0,0,1,2.125.838A3.912,3.912,0,0,1,29.393-5.8V0h-2.4V-5.757a1.562,1.562,0,0,0-.332-1.111,1.484,1.484,0,0,0-1.1-.345,1.65,1.65,0,0,0-1.519.865V0h-2.4V-8.981ZM35.345.166a4.409,4.409,0,0,1-3.217-1.212,4.308,4.308,0,0,1-1.241-3.229v-.232a5.426,5.426,0,0,1,.523-2.42,3.838,3.838,0,0,1,1.482-1.644,4.159,4.159,0,0,1,2.187-.577,3.727,3.727,0,0,1,2.9,1.162,4.722,4.722,0,0,1,1.058,3.3v.979H33.319a2.229,2.229,0,0,0,.7,1.411,2.12,2.12,0,0,0,1.482.531,2.589,2.589,0,0,0,2.167-1l1.179,1.32A3.6,3.6,0,0,1,37.387-.261,4.793,4.793,0,0,1,35.345.166Zm-.274-7.379a1.5,1.5,0,0,0-1.158.484,2.5,2.5,0,0,0-.569,1.384h3.337v-.192a1.786,1.786,0,0,0-.432-1.238A1.547,1.547,0,0,0,35.071-7.213Zm10.376.481a6.517,6.517,0,0,0-.863-.066,1.757,1.757,0,0,0-1.785.921V0H40.4V-8.981h2.266l.066,1.071a2.223,2.223,0,0,1,2-1.237,2.514,2.514,0,0,1,.747.108ZM51.556,0a2.664,2.664,0,0,1-.241-.805,2.9,2.9,0,0,1-2.266.971A3.189,3.189,0,0,1,46.862-.6a2.456,2.456,0,0,1-.867-1.926,2.538,2.538,0,0,1,1.058-2.191,5.222,5.222,0,0,1,3.059-.772h1.1V-6a1.48,1.48,0,0,0-.32-1,1.257,1.257,0,0,0-1.009-.374,1.429,1.429,0,0,0-.95.291.987.987,0,0,0-.344.8h-2.4a2.41,2.41,0,0,1,.481-1.444A3.182,3.182,0,0,1,48.037-8.77a4.961,4.961,0,0,1,1.976-.378,3.92,3.92,0,0,1,2.635.834,2.918,2.918,0,0,1,.975,2.345v3.893A4.294,4.294,0,0,0,53.98-.141V0ZM49.572-1.668a2.066,2.066,0,0,0,.979-.237,1.554,1.554,0,0,0,.664-.635V-4.084h-.9q-1.8,0-1.917,1.245l-.008.141a.96.96,0,0,0,.315.739A1.225,1.225,0,0,0,49.572-1.668Zm10.94-5.063a6.517,6.517,0,0,0-.863-.066,1.757,1.757,0,0,0-1.785.921V0h-2.4V-8.981h2.266L57.8-7.911a2.223,2.223,0,0,1,2-1.237,2.514,2.514,0,0,1,.747.108ZM66.556,0V-7.222H65.219v-1.76h1.336v-.764a3.1,3.1,0,0,1,.867-2.345,3.359,3.359,0,0,1,2.428-.834,5.654,5.654,0,0,1,1.22.165l-.025,1.844a3.058,3.058,0,0,0-.73-.075q-1.353,0-1.353,1.281v.728h1.785v1.76H68.963V0ZM77.2,0a2.664,2.664,0,0,1-.241-.805A2.9,2.9,0,0,1,74.69.166,3.189,3.189,0,0,1,72.5-.6a2.456,2.456,0,0,1-.867-1.926,2.538,2.538,0,0,1,1.058-2.191,5.222,5.222,0,0,1,3.059-.772h1.1V-6a1.48,1.48,0,0,0-.32-1,1.257,1.257,0,0,0-1.009-.374,1.429,1.429,0,0,0-.95.291.987.987,0,0,0-.344.8h-2.4a2.41,2.41,0,0,1,.481-1.444A3.182,3.182,0,0,1,73.678-8.77a4.961,4.961,0,0,1,1.976-.378,3.92,3.92,0,0,1,2.635.834,2.918,2.918,0,0,1,.975,2.345v3.893a4.294,4.294,0,0,0,.357,1.934V0ZM75.213-1.668a2.066,2.066,0,0,0,.979-.237,1.554,1.554,0,0,0,.664-.635V-4.084h-.9q-1.8,0-1.917,1.245l-.008.141a.96.96,0,0,0,.315.739A1.225,1.225,0,0,0,75.213-1.668Zm9.629-.1a1.573,1.573,0,0,0,1.079-.365,1.28,1.28,0,0,0,.432-.971H88.6a3.077,3.077,0,0,1-.5,1.673A3.286,3.286,0,0,1,86.764-.253a4.2,4.2,0,0,1-1.88.419,3.9,3.9,0,0,1-3.038-1.224,4.845,4.845,0,0,1-1.112-3.383V-4.6a4.79,4.79,0,0,1,1.1-3.312,3.854,3.854,0,0,1,3.03-1.237,3.778,3.778,0,0,1,2.7.959A3.4,3.4,0,0,1,88.6-5.636h-2.25a1.648,1.648,0,0,0-.432-1.139,1.439,1.439,0,0,0-1.1-.438A1.445,1.445,0,0,0,83.56-6.6a3.541,3.541,0,0,0-.427,1.983v.249a3.586,3.586,0,0,0,.423,2A1.463,1.463,0,0,0,84.842-1.768Zm8-9.421v2.208H94.38v1.76H92.844v4.482a1.07,1.07,0,0,0,.191.714.959.959,0,0,0,.73.216,3.826,3.826,0,0,0,.706-.058V-.05a4.939,4.939,0,0,1-1.453.216,2.29,2.29,0,0,1-2.573-2.548V-7.222H89.134v-1.76h1.312v-2.208ZM101.1-.913A3.008,3.008,0,0,1,98.638.166a2.837,2.837,0,0,1-2.2-.83A3.543,3.543,0,0,1,95.658-3.1V-8.981h2.4v5.809q0,1.4,1.278,1.4a1.732,1.732,0,0,0,1.677-.848V-8.981h2.407V0h-2.258Zm9.181-5.819a6.517,6.517,0,0,0-.863-.066,1.757,1.757,0,0,0-1.785.921V0h-2.4V-8.981H107.5l.066,1.071a2.223,2.223,0,0,1,2-1.237,2.514,2.514,0,0,1,.747.108ZM116.385,0a2.664,2.664,0,0,1-.241-.805,2.9,2.9,0,0,1-2.266.971A3.189,3.189,0,0,1,111.691-.6a2.456,2.456,0,0,1-.867-1.926,2.538,2.538,0,0,1,1.058-2.191,5.222,5.222,0,0,1,3.059-.772h1.1V-6a1.48,1.48,0,0,0-.32-1,1.257,1.257,0,0,0-1.009-.374,1.429,1.429,0,0,0-.95.291.987.987,0,0,0-.344.8h-2.4a2.41,2.41,0,0,1,.481-1.444,3.182,3.182,0,0,1,1.361-1.042,4.961,4.961,0,0,1,1.976-.378,3.92,3.92,0,0,1,2.635.834,2.918,2.918,0,0,1,.975,2.345v3.893a4.294,4.294,0,0,0,.357,1.934V0ZM114.4-1.668a2.066,2.066,0,0,0,.979-.237,1.554,1.554,0,0,0,.664-.635V-4.084h-.9q-1.8,0-1.917,1.245l-.008.141a.96.96,0,0,0,.315.739A1.225,1.225,0,0,0,114.4-1.668Z" transform="translate(62.756 35.447)" fill="#12263f"/>
      <g id="Elipse_6352" data-name="Elipse 6352" transform="translate(-0.244 0.447)" fill="none" stroke="#12263f" stroke-width="3">
        <ellipse cx="121.5" cy="30.5" rx="121.5" ry="30.5" stroke="none"/>
        <ellipse cx="121.5" cy="30.5" rx="120" ry="29" fill="none"/>
      </g>
    </g>
    <g id="Grupo_183696" data-name="Grupo 183696" transform="translate(20.297 -6377.965)">
      <g id="Elipse_6353" data-name="Elipse 6353" transform="translate(-0.297 -0.035)" fill="none" stroke="#12263f" stroke-width="3">
        <ellipse cx="121.5" cy="31" rx="121.5" ry="31" stroke="none"/>
        <ellipse cx="121.5" cy="31" rx="120" ry="29.5" fill="none"/>
      </g>
      <path id="Trazado_238568" data-name="Trazado 238568" d="M8.351-5.254H3.569V-2H9.181V0h-8.1V-12.086H9.164v2.017H3.569v2.88H8.351Zm4.341-3.727.075,1.038a3.136,3.136,0,0,1,2.582-1.2,2.606,2.606,0,0,1,2.125.838A3.912,3.912,0,0,1,18.187-5.8V0h-2.4V-5.757a1.562,1.562,0,0,0-.332-1.111,1.484,1.484,0,0,0-1.1-.345,1.65,1.65,0,0,0-1.519.865V0h-2.4V-8.981ZM23.367-2.93l1.668-6.051h2.507L24.512,0H22.221l-3.03-8.981H21.7ZM31.128,0H28.721V-8.981h2.407ZM28.58-11.306a1.181,1.181,0,0,1,.361-.888,1.356,1.356,0,0,1,.984-.349,1.36,1.36,0,0,1,.979.349,1.175,1.175,0,0,1,.365.888,1.178,1.178,0,0,1-.369.9,1.363,1.363,0,0,1-.975.349,1.363,1.363,0,0,1-.975-.349A1.178,1.178,0,0,1,28.58-11.306ZM38.308,0a2.664,2.664,0,0,1-.241-.805A2.9,2.9,0,0,1,35.8.166,3.189,3.189,0,0,1,33.614-.6a2.456,2.456,0,0,1-.867-1.926A2.538,2.538,0,0,1,33.8-4.715a5.222,5.222,0,0,1,3.059-.772h1.1V-6a1.48,1.48,0,0,0-.32-1,1.257,1.257,0,0,0-1.009-.374,1.429,1.429,0,0,0-.95.291.987.987,0,0,0-.344.8h-2.4a2.41,2.41,0,0,1,.481-1.444A3.182,3.182,0,0,1,34.789-8.77a4.961,4.961,0,0,1,1.976-.378,3.92,3.92,0,0,1,2.635.834,2.918,2.918,0,0,1,.975,2.345v3.893a4.294,4.294,0,0,0,.357,1.934V0ZM36.324-1.668a2.066,2.066,0,0,0,.979-.237,1.554,1.554,0,0,0,.664-.635V-4.084h-.9q-1.8,0-1.917,1.245l-.008.141a.96.96,0,0,0,.315.739A1.225,1.225,0,0,0,36.324-1.668Zm10.94-5.063A6.517,6.517,0,0,0,46.4-6.8a1.757,1.757,0,0,0-1.785.921V0h-2.4V-8.981h2.266l.066,1.071a2.223,2.223,0,0,1,2-1.237,2.514,2.514,0,0,1,.747.108ZM53.308,0V-7.222H51.971v-1.76h1.336v-.764a3.1,3.1,0,0,1,.867-2.345,3.359,3.359,0,0,1,2.428-.834,5.654,5.654,0,0,1,1.22.165L57.8-10.916a3.058,3.058,0,0,0-.73-.075q-1.353,0-1.353,1.281v.728H57.5v1.76H55.715V0ZM63.949,0a2.664,2.664,0,0,1-.241-.805,2.9,2.9,0,0,1-2.266.971A3.189,3.189,0,0,1,59.255-.6a2.456,2.456,0,0,1-.867-1.926,2.538,2.538,0,0,1,1.058-2.191A5.222,5.222,0,0,1,62.5-5.487h1.1V-6a1.48,1.48,0,0,0-.32-1,1.257,1.257,0,0,0-1.009-.374,1.429,1.429,0,0,0-.95.291.987.987,0,0,0-.344.8h-2.4a2.41,2.41,0,0,1,.481-1.444A3.182,3.182,0,0,1,60.43-8.77a4.961,4.961,0,0,1,1.976-.378,3.92,3.92,0,0,1,2.635.834,2.918,2.918,0,0,1,.975,2.345v3.893a4.294,4.294,0,0,0,.357,1.934V0ZM61.965-1.668a2.066,2.066,0,0,0,.979-.237,1.554,1.554,0,0,0,.664-.635V-4.084h-.9q-1.8,0-1.917,1.245l-.008.141a.96.96,0,0,0,.315.739A1.225,1.225,0,0,0,61.965-1.668Zm9.629-.1a1.573,1.573,0,0,0,1.079-.365A1.28,1.28,0,0,0,73.1-3.1h2.25a3.077,3.077,0,0,1-.5,1.673A3.286,3.286,0,0,1,73.516-.253a4.2,4.2,0,0,1-1.88.419A3.9,3.9,0,0,1,68.6-1.058a4.845,4.845,0,0,1-1.112-3.383V-4.6a4.79,4.79,0,0,1,1.1-3.312,3.854,3.854,0,0,1,3.03-1.237,3.778,3.778,0,0,1,2.7.959,3.4,3.4,0,0,1,1.033,2.552H73.1a1.648,1.648,0,0,0-.432-1.139,1.439,1.439,0,0,0-1.1-.438,1.445,1.445,0,0,0-1.266.611,3.541,3.541,0,0,0-.427,1.983v.249a3.586,3.586,0,0,0,.423,2A1.463,1.463,0,0,0,71.594-1.768Zm8-9.421v2.208h1.536v1.76H79.6v4.482a1.07,1.07,0,0,0,.191.714.959.959,0,0,0,.73.216,3.826,3.826,0,0,0,.706-.058V-.05a4.939,4.939,0,0,1-1.453.216A2.29,2.29,0,0,1,77.2-2.382V-7.222H75.886v-1.76H77.2v-2.208ZM87.847-.913A3.008,3.008,0,0,1,85.39.166a2.837,2.837,0,0,1-2.2-.83A3.543,3.543,0,0,1,82.41-3.1V-8.981h2.4v5.809q0,1.4,1.278,1.4a1.732,1.732,0,0,0,1.677-.848V-8.981h2.407V0H87.914Zm9.181-5.819a6.517,6.517,0,0,0-.863-.066,1.757,1.757,0,0,0-1.785.921V0h-2.4V-8.981h2.266l.066,1.071a2.223,2.223,0,0,1,2-1.237,2.514,2.514,0,0,1,.747.108ZM103.137,0a2.664,2.664,0,0,1-.241-.805,2.9,2.9,0,0,1-2.266.971A3.189,3.189,0,0,1,98.443-.6a2.456,2.456,0,0,1-.867-1.926,2.538,2.538,0,0,1,1.058-2.191,5.222,5.222,0,0,1,3.059-.772h1.1V-6a1.48,1.48,0,0,0-.32-1,1.257,1.257,0,0,0-1.009-.374,1.429,1.429,0,0,0-.95.291.987.987,0,0,0-.344.8h-2.4a2.41,2.41,0,0,1,.481-1.444A3.182,3.182,0,0,1,99.618-8.77a4.961,4.961,0,0,1,1.976-.378,3.92,3.92,0,0,1,2.635.834,2.918,2.918,0,0,1,.975,2.345v3.893a4.294,4.294,0,0,0,.357,1.934V0Zm-1.984-1.668a2.066,2.066,0,0,0,.979-.237,1.554,1.554,0,0,0,.664-.635V-4.084h-.9q-1.8,0-1.917,1.245l-.008.141a.96.96,0,0,0,.315.739A1.225,1.225,0,0,0,101.153-1.668Z" transform="translate(68.703 35.965)" fill="#12263f"/>
    </g>
    <path id="Trazado_238565" data-name="Trazado 238565" d="M11.188-4.263A4.528,4.528,0,0,1,9.664-1.011,5.355,5.355,0,0,1,6.038.176,4.816,4.816,0,0,1,2.167-1.481,6.793,6.793,0,0,1,.756-6.029v-.782a7.671,7.671,0,0,1,.65-3.252,4.874,4.874,0,0,1,1.859-2.158,5.207,5.207,0,0,1,2.808-.751,5.217,5.217,0,0,1,3.568,1.187,4.866,4.866,0,0,1,1.564,3.331H8.569a2.673,2.673,0,0,0-.69-1.8,2.555,2.555,0,0,0-1.806-.558A2.24,2.24,0,0,0,4.1-9.866a5.3,5.3,0,0,0-.672,2.931v.967a5.667,5.667,0,0,0,.628,3.032,2.2,2.2,0,0,0,1.982.958,2.6,2.6,0,0,0,1.824-.558,2.521,2.521,0,0,0,.69-1.727Zm1.169-.58A5.64,5.64,0,0,1,12.9-7.365a3.989,3.989,0,0,1,1.569-1.714,4.577,4.577,0,0,1,2.377-.606,4.33,4.33,0,0,1,3.142,1.178,4.727,4.727,0,0,1,1.358,3.2l.018.65a4.97,4.97,0,0,1-1.222,3.511A4.247,4.247,0,0,1,16.866.176a4.268,4.268,0,0,1-3.283-1.318,5.058,5.058,0,0,1-1.226-3.586Zm2.54.18a3.555,3.555,0,0,0,.51,2.073,1.682,1.682,0,0,0,1.459.717,1.686,1.686,0,0,0,1.441-.709,3.89,3.89,0,0,0,.519-2.267,3.519,3.519,0,0,0-.519-2.06,1.686,1.686,0,0,0-1.459-.731,1.658,1.658,0,0,0-1.441.726A3.955,3.955,0,0,0,14.9-4.662ZM25.313-9.51l.079,1.063a3.342,3.342,0,0,1,2.733-1.239,2.536,2.536,0,0,1,2.522,1.45A3.265,3.265,0,0,1,33.5-9.686a2.836,2.836,0,0,1,2.3.9,4.141,4.141,0,0,1,.756,2.711V0H34.014V-6.078A1.818,1.818,0,0,0,33.7-7.263a1.4,1.4,0,0,0-1.116-.374A1.585,1.585,0,0,0,31-6.545L31.008,0h-2.54V-6.07a1.8,1.8,0,0,0-.325-1.2,1.414,1.414,0,0,0-1.107-.37,1.645,1.645,0,0,0-1.564.9V0h-2.54V-9.51ZM42.891.176a4.668,4.668,0,0,1-3.406-1.283,4.561,4.561,0,0,1-1.314-3.419v-.246a5.745,5.745,0,0,1,.554-2.562,4.064,4.064,0,0,1,1.569-1.74,4.4,4.4,0,0,1,2.316-.611,3.947,3.947,0,0,1,3.072,1.23A5,5,0,0,1,46.8-4.966v1.037H40.746a2.36,2.36,0,0,0,.743,1.494,2.245,2.245,0,0,0,1.569.563,2.742,2.742,0,0,0,2.294-1.063l1.248,1.4A3.813,3.813,0,0,1,45.053-.277,5.075,5.075,0,0,1,42.891.176ZM42.6-7.638a1.587,1.587,0,0,0-1.226.512,2.651,2.651,0,0,0-.6,1.466h3.533v-.2a1.891,1.891,0,0,0-.457-1.311A1.638,1.638,0,0,0,42.6-7.638Zm10.986.51a6.9,6.9,0,0,0-.914-.07,1.86,1.86,0,0,0-1.89.976V0h-2.54V-9.51h2.4l.07,1.134a2.354,2.354,0,0,1,2.118-1.31,2.662,2.662,0,0,1,.791.114ZM58.6-1.872a1.666,1.666,0,0,0,1.143-.387A1.355,1.355,0,0,0,60.2-3.287h2.382a3.258,3.258,0,0,1-.527,1.771A3.48,3.48,0,0,1,60.631-.268a4.442,4.442,0,0,1-1.991.444,4.129,4.129,0,0,1-3.217-1.3A5.13,5.13,0,0,1,54.246-4.7v-.167a5.071,5.071,0,0,1,1.169-3.507,4.08,4.08,0,0,1,3.208-1.31A4,4,0,0,1,61.484-8.67a3.594,3.594,0,0,1,1.094,2.7H60.2a1.745,1.745,0,0,0-.457-1.206,1.524,1.524,0,0,0-1.16-.464,1.53,1.53,0,0,0-1.34.647,3.749,3.749,0,0,0-.453,2.1v.264a3.8,3.8,0,0,0,.448,2.113A1.549,1.549,0,0,0,58.6-1.872ZM66.709,0H64.16V-9.51h2.549Zm-2.7-11.971a1.251,1.251,0,0,1,.382-.94,1.436,1.436,0,0,1,1.042-.369,1.44,1.44,0,0,1,1.037.369,1.244,1.244,0,0,1,.387.94,1.247,1.247,0,0,1-.391.949,1.443,1.443,0,0,1-1.033.369,1.443,1.443,0,0,1-1.033-.369A1.247,1.247,0,0,1,64.011-11.971ZM74.312,0a2.821,2.821,0,0,1-.255-.853,3.073,3.073,0,0,1-2.4,1.028,3.376,3.376,0,0,1-2.316-.809,2.6,2.6,0,0,1-.918-2.039,2.687,2.687,0,0,1,1.121-2.32,5.529,5.529,0,0,1,3.239-.817h1.169v-.545a1.567,1.567,0,0,0-.338-1.055,1.331,1.331,0,0,0-1.068-.4,1.513,1.513,0,0,0-1.006.308,1.045,1.045,0,0,0-.365.844h-2.54a2.551,2.551,0,0,1,.51-1.529,3.37,3.37,0,0,1,1.441-1.1,5.253,5.253,0,0,1,2.092-.4,4.15,4.15,0,0,1,2.791.883A3.09,3.09,0,0,1,76.5-6.319V-2.2a4.546,4.546,0,0,0,.378,2.048V0Zm-2.1-1.767a2.188,2.188,0,0,0,1.037-.25,1.645,1.645,0,0,0,.7-.672V-4.324H73q-1.907,0-2.03,1.318l-.009.149a1.017,1.017,0,0,0,.334.782A1.3,1.3,0,0,0,72.211-1.767ZM80.789-9.51l.079,1.1A3.32,3.32,0,0,1,83.6-9.686a2.759,2.759,0,0,1,2.25.888,4.142,4.142,0,0,1,.756,2.654V0h-2.54V-6.1a1.654,1.654,0,0,0-.352-1.176,1.572,1.572,0,0,0-1.169-.366,1.747,1.747,0,0,0-1.608.916V0H78.4V-9.51Zm10.784-2.338V-9.51H93.2v1.863H91.573V-2.9a1.133,1.133,0,0,0,.2.756,1.015,1.015,0,0,0,.773.229,4.051,4.051,0,0,0,.747-.062V-.053a5.229,5.229,0,0,1-1.538.229,2.425,2.425,0,0,1-2.725-2.7V-7.646H87.645V-9.51h1.389v-2.338ZM98.991.176a4.668,4.668,0,0,1-3.406-1.283,4.561,4.561,0,0,1-1.314-3.419v-.246a5.745,5.745,0,0,1,.554-2.562,4.064,4.064,0,0,1,1.569-1.74,4.4,4.4,0,0,1,2.316-.611,3.947,3.947,0,0,1,3.072,1.23A5,5,0,0,1,102.9-4.966v1.037H96.847a2.36,2.36,0,0,0,.743,1.494,2.245,2.245,0,0,0,1.569.563,2.742,2.742,0,0,0,2.294-1.063l1.248,1.4a3.813,3.813,0,0,1-1.547,1.261A5.075,5.075,0,0,1,98.991.176ZM98.7-7.638a1.587,1.587,0,0,0-1.226.512,2.651,2.651,0,0,0-.6,1.466h3.533v-.2a1.891,1.891,0,0,0-.457-1.311A1.638,1.638,0,0,0,98.7-7.638Z" transform="translate(-243.72 -6359.451)" fill="#12263f"/>
    <g id="Grupo_183689" data-name="Grupo 183689" transform="translate(-212.492 -6491.521)">
      <g id="Elipse_6343" data-name="Elipse 6343" transform="translate(0.492 -0.479)" fill="none" stroke="#12263f" stroke-width="4">
        <ellipse cx="23" cy="23.5" rx="23" ry="23.5" stroke="none"/>
        <ellipse cx="23" cy="23.5" rx="21" ry="21.5" fill="none"/>
      </g>
      <path id="Trazado_238529" data-name="Trazado 238529" d="M1712.463-8465v39.271" transform="translate(-1689.314 8511.368)" fill="none" stroke="#12263f" stroke-width="4"/>
      <path id="Trazado_238530" data-name="Trazado 238530" d="M1693.333-8403.218l18.3-21.449,16.4,21.449" transform="translate(-1688.286 8509.202)" fill="none" stroke="#12263f" stroke-width="4"/>
      <path id="Trazado_238531" data-name="Trazado 238531" d="M1693.333-8450.5h34.7" transform="translate(-1688.286 8510.59)" fill="none" stroke="#12263f" stroke-width="4"/>
    </g>
    <g id="Grupo_183694" data-name="Grupo 183694" transform="translate(483.983 -6498.145)">
      <g id="Elipse_6343-2" data-name="Elipse 6343" transform="translate(0.017 0.145)" fill="none" stroke="#12263f" stroke-width="4">
        <circle cx="23" cy="23" r="23" stroke="none"/>
        <circle cx="23" cy="23" r="21" fill="none"/>
      </g>
      <path id="Trazado_238529-2" data-name="Trazado 238529" d="M1712.463-8465v39.271" transform="translate(-1689.314 8511.368)" fill="none" stroke="#12263f" stroke-width="4"/>
      <path id="Trazado_238530-2" data-name="Trazado 238530" d="M1693.333-8403.218l18.3-21.449,16.4,21.449" transform="translate(-1688.286 8509.202)" fill="none" stroke="#12263f" stroke-width="4"/>
      <path id="Trazado_238531-2" data-name="Trazado 238531" d="M1693.333-8450.5h34.7" transform="translate(-1688.286 8510.59)" fill="none" stroke="#12263f" stroke-width="4"/>
    </g>
    <path id="Trazado_238566" data-name="Trazado 238566" d="M7.778-3.357A1.353,1.353,0,0,0,7.251-4.5a6.917,6.917,0,0,0-1.9-.844,13.458,13.458,0,0,1-2.171-.875A3.547,3.547,0,0,1,1-9.4a3.09,3.09,0,0,1,.584-1.85,3.812,3.812,0,0,1,1.679-1.27,6.318,6.318,0,0,1,2.457-.457,5.751,5.751,0,0,1,2.443.5,3.891,3.891,0,0,1,1.666,1.4,3.668,3.668,0,0,1,.593,2.057H7.787a1.726,1.726,0,0,0-.554-1.367,2.276,2.276,0,0,0-1.556-.488,2.432,2.432,0,0,0-1.5.409,1.289,1.289,0,0,0-.536,1.077,1.235,1.235,0,0,0,.628,1.046,7.1,7.1,0,0,0,1.85.791A7.994,7.994,0,0,1,9.4-5.871a3.343,3.343,0,0,1,1.028,2.5A3.08,3.08,0,0,1,9.167-.769,5.5,5.5,0,0,1,5.783.176,6.534,6.534,0,0,1,3.094-.365a4.256,4.256,0,0,1-1.85-1.481,3.793,3.793,0,0,1-.637-2.18H3.252q0,2.118,2.531,2.118A2.462,2.462,0,0,0,7.251-2.29,1.244,1.244,0,0,0,7.778-3.357ZM14.722,0H12.173V-9.51h2.549Zm-2.7-11.971a1.251,1.251,0,0,1,.382-.94,1.436,1.436,0,0,1,1.042-.369,1.44,1.44,0,0,1,1.037.369,1.244,1.244,0,0,1,.387.94,1.247,1.247,0,0,1-.391.949,1.443,1.443,0,0,1-1.033.369,1.443,1.443,0,0,1-1.033-.369A1.247,1.247,0,0,1,12.023-11.971Zm9.94,9.343a.818.818,0,0,0-.461-.734,5.241,5.241,0,0,0-1.481-.479q-3.393-.712-3.393-2.883a2.613,2.613,0,0,1,1.05-2.114,4.237,4.237,0,0,1,2.747-.848,4.56,4.56,0,0,1,2.9.853,2.687,2.687,0,0,1,1.085,2.215h-2.54a1.229,1.229,0,0,0-.352-.9,1.488,1.488,0,0,0-1.1-.356,1.52,1.52,0,0,0-.993.29.916.916,0,0,0-.352.738.783.783,0,0,0,.4.681,4.114,4.114,0,0,0,1.349.448,11.019,11.019,0,0,1,1.6.426,2.628,2.628,0,0,1,2.013,2.558,2.481,2.481,0,0,1-1.116,2.1,4.815,4.815,0,0,1-2.883.8A5.029,5.029,0,0,1,18.312-.25a3.561,3.561,0,0,1-1.455-1.169,2.716,2.716,0,0,1-.527-1.6h2.408a1.326,1.326,0,0,0,.5,1.037,1.987,1.987,0,0,0,1.248.36,1.839,1.839,0,0,0,1.1-.277A.861.861,0,0,0,21.964-2.628Zm7.146-9.22V-9.51h1.626v1.863H29.109V-2.9a1.133,1.133,0,0,0,.2.756,1.015,1.015,0,0,0,.773.229,4.051,4.051,0,0,0,.747-.062V-.053a5.229,5.229,0,0,1-1.538.229,2.425,2.425,0,0,1-2.725-2.7V-7.646H25.181V-9.51h1.389v-2.338ZM36.527.176a4.668,4.668,0,0,1-3.406-1.283,4.561,4.561,0,0,1-1.314-3.419v-.246a5.745,5.745,0,0,1,.554-2.562,4.064,4.064,0,0,1,1.569-1.74,4.4,4.4,0,0,1,2.316-.611,3.947,3.947,0,0,1,3.072,1.23,5,5,0,0,1,1.121,3.489v1.037H34.383a2.36,2.36,0,0,0,.743,1.494,2.245,2.245,0,0,0,1.569.563,2.742,2.742,0,0,0,2.294-1.063l1.248,1.4A3.813,3.813,0,0,1,38.689-.277,5.075,5.075,0,0,1,36.527.176Zm-.29-7.813a1.587,1.587,0,0,0-1.226.512,2.651,2.651,0,0,0-.6,1.466h3.533v-.2a1.891,1.891,0,0,0-.457-1.311A1.638,1.638,0,0,0,36.237-7.638ZM44.262-9.51l.079,1.063a3.342,3.342,0,0,1,2.733-1.239A2.536,2.536,0,0,1,49.6-8.235a3.265,3.265,0,0,1,2.856-1.45,2.836,2.836,0,0,1,2.3.9,4.141,4.141,0,0,1,.756,2.711V0H52.963V-6.078a1.818,1.818,0,0,0-.316-1.185,1.4,1.4,0,0,0-1.116-.374,1.585,1.585,0,0,0-1.582,1.092L49.957,0h-2.54V-6.07a1.8,1.8,0,0,0-.325-1.2,1.414,1.414,0,0,0-1.107-.37,1.645,1.645,0,0,0-1.564.9V0H41.88V-9.51ZM62.974,0a2.821,2.821,0,0,1-.255-.853,3.073,3.073,0,0,1-2.4,1.028A3.376,3.376,0,0,1,58-.633a2.6,2.6,0,0,1-.918-2.039,2.687,2.687,0,0,1,1.121-2.32,5.529,5.529,0,0,1,3.239-.817h1.169v-.545a1.567,1.567,0,0,0-.338-1.055,1.331,1.331,0,0,0-1.068-.4A1.513,1.513,0,0,0,60.2-7.5a1.045,1.045,0,0,0-.365.844H57.3a2.551,2.551,0,0,1,.51-1.529,3.37,3.37,0,0,1,1.441-1.1,5.253,5.253,0,0,1,2.092-.4,4.15,4.15,0,0,1,2.791.883,3.09,3.09,0,0,1,1.033,2.483V-2.2A4.546,4.546,0,0,0,65.54-.149V0Zm-2.1-1.767a2.188,2.188,0,0,0,1.037-.25,1.645,1.645,0,0,0,.7-.672V-4.324h-.949q-1.907,0-2.03,1.318l-.009.149a1.017,1.017,0,0,0,.334.782A1.3,1.3,0,0,0,60.873-1.767ZM75.973.176a4.668,4.668,0,0,1-3.406-1.283,4.561,4.561,0,0,1-1.314-3.419v-.246a5.745,5.745,0,0,1,.554-2.562,4.064,4.064,0,0,1,1.569-1.74,4.4,4.4,0,0,1,2.316-.611,3.947,3.947,0,0,1,3.072,1.23,5,5,0,0,1,1.121,3.489v1.037H73.828a2.36,2.36,0,0,0,.743,1.494,2.245,2.245,0,0,0,1.569.563,2.742,2.742,0,0,0,2.294-1.063l1.248,1.4A3.813,3.813,0,0,1,78.135-.277,5.075,5.075,0,0,1,75.973.176Zm-.29-7.813a1.587,1.587,0,0,0-1.226.512,2.651,2.651,0,0,0-.6,1.466h3.533v-.2a1.891,1.891,0,0,0-.457-1.311A1.638,1.638,0,0,0,75.683-7.638Zm9.264.967,1.6-2.839h2.716L86.555-4.852,89.376,0H86.651l-1.7-2.988L83.268,0H80.534l2.821-4.852-2.7-4.658h2.725Zm8.578-5.177V-9.51H95.15v1.863H93.524V-2.9a1.133,1.133,0,0,0,.2.756,1.015,1.015,0,0,0,.773.229,4.051,4.051,0,0,0,.747-.062V-.053a5.229,5.229,0,0,1-1.538.229,2.425,2.425,0,0,1-2.725-2.7V-7.646H89.6V-9.51h1.389v-2.338ZM100.942.176a4.668,4.668,0,0,1-3.406-1.283,4.561,4.561,0,0,1-1.314-3.419v-.246a5.745,5.745,0,0,1,.554-2.562,4.064,4.064,0,0,1,1.569-1.74,4.4,4.4,0,0,1,2.316-.611,3.947,3.947,0,0,1,3.072,1.23,5,5,0,0,1,1.121,3.489v1.037H98.8a2.36,2.36,0,0,0,.743,1.494,2.245,2.245,0,0,0,1.569.563A2.742,2.742,0,0,0,103.4-2.936l1.248,1.4A3.813,3.813,0,0,1,103.1-.277,5.075,5.075,0,0,1,100.942.176Zm-.29-7.813a1.587,1.587,0,0,0-1.226.512,2.651,2.651,0,0,0-.6,1.466h3.533v-.2a1.891,1.891,0,0,0-.457-1.311A1.638,1.638,0,0,0,100.652-7.638Zm10.986.51a6.9,6.9,0,0,0-.914-.07,1.86,1.86,0,0,0-1.89.976V0h-2.54V-9.51h2.4l.07,1.134a2.354,2.354,0,0,1,2.118-1.31,2.662,2.662,0,0,1,.791.114ZM115.2-9.51l.079,1.1a3.32,3.32,0,0,1,2.733-1.274,2.759,2.759,0,0,1,2.25.888,4.142,4.142,0,0,1,.756,2.654V0h-2.54V-6.1a1.654,1.654,0,0,0-.352-1.176,1.572,1.572,0,0,0-1.169-.366,1.747,1.747,0,0,0-1.608.916V0h-2.54V-9.51Zm7.348,4.667a5.64,5.64,0,0,1,.545-2.522,3.989,3.989,0,0,1,1.569-1.714,4.577,4.577,0,0,1,2.377-.606,4.33,4.33,0,0,1,3.142,1.178,4.727,4.727,0,0,1,1.358,3.2l.018.65a4.97,4.97,0,0,1-1.222,3.511A4.247,4.247,0,0,1,127.055.176a4.268,4.268,0,0,1-3.283-1.318,5.058,5.058,0,0,1-1.226-3.586Zm2.54.18a3.555,3.555,0,0,0,.51,2.073,1.682,1.682,0,0,0,1.459.717,1.686,1.686,0,0,0,1.441-.709,3.89,3.89,0,0,0,.519-2.267,3.519,3.519,0,0,0-.519-2.06,1.686,1.686,0,0,0-1.459-.731,1.658,1.658,0,0,0-1.441.726A3.955,3.955,0,0,0,125.086-4.662Z" transform="translate(437.614 -6353.772)" fill="#12263f"/>
    <path id="Trazado_238562" data-name="Trazado 238562" d="M0,45.422,139.106,0" transform="translate(-134.422 -6475.907)" fill="none" stroke="#12263f" stroke-width="3"/>
    <path id="Trazado_238563" data-name="Trazado 238563" d="M0,0,131.535,59.617" transform="translate(-134.422 -6413.452)" fill="none" stroke="#12263f" stroke-width="3"/>
    <path id="Trazado_238564" data-name="Trazado 238564" d="M0,76.65,165.6,0" transform="translate(281.002 -6430.485)" fill="none" stroke="#12263f" stroke-width="3"/>
  </g>
</svg>
