<svg xmlns="http://www.w3.org/2000/svg" xmlns:xlink="http://www.w3.org/1999/xlink" width="89.35" height="89.35" viewBox="0 0 89.35 89.35">
  <defs>
    <clipPath id="clip-path">
      <rect id="Rectángulo_60300" data-name="Rectángulo 60300" width="50.481" height="45.911" fill="#12263f"/>
    </clipPath>
  </defs>
  <g id="Grupo_183663" data-name="Grupo 183663" transform="translate(-9954.216 6833.571)">
    <ellipse id="Elipse_6340" data-name="Elipse 6340" cx="44.675" cy="44.675" rx="44.675" ry="44.675" transform="translate(9954.216 -6833.571)" fill="#4adbd1"/>
    <g id="Grupo_183438" data-name="Grupo 183438" transform="translate(9973.65 -6813.456)">
      <g id="Grupo_183437" data-name="Grupo 183437" clip-path="url(#clip-path)">
        <path id="Trazado_238383" data-name="Trazado 238383" d="M7.7,15.746v-.714q0-6.162,0-12.323A2.482,2.482,0,0,1,10.384,0Q25.239,0,40.094,0a2.473,2.473,0,0,1,2.691,2.7q0,6.188,0,12.375v.667c1.307,0,2.555-.009,3.8,0a3.875,3.875,0,0,1,3.763,2.966,4.861,4.861,0,0,1,.125,1.137q.008,10.991,0,21.983a3.939,3.939,0,0,1-4.137,4.077q-17.048-.009-34.1,0-4.047,0-8.093,0A3.93,3.93,0,0,1,0,41.785q-.009-11.017,0-22.035a3.9,3.9,0,0,1,4.04-4c1.2,0,2.393,0,3.651,0M25.278,2.309c-4.889,0-9.779.006-14.668-.009-.468,0-.623.113-.622.608q.026,8.926,0,17.853a.785.785,0,0,0,.431.787q7.184,4.3,14.346,8.628a.765.765,0,0,0,.93.012q7.16-4.335,14.346-8.627a.825.825,0,0,0,.448-.831q-.017-8.874-.008-17.749c0-.671,0-.672-.693-.672H25.278M4.451,43.565H45.992c-.148-.106-.211-.159-.28-.2q-9.2-5.537-18.4-11.081a.607.607,0,0,0-.748.058,2.217,2.217,0,0,1-2.595.016.745.745,0,0,0-.931.01Q14.175,37.718,5.3,43.044c-.247.149-.491.3-.85.522M21.272,30.751,2.357,19.376V42.127L21.272,30.751M48.114,42.12V19.382l-18.9,11.369,18.9,11.369M7.678,18.078H4.851l-.034.088,2.861,1.719Zm38.111.014H42.834v1.775l2.954-1.775" transform="translate(0.001 0)" fill="#12263f"/>
        <path id="Trazado_238384" data-name="Trazado 238384" d="M168.445,72.274l.216-1.052H170.9c-.331,1.729-.665,3.434-.979,5.141a4.757,4.757,0,0,0-.089,1.137c.032.523.3.746.8.6a2.063,2.063,0,0,0,1.039-.611,3.565,3.565,0,0,0,.678-1.439c.7-3.578-.858-7.013-5.585-7.337a6.475,6.475,0,0,0-6.469,3.6,6.783,6.783,0,0,0,6.977,9.9,6.927,6.927,0,0,0,3.744-1.3.623.623,0,0,1,.329-.126c.779-.011,1.557-.006,2.409-.006a2.755,2.755,0,0,1-.21.347,8.988,8.988,0,0,1-9.43,2.952,8.428,8.428,0,0,1-6.72-6.666,8.857,8.857,0,0,1,7.271-10.7A8.711,8.711,0,0,1,173,69.473a7.382,7.382,0,0,1,1.412,7.441,5.02,5.02,0,0,1-5.315,3.353,1.513,1.513,0,0,1-1.5-1.145,12.013,12.013,0,0,1-1.761.945,3.369,3.369,0,0,1-4.654-2.648,5.515,5.515,0,0,1,1.517-5.281,4.353,4.353,0,0,1,4.194-1.132,2.313,2.313,0,0,1,1.552,1.268m-.606,3.031-.044-.01c-.01-.191-.007-.383-.031-.572a1.744,1.744,0,0,0-2.182-1.652,2.25,2.25,0,0,0-1.708,1.23,3.418,3.418,0,0,0-.268,2.626,1.561,1.561,0,0,0,1.082,1.106,2.185,2.185,0,0,0,2.9-1.46,11.049,11.049,0,0,0,.252-1.268" transform="translate(-140.753 -59.625)" fill="#12263f"/>
      </g>
    </g>
  </g>
</svg>
